# Blender v3.4.1 OBJ File: 'Medieval_Hexagons_Export_1.0_WorldOrigin.blend'
# www.blender.org
mtllib hex_river_A_curvy.mtl
o hex_river_A_curvy
v -1.000000 -0.100000 -0.461880
v -1.000000 -0.100000 0.461880
v 1.000000 -0.100000 -0.461880
v 1.000000 -0.100000 0.461880
v -0.000000 -1.000000 0.000000
v -0.950000 0.000000 0.511880
v -1.000000 -0.050000 0.461880
v -1.000000 -0.050000 0.577350
v -0.950000 0.000000 0.548482
v 1.000000 -0.050000 0.461880
v 0.950000 0.000000 0.511880
v 0.950000 0.000000 0.548483
v 1.000000 -0.050000 0.577350
v -0.950000 0.000000 -0.548482
v -1.000000 -0.050000 -0.577350
v -1.000000 -0.050000 -0.461880
v -0.950000 0.000000 -0.511880
v 0.000000 0.000000 -1.096965
v -0.000000 -0.050000 -1.154700
v 0.950000 0.000000 -0.548482
v 1.000000 -0.050000 -0.577350
v 0.950000 0.000000 -0.511880
v 1.000000 -0.050000 -0.461880
v -0.000000 0.000000 1.096965
v -0.000000 -0.050000 1.154700
v -0.105695 -0.100000 -0.398463
v -0.569187 -0.100000 -0.332636
v -0.251112 -0.100000 -0.339651
v -0.420762 -0.100000 -0.315557
v 0.579467 -0.100000 -0.588040
v 0.120945 -0.100000 -0.534447
v 0.427945 -0.100000 -0.607887
v 0.260115 -0.100000 -0.588271
v -0.579467 -0.100000 0.588040
v -0.120945 -0.100000 0.534447
v -0.427945 -0.100000 0.607887
v -0.260115 -0.100000 0.588271
v 0.105695 -0.100000 0.398463
v 0.569187 -0.100000 0.332636
v 0.251112 -0.100000 0.339651
v 0.420762 -0.100000 0.315557
v -0.569188 -0.050000 -0.332636
v -0.105034 -0.050000 -0.398860
v -0.420674 -0.050000 -0.315610
v -0.250782 -0.050000 -0.339849
v 0.120895 -0.050000 -0.534417
v 0.579879 -0.050000 -0.587916
v 0.260145 -0.050000 -0.588239
v 0.428145 -0.050000 -0.607821
v 0.569188 -0.050000 0.332637
v 0.105034 -0.050000 0.398860
v 0.420674 -0.050000 0.315610
v 0.250782 -0.050000 0.339849
v -0.120895 -0.050000 0.534417
v -0.579879 -0.050000 0.587916
v -0.260145 -0.050000 0.588239
v -0.428145 -0.050000 0.607821
v -0.244715 0.000000 0.635084
v -0.106574 0.000000 0.579190
v -0.412033 0.000000 0.655099
v -0.563694 0.000000 0.633871
v 0.403507 0.000000 0.368240
v 0.551436 0.000000 0.386018
v 0.234126 0.000000 0.393809
v 0.088679 0.000000 0.455873
v -0.088679 0.000000 -0.455872
v -0.234126 0.000000 -0.393809
v -0.403507 0.000000 -0.368240
v -0.551436 0.000000 -0.386018
v 0.563694 0.000000 -0.633871
v 0.412033 0.000000 -0.655099
v 0.244715 0.000000 -0.635084
v 0.106574 0.000000 -0.579190
v -1.000000 -0.100000 -0.153960
v -1.000000 -0.100000 0.153960
v 1.000000 -0.100000 -0.153960
v 1.000000 -0.100000 0.153960
v 0.257114 -0.100000 -0.278964
v 0.254113 -0.100000 0.030344
v 0.425551 -0.100000 -0.300072
v 0.423157 -0.100000 0.007742
v 0.576040 -0.100000 -0.281148
v 0.572614 -0.100000 0.025744
v 0.115862 -0.100000 -0.223477
v 0.110778 -0.100000 0.087493
v -0.110778 -0.100000 -0.087493
v -0.115862 -0.100000 0.223477
v -0.254113 -0.100000 -0.030344
v -0.257114 -0.100000 0.278964
v -0.423157 -0.100000 -0.007742
v -0.425551 -0.100000 0.300073
v -0.572614 -0.100000 -0.025744
v -0.576040 -0.100000 0.281148
v -1.000000 -1.000000 0.461880
v -1.000000 -1.000000 0.577350
v 1.000000 -1.000000 0.461880
v 1.000000 -1.000000 0.577350
v -1.000000 -1.000000 -0.577350
v -1.000000 -1.000000 -0.461880
v -1.000000 -1.000000 0.153960
v 0.000000 -1.000000 -1.154700
v 1.000000 -1.000000 -0.577350
v 1.000000 -1.000000 -0.461880
v 1.000000 -1.000000 0.153960
v -0.000000 -1.000000 1.154700
v -1.000000 -1.000000 -0.153960
v 1.000000 -1.000000 -0.153960
vt 0.049098 0.383213
vt 0.047190 0.383213
vt 0.047190 0.387907
vt 0.049096 0.387907
vt 0.051726 0.298735
vt 0.056262 0.298735
vt 0.056262 0.356657
vt 0.051726 0.356657
vt 0.054354 0.383213
vt 0.056262 0.383213
vt 0.056262 0.387907
vt 0.054356 0.387907
vt 0.052205 0.383213
vt 0.051177 0.383213
vt 0.051178 0.387907
vt 0.052202 0.387907
vt 0.056262 0.298735
vt 0.051726 0.298735
vt 0.051726 0.356657
vt 0.056262 0.356657
vt 0.047190 0.298735
vt 0.047190 0.298735
vt 0.047190 0.351963
vt 0.056262 0.351963
vt 0.056262 0.298735
vt 0.067009 0.408225
vt 0.067895 0.408225
vt 0.067969 0.403532
vt 0.066944 0.403532
vt 0.047190 0.356657
vt 0.056262 0.356657
vt 0.047190 0.298735
vt 0.047190 0.356657
vt 0.063183 0.408225
vt 0.064936 0.408225
vt 0.064862 0.403532
vt 0.062957 0.403532
vt 0.047190 0.298735
vt 0.047190 0.351963
vt 0.056262 0.351963
vt 0.056262 0.356657
vt 0.047190 0.356657
vt 0.198244 0.601963
vt 0.198244 0.695713
vt 0.198244 0.611235
vt 0.198244 0.517485
vt 0.056262 0.298735
vt 0.212589 0.601963
vt 0.212589 0.695713
vt 0.212589 0.611235
vt 0.212589 0.517485
vt 0.062957 0.403532
vt 0.063183 0.408225
vt 0.071802 0.408225
vt 0.071802 0.408225
vt 0.072028 0.403532
vt 0.072028 0.403532
vt 0.062957 0.403532
vt 0.062957 0.403532
vt 0.063183 0.408225
vt 0.063183 0.408225
vt 0.067492 0.403532
vt 0.067492 0.408225
vt 0.072028 0.403532
vt 0.071802 0.408225
vt 0.071802 0.408225
vt 0.072028 0.403532
vt 0.067492 0.403532
vt 0.067492 0.408225
vt 0.087568 0.423850
vt 0.085816 0.423850
vt 0.087568 0.423850
vt 0.085760 0.423850
vt 0.087568 0.423850
vt 0.087568 0.423850
vt 0.069994 0.408225
vt 0.070074 0.403532
vt 0.067016 0.403532
vt 0.068041 0.403532
vt 0.067976 0.408225
vt 0.067090 0.408225
vt 0.070123 0.403532
vt 0.070049 0.408225
vt 0.064911 0.403532
vt 0.064991 0.408225
vt 0.056262 0.383213
vt 0.054308 0.383213
vt 0.054308 0.387907
vt 0.056262 0.387907
vt 0.051247 0.383213
vt 0.052275 0.383213
vt 0.052274 0.387907
vt 0.051250 0.387907
vt 0.171054 0.633213
vt 0.169842 0.633213
vt 0.169820 0.726963
vt 0.171037 0.726963
vt 0.172126 0.633213
vt 0.172102 0.726963
vt 0.175192 0.633213
vt 0.175192 0.726963
vt 0.163888 0.633213
vt 0.160847 0.633213
vt 0.160847 0.726963
vt 0.163863 0.726963
vt 0.066312 0.403532
vt 0.066382 0.408225
vt 0.065550 0.403532
vt 0.065624 0.408225
vt 0.069401 0.403532
vt 0.069323 0.408225
vt 0.068630 0.403532
vt 0.068554 0.408225
vt 0.066430 0.408225
vt 0.066355 0.403532
vt 0.065662 0.408225
vt 0.065584 0.403532
vt 0.069361 0.408225
vt 0.069434 0.403532
vt 0.068602 0.408225
vt 0.068672 0.403532
vt 0.052863 0.387907
vt 0.052865 0.383213
vt 0.053634 0.387907
vt 0.053634 0.383213
vt 0.049784 0.387907
vt 0.049785 0.383213
vt 0.050546 0.387907
vt 0.050546 0.383213
vt 0.050588 0.387907
vt 0.050587 0.383213
vt 0.049818 0.387907
vt 0.049817 0.383213
vt 0.049144 0.387907
vt 0.049144 0.383213
vt 0.053668 0.387907
vt 0.053667 0.383213
vt 0.052906 0.387907
vt 0.052906 0.383213
vt 0.047190 0.383213
vt 0.047190 0.387907
vt 0.078950 0.423850
vt 0.078950 0.423850
vt 0.080702 0.423850
vt 0.083259 0.423850
vt 0.078950 0.423850
vt 0.078950 0.423850
vt 0.080758 0.423850
vt 0.083259 0.423850
vt 0.082776 0.423850
vt 0.082149 0.423850
vt 0.081390 0.423850
vt 0.085089 0.423850
vt 0.084321 0.423850
vt 0.083661 0.423850
vt 0.082197 0.423850
vt 0.082857 0.423850
vt 0.081429 0.423850
vt 0.085128 0.423850
vt 0.084369 0.423850
vt 0.083742 0.423850
vt 0.168814 0.633213
vt 0.168777 0.726963
vt 0.167188 0.633213
vt 0.167152 0.726963
vt 0.166175 0.633213
vt 0.166154 0.726963
vt 0.164967 0.633213
vt 0.164950 0.726963
vt 0.165001 0.726963
vt 0.163937 0.726963
vt 0.163912 0.633213
vt 0.164984 0.633213
vt 0.166218 0.726963
vt 0.166197 0.633213
vt 0.167261 0.726963
vt 0.167225 0.633213
vt 0.168887 0.726963
vt 0.168850 0.633213
vt 0.169885 0.726963
vt 0.169863 0.633213
vt 0.160847 0.726963
vt 0.160847 0.633213
vt 0.175192 0.726963
vt 0.172176 0.726963
vt 0.172151 0.633213
vt 0.175192 0.633213
vt 0.171089 0.726963
vt 0.171072 0.633213
vt 0.212589 0.695713
vt 0.212589 0.601963
vt 0.212589 0.517485
vt 0.212589 0.611235
vt 0.198244 0.695713
vt 0.198244 0.601963
vt 0.198244 0.517485
vt 0.198244 0.611235
vt 0.047190 0.356657
vt 0.177926 0.538250
vt 0.174957 0.538250
vt 0.174957 0.538250
vt 0.180896 0.538250
vt 0.180896 0.538250
vt 0.174957 0.538250
vt 0.174957 0.538250
vt 0.174957 0.538250
vt 0.177926 0.538250
vt 0.180896 0.538250
vt 0.180896 0.538250
vt 0.180896 0.538250
vt 0.177926 0.538250
vt 0.174957 0.538250
vt 0.180896 0.538250
vn 0.2089 -0.0005 -0.9779
vn 0.2873 -0.0000 -0.9578
vn 0.2833 0.2010 -0.9377
vn 0.2091 0.3311 -0.9201
vn 0.5000 0.0000 0.8660
vn -0.2089 -0.0005 0.9779
vn -0.2873 0.0000 0.9578
vn -0.2833 0.2010 0.9377
vn -0.2091 0.3311 0.9201
vn -0.4455 0.0009 -0.8953
vn -0.4391 -0.0003 -0.8984
vn -0.4392 -0.0003 -0.8984
vn -0.4468 0.0009 -0.8946
vn 0.5000 0.0000 -0.8660
vn -1.0000 0.0000 0.0000
vn 1.0000 0.0000 0.0000
vn -0.3273 0.6750 -0.6612
vn -0.3614 0.6574 -0.6613
vn -0.3222 0.6635 -0.6752
vn -0.3363 0.6722 -0.6596
vn -0.5000 0.0000 -0.8660
vn -0.5000 0.0000 0.8660
vn 0.2383 0.5857 -0.7747
vn 0.1528 0.6346 -0.7576
vn -0.7071 0.7071 0.0000
vn 0.7071 0.7071 0.0000
vn -0.3536 0.7071 -0.6124
vn 0.3536 0.7071 -0.6124
vn 0.3536 0.7071 0.6124
vn -0.3536 0.7071 0.6124
vn 0.0000 1.0000 -0.0000
vn 0.1316 0.7523 -0.6456
vn 0.1894 0.7649 -0.6157
vn 0.1376 0.7537 -0.6427
vn 0.3222 0.6635 0.6752
vn 0.3363 0.6722 0.6596
vn 0.3273 0.6750 0.6612
vn 0.3614 0.6574 0.6613
vn -0.2383 0.5857 0.7747
vn -0.1528 0.6346 0.7576
vn -0.1894 0.7649 0.6157
vn -0.1376 0.7537 0.6427
vn -0.1316 0.7523 0.6456
vn 0.2015 0.0003 -0.9795
vn 0.4455 0.0009 0.8953
vn 0.4391 -0.0003 0.8984
vn 0.4392 -0.0003 0.8984
vn 0.4468 0.0009 0.8946
vn -0.1725 0.6980 -0.6950
vn -0.1782 0.6979 -0.6936
vn 0.0215 0.6794 -0.7335
vn -0.0064 0.6848 -0.7287
vn 0.0029 0.7289 -0.6846
vn -0.0251 0.7245 -0.6889
vn -0.1695 0.6971 -0.6967
vn -0.2181 0.6863 -0.6939
vn 0.2181 0.6863 0.6939
vn 0.1695 0.6971 0.6967
vn 0.0251 0.7245 0.6889
vn -0.0029 0.7289 0.6846
vn 0.0064 0.6848 0.7287
vn -0.0215 0.6794 0.7335
vn 0.1782 0.6979 0.6936
vn 0.1725 0.6980 0.6950
vn -0.2605 0.0019 -0.9655
vn -0.2594 0.0019 -0.9658
vn -0.0137 0.0013 -0.9999
vn -0.0134 0.0013 -0.9999
vn 0.0074 -0.0012 -1.0000
vn 0.0068 -0.0012 -1.0000
vn -0.2402 -0.0009 -0.9707
vn 0.2605 0.0019 0.9655
vn 0.2594 0.0019 0.9658
vn 0.0137 0.0013 0.9999
vn 0.0134 0.0013 0.9999
vn -0.2015 0.0003 0.9795
vn -0.0074 -0.0012 1.0000
vn -0.0068 -0.0012 1.0000
vn 0.2402 -0.0009 0.9707
vn 0.0000 -1.0000 0.0000
usemtl hexagons_medieval
s 1
f 34/1/1 2/2/2 7/3/3 55/4/4
f 105/5/5 97/6/5 13/7/5 25/8/5
f 30/9/6 3/10/7 23/11/8 47/12/9
f 38/13/10 35/14/11 54/15/12 51/16/13
f 102/17/14 101/18/14 19/19/14 21/20/14
f 98/21/15 99/22/15 1/23/15
f 3/24/16 103/25/16 102/17/16
f 59/26/17 65/27/18 51/28/19 54/29/20
f 101/18/21 98/21/21 15/30/21 19/19/21
f 23/31/16 3/24/16 102/17/16 21/20/16
f 95/32/22 105/5/22 25/8/22 8/33/22
f 6/34/23 61/35/24 55/36/4 7/37/3
f 94/38/15 95/32/15 2/39/15
f 13/7/16 97/6/16 4/40/16 10/41/16
f 15/30/15 98/21/15 1/23/15 16/42/15
f 74/43/15 1/44/15 99/45/15 106/46/15
f 97/6/16 96/47/16 4/40/16
f 77/48/16 4/49/16 96/50/16 104/51/16
f 7/37/25 8/52/25 9/53/25 6/34/25
f 11/54/26 12/55/26 13/56/26 10/57/26
f 15/58/25 16/59/25 17/60/25 14/61/25
f 19/62/27 15/58/27 14/61/27 18/63/27
f 21/64/28 19/62/28 18/63/28 20/65/28
f 20/65/26 22/66/26 23/67/26 21/64/26
f 25/68/29 13/56/29 12/55/29 24/69/29
f 8/52/30 25/68/30 24/69/30 9/53/30
f 20/70/31 70/71/31 22/72/31
f 63/73/31 12/74/31 11/75/31
f 63/76/32 11/54/33 10/57/33 50/77/34
f 43/78/35 46/79/36 73/80/37 66/81/38
f 47/82/9 23/67/8 22/66/39 70/83/40
f 16/59/41 42/84/42 69/85/43 17/60/41
f 4/86/2 39/87/44 50/88/44 10/89/2
f 26/90/45 31/91/46 46/92/47 43/93/48
f 81/94/31 79/95/31 40/96/31 41/97/31
f 83/98/31 81/94/31 41/97/31 39/99/31
f 77/100/31 83/98/31 39/99/31 4/101/31
f 93/102/31 75/103/31 2/104/31 34/105/31
f 59/26/17 54/29/20 56/106/49 58/107/50
f 58/107/50 56/106/49 57/108/51 60/109/52
f 60/109/52 57/108/51 55/36/4 61/35/24
f 63/76/32 50/77/34 52/110/53 62/111/54
f 62/111/54 52/110/53 53/112/55 64/113/56
f 64/113/56 53/112/55 51/28/19 65/27/18
f 43/78/35 66/81/38 67/114/57 45/115/58
f 45/115/58 67/114/57 68/116/59 44/117/60
f 44/117/60 68/116/59 69/85/43 42/84/42
f 47/82/9 70/83/40 71/118/61 49/119/62
f 49/119/62 71/118/61 72/120/63 48/121/64
f 48/121/64 72/120/63 73/80/37 46/79/36
f 38/13/10 51/16/13 53/122/65 40/123/66
f 40/123/66 53/122/65 52/124/67 41/125/68
f 41/125/68 52/124/67 50/88/44 39/87/44
f 34/1/1 55/4/4 57/126/69 36/127/70
f 36/127/70 57/126/69 56/128/71 37/129/71
f 37/129/71 56/128/71 54/15/12 35/14/11
f 26/90/45 43/93/48 45/130/72 28/131/73
f 28/131/73 45/130/72 44/132/74 29/133/75
f 29/133/75 44/132/74 42/134/76 27/135/76
f 30/9/6 47/12/9 49/136/77 32/137/78
f 32/137/78 49/136/77 48/138/79 33/139/79
f 33/139/79 48/138/79 46/92/47 31/91/46
f 1/140/7 27/135/76 42/134/76 16/141/7
f 6/142/31 9/143/31 61/144/31
f 24/145/31 12/74/31 63/73/31
f 14/146/31 17/147/31 69/148/31
f 18/149/31 14/146/31 69/148/31
f 9/143/31 24/145/31 61/144/31
f 20/70/31 18/149/31 70/71/31
f 24/145/31 59/150/31 58/151/31
f 24/145/31 58/151/31 60/152/31
f 24/145/31 60/152/31 61/144/31
f 24/145/31 63/73/31 62/153/31
f 24/145/31 62/153/31 64/154/31
f 24/145/31 64/154/31 65/155/31
f 24/145/31 65/155/31 59/150/31
f 18/149/31 67/156/31 66/157/31
f 18/149/31 68/158/31 67/156/31
f 18/149/31 69/148/31 68/158/31
f 18/149/31 71/159/31 70/71/31
f 18/149/31 72/160/31 71/159/31
f 18/149/31 73/161/31 72/160/31
f 18/149/31 66/157/31 73/161/31
f 79/95/31 85/162/31 38/163/31 40/96/31
f 85/162/31 87/164/31 35/165/31 38/163/31
f 87/164/31 89/166/31 37/167/31 35/165/31
f 89/166/31 91/168/31 36/169/31 37/167/31
f 91/168/31 93/102/31 34/105/31 36/169/31
f 29/170/31 27/171/31 92/172/31 90/173/31
f 90/173/31 92/172/31 93/102/31 91/168/31
f 28/174/31 29/170/31 90/173/31 88/175/31
f 88/175/31 90/173/31 91/168/31 89/166/31
f 26/176/31 28/174/31 88/175/31 86/177/31
f 86/177/31 88/175/31 89/166/31 87/164/31
f 31/178/31 26/176/31 86/177/31 84/179/31
f 84/179/31 86/177/31 87/164/31 85/162/31
f 33/180/31 31/178/31 84/179/31 78/181/31
f 78/181/31 84/179/31 85/162/31 79/95/31
f 27/171/31 1/182/31 74/183/31 92/172/31
f 92/172/31 74/183/31 75/103/31 93/102/31
f 3/184/31 30/185/31 82/186/31 76/187/31
f 76/187/31 82/186/31 83/98/31 77/100/31
f 30/185/31 32/188/31 80/189/31 82/186/31
f 82/186/31 80/189/31 81/94/31 83/98/31
f 32/188/31 33/180/31 78/181/31 80/189/31
f 80/189/31 78/181/31 79/95/31 81/94/31
f 3/190/16 76/191/16 107/192/16 103/193/16
f 76/191/16 77/48/16 104/51/16 107/192/16
f 2/194/15 75/195/15 100/196/15 94/197/15
f 75/195/15 74/43/15 106/46/15 100/196/15
f 95/32/15 8/33/15 7/198/15 2/39/15
f 5/199/80 95/200/80 94/201/80
f 5/199/80 96/202/80 97/203/80
f 5/199/80 99/204/80 98/205/80
f 5/199/80 94/201/80 100/206/80
f 5/199/80 98/205/80 101/207/80
f 5/199/80 101/207/80 102/208/80
f 5/199/80 102/208/80 103/209/80
f 5/199/80 104/210/80 96/202/80
f 5/199/80 97/203/80 105/211/80
f 5/199/80 105/211/80 95/200/80
f 5/199/80 106/212/80 99/204/80
f 5/199/80 100/206/80 106/212/80
f 5/199/80 103/209/80 107/213/80
f 5/199/80 107/213/80 104/210/80
