# Blender v3.4.1 OBJ File: 'Medieval_Hexagons_Export_1.0_WorldOrigin.blend'
# www.blender.org
mtllib hex_river_K.mtl
o hex_river_K
v -1.000000 -0.100000 -0.461880
v -1.000000 -0.100000 0.461880
v -0.100000 -0.100000 -1.096965
v -0.900000 -0.100000 -0.635085
v 0.900000 -0.100000 -0.635085
v 0.100000 -0.100000 -1.096965
v 0.100000 -0.100000 1.096965
v 0.900000 -0.100000 0.635085
v -0.900000 -0.100000 0.635085
v -0.100000 -0.100000 1.096965
v 0.000000 -1.000000 0.000000
v 0.031699 0.000000 -1.078664
v 0.100000 -0.050000 -1.096965
v 0.000000 -0.050000 -1.154700
v -0.000000 0.000000 -1.096965
v 0.918301 0.000000 0.566784
v 0.900000 -0.050000 0.635085
v 1.000000 -0.050000 0.577350
v 0.950000 0.000000 0.548483
v -0.031699 0.000000 1.078664
v -0.100000 -0.050000 1.096965
v -0.000000 -0.050000 1.154700
v -0.000000 0.000000 1.096965
v -0.900000 -0.050000 -0.635085
v -1.000000 -0.050000 -0.577350
v -0.950000 0.000000 -0.548482
v -1.000000 -0.050000 0.461880
v -1.000000 -0.050000 0.577350
v -0.950000 0.000000 0.548482
v -1.000000 -0.050000 -0.461880
v -0.950000 0.000000 -0.511880
v -0.100000 -0.050000 -1.096965
v -0.031699 0.000000 -1.078664
v 0.950000 0.000000 -0.548482
v 1.000000 -0.050000 -0.577350
v 0.900000 -0.050000 -0.635085
v 0.918301 0.000000 -0.566784
v 0.100000 -0.050000 1.096965
v -0.900000 -0.050000 0.635085
v -0.918301 0.000000 0.566784
v 0.802546 -0.100000 0.466289
v 0.802546 -0.100000 -0.466290
v 0.720015 -0.100000 0.252354
v 0.691034 -0.100000 -0.000000
v 0.720015 -0.100000 -0.252354
v 0.861082 0.000000 -0.467677
v 0.861082 -0.000000 0.467677
v 0.778306 0.000000 -0.253105
v 0.749239 0.000000 -0.000000
v 0.778306 -0.000000 0.253105
v 0.802916 -0.050000 -0.466930
v 0.802916 -0.050000 0.466930
v 0.720272 -0.050000 -0.252701
v 0.691251 -0.050000 -0.000000
v 0.720272 -0.050000 0.252701
v -0.876219 -0.100000 -0.593894
v -0.952437 -0.100000 -0.461880
v -0.858532 -0.100000 -0.527887
v -0.886430 -0.100000 -0.479567
v -0.076219 -0.100000 1.055775
v 0.076219 -0.100000 1.055775
v -0.027898 -0.100000 1.007454
v 0.027898 -0.100000 1.007454
v -0.952437 -0.100000 0.461880
v -0.876219 -0.100000 0.593895
v -0.886430 -0.100000 0.479567
v -0.858532 -0.100000 0.527887
v 0.076219 -0.100000 -1.055775
v -0.076219 -0.100000 -1.055775
v 0.027898 -0.100000 -1.007454
v -0.027898 -0.100000 -1.007454
v -0.076638 -0.050000 -1.056502
v 0.076638 -0.050000 -1.056502
v -0.028052 -0.050000 -1.007915
v 0.028052 -0.050000 -1.007915
v -0.011603 0.000000 -1.058568
v 0.011603 0.000000 -1.058568
v -0.953277 -0.050000 -0.461880
v -0.876638 -0.050000 -0.594621
v -0.886906 -0.050000 -0.479664
v -0.858854 -0.050000 -0.528251
v -0.918301 0.000000 -0.566784
v -0.922548 0.000000 -0.519236
v -0.910946 0.000000 -0.539332
v 0.076638 -0.050000 1.056502
v -0.076638 -0.050000 1.056502
v 0.028051 -0.050000 1.007915
v -0.028052 -0.050000 1.007915
v 0.031699 0.000000 1.078664
v 0.011602 0.000000 1.058568
v -0.011603 0.000000 1.058568
v -0.950000 0.000000 0.511880
v -0.910946 0.000000 0.539332
v -0.922548 0.000000 0.519236
v -0.876638 -0.050000 0.594622
v -0.953277 -0.050000 0.461880
v -0.858854 -0.050000 0.528251
v -0.886906 -0.050000 0.479664
v -1.000000 -0.100000 -0.153960
v -1.000000 -0.100000 0.153960
v -0.366667 -0.100000 -0.943005
v -0.633333 -0.100000 -0.789045
v 0.633333 -0.100000 -0.789045
v 0.366667 -0.100000 -0.943005
v 0.366667 -0.100000 0.943005
v 0.633333 -0.100000 0.789045
v -0.633333 -0.100000 0.789045
v -0.366667 -0.100000 0.943005
v 0.527170 -0.100000 0.581811
v 0.527171 -0.100000 -0.581813
v 0.440835 -0.100000 0.314873
v 0.410517 -0.100000 -0.000001
v 0.440835 -0.100000 -0.314875
v -0.560576 -0.100000 -0.636091
v -0.831152 -0.100000 -0.167439
v -0.512643 -0.100000 -0.376034
v -0.581969 -0.100000 -0.255957
v -0.270577 -0.100000 0.803512
v 0.270576 -0.100000 0.803512
v -0.069327 -0.100000 0.631973
v 0.069326 -0.100000 0.631973
v -0.831153 -0.100000 0.167439
v -0.560576 -0.100000 0.636091
v -0.581970 -0.100000 0.255957
v -0.512643 -0.100000 0.376034
v 0.270576 -0.100000 -0.803512
v -0.270576 -0.100000 -0.803512
v 0.069326 -0.100000 -0.631973
v -0.069327 -0.100000 -0.631973
v -0.203288 -0.100000 -0.717743
v -0.519943 -0.100000 -0.534933
v -0.723230 -0.100000 -0.182829
v -0.723231 -0.100000 0.182828
v -0.203288 -0.100000 0.717742
v -0.519943 -0.100000 0.534933
v 0.203288 -0.100000 -0.717743
v 0.203287 -0.100000 0.717742
v 0.100000 -1.000000 -1.096965
v 0.000000 -1.000000 -1.154700
v 0.900000 -1.000000 0.635085
v 1.000000 -1.000000 0.577350
v -0.100000 -1.000000 1.096965
v -0.000000 -1.000000 1.154700
v -0.900000 -1.000000 -0.635085
v -1.000000 -1.000000 -0.577350
v -1.000000 -1.000000 0.461880
v -1.000000 -1.000000 0.577350
v -1.000000 -1.000000 -0.461880
v -1.000000 -1.000000 0.153960
v -0.100000 -1.000000 -1.096965
v -0.633333 -1.000000 -0.789045
v 1.000000 -1.000000 -0.577350
v 0.900000 -1.000000 -0.635085
v 0.366667 -1.000000 -0.943005
v 0.100000 -1.000000 1.096965
v 0.633333 -1.000000 0.789045
v -0.900000 -1.000000 0.635085
v -0.366667 -1.000000 0.943005
v -0.633333 -1.000000 0.789045
v 0.366667 -1.000000 0.943005
v -1.000000 -1.000000 -0.153960
v 0.633333 -1.000000 -0.789045
v -0.366667 -1.000000 -0.943005
vt 0.056262 0.298735
vt 0.055808 0.298735
vt 0.055808 0.351963
vt 0.055808 0.383213
vt 0.055366 0.383213
vt 0.055368 0.387907
vt 0.055808 0.387907
vt 0.051380 0.383213
vt 0.051272 0.383213
vt 0.051272 0.387907
vt 0.051378 0.387907
vt 0.051272 0.351963
vt 0.051272 0.298735
vt 0.051726 0.298735
vt 0.052180 0.383213
vt 0.052072 0.383213
vt 0.052074 0.387907
vt 0.052180 0.387907
vt 0.047190 0.298735
vt 0.047644 0.298735
vt 0.047644 0.351963
vt 0.047752 0.383213
vt 0.047644 0.383213
vt 0.047644 0.387907
vt 0.047750 0.387907
vt 0.047406 0.383213
vt 0.047190 0.383213
vt 0.047190 0.387907
vt 0.047402 0.387907
vt 0.047190 0.383213
vt 0.047406 0.383213
vt 0.047402 0.387907
vt 0.047190 0.387907
vt 0.047644 0.383213
vt 0.047752 0.383213
vt 0.047750 0.387907
vt 0.047644 0.387907
vt 0.067840 0.403532
vt 0.067946 0.403532
vt 0.067636 0.408225
vt 0.056262 0.298735
vt 0.056262 0.356657
vt 0.056262 0.356657
vt 0.071658 0.408225
vt 0.071398 0.408225
vt 0.071134 0.403532
vt 0.071575 0.403532
vt 0.063183 0.408225
vt 0.063168 0.403532
vt 0.062957 0.403532
vt 0.052072 0.383213
vt 0.052180 0.383213
vt 0.052180 0.387907
vt 0.052074 0.387907
vt 0.055808 0.351963
vt 0.055808 0.298735
vt 0.067946 0.403532
vt 0.067840 0.403532
vt 0.067636 0.408225
vt 0.051726 0.298735
vt 0.051272 0.298735
vt 0.051272 0.351963
vt 0.047644 0.351963
vt 0.047644 0.298735
vt 0.047190 0.298735
vt 0.051272 0.383213
vt 0.051380 0.383213
vt 0.051378 0.387907
vt 0.051272 0.387907
vt 0.047190 0.351963
vt 0.047190 0.298735
vt 0.047190 0.298735
vt 0.047190 0.351963
vt 0.052180 0.298735
vt 0.052180 0.351963
vt 0.208046 0.601963
vt 0.206133 0.695713
vt 0.206133 0.611235
vt 0.208046 0.517485
vt 0.198244 0.601963
vt 0.198244 0.695713
vt 0.198244 0.611235
vt 0.198244 0.517485
vt 0.200874 0.601963
vt 0.198961 0.695713
vt 0.198961 0.611235
vt 0.200874 0.517485
vt 0.202786 0.601963
vt 0.204699 0.695713
vt 0.204699 0.611235
vt 0.202786 0.517485
vt 0.209959 0.601963
vt 0.211871 0.695713
vt 0.211871 0.611235
vt 0.209959 0.517485
vt 0.067492 0.403532
vt 0.067492 0.408225
vt 0.072028 0.403532
vt 0.071802 0.408225
vt 0.067039 0.403532
vt 0.067492 0.403532
vt 0.067492 0.408225
vt 0.067349 0.408225
vt 0.063410 0.403532
vt 0.062957 0.403532
vt 0.063183 0.408225
vt 0.063327 0.408225
vt 0.062957 0.403532
vt 0.063183 0.408225
vt 0.062957 0.403532
vt 0.063183 0.408225
vt 0.067039 0.403532
vt 0.067349 0.408225
vt 0.072028 0.403532
vt 0.071575 0.403532
vt 0.071658 0.408225
vt 0.071802 0.408225
vt 0.063410 0.403532
vt 0.063327 0.408225
vt 0.083312 0.423850
vt 0.083403 0.423850
vt 0.083259 0.423850
vt 0.063516 0.403532
vt 0.078950 0.423850
vt 0.078950 0.423850
vt 0.079074 0.423850
vt 0.067145 0.403532
vt 0.071398 0.408225
vt 0.071134 0.403532
vt 0.083259 0.423850
vt 0.083206 0.423850
vt 0.083115 0.423850
vt 0.087568 0.423850
vt 0.087165 0.423850
vt 0.087424 0.423850
vt 0.063516 0.403532
vt 0.078950 0.423850
vt 0.079094 0.423850
vt 0.079127 0.423850
vt 0.067145 0.403532
vt 0.063168 0.403532
vt 0.070760 0.403532
vt 0.071023 0.408225
vt 0.070628 0.403532
vt 0.070891 0.408225
vt 0.070760 0.403532
vt 0.071023 0.408225
vt 0.054992 0.383213
vt 0.054993 0.387907
vt 0.054860 0.383213
vt 0.054861 0.387907
vt 0.054992 0.383213
vt 0.054993 0.387907
vt 0.055366 0.383213
vt 0.055368 0.387907
vt 0.055808 0.383213
vt 0.055808 0.387907
vt 0.067545 0.408225
vt 0.067620 0.403532
vt 0.067440 0.408225
vt 0.067365 0.403532
vt 0.063360 0.408225
vt 0.063597 0.403532
vt 0.063308 0.408225
vt 0.063470 0.403532
vt 0.067440 0.408225
vt 0.067365 0.403532
vt 0.067545 0.408225
vt 0.067620 0.403532
vt 0.063597 0.403532
vt 0.063360 0.408225
vt 0.063470 0.403532
vt 0.063308 0.408225
vt 0.051599 0.383213
vt 0.051599 0.387907
vt 0.051852 0.383213
vt 0.051853 0.387907
vt 0.051852 0.383213
vt 0.051853 0.387907
vt 0.051599 0.383213
vt 0.051599 0.387907
vt 0.047705 0.383213
vt 0.047703 0.387907
vt 0.047832 0.383213
vt 0.047830 0.387907
vt 0.047832 0.383213
vt 0.047830 0.387907
vt 0.047705 0.383213
vt 0.047703 0.387907
vt 0.079094 0.423850
vt 0.079127 0.423850
vt 0.078950 0.423850
vt 0.079074 0.423850
vt 0.083312 0.423850
vt 0.083403 0.423850
vt 0.083115 0.423850
vt 0.083206 0.423850
vt 0.087424 0.423850
vt 0.087165 0.423850
vt 0.087568 0.423850
vt 0.086789 0.423850
vt 0.086657 0.423850
vt 0.086789 0.423850
vt 0.171800 0.633213
vt 0.169960 0.633213
vt 0.170649 0.633213
vt 0.172562 0.633213
vt 0.169960 0.633213
vt 0.171800 0.633213
vt 0.172562 0.633213
vt 0.170649 0.633213
vt 0.163999 0.633213
vt 0.166079 0.633213
vt 0.165389 0.633213
vt 0.163477 0.633213
vt 0.166079 0.633213
vt 0.163999 0.633213
vt 0.163477 0.633213
vt 0.165389 0.633213
vt 0.160847 0.633213
vt 0.160847 0.633213
vt 0.162058 0.633213
vt 0.162058 0.633213
vt 0.164290 0.633213
vt 0.166561 0.633213
vt 0.166561 0.633213
vt 0.164290 0.633213
vt 0.162832 0.633213
vt 0.162832 0.633213
vt 0.163845 0.633213
vt 0.163845 0.633213
vt 0.168517 0.633213
vt 0.170964 0.633213
vt 0.171181 0.633213
vt 0.169477 0.633213
vt 0.164342 0.633213
vt 0.164342 0.633213
vt 0.167522 0.633213
vt 0.167522 0.633213
vt 0.168517 0.633213
vt 0.204699 0.695713
vt 0.202786 0.601963
vt 0.202786 0.517485
vt 0.204699 0.611235
vt 0.211871 0.695713
vt 0.209959 0.601963
vt 0.209959 0.517485
vt 0.211871 0.611235
vt 0.198244 0.695713
vt 0.198244 0.601963
vt 0.198244 0.517485
vt 0.198244 0.611235
vt 0.206133 0.695713
vt 0.208046 0.601963
vt 0.208046 0.517485
vt 0.206133 0.611235
vt 0.198961 0.695713
vt 0.200874 0.601963
vt 0.200874 0.517485
vt 0.198961 0.611235
vt 0.171181 0.633213
vt 0.169477 0.633213
vt 0.174475 0.726963
vt 0.173776 0.726963
vt 0.173184 0.726963
vt 0.172976 0.726963
vt 0.173184 0.726963
vt 0.173776 0.726963
vt 0.174475 0.726963
vt 0.168737 0.726963
vt 0.168566 0.726963
vt 0.167473 0.726963
vt 0.167302 0.726963
vt 0.167819 0.726963
vt 0.168219 0.726963
vt 0.161564 0.726963
vt 0.161735 0.726963
vt 0.161862 0.726963
vt 0.161188 0.726963
vt 0.160847 0.726963
vt 0.161661 0.726963
vt 0.160847 0.726963
vt 0.161188 0.726963
vt 0.161661 0.726963
vt 0.161735 0.726963
vt 0.161564 0.726963
vt 0.161862 0.726963
vt 0.167302 0.726963
vt 0.167473 0.726963
vt 0.167819 0.726963
vt 0.168566 0.726963
vt 0.168737 0.726963
vt 0.168219 0.726963
vt 0.052180 0.351963
vt 0.052180 0.298735
vt 0.047190 0.356657
vt 0.047190 0.356657
vt 0.047644 0.356657
vt 0.051272 0.356657
vt 0.051726 0.356657
vt 0.052180 0.356657
vt 0.055808 0.356657
vt 0.055808 0.356657
vt 0.052180 0.356657
vt 0.051726 0.356657
vt 0.051272 0.356657
vt 0.047644 0.356657
vt 0.047190 0.356657
vt 0.047190 0.356657
vt 0.177599 0.538250
vt 0.177926 0.538250
vt 0.178223 0.538250
vt 0.180896 0.538250
vt 0.180599 0.538250
vt 0.177926 0.538250
vt 0.177629 0.538250
vt 0.174957 0.538250
vt 0.175254 0.538250
vt 0.174957 0.538250
vt 0.174957 0.538250
vt 0.174957 0.538250
vt 0.174957 0.538250
vt 0.177629 0.538250
vt 0.176045 0.538250
vt 0.180599 0.538250
vt 0.180896 0.538250
vt 0.179015 0.538250
vt 0.178223 0.538250
vt 0.179807 0.538250
vt 0.175254 0.538250
vt 0.176837 0.538250
vt 0.176045 0.538250
vt 0.179015 0.538250
vt 0.174957 0.538250
vt 0.179807 0.538250
vt 0.176837 0.538250
vn 0.5000 0.0000 -0.8660
vn -0.8660 0.0000 -0.5000
vn -0.9025 0.0012 -0.4306
vn -0.9019 0.0011 -0.4319
vn -0.7925 0.0022 -0.6099
vn -0.7942 0.0022 -0.6077
vn -0.5000 0.0000 0.8660
vn 0.8660 -0.0000 -0.5000
vn 0.7925 0.0022 -0.6099
vn 0.7942 0.0022 -0.6077
vn 0.9244 0.0022 -0.3814
vn 0.9233 0.0022 -0.3840
vn 0.1319 0.0022 -0.9913
vn 0.0000 0.0000 -1.0000
vn 0.1292 0.0022 -0.9916
vn 0.0000 0.0000 1.0000
vn 0.1319 0.0022 0.9913
vn 0.1292 0.0022 0.9916
vn 0.8660 0.0000 0.5000
vn 0.9244 0.0022 0.3814
vn 0.9233 0.0022 0.3840
vn 0.5698 0.7017 0.4277
vn 0.6124 0.7071 0.3536
vn 0.5386 0.6951 0.4762
vn 1.0000 0.0000 0.0000
vn -0.6124 0.7071 0.3536
vn -0.6218 0.7188 0.3110
vn -0.6265 0.7246 0.2872
vn 0.1431 0.6951 -0.7045
vn 0.0855 0.7017 -0.7073
vn 0.0000 0.7071 -0.7071
vn 0.7925 0.0022 0.6099
vn 0.7942 0.0022 0.6077
vn 0.5000 0.0000 0.8660
vn 0.6124 0.7071 -0.3536
vn 0.5698 0.7017 -0.4277
vn 0.5386 0.6951 -0.4762
vn -0.5000 0.0000 -0.8660
vn -0.8660 -0.0000 0.5000
vn -0.7925 0.0022 0.6099
vn -0.7942 0.0022 0.6077
vn -1.0000 0.0000 0.0000
vn 0.3536 0.7071 -0.6124
vn 0.3536 0.7071 0.6124
vn -0.3536 0.7071 0.6124
vn -0.3536 0.7071 -0.6124
vn -0.7071 0.7071 0.0000
vn 0.7071 0.7071 0.0000
vn 0.0000 1.0000 0.0000
vn 0.6553 0.7017 -0.2796
vn 0.6817 0.6951 -0.2283
vn -0.5386 0.6951 -0.4762
vn -0.5698 0.7017 -0.4277
vn -0.6124 0.7071 -0.3536
vn -0.6218 0.7188 -0.3110
vn -0.6265 0.7246 -0.2872
vn 0.6553 0.7017 0.2796
vn 0.6817 0.6951 0.2283
vn -0.5386 0.6951 0.4762
vn -0.5698 0.7017 0.4277
vn 0.0000 0.7071 0.7071
vn 0.0855 0.7017 0.7073
vn 0.1431 0.6951 0.7045
vn -0.6460 0.7486 -0.1495
vn -0.6439 0.7460 -0.1698
vn -0.6530 0.7573 0.0000
vn -0.6460 0.7486 0.1495
vn -0.6439 0.7460 0.1698
vn -0.9712 0.0033 -0.2383
vn -0.9709 0.0033 -0.2395
vn -1.0000 0.0043 -0.0000
vn -0.9712 0.0033 0.2383
vn -0.9709 0.0033 0.2395
vn -0.9025 0.0012 0.4306
vn -0.9019 0.0011 0.4319
vn 0.2746 0.7274 0.6289
vn 0.2552 0.7283 0.6360
vn -0.2746 0.7274 0.6289
vn -0.2552 0.7283 0.6360
vn 0.6819 0.7274 0.0767
vn 0.6784 0.7283 0.0970
vn 0.4073 0.7274 0.5522
vn 0.4232 0.7283 0.5390
vn -0.2746 0.7274 -0.6289
vn -0.2552 0.7283 -0.6360
vn 0.2746 0.7274 -0.6289
vn 0.2552 0.7283 -0.6360
vn 0.6784 0.7283 -0.0970
vn 0.6819 0.7274 -0.0767
vn 0.4232 0.7283 -0.5390
vn 0.4073 0.7274 -0.5522
vn -0.7071 0.0043 0.7071
vn 0.0000 0.0092 1.0000
vn 0.7071 0.0043 0.7071
vn 0.7071 0.0043 -0.7071
vn -0.0000 0.0092 -1.0000
vn -0.7071 0.0043 -0.7071
vn 0.2588 0.0043 0.9659
vn 0.8660 0.0092 0.5000
vn 0.9659 0.0043 -0.2588
vn 0.9659 0.0043 0.2588
vn 0.8660 0.0092 -0.5000
vn 0.2588 0.0043 -0.9659
vn 0.0000 -1.0000 0.0000
usemtl hexagons_medieval
s 1
f 152/1/1 153/2/1 5/3/1
f 5/4/2 42/5/3 51/6/4 36/7/2
f 60/8/5 10/9/2 21/10/2 86/11/6
f 10/12/7 142/13/7 143/14/7
f 7/15/8 61/16/9 85/17/10 38/18/8
f 147/19/7 157/20/7 9/21/7
f 56/22/11 4/23/8 24/24/8 79/25/12
f 64/26/13 2/27/14 27/28/14 96/29/15
f 1/30/16 57/31/17 78/32/18 30/33/16
f 9/34/19 65/35/20 95/36/21 39/37/19
f 73/38/22 13/39/23 12/40/24
f 141/41/25 152/1/25 35/42/25 18/43/25
f 16/44/26 47/45/27 52/46/28 17/47/26
f 92/48/29 96/49/30 27/50/31
f 68/51/32 6/52/19 13/53/19 73/54/33
f 8/55/34 140/56/34 141/41/34
f 38/57/35 85/58/36 89/59/37
f 139/60/38 150/61/38 3/62/38
f 4/63/38 144/64/38 145/65/38
f 3/66/39 69/67/40 72/68/41 32/69/39
f 2/70/42 146/71/42 147/19/42
f 145/65/42 148/72/42 1/73/42
f 143/14/34 155/74/34 7/75/34
f 105/76/34 7/77/34 155/78/34 160/79/34
f 99/80/42 1/81/42 148/82/42 161/83/42
f 107/84/7 9/85/7 157/86/7 159/87/7
f 101/88/38 3/89/38 150/90/38 163/91/38
f 103/92/1 5/93/1 153/94/1 162/95/1
f 13/39/43 14/96/43 15/97/43 12/40/43
f 17/47/44 18/98/44 19/99/44 16/44/44
f 21/100/45 22/101/45 23/102/45 20/103/45
f 24/104/46 25/105/46 26/106/46 82/107/46
f 27/50/47 28/108/47 29/109/47 92/48/47
f 25/105/47 30/110/47 31/111/47 26/106/47
f 14/96/46 32/112/46 33/113/46 15/97/46
f 35/114/43 36/115/43 37/116/43 34/117/43
f 34/117/48 19/99/48 18/98/48 35/114/48
f 22/101/44 38/57/44 89/59/44 23/102/44
f 28/108/45 39/118/45 40/119/45 29/109/45
f 77/120/49 12/121/49 15/122/49
f 79/123/50 24/104/35 82/107/51
f 26/124/49 31/125/49 83/126/49
f 20/103/52 86/127/53 21/100/54
f 46/128/55 37/116/54 36/115/54 51/129/56
f 23/130/49 91/131/49 20/132/49
f 19/133/49 47/134/49 16/135/49
f 39/118/23 95/136/57 40/119/58
f 29/137/49 40/138/49 93/139/49
f 33/113/59 32/112/26 72/140/60
f 30/110/61 78/141/62 31/111/63
f 46/128/55 51/129/56 53/142/64 48/143/65
f 48/143/65 53/142/64 54/144/66 49/145/66
f 49/145/66 54/144/66 55/146/67 50/147/68
f 50/147/68 55/146/67 52/46/28 47/45/27
f 51/6/4 42/5/3 45/148/69 53/149/70
f 53/149/70 45/148/69 44/150/71 54/151/71
f 54/151/71 44/150/71 43/152/72 55/153/73
f 55/153/73 43/152/72 41/154/74 52/155/75
f 41/154/74 8/156/39 17/157/39 52/155/75
f 73/38/22 12/40/24 77/158/76 75/159/77
f 75/159/77 77/158/76 76/160/78 74/161/79
f 74/161/79 76/160/78 33/113/59 72/140/60
f 79/123/50 82/107/51 84/162/80 81/163/81
f 81/163/81 84/162/80 83/164/82 80/165/83
f 80/165/83 83/164/82 31/111/63 78/141/62
f 86/127/53 20/103/52 91/166/84 88/167/85
f 88/167/85 91/166/84 90/168/86 87/169/87
f 87/169/87 90/168/86 89/59/37 85/58/36
f 40/119/58 95/136/57 97/170/88 93/171/89
f 93/171/89 97/170/88 98/172/90 94/173/91
f 94/173/91 98/172/90 96/49/30 92/48/29
f 72/68/41 69/67/40 71/174/92 74/175/92
f 74/175/93 71/174/93 70/176/93 75/177/93
f 75/177/94 70/176/94 68/51/32 73/54/33
f 85/17/10 61/16/9 63/178/95 87/179/95
f 87/179/96 63/178/96 62/180/96 88/181/96
f 88/181/97 62/180/97 60/8/5 86/11/6
f 78/32/18 57/31/17 59/182/98 80/183/98
f 80/183/99 59/182/99 58/184/99 81/185/99
f 81/185/100 58/184/100 56/22/11 79/25/12
f 95/36/21 65/35/20 67/186/101 97/187/101
f 97/187/102 67/186/102 66/188/102 98/189/102
f 98/189/103 66/188/103 64/26/13 96/29/15
f 82/190/49 26/124/49 84/191/49
f 84/191/49 26/124/49 83/126/49
f 92/192/49 29/137/49 94/193/49
f 94/193/49 29/137/49 93/139/49
f 90/194/49 91/131/49 23/130/49
f 89/195/49 90/194/49 23/130/49
f 33/196/49 76/197/49 15/122/49
f 76/197/49 77/120/49 15/122/49
f 37/198/49 46/199/49 34/200/49
f 19/133/49 50/201/49 47/134/49
f 19/133/49 49/202/49 50/201/49
f 34/200/49 49/202/49 19/133/49
f 48/203/49 49/202/49 34/200/49
f 46/199/49 48/203/49 34/200/49
f 109/204/49 119/205/49 105/206/49 106/207/49
f 126/208/49 110/209/49 103/210/49 104/211/49
f 114/212/49 127/213/49 101/214/49 102/215/49
f 118/216/49 123/217/49 107/218/49 108/219/49
f 99/220/49 100/221/49 122/222/49 115/223/49
f 131/224/49 130/225/49 127/213/49 114/212/49
f 134/226/49 135/227/49 123/217/49 118/216/49
f 132/228/49 133/229/49 124/230/49 117/231/49
f 128/232/49 112/233/49 113/234/49 136/235/49
f 113/234/49 110/209/49 126/208/49 136/235/49
f 116/236/49 125/237/49 120/238/49 129/239/49
f 129/239/49 120/238/49 121/240/49 128/232/49
f 128/232/49 121/240/49 112/233/49
f 117/231/49 124/230/49 125/237/49 116/236/49
f 10/241/7 108/242/7 158/243/7 142/244/7
f 108/242/7 107/84/7 159/87/7 158/243/7
f 8/245/34 106/246/34 156/247/34 140/248/34
f 106/246/34 105/76/34 160/79/34 156/247/34
f 2/249/42 100/250/42 149/251/42 146/252/42
f 100/250/42 99/80/42 161/83/42 149/251/42
f 6/253/1 104/254/1 154/255/1 138/256/1
f 104/254/1 103/92/1 162/95/1 154/255/1
f 4/257/38 102/258/38 151/259/38 144/260/38
f 102/258/38 101/88/38 163/91/38 151/259/38
f 116/236/49 129/239/49 130/225/49 131/224/49
f 115/223/49 122/222/49 133/229/49 132/228/49
f 120/238/49 125/237/49 135/227/49 134/226/49
f 109/204/49 111/261/49 137/262/49 119/205/49
f 111/261/49 112/233/49 121/240/49 137/262/49
f 8/263/49 41/264/49 109/204/49 106/207/49
f 41/264/49 43/265/49 111/261/49 109/204/49
f 43/265/49 44/266/49 112/233/49 111/261/49
f 113/234/49 112/233/49 44/266/49 45/267/49
f 113/234/49 45/267/49 42/268/49 110/209/49
f 5/269/49 103/210/49 110/209/49 42/268/49
f 7/270/49 105/206/49 119/205/49 61/271/49
f 60/272/49 118/216/49 108/219/49 10/273/49
f 60/272/49 62/274/49 134/226/49 118/216/49
f 63/275/49 61/271/49 119/205/49 137/262/49
f 9/276/49 107/218/49 123/217/49 65/277/49
f 67/278/49 65/277/49 123/217/49 135/227/49
f 64/279/49 122/222/49 100/221/49 2/280/49
f 64/279/49 66/281/49 133/229/49 122/222/49
f 1/282/49 99/220/49 115/223/49 57/283/49
f 59/284/49 57/283/49 115/223/49 132/228/49
f 56/285/49 114/212/49 102/215/49 4/286/49
f 56/285/49 58/287/49 131/224/49 114/212/49
f 3/288/49 101/214/49 127/213/49 69/289/49
f 71/290/49 69/289/49 127/213/49 130/225/49
f 68/291/49 126/208/49 104/211/49 6/292/49
f 68/291/49 70/293/49 136/235/49 126/208/49
f 70/293/49 71/290/49 129/239/49 128/232/49
f 58/287/49 59/284/49 117/231/49 116/236/49
f 66/281/49 67/278/49 125/237/49 124/230/49
f 62/274/49 63/275/49 121/240/49 120/238/49
f 120/238/49 134/226/49 62/274/49
f 137/262/49 121/240/49 63/275/49
f 135/227/49 125/237/49 67/278/49
f 124/230/49 133/229/49 66/281/49
f 132/228/49 117/231/49 59/284/49
f 116/236/49 131/224/49 58/287/49
f 130/225/49 129/239/49 71/290/49
f 128/232/49 136/235/49 70/293/49
f 6/294/1 138/295/1 139/60/1
f 27/296/42 2/70/42 147/19/42 28/297/42
f 28/297/7 147/19/7 9/21/7 39/298/7
f 21/299/7 10/12/7 143/14/7 22/300/7
f 22/300/34 143/14/34 7/75/34 38/301/34
f 17/302/34 8/55/34 141/41/34 18/43/34
f 35/42/1 152/1/1 5/3/1 36/303/1
f 13/304/1 6/294/1 139/60/1 14/305/1
f 14/305/38 139/60/38 3/62/38 32/306/38
f 24/307/38 4/63/38 145/65/38 25/308/38
f 25/308/42 145/65/42 1/73/42 30/309/42
f 11/310/104 139/311/104 138/312/104
f 11/310/104 141/313/104 140/314/104
f 11/310/104 143/315/104 142/316/104
f 11/310/104 145/317/104 144/318/104
f 11/310/104 147/319/104 146/320/104
f 11/310/104 148/321/104 145/317/104
f 11/310/104 146/320/104 149/322/104
f 11/310/104 150/323/104 139/311/104
f 11/310/104 144/318/104 151/324/104
f 11/310/104 153/325/104 152/326/104
f 11/310/104 138/312/104 154/327/104
f 11/310/104 152/326/104 141/313/104
f 11/310/104 155/328/104 143/315/104
f 11/310/104 140/314/104 156/329/104
f 11/310/104 157/330/104 147/319/104
f 11/310/104 142/316/104 158/331/104
f 11/310/104 159/332/104 157/330/104
f 11/310/104 158/331/104 159/332/104
f 11/310/104 160/333/104 155/328/104
f 11/310/104 156/329/104 160/333/104
f 11/310/104 161/334/104 148/321/104
f 11/310/104 149/322/104 161/334/104
f 11/310/104 162/335/104 153/325/104
f 11/310/104 154/327/104 162/335/104
f 11/310/104 163/336/104 150/323/104
f 11/310/104 151/324/104 163/336/104
