# Blender v3.4.1 OBJ File: 'Medieval_Hexagons_Export_1.0_WorldOrigin.blend'
# www.blender.org
mtllib hex_river_E.mtl
o hex_river_E
v -1.000000 -0.100000 0.461880
v -1.000000 -0.100000 -0.461880
v 1.000000 -0.100000 0.461880
v 1.000000 -0.100000 -0.461880
v 0.100000 -0.100000 -1.096965
v 0.900000 -0.100000 -0.635085
v 0.000000 -1.000000 0.000000
v 0.900000 -0.050000 -0.635085
v 1.000000 -0.050000 -0.577350
v 0.950000 0.000000 -0.548483
v -0.950000 0.000000 -0.511880
v -1.000000 -0.050000 -0.461880
v -1.000000 -0.050000 -0.577350
v -0.950000 0.000000 -0.548482
v 1.000000 -0.050000 -0.461880
v 0.950000 0.000000 -0.511880
v -0.950000 0.000000 0.548482
v -1.000000 -0.050000 0.577350
v -1.000000 -0.050000 0.461880
v -0.950000 0.000000 0.511880
v 0.000000 0.000000 1.096965
v 0.000000 -0.050000 1.154700
v 0.950000 0.000000 0.548482
v 1.000000 -0.050000 0.577350
v 0.950000 0.000000 0.511880
v 1.000000 -0.050000 0.461880
v -0.000000 0.000000 -1.096965
v -0.000000 -0.050000 -1.154700
v 0.100000 -0.050000 -1.096965
v 0.031699 0.000000 -1.078664
v 0.000000 -0.100000 0.461880
v -0.001806 -0.100000 -0.920632
v -0.029886 0.000000 -0.971997
v -0.826832 0.000000 -0.511880
v -0.171988 0.000000 -0.795918
v -0.373341 0.000000 -0.646645
v -0.603292 0.000000 -0.546904
v -0.001442 -0.050000 -0.921262
v -0.797115 -0.050000 -0.461880
v -0.143317 -0.050000 -0.745464
v -0.344349 -0.050000 -0.596430
v -0.573932 -0.050000 -0.496848
v 0.877673 -0.100000 -0.596414
v 0.955346 -0.100000 -0.461880
v 0.859649 -0.100000 -0.529147
v 0.888079 -0.100000 -0.479904
v 0.956202 -0.050000 -0.461880
v 0.878101 -0.050000 -0.597155
v 0.888564 -0.050000 -0.480003
v 0.859978 -0.050000 -0.529517
v 0.918301 0.000000 -0.566784
v 0.922548 0.000000 -0.519236
v 0.910946 0.000000 -0.539332
v 0.000000 -0.050000 0.461880
v 0.000000 0.000000 0.511880
v 0.000000 0.000000 0.548482
v -0.143486 -0.100000 -0.745075
v -0.344243 -0.100000 -0.596245
v -0.573511 -0.100000 -0.496800
v -0.796388 -0.100000 -0.461880
v -1.000000 -0.100000 0.153960
v -1.000000 -0.100000 -0.153960
v 1.000000 -0.100000 0.153960
v 1.000000 -0.100000 -0.153960
v 0.366667 -0.100000 -0.943005
v 0.633333 -0.100000 -0.789045
v 0.000000 -0.100000 0.153960
v 0.220033 -0.100000 -0.726204
v 0.049043 -0.100000 -0.514330
v -0.190752 -0.100000 -0.334712
v -0.459979 -0.100000 -0.209715
v -0.721491 -0.100000 -0.157609
v 0.544791 -0.100000 -0.593142
v 0.581521 -0.100000 -0.697889
v 0.870322 -0.100000 -0.153946
v 0.743108 -0.100000 -0.177802
v 0.595138 -0.100000 -0.266279
v 0.528013 -0.100000 -0.418639
v 0.900000 -1.000000 -0.635085
v 1.000000 -1.000000 -0.577350
v -1.000000 -1.000000 -0.461880
v -1.000000 -1.000000 -0.577350
v 1.000000 -1.000000 -0.461880
v -1.000000 -1.000000 0.577350
v -1.000000 -1.000000 0.461880
v -1.000000 -1.000000 -0.153960
v 0.000000 -1.000000 1.154700
v 1.000000 -1.000000 0.577350
v 1.000000 -1.000000 0.461880
v 1.000000 -1.000000 -0.153960
v -0.000000 -1.000000 -1.154700
v 0.100000 -1.000000 -1.096965
v 0.633333 -1.000000 -0.789045
v 1.000000 -1.000000 0.153960
v -1.000000 -1.000000 0.153960
v 0.366667 -1.000000 -0.943005
vt 0.051726 0.383213
vt 0.051726 0.387907
vt 0.056262 0.387907
vt 0.056262 0.383213
vt 0.051726 0.298735
vt 0.051726 0.356657
vt 0.047190 0.356657
vt 0.047190 0.298735
vt 0.071658 0.408225
vt 0.071575 0.403532
vt 0.071475 0.403532
vt 0.056262 0.383213
vt 0.056262 0.387907
vt 0.056063 0.387907
vt 0.056059 0.383213
vt 0.063183 0.408225
vt 0.062957 0.403532
vt 0.063877 0.403532
vt 0.063742 0.408225
vt 0.056262 0.298735
vt 0.056262 0.356657
vt 0.051726 0.356657
vt 0.052180 0.356657
vt 0.052180 0.351963
vt 0.051726 0.298735
vt 0.052180 0.298735
vt 0.047190 0.298735
vt 0.047190 0.356657
vt 0.056262 0.351963
vt 0.056262 0.298735
vt 0.048114 0.383213
vt 0.048110 0.387907
vt 0.047190 0.387907
vt 0.047190 0.383213
vt 0.056262 0.298735
vt 0.056262 0.351963
vt 0.056262 0.298735
vt 0.047190 0.351963
vt 0.047190 0.298735
vt 0.083259 0.423850
vt 0.083259 0.423850
vt 0.087568 0.423850
vt 0.056262 0.356657
vt 0.056262 0.356657
vt 0.047190 0.356657
vt 0.208046 0.601963
vt 0.208046 0.517485
vt 0.206133 0.611235
vt 0.206133 0.695713
vt 0.047190 0.351963
vt 0.047190 0.298735
vt 0.056262 0.356657
vt 0.198244 0.601963
vt 0.198244 0.517485
vt 0.198244 0.611235
vt 0.198244 0.695713
vt 0.055808 0.298735
vt 0.055808 0.351963
vt 0.212589 0.601963
vt 0.212589 0.517485
vt 0.212589 0.611235
vt 0.212589 0.695713
vt 0.071802 0.408225
vt 0.072028 0.403532
vt 0.063183 0.408225
vt 0.062957 0.403532
vt 0.071802 0.408225
vt 0.072028 0.403532
vt 0.062957 0.403532
vt 0.063183 0.408225
vt 0.063183 0.408225
vt 0.062957 0.403532
vt 0.067492 0.403532
vt 0.067492 0.408225
vt 0.072028 0.403532
vt 0.071802 0.408225
vt 0.072028 0.403532
vt 0.071802 0.408225
vt 0.067492 0.403532
vt 0.067492 0.408225
vt 0.067636 0.408225
vt 0.067946 0.403532
vt 0.087568 0.423850
vt 0.087424 0.423850
vt 0.087391 0.423850
vt 0.067357 0.408225
vt 0.067486 0.403532
vt 0.083259 0.423850
vt 0.083123 0.423850
vt 0.083403 0.423850
vt 0.067492 0.403532
vt 0.067492 0.408225
vt 0.071830 0.403532
vt 0.052180 0.383213
vt 0.052180 0.387907
vt 0.051719 0.387907
vt 0.051718 0.383213
vt 0.066712 0.408225
vt 0.066842 0.403532
vt 0.065799 0.408225
vt 0.065931 0.403532
vt 0.064756 0.408225
vt 0.064889 0.403532
vt 0.051076 0.387907
vt 0.051075 0.383213
vt 0.050164 0.387907
vt 0.050164 0.383213
vt 0.049123 0.387907
vt 0.049125 0.383213
vt 0.055707 0.383213
vt 0.055709 0.387907
vt 0.055808 0.387907
vt 0.055808 0.383213
vt 0.071393 0.403532
vt 0.071624 0.408225
vt 0.071523 0.403532
vt 0.071677 0.408225
vt 0.055756 0.387907
vt 0.055754 0.383213
vt 0.055627 0.387907
vt 0.055625 0.383213
vt 0.087444 0.423850
vt 0.087568 0.423850
vt 0.083259 0.423850
vt 0.087568 0.423850
vt 0.078950 0.423850
vt 0.079509 0.423850
vt 0.078950 0.423850
vt 0.082479 0.423850
vt 0.081566 0.423850
vt 0.080522 0.423850
vt 0.078950 0.423850
vt 0.078950 0.423850
vt 0.047190 0.383213
vt 0.047190 0.387907
vt 0.209959 0.601963
vt 0.209959 0.517485
vt 0.211871 0.695713
vt 0.211871 0.611235
vt 0.198244 0.601963
vt 0.198244 0.517485
vt 0.198244 0.695713
vt 0.198244 0.611235
vt 0.212589 0.601963
vt 0.212589 0.517485
vt 0.212589 0.695713
vt 0.212589 0.611235
vt 0.175192 0.633213
vt 0.175192 0.633213
vt 0.174262 0.633213
vt 0.168019 0.633213
vt 0.172288 0.633213
vt 0.168371 0.633213
vt 0.160847 0.633213
vt 0.160847 0.633213
vt 0.162844 0.633213
vt 0.166651 0.633213
vt 0.164720 0.633213
vt 0.172190 0.633213
vt 0.172562 0.633213
vt 0.170649 0.633213
vt 0.169598 0.633213
vt 0.171927 0.633213
vt 0.171806 0.633213
vt 0.173349 0.633213
vt 0.168737 0.726963
vt 0.168006 0.726963
vt 0.166990 0.726963
vt 0.165550 0.726963
vt 0.163906 0.726963
vt 0.162307 0.726963
vt 0.160847 0.726963
vt 0.168019 0.726963
vt 0.160847 0.726963
vt 0.175192 0.726963
vt 0.174314 0.726963
vt 0.174475 0.726963
vt 0.174185 0.726963
vt 0.174389 0.726963
vt 0.174872 0.726963
vt 0.175192 0.726963
vt 0.055808 0.356657
vt 0.047190 0.356657
vt 0.169017 0.538250
vt 0.171690 0.538250
vt 0.171987 0.538250
vt 0.166048 0.538250
vt 0.166048 0.538250
vt 0.171987 0.538250
vt 0.166048 0.538250
vt 0.166048 0.538250
vt 0.166048 0.538250
vt 0.169017 0.538250
vt 0.171987 0.538250
vt 0.171987 0.538250
vt 0.171987 0.538250
vt 0.169017 0.538250
vt 0.169314 0.538250
vt 0.170898 0.538250
vt 0.171987 0.538250
vt 0.166048 0.538250
vt 0.170106 0.538250
vn 0.0000 0.0000 -1.0000
vn -0.5000 0.0000 0.8660
vn -0.6873 0.6902 -0.2265
vn -0.6124 0.7071 -0.3536
vn -0.6565 0.6994 -0.2826
vn 0.0000 0.0000 1.0000
vn -0.1291 0.0022 0.9916
vn -0.1319 0.0023 0.9913
vn 0.0000 0.7071 0.7071
vn 0.0646 0.7246 0.6862
vn 0.0416 0.7187 0.6940
vn 0.5000 0.0000 0.8660
vn 0.5000 0.0000 -0.8660
vn -0.5000 0.0000 -0.8660
vn 1.0000 0.0000 0.0000
vn 0.0783 0.0011 0.9969
vn 0.0769 0.0011 0.9970
vn -1.0000 0.0000 0.0000
vn 0.0000 1.0000 0.0000
vn 0.3536 0.7071 -0.6124
vn -0.7071 0.7071 0.0000
vn 0.7071 0.7071 -0.0000
vn -0.3536 0.7071 0.6124
vn 0.3536 0.7071 0.6124
vn -0.3536 0.7071 -0.6124
vn 0.6124 0.7071 0.3536
vn 0.5802 0.7187 0.3830
vn 0.5620 0.7246 0.3990
vn 0.0000 0.7071 -0.7071
vn -0.1475 0.6902 0.7085
vn -0.0835 0.6994 0.7098
vn 0.8660 0.0000 0.5000
vn 0.8250 0.0011 0.5651
vn 0.8242 0.0011 0.5663
vn 0.4690 0.7460 0.4728
vn 0.4525 0.7486 0.4847
vn 0.3265 0.7573 0.5656
vn 0.1749 0.7460 0.6426
vn 0.1935 0.7486 0.6342
vn 0.6929 0.0033 0.7210
vn 0.6920 0.0033 0.7219
vn 0.5000 0.0043 0.8660
vn 0.2780 0.0033 0.9606
vn 0.2792 0.0033 0.9602
vn -0.9244 0.0023 -0.3814
vn -0.9233 0.0022 -0.3840
vn -0.8660 0.0000 -0.5000
vn -0.6875 0.7197 0.0963
vn -0.6900 0.7193 0.0810
vn -0.4272 0.7197 0.5473
vn -0.4151 0.7193 0.5571
vn -0.2588 0.0044 0.9659
vn -0.8660 0.0094 0.5000
vn -0.9659 0.0044 -0.2588
vn 0.0000 -1.0000 0.0000
usemtl hexagons_medieval
s 1
f 31/1/1 54/2/1 26/3/1 3/4/1
f 87/5/2 22/6/2 18/7/2 84/8/2
f 51/9/3 8/10/4 48/11/5
f 4/12/6 15/13/6 47/14/7 44/15/8
f 11/16/9 12/17/9 39/18/10 34/19/11
f 88/20/12 24/21/12 22/6/12 87/5/12
f 28/22/13 29/23/13 5/24/13 91/25/13
f 91/25/13 5/24/13 92/26/13
f 82/27/14 13/28/14 28/22/14 91/25/14
f 3/29/15 88/20/15 89/30/15
f 60/31/16 39/32/17 12/33/6 2/34/6
f 80/35/15 4/36/15 83/37/15
f 84/8/18 1/38/18 85/39/18
f 56/40/19 21/41/19 23/42/19
f 9/43/15 15/44/15 4/36/15 80/35/15
f 18/7/18 19/45/18 1/38/18 84/8/18
f 65/46/13 96/47/13 92/48/13 5/49/13
f 2/50/18 82/27/18 81/51/18
f 26/52/15 24/21/15 88/20/15 3/29/15
f 61/53/18 95/54/18 85/55/18 1/56/18
f 79/57/13 6/58/13 80/35/13
f 64/59/15 90/60/15 83/61/15 4/62/15
f 8/10/20 51/9/20 10/63/20 9/64/20
f 12/17/21 11/16/21 14/65/21 13/66/21
f 16/67/22 15/68/22 9/64/22 10/63/22
f 18/69/21 17/70/21 20/71/21 19/72/21
f 22/73/23 21/74/23 17/70/23 18/69/23
f 24/75/24 23/76/24 21/74/24 22/73/24
f 23/76/22 24/75/22 26/77/22 25/78/22
f 28/79/20 27/80/20 30/81/20 29/82/20
f 13/66/25 14/65/25 27/80/25 28/79/25
f 10/83/19 51/84/19 53/85/19
f 29/82/26 30/81/26 33/86/27 38/87/28
f 27/88/19 33/89/19 30/90/19
f 54/91/29 55/92/29 25/78/29 26/77/29
f 16/67/30 47/93/31 15/68/9
f 5/94/32 29/95/32 38/96/33 32/97/34
f 33/86/27 35/98/35 40/99/36 38/87/28
f 35/98/35 36/100/37 41/101/37 40/99/36
f 36/100/37 37/102/38 42/103/39 41/101/37
f 37/102/38 34/19/11 39/18/10 42/103/39
f 38/96/33 40/104/40 57/105/41 32/97/34
f 40/104/40 41/106/42 58/107/42 57/105/41
f 41/106/42 42/108/43 59/109/44 58/107/42
f 42/108/43 39/32/17 60/31/16 59/109/44
f 43/110/45 48/111/46 8/112/47 6/113/47
f 48/11/5 50/114/48 53/115/49 51/9/3
f 50/114/48 49/116/50 52/117/51 53/115/49
f 49/116/50 47/93/31 16/67/30 52/117/51
f 47/14/7 49/118/52 46/119/52 44/15/8
f 49/118/53 50/120/53 45/121/53 46/119/53
f 50/120/54 48/111/46 43/110/45 45/121/54
f 52/122/19 10/83/19 53/85/19
f 16/123/19 10/83/19 52/122/19
f 55/124/19 56/40/19 23/42/19 25/125/19
f 11/126/19 34/127/19 14/128/19
f 27/88/19 35/129/19 33/89/19
f 27/88/19 36/130/19 35/129/19
f 14/128/19 36/130/19 27/88/19
f 14/128/19 37/131/19 36/130/19
f 34/127/19 37/131/19 14/128/19
f 20/132/19 17/133/19 56/40/19 55/124/19
f 19/72/29 20/71/29 55/92/29 54/91/29
f 1/134/1 19/135/1 54/2/1 31/1/1
f 17/133/19 21/41/19 56/40/19
f 66/136/13 93/137/13 96/47/13 65/46/13
f 6/138/13 79/139/13 93/137/13 66/136/13
f 62/140/18 86/141/18 95/54/18 61/53/18
f 2/142/18 81/143/18 86/141/18 62/140/18
f 63/144/15 94/145/15 90/60/15 64/59/15
f 3/146/15 89/147/15 94/145/15 63/144/15
f 63/148/19 64/149/19 75/150/19
f 67/151/19 77/152/19 69/153/19
f 62/154/19 61/155/19 67/151/19 72/156/19
f 67/151/19 69/153/19 70/157/19
f 67/151/19 70/157/19 71/158/19
f 67/151/19 71/158/19 72/156/19
f 74/159/19 66/160/19 65/161/19 68/162/19
f 73/163/19 74/159/19 68/162/19
f 77/152/19 78/164/19 69/153/19
f 76/165/19 77/152/19 67/151/19
f 78/164/19 73/163/19 68/162/19 69/153/19
f 5/166/19 32/167/19 68/162/19 65/161/19
f 57/168/19 69/153/19 68/162/19 32/167/19
f 58/169/19 70/157/19 69/153/19 57/168/19
f 59/170/19 71/158/19 70/157/19 58/169/19
f 60/171/19 72/156/19 71/158/19 59/170/19
f 60/171/19 2/172/19 62/154/19 72/156/19
f 31/173/19 67/151/19 61/155/19 1/174/19
f 3/175/19 63/148/19 67/151/19 31/173/19
f 43/176/19 6/177/19 66/160/19 74/159/19
f 45/178/19 43/176/19 74/159/19 73/163/19
f 73/163/19 78/164/19 45/178/19
f 46/179/19 45/178/19 78/164/19 77/152/19
f 76/165/19 46/179/19 77/152/19
f 44/180/19 46/179/19 76/165/19 75/150/19
f 4/181/19 44/180/19 75/150/19 64/149/19
f 63/148/19 75/150/19 76/165/19 67/151/19
f 80/35/13 6/58/13 8/182/13 9/43/13
f 12/183/18 13/28/18 82/27/18 2/50/18
f 7/184/55 79/185/55 80/186/55
f 7/184/55 81/187/55 82/188/55
f 7/184/55 80/186/55 83/189/55
f 7/184/55 84/190/55 85/191/55
f 7/184/55 86/192/55 81/187/55
f 7/184/55 87/193/55 84/190/55
f 7/184/55 88/194/55 87/193/55
f 7/184/55 89/195/55 88/194/55
f 7/184/55 83/189/55 90/196/55
f 7/184/55 91/197/55 92/198/55
f 7/184/55 93/199/55 79/185/55
f 7/184/55 82/188/55 91/197/55
f 7/184/55 90/196/55 94/200/55
f 7/184/55 94/200/55 89/195/55
f 7/184/55 85/191/55 95/201/55
f 7/184/55 95/201/55 86/192/55
f 7/184/55 92/198/55 96/202/55
f 7/184/55 96/202/55 93/199/55
