# Blender v3.4.1 OBJ File: 'Medieval_Hexagons_Export_1.0_WorldOrigin.blend'
# www.blender.org
mtllib hex_river_B.mtl
o hex_river_B
v 0.900000 -0.100000 -0.635085
v 0.100000 -0.100000 -1.096965
v -1.000000 -0.100000 -0.461880
v -1.000000 -0.100000 0.461880
v 0.000000 -1.000000 0.000000
v -0.950000 0.000000 0.511880
v -1.000000 -0.050000 0.461880
v -1.000000 -0.050000 0.577350
v -0.000000 0.000000 1.096965
v 0.031699 0.000000 -1.078664
v 0.100000 -0.050000 -1.096965
v 0.000000 -0.050000 -1.154700
v 0.000000 0.000000 -1.096965
v 0.950000 0.000000 0.548483
v 1.000000 -0.050000 -0.577350
v 0.900000 -0.050000 -0.635085
v 0.918301 0.000000 -0.566784
v 1.000000 -0.050000 0.577350
v -0.000000 -0.050000 1.154700
v -0.949999 0.000000 -0.548483
v -0.999999 -0.050000 -0.577350
v -1.000000 -0.050000 -0.461880
v -0.950000 0.000000 -0.511880
v 0.002591 -0.100000 -0.928247
v -0.805180 -0.100000 -0.461880
v -0.141442 -0.100000 -0.749776
v -0.345530 -0.100000 -0.598476
v -0.578604 -0.100000 -0.497380
v -0.835650 0.000000 -0.511880
v -0.025476 0.000000 -0.979635
v -0.608400 0.000000 -0.547486
v -0.374632 0.000000 -0.648882
v -0.169936 0.000000 -0.800633
v -0.805920 -0.050000 -0.461880
v 0.002960 -0.050000 -0.928887
v -0.579032 -0.050000 -0.497429
v -0.345638 -0.050000 -0.598663
v -0.141270 -0.050000 -0.750171
v -0.763624 -0.100000 0.461880
v 0.781812 -0.100000 -0.430378
v -0.552726 -0.100000 0.444736
v -0.330136 -0.100000 0.393961
v -0.104408 -0.100000 0.311508
v 0.115784 -0.100000 0.200544
v 0.321977 -0.100000 0.065334
v 0.506248 -0.100000 -0.088925
v 0.661515 -0.100000 -0.256307
v 0.782519 -0.050000 -0.431603
v -0.765039 -0.050000 0.461880
v 0.662057 -0.050000 -0.257293
v 0.506577 -0.050000 -0.089682
v 0.322053 -0.050000 0.064790
v 0.115577 -0.050000 0.200185
v -0.104917 -0.050000 0.311301
v -0.330955 -0.050000 0.393868
v -0.553851 -0.050000 0.444712
v -0.950000 0.000000 0.548483
v -0.737822 -0.000000 0.511880
v -0.526297 -0.000000 0.494685
v -0.303044 -0.000000 0.443759
v -0.076644 -0.000000 0.361060
v 0.950000 0.000000 -0.548483
v 0.144202 -0.000000 0.249766
v 0.351009 0.000000 0.114154
v 0.535828 0.000000 -0.040564
v 0.691558 0.000000 -0.208444
v 0.812212 0.000000 -0.383033
v -1.000000 -0.100000 -0.153960
v -1.000000 -0.100000 0.153960
v -0.711747 -0.100000 0.124777
v -0.760416 -0.100000 -0.171932
v 0.633333 -0.100000 -0.789045
v 0.366667 -0.100000 -0.943005
v 0.463933 -0.100000 -0.554002
v 0.231310 -0.100000 -0.744505
v 0.045115 -0.100000 -0.514628
v -0.195117 -0.100000 -0.337953
v -0.468238 -0.100000 -0.218243
v 0.256180 -0.100000 -0.306247
v -0.041460 -0.100000 -0.071810
v -0.393308 -0.100000 0.068735
v -1.000000 -1.000000 0.461880
v -1.000000 -1.000000 0.577350
v 0.100000 -1.000000 -1.096965
v 0.000000 -1.000000 -1.154700
v 1.000000 -1.000000 -0.577350
v 0.900000 -1.000000 -0.635085
v 0.366667 -1.000000 -0.943005
v 1.000000 -1.000000 0.577350
v -0.000000 -1.000000 1.154700
v -0.999999 -1.000000 -0.577350
v -1.000000 -1.000000 -0.461880
v -1.000000 -1.000000 0.153960
v -1.000000 -1.000000 -0.153960
v 0.633333 -1.000000 -0.789045
vt 0.047190 0.383213
vt 0.048074 0.383213
vt 0.048070 0.387907
vt 0.047190 0.387907
vt 0.067636 0.408225
vt 0.067377 0.408225
vt 0.067506 0.403532
vt 0.067946 0.403532
vt 0.047190 0.298735
vt 0.047190 0.298735
vt 0.047190 0.351963
vt 0.051738 0.383213
vt 0.052180 0.383213
vt 0.052180 0.387907
vt 0.051739 0.387907
vt 0.055808 0.383213
vt 0.055272 0.383213
vt 0.055275 0.387907
vt 0.055808 0.387907
vt 0.071575 0.403532
vt 0.071042 0.403532
vt 0.071177 0.408225
vt 0.071658 0.408225
vt 0.051726 0.298735
vt 0.047190 0.298735
vt 0.047190 0.356657
vt 0.051726 0.356657
vt 0.051726 0.298735
vt 0.051726 0.356657
vt 0.047190 0.356657
vt 0.056262 0.298735
vt 0.056262 0.356657
vt 0.056262 0.298735
vt 0.056262 0.356657
vt 0.047190 0.298735
vt 0.047190 0.351963
vt 0.055808 0.298735
vt 0.055808 0.351963
vt 0.055808 0.356657
vt 0.209959 0.601963
vt 0.211871 0.695713
vt 0.211871 0.611235
vt 0.209959 0.517485
vt 0.052180 0.356657
vt 0.052180 0.351963
vt 0.198244 0.601963
vt 0.198244 0.695713
vt 0.198244 0.611235
vt 0.198244 0.517485
vt 0.047190 0.356657
vt 0.052180 0.298735
vt 0.062957 0.403532
vt 0.062957 0.403532
vt 0.063183 0.408225
vt 0.063183 0.408225
vt 0.067492 0.403532
vt 0.067492 0.408225
vt 0.072028 0.403532
vt 0.071802 0.408225
vt 0.072028 0.403532
vt 0.071802 0.408225
vt 0.067492 0.403532
vt 0.067492 0.408225
vt 0.062957 0.403532
vt 0.062957 0.403532
vt 0.063183 0.408225
vt 0.063183 0.408225
vt 0.063837 0.403532
vt 0.063702 0.408225
vt 0.079469 0.423850
vt 0.078950 0.423850
vt 0.078950 0.423850
vt 0.064146 0.408225
vt 0.064022 0.403532
vt 0.078950 0.423850
vt 0.079912 0.423850
vt 0.078950 0.423850
vt 0.171347 0.633213
vt 0.173627 0.726963
vt 0.174475 0.726963
vt 0.172562 0.633213
vt 0.064866 0.403532
vt 0.064733 0.408225
vt 0.065925 0.403532
vt 0.065793 0.408225
vt 0.066852 0.403532
vt 0.066722 0.408225
vt 0.049101 0.383213
vt 0.049100 0.387907
vt 0.050159 0.383213
vt 0.050158 0.387907
vt 0.051084 0.383213
vt 0.051085 0.387907
vt 0.048262 0.383213
vt 0.047190 0.383213
vt 0.047190 0.387907
vt 0.048256 0.387907
vt 0.065105 0.408225
vt 0.064980 0.403532
vt 0.066118 0.408225
vt 0.065991 0.403532
vt 0.067145 0.408225
vt 0.067017 0.403532
vt 0.068147 0.408225
vt 0.068017 0.403532
vt 0.069085 0.408225
vt 0.068953 0.403532
vt 0.069923 0.408225
vt 0.069790 0.403532
vt 0.070629 0.408225
vt 0.070495 0.403532
vt 0.054726 0.383213
vt 0.054729 0.387907
vt 0.054022 0.383213
vt 0.054024 0.387907
vt 0.053186 0.383213
vt 0.053187 0.387907
vt 0.052251 0.383213
vt 0.052250 0.387907
vt 0.051250 0.387907
vt 0.051252 0.383213
vt 0.050228 0.383213
vt 0.050225 0.387907
vt 0.049219 0.383213
vt 0.049214 0.387907
vt 0.160847 0.633213
vt 0.162565 0.633213
vt 0.162244 0.726963
vt 0.160847 0.726963
vt 0.172764 0.726963
vt 0.167722 0.633213
vt 0.167392 0.726963
vt 0.168850 0.726963
vt 0.165198 0.633213
vt 0.165651 0.726963
vt 0.167270 0.726963
vt 0.170329 0.726963
vt 0.169857 0.633213
vt 0.171650 0.726963
vt 0.164661 0.633213
vt 0.163869 0.726963
vt 0.080499 0.423850
vt 0.083403 0.423850
vt 0.083259 0.423850
vt 0.083143 0.423850
vt 0.082488 0.423850
vt 0.081560 0.423850
vt 0.087568 0.423850
vt 0.083913 0.423850
vt 0.083259 0.423850
vt 0.087424 0.423850
vt 0.086943 0.423850
vt 0.087568 0.423850
vt 0.080872 0.423850
vt 0.081884 0.423850
vt 0.082911 0.423850
vt 0.084851 0.423850
vt 0.085689 0.423850
vt 0.086396 0.423850
vt 0.160847 0.726963
vt 0.162542 0.726963
vt 0.162914 0.633213
vt 0.160847 0.633213
vt 0.198244 0.695713
vt 0.198244 0.601963
vt 0.198244 0.517485
vt 0.198244 0.611235
vt 0.168038 0.726963
vt 0.169678 0.633213
vt 0.170649 0.633213
vt 0.168737 0.726963
vt 0.206133 0.695713
vt 0.208046 0.601963
vt 0.208046 0.517485
vt 0.206133 0.611235
vt 0.166620 0.633213
vt 0.165541 0.726963
vt 0.168343 0.633213
vt 0.167005 0.726963
vt 0.164055 0.726963
vt 0.047190 0.356657
vt 0.169017 0.538250
vt 0.166048 0.538250
vt 0.166048 0.538250
vt 0.169017 0.538250
vt 0.169314 0.538250
vt 0.171690 0.538250
vt 0.171987 0.538250
vt 0.170106 0.538250
vt 0.171987 0.538250
vt 0.169017 0.538250
vt 0.166048 0.538250
vt 0.166048 0.538250
vt 0.166048 0.538250
vt 0.166048 0.538250
vt 0.170898 0.538250
vn 0.0000 0.0000 1.0000
vn 0.0784 0.0012 0.9969
vn 0.0769 0.0011 0.9970
vn 0.6124 0.7071 0.3536
vn 0.5802 0.7188 0.3830
vn 0.5620 0.7246 0.3990
vn -1.0000 0.0000 0.0000
vn 0.8242 0.0012 0.5663
vn 0.8660 -0.0000 0.5000
vn 0.8250 0.0011 0.5651
vn -0.8660 -0.0000 -0.5000
vn -0.8446 -0.0012 -0.5353
vn -0.8454 -0.0011 -0.5341
vn -0.6124 0.7071 -0.3536
vn -0.5959 0.7129 -0.3696
vn -0.5868 0.7160 -0.3783
vn -0.5000 0.0000 -0.8660
vn -0.5000 0.0000 0.8660
vn 0.5000 0.0000 0.8660
vn 1.0000 0.0000 0.0000
vn 0.5000 0.0000 -0.8660
vn -0.7071 0.7071 0.0000
vn 0.3536 0.7071 -0.6124
vn 0.7071 0.7071 0.0000
vn 0.3536 0.7071 0.6124
vn -0.3536 0.7071 0.6124
vn -0.3536 0.7071 -0.6124
vn 0.0000 0.7071 0.7071
vn 0.0646 0.7246 0.6862
vn 0.0416 0.7188 0.6940
vn 0.0000 1.0000 0.0000
vn 0.0000 0.7071 -0.7071
vn -0.0342 0.7160 -0.6973
vn -0.0221 0.7129 -0.7009
vn 0.1935 0.7486 0.6342
vn 0.1749 0.7460 0.6425
vn 0.3265 0.7573 0.5655
vn 0.4524 0.7486 0.4847
vn 0.4690 0.7460 0.4728
vn 0.2792 0.0033 0.9602
vn 0.2780 0.0033 0.9606
vn 0.5000 0.0043 0.8660
vn 0.6920 0.0033 0.7219
vn 0.6929 0.0033 0.7210
vn -0.0413 -0.0012 -0.9991
vn 0.0000 -0.0000 -1.0000
vn -0.0398 -0.0011 -0.9992
vn -0.1112 0.7325 -0.6716
vn -0.0956 0.7295 -0.6772
vn -0.1931 0.7450 -0.6386
vn -0.1848 0.7439 -0.6422
vn -0.2639 0.7513 -0.6049
vn -0.2604 0.7510 -0.6067
vn -0.3289 0.7532 -0.5697
vn -0.3919 0.7513 -0.5310
vn -0.3953 0.7510 -0.5289
vn -0.4565 0.7450 -0.4865
vn -0.4637 0.7439 -0.4812
vn -0.5260 0.7325 -0.4321
vn -0.5387 0.7295 -0.4214
vn -0.7793 -0.0039 -0.6267
vn -0.7805 -0.0039 -0.6251
vn -0.6884 -0.0064 -0.7253
vn -0.6893 -0.0064 -0.7244
vn -0.5959 -0.0078 -0.8030
vn -0.5964 -0.0078 -0.8027
vn -0.5000 -0.0083 -0.8660
vn -0.3970 -0.0078 -0.9178
vn -0.3975 -0.0078 -0.9176
vn -0.2839 -0.0064 -0.9588
vn -0.2827 -0.0064 -0.9592
vn -0.1531 -0.0039 -0.9882
vn -0.1511 -0.0039 -0.9885
vn 0.0000 -1.0000 0.0000
usemtl hexagons_medieval
s 1
f 3/1/1 25/2/2 34/3/3 22/4/1
f 10/5/4 30/6/5 35/7/6 11/8/4
f 82/9/7 83/10/7 4/11/7
f 24/12/8 2/13/9 11/14/9 35/15/10
f 1/16/11 40/17/12 48/18/13 16/19/11
f 16/20/14 48/21/15 67/22/16 17/23/14
f 85/24/17 91/25/17 21/26/17 12/27/17
f 83/10/18 90/28/18 19/29/18 8/30/18
f 90/28/19 89/31/19 18/32/19 19/29/19
f 89/31/20 86/33/20 15/34/20 18/32/20
f 91/25/7 92/35/7 3/36/7
f 86/33/21 87/37/21 1/38/21
f 15/34/21 86/33/21 1/38/21 16/39/21
f 72/40/21 1/41/21 87/42/21 95/43/21
f 11/44/21 2/45/21 85/24/21 12/27/21
f 68/46/7 3/47/7 92/48/7 94/49/7
f 21/26/7 91/25/7 3/36/7 22/50/7
f 2/45/21 84/51/21 85/24/21
f 7/52/22 8/53/22 57/54/22 6/55/22
f 11/8/23 12/56/23 13/57/23 10/5/23
f 15/58/23 16/20/23 17/23/23 62/59/23
f 18/60/24 15/58/24 62/59/24 14/61/24
f 19/62/25 18/60/25 14/61/25 9/63/25
f 9/63/26 57/54/26 8/53/26 19/62/26
f 21/64/22 22/65/22 23/66/22 20/67/22
f 12/56/27 21/64/27 20/67/27 13/57/27
f 22/65/28 34/68/29 29/69/30 23/66/28
f 29/70/31 20/71/31 23/72/31
f 6/55/32 58/73/33 49/74/34 7/52/32
f 57/75/31 58/76/31 6/77/31
f 74/78/31 40/79/31 1/80/31 72/81/31
f 29/69/30 34/68/29 36/82/35 31/83/36
f 31/83/36 36/82/35 37/84/37 32/85/37
f 32/85/37 37/84/37 38/86/38 33/87/39
f 33/87/39 38/86/38 35/7/6 30/6/5
f 34/3/3 25/2/2 28/88/40 36/89/41
f 36/89/41 28/88/40 27/90/42 37/91/42
f 37/91/42 27/90/42 26/92/43 38/93/44
f 38/93/44 26/92/43 24/12/8 35/15/10
f 39/94/45 4/95/46 7/96/46 49/97/47
f 49/74/34 58/73/33 59/98/48 56/99/49
f 56/99/49 59/98/48 60/100/50 55/101/51
f 55/101/51 60/100/50 61/102/52 54/103/53
f 54/103/53 61/102/52 63/104/54 53/105/54
f 53/105/54 63/104/54 64/106/55 52/107/56
f 52/107/56 64/106/55 65/108/57 51/109/58
f 51/109/58 65/108/57 66/110/59 50/111/60
f 50/111/60 66/110/59 67/22/16 48/21/15
f 48/18/13 40/17/12 47/112/61 50/113/62
f 50/113/62 47/112/61 46/114/63 51/115/64
f 51/115/64 46/114/63 45/116/65 52/117/66
f 52/117/66 45/116/65 44/118/67 53/119/67
f 54/120/68 43/121/69 42/122/70 55/123/71
f 55/123/71 42/122/70 41/124/72 56/125/73
f 56/125/73 41/124/72 39/94/45 49/97/47
f 68/126/31 71/127/31 25/128/31 3/129/31
f 74/78/31 47/130/31 40/79/31
f 80/131/31 43/132/31 44/133/31
f 81/134/31 42/135/31 43/136/31
f 80/131/31 44/133/31 45/137/31
f 79/138/31 45/137/31 46/139/31
f 74/78/31 79/138/31 46/139/31 47/130/31
f 71/127/31 78/140/31 28/141/31 25/128/31
f 20/71/31 29/70/31 31/142/31
f 10/143/31 13/144/31 30/145/31
f 30/145/31 13/144/31 33/146/31
f 33/146/31 13/144/31 32/147/31
f 13/144/31 20/71/31 32/147/31
f 32/147/31 20/71/31 31/142/31
f 14/148/31 63/149/31 9/150/31
f 17/151/31 67/152/31 62/153/31
f 9/150/31 59/154/31 58/76/31
f 9/150/31 60/155/31 59/154/31
f 9/150/31 61/156/31 60/155/31
f 9/150/31 63/149/31 61/156/31
f 9/150/31 58/76/31 57/75/31
f 14/148/31 64/157/31 63/149/31
f 14/148/31 65/158/31 64/157/31
f 14/148/31 66/159/31 65/158/31
f 14/148/31 67/152/31 66/159/31
f 14/148/31 62/153/31 67/152/31
f 4/160/31 39/161/31 70/162/31 69/163/31
f 69/163/31 70/162/31 71/127/31 68/126/31
f 4/164/7 69/165/7 93/166/7 82/167/7
f 69/165/7 68/46/7 94/49/7 93/166/7
f 24/168/31 75/169/31 73/170/31 2/171/31
f 75/169/31 74/78/31 72/81/31 73/170/31
f 2/172/21 73/173/21 88/174/21 84/175/21
f 73/173/21 72/40/21 95/43/21 88/174/21
f 70/162/31 81/134/31 78/140/31 71/127/31
f 28/141/31 78/140/31 77/176/31 27/177/31
f 27/177/31 77/176/31 76/178/31 26/179/31
f 24/168/31 26/179/31 76/178/31 75/169/31
f 41/180/31 42/135/31 81/134/31 70/162/31
f 78/140/31 81/134/31 80/131/31 77/176/31
f 77/176/31 80/131/31 79/138/31 76/178/31
f 75/169/31 76/178/31 79/138/31 74/78/31
f 39/161/31 41/180/31 70/162/31
f 79/138/31 80/131/31 45/137/31
f 81/134/31 43/132/31 80/131/31
f 53/119/67 44/118/67 43/121/69 54/120/68
f 83/10/7 8/30/7 7/181/7 4/11/7
f 5/182/74 83/183/74 82/184/74
f 5/182/74 85/185/74 84/186/74
f 5/182/74 87/187/74 86/188/74
f 5/182/74 84/186/74 88/189/74
f 5/182/74 86/188/74 89/190/74
f 5/182/74 89/190/74 90/191/74
f 5/182/74 90/191/74 83/183/74
f 5/182/74 92/192/74 91/193/74
f 5/182/74 82/184/74 93/194/74
f 5/182/74 91/193/74 85/185/74
f 5/182/74 94/195/74 92/192/74
f 5/182/74 93/194/74 94/195/74
f 5/182/74 95/196/74 87/187/74
f 5/182/74 88/189/74 95/196/74
