# Blender v3.4.1 OBJ File: 'Medieval_Hexagons_Export_1.0_WorldOrigin.blend'
# www.blender.org
mtllib hex_river_crossing_B.mtl
o hex_river_crossing_B
v 1.000000 -0.100000 -0.461880
v 1.000000 -0.100000 0.461880
v -1.000000 -0.100000 -0.461880
v -1.000000 -0.100000 0.461880
v 0.000000 -1.000000 0.000000
v -0.333333 -0.050000 0.962250
v -0.666667 -0.050000 0.769800
v 0.333333 -0.050000 -0.962250
v 0.666667 -0.050000 -0.769800
v 0.044445 -0.100000 -0.461880
v -0.488889 -0.100000 0.461880
v 0.488889 -0.100000 -0.461880
v -0.044444 -0.100000 0.461880
v 0.950000 0.000000 0.511880
v 1.000000 -0.050000 0.461880
v 1.000000 -0.050000 0.577350
v 0.950000 0.000000 0.548482
v -1.000000 -0.050000 0.461880
v -0.950000 0.000000 0.511880
v -0.950000 0.000000 0.548483
v -1.000000 -0.050000 0.577350
v 0.950000 0.000000 -0.548482
v 1.000000 -0.050000 -0.577350
v 1.000000 -0.050000 -0.461880
v 0.950000 0.000000 -0.511880
v 0.684968 0.000000 -0.701499
v -0.950000 0.000000 -0.548482
v -1.000000 -0.050000 -0.577350
v 0.000000 -0.050000 -1.154700
v 0.000000 0.000000 -1.096965
v -0.950000 0.000000 -0.511880
v -1.000000 -0.050000 -0.461880
v -0.684968 0.000000 0.701499
v 0.000000 -0.050000 1.154700
v 0.000000 0.000000 1.096965
v 0.015577 0.000000 -0.511880
v 0.044445 -0.050000 -0.461880
v -0.488889 -0.050000 0.461880
v -0.575491 0.000000 0.511880
v -0.265032 0.000000 0.943949
v 0.265032 0.000000 -0.943949
v 0.488889 -0.050000 -0.461880
v 0.575491 0.000000 -0.511880
v -0.015577 0.000000 0.511880
v 1.000000 -0.100000 -0.153960
v 1.000000 -0.100000 0.153960
v -1.000000 -0.100000 -0.153960
v -1.000000 -0.100000 0.153960
v -0.088889 -0.100000 0.153960
v 0.088889 -0.100000 -0.153960
v -0.044444 -0.050000 0.461880
v 1.000000 -1.000000 0.461880
v 1.000000 -1.000000 0.577350
v -1.000000 -1.000000 0.461880
v -1.000000 -1.000000 0.577350
v 1.000000 -1.000000 -0.577350
v 1.000000 -1.000000 -0.461880
v 1.000000 -1.000000 0.153960
v 0.666667 -1.000000 -0.769800
v -1.000000 -1.000000 -0.577350
v 0.000000 -1.000000 -1.154700
v -1.000000 -1.000000 -0.461880
v -1.000000 -1.000000 0.153960
v -0.666667 -1.000000 0.769800
v 0.000000 -1.000000 1.154700
v -0.333333 -1.000000 0.962250
v 0.333333 -1.000000 -0.962250
v 1.000000 -1.000000 -0.153960
v -1.000000 -1.000000 -0.153960
vt 0.170251 0.633213
vt 0.175192 0.633213
vt 0.175192 0.726963
vt 0.171526 0.726963
vt 0.047190 0.356657
vt 0.047190 0.298735
vt 0.047190 0.356657
vt 0.047190 0.356657
vt 0.050214 0.356657
vt 0.051726 0.298735
vt 0.051726 0.356657
vt 0.056262 0.298735
vt 0.056262 0.356657
vt 0.056262 0.356657
vt 0.056262 0.356657
vt 0.048702 0.356657
vt 0.053238 0.356657
vt 0.051726 0.298735
vt 0.051726 0.356657
vt 0.056262 0.298735
vt 0.054750 0.356657
vt 0.056262 0.356657
vt 0.198244 0.601963
vt 0.198244 0.517485
vt 0.198244 0.611235
vt 0.198244 0.695713
vt 0.056262 0.356657
vt 0.056262 0.356657
vt 0.212589 0.601963
vt 0.212589 0.517485
vt 0.212589 0.611235
vt 0.212589 0.695713
vt 0.050214 0.298735
vt 0.047190 0.298735
vt 0.047190 0.356657
vt 0.420295 0.383213
vt 0.420295 0.329985
vt 0.418254 0.329985
vt 0.418254 0.383213
vt 0.085869 0.423850
vt 0.087568 0.423850
vt 0.087568 0.423850
vt 0.086366 0.423850
vt 0.412130 0.383213
vt 0.412130 0.329985
vt 0.414171 0.329985
vt 0.414171 0.383213
vt 0.167063 0.633213
vt 0.168338 0.726963
vt 0.160847 0.633213
vt 0.160847 0.726963
vt 0.051524 0.383213
vt 0.051524 0.387907
vt 0.056262 0.387907
vt 0.056262 0.383213
vt 0.053238 0.298735
vt 0.054750 0.298735
vt 0.056262 0.383213
vt 0.056262 0.387907
vt 0.053943 0.387907
vt 0.053943 0.383213
vt 0.056262 0.298735
vt 0.051928 0.383213
vt 0.051928 0.387907
vt 0.047190 0.387907
vt 0.047190 0.383213
vt 0.078950 0.423850
vt 0.080152 0.423850
vt 0.080649 0.423850
vt 0.078950 0.423850
vt 0.047190 0.298735
vt 0.047190 0.383213
vt 0.047190 0.387907
vt 0.049508 0.387907
vt 0.049508 0.383213
vt 0.082057 0.423850
vt 0.083259 0.423850
vt 0.087568 0.423850
vt 0.087568 0.423850
vt 0.083188 0.423850
vt 0.047190 0.298735
vt 0.047190 0.356657
vt 0.048702 0.298735
vt 0.078950 0.423850
vt 0.083330 0.423850
vt 0.084461 0.423850
vt 0.083259 0.423850
vt 0.078950 0.423850
vt 0.056262 0.298735
vt 0.062957 0.403532
vt 0.063183 0.408225
vt 0.063183 0.408225
vt 0.062957 0.403532
vt 0.071802 0.408225
vt 0.072028 0.403532
vt 0.072028 0.403532
vt 0.071802 0.408225
vt 0.062957 0.403532
vt 0.063183 0.408225
vt 0.063183 0.408225
vt 0.062957 0.403532
vt 0.064469 0.403532
vt 0.064386 0.408225
vt 0.072028 0.403532
vt 0.071802 0.408225
vt 0.067492 0.408225
vt 0.067492 0.403532
vt 0.072028 0.403532
vt 0.071802 0.408225
vt 0.070516 0.403532
vt 0.070599 0.408225
vt 0.067492 0.408225
vt 0.067492 0.403532
vt 0.067291 0.403532
vt 0.067422 0.408225
vt 0.070103 0.408225
vt 0.069710 0.403532
vt 0.068695 0.408225
vt 0.069004 0.403532
vt 0.066290 0.408225
vt 0.065980 0.403532
vt 0.064882 0.408225
vt 0.065275 0.403532
vt 0.067694 0.403532
vt 0.067563 0.408225
vt 0.160847 0.726963
vt 0.164513 0.726963
vt 0.165788 0.633213
vt 0.160847 0.633213
vt 0.167701 0.726963
vt 0.168976 0.633213
vt 0.212589 0.695713
vt 0.212589 0.611235
vt 0.212589 0.517485
vt 0.212589 0.601963
vt 0.198244 0.695713
vt 0.198244 0.611235
vt 0.198244 0.517485
vt 0.198244 0.601963
vt 0.175192 0.726963
vt 0.175192 0.633213
vt 0.047190 0.356657
vt 0.444060 0.414463
vt 0.446101 0.414463
vt 0.447870 0.414463
vt 0.445148 0.414463
vt 0.448415 0.414463
vt 0.451136 0.414463
vt 0.452225 0.414463
vt 0.450184 0.414463
vt 0.434505 0.398838
vt 0.434505 0.398838
vt 0.437227 0.398838
vt 0.437227 0.398838
vt 0.440493 0.398838
vt 0.440493 0.398838
vt 0.437771 0.398838
vt 0.437771 0.398838
vt 0.174957 0.538250
vt 0.171987 0.538250
vt 0.171987 0.538250
vt 0.177926 0.538250
vt 0.177926 0.538250
vt 0.171987 0.538250
vt 0.171987 0.538250
vt 0.171987 0.538250
vt 0.172977 0.538250
vt 0.177926 0.538250
vt 0.174957 0.538250
vt 0.177926 0.538250
vt 0.177926 0.538250
vt 0.176936 0.538250
vt 0.174957 0.538250
vt 0.175946 0.538250
vt 0.173967 0.538250
vt 0.171987 0.538250
vt 0.177926 0.538250
vn 0.0000 1.0000 -0.0000
vn 1.0000 0.0000 -0.0000
vn 0.5000 0.0000 -0.8660
vn -1.0000 0.0000 -0.0000
vn -0.5000 0.0000 0.8660
vn 0.5000 0.0000 0.8660
vn -0.5000 0.0000 -0.8660
vn 0.0000 0.0000 1.0000
vn 0.0000 0.0000 -1.0000
vn 0.7071 0.7071 0.0000
vn -0.7071 0.7071 0.0000
vn 0.3536 0.7071 -0.6124
vn -0.3536 0.7071 -0.6124
vn -0.3536 0.7071 0.6124
vn 0.3536 0.7071 0.6124
vn 0.0000 0.7071 0.7071
vn -0.0000 0.7071 -0.7071
vn 0.6124 0.7071 0.3536
vn -0.6124 0.7071 -0.3536
vn 0.0000 -1.0000 0.0000
usemtl hexagons_medieval
s 1
f 49/1/1 48/2/1 4/3/1 11/4/1
f 1/5/2 56/6/2 23/7/2 24/8/2
f 8/9/3 61/10/3 29/11/3
f 60/12/4 3/13/4 32/14/4 28/15/4
f 56/6/3 9/16/3 23/7/3
f 6/17/5 65/18/5 34/19/5
f 55/20/5 7/21/5 21/22/5
f 45/23/2 68/24/2 57/25/2 1/26/2
f 4/27/4 55/20/4 21/22/4 18/28/4
f 48/29/4 63/30/4 54/31/4 4/32/4
f 67/33/3 61/10/3 8/9/3
f 65/18/6 53/34/6 16/35/6 34/19/6
f 7/36/5 64/37/5 66/38/5 6/39/5
f 39/40/1 19/41/1 20/42/1 33/43/1
f 61/10/7 60/12/7 28/15/7 29/11/7
f 9/44/3 59/45/3 67/46/3 8/47/3
f 49/48/1 11/4/1 13/49/1
f 46/50/1 49/48/1 13/49/1 2/51/1
f 10/52/8 37/53/8 32/54/8 3/55/8
f 66/56/5 65/18/5 6/17/5
f 64/57/5 7/21/5 55/20/5
f 4/58/9 18/59/9 38/60/9 11/61/9
f 62/62/4 3/13/4 60/12/4
f 13/63/9 51/64/9 15/65/9 2/66/9
f 22/67/1 26/68/1 43/69/1 25/70/1
f 57/71/2 56/6/2 1/5/2
f 1/72/8 24/73/8 42/74/8 12/75/8
f 41/76/1 30/77/1 27/78/1 31/79/1 36/80/1
f 52/81/2 2/82/2 53/34/2
f 59/83/3 9/16/3 56/6/3
f 14/84/1 44/85/1 40/86/1 35/87/1 17/88/1
f 54/89/4 55/20/4 4/27/4
f 15/90/10 14/91/10 17/92/10 16/93/10
f 19/94/11 18/95/11 21/96/11 20/97/11
f 23/98/10 22/99/10 25/100/10 24/101/10
f 9/102/12 26/103/12 22/99/12 23/98/12
f 28/104/13 27/105/13 30/106/13 29/107/13
f 27/105/11 28/104/11 32/108/11 31/109/11
f 7/110/14 33/111/14 20/97/14 21/96/14
f 16/93/15 17/92/15 35/112/15 34/113/15
f 37/114/16 36/115/16 31/109/16 32/108/16
f 39/116/17 38/117/17 18/95/17 19/94/17
f 34/113/14 35/112/14 40/118/14 6/119/14
f 29/107/12 30/106/12 41/120/12 8/121/12
f 36/115/18 37/114/18 8/121/18 41/120/18
f 33/111/18 7/110/18 38/117/18 39/116/18
f 24/101/16 25/100/16 43/122/16 42/123/16
f 14/91/17 15/90/17 51/124/17 44/125/17
f 42/123/19 43/122/19 26/103/19 9/102/19
f 6/119/19 40/118/19 44/125/19 51/124/19
f 1/126/1 12/127/1 50/128/1 45/129/1
f 45/129/1 50/128/1 49/48/1 46/50/1
f 12/127/1 10/130/1 50/131/1
f 3/132/4 62/133/4 69/134/4 47/135/4
f 47/135/4 69/134/4 63/30/4 48/29/4
f 2/136/2 52/137/2 58/138/2 46/139/2
f 46/139/2 58/138/2 68/24/2 45/23/2
f 10/130/1 3/140/1 47/141/1 50/131/1
f 50/131/1 47/141/1 48/2/1 49/1/1
f 53/34/2 2/82/2 15/142/2 16/35/2
f 9/143/1 8/144/1 37/145/1 42/146/1
f 51/147/1 38/148/1 7/149/1 6/150/1
f 12/151/8 42/152/8 37/153/8 10/154/8
f 11/155/9 38/156/9 51/157/9 13/158/9
f 5/159/20 52/160/20 53/161/20
f 5/159/20 55/162/20 54/163/20
f 5/159/20 56/164/20 57/165/20
f 5/159/20 58/166/20 52/160/20
f 5/159/20 59/167/20 56/164/20
f 5/159/20 60/168/20 61/169/20
f 5/159/20 62/170/20 60/168/20
f 5/159/20 54/163/20 63/171/20
f 5/159/20 64/172/20 55/162/20
f 5/159/20 53/161/20 65/173/20
f 5/159/20 65/173/20 66/174/20
f 5/159/20 66/174/20 64/172/20
f 5/159/20 61/169/20 67/175/20
f 5/159/20 67/175/20 59/167/20
f 5/159/20 57/165/20 68/176/20
f 5/159/20 68/176/20 58/166/20
f 5/159/20 69/177/20 62/170/20
f 5/159/20 63/171/20 69/177/20
