# Blender v3.4.1 OBJ File: 'Medieval_Hexagons_Export_1.0_WorldOrigin.blend'
# www.blender.org
mtllib hex_river_I.mtl
o hex_river_I
v 0.100000 -0.100000 1.096965
v -0.899999 -0.100000 0.635085
v -0.100000 -0.100000 1.096965
v 0.900000 -0.100000 -0.635085
v 0.100000 -0.100000 -1.096965
v 0.000000 -1.000000 -0.000000
v 0.031698 0.000000 -1.078664
v 0.100000 -0.050000 -1.096965
v -0.000000 -0.050000 -1.154700
v -0.000000 0.000000 -1.096965
v -0.031698 0.000000 1.078664
v -0.100000 -0.050000 1.096965
v 0.000001 -0.050000 1.154700
v 0.000001 0.000000 1.096965
v 0.918301 0.000000 0.566784
v 0.900000 -0.050000 0.635085
v 1.000000 -0.050000 0.577350
v 0.950000 0.000000 0.548483
v -0.100000 -0.050000 -1.096965
v -0.031699 0.000000 -1.078664
v 0.100000 -0.050000 1.096965
v 0.031699 0.000000 1.078664
v -0.950000 0.000000 0.548483
v -0.999999 -0.050000 0.577350
v -0.899999 -0.050000 0.635085
v -0.918301 0.000000 0.566784
v -0.950000 0.000000 -0.548483
v -1.000000 -0.050000 -0.577350
v -0.918301 0.000000 -0.566784
v -0.900000 -0.050000 -0.635085
v 0.950000 0.000000 -0.548483
v 1.000000 -0.050000 -0.577350
v 0.900000 -0.050000 -0.635085
v 0.918301 0.000000 -0.566784
v 0.804301 -0.100000 -0.469330
v 0.721232 -0.100000 0.254000
v 0.692062 -0.100000 -0.000000
v 0.721232 -0.100000 -0.254000
v -0.804301 -0.100000 -0.469330
v -0.804301 -0.100000 0.469330
v -0.721232 -0.100000 -0.254000
v -0.692062 -0.100000 0.000000
v -0.721232 -0.100000 0.254000
v -0.862842 0.000000 0.470727
v -0.862842 0.000000 -0.470727
v -0.779526 0.000000 0.254755
v -0.750270 0.000000 0.000000
v -0.779526 0.000000 -0.254755
v -0.804673 -0.050000 0.469975
v -0.804673 -0.050000 -0.469975
v -0.721490 -0.050000 0.254349
v -0.692280 -0.050000 0.000000
v -0.721491 -0.050000 -0.254348
v 0.862842 0.000000 -0.470727
v 0.862843 0.000000 0.470727
v 0.779526 0.000000 -0.254755
v 0.750270 0.000000 0.000000
v 0.779527 0.000000 0.254756
v 0.804673 -0.050000 -0.469975
v 0.804673 -0.050000 0.469975
v 0.721490 -0.050000 -0.254349
v 0.692281 -0.050000 0.000000
v 0.721490 -0.050000 0.254349
v -0.076182 -0.100000 1.055712
v 0.027885 -0.100000 1.007414
v 0.076182 -0.100000 -1.055712
v -0.076183 -0.100000 -1.055712
v 0.027884 -0.100000 -1.007414
v -0.027885 -0.100000 -1.007414
v -0.076602 -0.050000 -1.056439
v 0.076602 -0.050000 -1.056439
v -0.028039 -0.050000 -1.007875
v 0.028038 -0.050000 -1.007875
v -0.011603 0.000000 -1.058568
v 0.011602 0.000000 -1.058568
v 0.076602 -0.050000 1.056438
v -0.076601 -0.050000 1.056439
v 0.028039 -0.050000 1.007875
v -0.028038 -0.050000 1.007875
v 0.011603 0.000000 1.058568
v -0.011602 0.000000 1.058568
v 0.900000 -0.100000 0.635085
v -0.900000 -0.100000 -0.635085
v -0.100000 -0.100000 -1.096965
v 0.804301 -0.100000 0.469330
v 0.076183 -0.100000 1.055712
v -0.027884 -0.100000 1.007414
v -0.633333 -0.100000 -0.789045
v -0.366667 -0.100000 -0.943005
v 0.633333 -0.100000 -0.789045
v 0.366666 -0.100000 -0.943005
v 0.366667 -0.100000 0.943005
v -0.366666 -0.100000 0.943005
v 0.633333 -0.100000 0.789045
v -0.633333 -0.100000 0.789045
v 0.103601 -0.100000 0.756275
v 0.433243 -0.100000 0.505217
v -0.433076 -0.100000 0.505059
v -0.103599 -0.100000 0.756275
v 0.271244 -0.100000 0.836034
v 0.543296 -0.100000 0.664816
v -0.543235 -0.100000 0.664765
v -0.270951 -0.100000 0.835927
v 0.433079 -0.100000 -0.505059
v 0.103599 -0.100000 -0.756275
v -0.433240 -0.100000 -0.505217
v -0.103601 -0.100000 -0.756275
v -0.543295 -0.100000 -0.664816
v -0.271242 -0.100000 -0.836035
v 0.543235 -0.100000 -0.664765
v 0.270952 -0.100000 -0.835927
v -0.355241 -0.100000 -0.253983
v -0.332755 -0.100000 0.000000
v -0.355265 -0.100000 0.254017
v 0.355265 -0.100000 -0.254017
v 0.332755 -0.100000 0.000000
v 0.355241 -0.100000 0.253983
v 0.100000 -1.000000 -1.096965
v -0.000000 -1.000000 -1.154700
v -0.100000 -1.000000 1.096965
v 0.000001 -1.000000 1.154700
v 0.900000 -1.000000 0.635085
v 1.000000 -1.000000 0.577350
v -0.100000 -1.000000 -1.096965
v 0.100000 -1.000000 1.096965
v 0.633333 -1.000000 0.789045
v -0.999999 -1.000000 0.577350
v -0.899999 -1.000000 0.635085
v -0.366666 -1.000000 0.943005
v -1.000000 -1.000000 -0.577350
v -0.900000 -1.000000 -0.635085
v -0.366667 -1.000000 -0.943005
v 1.000000 -1.000000 -0.577350
v 0.900000 -1.000000 -0.635085
v 0.366666 -1.000000 -0.943005
v 0.633333 -1.000000 -0.789045
v -0.633333 -1.000000 -0.789045
v 0.366667 -1.000000 0.943005
v -0.633333 -1.000000 0.789045
vt 0.047190 0.298735
vt 0.047190 0.298735
vt 0.047190 0.351963
vt 0.067600 0.408225
vt 0.067349 0.408225
vt 0.067039 0.403532
vt 0.067471 0.403532
vt 0.055808 0.298735
vt 0.056262 0.298735
vt 0.055808 0.351963
vt 0.051726 0.298735
vt 0.051272 0.298735
vt 0.051272 0.351963
vt 0.052180 0.383213
vt 0.051745 0.383213
vt 0.051747 0.387907
vt 0.052180 0.387907
vt 0.051272 0.383213
vt 0.051706 0.383213
vt 0.051705 0.387907
vt 0.051272 0.387907
vt 0.071658 0.408225
vt 0.071469 0.403532
vt 0.071575 0.403532
vt 0.056262 0.351963
vt 0.056262 0.298735
vt 0.056262 0.298735
vt 0.056262 0.356657
vt 0.056262 0.356657
vt 0.047752 0.383213
vt 0.047644 0.383213
vt 0.047644 0.387907
vt 0.047750 0.387907
vt 0.056262 0.383213
vt 0.056046 0.383213
vt 0.056050 0.387907
vt 0.056262 0.387907
vt 0.051726 0.356657
vt 0.051726 0.298735
vt 0.052180 0.298735
vt 0.052180 0.351963
vt 0.055700 0.383213
vt 0.055808 0.383213
vt 0.055808 0.387907
vt 0.055702 0.387907
vt 0.056262 0.298735
vt 0.056262 0.351963
vt 0.047190 0.351963
vt 0.047190 0.298735
vt 0.047190 0.298735
vt 0.063183 0.408225
vt 0.063686 0.408225
vt 0.063821 0.403532
vt 0.062957 0.403532
vt 0.051726 0.356657
vt 0.047190 0.356657
vt 0.062957 0.403532
vt 0.063169 0.403532
vt 0.063183 0.408225
vt 0.200874 0.601963
vt 0.202786 0.601963
vt 0.202786 0.517485
vt 0.200874 0.517485
vt 0.055394 0.383213
vt 0.056262 0.383213
vt 0.056262 0.387907
vt 0.055397 0.387907
vt 0.208046 0.601963
vt 0.206133 0.695713
vt 0.206133 0.611235
vt 0.208046 0.517485
vt 0.198244 0.601963
vt 0.198244 0.695713
vt 0.198244 0.611235
vt 0.198244 0.517485
vt 0.056262 0.356657
vt 0.056262 0.356657
vt 0.047644 0.356657
vt 0.047644 0.351963
vt 0.047190 0.356657
vt 0.204699 0.695713
vt 0.204699 0.611235
vt 0.047644 0.298735
vt 0.047190 0.356657
vt 0.047190 0.356657
vt 0.212589 0.601963
vt 0.212589 0.695713
vt 0.212589 0.611235
vt 0.212589 0.517485
vt 0.052180 0.356657
vt 0.051272 0.356657
vt 0.072028 0.403532
vt 0.071802 0.408225
vt 0.063410 0.403532
vt 0.062957 0.403532
vt 0.063183 0.408225
vt 0.063327 0.408225
vt 0.062957 0.403532
vt 0.063183 0.408225
vt 0.071802 0.408225
vt 0.072028 0.403532
vt 0.067492 0.403532
vt 0.067492 0.408225
vt 0.072028 0.403532
vt 0.071802 0.408225
vt 0.071802 0.408225
vt 0.072028 0.403532
vt 0.067492 0.403532
vt 0.067946 0.403532
vt 0.067636 0.408225
vt 0.067492 0.408225
vt 0.087568 0.423850
vt 0.087065 0.423850
vt 0.087568 0.423850
vt 0.087391 0.423850
vt 0.087424 0.423850
vt 0.087568 0.423850
vt 0.067514 0.403532
vt 0.067385 0.408225
vt 0.063516 0.403532
vt 0.083259 0.423850
vt 0.083403 0.423850
vt 0.083151 0.423850
vt 0.078950 0.423850
vt 0.078950 0.423850
vt 0.079074 0.423850
vt 0.071816 0.403532
vt 0.071164 0.403532
vt 0.071298 0.408225
vt 0.198961 0.695713
vt 0.198961 0.611235
vt 0.198244 0.601963
vt 0.198244 0.517485
vt 0.068130 0.403532
vt 0.068260 0.408225
vt 0.069062 0.403532
vt 0.069194 0.408225
vt 0.070128 0.403532
vt 0.070261 0.408225
vt 0.066855 0.403532
vt 0.066725 0.408225
vt 0.065922 0.403532
vt 0.065791 0.408225
vt 0.064857 0.403532
vt 0.064724 0.408225
vt 0.051088 0.383213
vt 0.051089 0.387907
vt 0.050156 0.383213
vt 0.050156 0.387907
vt 0.049092 0.383213
vt 0.049090 0.387907
vt 0.048058 0.383213
vt 0.048055 0.387907
vt 0.054361 0.387907
vt 0.054359 0.383213
vt 0.053296 0.387907
vt 0.053295 0.383213
vt 0.052363 0.387907
vt 0.052364 0.383213
vt 0.047190 0.383213
vt 0.047190 0.387907
vt 0.198244 0.695713
vt 0.198244 0.611235
vt 0.209959 0.601963
vt 0.209959 0.517485
vt 0.071624 0.408225
vt 0.071388 0.403532
vt 0.071677 0.408225
vt 0.071515 0.403532
vt 0.063360 0.408225
vt 0.063597 0.403532
vt 0.063308 0.408225
vt 0.063470 0.403532
vt 0.055746 0.383213
vt 0.055749 0.387907
vt 0.055620 0.383213
vt 0.055621 0.387907
vt 0.047402 0.387907
vt 0.047406 0.383213
vt 0.047705 0.383213
vt 0.047703 0.387907
vt 0.047832 0.383213
vt 0.047830 0.387907
vt 0.047190 0.383213
vt 0.047190 0.387907
vt 0.079094 0.423850
vt 0.079127 0.423850
vt 0.087568 0.423850
vt 0.087444 0.423850
vt 0.078950 0.423850
vt 0.078950 0.423850
vt 0.079453 0.423850
vt 0.080490 0.423850
vt 0.081557 0.423850
vt 0.082492 0.423850
vt 0.083115 0.423850
vt 0.083367 0.423850
vt 0.083259 0.423850
vt 0.086028 0.423850
vt 0.084961 0.423850
vt 0.084026 0.423850
vt 0.211871 0.695713
vt 0.211871 0.611235
vt 0.212589 0.601963
vt 0.212589 0.517485
vt 0.212589 0.695713
vt 0.212589 0.611235
vt 0.174185 0.633213
vt 0.173089 0.633213
vt 0.174377 0.726963
vt 0.174850 0.726963
vt 0.170200 0.633213
vt 0.168050 0.726963
vt 0.168737 0.726963
vt 0.170649 0.633213
vt 0.175192 0.633213
vt 0.175192 0.726963
vt 0.162950 0.633213
vt 0.161662 0.726963
vt 0.161189 0.726963
vt 0.161854 0.633213
vt 0.169603 0.633213
vt 0.167011 0.726963
vt 0.166826 0.633213
vt 0.165168 0.633213
vt 0.163855 0.726963
vt 0.165537 0.726963
vt 0.166435 0.633213
vt 0.169028 0.726963
vt 0.167988 0.726963
vt 0.165838 0.633213
vt 0.167302 0.726963
vt 0.165389 0.633213
vt 0.160847 0.726963
vt 0.160847 0.633213
vt 0.163693 0.633213
vt 0.161862 0.726963
vt 0.168323 0.633213
vt 0.172711 0.633213
vt 0.172184 0.726963
vt 0.170871 0.633213
vt 0.167716 0.633213
vt 0.163327 0.633213
vt 0.162220 0.726963
vt 0.161941 0.633213
vt 0.160847 0.633213
vt 0.160847 0.726963
vt 0.161735 0.726963
vt 0.163799 0.633213
vt 0.163477 0.633213
vt 0.161564 0.726963
vt 0.172345 0.633213
vt 0.174177 0.726963
vt 0.172240 0.633213
vt 0.174304 0.726963
vt 0.175192 0.726963
vt 0.173819 0.726963
vt 0.174097 0.633213
vt 0.175192 0.633213
vt 0.172562 0.633213
vt 0.174475 0.726963
vt 0.170501 0.726963
vt 0.169213 0.633213
vt 0.055808 0.356657
vt 0.177926 0.538250
vt 0.177926 0.538250
vt 0.178223 0.538250
vt 0.177926 0.538250
vt 0.177629 0.538250
vt 0.180896 0.538250
vt 0.180599 0.538250
vt 0.177629 0.538250
vt 0.178223 0.538250
vt 0.179807 0.538250
vt 0.175254 0.538250
vt 0.174957 0.538250
vt 0.176837 0.538250
vt 0.174957 0.538250
vt 0.175254 0.538250
vt 0.176837 0.538250
vt 0.180599 0.538250
vt 0.180896 0.538250
vt 0.179015 0.538250
vt 0.179807 0.538250
vt 0.176045 0.538250
vt 0.179015 0.538250
vt 0.176045 0.538250
vn 0.5000 0.0000 0.8660
vn 0.6218 0.7188 0.3110
vn 0.6124 0.7071 0.3536
vn 0.6265 0.7246 0.2872
vn 0.5000 0.0000 -0.8660
vn -0.5000 0.0000 0.8660
vn -0.8660 0.0000 -0.5000
vn -0.9025 0.0012 -0.4306
vn -0.9019 0.0011 -0.4319
vn 0.8660 0.0000 0.5000
vn 0.9025 0.0012 0.4306
vn 0.9019 0.0011 0.4319
vn 0.5385 0.6952 0.4760
vn 0.5697 0.7018 0.4277
vn -0.5000 0.0000 -0.8660
vn -0.7925 0.0022 -0.6099
vn -0.7942 0.0022 -0.6077
vn -0.8660 0.0000 0.5000
vn -0.7925 0.0022 0.6099
vn -0.7942 0.0022 0.6077
vn -1.0000 0.0000 0.0000
vn 0.7925 0.0022 0.6099
vn 0.7942 0.0022 0.6077
vn -0.6124 0.7071 0.3536
vn -0.6218 0.7188 0.3110
vn -0.6265 0.7246 0.2872
vn 1.0000 0.0000 -0.0000
vn 0.6124 0.7071 -0.3536
vn 0.5697 0.7018 -0.4277
vn 0.5385 0.6952 -0.4760
vn 0.9025 0.0012 -0.4306
vn 0.8660 0.0000 -0.5000
vn 0.9019 0.0011 -0.4319
vn 0.3536 0.7071 -0.6124
vn -0.3536 0.7071 0.6124
vn 0.3536 0.7071 0.6124
vn -0.3536 0.7071 -0.6124
vn -0.7071 0.7071 0.0000
vn 0.7071 0.7071 -0.0000
vn 0.0000 1.0000 0.0000
vn -0.6124 0.7071 -0.3536
vn -0.6265 0.7246 -0.2872
vn -0.6218 0.7188 -0.3110
vn -0.5697 0.7018 -0.4277
vn -0.5385 0.6952 -0.4760
vn -0.5385 0.6952 0.4760
vn -0.5697 0.7018 0.4277
vn 0.6265 0.7246 -0.2872
vn 0.6218 0.7188 -0.3110
vn 0.6460 0.7486 0.1495
vn 0.6439 0.7460 0.1698
vn 0.6530 0.7574 -0.0000
vn 0.6460 0.7486 -0.1495
vn 0.6439 0.7460 -0.1698
vn -0.6460 0.7486 -0.1495
vn -0.6439 0.7460 -0.1698
vn -0.6530 0.7574 0.0000
vn -0.6460 0.7486 0.1495
vn -0.6439 0.7460 0.1698
vn -0.9712 0.0034 -0.2383
vn -0.9709 0.0033 -0.2396
vn -1.0000 0.0044 0.0000
vn -0.9712 0.0033 0.2383
vn -0.9709 0.0033 0.2396
vn -0.9025 0.0012 0.4306
vn -0.9019 0.0011 0.4319
vn 0.9709 0.0033 -0.2396
vn 0.9712 0.0034 -0.2383
vn 1.0000 0.0044 -0.0000
vn 0.9709 0.0033 0.2396
vn 0.9712 0.0034 0.2383
vn 0.2746 0.7276 0.6286
vn 0.2551 0.7285 0.6358
vn -0.2746 0.7276 0.6286
vn -0.2551 0.7285 0.6358
vn -0.2746 0.7276 -0.6286
vn -0.2551 0.7285 -0.6358
vn 0.2746 0.7276 -0.6286
vn 0.2551 0.7285 -0.6358
vn -0.7071 0.0043 0.7071
vn -0.0000 0.0092 1.0000
vn 0.7071 0.0043 0.7071
vn 0.7942 0.0022 -0.6077
vn 0.7925 0.0022 -0.6099
vn 0.7071 0.0043 -0.7071
vn 0.0000 0.0092 -1.0000
vn -0.7071 0.0043 -0.7071
vn 0.0000 -1.0000 0.0000
usemtl hexagons_medieval
s 1
f 121/1/1 125/2/1 1/3/1
f 44/4/2 26/5/3 25/6/3 49/7/4
f 118/8/5 119/9/5 5/10/5
f 127/11/6 128/12/6 2/13/6
f 4/14/7 35/15/8 59/16/9 33/17/7
f 2/18/10 40/19/11 49/20/12 25/21/10
f 7/22/13 71/23/14 8/24/3
f 83/25/15 131/26/15 130/27/15 28/28/15 30/29/15
f 64/30/16 3/31/7 12/32/7 77/33/17
f 84/34/18 67/35/19 70/36/20 19/37/18
f 130/27/21 127/11/21 24/38/21 28/28/21
f 133/39/5 134/40/5 4/41/5
f 66/42/22 5/43/10 8/44/10 71/45/23
f 119/9/15 124/46/15 84/47/15
f 82/48/1 122/49/1 123/50/1
f 15/51/24 55/52/25 60/53/26 16/54/24
f 123/50/27 133/39/27 32/55/27 17/56/27
f 21/57/28 76/58/29 22/59/30
f 93/60/6 95/61/6 139/62/6 129/63/6
f 39/64/31 83/65/32 30/66/32 50/67/33
f 90/68/5 4/69/5 134/70/5 136/71/5
f 92/72/1 1/73/1 125/74/1 138/75/1
f 9/76/15 119/9/15 84/47/15 19/77/15
f 12/78/6 3/79/6 121/1/6 13/80/6
f 95/61/6 2/81/6 128/82/6 139/62/6
f 3/79/6 120/83/6 121/1/6
f 13/80/1 121/1/1 1/3/1 21/84/1
f 16/85/1 82/48/1 123/50/1 17/56/1
f 89/86/15 84/87/15 124/88/15 132/89/15
f 32/55/5 133/39/5 4/41/5 33/90/5
f 24/38/6 127/11/6 2/13/6 25/91/6
f 8/24/34 9/92/34 10/93/34 7/22/34
f 12/94/35 13/95/35 14/96/35 11/97/35
f 16/54/36 17/98/36 18/99/36 15/51/36
f 20/100/37 10/93/37 9/92/37 19/101/37
f 13/95/36 21/57/36 22/59/36 14/96/36
f 24/102/35 25/6/35 26/5/35 23/103/35
f 28/104/38 24/102/38 23/103/38 27/105/38
f 27/105/37 29/106/37 30/107/37 28/104/37
f 32/108/34 33/109/34 34/110/34 31/111/34
f 17/98/39 32/108/39 31/111/39 18/99/39
f 27/112/40 45/113/40 29/114/40
f 75/115/40 7/116/40 10/117/40
f 33/109/41 59/118/42 54/119/43 34/110/41
f 77/120/44 12/94/41 11/97/45
f 31/121/40 34/122/40 54/123/40
f 14/124/40 22/125/40 80/126/40
f 20/100/46 19/101/24 70/127/47
f 50/128/48 30/107/28 29/106/28 45/129/49
f 3/130/6 93/60/6 129/63/6 120/131/6
f 94/132/1 92/72/1 138/75/1 126/133/1
f 44/4/2 49/7/4 51/134/50 46/135/51
f 46/135/51 51/134/50 52/136/52 47/137/52
f 47/137/52 52/136/52 53/138/53 48/139/54
f 48/139/54 53/138/53 50/128/48 45/129/49
f 54/119/43 59/118/42 61/140/55 56/141/56
f 56/141/56 61/140/55 62/142/57 57/143/57
f 57/143/57 62/142/57 63/144/58 58/145/59
f 58/145/59 63/144/58 60/53/26 55/52/25
f 59/16/9 35/15/8 38/146/60 61/147/61
f 61/147/61 38/146/60 37/148/62 62/149/62
f 62/149/62 37/148/62 36/150/63 63/151/64
f 63/151/64 36/150/63 85/152/65 60/153/66
f 39/64/31 50/67/33 53/154/67 41/155/68
f 41/155/68 53/154/67 52/156/69 42/157/69
f 42/157/69 52/156/69 51/158/70 43/159/71
f 43/159/71 51/158/70 49/20/12 40/19/11
f 85/152/65 82/160/18 16/161/18 60/153/66
f 82/162/1 94/132/1 126/133/1 122/163/1
f 91/164/5 90/68/5 136/71/5 135/165/5
f 71/23/14 7/22/13 75/166/72 73/167/73
f 73/167/73 75/166/72 74/168/74 72/169/75
f 72/169/75 74/168/74 20/100/46 70/127/47
f 77/120/44 11/97/45 81/170/76 79/171/77
f 79/171/77 81/170/76 80/172/78 78/173/79
f 78/173/79 80/172/78 22/59/30 76/58/29
f 70/36/20 67/35/19 69/174/80 72/175/80
f 72/175/81 69/174/81 68/176/81 73/177/81
f 73/177/82 68/176/82 66/42/22 71/45/23
f 76/178/83 86/179/84 65/180/85 78/181/85
f 78/181/86 65/180/86 87/182/86 79/183/86
f 79/183/87 87/182/87 64/30/16 77/33/17
f 1/184/32 86/179/84 76/178/83 21/185/32
f 11/186/40 14/124/40 81/187/40
f 81/187/40 14/124/40 80/126/40
f 20/188/40 74/189/40 10/117/40
f 74/189/40 75/115/40 10/117/40
f 15/190/40 18/191/40 55/192/40
f 55/192/40 18/191/40 58/193/40
f 58/193/40 18/191/40 57/194/40
f 18/191/40 31/121/40 57/194/40
f 57/194/40 31/121/40 56/195/40
f 56/195/40 31/121/40 54/123/40
f 26/196/40 44/197/40 23/198/40
f 27/112/40 48/199/40 45/113/40
f 27/112/40 47/200/40 48/199/40
f 23/198/40 47/200/40 27/112/40
f 46/201/40 47/200/40 23/198/40
f 44/197/40 46/201/40 23/198/40
f 5/202/5 91/164/5 135/165/5 118/203/5
f 88/204/15 89/86/15 132/89/15 137/205/15
f 83/206/15 88/204/15 137/205/15 131/207/15
f 109/208/40 107/209/40 69/210/40 67/211/40
f 110/212/40 35/213/40 4/214/40 90/215/40
f 89/216/40 109/208/40 67/211/40 84/217/40
f 96/218/40 65/219/40 86/220/40 100/221/40
f 104/222/40 38/223/40 35/213/40 110/212/40
f 116/224/40 117/225/40 36/226/40 37/227/40
f 98/228/40 43/229/40 40/230/40 102/231/40
f 102/231/40 40/230/40 2/232/40 95/233/40
f 100/221/40 86/220/40 1/234/40 92/235/40
f 96/218/40 99/236/40 87/237/40 65/219/40
f 115/238/40 116/224/40 37/227/40 38/223/40
f 106/239/40 41/240/40 112/241/40
f 114/242/40 43/229/40 98/228/40
f 97/243/40 98/228/40 99/236/40 96/218/40
f 85/244/40 101/245/40 94/246/40 82/247/40
f 101/245/40 100/221/40 92/235/40 94/246/40
f 64/248/40 103/249/40 93/250/40 3/251/40
f 103/249/40 102/231/40 95/233/40 93/250/40
f 87/237/40 99/236/40 103/249/40 64/248/40
f 99/236/40 98/228/40 102/231/40 103/249/40
f 36/226/40 97/243/40 101/245/40 85/244/40
f 97/243/40 96/218/40 100/221/40 101/245/40
f 69/210/40 107/209/40 105/252/40 68/253/40
f 107/209/40 106/239/40 104/222/40 105/252/40
f 68/253/40 105/252/40 111/254/40 66/255/40
f 105/252/40 104/222/40 110/212/40 111/254/40
f 83/256/40 39/257/40 108/258/40 88/259/40
f 88/259/40 108/258/40 109/208/40 89/216/40
f 66/255/40 111/254/40 91/260/40 5/261/40
f 111/254/40 110/212/40 90/215/40 91/260/40
f 39/257/40 41/240/40 106/239/40 108/258/40
f 108/258/40 106/239/40 107/209/40 109/208/40
f 42/262/40 43/229/40 114/242/40 113/263/40
f 41/240/40 42/262/40 113/263/40 112/241/40
f 104/222/40 106/239/40 112/241/40 115/238/40
f 117/225/40 114/242/40 98/228/40 97/243/40
f 113/263/40 114/242/40 117/225/40 116/224/40
f 112/241/40 113/263/40 116/224/40 115/238/40
f 38/223/40 104/222/40 115/238/40
f 36/226/40 117/225/40 97/243/40
f 119/9/5 9/76/5 8/264/5 5/10/5
f 6/265/88 119/266/88 118/267/88
f 6/265/88 121/268/88 120/269/88
f 6/265/88 123/270/88 122/271/88
f 6/265/88 124/272/88 119/266/88
f 6/265/88 125/273/88 121/268/88
f 6/265/88 122/271/88 126/274/88
f 6/265/88 128/275/88 127/276/88
f 6/265/88 120/269/88 129/277/88
f 6/265/88 127/276/88 130/278/88
f 6/265/88 130/278/88 131/279/88
f 6/265/88 132/280/88 124/272/88
f 6/265/88 134/281/88 133/282/88
f 6/265/88 118/267/88 135/283/88
f 6/265/88 133/282/88 123/270/88
f 6/265/88 135/283/88 136/284/88
f 6/265/88 136/284/88 134/281/88
f 6/265/88 137/285/88 132/280/88
f 6/265/88 131/279/88 137/285/88
f 6/265/88 138/286/88 125/273/88
f 6/265/88 126/274/88 138/286/88
f 6/265/88 139/287/88 128/275/88
f 6/265/88 129/277/88 139/287/88
