# Blender v3.4.1 OBJ File: 'Medieval_Hexagons_Export_1.0_WorldOrigin.blend'
# www.blender.org
mtllib hex_river_J.mtl
o hex_river_J
v -1.000000 -0.100000 -0.461880
v -1.000000 -0.100000 0.461880
v 1.000000 -0.100000 -0.461880
v 1.000000 -0.100000 0.461880
v 0.100000 -0.100000 1.096965
v 0.900000 -0.100000 0.635085
v -0.900000 -0.100000 0.635085
v -0.100000 -0.100000 1.096965
v -0.000000 -1.000000 0.000000
v 0.900000 -0.050000 0.635085
v 1.000000 -0.050000 0.577350
v 0.950000 0.000000 0.548483
v -0.100000 -0.050000 1.096965
v -0.000000 -0.050000 1.154700
v -0.000000 0.000000 1.096965
v -1.000000 -0.050000 0.461880
v -1.000000 -0.050000 0.577350
v -0.950000 0.000000 0.548482
v 1.000000 -0.050000 0.461880
v 0.950000 0.000000 0.511880
v -0.950000 0.000000 -0.548482
v -1.000000 -0.050000 -0.577350
v -1.000000 -0.050000 -0.461880
v -0.950000 0.000000 -0.511880
v 0.000000 0.000000 -1.096965
v 0.000000 -0.050000 -1.154700
v 0.950000 0.000000 -0.548482
v 1.000000 -0.050000 -0.577350
v 0.950000 0.000000 -0.511880
v 1.000000 -0.050000 -0.461880
v 0.100000 -0.050000 1.096965
v -0.900000 -0.050000 0.635085
v -0.918301 0.000000 0.566784
v 0.876328 -0.100000 0.594084
v 0.952656 -0.100000 0.461880
v 0.858616 -0.100000 0.527982
v 0.886554 -0.100000 0.479592
v -0.076328 -0.100000 1.055964
v 0.076328 -0.100000 1.055964
v -0.027938 -0.100000 1.007574
v 0.027938 -0.100000 1.007574
v -0.952656 -0.100000 0.461880
v -0.876328 -0.100000 0.594084
v -0.886554 -0.100000 0.479592
v -0.858616 -0.100000 0.527982
v 0.953496 -0.050000 0.461880
v 0.876748 -0.050000 0.594812
v 0.887030 -0.050000 0.479690
v 0.858939 -0.050000 0.528346
v 0.918301 0.000000 0.566784
v 0.922548 0.000000 0.519236
v 0.910946 0.000000 0.539332
v 0.076748 -0.050000 1.056692
v -0.076748 -0.050000 1.056692
v 0.028092 -0.050000 1.008035
v -0.028092 -0.050000 1.008035
v 0.031699 0.000000 1.078664
v -0.031699 0.000000 1.078664
v 0.011602 0.000000 1.058568
v -0.011603 0.000000 1.058568
v -0.950000 0.000000 0.511880
v -0.910946 0.000000 0.539332
v -0.922548 0.000000 0.519236
v -0.876748 -0.050000 0.594812
v -0.953496 -0.050000 0.461880
v -0.858939 -0.050000 0.528346
v -0.887030 -0.050000 0.479689
v 0.000000 -0.100000 -0.461880
v 0.000000 -0.050000 -0.461880
v 0.000000 0.000000 -0.511880
v -1.000000 -0.100000 -0.153960
v -1.000000 -0.100000 0.153960
v 1.000000 -0.100000 -0.153960
v 1.000000 -0.100000 0.153960
v 0.366667 -0.100000 0.943005
v 0.633333 -0.100000 0.789045
v -0.633333 -0.100000 0.789045
v -0.366667 -0.100000 0.943005
v 0.551480 -0.100000 0.653179
v 0.841411 -0.100000 0.151004
v 0.510484 -0.100000 0.380619
v 0.584869 -0.100000 0.251781
v -0.289931 -0.100000 0.804182
v 0.289931 -0.100000 0.804182
v -0.074385 -0.100000 0.632398
v 0.074384 -0.100000 0.632398
v -0.841411 -0.100000 0.151003
v -0.551481 -0.100000 0.653179
v -0.584869 -0.100000 0.251780
v -0.510484 -0.100000 0.380618
v 0.000000 -0.100000 -0.161880
v 0.728477 -0.100000 0.174827
v 0.515644 -0.100000 0.543464
v 0.212832 -0.100000 0.718291
v -0.212833 -0.100000 0.718291
v -0.515645 -0.100000 0.543463
v -0.728477 -0.100000 0.174827
v 0.900000 -1.000000 0.635085
v 1.000000 -1.000000 0.577350
v -0.100000 -1.000000 1.096965
v -0.000000 -1.000000 1.154700
v -1.000000 -1.000000 0.461880
v -1.000000 -1.000000 0.577350
v 1.000000 -1.000000 0.461880
v -1.000000 -1.000000 -0.577350
v -1.000000 -1.000000 -0.461880
v -1.000000 -1.000000 0.153960
v 0.000000 -1.000000 -1.154700
v 1.000000 -1.000000 -0.577350
v 1.000000 -1.000000 -0.461880
v 1.000000 -1.000000 0.153960
v 0.100000 -1.000000 1.096965
v 0.633333 -1.000000 0.789045
v -0.900000 -1.000000 0.635085
v -0.366667 -1.000000 0.943005
v 1.000000 -1.000000 -0.153960
v 0.366667 -1.000000 0.943005
v -0.633333 -1.000000 0.789045
v -1.000000 -1.000000 -0.153960
vt 0.052180 0.383213
vt 0.052072 0.383213
vt 0.052074 0.387907
vt 0.052180 0.387907
vt 0.055701 0.383213
vt 0.055808 0.383213
vt 0.055808 0.387907
vt 0.055703 0.387907
vt 0.047190 0.356657
vt 0.047190 0.351963
vt 0.047190 0.298735
vt 0.047190 0.356657
vt 0.051726 0.383213
vt 0.056262 0.383213
vt 0.056262 0.387907
vt 0.051726 0.387907
vt 0.056262 0.383213
vt 0.056047 0.383213
vt 0.056051 0.387907
vt 0.056262 0.387907
vt 0.047405 0.383213
vt 0.047190 0.383213
vt 0.047190 0.387907
vt 0.047401 0.387907
vt 0.056262 0.298735
vt 0.051726 0.298735
vt 0.051726 0.356657
vt 0.056262 0.356657
vt 0.047644 0.383213
vt 0.047751 0.383213
vt 0.047749 0.387907
vt 0.047644 0.387907
vt 0.047190 0.298735
vt 0.047190 0.356657
vt 0.083259 0.423850
vt 0.087568 0.423850
vt 0.087568 0.423850
vt 0.083259 0.423850
vt 0.051726 0.298735
vt 0.052180 0.298735
vt 0.052180 0.351963
vt 0.067946 0.403532
vt 0.067841 0.403532
vt 0.067636 0.408225
vt 0.047190 0.298735
vt 0.047190 0.351963
vt 0.051380 0.383213
vt 0.051272 0.383213
vt 0.051272 0.387907
vt 0.051378 0.387907
vt 0.063183 0.408225
vt 0.063167 0.403532
vt 0.062957 0.403532
vt 0.071658 0.408225
vt 0.071469 0.403532
vt 0.071575 0.403532
vt 0.056262 0.351963
vt 0.056262 0.298735
vt 0.056262 0.298735
vt 0.056262 0.298735
vt 0.056262 0.351963
vt 0.047190 0.298735
vt 0.047644 0.298735
vt 0.047644 0.351963
vt 0.051272 0.351963
vt 0.051272 0.298735
vt 0.212589 0.601963
vt 0.212589 0.695713
vt 0.212589 0.611235
vt 0.212589 0.517485
vt 0.208046 0.601963
vt 0.206133 0.695713
vt 0.206133 0.611235
vt 0.208046 0.517485
vt 0.047644 0.356657
vt 0.198244 0.601963
vt 0.198244 0.695713
vt 0.198244 0.611235
vt 0.198244 0.517485
vt 0.200874 0.601963
vt 0.198961 0.695713
vt 0.198961 0.611235
vt 0.200874 0.517485
vt 0.072028 0.403532
vt 0.071802 0.408225
vt 0.067039 0.403532
vt 0.067492 0.403532
vt 0.067492 0.408225
vt 0.067349 0.408225
vt 0.062957 0.403532
vt 0.063183 0.408225
vt 0.071802 0.408225
vt 0.072028 0.403532
vt 0.062957 0.403532
vt 0.062957 0.403532
vt 0.063183 0.408225
vt 0.063183 0.408225
vt 0.067492 0.403532
vt 0.067492 0.408225
vt 0.072028 0.403532
vt 0.071802 0.408225
vt 0.071802 0.408225
vt 0.072028 0.403532
vt 0.063410 0.403532
vt 0.063327 0.408225
vt 0.087568 0.423850
vt 0.087391 0.423850
vt 0.087424 0.423850
vt 0.071817 0.403532
vt 0.067144 0.403532
vt 0.067492 0.403532
vt 0.067492 0.408225
vt 0.083259 0.423850
vt 0.083206 0.423850
vt 0.083115 0.423850
vt 0.063516 0.403532
vt 0.078950 0.423850
vt 0.079094 0.423850
vt 0.079127 0.423850
vt 0.071624 0.408225
vt 0.071388 0.403532
vt 0.071677 0.408225
vt 0.071516 0.403532
vt 0.067440 0.408225
vt 0.067365 0.403532
vt 0.067545 0.408225
vt 0.067620 0.403532
vt 0.063596 0.403532
vt 0.063360 0.408225
vt 0.063469 0.403532
vt 0.063308 0.408225
vt 0.055747 0.383213
vt 0.055749 0.387907
vt 0.055620 0.383213
vt 0.055622 0.387907
vt 0.051853 0.383213
vt 0.051853 0.387907
vt 0.051599 0.383213
vt 0.051599 0.387907
vt 0.047831 0.383213
vt 0.047830 0.387907
vt 0.047705 0.383213
vt 0.047702 0.387907
vt 0.078950 0.423850
vt 0.079074 0.423850
vt 0.083312 0.423850
vt 0.083403 0.423850
vt 0.087444 0.423850
vt 0.087568 0.423850
vt 0.198244 0.601963
vt 0.198244 0.517485
vt 0.198244 0.695713
vt 0.198244 0.611235
vt 0.047190 0.383213
vt 0.047190 0.387907
vt 0.078950 0.423850
vt 0.078950 0.423850
vt 0.202786 0.601963
vt 0.202786 0.517485
vt 0.204699 0.695713
vt 0.204699 0.611235
vt 0.212589 0.601963
vt 0.212589 0.517485
vt 0.212589 0.695713
vt 0.212589 0.611235
vt 0.209959 0.601963
vt 0.209959 0.517485
vt 0.211871 0.695713
vt 0.211871 0.611235
vt 0.165940 0.633213
vt 0.164064 0.633213
vt 0.163477 0.633213
vt 0.165389 0.633213
vt 0.172562 0.633213
vt 0.171975 0.633213
vt 0.170099 0.633213
vt 0.170649 0.633213
vt 0.166493 0.633213
vt 0.164321 0.633213
vt 0.161984 0.633213
vt 0.160847 0.633213
vt 0.160847 0.633213
vt 0.171718 0.633213
vt 0.171681 0.633213
vt 0.168553 0.633213
vt 0.169546 0.633213
vt 0.162794 0.633213
vt 0.174054 0.633213
vt 0.175192 0.633213
vt 0.175192 0.633213
vt 0.173244 0.633213
vt 0.167486 0.633213
vt 0.164358 0.633213
vt 0.172214 0.633213
vt 0.168019 0.633213
vt 0.163824 0.633213
vt 0.167472 0.726963
vt 0.167302 0.726963
vt 0.168737 0.726963
vt 0.168567 0.726963
vt 0.174305 0.726963
vt 0.174475 0.726963
vt 0.161564 0.726963
vt 0.161734 0.726963
vt 0.161186 0.726963
vt 0.160847 0.726963
vt 0.175192 0.726963
vt 0.174852 0.726963
vt 0.174378 0.726963
vt 0.174178 0.726963
vt 0.168220 0.726963
vt 0.167819 0.726963
vt 0.161861 0.726963
vt 0.161661 0.726963
vt 0.168019 0.726963
vt 0.160847 0.726963
vt 0.175192 0.726963
vt 0.056262 0.356657
vt 0.055808 0.356657
vt 0.055808 0.351963
vt 0.047190 0.356657
vt 0.056262 0.356657
vt 0.056262 0.356657
vt 0.055808 0.298735
vt 0.051726 0.356657
vt 0.052180 0.356657
vt 0.051272 0.356657
vt 0.186835 0.538250
vt 0.189805 0.538250
vt 0.189508 0.538250
vt 0.186835 0.538250
vt 0.186538 0.538250
vt 0.183866 0.538250
vt 0.183866 0.538250
vt 0.189805 0.538250
vt 0.183866 0.538250
vt 0.183866 0.538250
vt 0.183866 0.538250
vt 0.186835 0.538250
vt 0.189805 0.538250
vt 0.189805 0.538250
vt 0.189805 0.538250
vt 0.187132 0.538250
vt 0.188716 0.538250
vt 0.184163 0.538250
vt 0.185746 0.538250
vt 0.189805 0.538250
vt 0.187924 0.538250
vt 0.184954 0.538250
vt 0.183866 0.538250
vn 0.8660 -0.0000 -0.5000
vn 0.7925 0.0022 -0.6099
vn 0.7942 0.0022 -0.6077
vn -0.9244 0.0022 0.3814
vn -0.8660 0.0000 0.5000
vn -0.9233 0.0022 0.3840
vn -1.0000 0.0000 0.0000
vn 0.0000 0.0000 1.0000
vn 0.0000 0.0000 -1.0000
vn -0.1319 0.0022 -0.9913
vn -0.1292 0.0022 -0.9916
vn 0.1319 0.0022 -0.9913
vn 0.1292 0.0022 -0.9916
vn 0.5000 0.0000 -0.8660
vn 0.8660 0.0000 0.5000
vn 0.9244 0.0022 0.3814
vn 0.9233 0.0022 0.3840
vn -0.5000 0.0000 -0.8660
vn 0.0000 1.0000 0.0000
vn 0.5000 0.0000 0.8660
vn 0.6124 0.7071 -0.3536
vn 0.5700 0.7015 -0.4277
vn 0.5386 0.6948 -0.4766
vn -0.7925 0.0022 -0.6099
vn -0.8660 0.0000 -0.5000
vn -0.7942 0.0022 -0.6077
vn 0.1434 0.6948 -0.7048
vn 0.0853 0.7015 -0.7075
vn 0.0000 0.7071 -0.7071
vn -0.6821 0.6948 0.2282
vn -0.6554 0.7015 0.2798
vn -0.6124 0.7071 0.3536
vn 1.0000 0.0000 0.0000
vn -0.5000 0.0000 0.8660
vn 0.3536 0.7071 0.6124
vn -0.3536 0.7071 0.6124
vn -0.7071 0.7071 0.0000
vn 0.7071 0.7071 0.0000
vn -0.3536 0.7071 -0.6124
vn 0.3536 0.7071 -0.6124
vn -0.1434 0.6948 -0.7048
vn -0.0853 0.7015 -0.7075
vn -0.5386 0.6948 -0.4766
vn -0.5700 0.7015 -0.4277
vn -0.6124 0.7071 -0.3536
vn 0.0000 0.7071 0.7071
vn 0.6124 0.7071 0.3536
vn 0.6554 0.7015 0.2798
vn 0.6821 0.6948 0.2282
vn -0.6825 0.7268 -0.0770
vn -0.6791 0.7276 -0.0969
vn -0.4079 0.7268 -0.5526
vn -0.4235 0.7276 -0.5396
vn -0.2746 0.7268 -0.6296
vn -0.2556 0.7276 -0.6366
vn 0.2746 0.7268 -0.6296
vn 0.2556 0.7276 -0.6366
vn 0.6791 0.7276 -0.0969
vn 0.6825 0.7268 -0.0770
vn 0.4235 0.7276 -0.5396
vn 0.4079 0.7268 -0.5526
vn -0.2588 0.0044 -0.9659
vn -0.8660 0.0092 -0.5000
vn -0.9659 0.0044 0.2588
vn 0.7071 0.0044 -0.7071
vn -0.0000 0.0092 -1.0000
vn -0.7071 0.0044 -0.7071
vn 0.9659 0.0044 0.2588
vn 0.8660 0.0092 -0.5000
vn 0.2588 0.0044 -0.9659
vn 0.0000 -1.0000 0.0000
usemtl hexagons_medieval
s 1
f 5/1/1 39/2/2 53/3/3 31/4/1
f 34/5/4 6/6/5 10/7/5 47/8/6
f 16/9/7 2/10/7 103/11/7 17/12/7
f 68/13/8 3/14/8 30/15/8 69/16/8
f 4/17/9 35/18/10 46/19/11 19/20/9
f 42/21/12 2/22/9 16/23/9 65/24/13
f 109/25/14 108/26/14 26/27/14 28/28/14
f 7/29/15 43/30/16 64/31/17 32/32/15
f 108/26/18 105/33/18 22/34/18 26/27/18
f 70/35/19 29/36/19 27/37/19 25/38/19
f 101/39/20 112/40/20 5/41/20
f 31/42/21 53/43/22 57/44/23
f 105/33/7 106/45/7 1/46/7
f 38/47/24 8/48/25 13/49/25 54/50/26
f 61/51/27 65/52/28 16/53/29
f 50/54/30 47/55/31 10/56/32
f 3/57/33 110/58/33 109/25/33
f 99/59/33 104/60/33 4/61/33
f 2/10/7 102/62/7 103/11/7
f 103/11/34 114/63/34 7/64/34
f 8/65/34 100/66/34 101/39/34
f 74/67/33 4/68/33 104/69/33 111/70/33
f 75/71/20 5/72/20 112/73/20 117/74/20
f 17/12/34 103/11/34 7/64/34 32/75/34
f 71/76/7 1/77/7 106/78/7 119/79/7
f 77/80/34 7/81/34 114/82/34 118/83/34
f 10/56/35 11/84/35 12/85/35 50/54/35
f 13/86/36 14/87/36 15/88/36 58/89/36
f 16/53/37 17/90/37 18/91/37 61/51/37
f 20/92/38 12/85/38 11/84/38 19/93/38
f 22/94/37 23/95/37 24/96/37 21/97/37
f 26/98/39 22/94/39 21/97/39 25/99/39
f 28/100/40 26/98/40 25/99/40 27/101/40
f 27/101/38 29/102/38 30/103/38 28/100/38
f 14/87/35 31/42/35 57/44/35 15/88/35
f 17/90/36 32/104/36 33/105/36 18/91/36
f 12/106/19 52/107/19 50/108/19
f 20/92/41 19/93/29 46/109/42
f 58/89/43 54/110/44 13/86/45
f 69/111/46 30/103/46 29/102/46 70/112/46
f 15/113/19 60/114/19 58/115/19
f 32/104/47 64/116/48 33/105/49
f 18/117/19 33/118/19 62/119/19
f 47/55/31 50/54/30 52/120/50 49/121/51
f 49/121/51 52/120/50 51/122/52 48/123/53
f 48/123/53 51/122/52 20/92/41 46/109/42
f 54/110/44 58/89/43 60/124/54 56/125/55
f 56/125/55 60/124/54 59/126/56 55/127/57
f 55/127/57 59/126/56 57/44/23 53/43/22
f 33/105/49 64/116/48 66/128/58 62/129/59
f 62/129/59 66/128/58 67/130/60 63/131/61
f 63/131/61 67/130/60 65/52/28 61/51/27
f 46/19/11 35/18/10 37/132/62 48/133/62
f 48/133/63 37/132/63 36/134/63 49/135/63
f 49/135/64 36/134/64 34/5/4 47/8/6
f 53/3/3 39/2/2 41/136/65 55/137/65
f 55/137/66 41/136/66 40/138/66 56/139/66
f 56/139/67 40/138/67 38/47/24 54/50/26
f 64/31/17 43/30/16 45/140/68 66/141/68
f 66/141/69 45/140/69 44/142/69 67/143/69
f 67/143/70 44/142/70 42/21/12 65/24/13
f 61/144/19 18/117/19 63/145/19
f 63/145/19 18/117/19 62/119/19
f 59/146/19 60/114/19 15/113/19
f 57/147/19 59/146/19 15/113/19
f 51/148/19 52/107/19 12/106/19
f 20/149/19 51/148/19 12/106/19
f 72/150/7 71/76/7 119/79/7 107/151/7
f 2/152/7 72/150/7 107/151/7 102/153/7
f 23/95/46 69/111/46 70/112/46 24/96/46
f 1/154/8 68/13/8 69/16/8 23/155/8
f 24/156/19 70/35/19 25/38/19 21/157/19
f 78/158/34 77/80/34 118/83/34 115/159/34
f 8/160/34 78/158/34 115/159/34 100/161/34
f 73/162/33 74/67/33 111/70/33 116/163/33
f 3/164/33 73/162/33 116/163/33 110/165/33
f 76/166/20 75/71/20 117/74/20 113/167/20
f 6/168/20 76/166/20 113/167/20 98/169/20
f 83/170/19 88/171/19 77/172/19 78/173/19
f 76/174/19 79/175/19 84/176/19 75/177/19
f 95/178/19 96/179/19 88/171/19 83/170/19
f 87/180/19 71/181/19 72/182/19
f 93/183/19 81/184/19 86/185/19 94/186/19
f 97/187/19 71/181/19 87/180/19
f 80/188/19 74/189/19 73/190/19
f 92/191/19 80/188/19 73/190/19
f 79/175/19 93/183/19 94/186/19 84/176/19
f 85/192/19 90/193/19 96/179/19 95/178/19
f 81/184/19 82/194/19 91/195/19 89/196/19 90/193/19
f 38/197/19 83/170/19 78/173/19 8/198/19
f 5/199/19 75/177/19 84/176/19 39/200/19
f 34/201/19 79/175/19 76/174/19 6/202/19
f 7/203/19 77/172/19 88/171/19 43/204/19
f 42/205/19 87/180/19 72/182/19 2/206/19
f 4/207/19 74/189/19 80/188/19 35/208/19
f 37/209/19 35/208/19 80/188/19 92/191/19
f 34/201/19 36/210/19 93/183/19 79/175/19
f 41/211/19 39/200/19 84/176/19 94/186/19
f 38/197/19 40/212/19 95/178/19 83/170/19
f 45/213/19 43/204/19 88/171/19 96/179/19
f 42/205/19 44/214/19 97/187/19 87/180/19
f 45/213/19 96/179/19 90/193/19
f 37/209/19 92/191/19 82/194/19
f 86/185/19 81/184/19 90/193/19 85/192/19
f 82/194/19 92/191/19 73/190/19 91/195/19
f 89/196/19 91/195/19 71/181/19 97/187/19
f 68/215/19 1/216/19 71/181/19 91/195/19
f 3/217/19 68/215/19 91/195/19 73/190/19
f 41/211/19 94/186/19 86/185/19
f 93/183/19 36/210/19 81/184/19
f 36/210/19 37/209/19 82/194/19 81/184/19
f 40/212/19 41/211/19 86/185/19 85/192/19
f 95/178/19 40/212/19 85/192/19
f 44/214/19 45/213/19 90/193/19 89/196/19
f 97/187/19 44/214/19 89/196/19
f 99/59/20 11/218/20 10/219/20 6/220/20
f 22/34/7 105/33/7 1/46/7 23/221/7
f 30/222/33 3/57/33 109/25/33 28/28/33
f 11/218/33 99/59/33 4/61/33 19/223/33
f 98/224/20 99/59/20 6/220/20
f 14/225/20 101/39/20 5/41/20 31/226/20
f 13/227/34 8/65/34 101/39/34 14/225/34
f 9/228/71 99/229/71 98/230/71
f 9/228/71 101/231/71 100/232/71
f 9/228/71 103/233/71 102/234/71
f 9/228/71 104/235/71 99/229/71
f 9/228/71 106/236/71 105/237/71
f 9/228/71 102/234/71 107/238/71
f 9/228/71 105/237/71 108/239/71
f 9/228/71 108/239/71 109/240/71
f 9/228/71 109/240/71 110/241/71
f 9/228/71 111/242/71 104/235/71
f 9/228/71 112/243/71 101/231/71
f 9/228/71 98/230/71 113/244/71
f 9/228/71 114/245/71 103/233/71
f 9/228/71 100/232/71 115/246/71
f 9/228/71 116/247/71 111/242/71
f 9/228/71 110/241/71 116/247/71
f 9/228/71 113/244/71 117/248/71
f 9/228/71 117/248/71 112/243/71
f 9/228/71 118/249/71 114/245/71
f 9/228/71 115/246/71 118/249/71
f 9/228/71 119/250/71 106/236/71
f 9/228/71 107/238/71 119/250/71
