# Blender v3.4.1 OBJ File: 'Medieval_Hexagons_Export_1.0_WorldOrigin.blend'
# www.blender.org
mtllib hex_road_D.mtl
o hex_road_D
v 0.333333 -0.050000 0.962250
v 0.666667 -0.050000 0.769800
v -1.000000 -0.050000 -0.192450
v -1.000000 -0.050000 0.192450
v 0.666667 -0.050000 -0.769800
v 0.333333 -0.050000 -0.962250
v -0.000000 -1.000000 0.000000
v 0.265032 0.000000 -0.943949
v -0.000000 -0.050000 -1.154700
v -0.000000 0.000000 -1.096965
v 0.684968 0.000000 0.701499
v 1.000000 -0.050000 0.577350
v 0.950000 0.000000 0.548483
v -0.950000 0.000000 0.242450
v -1.000000 -0.050000 0.577350
v -0.950000 0.000000 0.548482
v -0.000000 0.000000 1.096965
v -0.000000 -0.050000 1.154700
v 0.265032 0.000000 0.943949
v -1.000000 -0.050000 -0.577350
v -0.950000 0.000000 -0.548482
v -0.950000 0.000000 -0.242450
v 1.000000 -0.050000 -0.577350
v 0.950000 0.000000 -0.548482
v 0.684968 0.000000 -0.701499
v 0.225539 -0.050000 -0.775544
v -0.784410 -0.050000 -0.192450
v 0.045456 -0.050000 -0.552404
v -0.209714 -0.050000 -0.363234
v -0.501124 -0.050000 -0.236835
v 0.558872 -0.050000 0.583094
v 0.558872 -0.050000 -0.583094
v 0.455668 -0.050000 0.315568
v 0.419427 -0.050000 0.000000
v 0.455668 -0.050000 -0.315568
v -0.784410 -0.050000 0.192450
v 0.225538 -0.050000 0.775544
v -0.501124 -0.050000 0.236835
v -0.209714 -0.050000 0.363234
v 0.045456 -0.050000 0.552404
v -0.815282 0.000000 -0.242450
v 0.197673 -0.000000 -0.827279
v -0.531152 0.000000 -0.286967
v -0.238874 0.000000 -0.413742
v 0.017055 -0.000000 -0.603475
v -0.785335 -0.050000 -0.192450
v 0.226001 -0.050000 -0.776345
v -0.501660 -0.050000 -0.236896
v -0.209849 -0.050000 -0.363469
v 0.045671 -0.050000 -0.552898
v 0.617609 0.000000 -0.584829
v 0.617609 0.000000 0.584829
v 0.514097 0.000000 -0.316507
v 0.477749 0.000000 0.000000
v 0.514097 0.000000 0.316507
v 0.559334 -0.050000 -0.583895
v 0.559334 -0.050000 0.583895
v 0.455988 -0.050000 -0.316002
v 0.419698 -0.050000 0.000000
v 0.455988 -0.050000 0.316002
v 0.226001 -0.050000 0.776345
v -0.785335 -0.050000 0.192450
v 0.045671 -0.050000 0.552898
v -0.209849 -0.050000 0.363469
v -0.501660 -0.050000 0.236896
v 0.197673 0.000000 0.827279
v -0.815281 0.000000 0.242450
v 0.017055 0.000000 0.603475
v -0.238874 0.000000 0.413743
v -0.531152 0.000000 0.286968
v 0.333333 -1.000000 -0.962250
v 0.000000 -1.000000 -1.154700
v 0.666667 -1.000000 0.769800
v 1.000000 -1.000000 0.577350
v -1.000000 -1.000000 0.192450
v -1.000000 -1.000000 0.577350
v -0.000000 -1.000000 1.154700
v 0.333333 -1.000000 0.962250
v -1.000000 -1.000000 -0.577350
v -1.000000 -1.000000 -0.192450
v 1.000000 -1.000000 -0.577350
v 0.666667 -1.000000 -0.769800
vt 0.054261 0.383213
vt 0.054750 0.387907
vt 0.054263 0.387907
vt 0.047190 0.383213
vt 0.048168 0.383213
vt 0.048164 0.387907
vt 0.047190 0.298735
vt 0.047190 0.298735
vt 0.047190 0.356657
vt 0.047190 0.298735
vt 0.051726 0.298735
vt 0.051726 0.356657
vt 0.047190 0.356657
vt 0.443339 0.414463
vt 0.443339 0.414463
vt 0.442018 0.414463
vt 0.442018 0.414463
vt 0.062957 0.403532
vt 0.063930 0.403532
vt 0.063794 0.408225
vt 0.063183 0.408225
vt 0.054750 0.383213
vt 0.054261 0.383213
vt 0.054263 0.387907
vt 0.069004 0.403532
vt 0.068518 0.403532
vt 0.068389 0.408225
vt 0.068695 0.408225
vt 0.056262 0.298735
vt 0.056262 0.298735
vt 0.056262 0.356657
vt 0.056262 0.356657
vt 0.053238 0.298735
vt 0.053238 0.356657
vt 0.051726 0.298735
vt 0.047190 0.356657
vt 0.051726 0.356657
vt 0.054750 0.356657
vt 0.054750 0.298735
vt 0.054750 0.298735
vt 0.054750 0.356657
vt 0.048168 0.383213
vt 0.047190 0.387907
vt 0.048164 0.387907
vt 0.053238 0.383213
vt 0.052749 0.383213
vt 0.052751 0.387907
vt 0.047190 0.356657
vt 0.047190 0.298735
vt 0.418254 0.383213
vt 0.420295 0.383213
vt 0.420295 0.329985
vt 0.418254 0.329985
vt 0.053238 0.356657
vt 0.410089 0.383213
vt 0.410089 0.383213
vt 0.410089 0.329985
vt 0.410089 0.329985
vt 0.420295 0.383213
vt 0.418254 0.383213
vt 0.418254 0.329985
vt 0.420295 0.329985
vt 0.069004 0.403532
vt 0.067492 0.403532
vt 0.067492 0.408225
vt 0.068695 0.408225
vt 0.070516 0.403532
vt 0.072028 0.403532
vt 0.071802 0.408225
vt 0.070599 0.408225
vt 0.062957 0.403532
vt 0.062957 0.403532
vt 0.063183 0.408225
vt 0.063183 0.408225
vt 0.083259 0.423850
vt 0.084156 0.423850
vt 0.084461 0.423850
vt 0.067492 0.403532
vt 0.067492 0.408225
vt 0.062957 0.403532
vt 0.063183 0.408225
vt 0.072028 0.403532
vt 0.071802 0.408225
vt 0.068518 0.403532
vt 0.068389 0.408225
vt 0.070294 0.408225
vt 0.070599 0.408225
vt 0.070516 0.403532
vt 0.070030 0.403532
vt 0.063794 0.408225
vt 0.063930 0.403532
vt 0.086060 0.423850
vt 0.086366 0.423850
vt 0.087568 0.423850
vt 0.083259 0.423850
vt 0.084461 0.423850
vt 0.084156 0.423850
vt 0.070294 0.408225
vt 0.070030 0.403532
vt 0.065217 0.403532
vt 0.065083 0.408225
vt 0.066541 0.403532
vt 0.066409 0.408225
vt 0.067700 0.403532
vt 0.067570 0.408225
vt 0.069561 0.403532
vt 0.069824 0.408225
vt 0.069396 0.403532
vt 0.069659 0.408225
vt 0.069561 0.403532
vt 0.069824 0.408225
vt 0.065083 0.408225
vt 0.065217 0.403532
vt 0.066409 0.408225
vt 0.066541 0.403532
vt 0.067570 0.408225
vt 0.067700 0.403532
vt 0.049453 0.383213
vt 0.049450 0.387907
vt 0.050775 0.383213
vt 0.050774 0.387907
vt 0.051932 0.383213
vt 0.051933 0.387907
vt 0.052749 0.383213
vt 0.052751 0.387907
vt 0.053793 0.383213
vt 0.053794 0.387907
vt 0.053628 0.383213
vt 0.053630 0.387907
vt 0.053793 0.383213
vt 0.053794 0.387907
vt 0.051932 0.383213
vt 0.051933 0.387907
vt 0.050775 0.383213
vt 0.050774 0.387907
vt 0.049453 0.383213
vt 0.049450 0.387907
vt 0.053238 0.387907
vt 0.078950 0.423850
vt 0.078950 0.423850
vt 0.079561 0.423850
vt 0.083336 0.423850
vt 0.082175 0.423850
vt 0.080850 0.423850
vt 0.078950 0.423850
vt 0.079561 0.423850
vt 0.078950 0.423850
vt 0.080850 0.423850
vt 0.083336 0.423850
vt 0.082175 0.423850
vt 0.086366 0.423850
vt 0.086060 0.423850
vt 0.087568 0.423850
vt 0.085591 0.423850
vt 0.085426 0.423850
vt 0.085591 0.423850
vt 0.452225 0.414463
vt 0.451565 0.414463
vt 0.449524 0.414463
vt 0.450184 0.414463
vt 0.450933 0.414463
vt 0.448421 0.414463
vt 0.450711 0.414463
vt 0.446858 0.414463
vt 0.445074 0.414463
vt 0.445074 0.414463
vt 0.446858 0.414463
vt 0.451565 0.414463
vt 0.452225 0.414463
vt 0.450184 0.414463
vt 0.449524 0.414463
vt 0.450933 0.414463
vt 0.448421 0.414463
vt 0.053238 0.298735
vt 0.059996 0.288250
vt 0.059996 0.288250
vt 0.060360 0.288250
vt 0.061087 0.288250
vt 0.060723 0.288250
vt 0.058904 0.288250
vt 0.058904 0.288250
vt 0.060360 0.288250
vt 0.059996 0.288250
vt 0.058904 0.288250
vt 0.058904 0.288250
vt 0.061087 0.288250
vt 0.060723 0.288250
vn -1.0000 0.0000 0.0000
vn 0.0000 0.0000 1.0000
vn -0.5000 0.0000 0.8660
vn 0.0000 1.0000 -0.0000
vn 0.0000 0.7071 0.7071
vn 0.0646 0.7247 0.6860
vn 0.0415 0.7188 0.6940
vn -0.1109 0.9934 0.0290
vn 0.6124 0.7071 -0.3536
vn 0.5618 0.7247 -0.3990
vn 0.5802 0.7188 -0.3829
vn 1.0000 0.0000 0.0000
vn 0.5000 0.0000 0.8660
vn -0.5000 0.0000 -0.8660
vn 0.5000 0.0000 -0.8660
vn 0.0875 -0.9962 -0.0005
vn 0.3536 0.7071 -0.6124
vn 0.3536 0.7071 0.6124
vn -0.7071 0.7071 -0.0000
vn -0.3536 0.7071 -0.6124
vn 0.7071 0.7071 0.0000
vn 0.5618 0.7247 0.3990
vn 0.6124 0.7071 0.3536
vn 0.5802 0.7188 0.3829
vn -0.6217 0.7188 -0.3110
vn -0.6124 0.7071 -0.3536
vn -0.6264 0.7247 -0.2870
vn -0.3536 0.7071 0.6124
vn -0.0000 0.7071 -0.7071
vn 0.0415 0.7188 -0.6940
vn 0.0646 0.7247 -0.6860
vn -0.6124 0.7071 0.3536
vn -0.6217 0.7188 0.3110
vn -0.6264 0.7247 0.2870
vn 0.1935 0.7489 0.6338
vn 0.1748 0.7463 0.6423
vn 0.3263 0.7577 0.5652
vn 0.4522 0.7489 0.4845
vn 0.4689 0.7463 0.4725
vn -0.6457 0.7489 -0.1493
vn -0.6436 0.7463 -0.1698
vn -0.6526 0.7577 0.0000
vn -0.6457 0.7489 0.1493
vn -0.6436 0.7463 0.1698
vn 0.1748 0.7463 -0.6423
vn 0.1935 0.7489 -0.6338
vn 0.3263 0.7577 -0.5652
vn 0.4689 0.7463 -0.4725
vn 0.4522 0.7489 -0.4845
vn 0.0444 0.9990 0.0000
vn 0.0000 -1.0000 0.0000
usemtl hexagons_medieval
s 1
f 31/1/1 2/2/1 57/3/1
f 3/4/2 27/5/2 46/6/2
f 79/7/1 80/8/1 3/9/1
f 76/10/3 77/11/3 18/12/3 15/13/3
f 36/14/4 27/15/4 3/16/4 4/17/4
f 3/18/5 46/19/6 41/20/7 22/21/5
f 5/22/4 32/23/4 56/24/8
f 1/25/9 61/26/10 66/27/11 19/28/9
f 74/29/12 81/30/12 23/31/12 12/32/12
f 77/11/13 78/33/13 1/34/13
f 72/35/14 79/7/14 20/36/14 9/37/14
f 2/38/13 73/39/13 74/29/13
f 2/38/13 74/29/13 12/32/13
f 81/30/15 82/40/15 5/41/15
f 36/42/2 4/43/2 62/44/2
f 1/45/16 37/46/16 61/47/16
f 4/48/1 75/49/1 76/10/1
f 23/31/15 81/30/15 5/41/15
f 6/50/15 5/51/15 82/52/15 71/53/15
f 6/54/15 72/35/15 9/37/15
f 4/55/1 3/56/1 80/57/1 75/58/1
f 18/12/13 77/11/13 1/34/13
f 2/59/13 1/60/13 78/61/13 73/62/13
f 4/48/1 76/10/1 15/13/1
f 20/36/1 79/7/1 3/9/1
f 6/63/17 9/64/17 10/65/17 8/66/17
f 2/67/18 12/68/18 13/69/18 11/70/18
f 4/71/19 15/72/19 16/73/19 14/74/19
f 10/75/4 42/76/4 8/77/4
f 18/78/18 1/25/18 19/28/18 17/79/18
f 9/64/20 20/80/20 21/81/20 10/65/20
f 20/80/19 3/18/19 22/21/19 21/81/19
f 12/68/21 23/82/21 24/83/21 13/69/21
f 47/84/22 6/63/23 8/66/23 42/85/24
f 51/86/25 25/87/26 5/88/26 56/89/27
f 23/82/17 5/88/17 25/87/17 24/83/17
f 15/72/28 18/78/28 17/79/28 16/73/28
f 14/74/29 67/90/30 62/91/31 4/71/29
f 52/92/4 11/93/4 13/94/4
f 17/95/4 19/96/4 66/97/4
f 11/70/32 52/98/33 57/99/34 2/67/32
f 41/20/7 46/19/6 48/100/35 43/101/36
f 43/101/36 48/100/35 49/102/37 44/103/37
f 44/103/37 49/102/37 50/104/38 45/105/39
f 45/105/39 50/104/38 47/84/22 42/85/24
f 51/86/25 56/89/27 58/106/40 53/107/41
f 53/107/41 58/106/40 59/108/42 54/109/42
f 54/109/42 59/108/42 60/110/43 55/111/44
f 55/111/44 60/110/43 57/99/34 52/98/33
f 62/91/31 67/90/30 70/112/45 65/113/46
f 65/113/46 70/112/45 69/114/47 64/115/47
f 64/115/47 69/114/47 68/116/48 63/117/49
f 63/117/49 68/116/48 66/27/11 61/26/10
f 46/6/4 27/5/4 30/118/4 48/119/4
f 48/119/4 30/118/4 29/120/4 49/121/4
f 49/121/4 29/120/4 28/122/4 50/123/4
f 50/123/4 28/122/4 26/124/4 47/125/50
f 56/24/8 32/23/4 35/126/4 58/127/4
f 58/127/4 35/126/4 34/128/4 59/129/4
f 59/129/4 34/128/4 33/130/4 60/131/4
f 60/131/4 33/130/4 31/1/4 57/3/4
f 61/47/4 37/46/4 40/132/4 63/133/4
f 63/133/4 40/132/4 39/134/4 64/135/4
f 64/135/4 39/134/4 38/136/4 65/137/4
f 65/137/4 38/136/4 36/42/4 62/44/4
f 26/124/4 6/138/4 47/125/50
f 14/139/4 16/140/4 67/141/4
f 17/95/4 66/97/4 68/142/4
f 17/95/4 68/142/4 69/143/4
f 16/140/4 17/95/4 69/143/4
f 16/140/4 69/143/4 70/144/4
f 67/141/4 16/140/4 70/144/4
f 22/145/4 41/146/4 21/147/4
f 41/146/4 43/148/4 21/147/4
f 10/75/4 45/149/4 42/76/4
f 44/150/4 45/149/4 10/75/4
f 44/150/4 10/75/4 21/147/4
f 43/148/4 44/150/4 21/147/4
f 25/151/4 51/152/4 24/153/4
f 51/152/4 53/154/4 24/153/4
f 53/154/4 54/155/4 24/153/4
f 24/153/4 54/155/4 13/94/4
f 54/155/4 55/156/4 13/94/4
f 55/156/4 52/92/4 13/94/4
f 2/157/4 31/158/4 37/159/4 1/160/4
f 31/158/4 33/161/4 40/162/4 37/159/4
f 33/161/4 34/163/4 39/164/4 40/162/4
f 38/165/4 30/166/4 27/15/4 36/14/4
f 39/164/4 29/167/4 30/166/4 38/165/4
f 32/168/4 5/169/4 6/170/4 26/171/4
f 39/164/4 34/163/4 29/167/4
f 34/163/4 35/172/4 28/173/4 29/167/4
f 35/172/4 32/168/4 26/171/4 28/173/4
f 6/54/15 71/174/15 72/35/15
f 7/175/51 72/176/51 71/177/51
f 7/175/51 74/178/51 73/179/51
f 7/175/51 76/180/51 75/181/51
f 7/175/51 78/182/51 77/183/51
f 7/175/51 73/179/51 78/182/51
f 7/175/51 79/184/51 72/176/51
f 7/175/51 80/185/51 79/184/51
f 7/175/51 75/181/51 80/185/51
f 7/175/51 81/186/51 74/178/51
f 7/175/51 82/187/51 81/186/51
f 7/175/51 71/177/51 82/187/51
f 7/175/51 77/183/51 76/180/51
