# Blender v3.4.1 OBJ File: 'Medieval_Hexagons_Export_1.0_WorldOrigin.blend'
# www.blender.org
mtllib hex_road_H.mtl
o hex_road_H
v -0.333333 -0.050000 -0.962250
v -1.000000 -0.050000 -0.192450
v -1.000000 -0.050000 0.192450
v 1.000000 -0.050000 0.192450
v 1.000000 -0.050000 -0.192450
v -0.666667 -0.050000 0.769800
v -0.333333 -0.050000 0.962250
v 0.000000 -1.000000 0.000000
v -0.265032 0.000000 0.943949
v -0.000000 -0.050000 1.154700
v -0.000000 0.000000 1.096965
v -0.684968 0.000000 -0.701499
v -0.666667 -0.050000 -0.769800
v -1.000000 -0.050000 -0.577350
v -0.950000 0.000000 -0.548482
v -0.950000 0.000000 0.242450
v -1.000000 -0.050000 0.577350
v -0.950000 0.000000 0.548482
v 0.950000 0.000000 -0.242450
v 1.000000 -0.050000 -0.577350
v 0.950000 0.000000 -0.548482
v 1.000000 -0.050000 0.577350
v 0.950000 0.000000 0.548483
v 0.000000 0.000000 -1.096965
v -0.000000 -0.050000 -1.154700
v -0.265032 0.000000 -0.943949
v -0.950000 0.000000 -0.242450
v 0.950000 0.000000 0.242450
v -0.684968 0.000000 0.701499
v -0.442950 -0.050000 -0.382312
v -0.552567 -0.050000 -0.192450
v -0.417514 -0.050000 -0.287381
v -0.457636 -0.050000 -0.217887
v -0.552567 -0.050000 0.192450
v -0.442950 -0.050000 0.382312
v -0.457636 -0.050000 0.217887
v -0.417514 -0.050000 0.287381
v -0.643395 0.000000 -0.242450
v -0.531666 0.000000 -0.435972
v -0.546635 0.000000 -0.268377
v -0.505739 0.000000 -0.339211
v -0.553775 -0.050000 -0.192450
v -0.443554 -0.050000 -0.383358
v -0.458321 -0.050000 -0.218027
v -0.417977 -0.050000 -0.287904
v -0.531666 0.000000 0.435972
v -0.643395 0.000000 0.242450
v -0.505739 0.000000 0.339211
v -0.546635 0.000000 0.268377
v -0.443554 -0.050000 0.383358
v -0.553775 -0.050000 0.192450
v -0.417977 -0.050000 0.287904
v -0.458321 -0.050000 0.218027
v 0.784663 -0.050000 -0.192450
v -0.225665 -0.050000 -0.775763
v 0.501270 -0.050000 -0.236852
v 0.209750 -0.050000 -0.363298
v -0.045515 -0.050000 -0.552539
v -0.225665 -0.050000 0.775763
v 0.784663 -0.050000 0.192450
v -0.045515 -0.050000 0.552539
v 0.209750 -0.050000 0.363298
v 0.501270 -0.050000 0.236852
v 0.815535 0.000000 0.242450
v -0.197800 -0.000000 0.827499
v 0.531299 0.000000 0.286984
v 0.238911 0.000000 0.413807
v -0.017114 -0.000000 0.603610
v 0.785588 -0.050000 0.192450
v -0.226128 -0.050000 0.776564
v 0.501806 -0.050000 0.236913
v 0.209886 -0.050000 0.363533
v -0.045730 -0.050000 0.553033
v -0.197800 0.000000 -0.827499
v 0.815535 -0.000000 -0.242450
v -0.017114 0.000000 -0.603610
v 0.238911 0.000000 -0.413807
v 0.531299 -0.000000 -0.286984
v -0.226127 -0.050000 -0.776564
v 0.785588 -0.050000 -0.192450
v -0.045730 -0.050000 -0.553033
v 0.209886 -0.050000 -0.363533
v 0.501806 -0.050000 -0.236913
v -0.333333 -1.000000 0.962250
v -0.000000 -1.000000 1.154700
v -0.666667 -1.000000 -0.769800
v -1.000000 -1.000000 -0.577350
v -1.000000 -1.000000 0.192450
v -1.000000 -1.000000 0.577350
v 1.000000 -1.000000 -0.192450
v 1.000000 -1.000000 -0.577350
v 1.000000 -1.000000 0.577350
v 0.000000 -1.000000 -1.154700
v -0.333333 -1.000000 -0.962250
v -1.000000 -1.000000 -0.192450
v 1.000000 -1.000000 0.192450
v -0.666667 -1.000000 0.769800
vt 0.066290 0.408225
vt 0.066595 0.408225
vt 0.066467 0.403532
vt 0.065980 0.403532
vt 0.047190 0.298735
vt 0.048702 0.298735
vt 0.048702 0.356657
vt 0.055285 0.383213
vt 0.056262 0.387907
vt 0.055289 0.387907
vt 0.051726 0.298735
vt 0.050214 0.298735
vt 0.050214 0.356657
vt 0.047190 0.383213
vt 0.049220 0.383213
vt 0.049214 0.387907
vt 0.056262 0.383213
vt 0.055285 0.383213
vt 0.055289 0.387907
vt 0.050702 0.383213
vt 0.050214 0.387907
vt 0.050700 0.387907
vt 0.050214 0.383213
vt 0.050702 0.383213
vt 0.050700 0.387907
vt 0.048702 0.383213
vt 0.049717 0.383213
vt 0.049714 0.387907
vt 0.049220 0.383213
vt 0.047190 0.387907
vt 0.049214 0.387907
vt 0.062957 0.403532
vt 0.064981 0.403532
vt 0.064574 0.408225
vt 0.063183 0.408225
vt 0.056262 0.298735
vt 0.056262 0.298735
vt 0.056262 0.356657
vt 0.066595 0.408225
vt 0.066290 0.408225
vt 0.065980 0.403532
vt 0.066467 0.403532
vt 0.056262 0.298735
vt 0.051726 0.356657
vt 0.056262 0.356657
vt 0.056262 0.356657
vt 0.056262 0.298735
vt 0.063183 0.408225
vt 0.064574 0.408225
vt 0.064981 0.403532
vt 0.062957 0.403532
vt 0.051726 0.298735
vt 0.056262 0.356657
vt 0.051726 0.356657
vt 0.047190 0.298735
vt 0.047190 0.298735
vt 0.047190 0.356657
vt 0.050214 0.298735
vt 0.050214 0.356657
vt 0.047190 0.356657
vt 0.047190 0.298735
vt 0.422337 0.383213
vt 0.422337 0.383213
vt 0.422337 0.329985
vt 0.422337 0.329985
vt 0.412130 0.383213
vt 0.414171 0.383213
vt 0.414171 0.329985
vt 0.412130 0.329985
vt 0.048702 0.356657
vt 0.048702 0.298735
vt 0.047190 0.356657
vt 0.047190 0.356657
vt 0.410089 0.383213
vt 0.410089 0.383213
vt 0.410089 0.329985
vt 0.410089 0.329985
vt 0.414171 0.383213
vt 0.412130 0.383213
vt 0.412130 0.329985
vt 0.414171 0.329985
vt 0.067492 0.403532
vt 0.067492 0.408225
vt 0.064469 0.403532
vt 0.062957 0.403532
vt 0.063183 0.408225
vt 0.064386 0.408225
vt 0.062957 0.403532
vt 0.063183 0.408225
vt 0.072028 0.403532
vt 0.072028 0.403532
vt 0.071802 0.408225
vt 0.071802 0.408225
vt 0.072028 0.403532
vt 0.071802 0.408225
vt 0.067492 0.403532
vt 0.067492 0.408225
vt 0.080847 0.423850
vt 0.080341 0.423850
vt 0.080779 0.423850
vt 0.080965 0.423850
vt 0.072028 0.403532
vt 0.071802 0.408225
vt 0.071192 0.408225
vt 0.071056 0.403532
vt 0.065481 0.403532
vt 0.065081 0.408225
vt 0.087568 0.423850
vt 0.087568 0.423850
vt 0.086958 0.423850
vt 0.064469 0.403532
vt 0.064386 0.408225
vt 0.065481 0.403532
vt 0.065081 0.408225
vt 0.080341 0.423850
vt 0.080847 0.423850
vt 0.080965 0.423850
vt 0.080779 0.423850
vt 0.087568 0.423850
vt 0.086958 0.423850
vt 0.087568 0.423850
vt 0.071056 0.403532
vt 0.071192 0.408225
vt 0.065414 0.403532
vt 0.065013 0.408225
vt 0.065597 0.403532
vt 0.065198 0.408225
vt 0.065597 0.403532
vt 0.065198 0.408225
vt 0.065414 0.403532
vt 0.065013 0.408225
vt 0.049650 0.383213
vt 0.049647 0.387907
vt 0.049832 0.383213
vt 0.049830 0.387907
vt 0.049717 0.383213
vt 0.049714 0.387907
vt 0.049832 0.383213
vt 0.049830 0.387907
vt 0.049650 0.383213
vt 0.049647 0.387907
vt 0.048702 0.387907
vt 0.069769 0.403532
vt 0.069902 0.408225
vt 0.068444 0.403532
vt 0.068576 0.408225
vt 0.067285 0.403532
vt 0.067415 0.408225
vt 0.067285 0.403532
vt 0.067415 0.408225
vt 0.068444 0.403532
vt 0.068576 0.408225
vt 0.069769 0.403532
vt 0.069902 0.408225
vt 0.054000 0.383213
vt 0.054002 0.387907
vt 0.052677 0.383213
vt 0.052678 0.387907
vt 0.051519 0.383213
vt 0.051518 0.387907
vt 0.051519 0.383213
vt 0.051518 0.387907
vt 0.052677 0.383213
vt 0.052678 0.387907
vt 0.054000 0.383213
vt 0.054002 0.387907
vt 0.444759 0.414463
vt 0.444759 0.414463
vt 0.442018 0.414463
vt 0.442018 0.414463
vt 0.445430 0.414463
vt 0.446760 0.414463
vt 0.446101 0.414463
vt 0.444060 0.414463
vt 0.447864 0.414463
vt 0.446101 0.414463
vt 0.446760 0.414463
vt 0.445430 0.414463
vt 0.444060 0.414463
vt 0.447864 0.414463
vt 0.445340 0.414463
vt 0.445340 0.414463
vt 0.445586 0.414463
vt 0.445586 0.414463
vt 0.452948 0.414463
vt 0.452948 0.414463
vt 0.454266 0.414463
vt 0.454266 0.414463
vt 0.451212 0.414463
vt 0.451212 0.414463
vt 0.449427 0.414463
vt 0.449427 0.414463
vt 0.078950 0.423850
vt 0.080152 0.423850
vt 0.078950 0.423850
vt 0.078950 0.423850
vt 0.080152 0.423850
vt 0.078950 0.423850
vt 0.082057 0.423850
vt 0.082362 0.423850
vt 0.083259 0.423850
vt 0.085669 0.423850
vt 0.085669 0.423850
vt 0.082057 0.423850
vt 0.083259 0.423850
vt 0.082362 0.423850
vt 0.084343 0.423850
vt 0.083181 0.423850
vt 0.083181 0.423850
vt 0.084343 0.423850
vt 0.063163 0.288250
vt 0.063270 0.288250
vt 0.062906 0.288250
vt 0.062179 0.288250
vt 0.062542 0.288250
vt 0.062179 0.288250
vt 0.062179 0.288250
vt 0.064361 0.288250
vt 0.064361 0.288250
vt 0.064361 0.288250
vt 0.062906 0.288250
vt 0.063270 0.288250
vt 0.062179 0.288250
vt 0.064361 0.288250
vt 0.062542 0.288250
vn -0.6124 0.7071 -0.3536
vn -0.5802 0.7188 -0.3829
vn -0.5618 0.7247 -0.3990
vn -0.5000 0.0000 0.8660
vn 0.0000 0.0000 1.0000
vn -0.5000 0.0000 -0.8660
vn 0.0000 0.0120 0.9999
vn 0.0000 -0.0092 -1.0000
vn -0.0000 1.0000 0.0000
vn -0.0444 0.9990 0.0000
vn -0.0540 -0.9984 0.0147
vn 0.2494 0.9576 0.1440
vn 0.3438 0.9343 0.0940
vn 0.0561 0.9559 -0.2882
vn 0.0000 0.7071 0.7071
vn 0.1074 0.8273 0.5514
vn 0.0223 0.9225 0.3852
vn 1.0000 0.0000 0.0000
vn -0.5802 0.7188 0.3829
vn -0.6124 0.7071 0.3536
vn -0.5618 0.7247 0.3990
vn 0.5000 0.0000 -0.8660
vn -0.0000 0.7071 -0.7071
vn 0.0223 0.9225 -0.3852
vn 0.5000 0.0000 0.8660
vn -1.0000 0.0000 0.0000
vn -0.3536 0.7071 0.6124
vn -0.3536 0.7071 -0.6124
vn -0.7071 0.7071 -0.0000
vn 0.7071 0.7071 0.0000
vn 0.3536 0.7071 0.6124
vn 0.3448 0.9225 -0.1733
vn 0.1580 0.9497 0.2703
vn 0.3131 0.9497 0.0017
vn -0.0415 0.7188 -0.6940
vn -0.0646 0.7247 -0.6860
vn 0.5312 0.8273 -0.1827
vn 0.6124 0.7071 -0.3536
vn 0.3536 0.7071 -0.6124
vn 0.3448 0.9225 0.1733
vn 0.6124 0.7071 0.3536
vn 0.3131 0.9497 -0.0017
vn 0.1580 0.9497 -0.2703
vn -0.0646 0.7247 0.6860
vn -0.0415 0.7188 0.6940
vn 0.1189 0.9836 0.1354
vn 0.1767 0.9836 0.0353
vn 0.1767 0.9836 -0.0353
vn 0.1189 0.9836 -0.1354
vn 0.6115 0.0000 -0.7912
vn -0.1935 0.7489 -0.6338
vn -0.1748 0.7463 -0.6423
vn -0.3263 0.7577 -0.5652
vn -0.4522 0.7489 -0.4845
vn -0.4688 0.7463 -0.4725
vn -0.4522 0.7489 0.4845
vn -0.4688 0.7463 0.4725
vn -0.3263 0.7577 0.5652
vn -0.1935 0.7489 0.6338
vn -0.1748 0.7463 0.6423
vn 0.0000 -1.0000 0.0000
usemtl hexagons_medieval
s 1
f 9/1/1 65/2/2 70/3/3 7/4/1
f 89/5/4 97/6/4 6/7/4
f 54/8/5 5/9/5 80/10/5
f 93/11/6 94/12/6 1/13/6
f 2/14/7 31/15/7 42/16/7
f 4/17/8 60/18/8 69/19/8
f 59/20/9 7/21/9 70/22/10
f 1/23/11 55/24/11 79/25/11
f 6/26/12 35/27/9 50/28/13
f 34/29/9 3/30/9 51/31/14
f 2/32/15 42/33/16 38/34/17 27/35/15
f 92/36/18 96/37/18 4/38/18
f 74/39/19 26/40/20 1/41/20 79/42/21
f 91/43/22 93/11/22 25/44/22 20/45/22
f 5/46/18 90/47/18 91/43/18
f 16/48/23 47/49/24 51/50/14 3/51/23
f 85/52/25 92/36/25 22/53/25 10/54/25
f 87/55/26 95/56/26 2/57/26
f 84/58/4 85/52/4 7/59/4
f 3/60/26 88/61/26 89/5/26
f 5/62/18 4/63/18 96/64/18 90/65/18
f 5/46/18 91/43/18 20/45/18
f 25/44/6 93/11/6 1/13/6
f 13/66/6 1/67/6 94/68/6 86/69/6
f 13/70/6 86/71/6 87/55/6
f 3/60/26 89/5/26 17/72/26
f 13/70/6 87/55/6 14/73/6
f 17/72/4 89/5/4 6/7/4
f 3/74/26 2/75/26 95/76/26 88/77/26
f 7/78/4 6/79/4 97/80/4 84/81/4
f 14/73/26 87/55/26 2/57/26
f 22/53/18 92/36/18 4/38/18
f 7/4/27 10/82/27 11/83/27 9/1/27
f 13/84/28 14/85/28 15/86/28 12/87/28
f 3/51/29 17/88/29 18/89/29 16/48/29
f 5/90/30 20/91/30 21/92/30 19/93/30
f 10/82/31 22/94/31 23/95/31 11/83/31
f 25/96/28 1/41/28 26/40/28 24/97/28
f 39/98/32 38/99/17 40/100/33 41/101/34
f 14/85/29 2/32/29 27/35/29 15/86/29
f 22/94/30 4/102/30 28/103/30 23/95/30
f 64/104/35 28/103/23 4/102/23 69/105/36
f 43/106/37 13/84/38 12/87/38 39/107/32
f 23/108/9 28/109/9 64/110/9
f 20/91/39 25/96/39 24/97/39 21/92/39
f 17/88/27 6/111/27 29/112/27 18/89/27
f 6/111/12 50/113/13 46/114/40 29/112/41
f 47/115/24 46/116/40 48/117/42 49/118/43
f 21/119/9 75/120/9 19/121/9
f 80/122/44 5/90/15 19/93/15 75/123/45
f 38/34/17 42/33/16 44/124/46 40/125/33
f 40/125/33 44/124/46 45/126/47 41/127/34
f 41/127/34 45/126/47 43/106/37 39/107/32
f 46/114/40 50/113/13 52/128/48 48/129/42
f 48/129/42 52/128/48 53/130/49 49/131/43
f 49/131/43 53/130/49 51/50/14 47/49/24
f 42/16/16 31/15/9 33/132/9 44/133/46
f 44/133/46 33/132/9 32/134/9 45/135/47
f 45/135/47 32/134/9 30/136/9 43/137/37
f 50/28/13 35/27/9 37/138/9 52/139/48
f 52/139/48 37/138/9 36/140/9 53/141/49
f 53/141/49 36/140/9 34/29/9 51/31/14
f 30/136/50 13/142/50 43/137/50
f 64/104/35 69/105/36 71/143/51 66/144/52
f 66/144/52 71/143/51 72/145/53 67/146/53
f 67/146/53 72/145/53 73/147/54 68/148/55
f 68/148/55 73/147/54 70/3/3 65/2/2
f 74/39/19 79/42/21 81/149/56 76/150/57
f 76/150/57 81/149/56 82/151/58 77/152/58
f 77/152/58 82/151/58 83/153/59 78/154/60
f 78/154/60 83/153/59 80/122/44 75/123/45
f 69/19/9 60/18/9 63/155/9 71/156/9
f 71/156/9 63/155/9 62/157/9 72/158/9
f 72/158/9 62/157/9 61/159/9 73/160/9
f 73/160/9 61/159/9 59/20/9 70/22/10
f 79/25/9 55/24/9 58/161/9 81/162/9
f 81/162/9 58/161/9 57/163/9 82/164/9
f 82/164/9 57/163/9 56/165/9 83/166/9
f 83/166/9 56/165/9 54/8/9 80/10/9
f 34/167/9 31/168/9 2/169/9 3/170/9
f 30/171/9 55/172/9 1/173/9 13/174/9
f 30/171/9 58/175/9 55/172/9
f 7/176/9 59/177/9 35/178/9 6/179/12
f 59/177/9 61/180/9 35/178/9
f 36/181/9 33/182/9 31/168/9 34/167/9
f 32/183/9 58/175/9 30/171/9
f 35/178/9 61/180/9 37/184/9
f 54/185/9 60/186/9 4/187/9 5/188/9
f 56/189/9 63/190/9 60/186/9 54/185/9
f 62/191/9 63/190/9 56/189/9 57/192/9
f 61/180/9 62/191/9 57/192/9 58/175/9
f 37/184/9 61/180/9 58/175/9 32/183/9
f 36/181/9 37/184/9 32/183/9 33/182/9
f 27/193/9 38/99/17 39/98/32 12/194/9
f 16/195/9 18/196/9 29/197/9
f 47/115/24 16/195/9 29/197/9 46/116/40
f 15/198/9 27/193/9 12/194/9
f 26/199/9 74/200/9 24/201/9
f 21/119/9 78/202/9 75/120/9
f 23/108/9 64/110/9 66/203/9
f 9/204/9 11/205/9 65/206/9
f 21/119/9 77/207/9 78/202/9
f 24/201/9 77/207/9 21/119/9
f 76/208/9 77/207/9 24/201/9
f 74/200/9 76/208/9 24/201/9
f 65/206/9 11/205/9 68/209/9
f 68/209/9 11/205/9 67/210/9
f 11/205/9 23/108/9 67/210/9
f 67/210/9 23/108/9 66/203/9
f 85/52/4 10/54/4 7/59/4
f 8/211/61 85/212/61 84/213/61
f 8/211/61 87/214/61 86/215/61
f 8/211/61 89/216/61 88/217/61
f 8/211/61 91/218/61 90/219/61
f 8/211/61 92/220/61 85/212/61
f 8/211/61 94/221/61 93/222/61
f 8/211/61 86/215/61 94/221/61
f 8/211/61 95/223/61 87/214/61
f 8/211/61 88/217/61 95/223/61
f 8/211/61 96/224/61 92/220/61
f 8/211/61 90/219/61 96/224/61
f 8/211/61 93/222/61 91/218/61
f 8/211/61 97/225/61 89/216/61
f 8/211/61 84/213/61 97/225/61
