# Blender v3.4.1 OBJ File: 'Medieval_Hexagons_Export_1.0_WorldOrigin.blend'
# www.blender.org
mtllib hex_road_K.mtl
o hex_road_K
v 0.666667 -0.050000 0.769800
v -0.666667 -0.050000 -0.769800
v -1.000000 -0.050000 0.192450
v 0.666667 -0.050000 -0.769800
v 0.333333 -0.050000 -0.962250
v -0.666667 -0.050000 0.769800
v -0.333333 -0.050000 0.962250
v 0.000000 -1.000000 0.000000
v 0.265032 0.000000 -0.943949
v -0.000000 -0.050000 -1.154700
v 0.000000 0.000000 -1.096965
v 0.684968 0.000000 0.701499
v 1.000000 -0.050000 0.577350
v 0.950000 0.000000 0.548483
v -0.265032 0.000000 0.943949
v -0.000000 -0.050000 1.154700
v -0.000000 0.000000 1.096965
v -0.684968 0.000000 -0.701499
v -1.000000 -0.050000 -0.577350
v -0.950000 0.000000 -0.548482
v -0.950000 0.000000 0.242450
v -1.000000 -0.050000 0.577350
v -0.950000 0.000000 0.548482
v 0.333333 -0.050000 0.962250
v 0.265032 0.000000 0.943949
v -0.333333 -0.050000 -0.962250
v -0.265032 0.000000 -0.943949
v -1.000000 -0.050000 -0.192450
v -0.950000 0.000000 -0.242450
v 1.000000 -0.050000 -0.577350
v 0.950000 0.000000 -0.548482
v 0.684968 0.000000 -0.701499
v -0.684968 0.000000 0.701499
v 0.557052 -0.050000 0.579942
v 0.557052 -0.050000 -0.579943
v 0.454406 -0.050000 0.313863
v 0.418361 -0.050000 0.000000
v 0.454406 -0.050000 -0.313863
v 0.615784 0.000000 -0.581668
v 0.615784 0.000000 0.581668
v 0.512832 0.000000 -0.314797
v 0.476680 0.000000 -0.000000
v 0.512832 0.000000 0.314797
v 0.557512 -0.050000 -0.580739
v 0.557512 -0.050000 0.580739
v 0.454725 -0.050000 -0.314294
v 0.418630 -0.050000 0.000000
v 0.454725 -0.050000 0.314294
v -0.442689 -0.050000 -0.381860
v -0.552045 -0.050000 -0.192450
v -0.417313 -0.050000 -0.287155
v -0.457340 -0.050000 -0.217826
v -0.552045 -0.050000 0.192450
v -0.442689 -0.050000 0.381860
v -0.457340 -0.050000 0.217826
v -0.417313 -0.050000 0.287155
v 0.109356 -0.050000 -0.574310
v -0.109356 -0.050000 -0.574310
v 0.040027 -0.050000 -0.504981
v -0.040027 -0.050000 -0.504981
v -0.109356 -0.050000 0.574310
v 0.109356 -0.050000 0.574310
v -0.040027 -0.050000 0.504981
v 0.040027 -0.050000 0.504981
v -0.642863 0.000000 -0.242450
v -0.531400 -0.000000 -0.435511
v -0.546333 0.000000 -0.268315
v -0.505535 0.000000 -0.338980
v -0.553250 -0.050000 -0.192450
v -0.443292 -0.050000 -0.382903
v -0.458023 -0.050000 -0.217966
v -0.417776 -0.050000 -0.287677
v -0.109958 -0.050000 -0.575353
v 0.109958 -0.050000 -0.575353
v -0.040248 -0.050000 -0.505643
v 0.040247 -0.050000 -0.505643
v -0.111464 0.000000 -0.677961
v 0.111464 0.000000 -0.677961
v -0.040799 0.000000 -0.607296
v 0.040799 0.000000 -0.607296
v -0.531400 0.000000 0.435511
v -0.642863 0.000000 0.242450
v -0.505534 0.000000 0.338980
v -0.546333 0.000000 0.268315
v -0.443292 -0.050000 0.382903
v -0.553250 -0.050000 0.192450
v -0.417776 -0.050000 0.287677
v -0.458023 -0.050000 0.217966
v 0.109958 -0.050000 0.575353
v -0.109958 -0.050000 0.575353
v 0.040247 -0.050000 0.505643
v -0.040248 -0.050000 0.505643
v 0.111464 0.000000 0.677961
v -0.111464 0.000000 0.677961
v 0.040799 0.000000 0.607296
v -0.040799 0.000000 0.607296
v 0.333333 -1.000000 -0.962250
v 0.000000 -1.000000 -1.154700
v 0.666667 -1.000000 0.769800
v 1.000000 -1.000000 0.577350
v -0.333333 -1.000000 0.962250
v -0.000000 -1.000000 1.154700
v -0.666667 -1.000000 -0.769800
v -1.000000 -1.000000 -0.577350
v -1.000000 -1.000000 0.192450
v -1.000000 -1.000000 0.577350
v 0.333333 -1.000000 0.962250
v -0.333333 -1.000000 -0.962250
v -1.000000 -1.000000 -0.192450
v 1.000000 -1.000000 -0.577350
v 0.666667 -1.000000 -0.769800
v -0.666667 -1.000000 0.769800
vt 0.048702 0.356657
vt 0.048702 0.298735
vt 0.047190 0.298735
vt 0.047190 0.356657
vt 0.047190 0.298735
vt 0.047190 0.298735
vt 0.051230 0.383213
vt 0.050214 0.387907
vt 0.051227 0.387907
vt 0.054750 0.383213
vt 0.054253 0.383213
vt 0.054255 0.387907
vt 0.047190 0.356657
vt 0.069004 0.403532
vt 0.067991 0.403532
vt 0.067998 0.408225
vt 0.068695 0.408225
vt 0.062957 0.403532
vt 0.064983 0.403532
vt 0.064576 0.408225
vt 0.063183 0.408225
vt 0.047190 0.383213
vt 0.049222 0.383213
vt 0.049216 0.387907
vt 0.445431 0.414463
vt 0.447473 0.414463
vt 0.446101 0.414463
vt 0.444060 0.414463
vt 0.048702 0.383213
vt 0.049718 0.383213
vt 0.049715 0.387907
vt 0.053238 0.383213
vt 0.052222 0.383213
vt 0.052225 0.387907
vt 0.051726 0.298735
vt 0.053238 0.298735
vt 0.053238 0.356657
vt 0.048702 0.298735
vt 0.048702 0.356657
vt 0.050214 0.356657
vt 0.050214 0.298735
vt 0.063183 0.408225
vt 0.064576 0.408225
vt 0.064983 0.403532
vt 0.062957 0.403532
vt 0.056262 0.298735
vt 0.054750 0.298735
vt 0.054750 0.356657
vt 0.047190 0.298735
vt 0.047190 0.356657
vt 0.050214 0.383213
vt 0.051230 0.383213
vt 0.051227 0.387907
vt 0.056262 0.298735
vt 0.056262 0.356657
vt 0.056262 0.356657
vt 0.052222 0.383213
vt 0.053238 0.387907
vt 0.052225 0.387907
vt 0.070599 0.408225
vt 0.070286 0.408225
vt 0.070021 0.403532
vt 0.070516 0.403532
vt 0.049222 0.383213
vt 0.047190 0.387907
vt 0.049216 0.387907
vt 0.051726 0.298735
vt 0.050214 0.298735
vt 0.050214 0.356657
vt 0.067991 0.403532
vt 0.069004 0.403532
vt 0.068695 0.408225
vt 0.067998 0.408225
vt 0.054750 0.356657
vt 0.054750 0.298735
vt 0.412130 0.383213
vt 0.414171 0.383213
vt 0.414171 0.329985
vt 0.412130 0.329985
vt 0.047190 0.356657
vt 0.051726 0.356657
vt 0.418254 0.383213
vt 0.420295 0.383213
vt 0.420295 0.329985
vt 0.418254 0.329985
vt 0.051726 0.356657
vt 0.410089 0.383213
vt 0.410089 0.383213
vt 0.410089 0.329985
vt 0.410089 0.329985
vt 0.053238 0.298735
vt 0.053238 0.356657
vt 0.414171 0.383213
vt 0.412130 0.383213
vt 0.412130 0.329985
vt 0.414171 0.329985
vt 0.420295 0.383213
vt 0.418254 0.383213
vt 0.418254 0.329985
vt 0.420295 0.329985
vt 0.067492 0.403532
vt 0.067492 0.408225
vt 0.072028 0.403532
vt 0.071802 0.408225
vt 0.065980 0.403532
vt 0.067492 0.403532
vt 0.067492 0.408225
vt 0.066290 0.408225
vt 0.064469 0.403532
vt 0.062957 0.403532
vt 0.063183 0.408225
vt 0.064386 0.408225
vt 0.062957 0.403532
vt 0.063183 0.408225
vt 0.065980 0.403532
vt 0.066290 0.408225
vt 0.080849 0.423850
vt 0.080343 0.423850
vt 0.080781 0.423850
vt 0.080966 0.423850
vt 0.082753 0.423850
vt 0.083074 0.423850
vt 0.083444 0.423850
vt 0.083765 0.423850
vt 0.072028 0.403532
vt 0.071802 0.408225
vt 0.065482 0.403532
vt 0.065082 0.408225
vt 0.070286 0.408225
vt 0.070599 0.408225
vt 0.070516 0.403532
vt 0.070021 0.403532
vt 0.087568 0.423850
vt 0.086052 0.423850
vt 0.086366 0.423850
vt 0.064469 0.403532
vt 0.064386 0.408225
vt 0.065482 0.403532
vt 0.065082 0.408225
vt 0.080343 0.423850
vt 0.080849 0.423850
vt 0.080966 0.423850
vt 0.080781 0.423850
vt 0.066987 0.408225
vt 0.066994 0.403532
vt 0.066987 0.408225
vt 0.066994 0.403532
vt 0.083765 0.423850
vt 0.083444 0.423850
vt 0.083074 0.423850
vt 0.082753 0.423850
vt 0.069555 0.403532
vt 0.069819 0.408225
vt 0.069391 0.403532
vt 0.069655 0.408225
vt 0.069555 0.403532
vt 0.069819 0.408225
vt 0.053787 0.383213
vt 0.053788 0.387907
vt 0.053624 0.383213
vt 0.053625 0.387907
vt 0.053787 0.383213
vt 0.053788 0.387907
vt 0.054253 0.383213
vt 0.054255 0.387907
vt 0.054750 0.387907
vt 0.065415 0.403532
vt 0.065014 0.408225
vt 0.065597 0.403532
vt 0.065199 0.408225
vt 0.067677 0.408225
vt 0.067675 0.403532
vt 0.067307 0.408225
vt 0.067310 0.403532
vt 0.065597 0.403532
vt 0.065199 0.408225
vt 0.065415 0.403532
vt 0.065014 0.408225
vt 0.067307 0.408225
vt 0.067310 0.403532
vt 0.067677 0.408225
vt 0.067675 0.403532
vt 0.051544 0.383213
vt 0.051543 0.387907
vt 0.051907 0.383213
vt 0.051908 0.387907
vt 0.051907 0.383213
vt 0.051908 0.387907
vt 0.051544 0.383213
vt 0.051543 0.387907
vt 0.049651 0.383213
vt 0.049648 0.387907
vt 0.049833 0.383213
vt 0.049831 0.387907
vt 0.049718 0.383213
vt 0.049715 0.387907
vt 0.049833 0.383213
vt 0.049831 0.387907
vt 0.049651 0.383213
vt 0.049648 0.387907
vt 0.048702 0.387907
vt 0.078950 0.423850
vt 0.080152 0.423850
vt 0.078950 0.423850
vt 0.078950 0.423850
vt 0.080152 0.423850
vt 0.084461 0.423850
vt 0.082057 0.423850
vt 0.083259 0.423850
vt 0.078950 0.423850
vt 0.083259 0.423850
vt 0.082057 0.423850
vt 0.084461 0.423850
vt 0.086366 0.423850
vt 0.086052 0.423850
vt 0.087568 0.423850
vt 0.085585 0.423850
vt 0.085421 0.423850
vt 0.085585 0.423850
vt 0.447473 0.414463
vt 0.445431 0.414463
vt 0.444060 0.414463
vt 0.446101 0.414463
vt 0.451554 0.414463
vt 0.448812 0.414463
vt 0.450184 0.414463
vt 0.452225 0.414463
vt 0.442018 0.414463
vt 0.442018 0.414463
vt 0.444762 0.414463
vt 0.444762 0.414463
vt 0.448812 0.414463
vt 0.451554 0.414463
vt 0.452225 0.414463
vt 0.450184 0.414463
vt 0.445587 0.414463
vt 0.447897 0.414463
vt 0.445342 0.414463
vt 0.445342 0.414463
vt 0.450925 0.414463
vt 0.448388 0.414463
vt 0.448388 0.414463
vt 0.450925 0.414463
vt 0.447897 0.414463
vt 0.445587 0.414463
vt 0.450704 0.414463
vt 0.059903 0.288250
vt 0.059996 0.288250
vt 0.060360 0.288250
vt 0.061087 0.288250
vt 0.060723 0.288250
vt 0.059996 0.288250
vt 0.059632 0.288250
vt 0.058904 0.288250
vt 0.059268 0.288250
vt 0.058904 0.288250
vt 0.058904 0.288250
vt 0.060360 0.288250
vt 0.059632 0.288250
vt 0.058904 0.288250
vt 0.061087 0.288250
vt 0.060723 0.288250
vt 0.059268 0.288250
vn -0.5000 0.0000 -0.8660
vn -1.0000 0.0000 0.0000
vn -0.0000 1.0000 -0.0000
vn -0.2728 0.9534 -0.1287
vn -0.0643 0.9944 0.0843
vn 0.6124 0.7071 -0.3536
vn 0.4238 0.8273 -0.3687
vn 0.3225 0.9225 -0.2119
vn 0.0000 0.7071 0.7071
vn 0.1074 0.8273 0.5514
vn 0.0223 0.9225 0.3852
vn 0.0000 0.0060 1.0000
vn -0.2494 0.9576 0.1440
vn 0.2494 0.9576 0.1440
vn 0.3452 0.9318 0.1125
vn 0.8855 0.0626 -0.4604
vn 0.5000 0.0000 0.8660
vn -0.5000 0.0000 0.8660
vn -0.0000 0.7071 -0.7071
vn 0.0223 0.9225 -0.3852
vn 0.0561 0.9559 -0.2882
vn 0.5000 0.0000 -0.8660
vn -0.2658 0.9269 0.2648
vn 1.0000 0.0000 0.0000
vn 0.2728 0.9534 0.1287
vn -0.6124 0.7071 0.3536
vn -0.6217 0.7188 0.3110
vn -0.6264 0.7247 0.2870
vn 0.6124 0.7071 0.3536
vn 0.3225 0.9225 0.2119
vn 0.3536 0.7071 -0.6124
vn 0.3536 0.7071 0.6124
vn -0.3536 0.7071 0.6124
vn -0.3536 0.7071 -0.6124
vn -0.7071 0.7071 -0.0000
vn 0.3448 0.9225 -0.1733
vn 0.1580 0.9497 0.2703
vn 0.3131 0.9497 0.0017
vn -0.3225 0.9225 0.2119
vn -0.1551 0.9497 0.2720
vn 0.1551 0.9497 0.2720
vn 0.7071 0.7071 0.0000
vn 0.5312 0.8273 -0.1827
vn -0.6217 0.7188 -0.3110
vn -0.6124 0.7071 -0.3536
vn -0.6264 0.7247 -0.2870
vn 0.3448 0.9225 0.1733
vn 0.3131 0.9497 -0.0017
vn 0.1580 0.9497 -0.2703
vn -0.3225 0.9225 -0.2119
vn 0.1551 0.9497 -0.2720
vn -0.1551 0.9497 -0.2720
vn -0.6457 0.7489 -0.1493
vn -0.6436 0.7463 -0.1698
vn -0.6526 0.7577 0.0000
vn -0.6457 0.7489 0.1493
vn -0.6436 0.7463 0.1698
vn -0.0474 -0.9989 0.0000
vn 0.1189 0.9836 0.1354
vn 0.1767 0.9836 0.0353
vn 0.0578 0.9836 0.1707
vn -0.0578 0.9836 0.1707
vn 0.1767 0.9836 -0.0353
vn 0.1189 0.9836 -0.1354
vn -0.0578 0.9836 -0.1707
vn 0.0578 0.9836 -0.1707
vn 0.0000 -1.0000 0.0000
usemtl hexagons_medieval
s 1
f 2/1/1 103/2/1 104/3/1
f 3/4/2 105/5/2 106/6/2
f 61/7/3 7/8/3 90/9/4
f 4/10/3 35/11/3 44/12/5
f 3/4/2 106/6/2 22/13/2
f 24/14/6 89/15/7 93/16/8 25/17/6
f 28/18/9 69/19/10 65/20/11 29/21/9
f 28/22/12 50/23/12 69/24/12
f 49/25/3 58/26/3 26/27/13 2/28/3
f 6/29/14 54/30/3 85/31/15
f 24/32/16 62/33/16 89/34/16
f 102/35/17 107/36/17 24/37/17
f 106/6/18 112/38/18 6/39/18
f 7/40/18 101/41/18 102/35/18
f 21/42/19 82/43/20 86/44/21 3/45/19
f 110/46/22 111/47/22 4/48/22
f 104/3/2 109/49/2 28/50/2
f 26/51/13 58/52/3 73/53/23
f 100/54/24 110/46/24 30/55/24 13/56/24
f 57/57/3 5/58/3 74/59/25
f 12/60/26 40/61/27 45/62/28 1/63/26
f 53/64/3 3/65/3 86/66/21
f 98/67/1 108/68/1 26/69/1
f 74/70/25 5/71/29 9/72/29 78/73/30
f 30/55/22 110/46/22 4/48/22
f 1/74/17 99/75/17 100/54/17
f 2/76/1 26/77/1 108/78/1 103/79/1
f 19/80/2 104/3/2 28/50/2
f 7/40/18 102/35/18 16/81/18
f 2/1/1 104/3/1 19/80/1
f 5/82/22 4/83/22 111/84/22 97/85/22
f 1/74/17 100/54/17 13/56/17
f 10/86/1 98/67/1 26/69/1
f 22/13/18 106/6/18 6/39/18
f 3/87/2 28/88/2 109/89/2 105/90/2
f 97/91/22 98/67/22 5/92/22
f 7/93/18 6/94/18 112/95/18 101/96/18
f 16/81/17 102/35/17 24/37/17
f 1/97/17 24/98/17 107/99/17 99/100/17
f 5/71/31 10/101/31 11/102/31 9/72/31
f 1/63/32 13/103/32 14/104/32 12/60/32
f 7/105/33 16/106/33 17/107/33 15/108/33
f 2/109/34 19/110/34 20/111/34 18/112/34
f 3/45/35 22/113/35 23/114/35 21/42/35
f 16/106/32 24/14/32 25/17/32 17/107/32
f 10/101/34 26/115/34 27/116/34 11/102/34
f 66/117/36 65/118/11 67/119/37 68/120/38
f 77/121/39 79/122/40 80/123/41 78/124/30
f 19/110/35 28/18/35 29/21/35 20/111/35
f 13/103/42 30/125/42 31/126/42 14/104/42
f 70/127/43 2/109/6 18/112/6 66/128/36
f 39/129/44 32/130/45 4/131/45 44/132/46
f 14/133/3 40/134/3 12/135/3
f 30/125/31 4/131/31 32/130/31 31/126/31
f 22/113/33 6/136/33 33/137/33 23/114/33
f 6/136/14 85/138/15 81/139/47 33/137/29
f 82/140/20 81/141/47 83/142/48 84/143/49
f 77/144/39 27/116/26 26/115/13 73/145/23
f 15/108/45 94/146/50 90/147/4 7/105/45
f 93/148/8 95/149/51 96/150/52 94/151/50
f 39/129/44 44/132/46 46/152/53 41/153/54
f 41/153/54 46/152/53 47/154/55 42/155/55
f 42/155/55 47/154/55 48/156/56 43/157/57
f 43/157/57 48/156/56 45/62/28 40/61/27
f 44/12/5 35/11/3 38/158/3 46/159/3
f 46/159/3 38/158/3 37/160/3 47/161/3
f 47/161/3 37/160/3 36/162/3 48/163/3
f 48/163/3 36/162/3 34/164/3 45/165/3
f 34/164/58 1/166/58 45/165/58
f 65/20/11 69/19/10 71/167/59 67/168/37
f 67/168/37 71/167/59 72/169/60 68/170/38
f 68/170/38 72/169/60 70/127/43 66/128/36
f 74/70/25 78/73/30 80/171/41 76/172/61
f 76/172/61 80/171/41 79/173/40 75/174/62
f 75/174/62 79/173/40 77/144/39 73/145/23
f 81/139/47 85/138/15 87/175/63 83/176/48
f 83/176/48 87/175/63 88/177/64 84/178/49
f 84/178/49 88/177/64 86/44/21 82/43/20
f 90/147/4 94/146/50 96/179/52 92/180/65
f 92/180/65 96/179/52 95/181/51 91/182/66
f 91/182/66 95/181/51 93/16/8 89/15/7
f 73/53/23 58/52/3 60/183/3 75/184/62
f 75/184/62 60/183/3 59/185/3 76/186/61
f 76/186/61 59/185/3 57/57/3 74/59/25
f 89/34/7 62/33/3 64/187/3 91/188/66
f 91/188/66 64/187/3 63/189/3 92/190/65
f 92/190/65 63/189/3 61/7/3 90/9/4
f 69/24/10 50/23/3 52/191/3 71/192/59
f 71/192/59 52/191/3 51/193/3 72/194/60
f 72/194/60 51/193/3 49/195/3 70/196/43
f 85/31/15 54/30/3 56/197/3 87/198/63
f 87/198/63 56/197/3 55/199/3 88/200/64
f 88/200/64 55/199/3 53/64/3 86/66/21
f 49/195/24 2/201/24 70/196/24
f 29/202/3 65/118/11 66/117/36 18/203/3
f 21/204/3 23/205/3 33/206/3
f 25/207/3 93/148/8 94/151/50 15/208/3
f 17/209/3 25/207/3 15/208/3
f 82/140/20 21/204/3 33/206/3 81/141/47
f 20/210/3 29/202/3 18/203/3
f 11/211/3 27/212/3 9/213/3
f 27/212/3 77/121/39 78/124/30 9/213/3
f 32/214/3 39/215/3 31/216/3
f 14/133/3 43/217/3 40/134/3
f 42/218/3 43/217/3 14/133/3
f 39/215/3 41/219/3 31/216/3
f 41/219/3 42/218/3 31/216/3
f 31/216/3 42/218/3 14/133/3
f 61/220/3 54/221/3 6/222/14 7/223/3
f 34/224/3 62/225/3 24/226/3 1/227/3
f 28/228/3 3/229/3 53/230/3 50/231/3
f 57/232/3 35/233/3 4/234/3 5/235/3
f 51/236/3 60/237/3 58/26/3 49/25/3
f 50/231/3 53/230/3 55/238/3 52/239/3
f 36/240/3 64/241/3 62/225/3 34/224/3
f 59/242/3 38/243/3 35/233/3 57/232/3
f 63/244/3 56/245/3 54/221/3 61/220/3
f 59/242/3 64/241/3 36/240/3 37/246/3 38/243/3
f 52/239/3 55/238/3 56/245/3 63/244/3 60/237/3 51/236/3
f 60/237/3 63/244/3 64/241/3 59/242/3
f 98/67/22 10/86/22 5/92/22
f 8/247/67 98/248/67 97/249/67
f 8/247/67 100/250/67 99/251/67
f 8/247/67 102/252/67 101/253/67
f 8/247/67 104/254/67 103/255/67
f 8/247/67 106/256/67 105/257/67
f 8/247/67 107/258/67 102/252/67
f 8/247/67 99/251/67 107/258/67
f 8/247/67 108/259/67 98/248/67
f 8/247/67 103/255/67 108/259/67
f 8/247/67 109/260/67 104/254/67
f 8/247/67 105/257/67 109/260/67
f 8/247/67 110/261/67 100/250/67
f 8/247/67 111/262/67 110/261/67
f 8/247/67 97/249/67 111/262/67
f 8/247/67 112/263/67 106/256/67
f 8/247/67 101/253/67 112/263/67
