# Blender v3.4.1 OBJ File: 'Medieval_Hexagons_Export_1.0_WorldOrigin.blend'
# www.blender.org
mtllib hex_road_E.mtl
o hex_road_E
v -1.000000 -0.050000 0.192450
v -1.000000 -0.050000 -0.192450
v 1.000000 -0.050000 -0.192450
v 1.000000 -0.050000 0.192450
v 0.000000 -1.000000 0.000000
v 0.684968 0.000000 -0.701499
v 0.666667 -0.050000 -0.769800
v 1.000000 -0.050000 -0.577350
v 0.950000 0.000000 -0.548483
v -0.950000 0.000000 -0.242450
v -1.000000 -0.050000 -0.577350
v -0.950000 0.000000 -0.548482
v 0.950000 0.000000 0.242450
v 1.000000 -0.050000 0.577350
v 0.950000 0.000000 0.548482
v -0.000000 0.000000 -1.096965
v -0.000000 -0.050000 -1.154700
v 0.333333 -0.050000 -0.962250
v 0.265032 0.000000 -0.943949
v 0.000000 0.000000 1.096965
v -0.000000 -0.050000 1.154700
v -1.000000 -0.050000 0.577350
v -0.950000 0.000000 0.548482
v -0.950000 0.000000 0.242450
v 0.950000 0.000000 -0.242450
v 0.442662 -0.050000 -0.381812
v 0.551990 -0.050000 -0.192450
v 0.417292 -0.050000 -0.287131
v 0.457309 -0.050000 -0.217820
v 0.642807 0.000000 -0.242450
v 0.531372 0.000000 -0.435462
v 0.546301 0.000000 -0.268309
v 0.505513 0.000000 -0.338956
v 0.553194 -0.050000 -0.192450
v 0.443264 -0.050000 -0.382855
v 0.457992 -0.050000 -0.217959
v 0.417754 -0.050000 -0.287653
v -0.793138 -0.050000 -0.192450
v 0.229902 -0.050000 -0.783103
v -0.506179 -0.050000 -0.237411
v -0.210992 -0.050000 -0.365448
v 0.047486 -0.050000 -0.557070
v 0.230371 -0.050000 -0.783914
v -0.794075 -0.050000 -0.192450
v 0.047704 -0.050000 -0.557570
v -0.211129 -0.050000 -0.365686
v -0.506722 -0.050000 -0.237472
v 0.202050 0.000000 -0.834860
v -0.824035 0.000000 -0.242450
v 0.019090 0.000000 -0.608155
v -0.240156 0.000000 -0.415963
v -0.536223 0.000000 -0.287545
v 0.500000 0.000000 0.242450
v 0.000000 0.000000 0.242450
v -0.500000 0.000000 0.242450
v 0.500000 -0.050000 0.192450
v 0.000000 -0.050000 0.192450
v -0.500000 -0.050000 0.192450
v 0.666667 -1.000000 -0.769800
v 1.000000 -1.000000 -0.577350
v -1.000000 -1.000000 -0.192450
v -1.000000 -1.000000 -0.577350
v 1.000000 -1.000000 0.192450
v 1.000000 -1.000000 0.577350
v -0.000000 -1.000000 -1.154700
v 0.333333 -1.000000 -0.962250
v 0.000000 -1.000000 1.154700
v -1.000000 -1.000000 0.577350
v -1.000000 -1.000000 0.192450
v 1.000000 -1.000000 -0.192450
vt 0.056262 0.298735
vt 0.056262 0.356657
vt 0.056262 0.298735
vt 0.053734 0.383213
vt 0.053737 0.387907
vt 0.054750 0.383213
vt 0.056262 0.387907
vt 0.054235 0.387907
vt 0.054230 0.383213
vt 0.056262 0.298735
vt 0.056262 0.356657
vt 0.051726 0.356657
vt 0.051726 0.298735
vt 0.047190 0.298735
vt 0.047190 0.356657
vt 0.047190 0.298735
vt 0.048128 0.383213
vt 0.048124 0.387907
vt 0.047190 0.383213
vt 0.454266 0.414463
vt 0.451523 0.414463
vt 0.451204 0.414463
vt 0.454266 0.414463
vt 0.070599 0.408225
vt 0.070516 0.403532
vt 0.069503 0.403532
vt 0.069903 0.408225
vt 0.053238 0.387907
vt 0.052771 0.387907
vt 0.052769 0.383213
vt 0.047190 0.356657
vt 0.047190 0.356657
vt 0.047190 0.298735
vt 0.047190 0.356657
vt 0.056262 0.356657
vt 0.056262 0.298735
vt 0.051726 0.298735
vt 0.053238 0.356657
vt 0.053238 0.298735
vt 0.085527 0.423850
vt 0.087568 0.423850
vt 0.087568 0.423850
vt 0.069004 0.403532
vt 0.068695 0.408225
vt 0.068409 0.408225
vt 0.068537 0.403532
vt 0.051726 0.356657
vt 0.047190 0.298735
vt 0.410089 0.383213
vt 0.410089 0.329985
vt 0.410089 0.329985
vt 0.410089 0.383213
vt 0.420295 0.383213
vt 0.420295 0.329985
vt 0.418254 0.329985
vt 0.418254 0.383213
vt 0.056262 0.356657
vt 0.422337 0.383213
vt 0.422337 0.329985
vt 0.422337 0.329985
vt 0.422337 0.383213
vt 0.054750 0.298735
vt 0.054750 0.356657
vt 0.071802 0.408225
vt 0.072028 0.403532
vt 0.062957 0.403532
vt 0.063183 0.408225
vt 0.063183 0.408225
vt 0.062957 0.403532
vt 0.072028 0.403532
vt 0.071802 0.408225
vt 0.071802 0.408225
vt 0.072028 0.403532
vt 0.067492 0.403532
vt 0.067492 0.408225
vt 0.067492 0.403532
vt 0.067492 0.408225
vt 0.063183 0.408225
vt 0.062957 0.403532
vt 0.063183 0.408225
vt 0.062957 0.403532
vt 0.071802 0.408225
vt 0.072028 0.403532
vt 0.070408 0.408225
vt 0.070002 0.403532
vt 0.086175 0.423850
vt 0.085669 0.423850
vt 0.085552 0.423850
vt 0.085737 0.423850
vt 0.063891 0.403532
vt 0.063755 0.408225
vt 0.083259 0.423850
vt 0.084175 0.423850
vt 0.084461 0.423850
vt 0.450853 0.414463
vt 0.452225 0.414463
vt 0.450184 0.414463
vt 0.449550 0.414463
vt 0.069970 0.408225
vt 0.069570 0.403532
vt 0.069785 0.408225
vt 0.069387 0.403532
vt 0.053803 0.387907
vt 0.053800 0.383213
vt 0.053621 0.387907
vt 0.053619 0.383213
vt 0.065194 0.403532
vt 0.065060 0.408225
vt 0.066535 0.403532
vt 0.066403 0.408225
vt 0.067709 0.403532
vt 0.067579 0.408225
vt 0.051942 0.387907
vt 0.051941 0.383213
vt 0.050768 0.387907
vt 0.050769 0.383213
vt 0.049427 0.387907
vt 0.049430 0.383213
vt 0.069760 0.403532
vt 0.069760 0.408225
vt 0.443285 0.414463
vt 0.442018 0.414463
vt 0.442018 0.414463
vt 0.445080 0.414463
vt 0.065224 0.408225
vt 0.065224 0.403532
vt 0.067492 0.408225
vt 0.067492 0.403532
vt 0.078950 0.423850
vt 0.078950 0.423850
vt 0.080991 0.423850
vt 0.083259 0.423850
vt 0.083259 0.423850
vt 0.448433 0.414463
vt 0.450943 0.414463
vt 0.448142 0.414463
vt 0.445043 0.414463
vt 0.446850 0.414463
vt 0.450698 0.414463
vt 0.087568 0.423850
vt 0.086366 0.423850
vt 0.087568 0.423850
vt 0.078950 0.423850
vt 0.079521 0.423850
vt 0.080827 0.423850
vt 0.082170 0.423850
vt 0.083346 0.423850
vt 0.078950 0.423850
vt 0.056784 0.288250
vt 0.057449 0.288250
vt 0.057813 0.288250
vt 0.055630 0.288250
vt 0.055630 0.288250
vt 0.057813 0.288250
vt 0.057813 0.288250
vt 0.056722 0.288250
vt 0.057085 0.288250
vt 0.056722 0.288250
vt 0.055630 0.288250
vt 0.055630 0.288250
vt 0.057813 0.288250
vn 1.0000 0.0000 0.0000
vn -0.0000 1.0000 -0.0000
vn -0.3001 0.9454 -0.1269
vn 0.0000 -0.0731 -0.9973
vn 0.5000 0.0000 0.8660
vn -1.0000 0.0000 0.0000
vn 0.0000 0.0000 1.0000
vn -0.6124 0.7071 -0.3536
vn -0.3448 0.9225 -0.1733
vn 0.1584 -0.9370 0.3115
vn -0.5000 0.0000 0.8660
vn 0.5000 0.0000 -0.8660
vn 0.6124 0.7071 0.3536
vn 0.5802 0.7188 0.3829
vn 0.5618 0.7247 0.3990
vn -0.5000 0.0000 -0.8660
vn 0.3536 0.7071 -0.6124
vn -0.7071 0.7071 0.0000
vn 0.7071 0.7071 -0.0000
vn -0.3536 0.7071 0.6124
vn -0.0223 0.9225 0.3852
vn -0.1074 0.8273 0.5514
vn 0.0000 0.7071 0.7071
vn -0.3131 0.9497 0.0017
vn -0.1580 0.9497 0.2703
vn 0.3536 0.7071 0.6124
vn -0.3536 0.7071 -0.6124
vn 0.0646 0.7247 0.6860
vn 0.0415 0.7188 0.6940
vn -0.1189 0.9836 0.1354
vn -0.1767 0.9836 0.0353
vn 0.1935 0.7489 0.6338
vn 0.1748 0.7463 0.6423
vn 0.3263 0.7577 0.5652
vn 0.4521 0.7489 0.4845
vn 0.4688 0.7463 0.4725
vn -0.0000 0.7071 -0.7071
vn 0.0000 -1.0000 0.0000
usemtl hexagons_medieval
s 1
f 60/1/1 3/2/1 70/3/1
f 26/4/2 35/5/3 7/6/2
f 3/7/4 34/8/4 27/9/4
f 64/10/5 14/11/5 21/12/5 67/13/5
f 68/14/6 1/15/6 69/16/6
f 38/17/7 44/18/7 2/19/7
f 3/20/2 27/21/2 56/22/2 4/23/2
f 6/24/8 7/25/8 35/26/3 31/27/9
f 18/28/10 43/29/10 39/30/10
f 2/31/6 11/32/6 62/33/6
f 67/13/11 21/12/11 22/34/11 68/14/11
f 4/35/1 64/10/1 63/36/1
f 65/37/12 18/38/12 66/39/12
f 53/40/2 15/41/2 13/42/2
f 18/43/13 19/44/13 48/45/14 43/46/15
f 62/33/16 11/32/16 17/47/16 65/37/16
f 2/31/6 62/33/6 61/48/6
f 2/49/6 61/50/6 69/51/6 1/52/6
f 7/53/12 59/54/12 66/55/12 18/56/12
f 8/57/1 3/2/1 60/1/1
f 4/35/1 14/11/1 64/10/1
f 17/47/12 18/38/12 65/37/12
f 4/58/1 63/59/1 70/60/1 3/61/1
f 22/34/6 1/15/6 68/14/6
f 59/62/12 7/63/12 60/1/12
f 7/25/17 6/24/17 9/64/17 8/65/17
f 2/66/18 10/67/18 12/68/18 11/69/18
f 4/70/19 13/71/19 15/72/19 14/73/19
f 17/74/17 16/75/17 19/44/17 18/43/17
f 21/76/20 20/77/20 23/78/20 22/79/20
f 22/79/18 23/78/18 24/80/18 1/81/18
f 8/65/19 9/64/19 25/82/19 3/83/19
f 30/84/21 34/85/22 3/83/23 25/82/23
f 30/86/21 31/87/9 33/88/24 32/89/25
f 14/73/26 15/72/26 20/77/26 21/76/26
f 11/69/27 12/68/27 16/75/27 17/74/27
f 10/67/23 2/66/23 44/90/28 49/91/29
f 16/92/2 48/93/2 19/94/2
f 26/95/2 7/96/2 18/97/2 39/98/2
f 30/84/21 32/99/25 36/100/30 34/85/22
f 32/99/25 33/101/24 37/102/31 36/100/30
f 33/101/24 31/27/9 35/26/3 37/102/31
f 34/8/22 36/103/30 29/104/2 27/9/2
f 36/103/30 37/105/31 28/106/2 29/104/2
f 37/105/31 35/5/3 26/4/2 28/106/2
f 44/90/28 47/107/32 52/108/33 49/91/29
f 47/107/32 46/109/34 51/110/34 52/108/33
f 46/109/34 45/111/35 50/112/36 51/110/34
f 45/111/35 43/46/15 48/45/14 50/112/36
f 43/29/2 45/113/2 42/114/2 39/30/2
f 45/113/2 46/115/2 41/116/2 42/114/2
f 46/115/2 47/117/2 40/118/2 41/116/2
f 47/117/2 44/18/2 38/17/2 40/118/2
f 56/119/37 53/120/37 13/71/37 4/70/37
f 38/121/2 2/122/2 1/123/2 58/124/2
f 1/81/37 24/80/37 55/125/37 58/126/37
f 58/126/37 55/125/37 54/127/37 57/128/37
f 24/129/2 23/130/2 55/131/2
f 57/128/37 54/127/37 53/120/37 56/119/37
f 55/131/2 20/132/2 54/133/2
f 26/95/2 39/98/2 42/134/2
f 27/21/2 29/135/2 57/136/2 56/22/2
f 40/137/2 58/124/2 57/136/2
f 41/138/2 40/137/2 57/136/2
f 28/139/2 26/95/2 42/134/2 41/138/2
f 53/40/2 20/132/2 15/41/2
f 29/135/2 28/139/2 41/138/2 57/136/2
f 38/121/2 58/124/2 40/137/2
f 54/133/2 20/132/2 53/40/2
f 23/130/2 20/132/2 55/131/2
f 25/140/2 6/141/2 31/87/9 30/86/21
f 9/142/2 6/141/2 25/140/2
f 12/143/2 49/144/2 52/145/2
f 16/92/2 51/146/2 50/147/2
f 12/143/2 51/146/2 16/92/2
f 52/145/2 51/146/2 12/143/2
f 10/148/2 49/144/2 12/143/2
f 50/147/2 48/93/2 16/92/2
f 60/1/12 7/63/12 8/57/12
f 5/149/38 59/150/38 60/151/38
f 5/149/38 61/152/38 62/153/38
f 5/149/38 63/154/38 64/155/38
f 5/149/38 65/156/38 66/157/38
f 5/149/38 66/157/38 59/150/38
f 5/149/38 67/158/38 68/159/38
f 5/149/38 68/159/38 69/160/38
f 5/149/38 69/160/38 61/152/38
f 5/149/38 60/151/38 70/161/38
f 5/149/38 70/161/38 63/154/38
f 5/149/38 64/155/38 67/158/38
f 5/149/38 62/153/38 65/156/38
