# Blender v3.4.1 OBJ File: 'Medieval_Hexagons_Export_1.0_WorldOrigin.blend'
# www.blender.org
mtllib hex_road_L.mtl
o hex_road_L
v 0.333333 -0.050000 0.962250
v 0.666667 -0.050000 0.769800
v -0.333333 -0.050000 -0.962250
v -0.666667 -0.050000 -0.769800
v -1.000000 -0.050000 -0.192450
v -1.000000 -0.050000 0.192450
v 1.000000 -0.050000 0.192450
v 1.000000 -0.050000 -0.192450
v 0.666667 -0.050000 -0.769800
v 0.333333 -0.050000 -0.962250
v -0.666667 -0.050000 0.769800
v -0.333333 -0.050000 0.962250
v -0.000000 -1.000000 0.000000
v 0.265032 0.000000 -0.943949
v -0.000000 -0.050000 -1.154700
v 0.000000 0.000000 -1.096965
v 0.684968 0.000000 0.701499
v 1.000000 -0.050000 0.577350
v 0.950000 0.000000 0.548483
v -0.265032 0.000000 0.943949
v -0.000000 -0.050000 1.154700
v -0.000000 0.000000 1.096965
v -0.684968 0.000000 -0.701499
v -1.000000 -0.050000 -0.577350
v -0.950000 0.000000 -0.548482
v -0.950000 0.000000 0.242450
v -1.000000 -0.050000 0.577350
v -0.950000 0.000000 0.548482
v 0.950000 0.000000 -0.242450
v 1.000000 -0.050000 -0.577350
v 0.950000 0.000000 -0.548482
v 0.265032 0.000000 0.943949
v -0.265032 0.000000 -0.943949
v -0.950000 0.000000 -0.242450
v 0.950000 0.000000 0.242450
v 0.684968 0.000000 -0.701499
v -0.684968 0.000000 0.701499
v -0.443237 -0.050000 -0.382809
v -0.553140 -0.050000 -0.192450
v -0.417734 -0.050000 -0.287629
v -0.457961 -0.050000 -0.217953
v 0.443237 -0.050000 0.382809
v 0.553140 -0.050000 0.192450
v 0.417734 -0.050000 0.287629
v 0.457961 -0.050000 0.217953
v -0.553140 -0.050000 0.192450
v -0.443237 -0.050000 0.382809
v -0.457961 -0.050000 0.217953
v -0.417734 -0.050000 0.287629
v 0.109904 -0.050000 -0.575258
v -0.109904 -0.050000 -0.575259
v 0.040227 -0.050000 -0.505582
v -0.040228 -0.050000 -0.505582
v -0.109904 -0.050000 0.575259
v 0.109904 -0.050000 0.575259
v -0.040228 -0.050000 0.505583
v 0.040227 -0.050000 0.505583
v 0.553140 -0.050000 -0.192450
v 0.443237 -0.050000 -0.382808
v 0.457961 -0.050000 -0.217953
v 0.417734 -0.050000 -0.287629
v -0.643980 0.000000 -0.242450
v -0.531958 0.000000 -0.436478
v -0.546966 0.000000 -0.268445
v -0.505963 0.000000 -0.339464
v -0.554351 -0.050000 -0.192450
v -0.443842 -0.050000 -0.383857
v -0.458648 -0.050000 -0.218094
v -0.418198 -0.050000 -0.288153
v -0.110509 -0.050000 -0.576307
v 0.110509 -0.050000 -0.576307
v -0.040449 -0.050000 -0.506247
v 0.040449 -0.050000 -0.506247
v -0.112022 0.000000 -0.678928
v 0.112022 0.000000 -0.678927
v -0.041003 0.000000 -0.607909
v 0.041003 0.000000 -0.607909
v 0.531958 0.000000 -0.436477
v 0.643979 0.000000 -0.242450
v 0.505963 0.000000 -0.339464
v 0.546966 0.000000 -0.268445
v 0.443842 -0.050000 -0.383857
v 0.554351 -0.050000 -0.192450
v 0.418198 -0.050000 -0.288153
v 0.458647 -0.050000 -0.218094
v 0.643980 0.000000 0.242450
v 0.531958 0.000000 0.436478
v 0.546966 0.000000 0.268445
v 0.505963 0.000000 0.339464
v 0.554351 -0.050000 0.192450
v 0.443842 -0.050000 0.383857
v 0.458647 -0.050000 0.218094
v 0.418198 -0.050000 0.288153
v -0.531958 0.000000 0.436478
v -0.643980 0.000000 0.242450
v -0.505963 0.000000 0.339464
v -0.546966 0.000000 0.268445
v -0.443842 -0.050000 0.383857
v -0.554351 -0.050000 0.192450
v -0.418199 -0.050000 0.288153
v -0.458648 -0.050000 0.218094
v 0.110509 -0.050000 0.576307
v -0.110509 -0.050000 0.576307
v 0.040449 -0.050000 0.506247
v -0.040449 -0.050000 0.506247
v 0.112022 0.000000 0.678928
v -0.112022 0.000000 0.678928
v 0.041003 0.000000 0.607909
v -0.041003 0.000000 0.607909
v -0.000000 -0.050000 0.000000
v -0.000000 -0.050000 -0.360077
v -0.311836 -0.050000 -0.180039
v 0.311836 -0.050000 -0.180039
v 0.311836 -0.050000 0.180039
v -0.000000 -0.050000 0.360077
v -0.311836 -0.050000 0.180039
v 0.333333 -1.000000 -0.962250
v 0.000000 -1.000000 -1.154700
v 0.666667 -1.000000 0.769800
v 1.000000 -1.000000 0.577350
v -0.333333 -1.000000 0.962250
v -0.000000 -1.000000 1.154700
v -0.666667 -1.000000 -0.769800
v -1.000000 -1.000000 -0.577350
v -1.000000 -1.000000 0.192450
v -1.000000 -1.000000 0.577350
v 1.000000 -1.000000 -0.192450
v 1.000000 -1.000000 -0.577350
v 0.333333 -1.000000 0.962250
v -0.333333 -1.000000 -0.962250
v -1.000000 -1.000000 -0.192450
v 1.000000 -1.000000 0.192450
v 0.666667 -1.000000 -0.769800
v -0.666667 -1.000000 0.769800
vt 0.047190 0.298735
vt 0.047190 0.298735
vt 0.047190 0.356657
vt 0.069004 0.403532
vt 0.067994 0.403532
vt 0.068001 0.408225
vt 0.068695 0.408225
vt 0.056262 0.383213
vt 0.054235 0.383213
vt 0.054240 0.387907
vt 0.062957 0.403532
vt 0.064978 0.403532
vt 0.064571 0.408225
vt 0.063183 0.408225
vt 0.051726 0.356657
vt 0.051726 0.298735
vt 0.053238 0.356657
vt 0.448815 0.414463
vt 0.450184 0.414463
vt 0.452225 0.414463
vt 0.450857 0.414463
vt 0.047190 0.383213
vt 0.049217 0.383213
vt 0.049211 0.387907
vt 0.053736 0.383213
vt 0.054750 0.387907
vt 0.053739 0.387907
vt 0.048702 0.383213
vt 0.049715 0.383213
vt 0.049713 0.387907
vt 0.052224 0.383213
vt 0.053238 0.387907
vt 0.052227 0.387907
vt 0.451530 0.414463
vt 0.454266 0.414463
vt 0.454266 0.414463
vt 0.451530 0.414463
vt 0.054235 0.383213
vt 0.056262 0.387907
vt 0.054240 0.387907
vt 0.054750 0.383213
vt 0.053736 0.383213
vt 0.053739 0.387907
vt 0.445428 0.414463
vt 0.444060 0.414463
vt 0.446101 0.414463
vt 0.447469 0.414463
vt 0.053238 0.383213
vt 0.052224 0.383213
vt 0.052227 0.387907
vt 0.070599 0.408225
vt 0.069905 0.408225
vt 0.069506 0.403532
vt 0.070516 0.403532
vt 0.051227 0.383213
vt 0.050214 0.387907
vt 0.051225 0.387907
vt 0.448142 0.414463
vt 0.446233 0.414463
vt 0.445584 0.414463
vt 0.447896 0.414463
vt 0.047190 0.356657
vt 0.047190 0.298735
vt 0.047190 0.298735
vt 0.048702 0.356657
vt 0.048702 0.298735
vt 0.053238 0.298735
vt 0.069905 0.408225
vt 0.070599 0.408225
vt 0.070516 0.403532
vt 0.069506 0.403532
vt 0.051726 0.298735
vt 0.050214 0.298735
vt 0.050214 0.356657
vt 0.050214 0.356657
vt 0.050214 0.298735
vt 0.063183 0.408225
vt 0.064571 0.408225
vt 0.064978 0.403532
vt 0.062957 0.403532
vt 0.048702 0.298735
vt 0.048702 0.356657
vt 0.050214 0.383213
vt 0.051227 0.383213
vt 0.051225 0.387907
vt 0.056262 0.356657
vt 0.056262 0.298735
vt 0.056262 0.298735
vt 0.049217 0.383213
vt 0.047190 0.387907
vt 0.049211 0.387907
vt 0.056262 0.298735
vt 0.056262 0.298735
vt 0.056262 0.356657
vt 0.067994 0.403532
vt 0.069004 0.403532
vt 0.068695 0.408225
vt 0.068001 0.408225
vt 0.054750 0.298735
vt 0.054750 0.356657
vt 0.054750 0.356657
vt 0.054750 0.298735
vt 0.422337 0.383213
vt 0.422337 0.383213
vt 0.422337 0.329985
vt 0.422337 0.329985
vt 0.047190 0.356657
vt 0.414171 0.383213
vt 0.412130 0.383213
vt 0.412130 0.329985
vt 0.414171 0.329985
vt 0.412130 0.383213
vt 0.414171 0.383213
vt 0.414171 0.329985
vt 0.412130 0.329985
vt 0.047190 0.356657
vt 0.410089 0.383213
vt 0.410089 0.383213
vt 0.410089 0.329985
vt 0.410089 0.329985
vt 0.418254 0.383213
vt 0.420295 0.383213
vt 0.420295 0.329985
vt 0.418254 0.329985
vt 0.420295 0.383213
vt 0.418254 0.383213
vt 0.418254 0.329985
vt 0.420295 0.329985
vt 0.067492 0.403532
vt 0.067492 0.408225
vt 0.072028 0.403532
vt 0.071802 0.408225
vt 0.065980 0.403532
vt 0.067492 0.403532
vt 0.067492 0.408225
vt 0.066290 0.408225
vt 0.064469 0.403532
vt 0.062957 0.403532
vt 0.063183 0.408225
vt 0.064386 0.408225
vt 0.062957 0.403532
vt 0.063183 0.408225
vt 0.072028 0.403532
vt 0.072028 0.403532
vt 0.071802 0.408225
vt 0.071802 0.408225
vt 0.065980 0.403532
vt 0.066290 0.408225
vt 0.080846 0.423850
vt 0.080338 0.423850
vt 0.080778 0.423850
vt 0.080964 0.423850
vt 0.082751 0.423850
vt 0.083073 0.423850
vt 0.083445 0.423850
vt 0.083767 0.423850
vt 0.072028 0.403532
vt 0.071802 0.408225
vt 0.085672 0.423850
vt 0.085554 0.423850
vt 0.085740 0.423850
vt 0.086180 0.423850
vt 0.065479 0.403532
vt 0.065080 0.408225
vt 0.070413 0.408225
vt 0.070007 0.403532
vt 0.087568 0.423850
vt 0.086366 0.423850
vt 0.087568 0.423850
vt 0.064469 0.403532
vt 0.064386 0.408225
vt 0.065479 0.403532
vt 0.065080 0.408225
vt 0.078950 0.423850
vt 0.078950 0.423850
vt 0.080152 0.423850
vt 0.066984 0.408225
vt 0.066991 0.403532
vt 0.066984 0.408225
vt 0.066991 0.403532
vt 0.083767 0.423850
vt 0.083445 0.423850
vt 0.083073 0.423850
vt 0.082751 0.423850
vt 0.070007 0.403532
vt 0.070413 0.408225
vt 0.450052 0.414463
vt 0.448389 0.414463
vt 0.450701 0.414463
vt 0.446233 0.414463
vt 0.445584 0.414463
vt 0.445338 0.414463
vt 0.447896 0.414463
vt 0.448142 0.414463
vt 0.445338 0.414463
vt 0.448389 0.414463
vt 0.450947 0.414463
vt 0.450052 0.414463
vt 0.450947 0.414463
vt 0.447469 0.414463
vt 0.445428 0.414463
vt 0.448815 0.414463
vt 0.450701 0.414463
vt 0.450857 0.414463
vt 0.444755 0.414463
vt 0.444755 0.414463
vt 0.065412 0.403532
vt 0.065011 0.408225
vt 0.065596 0.403532
vt 0.065197 0.408225
vt 0.067678 0.408225
vt 0.067676 0.403532
vt 0.067306 0.408225
vt 0.067309 0.403532
vt 0.069389 0.403532
vt 0.069787 0.408225
vt 0.069573 0.403532
vt 0.069973 0.408225
vt 0.069573 0.403532
vt 0.069973 0.408225
vt 0.069389 0.403532
vt 0.069787 0.408225
vt 0.065596 0.403532
vt 0.065197 0.408225
vt 0.065412 0.403532
vt 0.065011 0.408225
vt 0.067306 0.408225
vt 0.067309 0.403532
vt 0.067678 0.408225
vt 0.067676 0.403532
vt 0.051543 0.383213
vt 0.051542 0.387907
vt 0.051908 0.383213
vt 0.051909 0.387907
vt 0.053803 0.383213
vt 0.053806 0.387907
vt 0.053621 0.383213
vt 0.053623 0.387907
vt 0.051908 0.383213
vt 0.051909 0.387907
vt 0.051543 0.383213
vt 0.051542 0.387907
vt 0.049649 0.383213
vt 0.049646 0.387907
vt 0.049831 0.383213
vt 0.049829 0.387907
vt 0.049715 0.383213
vt 0.049713 0.387907
vt 0.049831 0.383213
vt 0.049829 0.387907
vt 0.049649 0.383213
vt 0.049646 0.387907
vt 0.053621 0.383213
vt 0.053623 0.387907
vt 0.053803 0.383213
vt 0.053806 0.387907
vt 0.048702 0.387907
vt 0.078950 0.423850
vt 0.080152 0.423850
vt 0.078950 0.423850
vt 0.083259 0.423850
vt 0.082057 0.423850
vt 0.084461 0.423850
vt 0.086366 0.423850
vt 0.087568 0.423850
vt 0.087568 0.423850
vt 0.086180 0.423850
vt 0.085740 0.423850
vt 0.085554 0.423850
vt 0.085672 0.423850
vt 0.084461 0.423850
vt 0.082057 0.423850
vt 0.083259 0.423850
vt 0.080338 0.423850
vt 0.080846 0.423850
vt 0.080778 0.423850
vt 0.080964 0.423850
vt 0.450184 0.414463
vt 0.452225 0.414463
vt 0.444060 0.414463
vt 0.446101 0.414463
vt 0.442018 0.414463
vt 0.442018 0.414463
vt 0.448142 0.414463
vt 0.051726 0.356657
vt 0.053238 0.356657
vt 0.053238 0.298735
vt 0.056262 0.356657
vt 0.056262 0.356657
vt 0.066544 0.288250
vt 0.066544 0.288250
vt 0.066908 0.288250
vt 0.067636 0.288250
vt 0.067272 0.288250
vt 0.066544 0.288250
vt 0.066181 0.288250
vt 0.065453 0.288250
vt 0.065817 0.288250
vt 0.065453 0.288250
vt 0.065453 0.288250
vt 0.067636 0.288250
vt 0.067636 0.288250
vt 0.066908 0.288250
vt 0.066181 0.288250
vt 0.065453 0.288250
vt 0.067636 0.288250
vt 0.067272 0.288250
vt 0.065817 0.288250
vn -1.0000 0.0000 0.0000
vn 0.6124 0.7071 -0.3536
vn 0.4238 0.8273 -0.3687
vn 0.3225 0.9225 -0.2119
vn 0.0000 -0.0364 0.9993
vn 0.0000 0.7071 0.7071
vn 0.1074 0.8273 0.5514
vn 0.0223 0.9225 0.3852
vn 0.5000 0.0000 0.8660
vn 0.0000 1.0000 -0.0000
vn 0.0000 0.0080 1.0000
vn 0.2889 0.9532 0.0891
vn 1.0000 0.0000 0.0000
vn 0.0000 -1.0000 0.0000
vn -0.3907 -0.9149 -0.1015
vn 0.1696 -0.9846 0.0432
vn -0.6124 0.7071 0.3536
vn -0.3448 0.9225 0.1733
vn -0.5312 0.8273 0.1827
vn -0.0963 -0.9954 0.0000
vn -0.5000 0.0000 -0.8660
vn -0.3448 0.9225 -0.1733
vn -0.6124 0.7071 -0.3536
vn -0.5312 0.8273 -0.1827
vn -0.5000 0.0000 0.8660
vn -0.0000 0.7071 -0.7071
vn 0.0223 0.9225 -0.3852
vn 0.1074 0.8273 -0.5514
vn -0.0001 1.0000 -0.0001
vn -0.3383 0.9380 0.0760
vn 0.0000 0.0048 -1.0000
vn 0.4238 0.8273 0.3687
vn 0.6124 0.7071 0.3536
vn 0.3225 0.9225 0.2119
vn 0.5000 0.0000 -0.8660
vn 0.3536 0.7071 -0.6124
vn 0.3536 0.7071 0.6124
vn -0.3536 0.7071 0.6124
vn -0.3536 0.7071 -0.6124
vn -0.7071 0.7071 -0.0000
vn 0.7071 0.7071 0.0000
vn 0.3448 0.9225 -0.1733
vn 0.1580 0.9497 0.2703
vn 0.3131 0.9497 0.0017
vn -0.3225 0.9225 0.2119
vn -0.1551 0.9497 0.2720
vn 0.1551 0.9497 0.2720
vn -0.3131 0.9497 0.0017
vn -0.1580 0.9497 0.2703
vn -0.0223 0.9225 0.3852
vn 0.5312 0.8273 -0.1827
vn -0.0223 0.9225 -0.3852
vn -0.1074 0.8273 -0.5514
vn 0.3448 0.9225 0.1733
vn -0.3225 0.9225 -0.2119
vn -0.4238 0.8273 -0.3687
vn 0.1551 0.9497 -0.2720
vn -0.1551 0.9497 -0.2720
vn -0.1074 0.8273 0.5514
vn 0.1189 0.9836 0.1354
vn 0.1767 0.9836 0.0353
vn 0.0578 0.9836 0.1707
vn -0.0578 0.9836 0.1707
vn -0.1767 0.9836 0.0353
vn -0.1189 0.9836 0.1354
vn -0.1189 0.9836 -0.1354
vn -0.1580 0.9497 -0.2703
vn -0.1767 0.9836 -0.0353
vn -0.3131 0.9497 -0.0017
vn 0.1767 0.9836 -0.0353
vn 0.3131 0.9497 -0.0017
vn 0.1189 0.9836 -0.1354
vn 0.1580 0.9497 -0.2703
vn -0.0578 0.9836 -0.1707
vn 0.0578 0.9836 -0.1707
usemtl hexagons_medieval
s 1
f 124/1/1 131/2/1 5/3/1
f 1/4/2 102/5/3 106/6/4 32/7/2
f 7/8/5 43/9/5 90/10/5
f 5/11/6 66/12/7 62/13/8 34/14/6
f 21/15/9 122/16/9 1/17/9
f 55/18/10 1/19/10 2/20/10 42/21/10
f 5/22/11 39/23/11 66/24/11
f 42/25/1 2/26/1 91/27/1
f 11/28/10 47/29/10 98/30/12
f 50/31/13 10/32/13 71/33/13
f 43/34/10 7/35/10 8/36/10 58/37/10
f 58/38/14 8/39/14 83/40/14
f 9/41/15 59/42/15 82/43/15
f 47/44/10 11/45/10 12/46/10 54/47/10
f 1/48/16 55/49/16 102/50/16
f 17/51/17 87/52/18 91/53/19 2/54/17
f 54/55/20 12/56/20 103/57/20
f 115/58/10 116/59/10 49/60/10 56/61/10
f 6/62/1 125/63/1 126/64/1
f 4/65/21 123/66/21 124/1/21
f 122/16/9 129/67/9 1/17/9
f 78/68/22 36/69/23 9/70/23 82/71/24
f 118/72/21 130/73/21 3/74/21
f 12/75/25 121/76/25 122/16/25
f 26/77/26 95/78/27 99/79/28 6/80/26
f 126/64/25 134/81/25 11/82/25
f 3/83/29 51/84/10 70/85/30
f 8/86/13 127/87/13 128/88/13
f 46/89/31 6/90/31 99/91/31
f 120/92/13 132/93/13 7/94/13
f 71/95/32 10/96/33 14/97/33 75/98/34
f 128/88/35 133/99/35 9/100/35
f 12/75/25 122/16/25 21/15/25
f 2/101/9 119/102/9 120/92/9
f 8/103/13 7/104/13 132/105/13 127/106/13
f 4/65/21 124/1/21 24/107/21
f 12/108/25 11/109/25 134/110/25 121/111/25
f 4/112/21 3/113/21 130/114/21 123/115/21
f 24/107/1 124/1/1 5/3/1
f 27/116/25 126/64/25 11/82/25
f 6/117/1 5/118/1 131/119/1 125/120/1
f 10/121/35 9/122/35 133/123/35 117/124/35
f 6/62/1 126/64/1 27/116/1
f 2/125/9 1/126/9 129/127/9 119/128/9
f 10/96/36 15/129/36 16/130/36 14/97/36
f 2/54/37 18/131/37 19/132/37 17/51/37
f 12/133/38 21/134/38 22/135/38 20/136/38
f 4/137/39 24/138/39 25/139/39 23/140/39
f 6/80/40 27/141/40 28/142/40 26/77/40
f 8/143/41 30/144/41 31/145/41 29/146/41
f 21/134/37 1/4/37 32/7/37 22/135/37
f 15/129/39 3/147/39 33/148/39 16/130/39
f 63/149/42 62/150/8 64/151/43 65/152/44
f 74/153/45 76/154/46 77/155/47 75/156/34
f 24/138/40 5/11/40 34/14/40 25/139/40
f 18/131/41 7/157/41 35/158/41 19/132/41
f 78/159/22 80/160/48 81/161/49 79/162/50
f 67/163/51 4/137/2 23/140/2 63/164/42
f 86/165/52 35/158/26 7/157/26 90/166/53
f 35/167/10 17/168/10 19/169/10
f 30/144/36 9/70/36 36/69/36 31/145/36
f 27/141/38 11/170/38 37/171/38 28/142/38
f 11/170/33 98/172/12 94/173/54 37/171/33
f 26/174/10 28/175/10 37/176/10
f 74/177/45 33/148/17 3/147/17 70/178/30
f 20/136/23 107/179/55 103/180/56 12/133/23
f 106/181/4 108/182/57 109/183/58 107/184/55
f 83/185/59 8/143/6 29/146/6 79/186/50
f 114/187/10 115/58/10 57/188/10 44/189/10
f 112/190/10 40/191/10 41/192/10
f 53/193/10 40/191/10 112/190/10 111/194/10
f 116/59/10 48/195/10 49/60/10
f 52/196/10 53/193/10 111/194/10
f 60/197/10 113/198/10 114/187/10 45/199/10
f 40/191/10 53/193/10 51/200/10 38/201/10
f 60/197/10 45/199/10 43/34/10 58/37/10
f 50/202/10 52/196/10 61/203/10 59/204/10
f 48/195/10 41/192/10 39/205/10 46/206/10
f 56/61/10 49/60/10 47/44/10 54/47/10
f 44/189/10 57/188/10 55/18/10 42/21/10
f 62/13/8 66/12/7 68/207/60 64/208/43
f 64/208/43 68/207/60 69/209/61 65/210/44
f 65/210/44 69/209/61 67/163/51 63/164/42
f 71/95/32 75/98/34 77/211/47 73/212/62
f 73/212/62 77/211/47 76/213/46 72/214/63
f 72/214/63 76/213/46 74/177/45 70/178/30
f 78/68/22 82/71/24 84/215/64 80/216/48
f 80/216/48 84/215/64 85/217/65 81/218/49
f 81/218/49 85/217/65 83/185/59 79/186/50
f 86/165/52 90/166/53 92/219/66 88/220/67
f 88/220/67 92/219/66 93/221/68 89/222/69
f 89/222/69 93/221/68 91/53/19 87/52/18
f 94/173/54 98/172/12 100/223/70 96/224/71
f 96/224/71 100/223/70 101/225/72 97/226/73
f 97/226/73 101/225/72 99/79/28 95/78/27
f 103/180/56 107/179/55 109/227/58 105/228/74
f 105/228/74 109/227/58 108/229/57 104/230/75
f 104/230/75 108/229/57 106/6/4 102/5/3
f 70/85/30 51/84/10 53/231/10 72/232/63
f 72/232/63 53/231/10 52/233/10 73/234/62
f 73/234/62 52/233/10 50/31/10 71/33/32
f 90/10/53 43/9/10 45/235/10 92/236/66
f 92/236/66 45/235/10 44/237/10 93/238/68
f 93/238/68 44/237/10 42/25/10 91/27/19
f 102/50/3 55/49/10 57/239/10 104/240/75
f 104/240/75 57/239/10 56/241/10 105/242/74
f 105/242/74 56/241/10 54/55/10 103/57/56
f 66/24/7 39/23/10 41/243/10 68/244/60
f 68/244/60 41/243/10 40/245/10 69/246/61
f 69/246/61 40/245/10 38/247/10 67/248/51
f 98/30/12 47/29/10 49/249/10 100/250/70
f 100/250/70 49/249/10 48/251/10 101/252/72
f 101/252/72 48/251/10 46/89/10 99/91/28
f 82/43/24 59/42/10 61/253/10 84/254/64
f 84/254/64 61/253/10 60/255/10 85/256/65
f 85/256/65 60/255/10 58/38/10 83/40/59
f 38/247/13 4/257/13 67/248/13
f 34/258/10 62/150/8 63/149/42 23/259/10
f 25/260/10 34/258/10 23/259/10
f 16/261/10 33/262/10 14/263/10
f 33/262/10 74/153/45 75/156/34 14/263/10
f 36/264/10 78/159/22 79/162/50 29/265/10
f 31/266/10 36/264/10 29/265/10
f 86/267/52 88/268/67 89/269/69 87/270/18
f 35/167/10 86/267/52 87/270/18 17/168/10
f 32/271/10 106/181/4 107/184/55 20/272/10
f 22/273/10 32/271/10 20/272/10
f 95/274/27 26/174/10 37/176/10 94/275/54
f 97/276/73 95/274/27 94/275/54 96/277/71
f 116/59/10 112/190/10 41/192/10 48/195/10
f 115/58/10 56/61/10 57/188/10
f 10/278/10 50/202/10 59/204/10 9/279/10
f 4/280/10 38/201/10 51/200/10 3/281/29
f 5/282/10 6/283/10 46/206/10 39/205/10
f 45/199/10 114/187/10 44/189/10
f 61/203/10 52/196/10 111/194/10 113/198/10
f 61/203/10 113/198/10 60/197/10
f 110/284/10 111/194/10 112/190/10
f 110/284/10 113/198/10 111/194/10
f 110/284/10 114/187/10 113/198/10
f 110/284/10 115/58/10 114/187/10
f 110/284/10 116/59/10 115/58/10
f 110/284/10 112/190/10 116/59/10
f 118/72/35 15/285/35 10/286/35
f 15/285/21 118/72/21 3/74/21
f 117/287/35 118/72/35 10/286/35
f 30/288/35 128/88/35 9/100/35
f 8/86/13 128/88/13 30/288/13
f 18/289/13 120/92/13 7/94/13
f 2/101/9 120/92/9 18/289/9
f 13/290/14 118/291/14 117/292/14
f 13/290/14 120/293/14 119/294/14
f 13/290/14 122/295/14 121/296/14
f 13/290/14 124/297/14 123/298/14
f 13/290/14 126/299/14 125/300/14
f 13/290/14 128/301/14 127/302/14
f 13/290/14 129/303/14 122/295/14
f 13/290/14 119/294/14 129/303/14
f 13/290/14 130/304/14 118/291/14
f 13/290/14 123/298/14 130/304/14
f 13/290/14 131/305/14 124/297/14
f 13/290/14 125/300/14 131/305/14
f 13/290/14 132/306/14 120/293/14
f 13/290/14 127/302/14 132/306/14
f 13/290/14 133/307/14 128/301/14
f 13/290/14 117/292/14 133/307/14
f 13/290/14 134/308/14 126/299/14
f 13/290/14 121/296/14 134/308/14
