# Blender v3.4.1 OBJ File: 'Medieval_Hexagons_Export_1.0_WorldOrigin.blend'
# www.blender.org
mtllib hex_road_G.mtl
o hex_road_G
v -0.333333 -0.050000 -0.962250
v -0.666667 -0.050000 -0.769800
v -1.000000 -0.050000 0.192450
v -0.666667 -0.050000 0.769800
v -0.333333 -0.050000 0.962250
v 0.000000 -1.000000 0.000000
v -0.265032 0.000000 0.943949
v -0.000000 -0.050000 1.154700
v -0.000000 0.000000 1.096965
v -0.684968 0.000000 -0.701499
v -1.000000 -0.050000 -0.577350
v -0.950000 0.000000 -0.548482
v -0.950000 0.000000 0.242450
v -1.000000 -0.050000 0.577350
v -0.950000 0.000000 0.548482
v 1.000000 -0.050000 0.577350
v 0.950000 0.000000 0.548483
v 0.000000 0.000000 -1.096965
v -0.000000 -0.050000 -1.154700
v -0.265032 0.000000 -0.943949
v -1.000000 -0.050000 -0.192450
v -0.950000 0.000000 -0.242450
v 1.000000 -0.050000 -0.577350
v 0.950000 0.000000 -0.548482
v -0.684968 0.000000 0.701499
v -0.240236 -0.050000 0.801001
v -0.240236 -0.050000 -0.801001
v -0.098464 -0.050000 0.433499
v -0.048680 -0.050000 0.000000
v -0.098464 -0.050000 -0.433499
v -0.240871 -0.050000 -0.802101
v -0.240872 -0.050000 0.802101
v -0.098904 -0.050000 -0.434094
v -0.049052 -0.050000 -0.000000
v -0.098904 -0.050000 0.434094
v -0.183877 0.000000 -0.803385
v -0.183877 -0.000000 0.803385
v -0.041683 0.000000 -0.434789
v 0.008249 -0.000000 -0.000000
v -0.041683 -0.000000 0.434789
v -0.443240 -0.050000 -0.382814
v -0.553147 -0.050000 -0.192450
v -0.417736 -0.050000 -0.287632
v -0.457965 -0.050000 -0.217954
v -0.553147 -0.050000 0.192450
v -0.443240 -0.050000 0.382814
v -0.457965 -0.050000 0.217954
v -0.417736 -0.050000 0.287632
v -0.643987 0.000000 -0.242450
v -0.531961 0.000000 -0.436484
v -0.546970 0.000000 -0.268446
v -0.505966 0.000000 -0.339467
v -0.554358 -0.050000 -0.192450
v -0.443846 -0.050000 -0.383863
v -0.458651 -0.050000 -0.218094
v -0.418201 -0.050000 -0.288156
v -0.531961 0.000000 0.436483
v -0.643987 0.000000 0.242450
v -0.505966 0.000000 0.339467
v -0.546970 0.000000 0.268446
v -0.443846 -0.050000 0.383863
v -0.554358 -0.050000 0.192450
v -0.418201 -0.050000 0.288156
v -0.458651 -0.050000 0.218094
v -0.333333 -1.000000 0.962250
v -0.000000 -1.000000 1.154700
v -0.666667 -1.000000 -0.769800
v -1.000000 -1.000000 -0.577350
v -1.000000 -1.000000 0.192450
v -1.000000 -1.000000 0.577350
v 1.000000 -1.000000 0.577350
v 0.000000 -1.000000 -1.154700
v -0.333333 -1.000000 -0.962250
v -1.000000 -1.000000 -0.192450
v 1.000000 -1.000000 -0.577350
v -0.666667 -1.000000 0.769800
vt 0.050636 0.383213
vt 0.050214 0.387907
vt 0.050633 0.387907
vt 0.051726 0.298735
vt 0.056262 0.298735
vt 0.056262 0.356657
vt 0.051726 0.356657
vt 0.078950 0.423850
vt 0.080338 0.423850
vt 0.080846 0.423850
vt 0.080152 0.423850
vt 0.047190 0.383213
vt 0.049217 0.383213
vt 0.049211 0.387907
vt 0.051726 0.356657
vt 0.051726 0.298735
vt 0.050214 0.356657
vt 0.056262 0.298735
vt 0.056262 0.356657
vt 0.445584 0.414463
vt 0.445338 0.414463
vt 0.445338 0.414463
vt 0.445584 0.414463
vt 0.447844 0.414463
vt 0.446671 0.414463
vt 0.447539 0.414463
vt 0.445428 0.414463
vt 0.050214 0.383213
vt 0.050636 0.383213
vt 0.050633 0.387907
vt 0.063183 0.408225
vt 0.064571 0.408225
vt 0.064978 0.403532
vt 0.062957 0.403532
vt 0.047190 0.298735
vt 0.047190 0.298735
vt 0.047190 0.356657
vt 0.062957 0.403532
vt 0.064978 0.403532
vt 0.064571 0.408225
vt 0.063183 0.408225
vt 0.047190 0.356657
vt 0.047190 0.298735
vt 0.047190 0.298735
vt 0.445428 0.414463
vt 0.447539 0.414463
vt 0.446671 0.414463
vt 0.066290 0.408225
vt 0.066658 0.408225
vt 0.066400 0.403532
vt 0.065980 0.403532
vt 0.048702 0.298735
vt 0.048702 0.356657
vt 0.050214 0.298735
vt 0.050214 0.298735
vt 0.050214 0.356657
vt 0.047190 0.356657
vt 0.410089 0.383213
vt 0.410089 0.383213
vt 0.410089 0.329985
vt 0.410089 0.329985
vt 0.412130 0.383213
vt 0.414171 0.383213
vt 0.414171 0.329985
vt 0.412130 0.329985
vt 0.048702 0.356657
vt 0.047190 0.356657
vt 0.414171 0.383213
vt 0.412130 0.383213
vt 0.412130 0.329985
vt 0.414171 0.329985
vt 0.048702 0.298735
vt 0.067492 0.403532
vt 0.067492 0.408225
vt 0.064469 0.403532
vt 0.062957 0.403532
vt 0.063183 0.408225
vt 0.064386 0.408225
vt 0.062957 0.403532
vt 0.063183 0.408225
vt 0.072028 0.403532
vt 0.071802 0.408225
vt 0.067492 0.403532
vt 0.065980 0.403532
vt 0.066290 0.408225
vt 0.067492 0.408225
vt 0.080778 0.423850
vt 0.080964 0.423850
vt 0.072028 0.403532
vt 0.071802 0.408225
vt 0.065479 0.403532
vt 0.065080 0.408225
vt 0.064469 0.403532
vt 0.064386 0.408225
vt 0.065479 0.403532
vt 0.065080 0.408225
vt 0.080338 0.423850
vt 0.080846 0.423850
vt 0.080964 0.423850
vt 0.080778 0.423850
vt 0.082425 0.423850
vt 0.083259 0.423850
vt 0.082057 0.423850
vt 0.066658 0.408225
vt 0.066400 0.403532
vt 0.049217 0.383213
vt 0.047190 0.387907
vt 0.049211 0.387907
vt 0.067303 0.408225
vt 0.067044 0.403532
vt 0.067530 0.408225
vt 0.067270 0.403532
vt 0.067303 0.408225
vt 0.067044 0.403532
vt 0.051279 0.383213
vt 0.051277 0.387907
vt 0.051505 0.383213
vt 0.051503 0.387907
vt 0.051279 0.383213
vt 0.051277 0.387907
vt 0.048702 0.383213
vt 0.049715 0.383213
vt 0.049713 0.387907
vt 0.444755 0.414463
vt 0.444755 0.414463
vt 0.065412 0.403532
vt 0.065011 0.408225
vt 0.065596 0.403532
vt 0.065197 0.408225
vt 0.065596 0.403532
vt 0.065197 0.408225
vt 0.065412 0.403532
vt 0.065011 0.408225
vt 0.049649 0.383213
vt 0.049646 0.387907
vt 0.049831 0.383213
vt 0.049829 0.387907
vt 0.049715 0.383213
vt 0.049713 0.387907
vt 0.049831 0.383213
vt 0.049829 0.387907
vt 0.049649 0.383213
vt 0.049646 0.387907
vt 0.048702 0.387907
vt 0.442018 0.414463
vt 0.442018 0.414463
vt 0.446101 0.414463
vt 0.444060 0.414463
vt 0.444060 0.414463
vt 0.446101 0.414463
vt 0.078950 0.423850
vt 0.078950 0.423850
vt 0.080152 0.423850
vt 0.078950 0.423850
vt 0.082057 0.423850
vt 0.083259 0.423850
vt 0.082425 0.423850
vt 0.087568 0.423850
vt 0.083296 0.423850
vt 0.083070 0.423850
vt 0.087568 0.423850
vt 0.083070 0.423850
vt 0.066296 0.288250
vt 0.066544 0.288250
vt 0.066181 0.288250
vt 0.065453 0.288250
vt 0.065817 0.288250
vt 0.065453 0.288250
vt 0.065453 0.288250
vt 0.067636 0.288250
vt 0.066181 0.288250
vt 0.066544 0.288250
vt 0.065453 0.288250
vt 0.067636 0.288250
vt 0.065817 0.288250
vn -0.0000 -1.0000 0.0000
vn -0.0804 -0.9968 0.0000
vn -0.0766 -0.9971 0.0000
vn 0.5000 0.0000 0.8660
vn -0.0000 1.0000 0.0000
vn 0.0223 0.9225 0.3852
vn 0.3448 0.9225 -0.1733
vn 0.0000 0.0048 1.0000
vn -0.5000 0.0000 -0.8660
vn 1.0000 0.0000 0.0000
vn -0.2494 0.9576 0.1440
vn -0.4074 0.8978 0.1672
vn -0.0000 0.7071 -0.7071
vn 0.0223 0.9225 -0.3852
vn 0.0561 0.9559 -0.2882
vn -1.0000 0.0000 0.0000
vn 0.0000 0.7071 0.7071
vn 0.1074 0.8273 0.5514
vn -0.6124 0.7071 -0.3536
vn -0.6277 0.7229 -0.2887
vn -0.6229 0.7181 -0.3104
vn -0.5000 0.0000 0.8660
vn 0.5000 0.0000 -0.8660
vn -0.3536 0.7071 0.6124
vn -0.3536 0.7071 -0.6124
vn -0.7071 0.7071 -0.0000
vn 0.3536 0.7071 0.6124
vn 0.1580 0.9497 0.2703
vn 0.3131 0.9497 0.0017
vn 0.7071 0.7071 0.0000
vn 0.3020 0.9512 -0.0627
vn 0.6124 0.7071 -0.3536
vn 0.3536 0.7071 -0.6124
vn 0.6124 0.7071 0.3536
vn 0.5312 0.8273 0.1827
vn 0.3448 0.9225 0.1733
vn 0.3131 0.9497 -0.0017
vn 0.1580 0.9497 -0.2703
vn -0.6277 0.7229 0.2887
vn -0.6124 0.7071 0.3536
vn -0.6494 0.7453 -0.1510
vn -0.6473 0.7431 -0.1697
vn -0.6575 0.7535 -0.0000
vn -0.6494 0.7453 0.1510
vn -0.6473 0.7431 0.1697
vn 0.0558 -0.9975 0.0433
vn 0.1189 0.9836 0.1354
vn 0.1767 0.9836 0.0353
vn 0.1767 0.9836 -0.0353
vn 0.1189 0.9836 -0.1354
usemtl hexagons_medieval
s 1
f 26/1/1 5/2/2 32/3/3
f 66/4/4 71/5/4 16/6/4 8/7/4
f 22/8/5 49/9/6 50/10/7 10/11/5
f 21/12/8 42/13/8 53/14/8
f 19/15/9 72/16/9 1/17/9
f 71/5/10 75/18/10 23/19/10 16/6/10
f 43/20/5 44/21/5 47/22/5 48/23/5 29/24/5
f 26/25/5 28/26/5 46/27/5
f 1/28/11 27/29/5 31/30/12
f 13/31/13 58/32/14 62/33/15 3/34/13
f 68/35/16 74/36/16 21/37/16
f 21/38/17 53/39/18 49/40/6 22/41/17
f 3/42/16 69/43/16 70/44/16
f 41/45/5 30/46/5 27/47/5
f 7/48/19 37/49/20 32/50/21 5/51/19
f 70/44/22 76/52/22 4/53/22
f 72/16/9 73/54/9 1/17/9
f 75/18/23 72/16/23 19/15/23 23/19/23
f 65/55/22 66/4/22 5/56/22
f 11/57/16 68/35/16 21/37/16
f 3/58/16 21/59/16 74/60/16 69/61/16
f 2/62/9 1/63/9 73/64/9 67/65/9
f 2/66/9 68/35/9 11/57/9
f 3/42/16 70/44/16 14/67/16
f 5/68/22 4/69/22 76/70/22 65/71/22
f 2/66/9 67/72/9 68/35/9
f 14/67/22 70/44/22 4/53/22
f 5/51/24 8/73/24 9/74/24 7/48/24
f 2/75/25 11/76/25 12/77/25 10/78/25
f 3/34/26 14/79/26 15/80/26 13/31/26
f 8/73/27 16/81/27 17/82/27 9/74/27
f 19/83/25 1/84/25 20/85/25 18/86/25
f 50/10/7 49/9/6 51/87/28 52/88/29
f 11/76/26 21/38/26 22/41/26 12/77/26
f 16/81/30 23/89/30 24/90/30 17/82/30
f 54/91/31 2/75/32 10/78/32 50/92/7
f 23/89/33 19/83/33 18/86/33 24/90/33
f 14/79/24 4/93/24 25/94/24 15/80/24
f 4/93/34 61/95/35 57/96/36 25/94/34
f 58/97/14 57/98/36 59/99/37 60/100/38
f 36/101/5 18/102/5 20/103/5
f 36/104/39 20/85/40 1/84/11 31/105/12
f 45/106/5 3/107/5 62/108/15
f 32/50/21 37/49/20 40/109/41 35/110/42
f 35/110/42 40/109/41 39/111/43 34/112/43
f 34/112/43 39/111/43 38/113/44 33/114/45
f 33/114/45 38/113/44 36/104/39 31/105/12
f 31/30/1 27/29/1 30/115/1 33/116/1
f 33/116/1 30/115/1 29/117/1 34/118/1
f 34/118/1 29/117/1 28/119/1 35/120/1
f 35/120/1 28/119/1 26/1/1 32/3/3
f 4/121/46 46/122/46 61/123/46
f 47/22/5 44/21/5 42/124/5 45/125/5
f 49/40/6 53/39/18 55/126/47 51/127/28
f 51/127/28 55/126/47 56/128/48 52/129/29
f 52/129/29 56/128/48 54/91/31 50/92/7
f 57/96/36 61/95/35 63/130/49 59/131/37
f 59/131/37 63/130/49 64/132/50 60/133/38
f 60/133/38 64/132/50 62/33/15 58/32/14
f 53/14/18 42/13/5 44/134/5 55/135/47
f 55/135/47 44/134/5 43/136/5 56/137/48
f 56/137/48 43/136/5 41/138/5 54/139/31
f 61/123/35 46/122/5 48/140/5 63/141/49
f 63/141/49 48/140/5 47/142/5 64/143/50
f 64/143/50 47/142/5 45/106/5 62/108/15
f 41/138/5 2/144/5 54/139/31
f 21/145/5 3/146/5 45/125/5 42/124/5
f 5/147/5 26/25/5 46/27/5 4/148/5
f 2/149/5 41/45/5 27/47/5 1/150/11
f 29/24/5 48/23/5 46/27/5 28/26/5
f 13/151/5 15/152/5 25/153/5
f 12/154/5 22/8/5 10/11/5
f 58/97/14 13/151/5 25/153/5 57/98/36
f 41/45/5 43/20/5 29/24/5 30/46/5
f 7/155/5 9/156/5 37/157/5
f 24/158/5 18/102/5 36/101/5
f 39/159/5 24/158/5 38/160/5
f 17/161/5 24/158/5 39/159/5
f 17/161/5 39/159/5 40/162/5
f 17/161/5 40/162/5 37/157/5
f 9/156/5 17/161/5 37/157/5
f 38/160/5 24/158/5 36/101/5
f 66/4/22 8/7/22 5/56/22
f 6/163/1 66/164/1 65/165/1
f 6/163/1 68/166/1 67/167/1
f 6/163/1 70/168/1 69/169/1
f 6/163/1 71/170/1 66/164/1
f 6/163/1 73/171/1 72/172/1
f 6/163/1 67/167/1 73/171/1
f 6/163/1 74/173/1 68/166/1
f 6/163/1 69/169/1 74/173/1
f 6/163/1 75/174/1 71/170/1
f 6/163/1 72/172/1 75/174/1
f 6/163/1 76/175/1 70/168/1
f 6/163/1 65/165/1 76/175/1
