# Blender v3.4.1 OBJ File: 'Medieval_Hexagons_Export_1.0_WorldOrigin.blend'
# www.blender.org
mtllib hex_road_J.mtl
o hex_road_J
v 0.333333 -0.050000 0.962250
v 0.666667 -0.050000 0.769800
v -1.000000 -0.050000 -0.192450
v -1.000000 -0.050000 0.192450
v 1.000000 -0.050000 0.192450
v 1.000000 -0.050000 -0.192450
v 0.500000 -0.050000 -0.192450
v -0.666667 -0.050000 0.769800
v -0.333333 -0.050000 0.962250
v -0.500000 -0.050000 -0.192450
v -0.000000 -1.000000 0.000000
v 0.684968 0.000000 0.701499
v 1.000000 -0.050000 0.577350
v 0.950000 0.000000 0.548483
v -0.265032 0.000000 0.943949
v -0.000000 -0.050000 1.154700
v -0.000000 0.000000 1.096965
v -0.950000 0.000000 0.242450
v -1.000000 -0.050000 0.577350
v -0.950000 0.000000 0.548482
v 0.950000 0.000000 -0.242450
v 1.000000 -0.050000 -0.577350
v 0.950000 0.000000 -0.548482
v 0.265032 0.000000 0.943949
v 0.000000 0.000000 -1.096965
v -0.000000 -0.050000 -1.154700
v -1.000000 -0.050000 -0.577350
v -0.950000 0.000000 -0.548482
v -0.950000 0.000000 -0.242450
v 0.950000 0.000000 0.242450
v -0.684968 0.000000 0.701499
v -0.500000 0.000000 -0.242450
v 0.500000 0.000000 -0.242450
v 0.442130 -0.050000 0.380892
v 0.550927 -0.050000 0.192450
v 0.416884 -0.050000 0.286671
v 0.456706 -0.050000 0.217696
v -0.550928 -0.050000 0.192450
v -0.442130 -0.050000 0.380892
v -0.456706 -0.050000 0.217696
v -0.416884 -0.050000 0.286671
v -0.108797 -0.050000 0.573342
v 0.108797 -0.050000 0.573342
v -0.039823 -0.050000 0.504368
v 0.039822 -0.050000 0.504368
v 0.641724 0.000000 0.242450
v 0.530830 0.000000 0.434524
v 0.545687 0.000000 0.268183
v 0.505097 0.000000 0.338487
v 0.552126 -0.050000 0.192450
v 0.442730 -0.050000 0.381930
v 0.457386 -0.050000 0.217835
v 0.417344 -0.050000 0.287190
v -0.530830 0.000000 0.434524
v -0.641724 0.000000 0.242450
v -0.505097 0.000000 0.338487
v -0.545687 0.000000 0.268183
v -0.442730 -0.050000 0.381930
v -0.552126 -0.050000 0.192450
v -0.417344 -0.050000 0.287190
v -0.457386 -0.050000 0.217835
v 0.109396 -0.050000 0.574380
v -0.109396 -0.050000 0.574380
v 0.040042 -0.050000 0.505025
v -0.040042 -0.050000 0.505025
v 0.110894 0.000000 0.676974
v -0.110894 0.000000 0.676974
v 0.040590 0.000000 0.606670
v -0.040590 0.000000 0.606670
v -0.320932 0.000000 -0.548482
v 0.320932 0.000000 -0.548482
v 0.666667 -1.000000 0.769800
v 1.000000 -1.000000 0.577350
v -0.333333 -1.000000 0.962250
v -0.000000 -1.000000 1.154700
v -1.000000 -1.000000 0.192450
v -1.000000 -1.000000 0.577350
v 1.000000 -1.000000 -0.192450
v 1.000000 -1.000000 -0.577350
v 0.333333 -1.000000 0.962250
v 0.000000 -1.000000 -1.154700
v -1.000000 -1.000000 -0.577350
v -1.000000 -1.000000 -0.192450
v 1.000000 -1.000000 0.192450
v -0.666667 -1.000000 0.769800
vt 0.051726 0.356657
vt 0.051726 0.298735
vt 0.053238 0.356657
vt 0.056262 0.383213
vt 0.054225 0.383213
vt 0.054230 0.387907
vt 0.051726 0.298735
vt 0.047190 0.298735
vt 0.047190 0.356657
vt 0.051726 0.356657
vt 0.450695 0.414463
vt 0.448386 0.414463
vt 0.448809 0.414463
vt 0.450850 0.414463
vt 0.047190 0.298735
vt 0.048702 0.298735
vt 0.048702 0.356657
vt 0.048702 0.383213
vt 0.049720 0.383213
vt 0.049718 0.387907
vt 0.445346 0.414463
vt 0.445589 0.414463
vt 0.447899 0.414463
vt 0.450939 0.414463
vt 0.444769 0.414463
vt 0.445080 0.414463
vt 0.070599 0.408225
vt 0.069900 0.408225
vt 0.069501 0.403532
vt 0.070516 0.403532
vt 0.445435 0.414463
vt 0.447476 0.414463
vt 0.049227 0.383213
vt 0.047190 0.387907
vt 0.049222 0.387907
vt 0.069004 0.403532
vt 0.067989 0.403532
vt 0.067995 0.408225
vt 0.068695 0.408225
vt 0.078950 0.423850
vt 0.078950 0.423850
vt 0.080991 0.423850
vt 0.056262 0.298735
vt 0.056262 0.356657
vt 0.056262 0.356657
vt 0.056262 0.298735
vt 0.053238 0.383213
vt 0.052219 0.383213
vt 0.052222 0.387907
vt 0.047190 0.298735
vt 0.047190 0.356657
vt 0.051232 0.383213
vt 0.050214 0.387907
vt 0.051230 0.387907
vt 0.056262 0.298735
vt 0.056262 0.298735
vt 0.056262 0.356657
vt 0.053238 0.298735
vt 0.047190 0.356657
vt 0.047190 0.298735
vt 0.063183 0.408225
vt 0.064582 0.408225
vt 0.064988 0.403532
vt 0.062957 0.403532
vt 0.050214 0.356657
vt 0.050214 0.298735
vt 0.414171 0.383213
vt 0.412130 0.383213
vt 0.412130 0.329985
vt 0.414171 0.329985
vt 0.410089 0.383213
vt 0.410089 0.383213
vt 0.410089 0.329985
vt 0.410089 0.329985
vt 0.047190 0.356657
vt 0.422337 0.383213
vt 0.422337 0.383213
vt 0.422337 0.329985
vt 0.422337 0.329985
vt 0.054750 0.298735
vt 0.054750 0.356657
vt 0.056262 0.356657
vt 0.420295 0.383213
vt 0.418254 0.383213
vt 0.418254 0.329985
vt 0.420295 0.329985
vt 0.072028 0.403532
vt 0.071802 0.408225
vt 0.065980 0.403532
vt 0.067492 0.403532
vt 0.067492 0.408225
vt 0.066290 0.408225
vt 0.062957 0.403532
vt 0.063183 0.408225
vt 0.072028 0.403532
vt 0.072028 0.403532
vt 0.071802 0.408225
vt 0.071802 0.408225
vt 0.067492 0.403532
vt 0.062957 0.403532
vt 0.063183 0.408225
vt 0.067492 0.408225
vt 0.062957 0.403532
vt 0.063183 0.408225
vt 0.072028 0.403532
vt 0.071802 0.408225
vt 0.070403 0.408225
vt 0.069997 0.403532
vt 0.086170 0.423850
vt 0.085734 0.423850
vt 0.085550 0.423850
vt 0.085667 0.423850
vt 0.064469 0.403532
vt 0.064386 0.408225
vt 0.065484 0.403532
vt 0.065085 0.408225
vt 0.080348 0.423850
vt 0.080851 0.423850
vt 0.080968 0.423850
vt 0.080784 0.423850
vt 0.066989 0.408225
vt 0.066996 0.403532
vt 0.065224 0.403532
vt 0.069760 0.403532
vt 0.069760 0.408225
vt 0.065224 0.408225
vt 0.083762 0.423850
vt 0.083443 0.423850
vt 0.083075 0.423850
vt 0.082756 0.423850
vt 0.451516 0.414463
vt 0.451204 0.414463
vt 0.450184 0.414463
vt 0.452225 0.414463
vt 0.069567 0.403532
vt 0.069968 0.408225
vt 0.069385 0.403532
vt 0.069783 0.408225
vt 0.065599 0.403532
vt 0.065201 0.408225
vt 0.065418 0.403532
vt 0.065017 0.408225
vt 0.067308 0.408225
vt 0.067311 0.403532
vt 0.067677 0.408225
vt 0.067674 0.403532
vt 0.053797 0.383213
vt 0.053801 0.387907
vt 0.053617 0.383213
vt 0.053619 0.387907
vt 0.053731 0.383213
vt 0.053734 0.387907
vt 0.051907 0.383213
vt 0.051908 0.387907
vt 0.051545 0.383213
vt 0.051544 0.387907
vt 0.049835 0.383213
vt 0.049833 0.387907
vt 0.049654 0.383213
vt 0.049651 0.387907
vt 0.054750 0.387907
vt 0.078950 0.423850
vt 0.078950 0.423850
vt 0.080152 0.423850
vt 0.083259 0.423850
vt 0.081803 0.423850
vt 0.084461 0.423850
vt 0.082057 0.423850
vt 0.083259 0.423850
vt 0.087568 0.423850
vt 0.086366 0.423850
vt 0.087568 0.423850
vt 0.454266 0.414463
vt 0.454266 0.414463
vt 0.442018 0.414463
vt 0.442018 0.414463
vt 0.444060 0.414463
vt 0.446101 0.414463
vt 0.084715 0.423850
vt 0.085527 0.423850
vt 0.087568 0.423850
vt 0.087568 0.423850
vt 0.063270 0.288250
vt 0.064361 0.288250
vt 0.063998 0.288250
vt 0.063270 0.288250
vt 0.062906 0.288250
vt 0.062179 0.288250
vt 0.062179 0.288250
vt 0.064361 0.288250
vt 0.064361 0.288250
vt 0.063634 0.288250
vt 0.062179 0.288250
vt 0.063270 0.288250
vt 0.062179 0.288250
vt 0.064361 0.288250
vt 0.062542 0.288250
vn 0.5000 0.0000 0.8660
vn 0.0000 -0.0361 0.9993
vn -0.5000 0.0000 -0.8660
vn -0.0000 1.0000 0.0000
vn -0.5000 0.0000 0.8660
vn 0.3064 0.9486 0.0793
vn -0.6124 0.7071 0.3536
vn -0.3448 0.9225 0.1733
vn -0.3011 0.9489 0.0949
vn 0.0000 0.0048 -1.0000
vn 0.6124 0.7071 -0.3536
vn 0.7412 0.5831 -0.3325
vn 0.3225 0.9225 -0.2119
vn 0.5000 0.0000 -0.8660
vn 1.0000 0.0000 0.0000
vn 0.9386 0.2451 -0.2428
vn -1.0000 0.0000 0.0000
vn -0.2695 0.9439 -0.1908
vn 0.0000 0.7071 -0.7071
vn 0.0223 0.9225 -0.3852
vn 0.1074 0.8273 -0.5514
vn 0.3536 0.7071 0.6124
vn -0.3536 0.7071 0.6124
vn -0.7071 0.7071 -0.0000
vn 0.7071 0.7071 0.0000
vn -0.3536 0.7071 -0.6124
vn -0.0223 0.9225 -0.3852
vn -0.1074 0.8273 -0.5514
vn -0.1580 0.9497 -0.2703
vn -0.3131 0.9497 -0.0017
vn 0.3536 0.7071 -0.6124
vn 0.6124 0.7071 0.3536
vn 0.3448 0.9225 0.1733
vn 0.3131 0.9497 -0.0017
vn 0.1580 0.9497 -0.2703
vn -0.6124 0.7071 -0.3536
vn -0.3225 0.9225 -0.2119
vn -0.0000 0.7071 0.7071
vn 0.1551 0.9497 -0.2720
vn -0.1551 0.9497 -0.2720
vn -0.1189 0.9836 -0.1354
vn -0.1767 0.9836 -0.0353
vn 0.1767 0.9836 -0.0353
vn 0.1189 0.9836 -0.1354
vn -0.0578 0.9836 -0.1707
vn 0.0578 0.9836 -0.1707
vn 0.0000 -1.0000 0.0000
usemtl hexagons_medieval
s 1
f 16/1/1 75/2/1 1/3/1
f 5/4/2 35/5/2 50/6/2
f 81/7/3 82/8/3 27/9/3 26/10/3
f 36/11/4 45/12/4 43/13/4 34/14/4
f 77/15/5 85/16/5 8/17/5
f 8/18/4 39/19/4 58/20/6
f 40/21/4 41/22/4 44/23/4 45/12/4 36/11/4 37/24/4
f 38/25/4 40/21/4 10/26/4
f 12/27/7 47/28/8 51/29/9 2/30/7
f 44/23/4 41/22/4 39/31/4 42/32/4
f 38/33/10 4/34/10 59/35/10
f 1/36/11 62/37/12 66/38/13 24/39/11
f 28/40/4 29/41/4 32/42/4
f 79/43/14 81/7/14 26/10/14 22/44/14
f 6/45/15 78/46/15 79/43/15
f 1/47/11 43/48/16 62/49/12
f 82/8/17 83/50/17 3/51/17
f 42/52/4 9/53/4 63/54/18
f 73/55/15 84/56/15 5/57/15
f 75/2/1 80/58/1 1/3/1
f 4/59/17 76/60/17 77/15/17
f 18/61/19 55/62/20 59/63/21 4/64/19
f 27/9/17 82/8/17 3/51/17
f 9/65/5 74/66/5 75/2/5
f 9/67/5 8/68/5 85/69/5 74/70/5
f 4/71/17 3/72/17 83/73/17 76/74/17
f 4/59/17 77/15/17 19/75/17
f 6/76/15 5/77/15 84/78/15 78/79/15
f 72/80/1 73/55/1 2/81/1
f 13/82/15 73/55/15 5/57/15
f 2/83/1 1/84/1 80/85/1 72/86/1
f 19/75/5 77/15/5 8/17/5
f 6/45/15 79/43/15 22/44/15
f 9/65/5 75/2/5 16/1/5
f 2/30/22 13/87/22 14/88/22 12/27/22
f 9/89/23 16/90/23 17/91/23 15/92/23
f 4/64/24 19/93/24 20/94/24 18/61/24
f 6/95/25 22/96/25 23/97/25 21/98/25
f 16/90/22 1/36/22 24/39/22 17/91/22
f 26/99/26 27/100/26 28/101/26 25/102/26
f 27/100/24 3/103/24 29/104/24 28/101/24
f 13/87/25 5/105/25 30/106/25 14/88/25
f 46/107/27 30/106/19 5/105/19 50/108/28
f 46/109/27 48/110/29 49/111/30 47/112/8
f 22/96/31 26/99/31 25/102/31 23/97/31
f 19/93/23 8/113/23 31/114/23 20/94/23
f 8/113/32 58/115/6 54/116/33 31/114/32
f 55/117/20 54/118/33 56/119/34 57/120/35
f 15/92/36 67/121/37 63/122/18 9/89/36
f 10/123/38 7/124/38 33/125/38 32/126/38
f 66/127/13 68/128/39 69/129/40 67/130/37
f 7/124/38 6/95/38 21/98/38 33/125/38
f 3/103/38 10/123/38 32/126/38 29/104/38
f 37/24/4 35/131/4 7/132/4
f 34/14/4 43/13/4 1/133/4 2/134/4
f 46/107/27 50/108/28 52/135/41 48/136/29
f 48/136/29 52/135/41 53/137/42 49/138/30
f 49/138/30 53/137/42 51/29/9 47/28/8
f 54/116/33 58/115/6 60/139/43 56/140/34
f 56/140/34 60/139/43 61/141/44 57/142/35
f 57/142/35 61/141/44 59/63/21 55/62/20
f 63/122/18 67/121/37 69/143/40 65/144/45
f 65/144/45 69/143/40 68/145/39 64/146/46
f 64/146/46 68/145/39 66/38/13 62/37/12
f 50/6/28 35/5/4 37/147/4 52/148/41
f 52/148/41 37/147/4 36/149/4 53/150/42
f 53/150/42 36/149/4 34/151/4 51/152/9
f 62/49/12 43/48/4 45/153/4 64/154/46
f 64/154/46 45/153/4 44/155/4 65/156/45
f 65/156/45 44/155/4 42/52/4 63/54/18
f 58/20/6 39/19/4 41/157/4 60/158/43
f 60/158/43 41/157/4 40/159/4 61/160/44
f 61/160/44 40/159/4 38/33/4 59/35/21
f 34/151/4 2/161/4 51/152/9
f 18/162/4 20/163/4 31/164/4
f 55/117/20 18/162/4 31/164/4 54/118/33
f 25/165/4 28/40/4 70/166/4
f 24/167/4 66/127/13 67/130/37 15/168/4
f 17/169/4 24/167/4 15/168/4
f 30/170/4 46/109/27 47/112/8 12/171/4
f 14/172/4 30/170/4 12/171/4
f 6/173/4 7/132/4 35/131/4 5/174/4
f 3/175/4 4/176/4 38/25/4 10/26/4
f 42/32/4 39/31/4 8/177/4 9/178/4
f 40/21/4 37/24/4 7/132/4 10/26/4
f 70/166/4 28/40/4 32/42/4
f 71/179/4 70/166/4 32/42/4 33/180/4
f 25/165/4 70/166/4 71/179/4
f 23/181/4 71/179/4 33/180/4
f 23/181/4 25/165/4 71/179/4
f 21/182/4 23/181/4 33/180/4
f 73/55/1 13/82/1 2/81/1
f 11/183/47 73/184/47 72/185/47
f 11/183/47 75/186/47 74/187/47
f 11/183/47 77/188/47 76/189/47
f 11/183/47 79/190/47 78/191/47
f 11/183/47 80/192/47 75/186/47
f 11/183/47 72/185/47 80/192/47
f 11/183/47 82/193/47 81/194/47
f 11/183/47 83/195/47 82/193/47
f 11/183/47 76/189/47 83/195/47
f 11/183/47 84/196/47 73/184/47
f 11/183/47 78/191/47 84/196/47
f 11/183/47 81/194/47 79/190/47
f 11/183/47 85/197/47 77/188/47
f 11/183/47 74/187/47 85/197/47
