# Blender v3.4.1 OBJ File: 'Medieval_Hexagons_Export_1.0_WorldOrigin.blend'
# www.blender.org
mtllib hex_road_I.mtl
o hex_road_I
v 0.333333 -0.050000 0.962250
v 0.666667 -0.050000 0.769800
v -0.333333 -0.050000 -0.962250
v -0.666667 -0.050000 -0.769800
v 0.666667 -0.050000 -0.769800
v 0.333333 -0.050000 -0.962250
v -0.666667 -0.050000 0.769800
v -0.333333 -0.050000 0.962250
v -0.000000 -1.000000 0.000000
v 0.265032 0.000000 -0.943949
v -0.000000 -0.050000 -1.154700
v 0.000000 0.000000 -1.096965
v 0.684968 0.000000 0.701499
v 1.000000 -0.050000 0.577350
v 0.950000 0.000000 0.548483
v -0.265032 0.000000 0.943949
v -0.000000 -0.050000 1.154700
v -0.000000 0.000000 1.096965
v -0.684968 0.000000 -0.701499
v -1.000000 -0.050000 -0.577350
v -0.950000 0.000000 -0.548482
v 0.265032 0.000000 0.943949
v -0.265032 0.000000 -0.943949
v -1.000000 -0.050000 0.577350
v -0.950000 0.000000 0.548482
v 1.000000 -0.050000 -0.577350
v 0.950000 0.000000 -0.548482
v 0.684968 0.000000 -0.701499
v -0.684968 0.000000 0.701499
v -0.559239 -0.050000 -0.583729
v -0.559239 -0.050000 0.583729
v -0.455922 -0.050000 -0.315912
v -0.419642 -0.050000 0.000000
v -0.455922 -0.050000 0.315912
v 0.559238 -0.050000 0.583729
v 0.559238 -0.050000 -0.583729
v 0.455922 -0.050000 0.315912
v 0.419642 -0.050000 0.000000
v 0.455922 -0.050000 -0.315912
v -0.617977 0.000000 0.585466
v -0.617976 0.000000 -0.585466
v -0.514352 0.000000 0.316852
v -0.477964 0.000000 -0.000000
v -0.514352 0.000000 -0.316852
v -0.559701 -0.050000 0.584531
v -0.559701 -0.050000 -0.584531
v -0.456243 -0.050000 0.316346
v -0.419913 -0.050000 -0.000000
v -0.456243 -0.050000 -0.316346
v 0.617976 0.000000 -0.585466
v 0.617976 0.000000 0.585466
v 0.514352 0.000000 -0.316852
v 0.477964 0.000000 -0.000000
v 0.514352 0.000000 0.316852
v 0.559701 -0.050000 -0.584531
v 0.559701 -0.050000 0.584531
v 0.456243 -0.050000 -0.316346
v 0.419913 -0.050000 0.000000
v 0.456243 -0.050000 0.316346
v -0.110025 -0.050000 0.575469
v 0.110025 -0.050000 0.575469
v -0.040272 -0.050000 0.505716
v 0.040272 -0.050000 0.505716
v 0.110025 -0.050000 -0.575469
v -0.110025 -0.050000 -0.575469
v 0.040272 -0.050000 -0.505716
v -0.040272 -0.050000 -0.505716
v -0.110631 -0.050000 -0.576519
v 0.110631 -0.050000 -0.576519
v -0.040494 -0.050000 -0.506381
v 0.040494 -0.050000 -0.506381
v -0.112146 0.000000 -0.679142
v 0.112146 0.000000 -0.679142
v -0.041048 0.000000 -0.608045
v 0.041048 0.000000 -0.608045
v 0.110631 -0.050000 0.576519
v -0.110631 -0.050000 0.576519
v 0.040494 -0.050000 0.506381
v -0.040494 -0.050000 0.506381
v 0.112146 0.000000 0.679142
v -0.112146 0.000000 0.679142
v 0.041048 0.000000 0.608045
v -0.041048 0.000000 0.608045
v 0.333333 -1.000000 -0.962250
v 0.000000 -1.000000 -1.154700
v 0.666667 -1.000000 0.769800
v 1.000000 -1.000000 0.577350
v -0.333333 -1.000000 0.962250
v -0.000000 -1.000000 1.154700
v -0.666667 -1.000000 -0.769800
v -1.000000 -1.000000 -0.577350
v 0.333333 -1.000000 0.962250
v -0.333333 -1.000000 -0.962250
v -1.000000 -1.000000 0.577350
v 1.000000 -1.000000 -0.577350
v 0.666667 -1.000000 -0.769800
v -0.666667 -1.000000 0.769800
vt 0.056262 0.298735
vt 0.056262 0.298735
vt 0.056262 0.356657
vt 0.056262 0.356657
vt 0.050214 0.383213
vt 0.051227 0.383213
vt 0.051224 0.387907
vt 0.054750 0.383213
vt 0.054263 0.383213
vt 0.054265 0.387907
vt 0.051227 0.383213
vt 0.050214 0.387907
vt 0.051224 0.387907
vt 0.048702 0.383213
vt 0.049189 0.383213
vt 0.049187 0.387907
vt 0.047190 0.298735
vt 0.047190 0.298735
vt 0.047190 0.356657
vt 0.047190 0.356657
vt 0.051726 0.298735
vt 0.050214 0.298735
vt 0.050214 0.356657
vt 0.052225 0.383213
vt 0.053238 0.387907
vt 0.052228 0.387907
vt 0.053238 0.383213
vt 0.052225 0.383213
vt 0.052228 0.387907
vt 0.083259 0.423850
vt 0.082057 0.423850
vt 0.084461 0.423850
vt 0.067994 0.403532
vt 0.069004 0.403532
vt 0.068695 0.408225
vt 0.068001 0.408225
vt 0.448816 0.414463
vt 0.451567 0.414463
vt 0.452225 0.414463
vt 0.450184 0.414463
vt 0.447469 0.414463
vt 0.446101 0.414463
vt 0.444060 0.414463
vt 0.444718 0.414463
vt 0.070599 0.408225
vt 0.070295 0.408225
vt 0.070031 0.403532
vt 0.070516 0.403532
vt 0.054750 0.298735
vt 0.054750 0.356657
vt 0.048702 0.356657
vt 0.064469 0.403532
vt 0.064954 0.403532
vt 0.064689 0.408225
vt 0.064386 0.408225
vt 0.050214 0.356657
vt 0.050214 0.298735
vt 0.051726 0.298735
vt 0.048702 0.298735
vt 0.069004 0.403532
vt 0.067994 0.403532
vt 0.068001 0.408225
vt 0.068695 0.408225
vt 0.048702 0.298735
vt 0.048702 0.356657
vt 0.053238 0.298735
vt 0.053238 0.356657
vt 0.054263 0.383213
vt 0.054750 0.387907
vt 0.054265 0.387907
vt 0.053238 0.298735
vt 0.053238 0.356657
vt 0.051726 0.356657
vt 0.418254 0.383213
vt 0.420295 0.383213
vt 0.420295 0.329985
vt 0.418254 0.329985
vt 0.412130 0.383213
vt 0.414171 0.383213
vt 0.414171 0.329985
vt 0.412130 0.329985
vt 0.054750 0.356657
vt 0.054750 0.298735
vt 0.051726 0.356657
vt 0.414171 0.383213
vt 0.412130 0.383213
vt 0.412130 0.329985
vt 0.414171 0.329985
vt 0.420295 0.383213
vt 0.418254 0.383213
vt 0.418254 0.329985
vt 0.420295 0.329985
vt 0.067492 0.403532
vt 0.067492 0.408225
vt 0.072028 0.403532
vt 0.071802 0.408225
vt 0.065980 0.403532
vt 0.067492 0.403532
vt 0.067492 0.408225
vt 0.066290 0.408225
vt 0.064469 0.403532
vt 0.062957 0.403532
vt 0.063183 0.408225
vt 0.064386 0.408225
vt 0.065980 0.403532
vt 0.066290 0.408225
vt 0.078950 0.423850
vt 0.080152 0.423850
vt 0.080456 0.423850
vt 0.082750 0.423850
vt 0.083073 0.423850
vt 0.083445 0.423850
vt 0.083768 0.423850
vt 0.062957 0.403532
vt 0.063183 0.408225
vt 0.072028 0.403532
vt 0.071802 0.408225
vt 0.070295 0.408225
vt 0.070599 0.408225
vt 0.070516 0.403532
vt 0.070031 0.403532
vt 0.066984 0.408225
vt 0.066991 0.403532
vt 0.066984 0.408225
vt 0.066991 0.403532
vt 0.087568 0.423850
vt 0.086062 0.423850
vt 0.086366 0.423850
vt 0.064954 0.403532
vt 0.064689 0.408225
vt 0.083768 0.423850
vt 0.083445 0.423850
vt 0.083073 0.423850
vt 0.082750 0.423850
vt 0.065423 0.403532
vt 0.065159 0.408225
vt 0.065588 0.403532
vt 0.065324 0.408225
vt 0.065423 0.403532
vt 0.065159 0.408225
vt 0.069562 0.403532
vt 0.069825 0.408225
vt 0.069397 0.403532
vt 0.069660 0.408225
vt 0.069562 0.403532
vt 0.069825 0.408225
vt 0.053794 0.383213
vt 0.053795 0.387907
vt 0.053629 0.383213
vt 0.053631 0.387907
vt 0.053794 0.383213
vt 0.053795 0.387907
vt 0.049658 0.383213
vt 0.049656 0.387907
vt 0.049822 0.383213
vt 0.049821 0.387907
vt 0.049658 0.383213
vt 0.049656 0.387907
vt 0.049189 0.383213
vt 0.049187 0.387907
vt 0.048702 0.387907
vt 0.445350 0.414463
vt 0.447469 0.414463
vt 0.445350 0.414463
vt 0.444718 0.414463
vt 0.450934 0.414463
vt 0.448816 0.414463
vt 0.451567 0.414463
vt 0.450934 0.414463
vt 0.067679 0.408225
vt 0.067676 0.403532
vt 0.067306 0.408225
vt 0.067309 0.403532
vt 0.067306 0.408225
vt 0.067309 0.403532
vt 0.067679 0.408225
vt 0.067676 0.403532
vt 0.051543 0.383213
vt 0.051542 0.387907
vt 0.051909 0.383213
vt 0.051910 0.387907
vt 0.051909 0.383213
vt 0.051910 0.387907
vt 0.051543 0.383213
vt 0.051542 0.387907
vt 0.450184 0.414463
vt 0.452225 0.414463
vt 0.444060 0.414463
vt 0.446101 0.414463
vt 0.084461 0.423850
vt 0.082057 0.423850
vt 0.083259 0.423850
vt 0.447896 0.414463
vt 0.447896 0.414463
vt 0.450712 0.414463
vt 0.445573 0.414463
vt 0.448389 0.414463
vt 0.448389 0.414463
vt 0.086366 0.423850
vt 0.086062 0.423850
vt 0.087568 0.423850
vt 0.080152 0.423850
vt 0.078950 0.423850
vt 0.080456 0.423850
vt 0.080926 0.423850
vt 0.085592 0.423850
vt 0.085427 0.423850
vt 0.085592 0.423850
vt 0.080926 0.423850
vt 0.081091 0.423850
vt 0.059996 0.288250
vt 0.059996 0.288250
vt 0.060360 0.288250
vt 0.061087 0.288250
vt 0.060723 0.288250
vt 0.059996 0.288250
vt 0.059632 0.288250
vt 0.058904 0.288250
vt 0.059268 0.288250
vt 0.060360 0.288250
vt 0.059632 0.288250
vt 0.058904 0.288250
vt 0.061087 0.288250
vt 0.060723 0.288250
vt 0.059268 0.288250
vn 1.0000 0.0000 0.0000
vn -0.1897 -0.9770 -0.0977
vn 0.0000 1.0000 0.0000
vn -0.0462 0.9982 -0.0374
vn -0.6119 0.0000 0.7910
vn 0.0480 0.9985 -0.0257
vn -1.0000 0.0000 0.0000
vn -0.5000 0.0000 -0.8660
vn 0.1880 -0.9378 -0.2919
vn 0.4238 0.8273 0.3687
vn 0.6124 0.7071 0.3536
vn 0.3225 0.9225 0.2119
vn -0.6124 0.7071 0.3536
vn -0.6217 0.7188 0.3110
vn -0.6264 0.7247 0.2870
vn 0.5000 0.0000 -0.8660
vn 0.6264 0.7247 0.2870
vn 0.6217 0.7188 0.3110
vn -0.5000 0.0000 0.8660
vn 0.6124 0.7071 -0.3536
vn 0.4238 0.8273 -0.3687
vn 0.3225 0.9225 -0.2119
vn 0.5000 0.0000 0.8660
vn -0.5971 0.0000 0.8022
vn 0.3536 0.7071 -0.6124
vn 0.3536 0.7071 0.6124
vn -0.3536 0.7071 0.6124
vn -0.3536 0.7071 -0.6124
vn -0.3225 0.9225 0.2119
vn -0.1551 0.9497 0.2720
vn 0.1551 0.9497 0.2720
vn -0.7071 0.7071 0.0000
vn 0.7071 0.7071 0.0000
vn -0.6217 0.7188 -0.3110
vn -0.6124 0.7071 -0.3536
vn -0.6264 0.7247 -0.2870
vn -0.4238 0.8273 0.3687
vn -0.3225 0.9225 -0.2119
vn -0.4238 0.8273 -0.3687
vn 0.6264 0.7247 -0.2870
vn 0.6217 0.7188 -0.3110
vn 0.1551 0.9497 -0.2720
vn -0.1551 0.9497 -0.2720
vn 0.6457 0.7489 0.1493
vn 0.6436 0.7463 0.1698
vn 0.6526 0.7577 0.0000
vn 0.6457 0.7489 -0.1493
vn 0.6436 0.7463 -0.1698
vn -0.6457 0.7489 -0.1493
vn -0.6436 0.7463 -0.1698
vn -0.6526 0.7577 -0.0000
vn -0.6457 0.7489 0.1493
vn -0.6436 0.7463 0.1698
vn 0.0578 0.9836 0.1707
vn -0.0578 0.9836 0.1707
vn -0.0578 0.9836 -0.1707
vn 0.0578 0.9836 -0.1707
vn 0.0000 -1.0000 0.0000
usemtl hexagons_medieval
s 1
f 87/1/1 95/2/1 26/3/1 14/4/1
f 3/5/2 65/6/2 68/7/2
f 5/8/3 36/9/3 55/10/4
f 60/11/5 8/12/5 77/13/5
f 7/14/3 31/15/3 45/16/6
f 91/17/7 94/18/7 24/19/7 20/20/7
f 85/21/8 93/22/8 3/23/8
f 64/24/1 6/25/1 69/26/1
f 1/27/9 61/28/9 76/29/9
f 12/30/3 23/31/3 10/32/3
f 69/33/10 6/34/11 10/35/11 73/36/12
f 64/37/3 36/38/3 5/39/3 6/40/3
f 65/41/3 3/42/3 4/43/3 30/44/3
f 13/45/13 51/46/14 56/47/15 2/48/13
f 95/2/16 96/49/16 5/50/16
f 4/51/8 91/17/8 20/20/8
f 7/52/11 45/53/17 40/54/18 29/55/11
f 8/56/19 88/57/19 89/58/19
f 4/51/8 90/59/8 91/17/8
f 1/60/20 76/61/21 80/62/22 22/63/20
f 94/18/19 97/64/19 7/65/19
f 89/58/23 92/66/23 1/67/23
f 35/68/24 2/69/24 56/70/24
f 84/71/16 85/21/16 6/72/16
f 17/73/23 89/58/23 1/67/23
f 6/74/16 5/75/16 96/76/16 84/77/16
f 4/78/8 3/79/8 93/80/8 90/81/8
f 2/82/23 86/83/23 87/1/23
f 11/84/8 85/21/8 3/23/8
f 8/85/19 7/86/19 97/87/19 88/88/19
f 2/82/23 87/1/23 14/4/23
f 24/19/19 94/18/19 7/65/19
f 26/3/16 95/2/16 5/50/16
f 8/56/19 89/58/19 17/73/19
f 2/89/23 1/90/23 92/91/23 86/92/23
f 6/34/25 11/93/25 12/94/25 10/35/25
f 2/48/26 14/95/26 15/96/26 13/45/26
f 8/97/27 17/98/27 18/99/27 16/100/27
f 4/101/28 20/102/28 21/103/28 19/104/28
f 17/98/26 1/60/26 22/63/26 18/99/26
f 11/93/28 3/105/28 23/106/28 12/94/28
f 25/107/3 29/108/3 40/109/3
f 72/110/29 74/111/30 75/112/31 73/113/12
f 20/102/32 24/114/32 25/115/32 21/103/32
f 14/95/33 26/116/33 27/117/33 15/96/33
f 50/118/34 28/119/35 5/120/35 55/121/36
f 26/116/25 5/120/25 28/119/25 27/117/25
f 24/114/27 7/52/27 29/55/27 25/115/27
f 72/122/29 23/106/13 3/105/13 68/123/37
f 16/100/35 81/124/38 77/125/39 8/97/35
f 15/126/3 51/127/3 13/128/3
f 46/129/40 4/101/20 19/104/20 41/130/41
f 80/131/22 82/132/42 83/133/43 81/134/38
f 40/54/18 45/53/17 47/135/44 42/136/45
f 42/136/45 47/135/44 48/137/46 43/138/46
f 43/138/46 48/137/46 49/139/47 44/140/48
f 44/140/48 49/139/47 46/129/40 41/130/41
f 50/118/34 55/121/36 57/141/49 52/142/50
f 52/142/50 57/141/49 58/143/51 53/144/51
f 53/144/51 58/143/51 59/145/52 54/146/53
f 54/146/53 59/145/52 56/47/15 51/46/14
f 55/10/4 36/9/3 39/147/3 57/148/3
f 57/148/3 39/147/3 38/149/3 58/150/3
f 58/150/3 38/149/3 37/151/3 59/152/3
f 59/152/3 37/151/3 35/68/3 56/70/3
f 45/16/6 31/15/3 34/153/3 47/154/3
f 47/154/3 34/153/3 33/155/3 48/156/3
f 48/156/3 33/155/3 32/157/3 49/158/3
f 49/158/3 32/157/3 30/159/3 46/160/3
f 30/159/1 4/161/1 46/160/1
f 65/41/3 30/44/3 32/162/3
f 60/163/3 34/164/3 31/165/3
f 37/166/3 61/167/3 35/168/3
f 64/37/3 39/169/3 36/38/3
f 69/33/10 73/36/12 75/170/31 71/171/54
f 71/171/54 75/170/31 74/172/30 70/173/55
f 70/173/55 74/172/30 72/122/29 68/123/37
f 77/125/39 81/124/38 83/174/43 79/175/56
f 79/175/56 83/174/43 82/176/42 78/177/57
f 78/177/57 82/176/42 80/62/22 76/61/21
f 68/7/37 65/6/3 67/178/3 70/179/55
f 70/179/55 67/178/3 66/180/3 71/181/54
f 71/181/54 66/180/3 64/24/3 69/26/10
f 76/29/21 61/28/3 63/182/3 78/183/57
f 78/183/57 63/182/3 62/184/3 79/185/56
f 79/185/56 62/184/3 60/11/3 77/13/39
f 35/168/3 61/167/3 1/186/3 2/187/3
f 31/165/3 7/188/3 8/189/3 60/163/3
f 23/31/3 72/110/29 73/113/12 10/32/3
f 22/190/3 80/131/22 81/134/38 16/191/3
f 18/192/3 22/190/3 16/191/3
f 34/164/3 60/163/3 62/193/3
f 67/194/3 65/41/3 32/162/3
f 38/195/3 33/196/3 34/164/3 37/166/3
f 39/169/3 32/162/3 33/196/3 38/195/3
f 37/166/3 34/164/3 62/193/3 63/197/3
f 61/167/3 37/166/3 63/197/3
f 66/198/3 67/194/3 32/162/3 39/169/3
f 64/37/3 66/198/3 39/169/3
f 28/199/3 50/200/3 27/201/3
f 19/202/3 21/203/3 41/204/3
f 25/107/3 40/109/3 42/205/3
f 15/126/3 54/206/3 51/127/3
f 15/126/3 53/207/3 54/206/3
f 27/201/3 53/207/3 15/126/3
f 52/208/3 53/207/3 27/201/3
f 50/200/3 52/208/3 27/201/3
f 41/204/3 21/203/3 44/209/3
f 25/107/3 42/205/3 43/210/3
f 21/203/3 25/107/3 43/210/3
f 44/209/3 21/203/3 43/210/3
f 85/21/16 11/84/16 6/72/16
f 9/211/58 85/212/58 84/213/58
f 9/211/58 87/214/58 86/215/58
f 9/211/58 89/216/58 88/217/58
f 9/211/58 91/218/58 90/219/58
f 9/211/58 92/220/58 89/216/58
f 9/211/58 86/215/58 92/220/58
f 9/211/58 93/221/58 85/212/58
f 9/211/58 90/219/58 93/221/58
f 9/211/58 94/222/58 91/218/58
f 9/211/58 95/223/58 87/214/58
f 9/211/58 96/224/58 95/223/58
f 9/211/58 84/213/58 96/224/58
f 9/211/58 97/225/58 94/222/58
f 9/211/58 88/217/58 97/225/58
