# Blender v3.4.1 OBJ File: 'Medieval_Hexagons_Export_1.0_WorldOrigin.blend'
# www.blender.org
mtllib hex_grass_bottom.mtl
o hex_grass_bottom
v 1.000000 -1.000000 -0.577350
v 0.000000 -1.000000 -1.154700
v 1.000000 -1.000000 0.577350
v -0.000000 -1.000000 1.154700
v -1.000000 -1.000000 0.577350
v -1.000000 -1.000000 -0.577350
v 0.000000 0.000000 -1.154700
v 1.000000 0.000000 -0.577350
v 1.000000 0.000000 0.577350
v -0.000000 0.000000 1.154700
v -1.000000 0.000000 0.577350
v -1.000000 0.000000 -0.577350
vt 0.060340 0.298735
vt 0.060340 0.288250
vt 0.045221 0.288250
vt 0.045221 0.298735
vt 0.075460 0.298735
vt 0.075460 0.288250
vt 0.075460 0.288250
vt 0.075460 0.298735
vt 0.045221 0.288250
vt 0.045221 0.298735
vt 0.060340 0.298735
vt 0.060340 0.288250
vn -0.5000 0.0000 -0.8660
vn 1.0000 0.0000 0.0000
vn -1.0000 0.0000 0.0000
vn 0.5000 0.0000 0.8660
vn -0.5000 0.0000 0.8660
vn 0.5000 0.0000 -0.8660
vn 0.0000 1.0000 0.0000
vn 0.0000 -1.0000 0.0000
usemtl hexagons_medieval
s 1
f 7/1/1 2/2/1 6/3/1 12/4/1
f 9/5/2 3/6/2 1/7/2 8/8/2
f 12/4/3 6/3/3 5/9/3 11/10/3
f 10/11/4 4/12/4 3/6/4 9/5/4
f 11/10/5 5/9/5 4/12/5 10/11/5
f 8/8/6 1/7/6 2/2/6 7/1/6
f 8/8/7 7/1/7 12/4/7 11/10/7 10/11/7 9/5/7
f 1/7/8 3/6/8 4/12/8 5/9/8 6/3/8 2/2/8
