# Blender v3.4.1 OBJ File: 'Medieval_Hexagons_Export_1.0_WorldOrigin.blend'
# www.blender.org
mtllib hex_water.mtl
o hex_water
v -0.000000 -0.200000 0.000000
v -0.000000 -1.000000 -0.000000
v 1.000000 -1.000000 -0.577350
v 0.000000 -1.000000 -1.154700
v 1.000000 -1.000000 0.577350
v -0.000000 -1.000000 1.154700
v -1.000000 -1.000000 0.577350
v -1.000000 -1.000000 -0.577350
v 1.000000 -0.200000 -0.577350
v 0.000000 -0.200000 -1.154700
v 1.000000 -0.200000 0.577350
v -0.000000 -0.200000 1.154700
v -1.000000 -0.200000 0.577350
v -1.000000 -0.200000 -0.577350
vt 0.197236 0.608588
vt 0.197236 0.540052
vt 0.197236 0.540052
vt 0.197236 0.608588
vt 0.197236 0.608588
vt 0.197236 0.540052
vt 0.197236 0.540052
vt 0.197236 0.608588
vt 0.197236 0.540052
vt 0.197236 0.608588
vt 0.197236 0.608588
vt 0.197236 0.540052
vt 0.185317 0.538250
vt 0.185317 0.538250
vt 0.201551 0.538250
vt 0.201551 0.538250
vt 0.185317 0.538250
vt 0.169083 0.538250
vt 0.169083 0.538250
vt 0.197236 0.633213
vt 0.197236 0.633213
vt 0.197236 0.633213
vt 0.197236 0.633213
vt 0.197236 0.633213
vt 0.197236 0.633213
vt 0.197236 0.633213
vn -0.5000 0.0000 -0.8660
vn 1.0000 0.0000 0.0000
vn -1.0000 0.0000 0.0000
vn 0.5000 0.0000 0.8660
vn -0.5000 0.0000 0.8660
vn 0.5000 0.0000 -0.8660
vn 0.0000 -1.0000 0.0000
vn 0.0000 1.0000 -0.0000
usemtl hexagons_medieval
s 1
f 10/1/1 4/2/1 8/3/1 14/4/1
f 11/5/2 5/6/2 3/7/2 9/8/2
f 14/4/3 8/3/3 7/9/3 13/10/3
f 12/11/4 6/12/4 5/6/4 11/5/4
f 13/10/5 7/9/5 6/12/5 12/11/5
f 9/8/6 3/7/6 4/2/6 10/1/6
f 2/13/7 4/14/7 3/15/7
f 2/13/7 3/15/7 5/16/7
f 2/13/7 5/16/7 6/17/7
f 2/13/7 6/17/7 7/18/7
f 2/13/7 7/18/7 8/19/7
f 2/13/7 8/19/7 4/14/7
f 1/20/8 9/21/8 10/22/8
f 1/20/8 11/23/8 9/21/8
f 1/20/8 12/24/8 11/23/8
f 1/20/8 13/25/8 12/24/8
f 1/20/8 14/26/8 13/25/8
f 1/20/8 10/22/8 14/26/8
