# Blender v3.4.1 OBJ File: 'Medieval_Hexagons_Export_1.0_WorldOrigin.blend'
# www.blender.org
mtllib hex_grass_sloped_low.mtl
o hex_grass_sloped_low
v -0.000000 -1.000000 0.000000
v 0.000000 0.448654 -1.154700
v -0.000000 0.500000 -1.097715
v 0.950000 0.500000 -0.549203
v 1.000000 0.448754 -0.577350
v 0.950000 0.500000 0.549203
v 1.000000 0.448754 0.577350
v -0.000000 0.500000 1.097715
v -0.000000 0.448654 1.154700
v -0.955279 0.022361 0.546212
v -1.000000 -0.051403 0.577350
v -0.955279 0.022361 -0.546212
v -1.000000 -0.051403 -0.577350
v 1.000000 -1.000000 -0.577350
v 0.000000 -1.000000 -1.154700
v 1.000000 -1.000000 0.577350
v -0.000000 -1.000000 1.154700
v -1.000000 -1.000000 0.577350
v -1.000000 -1.000000 -0.577350
vt 0.056078 0.358143
vt 0.056078 0.298734
vt 0.056078 0.298734
vt 0.056078 0.358143
vt 0.051542 0.358137
vt 0.051542 0.298734
vt 0.047006 0.326845
vt 0.047006 0.298734
vt 0.047006 0.326845
vt 0.047006 0.298734
vt 0.083075 0.423850
vt 0.078742 0.393960
vt 0.078742 0.393960
vt 0.083075 0.423850
vt 0.051542 0.358137
vt 0.051542 0.298734
vt 0.071844 0.405018
vt 0.067308 0.405012
vt 0.067308 0.408225
vt 0.071617 0.408225
vt 0.071844 0.405018
vt 0.071617 0.408225
vt 0.067308 0.405012
vt 0.067308 0.408225
vt 0.062772 0.373720
vt 0.062975 0.378335
vt 0.062772 0.373720
vt 0.062975 0.378335
vt 0.087384 0.423850
vt 0.087384 0.423850
vt 0.050173 0.288250
vt 0.050173 0.288250
vt 0.051264 0.288250
vt 0.051264 0.288250
vt 0.050173 0.288250
vt 0.049081 0.288250
vt 0.049081 0.288250
vn 1.0000 0.0000 0.0000
vn 0.5000 0.0000 0.8660
vn -0.5000 0.0000 0.8660
vn -0.9242 0.3505 -0.1514
vn -1.0000 0.0000 0.0000
vn -0.9242 0.3505 0.1514
vn -0.4288 0.8670 -0.2539
vn -0.6713 0.7137 -0.2002
vn -0.6713 0.7137 0.2002
vn -0.4288 0.8670 0.2539
vn -0.5000 0.0000 -0.8660
vn 0.5000 0.0000 -0.8660
vn 0.3603 0.6934 -0.6240
vn 0.7158 0.6984 0.0000
vn 0.3603 0.6934 0.6240
vn -0.6041 0.5918 0.5337
vn -0.6041 0.5918 -0.5337
vn 0.0000 1.0000 0.0000
vn 0.0000 -1.0000 0.0000
usemtl hexagons_medieval
s 1
f 7/1/1 16/2/1 14/3/1 5/4/1
f 9/5/2 17/6/2 16/2/2 7/1/2
f 11/7/3 18/8/3 17/6/3 9/5/3
f 13/9/4 19/10/5 18/8/5 11/7/6
f 3/11/7 12/12/8 10/13/9 8/14/10
f 2/15/11 15/16/11 19/10/11 13/9/11
f 5/4/12 14/3/12 15/16/12 2/15/12
f 5/17/13 2/18/13 3/19/13 4/20/13
f 7/21/14 5/17/14 4/20/14 6/22/14
f 9/23/15 7/21/15 6/22/15 8/24/15
f 11/25/6 9/23/16 8/24/10 10/26/9
f 13/27/4 11/25/6 10/26/9 12/28/8
f 2/18/17 13/27/4 12/28/8 3/19/7
f 4/29/18 3/11/7 8/14/10 6/30/18
f 1/31/19 15/32/19 14/33/19
f 1/31/19 14/33/19 16/34/19
f 1/31/19 16/34/19 17/35/19
f 1/31/19 17/35/19 18/36/19
f 1/31/19 18/36/19 19/37/19
f 1/31/19 19/37/19 15/32/19
