# Blender v3.4.1 OBJ File: 'Medieval_Hexagons_Export_1.0_WorldOrigin.blend'
# www.blender.org
mtllib hex_coast_C_waterless.mtl
o hex_coast_C_waterless
v -0.368001 -1.000000 -0.654938
v 0.999998 -0.200000 -0.577349
v -0.999998 -0.200000 0.577349
v -0.999998 -0.100000 -0.000000
v 0.499999 -0.100000 -0.866024
v 0.710901 -0.200000 -0.308281
v 0.383333 -0.200000 -0.105847
v -0.050000 -0.200000 -0.086603
v -0.383333 -0.200000 0.105847
v -0.620527 -0.200000 0.407170
v 0.362152 -0.100000 -0.615500
v 0.112152 -0.100000 -0.471163
v -0.221873 -0.100000 -0.472363
v -0.493746 -0.100000 -0.333886
v -0.736955 -0.100000 -0.105733
v -0.999998 -0.050000 -0.000000
v -0.949998 0.000000 -0.077851
v -0.949998 0.000000 -0.548482
v -0.999998 -0.050000 -0.577350
v -0.000000 0.000000 -1.096964
v -0.000000 -0.050000 -1.154699
v 0.428493 0.000000 -0.849573
v 0.499999 -0.050000 -0.866024
v -0.472673 0.000000 -0.824066
v -0.499999 -0.050000 -0.866024
v 0.319254 0.000000 -0.651434
v 0.362152 -0.050000 -0.615500
v 0.075668 0.000000 -0.511382
v 0.112152 -0.050000 -0.471163
v -0.250576 0.000000 -0.512989
v -0.221873 -0.050000 -0.472363
v -0.511983 0.000000 -0.379860
v -0.493746 -0.050000 -0.333886
v -0.736955 -0.050000 -0.105733
v -0.746156 0.000000 -0.159942
v 0.716505 -0.100000 -0.741024
v -0.999998 -0.100000 0.250000
v 0.500739 -0.100000 -0.493417
v 0.221199 -0.100000 -0.324262
v -0.150193 -0.100000 -0.311481
v -0.445963 -0.100000 -0.143584
v -0.678785 -0.100000 0.150526
v -1.000000 -1.000000 -0.000000
v -1.000000 -1.000000 0.577350
v 0.500000 -1.000000 -0.866025
v -0.000000 -1.000000 -1.154700
v -0.500000 -1.000000 -0.866025
v -1.000000 -1.000000 -0.577350
v 0.999998 -1.000000 -0.577349
v 0.710901 -1.000000 -0.308281
v 0.383333 -1.000000 -0.105847
v -0.050000 -1.000000 -0.086603
v -0.383333 -1.000000 0.105847
v -0.620527 -1.000000 0.407170
vt 0.539817 0.376975
vt 0.538345 0.376975
vt 0.536809 0.376975
vt 0.536809 0.376975
vt 0.538304 0.376975
vt 0.539817 0.376975
vt 0.041688 0.387907
vt 0.041688 0.387907
vt 0.039534 0.387907
vt 0.039534 0.387907
vt 0.041688 0.387907
vt 0.041688 0.387907
vt 0.041688 0.387907
vt 0.041688 0.387907
vt 0.041494 0.423850
vt 0.039700 0.423850
vt 0.041513 0.423850
vt 0.041461 0.423850
vt 0.039766 0.423850
vt 0.039733 0.423850
vt 0.041482 0.423850
vt 0.041475 0.423850
vt 0.039534 0.356657
vt 0.039307 0.298735
vt 0.039307 0.298735
vt 0.039534 0.356657
vt 0.041688 0.387907
vt 0.041688 0.387907
vt 0.041688 0.387907
vt 0.041688 0.387907
vt 0.041688 0.387907
vt 0.041688 0.387907
vt 0.041688 0.387907
vt 0.041688 0.387907
vt 0.039700 0.423850
vt 0.041512 0.423850
vt 0.041466 0.423850
vt 0.041575 0.298735
vt 0.041688 0.356657
vt 0.039534 0.356657
vt 0.039307 0.298735
vt 0.539817 0.283110
vt 0.536651 0.283110
vt 0.041688 0.356657
vt 0.041575 0.298735
vt 0.536651 0.283110
vt 0.539817 0.283110
vt 0.572833 0.392600
vt 0.572833 0.392600
vt 0.571328 0.392600
vt 0.571362 0.392600
vt 0.571328 0.423850
vt 0.569825 0.423850
vt 0.569825 0.423850
vt 0.571362 0.423850
vt 0.571127 0.423850
vt 0.569825 0.423850
vt 0.571080 0.423850
vt 0.569825 0.423850
vt 0.571035 0.423850
vt 0.569825 0.423850
vt 0.571020 0.423850
vt 0.569825 0.423850
vt 0.041475 0.408225
vt 0.039741 0.408225
vt 0.039534 0.408225
vt 0.041688 0.408225
vt 0.039723 0.408225
vt 0.041494 0.408225
vt 0.041688 0.408225
vt 0.039534 0.408225
vt 0.041482 0.408225
vt 0.041688 0.408225
vt 0.039766 0.408225
vt 0.039534 0.408225
vt 0.039700 0.408225
vt 0.041513 0.408225
vt 0.041688 0.408225
vt 0.041512 0.408225
vt 0.041688 0.408225
vt 0.041466 0.408225
vt 0.041688 0.408225
vt 0.041461 0.408225
vt 0.041688 0.408225
vt 0.572833 0.392600
vt 0.572833 0.392600
vt 0.571320 0.392600
vt 0.571020 0.392600
vt 0.572833 0.392600
vt 0.571035 0.392600
vt 0.572833 0.392600
vt 0.571080 0.392600
vt 0.572833 0.392600
vt 0.571127 0.392600
vt 0.571320 0.423850
vt 0.569825 0.423850
vt 0.539817 0.283110
vt 0.539817 0.376975
vt 0.539817 0.283110
vt 0.539817 0.376975
vt 0.539817 0.283110
vt 0.539817 0.376975
vt 0.539817 0.283110
vt 0.539817 0.376975
vt 0.539817 0.283110
vt 0.539817 0.376975
vt 0.556251 0.288250
vt 0.561198 0.288250
vt 0.556065 0.288250
vt 0.056251 0.288250
vt 0.050932 0.288250
vt 0.056065 0.288250
vt 0.050932 0.288250
vt 0.050932 0.288250
vt 0.056065 0.288250
vt 0.561198 0.288250
vt 0.562107 0.288250
vt 0.562225 0.288250
vt 0.560172 0.288250
vt 0.560172 0.288250
vt 0.561633 0.288250
vt 0.556065 0.288250
vn -1.0000 0.0000 0.0000
vn 0.5000 0.0000 -0.8660
vn 0.3730 0.0000 0.9278
vn 0.5378 0.0000 0.8431
vn 0.0000 1.0000 0.0000
vn -0.5000 0.0000 -0.8660
vn 0.5747 0.0000 0.8183
vn 0.2316 0.0000 0.9728
vn 0.1951 0.3784 0.9049
vn 0.2571 0.0000 0.9664
vn 0.2570 0.3593 0.8971
vn 0.7143 0.0000 0.6998
vn 0.8761 0.0000 0.4821
vn 0.1197 0.9429 0.3110
vn 0.1996 0.9330 0.2994
vn 0.2554 0.9223 0.2900
vn -0.7071 0.7071 -0.0000
vn 0.3536 0.7071 -0.6124
vn 0.4042 0.7056 0.5820
vn 0.2545 0.7315 0.6326
vn 0.3574 0.7159 0.5998
vn -0.3536 0.7071 -0.6124
vn 0.5904 0.7388 0.3251
vn 0.4707 0.7449 0.4729
vn 0.4801 0.7453 0.4626
vn 0.1392 0.6807 0.7192
vn 0.1935 0.6824 0.7049
vn 0.4059 0.6941 0.5946
vn 0.4248 0.6914 0.5843
vn 0.2075 0.9444 0.2550
vn 0.2272 0.9482 0.2221
vn 0.2028 0.9433 0.2628
vn 0.1191 0.9332 0.3391
vn 0.0844 0.9286 0.3614
vn 0.0960 0.9244 0.3692
vn 0.1104 0.9253 0.3627
vn 0.2867 0.9119 0.2938
vn 0.2426 0.9197 0.3088
vn 0.4092 0.0000 0.9124
vn 0.6153 0.0000 0.7883
vn 0.6547 0.0000 0.7559
vn 0.2802 0.0000 0.9599
vn 0.2945 0.0000 0.9556
vn 0.6064 0.0000 0.7952
vn 0.6813 0.0000 0.7320
vn 0.0000 -1.0000 -0.0000
usemtl hexagons_medieval
s 1
f 3/1/1 37/2/1 4/3/1
f 5/4/2 36/5/2 2/6/2
f 4/7/1 16/8/1 19/9/1
f 21/10/2 23/11/2 5/12/2
f 4/7/3 15/13/4 34/14/4 16/8/3
f 22/15/5 20/16/5 26/17/5
f 32/18/5 24/19/5 18/20/5 35/21/5
f 35/21/5 18/20/5 17/22/5
f 25/23/6 47/24/6 48/25/6 19/26/6
f 15/13/4 14/27/7 33/28/7 34/14/4
f 14/27/7 13/29/8 31/30/9 33/28/7
f 13/29/8 12/31/10 29/32/11 31/30/9
f 11/33/12 5/12/13 23/11/13 27/34/12
f 12/31/10 11/33/12 27/34/12 29/32/11
f 26/17/5 20/16/5 24/35/5 28/36/5
f 28/36/5 24/19/5 30/37/5
f 30/37/5 24/19/5 32/18/5
f 43/38/1 4/39/1 19/26/1 48/25/1
f 21/40/6 46/41/6 47/24/6 25/23/6
f 44/42/1 3/1/1 4/3/1 43/43/1
f 46/41/2 21/40/2 5/44/2 45/45/2
f 45/46/2 5/4/2 2/6/2 49/47/2
f 3/48/14 10/49/15 42/50/16 37/51/14
f 42/52/5 15/53/5 4/54/5 37/55/5
f 41/56/5 14/57/5 15/53/5 42/52/5
f 40/58/5 13/59/5 14/57/5 41/56/5
f 39/60/5 12/61/5 13/59/5 40/58/5
f 38/62/5 11/63/5 12/61/5 39/60/5
f 17/64/17 18/65/17 19/66/17 16/67/17
f 20/68/18 22/69/18 23/70/18 21/71/18
f 35/72/19 17/64/20 16/67/20 34/73/21
f 18/65/22 24/74/22 25/75/22 19/66/22
f 24/76/22 20/68/22 21/71/22 25/75/22
f 22/69/23 26/77/24 27/78/25 23/70/23
f 26/77/24 28/79/26 29/80/11 27/78/25
f 28/79/26 30/81/27 31/82/9 29/80/11
f 30/81/27 32/83/28 33/84/29 31/82/9
f 32/83/28 35/72/19 34/73/21 33/84/29
f 6/85/30 2/86/31 36/87/31 38/88/32
f 7/89/33 6/85/30 38/88/32 39/90/34
f 8/91/35 7/89/33 39/90/34 40/92/36
f 9/93/37 8/91/35 40/92/36 41/94/38
f 10/49/15 9/93/37 41/94/38 42/50/16
f 36/95/5 5/96/5 11/63/5 38/62/5
f 44/42/39 54/97/40 10/98/40 3/1/39
f 10/98/40 54/97/40 53/99/41 9/100/41
f 9/100/41 53/99/41 52/101/42 8/102/42
f 8/102/42 52/101/42 51/103/43 7/104/43
f 7/104/43 51/103/43 50/105/44 6/106/44
f 6/106/44 50/105/44 49/47/45 2/6/45
f 1/107/46 44/108/46 43/109/46
f 1/110/46 46/111/46 45/112/46
f 1/110/46 48/113/46 47/114/46
f 1/110/46 43/115/46 48/113/46
f 1/110/46 47/114/46 46/111/46
f 1/107/46 49/116/46 50/117/46
f 1/107/46 50/117/46 51/118/46
f 1/107/46 51/118/46 52/119/46
f 1/107/46 52/119/46 53/120/46
f 1/107/46 53/120/46 54/121/46
f 1/107/46 45/122/46 49/116/46
f 1/107/46 54/121/46 44/108/46
