# Blender v3.4.1 OBJ File: 'Medieval_Hexagons_Export_1.0_WorldOrigin.blend'
# www.blender.org
mtllib hex_coast_B_waterless.mtl
o hex_coast_B_waterless
v -0.000632 -1.000000 -0.764378
v 0.999998 -0.200000 0.577349
v -0.999998 -0.200000 0.577349
v 0.999998 -0.100000 0.000000
v -0.999998 -0.100000 0.000000
v -0.035447 -0.100000 -0.507355
v 0.028825 -0.200000 -0.072795
v 0.318922 -0.200000 0.151577
v 0.657058 -0.200000 0.197860
v 0.341110 -0.100000 -0.410839
v 0.666666 -0.100000 -0.100000
v -0.666666 -0.100000 -0.179248
v -0.305664 -0.100000 -0.261655
v -0.604218 -0.200000 0.439797
v -0.290105 -0.200000 0.069384
v -0.003158 0.000000 -1.097021
v 0.000000 -0.050000 -1.154698
v 0.949998 0.000000 -0.547201
v 0.999998 -0.050000 -0.577349
v -0.949998 0.000000 -0.081099
v -0.999998 -0.050000 0.000000
v -0.949998 0.000000 -0.549845
v -0.999998 -0.050000 -0.577349
v 0.949998 0.000000 -0.072505
v 0.999998 -0.050000 0.000000
v -0.035447 -0.050000 -0.507355
v -0.032272 0.000000 -0.565341
v 0.341110 -0.050000 -0.410839
v 0.340281 0.000000 -0.469650
v 0.666666 0.000000 -0.157717
v 0.666666 -0.050000 -0.100000
v -0.666666 -0.050000 -0.179248
v -0.666666 0.000000 -0.233357
v -0.307779 0.000000 -0.315223
v -0.305664 -0.050000 -0.261655
v 0.999998 -0.100000 0.250000
v -0.999998 -0.100000 0.250000
v -0.015909 -0.100000 -0.375250
v 0.329376 -0.100000 -0.113412
v 0.665705 -0.100000 -0.034284
v -0.633715 -0.100000 0.147395
v -0.296511 -0.100000 -0.202340
v 1.000000 -1.000000 0.000000
v 1.000000 -1.000000 -0.577350
v -1.000000 -1.000000 0.000000
v -1.000000 -1.000000 0.577350
v -1.000000 -1.000000 -0.577350
v 0.000000 -1.000000 -1.154700
v 0.999998 -1.000000 0.577349
v 0.657058 -1.000000 0.197860
v 0.028825 -1.000000 -0.072795
v -0.290105 -1.000000 0.069384
v 0.318922 -1.000000 0.151577
v -0.604218 -1.000000 0.439797
vt 0.533801 0.376975
vt 0.533801 0.376975
vt 0.533801 0.376975
vt 0.545832 0.376975
vt 0.545832 0.376975
vt 0.545832 0.376975
vt 0.039749 0.423850
vt 0.040970 0.423850
vt 0.042406 0.423850
vt 0.572833 0.423850
vt 0.570828 0.423850
vt 0.570828 0.423850
vt 0.572833 0.423850
vt 0.045279 0.423850
vt 0.046715 0.423850
vt 0.047936 0.423850
vt 0.043843 0.423850
vt 0.039534 0.387907
vt 0.040970 0.387907
vt 0.040970 0.387907
vt 0.039534 0.387907
vt 0.039534 0.387907
vt 0.042406 0.387907
vt 0.043843 0.387907
vt 0.043843 0.387907
vt 0.042406 0.387907
vt 0.046715 0.387907
vt 0.048152 0.387907
vt 0.048152 0.387907
vt 0.046715 0.387907
vt 0.045279 0.387907
vt 0.045279 0.387907
vt 0.048379 0.298735
vt 0.043843 0.298735
vt 0.043843 0.356657
vt 0.048152 0.356657
vt 0.568823 0.423850
vt 0.568823 0.423850
vt 0.043843 0.408225
vt 0.047936 0.408225
vt 0.048152 0.408225
vt 0.043843 0.408225
vt 0.576843 0.423850
vt 0.574838 0.423850
vt 0.574838 0.423850
vt 0.576843 0.423850
vt 0.039749 0.423850
vt 0.566817 0.423850
vt 0.566817 0.423850
vt 0.576843 0.392600
vt 0.578849 0.392600
vt 0.578849 0.392600
vt 0.576843 0.392600
vt 0.043843 0.423850
vt 0.048152 0.387907
vt 0.039749 0.408225
vt 0.039534 0.408225
vt 0.039749 0.408225
vt 0.039534 0.408225
vt 0.039307 0.298735
vt 0.039534 0.356657
vt 0.047936 0.408225
vt 0.048152 0.408225
vt 0.046715 0.408225
vt 0.046715 0.408225
vt 0.042406 0.408225
vt 0.043843 0.408225
vt 0.043843 0.408225
vt 0.042406 0.408225
vt 0.045279 0.408225
vt 0.045279 0.408225
vt 0.047936 0.423850
vt 0.040970 0.408225
vt 0.040970 0.408225
vt 0.570828 0.392600
vt 0.572833 0.392600
vt 0.572833 0.392600
vt 0.570828 0.392600
vt 0.574838 0.392600
vt 0.574838 0.392600
vt 0.566817 0.392600
vt 0.568823 0.392600
vt 0.568823 0.392600
vt 0.566817 0.392600
vt 0.578849 0.423850
vt 0.578849 0.423850
vt 0.039307 0.298735
vt 0.039534 0.356657
vt 0.533484 0.283110
vt 0.533484 0.283110
vt 0.048152 0.356657
vt 0.048379 0.298735
vt 0.546149 0.283110
vt 0.546149 0.283110
vt 0.540571 0.281250
vt 0.535806 0.376975
vt 0.540571 0.281250
vt 0.537812 0.376975
vt 0.540571 0.281250
vt 0.539817 0.376975
vt 0.540571 0.281250
vt 0.541822 0.376975
vt 0.540571 0.281250
vt 0.543827 0.376975
vt 0.552398 0.288250
vt 0.552398 0.288250
vt 0.556462 0.288250
vt 0.572932 0.288250
vt 0.569411 0.288250
vt 0.562658 0.288250
vt 0.062658 0.288250
vt 0.052398 0.288250
vt 0.062665 0.288250
vt 0.072932 0.288250
vt 0.572932 0.288250
vt 0.562961 0.288250
vt 0.559687 0.288250
vt 0.565939 0.288250
vt 0.072932 0.288250
vt 0.052398 0.288250
vn -1.0000 0.0000 0.0000
vn 1.0000 0.0000 0.0000
vn 0.0000 1.0000 0.0000
vn 0.4736 0.0000 0.8807
vn 0.3513 0.0000 0.9363
vn 0.4628 0.0000 0.8865
vn 0.6727 0.0000 0.7399
vn 0.6201 0.3874 0.6822
vn 0.4175 0.3599 0.8344
vn -0.5028 0.0000 0.8644
vn -0.2873 0.0000 0.9578
vn -0.4516 0.3693 0.8122
vn -0.2483 0.0000 0.9687
vn -0.4852 0.0000 0.8744
vn -0.4716 0.3996 0.7861
vn 0.5000 0.0000 -0.8660
vn 0.3488 0.7162 -0.6044
vn -0.2166 0.9153 0.3396
vn -0.3096 0.8969 0.3158
vn -0.1556 0.9225 0.3533
vn -0.3587 0.6970 -0.6210
vn -0.7071 0.7071 0.0000
vn -0.5000 0.0000 -0.8660
vn 0.7071 0.7071 0.0000
vn -0.1932 0.7410 0.6432
vn -0.4051 0.6912 0.5984
vn 0.5204 0.6334 0.5727
vn 0.3765 0.6841 0.6247
vn -0.1641 0.7509 0.6397
vn -0.3020 0.7243 0.6198
vn 0.3426 0.6903 0.6373
vn 0.2638 0.7085 0.6545
vn 0.2322 0.7144 0.6601
vn 0.2735 0.9129 0.3029
vn -0.0730 0.9404 0.3320
vn -0.0087 0.9445 0.3283
vn 0.2124 0.9273 0.3082
vn -0.1398 0.9230 0.3585
vn -0.1832 0.9185 0.3504
vn 0.0951 0.9487 0.3016
vn 0.1714 0.9378 0.3020
vn 0.2397 0.9231 0.3008
vn 0.3283 0.0000 0.9446
vn 0.5654 0.0000 0.8248
vn 0.5999 0.0000 0.8001
vn 0.4072 0.0000 0.9134
vn -0.6118 0.0000 0.7910
vn -0.3868 0.0000 0.9222
vn -0.1356 0.0000 0.9908
vn -0.7419 0.0000 0.6705
vn 0.0000 -1.0000 0.0000
usemtl hexagons_medieval
s 1
f 3/1/1 37/2/1 5/3/1
f 4/4/2 36/5/2 2/6/2
f 22/7/3 33/8/3 34/9/3
f 6/10/3 13/11/3 42/12/3 38/13/3
f 29/14/3 30/15/3 18/16/3
f 16/17/3 29/14/3 18/16/3
f 5/18/4 12/19/5 32/20/5 21/21/4
f 5/18/1 21/21/1 23/22/1
f 13/23/6 6/24/7 26/25/8 35/26/9
f 11/27/10 4/28/11 25/29/11 31/30/12
f 6/24/13 10/31/14 28/32/15 26/25/13
f 44/33/16 48/34/16 17/35/16 19/36/16
f 10/31/14 11/27/10 31/30/12 28/32/15
f 13/11/3 12/37/3 41/38/3 42/12/3
f 16/39/17 18/40/17 19/41/17 17/42/17
f 11/43/3 10/44/3 39/45/3 40/46/3
f 22/7/3 20/47/3 33/8/3
f 12/37/3 5/48/3 37/49/3 41/38/3
f 9/50/18 2/51/19 36/52/19 40/53/20
f 16/17/3 27/54/3 29/14/3
f 12/19/5 13/23/6 35/26/9 32/20/5
f 19/55/2 25/29/2 4/28/2
f 10/44/3 6/10/3 38/13/3 39/45/3
f 22/56/21 16/39/21 17/42/21 23/57/21
f 20/58/22 22/56/22 23/57/22 21/59/22
f 48/34/23 47/60/23 23/61/23 17/35/23
f 18/40/24 24/62/24 25/63/24 19/41/24
f 31/64/12 25/63/25 24/62/25 30/65/26
f 35/66/9 26/67/8 27/68/27 34/69/28
f 27/54/3 16/17/3 34/9/3
f 26/67/29 28/70/15 29/71/30 27/68/29
f 28/70/15 31/64/12 30/65/26 29/71/30
f 24/72/3 18/16/3 30/15/3
f 21/59/31 32/73/32 33/74/33 20/58/31
f 32/73/32 35/66/9 34/69/28 33/74/33
f 15/75/34 7/76/35 38/77/36 42/78/37
f 7/76/35 8/79/38 39/80/39 38/77/36
f 8/79/38 9/50/18 40/53/20 39/80/39
f 3/81/40 14/82/41 41/83/42 37/84/40
f 14/82/41 15/75/34 42/78/37 41/83/42
f 4/85/3 11/43/3 40/46/3 36/86/3
f 45/87/1 5/88/1 23/61/1 47/60/1
f 46/89/1 3/1/1 5/3/1 45/90/1
f 44/33/2 19/36/2 4/91/2 43/92/2
f 43/93/2 4/4/2 2/6/2 49/94/2
f 16/17/3 22/7/3 34/9/3
f 46/89/43 54/95/44 14/96/44 3/1/43
f 52/97/45 15/98/45 14/96/44 54/95/44
f 51/99/46 7/100/46 15/98/45 52/97/45
f 51/99/47 53/101/48 8/102/48 7/100/47
f 8/102/48 53/101/48 50/103/49 9/104/49
f 9/104/50 50/103/50 49/94/50 2/6/50
f 46/105/51 45/106/51 54/107/51
f 43/108/51 50/109/51 1/110/51
f 1/111/51 47/112/51 48/113/51
f 1/111/51 48/113/51 44/114/51
f 43/108/51 49/115/51 50/109/51
f 1/110/51 51/116/51 52/117/51
f 1/110/51 53/118/51 51/116/51
f 1/110/51 50/109/51 53/118/51
f 1/110/51 52/117/51 54/107/51
f 44/114/51 43/119/51 1/111/51
f 54/107/51 45/106/51 1/110/51
f 45/120/51 47/112/51 1/111/51
