{
    "asset" : {
        "generator" : "Khronos glTF Blender I/O v3.4.50",
        "version" : "2.0"
    },
    "scene" : 0,
    "scenes" : [
        {
            "name" : "Scene",
            "nodes" : [
                2
            ]
        }
    ],
    "nodes" : [
        {
            "mesh" : 0,
            "name" : "catapult_arm_green",
            "translation" : [
                0,
                0.3999999761581421,
                -0.07000017166137695
            ]
        },
        {
            "children" : [
                0
            ],
            "mesh" : 1,
            "name" : "catapult_turret_green",
            "translation" : [
                0,
                1.399999976158142,
                0
            ]
        },
        {
            "children" : [
                1
            ],
            "mesh" : 2,
            "name" : "building_tower_catapult_green"
        }
    ],
    "materials" : [
        {
            "name" : "hexagons_medieval",
            "pbrMetallicRoughness" : {
                "baseColorTexture" : {
                    "index" : 0
                },
                "metallicFactor" : 0,
                "roughnessFactor" : 0.5
            }
        }
    ],
    "meshes" : [
        {
            "name" : "catapult_arm_green",
            "primitives" : [
                {
                    "attributes" : {
                        "POSITION" : 0,
                        "TEXCOORD_0" : 1,
                        "NORMAL" : 2
                    },
                    "indices" : 3,
                    "material" : 0
                }
            ]
        },
        {
            "name" : "catapult_turret_green",
            "primitives" : [
                {
                    "attributes" : {
                        "POSITION" : 4,
                        "TEXCOORD_0" : 5,
                        "NORMAL" : 6
                    },
                    "indices" : 7,
                    "material" : 0
                }
            ]
        },
        {
            "name" : "building_tower_catapult_green",
            "primitives" : [
                {
                    "attributes" : {
                        "POSITION" : 8,
                        "TEXCOORD_0" : 9,
                        "NORMAL" : 10
                    },
                    "indices" : 11,
                    "material" : 0
                }
            ]
        }
    ],
    "textures" : [
        {
            "sampler" : 0,
            "source" : 0
        }
    ],
    "images" : [
        {
            "mimeType" : "image/png",
            "name" : "hexagons_medieval",
            "uri" : "hexagons_medieval.png"
        }
    ],
    "accessors" : [
        {
            "bufferView" : 0,
            "componentType" : 5126,
            "count" : 376,
            "max" : [
                0.14807480573654175,
                0.04426554962992668,
                0.231373593211174
            ],
            "min" : [
                -0.14808054268360138,
                -0.11772698163986206,
                -0.6533305644989014
            ],
            "type" : "VEC3"
        },
        {
            "bufferView" : 1,
            "componentType" : 5126,
            "count" : 376,
            "type" : "VEC2"
        },
        {
            "bufferView" : 2,
            "componentType" : 5126,
            "count" : 376,
            "type" : "VEC3"
        },
        {
            "bufferView" : 3,
            "componentType" : 5123,
            "count" : 1200,
            "type" : "SCALAR"
        },
        {
            "bufferView" : 4,
            "componentType" : 5126,
            "count" : 1359,
            "max" : [
                0.3955053687095642,
                0.5640908479690552,
                0.3150000274181366
            ],
            "min" : [
                -0.3150000274181366,
                -1.1920928955078125e-07,
                -0.31562188267707825
            ],
            "type" : "VEC3"
        },
        {
            "bufferView" : 5,
            "componentType" : 5126,
            "count" : 1359,
            "type" : "VEC2"
        },
        {
            "bufferView" : 6,
            "componentType" : 5126,
            "count" : 1359,
            "type" : "VEC3"
        },
        {
            "bufferView" : 7,
            "componentType" : 5123,
            "count" : 2778,
            "type" : "SCALAR"
        },
        {
            "bufferView" : 8,
            "componentType" : 5126,
            "count" : 2265,
            "max" : [
                0.4648962616920471,
                1.5,
                0.5800000429153442
            ],
            "min" : [
                -0.4648962616920471,
                0,
                -0.5311260223388672
            ],
            "type" : "VEC3"
        },
        {
            "bufferView" : 9,
            "componentType" : 5126,
            "count" : 2265,
            "type" : "VEC2"
        },
        {
            "bufferView" : 10,
            "componentType" : 5126,
            "count" : 2265,
            "type" : "VEC3"
        },
        {
            "bufferView" : 11,
            "componentType" : 5123,
            "count" : 4614,
            "type" : "SCALAR"
        }
    ],
    "bufferViews" : [
        {
            "buffer" : 0,
            "byteLength" : 4512,
            "byteOffset" : 0,
            "target" : 34962
        },
        {
            "buffer" : 0,
            "byteLength" : 3008,
            "byteOffset" : 4512,
            "target" : 34962
        },
        {
            "buffer" : 0,
            "byteLength" : 4512,
            "byteOffset" : 7520,
            "target" : 34962
        },
        {
            "buffer" : 0,
            "byteLength" : 2400,
            "byteOffset" : 12032,
            "target" : 34963
        },
        {
            "buffer" : 0,
            "byteLength" : 16308,
            "byteOffset" : 14432,
            "target" : 34962
        },
        {
            "buffer" : 0,
            "byteLength" : 10872,
            "byteOffset" : 30740,
            "target" : 34962
        },
        {
            "buffer" : 0,
            "byteLength" : 16308,
            "byteOffset" : 41612,
            "target" : 34962
        },
        {
            "buffer" : 0,
            "byteLength" : 5556,
            "byteOffset" : 57920,
            "target" : 34963
        },
        {
            "buffer" : 0,
            "byteLength" : 27180,
            "byteOffset" : 63476,
            "target" : 34962
        },
        {
            "buffer" : 0,
            "byteLength" : 18120,
            "byteOffset" : 90656,
            "target" : 34962
        },
        {
            "buffer" : 0,
            "byteLength" : 27180,
            "byteOffset" : 108776,
            "target" : 34962
        },
        {
            "buffer" : 0,
            "byteLength" : 9228,
            "byteOffset" : 135956,
            "target" : 34963
        }
    ],
    "samplers" : [
        {
            "magFilter" : 9729,
            "minFilter" : 9987
        }
    ],
    "buffers" : [
        {
            "byteLength" : 145184,
            "uri" : "building_tower_catapult_green.bin"
        }
    ]
}
