{
    "asset" : {
        "generator" : "Khronos glTF Blender I/O v3.4.50",
        "version" : "2.0"
    },
    "scene" : 0,
    "scenes" : [
        {
            "name" : "Scene",
            "nodes" : [
                2
            ]
        }
    ],
    "nodes" : [
        {
            "mesh" : 0,
            "name" : "building_windmill_top_fan_green",
            "translation" : [
                -7.62939453125e-06,
                0.27165576815605164,
                0.3321409225463867
            ]
        },
        {
            "children" : [
                0
            ],
            "mesh" : 1,
            "name" : "building_windmill_top_green",
            "translation" : [
                0,
                0.685367226600647,
                0
            ]
        },
        {
            "children" : [
                1
            ],
            "mesh" : 2,
            "name" : "building_windmill_green"
        }
    ],
    "materials" : [
        {
            "name" : "hexagons_medieval",
            "pbrMetallicRoughness" : {
                "baseColorTexture" : {
                    "index" : 0
                },
                "metallicFactor" : 0,
                "roughnessFactor" : 0.5
            }
        }
    ],
    "meshes" : [
        {
            "name" : "building_windmill_top_fan_green",
            "primitives" : [
                {
                    "attributes" : {
                        "POSITION" : 0,
                        "TEXCOORD_0" : 1,
                        "NORMAL" : 2
                    },
                    "indices" : 3,
                    "material" : 0
                }
            ]
        },
        {
            "name" : "building_windmill_top_green",
            "primitives" : [
                {
                    "attributes" : {
                        "POSITION" : 4,
                        "TEXCOORD_0" : 5,
                        "NORMAL" : 6
                    },
                    "indices" : 7,
                    "material" : 0
                }
            ]
        },
        {
            "name" : "building_windmill_green",
            "primitives" : [
                {
                    "attributes" : {
                        "POSITION" : 8,
                        "TEXCOORD_0" : 9,
                        "NORMAL" : 10
                    },
                    "indices" : 11,
                    "material" : 0
                }
            ]
        }
    ],
    "textures" : [
        {
            "sampler" : 0,
            "source" : 0
        }
    ],
    "images" : [
        {
            "mimeType" : "image/png",
            "name" : "hexagons_medieval",
            "uri" : "hexagons_medieval.png"
        }
    ],
    "accessors" : [
        {
            "bufferView" : 0,
            "componentType" : 5126,
            "count" : 695,
            "max" : [
                0.5008417963981628,
                0.5008417367935181,
                0.10544100403785706
            ],
            "min" : [
                -0.5008417963981628,
                -0.5008417963981628,
                0
            ],
            "type" : "VEC3"
        },
        {
            "bufferView" : 1,
            "componentType" : 5126,
            "count" : 695,
            "type" : "VEC2"
        },
        {
            "bufferView" : 2,
            "componentType" : 5126,
            "count" : 695,
            "type" : "VEC3"
        },
        {
            "bufferView" : 3,
            "componentType" : 5123,
            "count" : 1080,
            "type" : "SCALAR"
        },
        {
            "bufferView" : 4,
            "componentType" : 5126,
            "count" : 697,
            "max" : [
                0.33200445771217346,
                0.6937967538833618,
                0.33214014768600464
            ],
            "min" : [
                -0.33200445771217346,
                0,
                -0.3320044279098511
            ],
            "type" : "VEC3"
        },
        {
            "bufferView" : 5,
            "componentType" : 5126,
            "count" : 697,
            "type" : "VEC2"
        },
        {
            "bufferView" : 6,
            "componentType" : 5126,
            "count" : 697,
            "type" : "VEC3"
        },
        {
            "bufferView" : 7,
            "componentType" : 5123,
            "count" : 1539,
            "type" : "SCALAR"
        },
        {
            "bufferView" : 8,
            "componentType" : 5126,
            "count" : 2538,
            "max" : [
                0.5678712129592896,
                0.6852657198905945,
                0.4149998426437378
            ],
            "min" : [
                -0.5578987002372742,
                -1.4480118807114195e-05,
                -0.37893959879875183
            ],
            "type" : "VEC3"
        },
        {
            "bufferView" : 9,
            "componentType" : 5126,
            "count" : 2538,
            "type" : "VEC2"
        },
        {
            "bufferView" : 10,
            "componentType" : 5126,
            "count" : 2538,
            "type" : "VEC3"
        },
        {
            "bufferView" : 11,
            "componentType" : 5123,
            "count" : 5340,
            "type" : "SCALAR"
        }
    ],
    "bufferViews" : [
        {
            "buffer" : 0,
            "byteLength" : 8340,
            "byteOffset" : 0,
            "target" : 34962
        },
        {
            "buffer" : 0,
            "byteLength" : 5560,
            "byteOffset" : 8340,
            "target" : 34962
        },
        {
            "buffer" : 0,
            "byteLength" : 8340,
            "byteOffset" : 13900,
            "target" : 34962
        },
        {
            "buffer" : 0,
            "byteLength" : 2160,
            "byteOffset" : 22240,
            "target" : 34963
        },
        {
            "buffer" : 0,
            "byteLength" : 8364,
            "byteOffset" : 24400,
            "target" : 34962
        },
        {
            "buffer" : 0,
            "byteLength" : 5576,
            "byteOffset" : 32764,
            "target" : 34962
        },
        {
            "buffer" : 0,
            "byteLength" : 8364,
            "byteOffset" : 38340,
            "target" : 34962
        },
        {
            "buffer" : 0,
            "byteLength" : 3078,
            "byteOffset" : 46704,
            "target" : 34963
        },
        {
            "buffer" : 0,
            "byteLength" : 30456,
            "byteOffset" : 49784,
            "target" : 34962
        },
        {
            "buffer" : 0,
            "byteLength" : 20304,
            "byteOffset" : 80240,
            "target" : 34962
        },
        {
            "buffer" : 0,
            "byteLength" : 30456,
            "byteOffset" : 100544,
            "target" : 34962
        },
        {
            "buffer" : 0,
            "byteLength" : 10680,
            "byteOffset" : 131000,
            "target" : 34963
        }
    ],
    "samplers" : [
        {
            "magFilter" : 9729,
            "minFilter" : 9987
        }
    ],
    "buffers" : [
        {
            "byteLength" : 141680,
            "uri" : "building_windmill_green.bin"
        }
    ]
}
