# Blender v3.4.1 OBJ File: 'Medieval_Hexagons_Export_1.0_WorldOrigin.blend'
# www.blender.org
mtllib building_grain.mtl
o building_grain
v -0.000000 -0.000000 0.000000
v -0.000000 0.222401 -1.046799
v 0.908968 0.230744 -0.474761
v 0.908968 0.230744 0.474761
v -0.000000 0.222401 1.046799
v -0.908968 0.230744 0.474761
v -0.908968 0.230744 -0.474761
v -0.280234 0.232849 0.863325
v -0.280234 0.232849 -0.863325
v -0.935274 0.237422 0.158254
v 0.935274 0.237422 0.158254
v 0.311549 0.258869 0.172665
v -0.311549 0.258869 -0.172665
v -0.311549 0.258869 0.172665
v -0.000000 0.258192 -0.348933
v 0.311549 0.258869 -0.172665
v -0.000000 0.258192 0.348933
v -0.640821 0.235764 0.635528
v -0.557971 0.045241 0.619068
v -0.532707 0.236082 0.702560
v -0.537670 0.242155 0.574156
v 0.229319 0.231501 0.896365
v 0.258989 0.046490 0.801383
v 0.331949 0.233976 0.829957
v 0.230361 0.239649 0.763434
v 0.537670 0.242155 0.574156
v 0.537472 0.236089 0.699581
v 0.550712 0.109075 0.644982
v 0.635976 0.235800 0.638507
v 0.654809 0.235651 -0.626943
v 0.553724 0.094570 -0.619886
v 0.518994 0.236051 -0.711145
v 0.537670 0.242155 -0.574156
v 0.230361 0.239649 -0.763434
v 0.304035 0.233398 -0.847942
v 0.264728 0.089856 -0.817724
v 0.256601 0.232253 -0.878638
v -0.537670 0.242155 -0.574156
v -0.530422 0.236078 -0.703989
v -0.539237 0.091543 -0.648164
v -0.643148 0.235747 -0.634099
v -0.932927 0.236826 -0.207170
v -0.882789 0.080903 -0.136445
v -0.936993 0.237858 -0.109339
v -0.811474 0.243385 -0.162257
v 0.811474 0.243385 -0.162257
v 0.936697 0.237783 -0.119191
v 0.873000 0.062042 -0.150001
v 0.933451 0.236959 -0.197318
v 0.004345 0.185797 0.044594
v 0.048232 0.185797 -0.006644
v 0.055582 0.185797 0.088481
v 0.099469 0.185797 0.037244
v 0.009774 0.393796 0.044174
v 0.048651 0.393796 -0.001214
v 0.055162 0.393796 0.083051
v 0.094039 0.393796 0.037663
v -0.275366 0.185797 0.530439
v -0.216245 0.185797 0.497942
v -0.242869 0.185797 0.589560
v -0.183748 0.185797 0.557062
v -0.270136 0.393796 0.531959
v -0.217765 0.393796 0.503171
v -0.241349 0.393796 0.584330
v -0.188978 0.393796 0.555543
v 0.586523 0.185797 0.013596
v 0.653145 0.185797 0.002975
v 0.597144 0.185797 0.080218
v 0.663766 0.185797 0.069597
v 0.590932 0.393796 0.016792
v 0.649948 0.393796 0.007384
v 0.600340 0.393796 0.075809
v 0.659357 0.393796 0.066400
v 0.179567 0.185797 -0.521902
v 0.199372 0.185797 -0.586393
v 0.244057 0.185797 -0.502096
v 0.263863 0.185797 -0.566587
v 0.184378 0.317891 -0.524453
v 0.201923 0.317891 -0.581581
v 0.241507 0.317891 -0.506908
v 0.259051 0.317891 -0.564036
v -0.648508 0.185797 -0.072544
v -0.623662 0.185797 -0.135266
v -0.585786 0.185797 -0.047698
v -0.560940 0.185797 -0.110420
v -0.643510 0.317891 -0.074706
v -0.621500 0.317891 -0.130268
v -0.587948 0.317891 -0.052697
v -0.565939 0.317891 -0.108258
v -0.105068 0.185797 0.551261
v -0.037637 0.185797 0.549157
v -0.102963 0.185797 0.618692
v -0.035532 0.185797 0.616587
v -0.101099 0.317891 0.554990
v -0.041366 0.317891 0.553126
v -0.099234 0.317891 0.614723
v -0.039502 0.317891 0.612858
v 0.339229 0.185797 0.435953
v 0.392900 0.185797 0.395077
v 0.380105 0.185797 0.489623
v 0.433776 0.185797 0.448748
v 0.344626 0.317891 0.436683
v 0.392170 0.317891 0.400474
v 0.380835 0.317891 0.484227
v 0.428379 0.317891 0.448017
v 0.241530 0.185797 -0.349310
v 0.272217 0.185797 -0.409391
v 0.301610 0.185797 -0.318623
v 0.332297 0.185797 -0.378703
v 0.246710 0.317891 -0.350988
v 0.273895 0.317891 -0.404210
v 0.299932 0.317891 -0.323804
v 0.327116 0.317891 -0.377025
v 0.005302 0.185797 -0.454894
v 0.000133 0.185797 -0.522159
v 0.072568 0.185797 -0.460063
v 0.067399 0.185797 -0.527328
v 0.008847 0.393796 -0.459028
v 0.004268 0.393796 -0.518614
v 0.068433 0.393796 -0.463607
v 0.063854 0.393796 -0.523193
v -0.414693 0.185797 -0.487518
v -0.370806 0.185797 -0.538755
v -0.363456 0.185797 -0.443631
v -0.319569 0.185797 -0.494868
v -0.409263 0.317891 -0.487937
v -0.370387 0.317891 -0.533325
v -0.363875 0.317891 -0.449060
v -0.324999 0.317891 -0.494448
v 0.259816 0.000000 -0.786262
v -0.000000 0.000000 -0.951635
v 0.850679 0.000000 -0.146425
v 0.830206 0.000000 -0.439275
v 0.538947 -0.000000 0.612769
v 0.830206 -0.000000 0.439275
v -0.259816 -0.000000 0.786262
v -0.000000 -0.000000 0.951635
v -0.850679 -0.000000 0.146425
v -0.830206 -0.000000 0.439275
v -0.538947 0.000000 -0.612769
v -0.830206 0.000000 -0.439275
v -0.538947 -0.000000 0.612769
v 0.259816 -0.000000 0.786262
v 0.538947 0.000000 -0.612769
v -0.259816 0.000000 -0.786262
v -0.850679 0.000000 -0.146425
v 0.850679 -0.000000 0.146425
vt 0.435764 0.683214
vt 0.435764 0.683214
vt 0.435764 0.683214
vt 0.435764 0.683214
vt 0.435764 0.683214
vt 0.435764 0.683214
vt 0.435764 0.683214
vt 0.435764 0.683214
vt 0.435764 0.683214
vt 0.435764 0.535236
vt 0.435764 0.535236
vt 0.435764 0.651964
vt 0.435764 0.651964
vt 0.435764 0.683214
vt 0.435764 0.683214
vt 0.435764 0.683214
vt 0.435764 0.535236
vt 0.435764 0.535236
vt 0.435764 0.651964
vt 0.435764 0.651964
vt 0.435764 0.683214
vt 0.435764 0.683214
vt 0.435764 0.683214
vt 0.435764 0.683214
vt 0.435764 0.683214
vt 0.435764 0.683214
vt 0.435764 0.683214
vt 0.435764 0.683214
vt 0.435764 0.683214
vt 0.435764 0.683214
vt 0.435764 0.683214
vt 0.435764 0.683214
vt 0.435764 0.683214
vt 0.435764 0.683214
vt 0.435764 0.683214
vt 0.435764 0.683214
vt 0.435764 0.535236
vt 0.435764 0.535236
vt 0.435764 0.651964
vt 0.435764 0.651964
vt 0.435765 0.583399
vt 0.435764 0.651964
vt 0.435764 0.651964
vt 0.435764 0.683214
vt 0.435764 0.683214
vt 0.435764 0.683214
vt 0.435764 0.566043
vt 0.435764 0.651964
vt 0.435764 0.651964
vt 0.435764 0.535236
vt 0.435764 0.535236
vt 0.435764 0.651964
vt 0.435764 0.651964
vt 0.435764 0.559503
vt 0.435764 0.651964
vt 0.435764 0.558132
vt 0.435764 0.589094
vt 0.435764 0.651964
vt 0.435764 0.651964
vt 0.435764 0.651964
vt 0.435764 0.578817
vt 0.435764 0.651964
vt 0.435764 0.651964
vt 0.435764 0.651964
vt 0.435764 0.579678
vt 0.435764 0.580505
vt 0.435764 0.651964
vt 0.435764 0.651964
vt 0.435764 0.651964
vt 0.435764 0.683214
vt 0.435764 0.683214
vt 0.435764 0.683214
vt 0.435764 0.683214
vt 0.435764 0.651964
vt 0.435764 0.651964
vt 0.435764 0.651964
vt 0.435764 0.651964
vt 0.435764 0.651964
vt 0.435764 0.651964
vt 0.435764 0.651964
vt 0.435764 0.651964
vt 0.435764 0.651964
vt 0.435764 0.651964
vt 0.435764 0.651964
vt 0.435764 0.651964
vt 0.435764 0.683214
vt 0.435764 0.683214
vt 0.435764 0.683214
vt 0.435764 0.683214
vt 0.435764 0.683214
vt 0.435764 0.535236
vt 0.435764 0.535236
vt 0.435764 0.535236
vt 0.435764 0.535236
vt 0.435764 0.535236
vt 0.435764 0.535236
vt 0.435764 0.535236
vt 0.435764 0.535236
vt 0.435764 0.535236
vt 0.435764 0.535236
vt 0.436431 0.695987
vt 0.452990 0.695987
vt 0.452990 0.695987
vt 0.436431 0.695987
vt 0.452990 0.672680
vt 0.436431 0.672680
vt 0.436431 0.672680
vt 0.452990 0.672680
vt 0.452990 0.672680
vt 0.452990 0.672680
vt 0.436431 0.672680
vt 0.436431 0.672680
vt 0.436431 0.695987
vt 0.452990 0.695987
vt 0.452990 0.695987
vt 0.436431 0.695987
vt 0.452990 0.672680
vt 0.436431 0.672680
vt 0.436431 0.672680
vt 0.452990 0.672680
vt 0.452990 0.672680
vt 0.452990 0.672680
vt 0.436431 0.672680
vt 0.436431 0.672680
vt 0.436431 0.695987
vt 0.452990 0.695987
vt 0.452990 0.695987
vt 0.436431 0.695987
vt 0.452990 0.672680
vt 0.436431 0.672680
vt 0.436431 0.672680
vt 0.452990 0.672680
vt 0.452990 0.672680
vt 0.452990 0.672680
vt 0.436431 0.672680
vt 0.436431 0.672680
vt 0.436431 0.695987
vt 0.452990 0.695987
vt 0.452990 0.695987
vt 0.436431 0.695987
vt 0.452990 0.672680
vt 0.436431 0.672680
vt 0.436431 0.672680
vt 0.452990 0.672680
vt 0.452990 0.672680
vt 0.452990 0.672680
vt 0.436431 0.672680
vt 0.436431 0.672680
vt 0.436431 0.695987
vt 0.452990 0.695987
vt 0.452990 0.695987
vt 0.436431 0.695987
vt 0.452990 0.672680
vt 0.436431 0.672680
vt 0.436431 0.672680
vt 0.452990 0.672680
vt 0.452990 0.672680
vt 0.452990 0.672680
vt 0.436431 0.672680
vt 0.436431 0.672680
vt 0.436431 0.695987
vt 0.452990 0.695987
vt 0.452990 0.695987
vt 0.436431 0.695987
vt 0.452990 0.672680
vt 0.436431 0.672680
vt 0.436431 0.672680
vt 0.452990 0.672680
vt 0.452990 0.672680
vt 0.452990 0.672680
vt 0.436431 0.672680
vt 0.436431 0.672680
vt 0.436431 0.695987
vt 0.452990 0.695987
vt 0.452990 0.695987
vt 0.436431 0.695987
vt 0.452990 0.672680
vt 0.436431 0.672680
vt 0.436431 0.672680
vt 0.452990 0.672680
vt 0.452990 0.672680
vt 0.452990 0.672680
vt 0.436431 0.672680
vt 0.436431 0.672680
vt 0.436431 0.695987
vt 0.452990 0.695987
vt 0.452990 0.695987
vt 0.436431 0.695987
vt 0.452990 0.672680
vt 0.436431 0.672680
vt 0.436431 0.672680
vt 0.452990 0.672680
vt 0.452990 0.672680
vt 0.452990 0.672680
vt 0.436431 0.672680
vt 0.436431 0.672680
vt 0.436431 0.695987
vt 0.452990 0.695987
vt 0.452990 0.695987
vt 0.436431 0.695987
vt 0.452990 0.672680
vt 0.436431 0.672680
vt 0.436431 0.672680
vt 0.452990 0.672680
vt 0.452990 0.672680
vt 0.452990 0.672680
vt 0.436431 0.672680
vt 0.436431 0.672680
vt 0.436431 0.695987
vt 0.452990 0.695987
vt 0.452990 0.695987
vt 0.436431 0.695987
vt 0.452990 0.672680
vt 0.436431 0.672680
vt 0.436431 0.672680
vt 0.452990 0.672680
vt 0.452990 0.672680
vt 0.452990 0.672680
vt 0.436431 0.672680
vt 0.436431 0.672680
vt 0.435765 0.535237
vn -0.0084 0.9989 0.0468
vn -0.0012 0.9982 0.0598
vn 0.0078 0.9989 0.0473
vn -0.0260 0.9991 0.0337
vn -0.0177 0.9987 0.0479
vn -0.0264 0.9991 -0.0344
vn -0.0082 0.9989 -0.0469
vn -0.0175 0.9987 -0.0477
vn -0.5086 -0.3172 0.8004
vn -0.5179 -0.3229 0.7921
vn -0.5124 -0.3131 0.7996
vn 0.0357 0.9993 0.0123
vn 0.0442 0.9990 0.0015
vn 0.0373 0.9992 -0.0119
vn -0.9401 -0.3387 0.0380
vn -0.9398 -0.3348 0.0685
vn -0.9417 -0.3341 0.0392
vn 0.0450 0.9986 -0.0263
vn 0.0397 0.9988 -0.0288
vn -0.0408 0.9987 -0.0302
vn -0.0343 0.9991 -0.0258
vn -0.0403 0.9987 -0.0298
vn 0.0276 0.9991 0.0337
vn 0.0179 0.9998 0.0131
vn -0.0003 0.9997 0.0259
vn 0.0405 0.9985 0.0367
vn 0.0376 0.9990 0.0258
vn 0.0082 0.9988 -0.0482
vn 0.0267 0.9991 -0.0341
vn 0.0216 0.9985 -0.0503
vn -0.0006 0.9982 -0.0603
vn -0.5179 -0.3229 -0.7921
vn -0.5090 -0.3169 -0.8003
vn -0.5123 -0.3132 -0.7996
vn -0.4989 -0.3014 -0.8125
vn -0.4935 -0.2890 -0.8203
vn -0.4908 -0.2730 -0.8274
vn -0.0356 0.9993 0.0124
vn -0.0373 0.9992 -0.0131
vn -0.0432 0.9991 0.0019
vn 0.9401 -0.3393 -0.0338
vn 0.9392 -0.3360 -0.0705
vn 0.9361 -0.3438 -0.0749
vn 0.9398 -0.3348 0.0685
vn 0.9414 -0.3357 0.0338
vn 0.9410 -0.3365 0.0357
vn -0.4911 -0.2904 0.8212
vn -0.4957 -0.3062 0.8128
vn -0.4891 -0.2840 0.8247
vn 0.5144 -0.2866 0.8082
vn 0.4963 -0.2974 0.8156
vn 0.5050 -0.3090 0.8059
vn -0.5175 -0.2845 0.8070
vn -0.9371 -0.3476 -0.0301
vn -0.9449 -0.3273 0.0055
vn -0.5182 -0.2805 -0.8080
vn 0.4895 -0.2919 0.8217
vn 0.4889 -0.2868 0.8239
vn 0.5087 -0.2568 -0.8218
vn 0.5234 -0.3005 -0.7973
vn 0.5234 -0.3412 -0.7808
vn -0.9397 -0.3337 -0.0751
vn -0.9386 -0.3365 -0.0764
vn 0.0173 0.9998 -0.0120
vn -0.0003 0.9997 -0.0259
vn -0.0169 0.9998 -0.0130
vn -0.0175 0.9997 0.0140
vn 0.9399 -0.3414 0.0044
vn 0.5214 -0.3301 0.7869
vn 0.5287 -0.3190 0.7866
vn 0.5185 -0.3287 -0.7894
vn 0.5297 -0.3078 -0.7903
vn 0.4591 -0.3109 -0.8322
vn 0.4704 -0.3770 -0.7978
vn -0.9927 0.1123 0.0437
vn -0.5426 0.0838 0.8358
vn 0.9949 0.1009 0.0065
vn 0.9787 0.1499 -0.1401
vn -0.7496 0.0667 -0.6585
vn -0.9976 0.0386 -0.0575
vn -0.3893 0.0246 -0.9208
vn 0.3267 0.0471 -0.9439
vn -0.0376 0.9990 0.0257
vn -0.0404 0.9985 0.0361
vn 0.9886 0.1498 0.0169
vn -0.4917 0.3711 0.7878
vn 0.2805 0.1591 0.9466
vn -0.3886 0.2339 -0.8912
vn 0.9667 0.1454 0.2108
vn 0.4361 0.3932 -0.8094
vn -0.3455 0.2932 0.8914
vn 0.4995 0.1434 0.8544
vn 0.0219 0.9985 0.0495
vn 0.0399 0.9986 -0.0345
vn -0.4917 -0.2960 0.8189
vn -0.4938 -0.3202 0.8085
vn -0.9386 -0.3371 -0.0729
vn -0.9304 -0.3649 -0.0351
vn -0.4931 -0.2978 -0.8174
vn -0.4924 -0.3152 -0.8113
vn 0.5131 -0.3326 -0.7913
vn 0.5217 -0.1880 -0.8322
vn 0.5239 -0.2649 -0.8096
vn 0.4631 -0.2627 -0.8465
vn 0.9405 -0.3329 -0.0677
vn 0.9399 -0.3400 -0.0319
vn 0.4896 -0.2937 0.8210
vn 0.4947 -0.2932 0.8181
vn 0.5173 -0.3296 0.7898
vn 0.5140 -0.2570 0.8184
vn 0.0000 1.0000 0.0000
vn 0.6504 0.0185 -0.7594
vn 0.7594 0.0185 0.6504
vn -0.6504 0.0185 0.7594
vn -0.7594 0.0185 -0.6504
vn 0.8762 0.0185 -0.4816
vn 0.4816 0.0185 0.8762
vn -0.8762 0.0185 0.4816
vn -0.4816 0.0185 -0.8762
vn 0.9874 0.0185 -0.1574
vn 0.1574 0.0185 0.9874
vn -0.9874 0.0185 0.1574
vn -0.1574 0.0185 -0.9874
vn 0.2935 0.0291 -0.9555
vn 0.9555 0.0291 0.2935
vn -0.2935 0.0291 0.9555
vn -0.9555 0.0291 -0.2935
vn 0.3681 0.0291 -0.9293
vn 0.9293 0.0291 0.3681
vn -0.3681 0.0291 0.9293
vn -0.9293 0.0291 -0.3681
vn 0.9991 0.0291 -0.0312
vn 0.0312 0.0291 0.9991
vn -0.9991 0.0291 0.0312
vn -0.0312 0.0291 -0.9991
vn 0.7952 0.0291 -0.6056
vn 0.6056 0.0291 0.7952
vn -0.7952 0.0291 0.6056
vn -0.6056 0.0291 -0.7952
vn 0.4547 0.0291 -0.8902
vn 0.8902 0.0291 0.4547
vn -0.4547 0.0291 0.8902
vn -0.8902 0.0291 -0.4547
vn -0.0766 0.0185 -0.9969
vn 0.9969 0.0185 -0.0766
vn 0.0766 0.0185 0.9969
vn -0.9969 0.0185 0.0766
vn 0.6503 0.0291 -0.7592
vn 0.7592 0.0291 0.6503
vn -0.6503 0.0291 0.7592
vn -0.7592 0.0291 -0.6503
vn 0.0000 -1.0000 -0.0000
usemtl hexagons_medieval
s 1
f 8/1/1 5/2/2 22/3/2 25/4/3
f 8/1/1 21/5/4 20/6/5
f 38/7/6 9/8/7 39/9/8
f 136/10/9 137/11/10 5/12/10 8/13/11
f 11/14/12 47/15/13 46/16/14
f 138/17/15 139/18/16 6/19/16 10/20/17
f 46/16/14 49/21/18 3/22/19
f 41/23/20 7/24/21 42/25/22
f 26/26/23 12/27/24 17/28/25 25/4/3
f 26/26/23 29/29/26 4/30/27
f 34/31/28 33/32/29 32/33/30 35/34/30
f 34/31/28 37/35/31 2/36/31 9/8/7
f 131/37/32 145/38/33 9/39/34 2/40/32
f 40/41/35 7/42/36 41/43/37
f 10/44/38 45/45/39 44/46/40
f 48/47/41 3/48/42 49/49/43
f 135/50/44 147/51/45 11/52/46 4/53/44
f 6/19/47 19/54/48 18/55/49
f 23/56/50 28/57/51 27/58/52 24/59/52
f 19/54/48 8/13/11 20/60/53
f 43/61/54 10/20/17 44/62/55
f 9/39/34 40/41/35 39/63/56
f 28/57/51 4/53/57 29/64/58
f 31/65/59 36/66/60 35/67/61 32/68/61
f 7/42/62 43/61/54 42/69/63
f 12/27/24 16/70/64 15/71/65 13/72/66 14/73/67 17/28/25
f 11/52/46 48/47/41 47/74/68
f 5/12/69 23/56/50 22/75/70
f 36/66/60 2/40/71 37/76/72
f 3/48/73 31/65/59 30/77/74
f 19/54/75 20/60/75 21/78/75
f 23/56/76 24/59/76 25/79/76
f 26/80/77 27/58/77 28/57/77
f 31/65/78 32/68/78 33/81/78
f 34/82/79 35/67/79 36/66/79
f 38/83/80 39/63/80 40/41/80
f 43/61/81 44/62/81 45/84/81
f 46/85/82 47/74/82 48/47/82
f 6/86/83 18/87/84 21/5/4
f 22/75/85 23/56/85 25/79/85
f 29/64/86 26/80/86 28/57/86
f 49/49/87 46/85/87 48/47/87
f 30/77/88 31/65/88 33/81/88
f 37/76/89 34/82/89 36/66/89
f 41/43/90 38/83/90 40/41/90
f 42/69/91 43/61/91 45/84/91
f 18/55/92 19/54/92 21/78/92
f 13/72/66 38/7/6 45/45/39
f 13/72/66 15/71/65 9/8/7 38/7/6
f 38/7/6 41/23/20 42/25/22 45/45/39
f 14/73/67 13/72/66 45/45/39 10/44/38
f 14/73/67 10/44/38 21/5/4
f 17/28/25 14/73/67 21/5/4 8/1/1
f 17/28/25 8/1/1 25/4/3
f 27/88/93 26/26/23 25/4/3 24/89/93
f 26/26/23 4/30/27 11/14/12
f 12/27/24 11/14/12 46/16/14 16/70/64
f 33/32/29 3/22/19 30/90/94
f 46/16/14 3/22/19 33/32/29
f 15/71/65 16/70/64 33/32/29 34/31/28
f 15/71/65 34/31/28 9/8/7
f 10/44/38 6/86/83 21/5/4
f 12/27/24 26/26/23 11/14/12
f 16/70/64 46/16/14 33/32/29
f 136/10/9 8/13/11 19/54/48
f 139/18/95 142/91/96 19/54/48
f 138/17/15 10/20/17 43/61/54
f 141/92/97 146/93/98 43/61/54
f 141/92/99 7/42/36 40/41/35
f 145/38/33 140/94/100 40/41/35
f 131/37/101 2/40/71 36/66/60
f 144/95/102 130/96/103 36/66/60 31/65/59
f 133/97/104 144/95/102 31/65/59
f 133/97/105 3/48/42 48/47/41
f 147/51/45 132/98/106 48/47/41
f 135/50/107 4/53/57 28/57/51
f 134/99/108 28/57/51 23/56/50
f 137/11/109 143/100/110 23/56/50
f 9/39/34 145/38/33 40/41/35
f 140/94/100 141/92/99 40/41/35
f 7/42/62 141/92/97 43/61/54
f 146/93/98 138/17/15 43/61/54
f 6/19/47 139/18/95 19/54/48
f 142/91/96 136/10/9 19/54/48
f 5/12/69 137/11/109 23/56/50
f 143/100/110 134/99/108 23/56/50
f 134/99/108 135/50/107 28/57/51
f 11/52/46 147/51/45 48/47/41
f 132/98/106 133/97/105 48/47/41
f 3/48/73 133/97/104 31/65/59
f 130/96/103 131/37/101 36/66/60
f 54/101/111 56/102/111 57/103/111 55/104/111
f 53/105/112 51/106/112 55/107/112 57/108/112
f 52/109/113 53/105/113 57/108/113 56/110/113
f 50/111/114 52/109/114 56/110/114 54/112/114
f 51/106/115 50/111/115 54/112/115 55/107/115
f 62/113/111 64/114/111 65/115/111 63/116/111
f 61/117/116 59/118/116 63/119/116 65/120/116
f 60/121/117 61/117/117 65/120/117 64/122/117
f 58/123/118 60/121/118 64/122/118 62/124/118
f 59/118/119 58/123/119 62/124/119 63/119/119
f 70/125/111 72/126/111 73/127/111 71/128/111
f 69/129/120 67/130/120 71/131/120 73/132/120
f 68/133/121 69/129/121 73/132/121 72/134/121
f 66/135/122 68/133/122 72/134/122 70/136/122
f 67/130/123 66/135/123 70/136/123 71/131/123
f 78/137/111 80/138/111 81/139/111 79/140/111
f 77/141/124 75/142/124 79/143/124 81/144/124
f 76/145/125 77/141/125 81/144/125 80/146/125
f 74/147/126 76/145/126 80/146/126 78/148/126
f 75/142/127 74/147/127 78/148/127 79/143/127
f 86/149/111 88/150/111 89/151/111 87/152/111
f 85/153/128 83/154/128 87/155/128 89/156/128
f 84/157/129 85/153/129 89/156/129 88/158/129
f 82/159/130 84/157/130 88/158/130 86/160/130
f 83/154/131 82/159/131 86/160/131 87/155/131
f 94/161/111 96/162/111 97/163/111 95/164/111
f 93/165/132 91/166/132 95/167/132 97/168/132
f 92/169/133 93/165/133 97/168/133 96/170/133
f 90/171/134 92/169/134 96/170/134 94/172/134
f 91/166/135 90/171/135 94/172/135 95/167/135
f 102/173/111 104/174/111 105/175/111 103/176/111
f 101/177/136 99/178/136 103/179/136 105/180/136
f 100/181/137 101/177/137 105/180/137 104/182/137
f 98/183/138 100/181/138 104/182/138 102/184/138
f 99/178/139 98/183/139 102/184/139 103/179/139
f 110/185/111 112/186/111 113/187/111 111/188/111
f 109/189/140 107/190/140 111/191/140 113/192/140
f 108/193/141 109/189/141 113/192/141 112/194/141
f 106/195/142 108/193/142 112/194/142 110/196/142
f 107/190/143 106/195/143 110/196/143 111/191/143
f 118/197/111 120/198/111 121/199/111 119/200/111
f 117/201/144 115/202/144 119/203/144 121/204/144
f 116/205/145 117/201/145 121/204/145 120/206/145
f 114/207/146 116/205/146 120/206/146 118/208/146
f 115/202/147 114/207/147 118/208/147 119/203/147
f 126/209/111 128/210/111 129/211/111 127/212/111
f 125/213/148 123/214/148 127/215/148 129/216/148
f 124/217/149 125/213/149 129/216/149 128/218/149
f 122/219/150 124/217/150 128/218/150 126/220/150
f 123/214/151 122/219/151 126/220/151 127/215/151
f 1/221/152 131/37/152 130/96/152
f 1/221/152 133/97/152 132/98/152
f 1/221/152 135/50/152 134/99/152
f 1/221/152 137/11/152 136/10/152
f 1/221/152 139/18/152 138/17/152
f 1/221/152 141/92/152 140/94/152
f 1/221/152 142/91/152 139/18/152
f 1/221/152 136/10/152 142/91/152
f 1/221/152 143/100/152 137/11/152
f 1/221/152 134/99/152 143/100/152
f 1/221/152 144/95/152 133/97/152
f 1/221/152 130/96/152 144/95/152
f 1/221/152 145/38/152 131/37/152
f 1/221/152 140/94/152 145/38/152
f 1/221/152 146/93/152 141/92/152
f 1/221/152 138/17/152 146/93/152
f 1/221/152 147/51/152 135/50/152
f 1/221/152 132/98/152 147/51/152
