# Blender v3.4.1 OBJ File: 'Medieval_Hexagons_Export_1.0_WorldOrigin.blend'
# www.blender.org
mtllib fence_stone_straight.mtl
o fence_stone_straight
v -1.000000 -0.050000 -0.577350
v -1.050000 -0.000000 0.548482
v -1.050000 0.000000 -0.548483
v -1.050000 0.000000 -0.182828
v -1.050000 -0.000000 0.182827
v -1.050000 0.200000 -0.182828
v -1.050000 0.200000 0.182827
v -1.050000 0.066667 0.548482
v -1.050000 0.133333 0.548482
v -1.050000 0.133333 -0.548483
v -1.050000 0.066667 -0.548483
v -1.050000 0.066667 -0.365655
v -1.050000 0.133333 -0.365655
v -1.050000 0.066667 -0.182828
v -1.050000 0.133333 -0.182828
v -1.050000 0.066667 -0.000000
v -1.050000 0.133333 -0.000000
v -1.050000 0.066667 0.182827
v -1.050000 0.133333 0.182827
v -1.050000 0.066667 0.365655
v -1.050000 0.133333 0.365655
v -1.000000 0.200000 -0.577350
v -1.100000 0.006789 0.438451
v -1.100000 0.193211 0.438451
v -1.100000 0.140122 0.438451
v -1.100000 0.059878 -0.438452
v -1.100000 0.006789 -0.438452
v -1.100000 0.006789 -0.292859
v -1.100000 0.006789 0.292858
v -1.100000 0.193211 -0.438451
v -1.100000 0.193211 -0.292859
v -1.100000 0.193211 0.292858
v -1.100000 0.140122 -0.292859
v -1.100000 0.140122 0.292858
v -1.100000 0.059878 0.438451
v -1.100000 0.140122 -0.438451
v -1.100000 0.059878 -0.292859
v -1.100000 0.059878 0.292858
v -1.100000 0.073455 0.110031
v -1.100000 0.126545 0.110031
v -1.100000 0.073455 0.255623
v -1.100000 0.126545 0.255623
v -1.100000 0.193211 -0.072797
v -1.100000 0.193211 0.072796
v -1.100000 0.140122 -0.072797
v -1.100000 0.140122 0.072796
v -1.100000 0.006789 -0.072797
v -1.100000 0.006789 0.072796
v -1.100000 0.059878 -0.072797
v -1.100000 0.059878 0.072796
v -1.100000 0.073455 -0.255624
v -1.100000 0.126545 -0.255624
v -1.100000 0.073455 -0.110032
v -1.100000 0.126545 -0.110032
v -1.100000 0.073455 0.493466
v -1.100000 0.126545 0.493466
v -1.100000 0.126545 -0.493467
v -1.100000 0.073455 -0.493467
v -1.100000 0.073455 -0.420671
v -1.100000 0.126545 -0.420671
v -1.100000 0.073455 0.420670
v -1.100000 0.126545 0.420670
v -0.950000 -0.000000 0.548482
v -1.000000 -0.050000 0.577350
v -0.950000 0.000000 -0.548483
v -1.000000 0.200000 0.577350
v -0.950000 0.000000 -0.182828
v -0.950000 -0.000000 0.182827
v -1.000000 -0.050000 0.182450
v -1.000000 -0.050000 -0.182450
v -0.950000 0.200000 -0.182828
v -0.950000 0.200000 0.182827
v -0.950000 0.066667 0.548482
v -0.950000 0.133333 0.548482
v -0.950000 0.133333 -0.548483
v -0.950000 0.066667 -0.548483
v -0.950000 0.066667 -0.365655
v -0.950000 0.133333 -0.365655
v -0.950000 0.066667 -0.182828
v -0.950000 0.133333 -0.182828
v -0.950000 0.066667 -0.000000
v -0.950000 0.133333 -0.000000
v -0.950000 0.066667 0.182827
v -0.950000 0.133333 0.182827
v -0.950000 0.066667 0.365655
v -0.950000 0.133333 0.365655
v -0.900000 0.006789 0.438451
v -0.900000 0.193211 0.438451
v -0.900000 0.140122 0.438451
v -0.900000 0.059878 -0.438451
v -0.900000 0.006789 -0.438451
v -0.900000 0.006789 -0.292859
v -0.900000 0.006789 0.292858
v -0.900000 0.193211 -0.438451
v -0.900000 0.193211 -0.292859
v -0.900000 0.193211 0.292858
v -0.900000 0.140122 -0.292859
v -0.900000 0.140122 0.292858
v -0.900000 0.059878 0.438451
v -0.900000 0.140122 -0.438451
v -0.900000 0.059878 -0.292859
v -0.900000 0.059878 0.292858
v -0.900000 0.073455 0.110031
v -0.900000 0.126545 0.110031
v -0.900000 0.073455 0.255623
v -0.900000 0.126545 0.255623
v -0.900000 0.193211 -0.072796
v -0.900000 0.193211 0.072796
v -0.900000 0.140122 -0.072797
v -0.900000 0.140122 0.072796
v -0.900000 0.006789 -0.072797
v -0.900000 0.006789 0.072796
v -0.900000 0.059878 -0.072797
v -0.900000 0.059878 0.072796
v -0.900000 0.073455 -0.255624
v -0.900000 0.126545 -0.255624
v -0.900000 0.073455 -0.110032
v -0.900000 0.126545 -0.110032
v -0.900000 0.073455 0.493466
v -0.900000 0.126545 0.493467
v -0.900000 0.126545 -0.493467
v -0.900000 0.073455 -0.493467
v -0.900000 0.073455 -0.420671
v -0.900000 0.126545 -0.420671
v -0.900000 0.073455 0.420670
v -0.900000 0.126545 0.420670
v -1.000000 0.075000 0.577350
v -1.000000 0.075000 -0.577350
v -0.950000 0.200000 0.548482
v -1.050000 0.200000 0.548482
v -0.950000 0.200000 -0.548483
v -1.050000 0.200000 -0.548483
v -0.950000 0.218994 -0.291159
v -1.050000 0.218994 -0.291159
v -0.950000 0.218994 -0.440152
v -1.050000 0.218994 -0.440152
v -0.950000 0.218994 -0.074497
v -1.050000 0.218994 -0.074497
v -0.950000 0.218994 0.074496
v -1.050000 0.218994 0.074496
v -0.950000 0.218994 0.291158
v -1.050000 0.218994 0.291158
v -0.950000 0.218994 0.440151
v -1.050000 0.218994 0.440151
vt 0.325473 0.779106
vt 0.312500 0.766133
vt 0.312500 0.766133
vt 0.325473 0.779106
vt 0.325473 0.813702
vt 0.338447 0.846714
vt 0.338447 0.860489
vt 0.325473 0.831001
vt 0.325473 0.796404
vt 0.325473 0.796404
vt 0.338447 0.798166
vt 0.299526 0.898429
vt 0.299526 0.893501
vt 0.325473 0.893501
vt 0.325473 0.898429
vt 0.286553 0.891739
vt 0.299526 0.858904
vt 0.286553 0.857143
vt 0.286553 0.857143
vt 0.286553 0.815464
vt 0.299526 0.813702
vt 0.286553 0.815464
vt 0.286553 0.857143
vt 0.299526 0.858904
vt 0.299526 0.858904
vt 0.312500 0.798567
vt 0.325473 0.796404
vt 0.312500 0.798567
vt 0.312500 0.766133
vt 0.299526 0.779106
vt 0.299526 0.813702
vt 0.286553 0.815464
vt 0.286553 0.815464
vt 0.286553 0.891739
vt 0.299526 0.893501
vt 0.299526 0.898429
vt 0.286553 0.798166
vt 0.299526 0.796404
vt 0.286553 0.798166
vt 0.299526 0.876202
vt 0.286553 0.874441
vt 0.286553 0.874441
vt 0.286553 0.815464
vt 0.299526 0.813702
vt 0.286553 0.815464
vt 0.299526 0.858904
vt 0.286553 0.857143
vt 0.286553 0.857143
vt 0.299526 0.876202
vt 0.286553 0.874441
vt 0.286553 0.874441
vt 0.312500 0.829817
vt 0.299526 0.844952
vt 0.299526 0.827654
vt 0.338447 0.857143
vt 0.325473 0.858904
vt 0.325473 0.858904
vt 0.338447 0.815464
vt 0.325473 0.813702
vt 0.338447 0.857143
vt 0.325473 0.858904
vt 0.325473 0.858904
vt 0.312500 0.862251
vt 0.312500 0.797383
vt 0.299526 0.810356
vt 0.338447 0.815464
vt 0.325473 0.813702
vt 0.325473 0.813702
vt 0.325473 0.796404
vt 0.325473 0.796404
vt 0.338447 0.798166
vt 0.338447 0.874441
vt 0.325473 0.876202
vt 0.325473 0.876202
vt 0.325473 0.813702
vt 0.338447 0.815464
vt 0.338447 0.891739
vt 0.325473 0.862251
vt 0.325473 0.898429
vt 0.338447 0.857143
vt 0.325473 0.858904
vt 0.325473 0.858904
vt 0.338447 0.874441
vt 0.325473 0.876202
vt 0.325473 0.876202
vt 0.286553 0.798166
vt 0.299526 0.796404
vt 0.286553 0.798166
vt 0.325473 0.844952
vt 0.312500 0.862251
vt 0.325473 0.862251
vt 0.338447 0.846714
vt 0.338447 0.860489
vt 0.338447 0.860489
vt 0.338447 0.846714
vt 0.338447 0.829416
vt 0.338447 0.829416
vt 0.338447 0.843191
vt 0.338447 0.843191
vt 0.325473 0.898429
vt 0.338447 0.891739
vt 0.325473 0.862251
vt 0.338447 0.798166
vt 0.286553 0.891739
vt 0.299526 0.898429
vt 0.299526 0.862251
vt 0.325473 0.779106
vt 0.338447 0.780868
vt 0.338447 0.780868
vt 0.312500 0.766133
vt 0.299526 0.779106
vt 0.338447 0.780868
vt 0.338447 0.780868
vt 0.299526 0.858904
vt 0.299526 0.858904
vt 0.286553 0.843191
vt 0.299526 0.796404
vt 0.286553 0.829416
vt 0.299526 0.813702
vt 0.299526 0.813702
vt 0.286553 0.812118
vt 0.286553 0.825893
vt 0.325473 0.796404
vt 0.338447 0.798166
vt 0.338447 0.798166
vt 0.286553 0.846714
vt 0.299526 0.844952
vt 0.299526 0.862251
vt 0.286553 0.860489
vt 0.299526 0.858904
vt 0.286553 0.857143
vt 0.325473 0.827654
vt 0.325473 0.844952
vt 0.286553 0.825893
vt 0.286553 0.812118
vt 0.286553 0.812118
vt 0.286553 0.825893
vt 0.325473 0.796404
vt 0.338447 0.798166
vt 0.338447 0.798166
vt 0.312500 0.829817
vt 0.338447 0.812118
vt 0.338447 0.825893
vt 0.338447 0.825893
vt 0.338447 0.812118
vt 0.286553 0.798166
vt 0.286553 0.798166
vt 0.299526 0.796404
vt 0.299526 0.813702
vt 0.299526 0.813702
vt 0.286553 0.843191
vt 0.286553 0.829416
vt 0.286553 0.829416
vt 0.286553 0.843191
vt 0.338447 0.812118
vt 0.338447 0.812118
vt 0.338447 0.825893
vt 0.338447 0.825893
vt 0.325473 0.831001
vt 0.338447 0.846714
vt 0.338447 0.860489
vt 0.286553 0.812118
vt 0.286553 0.825893
vt 0.338447 0.812118
vt 0.338447 0.825893
vt 0.338447 0.846714
vt 0.325473 0.844952
vt 0.338447 0.860489
vt 0.286553 0.846714
vt 0.286553 0.846714
vt 0.286553 0.860489
vt 0.286553 0.860489
vt 0.286553 0.812118
vt 0.299526 0.810356
vt 0.299526 0.827654
vt 0.286553 0.825893
vt 0.286553 0.825893
vt 0.286553 0.812118
vt 0.299526 0.796404
vt 0.299526 0.796404
vt 0.299526 0.876202
vt 0.299526 0.876202
vt 0.338447 0.829416
vt 0.338447 0.829416
vt 0.338447 0.843191
vt 0.338447 0.843191
vt 0.325473 0.844952
vt 0.299526 0.831001
vt 0.312500 0.831001
vt 0.299526 0.898429
vt 0.325473 0.810356
vt 0.325473 0.827654
vt 0.299526 0.810356
vt 0.299526 0.827654
vt 0.299526 0.876202
vt 0.286553 0.860489
vt 0.299526 0.831001
vt 0.286553 0.846714
vt 0.325473 0.831001
vt 0.325473 0.813702
vt 0.338447 0.846714
vt 0.338447 0.860489
vt 0.325473 0.827654
vt 0.325473 0.844952
vt 0.338447 0.843191
vt 0.338447 0.829416
vt 0.299526 0.779106
vt 0.338447 0.829416
vt 0.338447 0.843191
vt 0.286553 0.829416
vt 0.286553 0.843191
vt 0.325473 0.876202
vt 0.325473 0.876202
vt 0.338447 0.874441
vt 0.338447 0.874441
vt 0.286553 0.780868
vt 0.286553 0.780868
vt 0.299526 0.779106
vt 0.286553 0.780868
vt 0.286553 0.780868
vt 0.325473 0.858904
vt 0.338447 0.857143
vt 0.299526 0.831001
vt 0.338447 0.815464
vt 0.325473 0.779106
vt 0.325473 0.827654
vt 0.325473 0.844952
vt 0.338447 0.857143
vt 0.338447 0.829416
vt 0.325473 0.827654
vt 0.338447 0.843191
vt 0.286553 0.874441
vt 0.299526 0.876202
vt 0.286553 0.874441
vt 0.312500 0.831001
vt 0.338447 0.829416
vt 0.338447 0.843191
vt 0.325473 0.876202
vt 0.338447 0.874441
vt 0.338447 0.874441
vt 0.325473 0.813702
vt 0.338447 0.815464
vt 0.286553 0.843191
vt 0.286553 0.829416
vt 0.286553 0.780868
vt 0.286553 0.780868
vt 0.286553 0.829416
vt 0.299526 0.827654
vt 0.299526 0.844952
vt 0.286553 0.843191
vt 0.325473 0.810356
vt 0.338447 0.825893
vt 0.338447 0.812118
vt 0.286553 0.846714
vt 0.286553 0.860489
vt 0.325473 0.810356
vt 0.325473 0.827654
vt 0.338447 0.798166
vt 0.338447 0.874441
vt 0.338447 0.815464
vt 0.299526 0.844952
vt 0.338447 0.891739
vt 0.338447 0.857143
vt 0.338447 0.874441
vt 0.299526 0.827654
vt 0.299526 0.844952
vt 0.286553 0.843191
vt 0.286553 0.829416
vt 0.286553 0.829416
vt 0.286553 0.843191
vt 0.286553 0.846714
vt 0.286553 0.860489
vt 0.299526 0.827654
vt 0.299526 0.844952
vt 0.286553 0.798166
vt 0.286553 0.798166
vt 0.299526 0.796404
vt 0.286553 0.874441
vt 0.299526 0.876202
vt 0.286553 0.874441
vt 0.338447 0.780868
vt 0.338447 0.780868
vt 0.299526 0.862251
vt 0.312500 0.797383
vt 0.299526 0.893501
vt 0.312500 0.893501
vt 0.325473 0.893501
vt 0.299526 0.898429
vt 0.325473 0.898429
vt 0.312500 0.893501
vt 0.299526 0.893501
vt 0.325473 0.893501
vt 0.299526 0.898429
vt 0.325473 0.898429
vt 0.338447 0.891739
vt 0.286553 0.891739
vt 0.325473 0.898429
vt 0.338447 0.891739
vt 0.286553 0.891739
vt 0.325473 0.893501
vt 0.338447 0.891739
vt 0.286553 0.891739
vn 0.6231 -0.7821 0.0000
vn 0.7071 -0.7071 0.0000
vn 0.6053 -0.7960 0.0000
vn 0.6816 -0.0000 0.7317
vn 0.9765 -0.0000 0.2154
vn 0.7367 -0.0000 0.6763
vn 0.1345 -0.9909 -0.0000
vn -0.2333 0.9688 0.0841
vn -0.1113 0.9938 -0.0000
vn 0.1113 0.9938 -0.0000
vn 0.2333 0.9688 0.0841
vn -0.4591 0.8861 0.0640
vn -0.1345 0.9909 0.0000
vn -0.1345 -0.9909 -0.0000
vn 0.5000 0.0000 0.8660
vn 0.6954 0.0000 0.7186
vn -0.5000 0.0000 -0.8660
vn -0.6954 0.0000 -0.7186
vn -0.5000 0.0000 0.8660
vn -0.6816 0.0000 0.7317
vn 0.1345 0.9909 0.0000
vn -0.6955 0.0000 0.7186
vn 0.4591 0.8861 -0.0640
vn 0.2333 0.9688 -0.0841
vn 0.6816 0.0000 -0.7317
vn 0.5000 -0.0000 -0.8660
vn 0.7367 -0.0000 -0.6763
vn 0.9765 -0.0000 -0.2154
vn -0.4591 0.8861 -0.0640
vn -0.2333 0.9688 -0.0841
vn -0.6231 -0.7821 -0.0000
vn -0.7071 -0.7071 -0.0000
vn -0.6053 -0.7960 -0.0000
vn -0.9765 0.0000 -0.2154
vn -0.9104 0.0000 -0.4137
vn -0.9765 0.0000 0.2154
vn -0.9104 0.0000 0.4137
vn 0.9104 0.0000 -0.4137
vn 0.9104 0.0000 0.4137
vn -0.7367 0.0000 -0.6763
vn -0.6816 0.0000 -0.7317
vn 0.7400 0.0000 -0.6726
vn 0.7400 -0.0000 0.6726
vn -0.7400 0.0000 0.6726
vn 1.0000 0.0000 0.0000
vn -1.0000 0.0000 0.0000
vn 0.6955 0.0000 -0.7186
vn 0.4591 0.8861 0.0640
vn -0.7400 0.0000 -0.6726
vn -0.7367 0.0000 0.6763
vn -0.0873 0.9868 0.1367
vn -0.0000 1.0000 0.0000
vn 0.0873 0.9868 0.1367
vn -0.0873 0.9868 -0.1367
vn 0.0873 0.9868 -0.1367
usemtl hexagons_medieval
s 1
f 63/1/1 64/2/2 69/3/2 68/4/3
f 74/5/4 89/6/5 88/7/5 129/8/6
f 79/9/7 77/10/7 115/11/7
f 134/12/8 6/13/9 71/14/10 133/15/11
f 31/16/12 6/13/9 134/12/8
f 20/17/13 38/18/13 35/19/13
f 34/20/14 21/21/14 25/22/14
f 37/23/13 14/24/13 12/25/13
f 127/26/15 63/1/16 73/27/4
f 127/26/15 64/2/15 63/1/16
f 128/28/17 1/29/17 3/30/18
f 13/31/14 33/32/14 36/33/14
f 44/34/12 7/35/9 140/36/8
f 39/37/14 18/38/14 41/39/14
f 19/40/13 40/41/13 42/42/13
f 45/43/14 17/44/14 46/45/14
f 16/46/13 49/47/13 50/48/13
f 15/49/13 52/50/13 54/51/13
f 127/52/19 9/53/20 8/54/20
f 102/55/21 83/56/21 85/57/21
f 89/58/7 74/5/7 86/59/7
f 90/60/21 76/61/21 77/62/21
f 127/52/19 66/63/19 9/53/20
f 64/64/19 127/52/19 2/65/22
f 97/66/7 80/67/7 78/68/7
f 83/69/7 81/70/7 103/71/7
f 104/72/21 82/73/21 84/74/21
f 82/75/7 80/67/7 109/76/7
f 96/77/23 72/78/10 141/79/24
f 113/80/21 79/81/21 81/82/21
f 116/83/21 78/84/21 80/85/21
f 51/86/14 14/87/14 53/88/14
f 75/89/25 22/90/26 131/91/27
f 109/92/28 107/93/28 108/94/5 110/95/5
f 105/96/5 103/97/28 104/98/28 106/99/5
f 137/100/24 107/101/23 71/102/10
f 115/11/7 117/103/7 79/9/7
f 117/103/7 81/70/7 79/9/7
f 32/104/29 142/105/30 7/106/9
f 67/107/3 111/108/7 112/109/7 68/4/3
f 69/3/2 70/110/2 67/107/3 68/4/3
f 3/30/31 1/29/32 70/110/32 4/111/33
f 93/112/7 87/113/7 63/1/1 68/4/3
f 35/19/13 8/114/13 20/17/13
f 20/17/13 18/115/13 38/18/13
f 52/116/34 13/31/35 12/117/35 51/118/34
f 19/119/14 21/21/14 34/20/14
f 21/21/14 9/120/14 25/22/14
f 23/121/36 2/65/22 8/54/20 35/122/36
f 77/10/7 76/123/7 122/124/7 123/125/7
f 33/126/36 15/127/37 6/128/37 31/129/36
f 12/25/13 11/130/13 26/131/13
f 26/131/13 37/23/13 12/25/13
f 81/132/38 82/133/38 104/98/28 103/97/28
f 26/134/34 27/135/34 28/136/36 37/137/36
f 73/27/7 85/138/7 125/139/7 119/140/7
f 2/65/22 127/52/19 8/54/20
f 75/89/25 128/141/26 22/90/26
f 93/142/28 102/143/28 99/144/5 87/145/5
f 59/146/14 58/147/14 11/148/14 12/117/14
f 36/33/14 10/149/14 13/31/14
f 13/31/14 15/150/14 33/32/14
f 40/151/34 39/152/34 41/153/36 42/154/36
f 112/155/5 111/156/28 113/157/28 114/158/5
f 71/159/39 80/67/39 97/160/5 95/161/5
f 29/162/34 23/121/36 35/122/36 38/163/34
f 79/9/39 67/107/39 92/164/5 101/165/5
f 98/166/28 84/167/38 72/78/38 96/168/28
f 45/169/34 46/170/36 44/171/36 43/172/34
f 48/173/36 5/174/37 18/175/37 50/176/36
f 83/69/39 68/4/39 112/155/5 114/158/5
f 49/177/34 14/87/35 4/111/35 47/178/34
f 16/179/14 18/38/14 39/37/14
f 18/38/14 20/180/14 41/39/14
f 42/42/13 21/181/13 19/40/13
f 19/40/13 17/182/13 40/41/13
f 117/183/5 115/184/28 116/185/28 118/186/5
f 15/150/14 17/44/14 45/43/14
f 17/44/14 19/119/14 46/45/14
f 80/187/38 71/102/38 107/93/28 109/92/28
f 132/188/40 22/189/17 10/149/41
f 137/100/24 71/102/10 6/128/9 138/190/30
f 50/48/13 18/115/13 16/46/13
f 16/46/13 14/24/13 49/47/13
f 67/191/38 79/192/38 113/157/28 111/156/28
f 28/136/36 4/193/37 14/194/37 37/137/36
f 54/51/13 17/182/13 15/49/13
f 15/49/13 13/195/13 52/50/13
f 32/196/34 7/197/35 19/119/35 34/198/34
f 72/199/39 84/200/39 110/95/5 108/94/5
f 100/201/28 94/202/28 95/161/5 97/160/5
f 85/203/42 86/204/42 126/205/42 125/206/42
f 4/111/33 70/110/32 69/3/32 5/207/33
f 78/68/43 77/10/43 123/208/43 124/209/43
f 55/210/44 8/54/20 9/53/20 56/211/44
f 86/212/21 74/213/21 120/214/21 126/215/21
f 48/216/14 47/217/14 4/111/33 5/207/33
f 74/5/4 127/26/15 73/27/4
f 2/218/31 5/207/33 69/3/32 64/2/32
f 28/219/14 27/220/14 3/30/31 4/111/33
f 85/57/21 73/221/21 99/222/21
f 99/222/21 102/55/21 85/57/21
f 43/172/34 6/223/35 15/150/35 45/169/34
f 84/200/7 98/224/7 86/59/7
f 98/224/7 89/58/7 86/59/7
f 40/151/34 17/44/35 16/179/35 39/152/34
f 70/110/2 1/29/2 65/225/1 67/107/3
f 115/184/28 77/226/38 78/227/38 116/185/28
f 79/81/21 101/228/21 77/62/21
f 101/228/21 90/60/21 77/62/21
f 122/229/42 76/230/25 75/89/25 121/231/42
f 89/6/5 98/166/28 96/168/28 88/7/5
f 60/232/13 13/195/13 10/233/13 57/234/13
f 66/235/15 127/26/15 74/5/4
f 119/236/45 125/206/45 126/205/45 120/237/45
f 75/238/21 78/84/21 124/239/21 121/240/21
f 78/68/7 75/241/7 100/242/7
f 100/242/7 97/66/7 78/68/7
f 62/243/46 61/244/46 55/210/46 56/211/46
f 5/207/33 2/218/31 23/245/14 29/246/14
f 123/208/45 122/229/45 121/231/45 124/209/45
f 53/247/36 16/248/37 17/249/37 54/250/36
f 65/251/47 76/230/25 90/252/28 91/253/28
f 86/59/39 85/138/39 105/96/5 106/99/5
f 52/116/34 51/118/34 53/247/36 54/250/36
f 32/196/34 34/198/34 25/254/36 24/255/36
f 38/163/34 18/38/35 5/207/35 29/162/34
f 82/75/39 81/70/39 117/183/5 118/186/5
f 68/256/38 83/257/38 102/143/28 93/142/28
f 103/71/7 105/258/7 83/69/7
f 105/258/7 85/138/7 83/69/7
f 84/74/21 86/212/21 106/259/21
f 106/259/21 104/72/21 84/74/21
f 49/177/34 47/178/34 48/173/36 50/176/36
f 109/76/7 110/260/7 82/75/7
f 110/260/7 84/200/7 82/75/7
f 46/170/36 19/261/37 7/106/37 44/171/36
f 95/262/48 133/15/11 71/14/10
f 81/82/21 83/56/21 114/263/21
f 114/263/21 113/80/21 81/82/21
f 26/134/34 11/148/41 3/30/18 27/135/34
f 73/27/4 63/1/16 87/145/5 99/144/5
f 80/85/21 82/73/21 118/264/21
f 118/264/21 116/83/21 80/85/21
f 41/153/36 20/265/37 21/266/37 42/154/36
f 12/117/14 14/87/14 51/86/14
f 14/87/14 16/179/14 53/88/14
f 57/267/46 58/268/46 59/269/46 60/270/46
f 36/271/34 33/126/36 31/129/36 30/272/34
f 58/268/49 57/267/49 10/149/41 11/148/41
f 59/269/44 12/273/44 13/274/44 60/270/44
f 62/243/49 21/21/49 20/180/49 61/244/49
f 74/5/4 73/27/4 119/236/43 120/237/43
f 55/275/14 61/276/14 20/180/14 8/277/14
f 56/278/13 9/279/13 21/181/13 62/280/13
f 65/225/1 91/281/7 92/282/7 67/107/3
f 92/164/5 91/253/28 90/252/28 101/165/5
f 130/283/50 9/53/20 66/63/19
f 65/251/47 1/284/26 128/141/26
f 76/230/25 65/251/47 128/141/26
f 75/89/25 76/230/25 128/141/26
f 128/28/17 11/148/41 10/149/41
f 22/189/17 128/28/17 10/149/41
f 11/148/41 128/28/17 3/30/18
f 24/255/36 25/254/36 9/53/20 130/283/50
f 66/235/15 74/5/4 129/8/6
f 30/272/34 132/188/40 10/149/41 36/271/34
f 100/201/28 75/89/25 131/91/27 94/202/28
f 130/285/51 66/286/52 129/287/53
f 144/288/8 130/285/51 129/287/53 143/289/11
f 22/290/52 132/291/54 131/292/55
f 136/293/30 134/12/8 133/15/11 135/294/24
f 94/295/23 131/292/55 135/294/24
f 30/296/29 31/16/12 134/12/8 136/293/30
f 132/291/54 136/293/30 135/294/24 131/292/55
f 95/262/48 94/295/23 135/294/24 133/15/11
f 132/291/54 30/296/29 136/293/30
f 139/297/11 137/100/24 138/190/30 140/36/8
f 108/298/48 107/101/23 137/100/24 139/297/11
f 6/128/9 43/299/29 138/190/30
f 72/300/10 139/297/11 140/36/8 7/35/9
f 72/300/10 108/298/48 139/297/11
f 43/299/29 44/34/12 140/36/8 138/190/30
f 7/106/9 142/105/30 141/79/24 72/78/10
f 88/301/48 96/77/23 141/79/24 143/289/11
f 24/302/12 130/285/51 144/288/8
f 142/105/30 144/288/8 143/289/11 141/79/24
f 129/287/53 88/301/48 143/289/11
f 32/104/29 24/302/12 144/288/8 142/105/30
