# Blender v3.4.1 OBJ File: 'Medieval_Hexagons_Export_1.0_WorldOrigin.blend'
# www.blender.org
mtllib fence_wood_straight_gate_fence_wood_straight_door.mtl
o fence_wood_straight_door
v -0.964964 0.352043 -0.150000
v -1.035035 0.352043 -0.150000
v -0.964964 -0.050000 -0.150000
v -1.035035 -0.050000 -0.150000
v -1.035035 0.352048 0.150000
v -0.964964 0.352048 0.150000
v -1.035035 -0.050000 0.150000
v -0.964964 -0.050000 0.150000
v -1.060174 -0.050000 0.100000
v -1.035035 0.390942 -0.050000
v -0.939825 -0.050000 0.100000
v -1.035036 0.390944 0.050000
v -0.939825 0.375826 0.100000
v -1.060174 0.375826 0.100000
v -0.964964 0.390942 -0.050000
v -1.060174 -0.050000 -0.000000
v -0.964964 0.390944 0.050000
v -0.939825 -0.050000 -0.000000
v -0.939825 0.396272 0.000000
v -0.964964 -0.050000 -0.050000
v -1.060174 0.396272 -0.000000
v -0.964964 -0.050000 0.050000
v -1.060174 -0.050000 -0.100000
v -0.939825 -0.050000 -0.100000
v -1.035035 -0.050000 -0.050000
v -0.939825 0.375826 -0.100000
v -1.035036 -0.050000 0.050000
v -1.060174 0.375826 -0.100000
v -1.039377 0.038111 0.160455
v -1.062442 0.038111 0.137390
v -1.062442 0.111889 0.137390
v -1.039377 0.111889 0.160455
v -1.062442 0.038111 -0.137374
v -1.039377 0.038111 -0.160439
v -1.039377 0.111889 -0.160439
v -1.062442 0.111889 -0.137374
v -0.937558 0.038111 0.137390
v -0.960623 0.038111 0.160455
v -0.960623 0.111889 0.160455
v -0.937558 0.111889 0.137390
v -0.960623 0.038111 -0.160439
v -0.937558 0.038111 -0.137374
v -0.937558 0.111889 -0.137374
v -0.960623 0.111889 -0.160439
v -1.039377 0.238111 0.160455
v -1.062442 0.238111 0.137390
v -1.062442 0.311889 0.137390
v -1.039377 0.311889 0.160455
v -1.062442 0.238111 -0.137374
v -1.039377 0.238111 -0.160439
v -1.039377 0.311889 -0.160439
v -1.062442 0.311889 -0.137374
v -0.937558 0.238111 0.137390
v -0.960623 0.238111 0.160455
v -0.960623 0.311889 0.160455
v -0.937558 0.311889 0.137390
v -0.960623 0.238111 -0.160439
v -0.937558 0.238111 -0.137374
v -0.937558 0.311889 -0.137374
v -0.960623 0.311889 -0.160439
vt 0.785151 0.812546
vt 0.785151 0.812546
vt 0.785151 0.901089
vt 0.785151 0.901089
vt 0.800802 0.812546
vt 0.800802 0.812546
vt 0.800802 0.901089
vt 0.800802 0.901089
vt 0.787759 0.901089
vt 0.787759 0.812546
vt 0.787759 0.947964
vt 0.790368 0.947964
vt 0.790368 0.947964
vt 0.787759 0.947964
vt 0.787759 0.781296
vt 0.790368 0.781296
vt 0.790368 0.781296
vt 0.787759 0.781296
vt 0.787759 0.812546
vt 0.790368 0.812546
vt 0.790368 0.901089
vt 0.787759 0.901089
vt 0.792976 0.901089
vt 0.795585 0.901088
vt 0.795585 0.812546
vt 0.792976 0.812546
vt 0.798194 0.812546
vt 0.798194 0.901088
vt 0.795585 0.901088
vt 0.795585 0.812546
vt 0.798194 0.812546
vt 0.798194 0.901088
vt 0.792976 0.812546
vt 0.792976 0.901089
vt 0.795585 0.781296
vt 0.795585 0.781296
vt 0.798194 0.781296
vt 0.798194 0.781296
vt 0.795585 0.947963
vt 0.795585 0.947963
vt 0.798194 0.947963
vt 0.798194 0.947963
vt 0.790368 0.901089
vt 0.790368 0.812546
vt 0.792976 0.781296
vt 0.792976 0.781296
vt 0.800802 0.781296
vt 0.800802 0.781296
vt 0.792976 0.947964
vt 0.792976 0.947964
vt 0.785151 0.947964
vt 0.785151 0.947964
vt 0.800802 0.947964
vt 0.800802 0.947964
vt 0.785151 0.781296
vt 0.785151 0.781296
vt 0.280500 0.923577
vt 0.280500 0.882953
vt 0.280500 0.893032
vt 0.280500 0.923577
vt 0.283581 0.895984
vt 0.283581 0.907593
vt 0.320287 0.907593
vt 0.320287 0.895984
vt 0.323369 0.880001
vt 0.323369 0.920625
vt 0.323369 0.910546
vt 0.323369 0.880001
vt 0.320287 0.923577
vt 0.323369 0.923577
vt 0.323369 0.923577
vt 0.320287 0.923577
vt 0.320287 0.895984
vt 0.320287 0.907593
vt 0.283581 0.907593
vt 0.283581 0.895984
vt 0.280500 0.895984
vt 0.280500 0.907593
vt 0.323369 0.907593
vt 0.323369 0.895984
vt 0.323369 0.895984
vt 0.323369 0.907593
vt 0.280500 0.907593
vt 0.280500 0.895984
vt 0.283581 0.880001
vt 0.283581 0.880001
vt 0.280500 0.880001
vt 0.280500 0.880001
vt 0.280500 0.923577
vt 0.280500 0.882953
vt 0.280500 0.893032
vt 0.280500 0.923577
vt 0.283581 0.895984
vt 0.283581 0.907593
vt 0.320287 0.907593
vt 0.320287 0.895984
vt 0.323369 0.880001
vt 0.323369 0.920625
vt 0.323369 0.910546
vt 0.323369 0.880001
vt 0.283581 0.923577
vt 0.283581 0.923577
vt 0.320287 0.895984
vt 0.320287 0.907593
vt 0.283581 0.907593
vt 0.283581 0.895984
vt 0.280500 0.895984
vt 0.280500 0.907593
vt 0.323369 0.907593
vt 0.323369 0.895984
vt 0.323369 0.895984
vt 0.323369 0.907593
vt 0.280500 0.907593
vt 0.280500 0.895984
vt 0.320287 0.880001
vt 0.320287 0.880001
vt 0.283581 0.923577
vt 0.283581 0.923577
vt 0.320287 0.923577
vt 0.323369 0.923577
vt 0.323369 0.923577
vt 0.320287 0.923577
vt 0.283581 0.880001
vt 0.283581 0.880001
vt 0.280500 0.880001
vt 0.280500 0.880001
vt 0.320287 0.880001
vt 0.320287 0.880001
vn 0.0000 0.0000 -1.0000
vn -0.0000 -0.0000 1.0000
vn 0.8934 0.0000 -0.4492
vn 0.0000 0.9325 -0.3612
vn 0.0000 0.9802 -0.1982
vn 0.0000 -1.0000 -0.0000
vn -0.8934 -0.0000 0.4492
vn 0.8934 0.0000 0.4492
vn -0.8934 -0.0000 -0.4492
vn -0.0000 0.9802 0.1982
vn -0.0000 0.9325 0.3612
vn 0.0000 1.0000 -0.0000
vn 0.0000 0.9030 -0.4295
vn -0.0000 0.9031 0.4295
vn -1.0000 0.0000 0.0000
vn 1.0000 -0.0000 0.0000
vn -0.7071 -0.0000 0.7071
vn -0.7071 -0.0000 -0.7071
vn 0.7071 -0.0000 -0.7071
vn 0.7071 -0.0000 0.7071
usemtl hexagons_medieval
s 1
f 3/1/1 4/2/1 2/3/1 1/4/1
f 7/5/2 8/6/2 6/7/2 5/8/2
f 1/4/3 26/9/3 24/10/3 3/1/3
f 28/11/4 10/12/5 15/13/5 26/14/4
f 24/15/6 20/16/6 25/17/6 23/18/6
f 23/19/7 25/20/7 10/21/7 28/22/7
f 19/23/8 17/24/8 22/25/8 18/26/8
f 11/27/8 13/28/8 6/7/8 8/6/8
f 22/25/3 17/24/3 13/28/3 11/27/3
f 12/29/9 27/30/9 9/31/9 14/32/9
f 16/33/7 27/30/7 12/29/7 21/34/7
f 27/35/6 22/36/6 11/37/6 9/38/6
f 14/32/7 9/31/7 7/5/7 5/8/7
f 17/39/10 12/40/10 14/41/11 13/42/11
f 15/43/3 19/23/3 18/26/3 20/44/3
f 18/45/6 22/36/6 27/35/6 16/46/6
f 25/20/9 16/33/9 21/34/9 10/21/9
f 9/38/6 11/37/6 8/47/6 7/48/6
f 20/16/6 18/45/6 16/46/6 25/17/6
f 10/12/5 21/49/12 19/50/12 15/13/5
f 21/49/12 12/40/10 17/39/10 19/50/12
f 2/51/13 28/11/4 26/14/4 1/52/13
f 13/42/11 14/41/11 5/53/14 6/54/14
f 3/55/6 24/15/6 23/18/6 4/56/6
f 4/2/9 23/19/9 28/22/9 2/3/9
f 26/9/8 15/43/8 20/44/8 24/10/8
f 32/57/2 29/58/2 38/59/2 39/60/2
f 30/61/15 31/62/15 36/63/15 33/64/15
f 34/65/1 35/66/1 44/67/1 41/68/1
f 43/69/12 44/70/12 35/71/12 36/72/12
f 42/73/16 43/74/16 40/75/16 37/76/16
f 31/62/17 30/61/17 29/77/17 32/78/17
f 33/64/18 36/63/18 35/79/18 34/80/18
f 43/74/19 42/73/19 41/81/19 44/82/19
f 37/76/20 40/75/20 39/83/20 38/84/20
f 30/85/6 37/86/6 38/87/6 29/88/6
f 48/89/2 45/90/2 54/91/2 55/92/2
f 46/93/15 47/94/15 52/95/15 49/96/15
f 50/97/1 51/98/1 60/99/1 57/100/1
f 56/101/12 47/102/12 48/89/12 55/92/12
f 58/103/16 59/104/16 56/105/16 53/106/16
f 47/94/17 46/93/17 45/107/17 48/108/17
f 49/96/18 52/95/18 51/109/18 50/110/18
f 59/104/19 58/103/19 57/111/19 60/112/19
f 53/106/20 56/105/20 55/113/20 54/114/20
f 49/115/6 50/97/6 57/100/6 58/116/6
f 40/117/12 43/69/12 36/72/12 31/118/12
f 39/60/12 40/117/12 31/118/12 32/57/12
f 59/119/12 60/120/12 51/121/12 52/122/12
f 56/101/12 59/119/12 52/122/12 47/102/12
f 46/123/6 49/115/6 58/116/6 53/124/6
f 45/125/6 46/123/6 53/124/6 54/126/6
f 33/127/6 34/65/6 41/68/6 42/128/6
f 30/85/6 33/127/6 42/128/6 37/86/6
