# Blender v3.4.1 OBJ File: 'Medieval_Hexagons_Export_1.0_WorldOrigin.blend'
# www.blender.org
mtllib wall_corner_B_inside.mtl
o wall_corner_B_inside
v -0.821721 0.000000 -0.364888
v -0.905139 0.000000 -0.316727
v -1.000001 0.000000 -0.300003
v -0.759810 0.000000 -0.716025
v -0.726863 0.000000 -0.625510
v -0.726863 0.000000 -0.529188
v -0.240190 0.000000 -0.138674
v -0.240190 0.900000 -0.138674
v -0.436048 -0.000000 0.094740
v -0.436048 0.900000 0.094740
v -0.699926 -0.000000 0.247090
v -0.699926 0.900000 0.247090
v -0.999997 -0.000000 0.300001
v -0.999997 0.900000 0.300001
v -0.240190 0.000000 -1.016024
v -0.240190 0.900000 -1.016024
v -0.135976 0.000000 -0.729699
v -0.135976 0.900000 -0.729699
v -0.135976 0.000000 -0.424999
v -0.135976 0.900000 -0.424999
v -0.759807 0.300000 -0.438675
v -0.821721 0.300000 -0.364888
v -0.905139 0.300000 -0.316727
v -1.000001 0.300000 -0.300003
v -0.759810 0.300000 -0.716025
v -0.726863 0.300000 -0.625510
v -0.726863 0.300000 -0.529188
v -0.759807 0.700000 -0.438675
v -0.821721 0.700000 -0.364888
v -0.905139 0.700000 -0.316727
v -1.000001 0.700000 -0.300002
v -0.759810 0.700000 -0.716025
v -0.726863 0.700000 -0.625510
v -0.726863 0.700000 -0.529188
v -0.757560 0.600000 -0.288423
v -0.757560 0.400000 -0.288423
v -0.870999 0.600000 -0.222929
v -0.870999 0.400000 -0.222929
v -0.999995 0.600000 -0.199996
v -0.999995 0.400000 -0.199996
v -0.673207 0.600000 -0.766026
v -0.673207 0.400000 -0.766026
v -0.628562 0.600000 -0.642842
v -0.628562 0.400000 -0.642842
v -0.628562 0.600000 -0.511854
v -0.628562 0.400000 -0.511854
v -0.673362 0.400000 -0.388766
v -0.673362 0.600000 -0.388766
v -0.693163 0.900000 -0.211678
v -0.586601 0.900000 -0.338674
v -0.836734 0.900000 -0.128788
v -1.000000 0.900000 -0.100001
v -0.586603 0.900000 -0.816024
v -0.529901 0.900000 -0.660239
v -0.529901 0.900000 -0.494458
v -0.529901 1.000000 -0.494458
v -0.529901 1.000000 -0.660239
v -0.774292 0.000000 -0.447038
v -0.586603 1.000000 -0.816024
v -1.000000 1.000000 -0.100001
v -0.836734 1.000000 -0.128788
v -0.693163 1.000000 -0.211678
v -0.908324 0.000000 -0.414888
v -0.908324 0.200000 -0.414888
v -0.813465 0.200000 -0.579188
v -0.813465 0.000000 -0.579188
v -0.693163 1.100000 -0.211678
v -0.529901 1.100000 -0.494458
v -0.908324 0.800000 -0.414888
v -0.813465 0.800000 -0.579188
v -0.999997 0.700000 0.300001
v -0.436048 0.700000 0.094740
v -0.699926 0.700000 0.247090
v -0.240190 0.700000 -1.016024
v -0.135976 0.700000 -0.729699
v -0.135976 0.700000 -0.424999
v -0.240190 0.700000 -0.138674
v -0.371776 0.900000 0.171336
v -0.153597 0.900000 -0.088679
v -0.665727 0.900000 0.341050
v -1.000006 0.900000 0.399991
v -0.037506 0.900000 -0.747062
v -0.153589 0.900000 -1.066027
v -0.037506 0.900000 -0.407636
v -0.153597 0.800006 -0.088679
v -1.000006 0.800006 0.399991
v -0.371776 0.800006 0.171336
v -0.665727 0.800006 0.341050
v -0.153589 0.800006 -1.066027
v -0.037506 0.800006 -0.747062
v -0.037506 0.800006 -0.407636
v -1.000000 1.000000 -0.246679
v -1.000001 0.950000 -0.300002
v -0.759810 0.950000 -0.716025
v -0.713630 1.000000 -0.742686
v -0.726863 0.947716 -0.532233
v -0.673938 1.000000 -0.519856
v -0.674248 1.000000 -0.634787
v -0.726863 0.950000 -0.625510
v -0.905139 0.950000 -0.316727
v -0.886866 1.000000 -0.266522
v -0.787177 1.000000 -0.323720
v -0.825017 0.947716 -0.366791
v -0.813465 1.039745 -0.579188
v -0.760221 1.100000 -0.563278
v -0.908324 1.039745 -0.414888
v -0.867923 1.100000 -0.376731
v -0.564606 0.900000 -0.058469
v -0.413396 0.900000 -0.238674
v -0.768330 0.900000 0.059151
v -0.999999 0.900000 0.100000
v -0.413397 0.900000 -0.916024
v -0.332939 0.900000 -0.694969
v -0.332938 0.900000 -0.459728
v -0.751280 0.182177 -0.672910
v -0.751280 0.213719 -0.672910
v -0.730112 0.170190 -0.694900
v -0.730112 0.225705 -0.694900
v -0.743064 0.182177 -0.626315
v -0.743064 0.213719 -0.626315
v -0.715651 0.170190 -0.612891
v -0.715651 0.225705 -0.612891
v -0.740861 0.182177 -0.613821
v -0.740861 0.213719 -0.613821
v -0.719693 0.170190 -0.635811
v -0.719693 0.225705 -0.635811
v -0.732645 0.182177 -0.567227
v -0.732645 0.213719 -0.567227
v -0.705232 0.170190 -0.553803
v -0.705232 0.225705 -0.553803
v -0.746070 0.222177 -0.643365
v -0.746070 0.253719 -0.643365
v -0.724902 0.210190 -0.665356
v -0.724902 0.265705 -0.665355
v -0.737854 0.222177 -0.596771
v -0.737854 0.253719 -0.596771
v -0.710442 0.210190 -0.583347
v -0.710442 0.265705 -0.583347
v -0.889026 0.804229 -0.339137
v -0.889026 0.835771 -0.339137
v -0.863694 0.792242 -0.322110
v -0.863694 0.847758 -0.322110
v -0.933486 0.804229 -0.322955
v -0.933486 0.835771 -0.322955
v -0.941946 0.792242 -0.293628
v -0.941946 0.847758 -0.293628
v -0.662887 0.484229 -0.439509
v -0.662887 0.515771 -0.439509
v -0.632536 0.472242 -0.442748
v -0.632536 0.527758 -0.442748
v -0.686543 0.484229 -0.398535
v -0.686543 0.515771 -0.398535
v -0.674173 0.472242 -0.370631
v -0.674173 0.527758 -0.370631
v -0.692887 0.484229 -0.387548
v -0.692887 0.515771 -0.387548
v -0.662536 0.472242 -0.390787
v -0.662536 0.527758 -0.390787
v -0.716543 0.484229 -0.346573
v -0.716543 0.515771 -0.346573
v -0.704173 0.472242 -0.318670
v -0.704173 0.527758 -0.318670
v -0.677887 0.524229 -0.413528
v -0.677887 0.555771 -0.413528
v -0.647536 0.512242 -0.416767
v -0.647536 0.567758 -0.416767
v -0.701543 0.524229 -0.372554
v -0.701543 0.555771 -0.372554
v -0.689173 0.512242 -0.344650
v -0.689173 0.567758 -0.344650
v -0.677887 0.444229 -0.413528
v -0.677887 0.475771 -0.413528
v -0.647536 0.432242 -0.416767
v -0.647536 0.487758 -0.416767
v -0.701543 0.444229 -0.372554
v -0.701543 0.475771 -0.372554
v -0.689173 0.432242 -0.344650
v -0.689173 0.487758 -0.344650
vt 0.309879 0.930046
vt 0.311141 0.930046
vt 0.311141 0.939367
vt 0.309124 0.939367
vt 0.275959 0.875866
vt 0.275959 0.899165
vt 0.275959 0.903825
vt 0.275959 0.903825
vt 0.275959 0.894506
vt 0.306287 0.943157
vt 0.306498 0.943157
vt 0.306591 0.943157
vt 0.306287 0.943157
vt 0.306895 0.943157
vt 0.306895 0.943157
vt 0.307164 0.943157
vt 0.307164 0.943157
vt 0.306684 0.943157
vt 0.306859 0.943157
vt 0.278587 0.875866
vt 0.278587 0.810630
vt 0.275959 0.810630
vt 0.275959 0.875866
vt 0.275959 0.894506
vt 0.275959 0.894506
vt 0.823007 0.918213
vt 0.823157 0.918213
vt 0.823525 0.918213
vt 0.823330 0.918213
vt 0.823157 0.965088
vt 0.823157 0.965088
vt 0.823525 0.965088
vt 0.823525 0.965088
vt 0.823007 0.965088
vt 0.823330 0.965088
vt 0.821912 0.949463
vt 0.822344 0.949463
vt 0.822472 0.949463
vt 0.821912 0.949463
vt 0.822724 0.949463
vt 0.822964 0.949463
vt 0.822724 0.918213
vt 0.822964 0.918213
vt 0.278821 0.847907
vt 0.282613 0.810630
vt 0.282613 0.875866
vt 0.278821 0.866548
vt 0.268176 0.771298
vt 0.268216 0.771298
vt 0.268927 0.771298
vt 0.268802 0.771298
vt 0.268216 0.771298
vt 0.268927 0.771298
vt 0.268159 0.771298
vt 0.268802 0.771298
vt 0.268102 0.771298
vt 0.268566 0.771298
vt 0.268001 0.771298
vt 0.268248 0.771298
vt 0.267887 0.771298
vt 0.267887 0.771298
vt 0.782792 0.896520
vt 0.781967 0.896520
vt 0.781967 0.905840
vt 0.782886 0.905840
vt 0.309416 0.836851
vt 0.309416 0.864810
vt 0.308657 0.855490
vt 0.308657 0.836851
vt 0.276790 0.810630
vt 0.277520 0.810630
vt 0.277520 0.838589
vt 0.276790 0.838589
vt 0.275959 0.810630
vt 0.275959 0.838589
vt 0.278351 0.810630
vt 0.278062 0.810630
vt 0.278062 0.838589
vt 0.278351 0.838589
vt 0.278351 0.810630
vt 0.278351 0.838589
vt 0.308585 0.864810
vt 0.308585 0.836851
vt 0.307827 0.836851
vt 0.307827 0.855490
vt 0.298074 0.866548
vt 0.298305 0.866548
vt 0.298067 0.875866
vt 0.297897 0.875866
vt 0.266697 0.840326
vt 0.267009 0.840326
vt 0.266832 0.849645
vt 0.266603 0.849645
vt 0.266342 0.840326
vt 0.266342 0.849645
vt 0.267363 0.840326
vt 0.267241 0.840326
vt 0.267003 0.849645
vt 0.267093 0.849645
vt 0.267363 0.840326
vt 0.267093 0.849645
vt 0.298428 0.866548
vt 0.298158 0.875866
vt 0.330701 0.891031
vt 0.330732 0.891031
vt 0.330823 0.900350
vt 0.330782 0.900350
vt 0.275959 0.847907
vt 0.275959 0.866548
vt 0.299667 0.864810
vt 0.299667 0.864810
vt 0.299758 0.874128
vt 0.299758 0.874128
vt 0.279212 0.847907
vt 0.279212 0.847907
vt 0.279212 0.866548
vt 0.279212 0.866548
vt 0.299637 0.864810
vt 0.299717 0.874128
vt 0.299414 0.864810
vt 0.299502 0.864810
vt 0.299533 0.874128
vt 0.299414 0.874128
vt 0.277089 0.847907
vt 0.277089 0.866548
vt 0.299579 0.864810
vt 0.299639 0.874128
vt 0.278082 0.847907
vt 0.278082 0.866548
vt 0.330644 0.891031
vt 0.330703 0.900350
vt 0.823330 0.980713
vt 0.823525 0.980713
vt 0.823708 0.980713
vt 0.823492 0.980713
vt 0.784056 0.896520
vt 0.784342 0.896520
vt 0.784613 0.905840
vt 0.784294 0.905840
vt 0.282613 0.894506
vt 0.281096 0.894506
vt 0.309147 0.874128
vt 0.309884 0.874128
vt 0.309884 0.892769
vt 0.309147 0.892769
vt 0.821912 0.980713
vt 0.822472 0.980713
vt 0.822536 0.980713
vt 0.821912 0.980713
vt 0.784342 0.896520
vt 0.784056 0.896520
vt 0.784294 0.905840
vt 0.784613 0.905840
vt 0.278062 0.875866
vt 0.310277 0.874128
vt 0.310277 0.892769
vt 0.277389 0.894506
vt 0.277389 0.903825
vt 0.309416 0.902088
vt 0.309387 0.925175
vt 0.308657 0.933752
vt 0.308657 0.911408
vt 0.307827 0.911408
vt 0.307827 0.933752
vt 0.278646 0.894506
vt 0.278646 0.903825
vt 0.280076 0.894506
vt 0.280076 0.894506
vt 0.280076 0.903825
vt 0.280076 0.903825
vt 0.276790 0.875866
vt 0.276790 0.899165
vt 0.310644 0.920727
vt 0.309711 0.920727
vt 0.309711 0.930046
vt 0.279579 0.894506
vt 0.279579 0.903825
vt 0.278351 0.875866
vt 0.278351 0.899165
vt 0.278322 0.898953
vt 0.278351 0.875866
vt 0.278062 0.899165
vt 0.309711 0.939367
vt 0.308888 0.930046
vt 0.308181 0.939367
vt 0.277520 0.875866
vt 0.277497 0.898953
vt 0.330564 0.881711
vt 0.330652 0.881711
vt 0.308585 0.902088
vt 0.308562 0.925175
vt 0.297920 0.885186
vt 0.297659 0.885186
vt 0.311141 0.920727
vt 0.267998 0.771298
vt 0.268112 0.771298
vt 0.337598 0.978699
vt 0.337799 0.978699
vt 0.338229 0.978699
vt 0.337924 0.978699
vt 0.306821 0.943157
vt 0.307058 0.943157
vt 0.280898 0.810630
vt 0.280898 0.875866
vt 0.282613 0.875866
vt 0.282613 0.810630
vt 0.283525 0.810630
vt 0.283525 0.875866
vt 0.283525 0.875866
vt 0.283525 0.810630
vt 0.791584 0.922741
vt 0.791584 0.941381
vt 0.791584 0.941381
vt 0.791584 0.932061
vt 0.800012 0.932061
vt 0.800012 0.941381
vt 0.798996 0.941381
vt 0.798996 0.932061
vt 0.798996 0.932061
vt 0.798996 0.941381
vt 0.800012 0.941381
vt 0.800012 0.932061
vt 0.794511 0.932061
vt 0.794511 0.941381
vt 0.797085 0.941381
vt 0.797085 0.932061
vt 0.822964 0.980713
vt 0.823084 0.980713
vt 0.823525 0.980713
vt 0.823708 0.980713
vt 0.783517 0.896520
vt 0.783694 0.905840
vt 0.798238 0.941381
vt 0.798238 0.922741
vt 0.823330 0.980713
vt 0.823492 0.980713
vt 0.299611 0.930046
vt 0.299519 0.930046
vt 0.299502 0.925387
vt 0.299577 0.925175
vt 0.299414 0.930046
vt 0.299414 0.925387
vt 0.299716 0.930046
vt 0.299716 0.930046
vt 0.299664 0.925175
vt 0.299667 0.925387
vt 0.330701 0.965588
vt 0.330601 0.965588
vt 0.330564 0.959973
vt 0.330652 0.959973
vt 0.299679 0.930046
vt 0.299637 0.925387
vt 0.278467 0.903825
vt 0.822484 0.933838
vt 0.822683 0.933838
vt 0.823007 0.933838
vt 0.822724 0.933838
vt 0.822216 0.918213
vt 0.822484 0.918213
vt 0.822344 0.918213
vt 0.821912 0.918213
vt 0.821912 0.918213
vt 0.822789 0.933838
vt 0.822683 0.933838
vt 0.823007 0.933838
vt 0.823157 0.933838
vt 0.822789 0.933838
vt 0.823157 0.933838
vt 0.285732 0.792163
vt 0.285732 0.819672
vt 0.280650 0.823058
vt 0.280650 0.788777
vt 0.332074 0.788777
vt 0.332074 0.823058
vt 0.326993 0.819672
vt 0.326993 0.792163
vt 0.326993 0.807788
vt 0.326993 0.835297
vt 0.285732 0.835297
vt 0.285732 0.807788
vt 0.280650 0.773152
vt 0.332074 0.773152
vt 0.326993 0.776538
vt 0.285732 0.776538
vt 0.332074 0.854308
vt 0.280650 0.854308
vt 0.285732 0.850922
vt 0.326993 0.850922
vt 0.285732 0.792163
vt 0.285732 0.819672
vt 0.280650 0.823058
vt 0.280650 0.788777
vt 0.332074 0.788777
vt 0.332074 0.823058
vt 0.326993 0.819672
vt 0.326993 0.792163
vt 0.326993 0.807788
vt 0.326993 0.835297
vt 0.285732 0.835297
vt 0.285732 0.807788
vt 0.280650 0.773152
vt 0.332074 0.773152
vt 0.326993 0.776538
vt 0.285732 0.776538
vt 0.332074 0.854308
vt 0.280650 0.854308
vt 0.285732 0.850922
vt 0.326993 0.850922
vt 0.285732 0.792163
vt 0.285732 0.819672
vt 0.280650 0.823058
vt 0.280650 0.788777
vt 0.332074 0.788777
vt 0.332074 0.823058
vt 0.326993 0.819672
vt 0.326993 0.792163
vt 0.326993 0.807788
vt 0.326993 0.835297
vt 0.285732 0.835297
vt 0.285732 0.807788
vt 0.280650 0.773152
vt 0.332074 0.773152
vt 0.326993 0.776538
vt 0.285732 0.776538
vt 0.332074 0.854308
vt 0.280650 0.854308
vt 0.285732 0.850922
vt 0.326993 0.850922
vt 0.285732 0.854663
vt 0.285732 0.882172
vt 0.280650 0.885558
vt 0.280650 0.851277
vt 0.332074 0.851277
vt 0.332074 0.885558
vt 0.326993 0.882172
vt 0.326993 0.854663
vt 0.326993 0.870288
vt 0.326993 0.897797
vt 0.285732 0.897797
vt 0.285732 0.870288
vt 0.280650 0.835652
vt 0.332074 0.835652
vt 0.326993 0.839038
vt 0.285732 0.839038
vt 0.332074 0.916808
vt 0.280650 0.916808
vt 0.285732 0.913422
vt 0.326993 0.913422
vt 0.285732 0.854663
vt 0.285732 0.882172
vt 0.280650 0.885558
vt 0.280650 0.851277
vt 0.332074 0.851277
vt 0.332074 0.885558
vt 0.326993 0.882172
vt 0.326993 0.854663
vt 0.326993 0.870288
vt 0.326993 0.897797
vt 0.285732 0.897797
vt 0.285732 0.870288
vt 0.280650 0.835652
vt 0.332074 0.835652
vt 0.326993 0.839038
vt 0.285732 0.839038
vt 0.332074 0.916808
vt 0.280650 0.916808
vt 0.285732 0.913422
vt 0.326993 0.913422
vt 0.285732 0.854663
vt 0.285732 0.882172
vt 0.280650 0.885558
vt 0.280650 0.851277
vt 0.332074 0.851277
vt 0.332074 0.885558
vt 0.326993 0.882172
vt 0.326993 0.854663
vt 0.326993 0.870288
vt 0.326993 0.897797
vt 0.285732 0.897797
vt 0.285732 0.870288
vt 0.280650 0.835652
vt 0.332074 0.835652
vt 0.326993 0.839038
vt 0.285732 0.839038
vt 0.332074 0.916808
vt 0.280650 0.916808
vt 0.285732 0.913422
vt 0.326993 0.913422
vt 0.285732 0.854663
vt 0.285732 0.882172
vt 0.280650 0.885558
vt 0.280650 0.851277
vt 0.332074 0.851277
vt 0.332074 0.885558
vt 0.326993 0.882172
vt 0.326993 0.854663
vt 0.326993 0.870288
vt 0.326993 0.897797
vt 0.285732 0.897797
vt 0.285732 0.870288
vt 0.280650 0.835652
vt 0.332074 0.835652
vt 0.326993 0.839038
vt 0.285732 0.839038
vt 0.332074 0.916808
vt 0.280650 0.916808
vt 0.285732 0.913422
vt 0.326993 0.913422
vt 0.285732 0.854663
vt 0.285732 0.882172
vt 0.280650 0.885558
vt 0.280650 0.851277
vt 0.332074 0.851277
vt 0.332074 0.885558
vt 0.326993 0.882172
vt 0.326993 0.854663
vt 0.326993 0.870288
vt 0.326993 0.897797
vt 0.285732 0.897797
vt 0.285732 0.870288
vt 0.280650 0.835652
vt 0.332074 0.835652
vt 0.326993 0.839038
vt 0.285732 0.839038
vt 0.332074 0.916808
vt 0.280650 0.916808
vt 0.285732 0.913422
vt 0.326993 0.913422
vn -0.6781 -0.1131 0.7262
vn -0.7139 -0.1047 0.6924
vn -0.6557 -0.1180 0.7457
vn -0.5000 0.0000 -0.8660
vn 0.0000 1.0000 0.0000
vn 0.9848 0.0000 -0.1736
vn 0.9397 0.0000 -0.3420
vn -1.0000 0.0000 0.0000
vn 0.0000 -1.0000 -0.0000
vn 0.6964 -0.7071 -0.1228
vn 0.6696 -0.7016 -0.2437
vn -0.5000 -0.0000 0.8660
vn -0.9848 0.0000 0.1737
vn -0.9397 0.0000 0.3420
vn -0.3420 0.0000 -0.9397
vn -0.1736 0.0000 -0.9848
vn 0.5000 0.0000 -0.8660
vn -0.6970 -0.7065 -0.1229
vn -0.6129 -0.7065 -0.3539
vn -0.6043 -0.7164 -0.3489
vn -0.6890 -0.7061 -0.1637
vn -0.6969 -0.7066 0.1226
vn -0.6700 -0.7013 0.2433
vn -0.2423 -0.7066 -0.6648
vn -0.1243 -0.7014 -0.7019
vn -0.4549 -0.7065 -0.5422
vn -0.4862 -0.7061 -0.5148
vn -0.6043 0.7164 -0.3489
vn -0.4862 0.7061 -0.5148
vn -0.4549 0.7065 -0.5422
vn -0.6129 0.7065 -0.3539
vn -0.2423 0.7066 -0.6648
vn -0.6428 0.0000 -0.7660
vn -0.3427 0.0000 -0.9395
vn -0.1243 0.7014 -0.7019
vn -0.1750 0.0000 -0.9846
vn -0.6700 0.7013 0.2433
vn -0.6969 0.7066 0.1226
vn -0.9402 0.0000 0.3407
vn -0.9849 0.0000 0.1730
vn -0.6890 0.7061 -0.1637
vn -0.6970 0.7065 -0.1229
vn -0.9848 0.0000 -0.1736
vn 0.1237 -0.7016 0.7017
vn 0.2419 -0.7070 0.6645
vn -0.8660 0.0000 -0.5000
vn 0.4546 -0.7070 0.5417
vn 0.6124 -0.7070 0.3536
vn 0.9848 0.0000 -0.1737
vn -0.5524 -0.0511 0.8320
vn -0.5840 -0.0834 0.8075
vn 0.9848 0.0000 0.1736
vn 0.9511 0.0342 0.3069
vn 0.3420 -0.0000 0.9397
vn 0.6428 0.0000 0.7660
vn 0.7413 0.0342 0.6703
vn -0.9846 0.0000 0.1750
vn 0.8515 0.1821 0.4916
vn 0.1736 -0.0000 0.9848
vn -0.3501 -0.0034 -0.9367
vn -0.3488 -0.0034 -0.9372
vn -0.5149 -0.0067 -0.8572
vn 0.2427 -0.1047 -0.9644
vn 0.2921 -0.1068 -0.9504
vn 0.3209 -0.1079 -0.9409
vn -0.6025 0.7408 -0.2971
vn -0.5586 0.7408 -0.3732
vn 0.8660 0.0000 0.5000
vn 0.4838 -0.0055 -0.8751
vn 0.4050 -0.0742 -0.9113
vn 0.4358 -0.0480 -0.8988
vn -0.5586 -0.7408 -0.3732
vn -0.6025 -0.7408 -0.2971
vn 0.6964 -0.7070 0.1228
vn -1.0000 0.0000 -0.0001
vn -0.6961 0.7179 0.0089
vn -0.6764 0.7262 0.1232
vn -0.6765 0.7261 0.1228
vn -0.6475 0.7246 0.2360
vn -0.2335 0.7320 -0.6401
vn -0.3440 0.7287 -0.5922
vn -0.2347 0.7320 -0.6396
vn -0.6446 0.6678 -0.3721
vn -0.1193 0.7246 -0.6788
vn -0.7204 0.0000 -0.6935
vn -0.4398 0.0000 0.8981
vn -0.9848 0.0000 0.1736
vn -0.4305 -0.8994 0.0759
vn -0.4305 0.8994 0.0759
vn 0.5579 0.0000 -0.8299
vn -0.9608 0.0000 -0.2772
vn -0.1495 -0.8994 -0.4107
vn -0.1495 0.8994 -0.4107
vn -0.1061 0.0000 -0.9944
vn -0.9142 0.0000 0.4053
vn -0.3785 -0.8994 -0.2186
vn -0.3785 0.8994 -0.2186
usemtl hexagons_medieval
s 1
f 102/1/1 62/2/2 67/3/2 107/4/3
f 32/5/4 94/6/4 95/7/4 59/8/4 53/9/4
f 95/10/5 98/11/5 57/12/5 59/13/5
f 102/14/5 101/15/5 61/16/5 62/17/5
f 98/11/5 97/18/5 56/19/5 57/12/5
f 75/20/6 17/21/6 15/22/7 74/23/7
f 112/24/4 16/25/4 74/23/4
f 109/26/5 108/27/5 10/28/5 8/29/5
f 108/30/5 110/31/5 12/32/5 10/33/5
f 110/31/5 111/34/5 14/35/5 12/32/5
f 112/36/5 113/37/5 18/38/5 16/39/5
f 113/37/5 114/40/5 20/41/5 18/38/5
f 114/42/5 109/26/5 8/29/5 20/43/5
f 40/44/8 13/45/8 71/46/8 39/47/8
f 3/48/9 2/49/9 11/50/9 13/51/9
f 2/49/9 1/52/9 9/53/9 11/50/9
f 1/52/9 58/54/9 7/55/9 9/53/9
f 6/56/9 19/57/9 7/55/9 58/54/9
f 6/56/9 5/58/9 17/59/9 19/57/9
f 5/58/9 4/60/9 15/61/9 17/59/9
f 75/62/10 74/63/11 89/64/11 90/65/10
f 1/66/12 22/67/12 64/68/12 63/69/12
f 5/70/13 6/71/8 27/72/8 26/73/13
f 4/74/14 5/70/13 26/73/13 25/75/14
f 2/76/15 3/77/16 24/78/16 23/79/15
f 1/80/4 2/76/15 23/79/15 22/81/4
f 27/82/17 6/83/17 66/84/17 65/85/17
f 3/77/8 13/45/8 24/78/8
f 4/74/4 25/75/4 15/22/4
f 45/86/18 48/87/19 28/88/20 34/89/21
f 43/90/22 45/91/18 34/92/21 33/93/22
f 41/94/23 43/90/22 33/93/22 32/95/23
f 37/96/24 39/97/25 31/98/25 30/99/24
f 35/100/26 37/96/24 30/99/24 29/101/27
f 48/87/19 35/102/26 29/103/27 28/88/20
f 21/104/28 22/105/29 36/106/30 47/107/31
f 42/108/4 41/109/4 74/23/4 15/22/4
f 22/110/29 23/111/32 38/112/32 36/113/30
f 36/114/33 38/115/34 37/116/34 35/117/33
f 23/111/32 24/118/35 40/119/35 38/112/32
f 38/115/34 40/44/36 39/47/36 37/116/34
f 25/120/37 26/121/38 44/122/38 42/123/37
f 42/108/39 44/124/40 43/125/40 41/109/39
f 26/121/38 27/126/41 46/127/42 44/122/38
f 44/124/40 46/128/43 45/129/43 43/125/40
f 27/130/41 21/104/28 47/107/31 46/131/42
f 8/132/5 10/133/5 78/134/5 79/135/5
f 71/136/44 73/137/45 88/138/45 86/139/44
f 71/46/8 14/140/8 111/141/8
f 41/109/4 32/5/4 74/23/4
f 46/142/43 47/143/46 48/144/46 45/145/43
f 25/75/4 42/108/4 15/22/4
f 16/146/5 18/147/5 82/148/5 83/149/5
f 72/150/47 77/151/48 85/152/48 87/153/47
f 39/47/8 71/46/8 31/154/8
f 47/143/46 36/155/33 35/156/33 48/144/46
f 54/157/49 53/9/7 59/8/7 57/158/49
f 29/159/12 103/160/50 106/161/51 69/162/12
f 70/163/46 69/162/46 106/161/46 104/164/46
f 55/165/52 54/157/49 57/158/49 56/166/53
f 51/167/54 49/168/55 62/169/56 61/170/54
f 33/171/13 99/172/57 94/6/14 32/5/14
f 50/173/58 55/174/52 56/175/53
f 52/176/59 51/167/54 61/170/54 60/177/59
f 30/178/60 100/179/61 103/180/62 29/181/62
f 93/182/16 100/179/61 30/178/60 31/154/16
f 68/183/63 56/175/63 97/184/64 105/185/65
f 34/186/8 96/187/8 99/172/57 33/171/13
f 65/188/66 64/189/67 21/104/28
f 21/104/28 27/130/41 65/188/66
f 62/2/56 56/175/53 68/183/68 67/3/68
f 34/190/69 70/163/69 104/164/70 96/191/71
f 28/88/20 69/192/72 70/193/73
f 49/194/55 50/173/58 62/2/56
f 34/89/21 28/88/20 70/193/73
f 28/88/20 29/103/27 69/192/72
f 50/173/58 56/175/53 62/2/56
f 66/195/9 6/56/9 58/54/9
f 22/105/29 21/104/28 64/189/67
f 63/69/46 64/68/46 65/85/46 66/84/46
f 63/196/9 66/195/9 58/54/9
f 105/197/5 107/198/5 67/199/5 68/200/5
f 24/78/8 13/45/8 40/44/8
f 101/15/5 92/201/5 60/202/5 61/16/5
f 1/52/9 63/196/9 58/54/9
f 19/203/52 76/204/52 77/205/68 7/206/68
f 17/21/6 75/20/6 76/204/52 19/203/52
f 9/207/55 72/208/55 73/209/54 11/210/54
f 7/206/68 77/205/68 72/208/55 9/207/55
f 11/210/54 73/209/54 71/46/59 13/45/59
f 74/211/4 16/212/4 83/213/4 89/214/4
f 88/215/54 80/216/54 81/217/59 86/218/59
f 85/219/68 79/220/68 78/221/55 87/222/55
f 87/222/55 78/221/55 80/216/54 88/215/54
f 90/223/6 82/224/6 84/225/52 91/226/52
f 91/226/52 84/225/52 79/220/68 85/219/68
f 82/224/6 90/223/6 89/214/7 83/213/7
f 18/147/5 20/227/5 84/228/5 82/148/5
f 10/133/5 12/229/5 80/230/5 78/134/5
f 20/227/5 8/132/5 79/135/5 84/228/5
f 77/151/48 76/231/74 91/232/74 85/152/48
f 14/233/8 71/234/8 86/218/75 81/217/75
f 76/231/74 75/62/10 90/65/10 91/232/74
f 12/229/5 14/235/5 81/236/5 80/230/5
f 73/137/45 72/150/47 87/153/47 88/138/45
f 97/237/76 98/238/77 99/239/78 96/240/76
f 98/238/77 95/241/79 94/242/79 99/239/78
f 96/191/71 104/164/70 105/185/65 97/184/64
f 101/243/80 102/244/81 103/245/81 100/246/82
f 107/247/83 105/248/83 104/249/83 106/250/83
f 102/1/1 107/4/3 106/161/51 103/160/50
f 92/251/84 101/243/80 100/246/82 93/252/84
f 92/253/8 93/182/8 31/154/8 52/176/8 60/177/8
f 55/254/5 50/255/5 109/256/5 114/257/5
f 54/258/5 55/259/5 114/42/5 113/260/5
f 53/261/5 54/258/5 113/260/5 112/262/5
f 51/263/5 52/264/5 111/265/5 110/266/5
f 49/267/5 51/263/5 110/266/5 108/268/5
f 50/255/5 49/267/5 108/268/5 109/256/5
f 31/154/8 71/46/8 111/141/8 52/176/8
f 74/23/4 32/5/4 53/9/4 112/24/4
f 115/269/85 116/270/85 118/271/85 117/272/85
f 121/273/86 122/274/86 120/275/86 119/276/86
f 119/277/87 120/278/87 116/279/87 115/280/87
f 117/281/88 121/282/88 119/283/88 115/284/88
f 122/285/89 118/286/89 116/287/89 120/288/89
f 123/289/85 124/290/85 126/291/85 125/292/85
f 129/293/86 130/294/86 128/295/86 127/296/86
f 127/297/87 128/298/87 124/299/87 123/300/87
f 125/301/88 129/302/88 127/303/88 123/304/88
f 130/305/89 126/306/89 124/307/89 128/308/89
f 131/309/85 132/310/85 134/311/85 133/312/85
f 137/313/86 138/314/86 136/315/86 135/316/86
f 135/317/87 136/318/87 132/319/87 131/320/87
f 133/321/88 137/322/88 135/323/88 131/324/88
f 138/325/89 134/326/89 132/327/89 136/328/89
f 139/329/90 140/330/90 142/331/90 141/332/90
f 145/333/91 146/334/91 144/335/91 143/336/91
f 143/337/15 144/338/15 140/339/15 139/340/15
f 141/341/92 145/342/92 143/343/92 139/344/92
f 146/345/93 142/346/93 140/347/93 144/348/93
f 147/349/94 148/350/94 150/351/94 149/352/94
f 153/353/95 154/354/95 152/355/95 151/356/95
f 151/357/46 152/358/46 148/359/46 147/360/46
f 149/361/96 153/362/96 151/363/96 147/364/96
f 154/365/97 150/366/97 148/367/97 152/368/97
f 155/369/94 156/370/94 158/371/94 157/372/94
f 161/373/95 162/374/95 160/375/95 159/376/95
f 159/377/46 160/378/46 156/379/46 155/380/46
f 157/381/96 161/382/96 159/383/96 155/384/96
f 162/385/97 158/386/97 156/387/97 160/388/97
f 163/389/94 164/390/94 166/391/94 165/392/94
f 169/393/95 170/394/95 168/395/95 167/396/95
f 167/397/46 168/398/46 164/399/46 163/400/46
f 165/401/96 169/402/96 167/403/96 163/404/96
f 170/405/97 166/406/97 164/407/97 168/408/97
f 171/409/94 172/410/94 174/411/94 173/412/94
f 177/413/95 178/414/95 176/415/95 175/416/95
f 175/417/46 176/418/46 172/419/46 171/420/46
f 173/421/96 177/422/96 175/423/96 171/424/96
f 178/425/97 174/426/97 172/427/97 176/428/97
