# Blender v3.4.1 OBJ File: 'Medieval_Hexagons_Export_1.0_WorldOrigin.blend'
# www.blender.org
mtllib building_lumbermill_red_building_lumbermill_saw_red.mtl
o building_lumbermill_saw_red
v 0.314996 0.280001 0.000001
v 0.244996 0.280001 0.000000
v 0.314996 0.070001 -0.034809
v 0.244996 0.070001 -0.034809
v 0.244996 0.106895 -0.123878
v 0.314996 0.106895 -0.123878
v 0.314996 0.156123 -0.173106
v 0.244996 0.156123 -0.173106
v 0.244996 0.245191 -0.210000
v 0.314996 0.245191 -0.209999
v 0.314996 0.314811 -0.209999
v 0.244996 0.314811 -0.210000
v 0.244996 0.403879 -0.173106
v 0.314996 0.403879 -0.173106
v 0.314996 0.453108 -0.123878
v 0.244996 0.453108 -0.123878
v 0.244996 0.490001 -0.034809
v 0.314996 0.490001 -0.034809
v 0.314996 0.490001 0.034810
v 0.244996 0.490001 0.034810
v 0.244996 0.453108 0.123879
v 0.314996 0.453108 0.123879
v 0.314996 0.403879 0.173107
v 0.244996 0.403879 0.173107
v 0.244996 0.314811 0.210000
v 0.314996 0.314811 0.210001
v 0.314996 0.245191 0.210001
v 0.244996 0.245191 0.210000
v 0.244996 0.156123 0.173107
v 0.314996 0.156123 0.173107
v 0.314996 0.106894 0.123879
v 0.244996 0.106895 0.123879
v 0.244996 0.070001 0.034810
v 0.314996 0.070001 0.034810
v 0.314996 0.072665 -0.048203
v 0.314996 0.099307 -0.112523
v 0.244996 0.099308 -0.112523
v 0.244996 0.072665 -0.048203
v 0.244996 0.167478 -0.180693
v 0.314996 0.167478 -0.180693
v 0.314996 0.231797 -0.207335
v 0.244996 0.231798 -0.207335
v 0.244996 0.328205 -0.207335
v 0.314996 0.328205 -0.207335
v 0.314996 0.392525 -0.180693
v 0.244996 0.392525 -0.180693
v 0.244996 0.460695 -0.112523
v 0.314996 0.460695 -0.112523
v 0.314996 0.487337 -0.048203
v 0.244996 0.487337 -0.048203
v 0.244996 0.487337 0.048204
v 0.314996 0.487337 0.048204
v 0.314996 0.460695 0.112524
v 0.244996 0.460695 0.112524
v 0.244996 0.392525 0.180694
v 0.314996 0.392524 0.180694
v 0.314996 0.328205 0.207336
v 0.244996 0.328205 0.207336
v 0.244996 0.231797 0.207336
v 0.314996 0.231797 0.207336
v 0.314996 0.167478 0.180694
v 0.244996 0.167478 0.180694
v 0.244996 0.099307 0.112524
v 0.314996 0.099307 0.112524
v 0.314996 0.072665 0.048204
v 0.244996 0.072665 0.048204
v 0.279996 0.035001 -0.034809
v 0.279996 0.131374 -0.197855
v 0.279996 0.314811 -0.245000
v 0.279996 0.477856 -0.148626
v 0.279996 0.525001 0.034810
v 0.279996 0.428628 0.197856
v 0.279996 0.245191 0.245001
v 0.279996 0.082146 0.148627
v 0.279996 0.066972 -0.125917
v 0.279996 0.218404 -0.239671
v 0.279996 0.405918 -0.213029
v 0.279996 0.519673 -0.061597
v 0.279996 0.493030 0.125918
v 0.279996 0.341599 0.239672
v 0.279996 0.154084 0.213030
v 0.279996 0.040329 0.061598
v 0.314996 0.105001 -0.034809
v 0.314996 0.131643 -0.099129
v 0.314996 0.180872 -0.148357
v 0.314996 0.245191 -0.174999
v 0.314996 0.314811 -0.174999
v 0.314996 0.379131 -0.148357
v 0.314996 0.428359 -0.099129
v 0.314996 0.455001 -0.034809
v 0.314996 0.455001 0.034810
v 0.314996 0.428359 0.099130
v 0.314996 0.379131 0.148358
v 0.314996 0.314811 0.175001
v 0.314996 0.245191 0.175001
v 0.314996 0.180871 0.148358
v 0.314996 0.131643 0.099130
v 0.314996 0.105001 0.034810
v 0.244996 0.131643 -0.099129
v 0.244996 0.105001 -0.034809
v 0.244996 0.180872 -0.148357
v 0.244996 0.245191 -0.174999
v 0.244996 0.314811 -0.174999
v 0.244996 0.379131 -0.148357
v 0.244996 0.428359 -0.099129
v 0.244996 0.455001 -0.034809
v 0.244996 0.455001 0.034810
v 0.244996 0.428359 0.099130
v 0.244996 0.379131 0.148358
v 0.244996 0.314811 0.175001
v 0.244996 0.245191 0.175001
v 0.244996 0.180872 0.148358
v 0.244996 0.131643 0.099130
v 0.244996 0.105001 0.034810
v 0.139996 0.280001 0.000001
v 0.419996 0.280001 0.000001
v 0.217005 0.227500 0.045501
v 0.217005 0.234500 0.052501
v 0.210005 0.234500 0.045501
v 0.217005 0.325500 0.052501
v 0.217005 0.332500 0.045501
v 0.210005 0.325500 0.045501
v 0.217005 0.227500 -0.045499
v 0.210005 0.234500 -0.045499
v 0.217005 0.234500 -0.052499
v 0.217005 0.332500 -0.045499
v 0.217005 0.325500 -0.052499
v 0.210005 0.325500 -0.045499
v 0.343005 0.227500 0.045501
v 0.350005 0.234500 0.045501
v 0.343005 0.234500 0.052501
v 0.343005 0.332500 0.045501
v 0.343005 0.325500 0.052501
v 0.350005 0.325500 0.045501
v 0.343005 0.227500 -0.045499
v 0.343005 0.234500 -0.052499
v 0.350005 0.234500 -0.045499
v 0.343005 0.332500 -0.045499
v 0.350005 0.325500 -0.045499
v 0.343005 0.325500 -0.052499
v 0.419996 0.252001 -0.034999
v 0.419996 0.245001 -0.027999
v 0.419996 0.315001 -0.027999
v 0.419996 0.308001 -0.034999
v 0.419996 0.245001 0.028001
v 0.419996 0.252001 0.035001
v 0.419996 0.308001 0.035001
v 0.419996 0.315001 0.028001
v 0.139996 0.245001 -0.027999
v 0.139996 0.252001 -0.034999
v 0.139996 0.308001 -0.034999
v 0.139996 0.315001 -0.027999
v 0.139996 0.252001 0.035001
v 0.139996 0.245001 0.028001
v 0.139996 0.315001 0.028001
v 0.139996 0.308001 0.035001
vt 0.311942 0.866298
vt 0.302166 0.870347
vt 0.304200 0.875262
vt 0.313976 0.871212
vt 0.319424 0.875559
vt 0.319424 0.875559
vt 0.323185 0.871797
vt 0.323185 0.871797
vt 0.323473 0.838460
vt 0.319424 0.828684
vt 0.324337 0.826648
vt 0.328386 0.836423
vt 0.270277 0.895915
vt 0.270277 0.895915
vt 0.264957 0.895915
vt 0.264957 0.895915
vt 0.302166 0.917222
vt 0.302166 0.917222
vt 0.304200 0.922137
vt 0.304200 0.922137
vt 0.270277 0.838460
vt 0.270277 0.849040
vt 0.264957 0.849040
vt 0.264957 0.838460
vt 0.319424 0.828684
vt 0.323473 0.838460
vt 0.328386 0.836423
vt 0.324337 0.826648
vt 0.302166 0.922542
vt 0.302166 0.922542
vt 0.323473 0.885335
vt 0.323473 0.885335
vt 0.328386 0.883298
vt 0.328386 0.883298
vt 0.270277 0.849040
vt 0.270277 0.838460
vt 0.264957 0.838460
vt 0.264957 0.849040
vt 0.270277 0.885335
vt 0.270277 0.885335
vt 0.265364 0.883298
vt 0.265364 0.883298
vt 0.291584 0.870347
vt 0.302166 0.870347
vt 0.302166 0.875667
vt 0.291584 0.875667
vt 0.274326 0.828684
vt 0.265364 0.836423
vt 0.269413 0.826648
vt 0.328793 0.885335
vt 0.328793 0.885335
vt 0.291584 0.917222
vt 0.291584 0.917222
vt 0.289550 0.922137
vt 0.289550 0.922137
vt 0.264957 0.885335
vt 0.264957 0.885335
vt 0.328386 0.897951
vt 0.328386 0.897951
vt 0.333301 0.899987
vt 0.259638 0.895915
vt 0.324337 0.860852
vt 0.328386 0.851076
vt 0.333301 0.853112
vt 0.259638 0.849040
vt 0.328386 0.851076
vt 0.324337 0.860852
vt 0.329252 0.871488
vt 0.270565 0.909453
vt 0.270565 0.909453
vt 0.274286 0.920696
vt 0.311942 0.821202
vt 0.323185 0.824922
vt 0.315703 0.817441
vt 0.311942 0.913173
vt 0.311942 0.913173
vt 0.315703 0.916934
vt 0.315703 0.916934
vt 0.311942 0.821202
vt 0.315703 0.817441
vt 0.323185 0.824922
vt 0.319424 0.858816
vt 0.315703 0.870059
vt 0.323185 0.862578
vt 0.274326 0.905691
vt 0.274326 0.905691
vt 0.311942 0.868077
vt 0.311942 0.868077
vt 0.315703 0.864316
vt 0.315703 0.864316
vt 0.291584 0.864028
vt 0.291584 0.864028
vt 0.291584 0.858708
vt 0.291584 0.858708
vt 0.311942 0.866298
vt 0.319424 0.858816
vt 0.323185 0.862578
vt 0.315703 0.870059
vt 0.281808 0.866298
vt 0.274326 0.858816
vt 0.270565 0.862578
vt 0.278047 0.870059
vt 0.281808 0.868077
vt 0.281808 0.868077
vt 0.278047 0.864316
vt 0.278047 0.864316
vt 0.319424 0.905691
vt 0.319424 0.905691
vt 0.323185 0.909453
vt 0.323185 0.909453
vt 0.274326 0.858816
vt 0.281808 0.866298
vt 0.278047 0.870059
vt 0.270565 0.862578
vt 0.274326 0.828684
vt 0.281808 0.821202
vt 0.278047 0.817441
vt 0.270565 0.824922
vt 0.281808 0.913173
vt 0.281808 0.913173
vt 0.278047 0.916934
vt 0.278047 0.916934
vt 0.302166 0.864028
vt 0.302166 0.864028
vt 0.302166 0.858708
vt 0.302166 0.858708
vt 0.281808 0.821202
vt 0.270565 0.824922
vt 0.278047 0.817441
vt 0.291584 0.817153
vt 0.302166 0.817153
vt 0.302166 0.811833
vt 0.291584 0.811833
vt 0.274326 0.875559
vt 0.274326 0.875559
vt 0.270565 0.871797
vt 0.270565 0.871797
vt 0.323473 0.895915
vt 0.323473 0.895915
vt 0.328793 0.895915
vt 0.328793 0.895915
vt 0.302166 0.817153
vt 0.291584 0.817153
vt 0.291584 0.811833
vt 0.302166 0.811833
vt 0.323473 0.849040
vt 0.328793 0.849040
vt 0.328793 0.838460
vt 0.291584 0.922542
vt 0.291584 0.922542
vt 0.323473 0.849040
vt 0.328793 0.838460
vt 0.328793 0.849040
vt 0.291584 0.870347
vt 0.291584 0.875667
vt 0.302166 0.875667
vt 0.291584 0.806514
vt 0.313976 0.918087
vt 0.313976 0.918087
vt 0.316012 0.923002
vt 0.266803 0.868036
vt 0.304200 0.875262
vt 0.313976 0.871212
vt 0.316012 0.876127
vt 0.266803 0.821161
vt 0.289550 0.859113
vt 0.289550 0.859113
vt 0.277738 0.858248
vt 0.265364 0.897951
vt 0.265364 0.897951
vt 0.324337 0.873523
vt 0.324337 0.873523
vt 0.265364 0.851076
vt 0.269413 0.860852
vt 0.289550 0.812238
vt 0.279772 0.816288
vt 0.269413 0.860852
vt 0.265364 0.851076
vt 0.279772 0.816288
vt 0.289550 0.812238
vt 0.269413 0.907727
vt 0.269413 0.907727
vt 0.313976 0.863163
vt 0.313976 0.863163
vt 0.313976 0.816288
vt 0.304200 0.812238
vt 0.279772 0.863163
vt 0.279772 0.863163
vt 0.324337 0.907727
vt 0.324337 0.907727
vt 0.304200 0.812238
vt 0.313976 0.816288
vt 0.279772 0.918087
vt 0.279772 0.918087
vt 0.304200 0.859113
vt 0.304200 0.859113
vt 0.279772 0.871212
vt 0.289550 0.875262
vt 0.269413 0.873523
vt 0.269413 0.873523
vt 0.289550 0.875262
vt 0.279772 0.871212
vt 0.269413 0.826648
vt 0.265364 0.836423
vt 0.302166 0.927861
vt 0.326947 0.913214
vt 0.334112 0.885335
vt 0.319464 0.860554
vt 0.291584 0.853389
vt 0.260449 0.881263
vt 0.264498 0.909762
vt 0.287513 0.927051
vt 0.306237 0.854199
vt 0.274286 0.873821
vt 0.329252 0.824613
vt 0.277738 0.811373
vt 0.302166 0.880986
vt 0.306237 0.807324
vt 0.260449 0.834388
vt 0.326947 0.866339
vt 0.264498 0.862887
vt 0.334112 0.838460
vt 0.287513 0.880176
vt 0.319464 0.813679
vt 0.296875 0.875000
vt 0.291584 0.848403
vt 0.281808 0.852452
vt 0.296875 0.890625
vt 0.274326 0.859934
vt 0.270277 0.869710
vt 0.270277 0.880290
vt 0.274326 0.890066
vt 0.281808 0.897548
vt 0.291584 0.901597
vt 0.302166 0.901597
vt 0.311942 0.897548
vt 0.319424 0.890066
vt 0.323473 0.880290
vt 0.323473 0.869710
vt 0.319424 0.859934
vt 0.311942 0.852452
vt 0.302166 0.848403
vt 0.296875 0.875000
vt 0.281808 0.852452
vt 0.291584 0.848403
vt 0.296875 0.890625
vt 0.270277 0.869710
vt 0.274326 0.859934
vt 0.274326 0.890066
vt 0.270277 0.880290
vt 0.291584 0.901597
vt 0.281808 0.897548
vt 0.311942 0.897548
vt 0.302166 0.901597
vt 0.323473 0.880290
vt 0.319424 0.890066
vt 0.319424 0.859934
vt 0.323473 0.869710
vt 0.302166 0.848403
vt 0.311942 0.852452
vt 0.338071 0.917881
vt 0.269757 0.917881
vt 0.269757 0.917881
vt 0.338071 0.917881
vt 0.338071 0.856302
vt 0.338071 0.883262
vt 0.269757 0.883262
vt 0.269757 0.856302
vt 0.269757 0.856302
vt 0.269757 0.883262
vt 0.338071 0.883262
vt 0.338071 0.856302
vt 0.338071 0.852932
vt 0.269757 0.852932
vt 0.269757 0.949131
vt 0.338071 0.949131
vt 0.338071 0.945762
vt 0.269757 0.945762
vt 0.269757 0.852932
vt 0.338071 0.852932
vt 0.338071 0.949131
vt 0.269757 0.949131
vt 0.269757 0.945762
vt 0.338071 0.945762
vt 0.269757 0.821682
vt 0.338071 0.821682
vt 0.338071 0.821682
vt 0.269757 0.821682
vt 0.319288 0.847876
vt 0.319288 0.891686
vt 0.288547 0.891686
vt 0.288547 0.847876
vt 0.320994 0.847876
vt 0.320994 0.891686
vt 0.320994 0.891686
vt 0.320994 0.847876
vt 0.319288 0.926306
vt 0.288547 0.926306
vt 0.288547 0.926306
vt 0.319288 0.926306
vt 0.286838 0.847876
vt 0.286838 0.891686
vt 0.286838 0.891686
vt 0.286838 0.847876
vt 0.288547 0.847876
vt 0.288547 0.891686
vt 0.319288 0.891686
vt 0.319288 0.847876
vt 0.288547 0.844507
vt 0.288547 0.954186
vt 0.288547 0.957556
vt 0.286838 0.954186
vt 0.288547 0.844507
vt 0.288547 0.957556
vt 0.288547 0.954186
vt 0.286838 0.954186
vt 0.319288 0.844507
vt 0.319288 0.957556
vt 0.319288 0.954186
vt 0.320994 0.954186
vt 0.319288 0.844507
vt 0.319288 0.957556
vt 0.320994 0.954186
vt 0.319288 0.954186
vt 0.288547 0.879126
vt 0.288547 0.922936
vt 0.286838 0.922936
vt 0.286838 0.879126
vt 0.288547 0.922936
vt 0.288547 0.879126
vt 0.286838 0.879126
vt 0.286838 0.922936
vt 0.320994 0.922936
vt 0.320994 0.879126
vt 0.319288 0.879126
vt 0.319288 0.922936
vt 0.319288 0.922936
vt 0.319288 0.879126
vt 0.320994 0.879126
vt 0.320994 0.922936
vt 0.288547 0.813257
vt 0.319288 0.813257
vt 0.319288 0.813257
vt 0.288547 0.813257
vt 0.303914 0.883454
vt 0.303914 0.883454
vn 1.0000 -0.0000 -0.0000
vn 0.9771 0.1965 0.0814
vn 0.9239 0.3536 0.1464
vn -0.0000 0.7071 0.7071
vn -1.0000 0.0000 0.0000
vn -0.9239 -0.1464 0.3536
vn -0.9771 -0.0814 0.1965
vn 0.0000 1.0000 0.0000
vn 0.0000 0.3827 -0.9239
vn -0.9239 0.0000 -0.3827
vn -0.9771 0.0000 -0.2127
vn 0.9771 -0.0814 0.1965
vn 0.9239 -0.1464 0.3536
vn -0.0000 -0.0000 1.0000
vn 0.0000 0.9239 0.3827
vn 0.9771 0.0000 -0.2127
vn 0.9239 0.0000 -0.3827
vn 0.0000 0.9239 -0.3827
vn -0.9239 0.3827 0.0000
vn -0.9771 0.2127 0.0000
vn -0.0000 -1.0000 0.0000
vn -0.0000 0.3827 0.9239
vn -0.0000 -0.9239 0.3827
vn -0.9771 0.0814 0.1965
vn -0.9239 0.1464 0.3536
vn -0.7071 0.2706 0.6533
vn -0.7071 0.0000 -0.7071
vn 0.9239 0.1464 0.3536
vn 0.9771 0.0814 0.1965
vn 0.7071 0.2706 0.6533
vn 0.7071 0.0000 -0.7071
vn -0.0000 0.0731 0.9973
vn 0.0000 0.3142 -0.9494
vn 0.9771 -0.1504 0.1504
vn 0.9239 -0.2706 0.2706
vn 0.0000 0.7071 -0.7071
vn -0.9239 -0.2706 0.2706
vn -0.9771 -0.1504 0.1504
vn 0.9771 0.1504 0.1504
vn 0.9239 0.2706 0.2706
vn 0.0000 -0.7071 -0.7071
vn 0.0000 0.0000 -1.0000
vn 0.9771 0.1504 -0.1504
vn 0.9239 0.2706 -0.2706
vn -0.0000 -0.7071 0.7071
vn -0.9239 0.2706 -0.2706
vn -0.9771 0.1504 -0.1504
vn 0.9771 -0.1504 -0.1504
vn 0.9239 -0.2706 -0.2706
vn -0.9239 -0.2706 -0.2706
vn -0.9771 -0.1504 -0.1504
vn 0.9771 -0.2127 -0.0000
vn 0.9239 -0.3827 -0.0000
vn 0.9771 -0.0000 0.2127
vn 0.9239 -0.0000 0.3827
vn -0.9239 0.0000 0.3827
vn -0.9771 0.0000 0.2127
vn -0.7071 -0.7071 -0.0000
vn -0.0000 -0.3827 0.9239
vn 0.7071 -0.7071 -0.0000
vn -0.9771 0.1965 0.0814
vn -0.9239 0.3536 0.1464
vn -0.7071 0.6533 0.2706
vn -0.7071 -0.5000 -0.5000
vn -0.0000 -0.9973 0.0731
vn 0.7071 0.6533 0.2706
vn -0.0000 -0.9239 -0.3827
vn 0.9771 0.0814 -0.1965
vn 0.9239 0.1464 -0.3536
vn 0.9771 -0.1965 -0.0814
vn 0.9239 -0.3536 -0.1464
vn 0.9771 -0.1965 0.0814
vn 0.9239 -0.3536 0.1464
vn -0.0000 -0.3827 -0.9239
vn -0.9239 0.3536 -0.1464
vn -0.9771 0.1965 -0.0814
vn 0.0000 -0.4492 -0.8934
vn 0.0000 0.8934 -0.4492
vn 0.0000 0.9494 0.3142
vn 0.0000 0.4492 0.8934
vn -0.0000 -0.3142 0.9494
vn -0.0000 -0.8934 0.4492
vn -0.0000 -0.7569 -0.6535
vn 0.0000 -0.0731 -0.9973
vn 0.0000 0.6536 -0.7569
vn 0.0000 0.9973 -0.0731
vn 0.0000 0.7569 0.6535
vn -0.0000 -0.6535 0.7569
vn 0.7071 0.5000 -0.5000
vn 0.7071 -0.2706 0.6533
vn -0.7071 0.5000 -0.5000
vn -0.7071 -0.2706 0.6533
vn 0.7071 -0.6533 -0.2706
vn -0.7071 -0.6533 -0.2706
vn 0.7071 0.7071 0.0000
vn 0.7071 -0.6533 0.2706
vn -0.7071 0.7071 0.0000
vn -0.7071 -0.6533 0.2706
vn 0.7071 -0.2706 -0.6533
vn -0.7071 -0.2706 -0.6533
vn 0.7071 0.5000 0.5000
vn -0.7071 0.5000 0.5000
vn 0.7071 0.2706 -0.6533
vn -0.7071 0.2706 -0.6533
vn 0.7071 -0.0000 0.7071
vn -0.7071 0.0000 0.7071
vn 0.7071 0.6533 -0.2706
vn -0.7071 0.6533 -0.2706
vn 0.7071 -0.5000 0.5000
vn -0.7071 -0.5000 0.5000
vn 0.7071 -0.5000 -0.5000
vn -0.0000 -0.9494 -0.3142
vn 0.3416 -0.3416 0.8756
vn 0.3416 0.3416 0.8756
vn -0.3416 0.3416 0.8756
vn -0.3416 -0.3416 0.8756
vn 0.3416 0.8756 -0.3416
vn 0.3416 0.8756 0.3416
vn -0.8756 -0.3416 0.3416
vn -0.8756 0.3416 0.3416
vn -0.8756 0.3416 -0.3416
vn -0.8756 -0.3416 -0.3416
vn -0.3416 -0.3416 -0.8756
vn -0.3416 0.3416 -0.8756
vn 0.3416 0.3416 -0.8756
vn 0.3416 -0.3416 -0.8756
vn -0.3416 -0.8756 0.3416
vn -0.4606 0.7588 0.4606
vn -0.4606 -0.7588 -0.4606
vn -0.4606 0.7588 -0.4606
vn 0.3416 -0.8756 0.3416
vn 0.7588 -0.4606 0.4606
vn 0.7588 0.4606 0.4606
vn 0.3416 -0.8756 -0.3416
vn 0.7588 -0.4606 -0.4606
vn 0.7588 0.4606 -0.4606
usemtl hexagons_medieval
s 1
f 92/1/1 91/2/1 52/3/2 53/4/3
f 96/5/4 112/6/4 29/7/4 30/8/4
f 111/9/5 112/10/5 62/11/6 59/12/7
f 103/13/8 87/14/8 11/15/8 12/16/8
f 91/17/9 107/18/9 51/19/9 52/20/9
f 102/21/5 103/22/5 12/23/10 9/24/11
f 96/25/1 95/26/1 60/27/12 61/28/13
f 107/18/14 91/17/14 19/29/14 20/30/14
f 95/31/15 111/32/15 59/33/15 60/34/15
f 87/35/1 86/36/1 10/37/16 11/38/17
f 102/39/18 86/40/18 41/41/18 42/42/18
f 106/43/5 107/44/5 20/45/19 17/46/20
f 101/47/5 102/21/5 42/48/5 39/49/5
f 111/32/21 95/31/21 27/50/21 28/51/21
f 106/52/22 90/53/22 49/54/22 50/55/22
f 86/40/21 102/39/21 9/56/21 10/57/21
f 58/58/23 57/59/23 80/60/23
f 12/16/8 11/15/8 69/61/8
f 55/62/24 58/63/25 80/64/26
f 9/24/11 12/23/10 69/65/27
f 57/66/28 56/67/29 80/64/30
f 11/38/17 10/37/16 69/65/31
f 60/34/32 59/33/32 81/68/32
f 14/69/33 13/70/33 70/71/33
f 97/72/1 96/25/1 30/73/34 31/74/35
f 92/75/36 108/76/36 21/77/36 22/78/36
f 112/10/5 113/79/5 32/80/37 29/81/38
f 93/82/1 92/1/1 22/83/39 23/84/40
f 88/85/41 104/86/41 13/70/41 14/69/41
f 113/87/41 97/88/41 31/89/41 32/90/41
f 100/91/42 83/92/42 3/93/42 4/94/42
f 108/95/5 109/96/5 24/97/5 21/98/5
f 89/99/1 88/100/1 14/101/43 15/102/44
f 84/103/45 99/104/45 5/105/45 6/106/45
f 109/107/45 93/108/45 23/109/45 24/110/45
f 104/111/5 105/112/5 16/113/46 13/114/47
f 85/115/1 84/116/1 6/117/48 7/118/49
f 105/119/4 89/120/4 15/121/4 16/122/4
f 98/123/14 114/124/14 33/125/14 34/126/14
f 99/127/5 101/47/5 8/128/50 5/129/51
f 83/130/1 98/131/1 34/132/52 3/133/53
f 101/134/36 85/135/36 7/136/36 8/137/36
f 94/138/8 110/139/8 25/140/8 26/141/8
f 114/142/5 100/143/5 4/144/5 33/145/5
f 95/26/1 94/146/1 26/147/54 27/148/55
f 90/53/42 106/52/42 17/149/42 18/150/42
f 110/151/5 111/9/5 28/152/56 25/153/57
f 91/2/1 90/154/1 18/155/1 19/156/1
f 33/145/58 4/144/58 67/157/58
f 54/158/59 53/159/59 79/160/59
f 8/137/36 7/136/36 68/161/36
f 3/133/53 34/132/52 67/157/60
f 51/162/61 54/163/62 79/164/63
f 5/129/51 8/128/50 68/165/64
f 35/166/65 38/167/65 75/168/65
f 53/4/3 52/3/2 79/164/66
f 87/14/67 103/13/67 43/169/67 44/170/67
f 112/6/67 96/5/67 61/171/67 62/172/67
f 107/44/5 108/95/5 54/163/62 51/162/61
f 88/100/1 87/35/1 44/173/68 45/174/69
f 84/116/1 83/130/1 35/175/70 36/176/71
f 108/76/59 92/75/59 53/159/59 54/158/59
f 103/22/5 104/111/5 46/177/5 43/178/5
f 100/143/5 99/127/5 37/179/5 38/180/5
f 104/86/15 88/85/15 45/181/15 46/182/15
f 97/88/22 113/87/22 63/183/22 64/184/22
f 83/92/59 100/91/59 38/167/59 35/166/59
f 98/131/1 97/72/1 64/185/72 65/186/73
f 99/104/9 84/103/9 36/187/9 37/188/9
f 93/108/18 109/107/18 55/189/18 56/190/18
f 113/79/5 114/142/5 66/191/5 63/192/5
f 94/146/1 93/82/1 56/67/29 57/66/28
f 89/120/74 105/119/74 47/193/74 48/194/74
f 114/124/74 98/123/74 65/195/74 66/196/74
f 109/96/5 110/151/5 58/63/25 55/62/24
f 90/154/1 89/99/1 48/197/1 49/198/1
f 85/135/23 101/134/23 39/199/23 40/200/23
f 110/139/23 94/138/23 57/59/23 58/58/23
f 105/112/5 106/43/5 50/201/75 47/202/76
f 86/36/1 85/115/1 40/203/1 41/204/1
f 69/61/77 10/57/77 9/56/77
f 18/150/78 17/149/78 71/205/78
f 22/78/79 21/77/79 72/206/79
f 26/141/80 25/140/80 73/207/80
f 30/8/81 29/7/81 74/208/81
f 67/209/82 34/126/82 33/125/82
f 40/200/83 39/199/83 76/210/83
f 44/170/84 43/169/84 77/211/84
f 48/194/85 47/193/85 78/212/85
f 52/20/86 51/19/86 79/160/86
f 80/60/87 56/190/87 55/189/87
f 64/184/88 63/183/88 82/213/88
f 15/102/44 14/101/43 70/214/89
f 61/28/13 60/27/12 81/215/90
f 13/114/47 16/113/46 70/214/91
f 59/12/7 62/11/6 81/215/92
f 36/176/71 35/175/70 75/216/93
f 16/122/4 15/121/4 70/71/4
f 62/172/67 61/171/67 81/68/67
f 38/180/94 37/179/94 75/216/94
f 19/156/95 18/155/95 71/217/95
f 65/186/73 64/185/72 82/218/96
f 37/188/9 36/187/9 75/168/9
f 17/46/20 20/45/19 71/217/97
f 63/192/98 66/191/98 82/218/98
f 20/30/14 19/29/14 71/205/14
f 66/196/74 65/195/74 82/213/74
f 41/204/99 40/203/99 76/219/99
f 39/49/100 42/48/100 76/219/100
f 23/84/40 22/83/39 72/220/101
f 42/42/18 41/41/18 76/210/18
f 21/98/102 24/97/102 72/220/102
f 24/110/45 23/109/45 72/206/45
f 45/174/69 44/173/68 77/221/103
f 43/178/104 46/177/104 77/221/104
f 27/148/55 26/147/54 73/222/105
f 46/182/15 45/181/15 77/211/15
f 25/153/57 28/152/56 73/222/106
f 28/51/21 27/50/21 73/207/21
f 49/198/107 48/197/107 78/223/107
f 47/202/76 50/201/75 78/223/108
f 31/74/35 30/73/34 74/224/109
f 4/94/42 3/93/42 67/209/42
f 50/55/22 49/54/22 78/212/22
f 29/81/38 32/80/37 74/224/110
f 32/80/41 31/74/41 74/224/41
f 7/118/49 6/117/48 68/165/111
f 6/106/112 5/105/112 68/161/112
f 1/225/1 83/226/1 84/227/1
f 1/228/1 84/103/1 85/135/1
f 1/225/1 85/229/1 86/230/1
f 1/228/1 86/40/1 87/14/1
f 1/225/1 87/231/1 88/232/1
f 1/228/1 88/85/1 89/120/1
f 1/225/1 89/233/1 90/234/1
f 1/228/1 90/53/1 91/17/1
f 1/225/1 91/235/1 92/236/1
f 1/228/1 92/75/1 93/108/1
f 1/225/1 93/237/1 94/238/1
f 1/228/1 94/138/1 95/31/1
f 1/225/1 95/239/1 96/240/1
f 1/228/1 96/5/1 97/88/1
f 1/225/1 97/241/1 98/242/1
f 1/228/1 98/123/1 83/92/1
f 2/243/5 99/244/5 100/245/5
f 2/246/5 101/134/5 99/104/5
f 2/243/5 102/247/5 101/248/5
f 2/246/5 103/13/5 102/39/5
f 2/243/5 104/249/5 103/250/5
f 2/246/5 105/119/5 104/86/5
f 2/243/5 106/251/5 105/252/5
f 2/246/5 107/18/5 106/52/5
f 2/243/5 108/253/5 107/254/5
f 2/246/5 109/107/5 108/76/5
f 2/243/5 110/255/5 109/256/5
f 2/246/5 111/32/5 110/139/5
f 2/243/5 112/257/5 111/258/5
f 2/246/5 113/87/5 112/6/5
f 2/243/5 114/259/5 113/260/5
f 2/246/5 100/91/5 114/124/5
f 143/261/8 152/262/8 155/263/8 148/264/8
f 146/265/59 147/266/22 156/267/22 153/268/59
f 150/269/74 151/270/9 144/271/9 141/272/74
f 142/273/41 149/274/41 150/269/74 141/272/74
f 152/275/36 143/276/36 144/277/9 151/278/9
f 154/279/45 145/280/45 146/265/59 153/268/59
f 148/281/4 155/282/4 156/283/22 147/284/22
f 149/285/21 142/286/21 145/287/21 154/288/21
f 131/289/113 133/290/114 120/291/115 118/292/116
f 137/293/1 139/294/1 134/295/1 130/296/1
f 138/297/117 126/298/8 121/299/8 132/300/118
f 119/301/119 122/302/120 128/303/121 124/304/122
f 125/305/123 127/306/124 140/307/125 136/308/126
f 117/309/127 118/292/116 119/301/119
f 120/310/115 121/311/128 122/312/120
f 123/313/129 124/304/122 125/305/123
f 126/314/130 127/315/124 128/316/121
f 129/317/131 130/296/132 131/289/113
f 132/318/118 133/319/114 134/320/133
f 135/321/134 136/308/126 137/293/135
f 138/322/117 139/323/136 140/324/125
f 123/313/129 117/309/127 119/301/119 124/304/122
f 118/325/116 120/326/115 122/327/120 119/328/119
f 121/311/128 126/314/130 128/316/121 122/312/120
f 127/329/124 125/330/123 124/331/122 128/332/121
f 135/321/134 123/313/129 125/305/123 136/308/126
f 126/314/130 138/322/117 140/324/125 127/315/124
f 139/333/136 137/334/135 136/335/126 140/336/125
f 129/317/131 135/321/134 137/293/135 130/296/132
f 138/322/117 132/318/118 134/320/133 139/323/136
f 133/337/114 131/338/113 130/339/132 134/340/133
f 117/309/127 129/317/131 131/289/113 118/292/116
f 132/318/118 121/311/128 120/310/115 133/319/114
f 123/341/21 135/342/134 129/343/131 117/344/127
f 116/345/1 142/286/1 141/272/1
f 116/345/1 144/271/1 143/276/1
f 116/345/1 146/265/1 145/280/1
f 116/345/1 148/264/1 147/284/1
f 116/345/1 145/280/1 142/286/1
f 116/345/1 147/284/1 146/265/1
f 116/345/1 143/276/1 148/264/1
f 116/345/1 141/272/1 144/271/1
f 115/346/5 150/269/5 149/285/5
f 115/346/5 152/262/5 151/278/5
f 115/346/5 154/288/5 153/268/5
f 115/346/5 156/267/5 155/282/5
f 115/346/5 149/285/5 154/288/5
f 115/346/5 153/268/5 156/267/5
f 115/346/5 155/282/5 152/262/5
f 115/346/5 151/278/5 150/269/5
