# Blender v3.4.1 OBJ File: 'Medieval_Hexagons_Export_1.0_WorldOrigin.blend'
# www.blender.org
mtllib barrel.mtl
o barrel
v 0.000000 0.210000 -0.046763
v 0.033067 0.210000 -0.033067
v 0.046763 0.210000 0.000000
v 0.033067 0.210000 0.033067
v -0.000000 0.210000 0.046763
v -0.033067 0.210000 0.033067
v -0.046763 0.210000 -0.000000
v -0.033067 0.210000 -0.033067
v 0.048967 0.210000 -0.048967
v 0.000000 0.210000 -0.069250
v 0.069250 0.210000 0.000000
v 0.048967 0.210000 0.048967
v -0.000000 0.210000 0.069250
v -0.048967 0.210000 0.048967
v -0.069250 0.210000 -0.000000
v -0.048967 0.210000 -0.048967
v 0.000000 0.189000 0.000000
v 0.013847 0.183017 -0.012052
v 0.013847 0.211712 -0.014003
v 0.024284 0.183017 -0.006026
v 0.025974 0.211712 -0.007002
v 0.024284 0.183017 0.006026
v 0.025974 0.211712 0.007002
v 0.013847 0.183017 0.012052
v 0.013847 0.211712 0.014003
v 0.003409 0.183017 0.006026
v 0.001720 0.211712 0.007002
v 0.003409 0.183017 -0.006026
v 0.001720 0.211712 -0.007002
v 0.000000 -0.000000 -0.046763
v 0.033067 -0.000000 -0.033067
v 0.046763 -0.000000 0.000000
v 0.033067 -0.000000 0.033067
v -0.000000 -0.000000 0.046763
v -0.033067 -0.000000 0.033067
v -0.046763 -0.000000 -0.000000
v -0.033067 -0.000000 -0.033067
v 0.026935 0.189000 -0.026931
v 0.000004 0.189000 -0.038086
v 0.038090 0.189000 0.000000
v 0.026935 0.189000 0.026931
v 0.000004 0.189000 0.038086
v -0.026927 0.189000 0.026931
v -0.038082 0.189000 -0.000000
v -0.026927 0.189000 -0.026931
v 0.000000 -0.000000 -0.069250
v 0.048967 -0.000000 -0.048967
v 0.069250 -0.000000 0.000000
v 0.048967 -0.000000 0.048967
v -0.000000 -0.000000 0.069250
v -0.048967 -0.000000 0.048967
v -0.069250 -0.000000 -0.000000
v -0.048967 -0.000000 -0.048967
v 0.000000 0.021000 -0.000000
v 0.000000 0.021000 -0.038932
v 0.027529 0.021000 -0.027529
v 0.038932 0.021000 0.000000
v 0.027529 0.021000 0.027529
v -0.000000 0.021000 0.038932
v -0.027529 0.021000 0.027529
v -0.038932 0.021000 -0.000000
v -0.027529 0.021000 -0.027529
v -0.071233 0.055207 0.071231
v -0.068564 0.033166 0.068563
v -0.068566 0.176826 0.068565
v -0.071234 0.154785 0.071233
v -0.100738 0.055207 -0.000000
v -0.096963 0.033166 -0.000000
v -0.096966 0.176826 -0.000000
v -0.100739 0.154785 -0.000000
v -0.071233 0.055207 -0.071232
v -0.068564 0.033166 -0.068563
v -0.000001 0.033166 -0.096962
v -0.000001 0.055207 -0.100737
v -0.000001 0.154785 -0.100738
v -0.000001 0.176826 -0.096965
v -0.068566 0.176826 -0.068565
v -0.071234 0.154785 -0.071233
v 0.000000 0.179612 -0.084658
v 0.000000 0.150972 -0.094751
v 0.000000 0.059021 -0.094750
v 0.000000 0.030380 -0.084655
v 0.059860 0.030380 -0.059860
v 0.066998 0.059021 -0.066998
v 0.066999 0.150972 -0.066999
v 0.059862 0.179612 -0.059862
v 0.084655 0.030380 0.000000
v 0.094750 0.059021 0.000000
v 0.094751 0.150972 0.000000
v 0.084658 0.179612 0.000000
v 0.059860 0.030380 0.059860
v 0.066998 0.059021 0.066998
v 0.066999 0.150972 0.066999
v 0.059862 0.179612 0.059862
v -0.000000 0.030380 0.084655
v -0.000000 0.059021 0.094750
v -0.000000 0.150972 0.094751
v -0.000000 0.179612 0.084658
v -0.059860 0.030380 0.059860
v -0.066998 0.059021 0.066998
v -0.066999 0.150972 0.066999
v -0.059862 0.179612 0.059862
v -0.084655 0.030380 -0.000000
v -0.094750 0.059021 -0.000000
v -0.094751 0.150972 -0.000000
v -0.084658 0.179612 -0.000000
v -0.059860 0.030380 -0.059860
v -0.066998 0.059021 -0.066998
v -0.066999 0.150972 -0.066999
v -0.059862 0.179612 -0.059862
v -0.000001 0.154785 0.100738
v -0.000001 0.176826 0.096965
v -0.000001 0.033166 0.096962
v -0.000001 0.055207 0.100737
v 0.071232 0.154785 0.071233
v 0.068564 0.176826 0.068565
v 0.068562 0.033166 0.068563
v 0.071230 0.055207 0.071231
v 0.100737 0.154785 -0.000000
v 0.096964 0.176826 -0.000000
v 0.096961 0.033166 -0.000000
v 0.100736 0.055207 -0.000000
v 0.071232 0.154785 -0.071233
v 0.068564 0.176826 -0.068565
v 0.068562 0.033166 -0.068563
v 0.071230 0.055207 -0.071232
vt 0.796567 0.873145
vt 0.801233 0.873145
vt 0.801233 0.866066
vt 0.796567 0.866066
vt 0.795815 0.802354
vt 0.795013 0.812596
vt 0.812500 0.812596
vt 0.812500 0.802354
vt 0.786846 0.822251
vt 0.794111 0.822251
vt 0.794111 0.853247
vt 0.786846 0.853247
vt 0.794609 0.869126
vt 0.812148 0.869126
vt 0.812148 0.900122
vt 0.794608 0.900122
vt 0.812852 0.822251
vt 0.830392 0.822251
vt 0.830392 0.853247
vt 0.812852 0.853247
vt 0.830889 0.869126
vt 0.838154 0.869126
vt 0.838155 0.900122
vt 0.830889 0.900122
vt 0.838154 0.822251
vt 0.830889 0.822251
vt 0.830889 0.853247
vt 0.838155 0.853247
vt 0.812852 0.900122
vt 0.830392 0.900122
vt 0.830392 0.869126
vt 0.812852 0.869126
vt 0.279388 0.915777
vt 0.296875 0.915777
vt 0.296523 0.906123
vt 0.278983 0.906123
vt 0.795013 0.862902
vt 0.795815 0.873145
vt 0.812500 0.873145
vt 0.812500 0.862902
vt 0.812500 0.951270
vt 0.823769 0.951270
vt 0.829185 0.951270
vt 0.812500 0.951270
vt 0.823769 0.904395
vt 0.828435 0.904395
vt 0.836097 0.904395
vt 0.829185 0.904395
vt 0.828435 0.951270
vt 0.823769 0.951270
vt 0.829185 0.951270
vt 0.836097 0.951270
vt 0.823769 0.904395
vt 0.812500 0.904395
vt 0.812500 0.904395
vt 0.829185 0.904395
vt 0.812500 0.951270
vt 0.801233 0.951270
vt 0.795815 0.951270
vt 0.812500 0.951270
vt 0.801233 0.904395
vt 0.796567 0.904395
vt 0.788905 0.904395
vt 0.795815 0.904395
vt 0.796567 0.951270
vt 0.801233 0.951270
vt 0.795815 0.951270
vt 0.788905 0.951270
vt 0.801233 0.904395
vt 0.812500 0.904395
vt 0.812500 0.904395
vt 0.795815 0.904395
vt 0.812500 0.873145
vt 0.823769 0.873145
vt 0.823769 0.866066
vt 0.812500 0.866066
vt 0.828435 0.873145
vt 0.823769 0.873145
vt 0.823769 0.866066
vt 0.828435 0.866066
vt 0.801233 0.920020
vt 0.796567 0.920020
vt 0.796567 0.912941
vt 0.801233 0.912941
vt 0.801233 0.920020
vt 0.812500 0.920020
vt 0.812500 0.912941
vt 0.801233 0.912941
vt 0.823769 0.920020
vt 0.828435 0.920020
vt 0.828435 0.912941
vt 0.823769 0.912941
vt 0.823769 0.920020
vt 0.812500 0.920020
vt 0.812500 0.912941
vt 0.823769 0.912941
vt 0.812500 0.873145
vt 0.801233 0.873145
vt 0.801233 0.866066
vt 0.812500 0.866066
vt 0.676594 0.944191
vt 0.676594 0.950088
vt 0.681704 0.950088
vt 0.682062 0.944191
vt 0.681704 0.950088
vt 0.682062 0.944191
vt 0.676594 0.950088
vt 0.676594 0.944191
vt 0.671485 0.950088
vt 0.671127 0.944191
vt 0.676594 0.981338
vt 0.671485 0.981338
vt 0.671485 0.981338
vt 0.676594 0.981338
vt 0.671485 0.950088
vt 0.671127 0.944191
vt 0.812500 0.849229
vt 0.823767 0.849229
vt 0.823767 0.849229
vt 0.812500 0.849229
vt 0.796875 0.950191
vt 0.808144 0.950191
vt 0.796875 0.950191
vt 0.812810 0.950191
vt 0.808144 0.950191
vt 0.796875 0.950191
vt 0.785608 0.950191
vt 0.780942 0.950191
vt 0.785608 0.950191
vt 0.823767 0.817979
vt 0.812500 0.817979
vt 0.812500 0.817979
vt 0.829185 0.817979
vt 0.828434 0.771104
vt 0.823767 0.771104
vt 0.829185 0.771104
vt 0.836097 0.771104
vt 0.823767 0.817979
vt 0.828434 0.817979
vt 0.836097 0.817979
vt 0.829185 0.817979
vt 0.812500 0.771104
vt 0.823767 0.771104
vt 0.829185 0.771104
vt 0.812500 0.771104
vt 0.801233 0.817979
vt 0.812500 0.817979
vt 0.812500 0.817979
vt 0.795815 0.817979
vt 0.796567 0.771104
vt 0.801233 0.771104
vt 0.795815 0.771104
vt 0.788905 0.771104
vt 0.801233 0.817979
vt 0.796567 0.817979
vt 0.788905 0.817979
vt 0.795815 0.817979
vt 0.812500 0.771104
vt 0.801233 0.771104
vt 0.795815 0.771104
vt 0.812500 0.771104
vt 0.801233 0.802354
vt 0.812500 0.802354
vt 0.812500 0.802354
vt 0.801233 0.802354
vt 0.801233 0.802354
vt 0.796567 0.802354
vt 0.796567 0.802354
vt 0.801233 0.802354
vt 0.823767 0.802354
vt 0.812500 0.802354
vt 0.812500 0.802354
vt 0.823767 0.802354
vt 0.823767 0.802354
vt 0.828434 0.802354
vt 0.828434 0.802354
vt 0.823767 0.802354
vt 0.796567 0.849229
vt 0.801233 0.849229
vt 0.801233 0.849229
vt 0.796567 0.849229
vt 0.812500 0.849229
vt 0.801233 0.849229
vt 0.801233 0.849229
vt 0.812500 0.849229
vt 0.828434 0.849229
vt 0.823767 0.849229
vt 0.823767 0.849229
vt 0.828434 0.849229
vt 0.796875 0.886480
vt 0.796875 0.886480
vt 0.808142 0.886480
vt 0.804462 0.886480
vt 0.812809 0.886480
vt 0.807604 0.886480
vt 0.808142 0.886480
vt 0.796875 0.886480
vt 0.785608 0.886480
vt 0.789289 0.886480
vt 0.780942 0.886480
vt 0.786146 0.886480
vt 0.785608 0.886480
vt 0.812500 0.849229
vt 0.812500 0.859471
vt 0.829987 0.859471
vt 0.829185 0.849229
vt 0.787770 0.909777
vt 0.788905 0.920020
vt 0.795815 0.920020
vt 0.795013 0.909777
vt 0.788905 0.849229
vt 0.787770 0.859471
vt 0.795013 0.859471
vt 0.795815 0.849229
vt 0.795013 0.862902
vt 0.795815 0.873145
vt 0.788905 0.873145
vt 0.787770 0.862902
vt 0.795815 0.802354
vt 0.795013 0.812596
vt 0.787771 0.812596
vt 0.788905 0.802354
vt 0.812500 0.909777
vt 0.812500 0.920020
vt 0.795815 0.920020
vt 0.795013 0.909777
vt 0.812500 0.849229
vt 0.812500 0.859471
vt 0.795013 0.859471
vt 0.795815 0.849229
vt 0.829987 0.862902
vt 0.829185 0.873145
vt 0.812500 0.873145
vt 0.812500 0.862902
vt 0.829185 0.802354
vt 0.829987 0.812596
vt 0.812500 0.812596
vt 0.812500 0.802354
vt 0.837231 0.909777
vt 0.836097 0.920020
vt 0.829185 0.920020
vt 0.829987 0.909777
vt 0.836097 0.849229
vt 0.837231 0.859471
vt 0.829987 0.859471
vt 0.829185 0.849229
vt 0.829987 0.862902
vt 0.829185 0.873145
vt 0.836097 0.873145
vt 0.837231 0.862902
vt 0.829185 0.802354
vt 0.829987 0.812596
vt 0.837231 0.812596
vt 0.836097 0.802354
vt 0.812500 0.909777
vt 0.812500 0.920020
vt 0.829185 0.920020
vt 0.829987 0.909777
vt 0.794111 0.900122
vt 0.794111 0.869126
vt 0.786846 0.869126
vt 0.786846 0.900122
vt 0.314362 0.947027
vt 0.296875 0.947027
vt 0.296875 0.947027
vt 0.314362 0.947027
vt 0.322530 0.874873
vt 0.315264 0.874873
vt 0.315264 0.874873
vt 0.322530 0.874873
vt 0.271221 0.953251
vt 0.278486 0.953251
vt 0.278486 0.953251
vt 0.271221 0.953251
vt 0.314362 0.947027
vt 0.321606 0.947027
vt 0.321606 0.947027
vt 0.314362 0.947027
vt 0.296523 0.953251
vt 0.278984 0.953251
vt 0.278984 0.953251
vt 0.296523 0.953251
vt 0.279388 0.881096
vt 0.272145 0.881096
vt 0.272145 0.881096
vt 0.279388 0.881096
vt 0.322529 0.953251
vt 0.315264 0.953251
vt 0.315264 0.953251
vt 0.322529 0.953251
vt 0.278486 0.874873
vt 0.271221 0.874873
vt 0.271221 0.874873
vt 0.278486 0.874873
vt 0.279388 0.881096
vt 0.296875 0.881096
vt 0.296875 0.881096
vt 0.279388 0.881096
vt 0.272145 0.947027
vt 0.279388 0.947027
vt 0.279388 0.947027
vt 0.272145 0.947027
vt 0.278983 0.874873
vt 0.296523 0.874873
vt 0.296523 0.874873
vt 0.278983 0.874873
vt 0.314362 0.881096
vt 0.321606 0.881096
vt 0.321606 0.881096
vt 0.314362 0.881096
vt 0.279388 0.947027
vt 0.279388 0.947027
vt 0.315264 0.874873
vt 0.315264 0.874873
vt 0.278983 0.953251
vt 0.296523 0.953251
vt 0.296523 0.953251
vt 0.278983 0.953251
vt 0.297227 0.953251
vt 0.314767 0.953251
vt 0.314767 0.953251
vt 0.297227 0.953251
vt 0.296875 0.912346
vt 0.279388 0.912346
vt 0.278983 0.922001
vt 0.296523 0.922001
vt 0.272145 0.915777
vt 0.278486 0.906123
vt 0.271221 0.906123
vt 0.272145 0.912346
vt 0.271221 0.922001
vt 0.278486 0.922001
vt 0.279388 0.915777
vt 0.278486 0.906123
vt 0.279388 0.912346
vt 0.278486 0.922001
vt 0.296875 0.915777
vt 0.278983 0.906123
vt 0.296523 0.906123
vt 0.296875 0.912346
vt 0.296523 0.922001
vt 0.278984 0.922001
vt 0.314362 0.915777
vt 0.297227 0.906123
vt 0.314767 0.906123
vt 0.314362 0.912346
vt 0.314767 0.922001
vt 0.297227 0.922001
vt 0.321606 0.915777
vt 0.315264 0.906123
vt 0.322530 0.906123
vt 0.321606 0.912346
vt 0.322529 0.922001
vt 0.315264 0.922001
vt 0.314362 0.915777
vt 0.315264 0.906123
vt 0.314362 0.912346
vt 0.315264 0.922001
vt 0.314767 0.906123
vt 0.297227 0.906123
vt 0.297227 0.922001
vt 0.314767 0.922001
vt 0.314362 0.881096
vt 0.314362 0.881096
vt 0.296875 0.947027
vt 0.296875 0.947027
vt 0.297227 0.874873
vt 0.314767 0.874873
vt 0.314767 0.874873
vt 0.297227 0.874873
vt 0.278486 0.874873
vt 0.278486 0.874873
vt 0.315264 0.953251
vt 0.315264 0.953251
vt 0.296523 0.874873
vt 0.278983 0.874873
vt 0.278983 0.874873
vt 0.296523 0.874873
vt 0.314767 0.953251
vt 0.297227 0.953251
vt 0.297227 0.953251
vt 0.314767 0.953251
vt 0.314767 0.874873
vt 0.297227 0.874873
vt 0.297227 0.874873
vt 0.314767 0.874873
vt 0.296875 0.881096
vt 0.296875 0.881096
vt 0.278486 0.953251
vt 0.278486 0.953251
vt 0.681704 0.981338
vt 0.681704 0.981338
vt 0.794608 0.853247
vt 0.812148 0.853247
vt 0.812148 0.822251
vt 0.794608 0.822251
vn 0.9242 0.3820 0.0000
vn 0.6535 0.3820 -0.6535
vn -0.6307 -0.4523 -0.6307
vn -0.0000 -0.4523 -0.8919
vn -1.0000 -0.0000 0.0000
vn -0.7071 -0.0000 0.7071
vn -0.0000 -0.0000 1.0000
vn 0.7071 -0.0000 0.7071
vn 1.0000 -0.0000 0.0000
vn 0.9239 -0.0000 -0.3827
vn -0.0000 -0.0000 -1.0000
vn 0.3827 -0.0000 -0.9239
vn -0.6970 0.1687 -0.6970
vn -0.0000 0.1687 -0.9857
vn -0.6307 0.4522 -0.6307
vn 0.0000 0.4522 -0.8919
vn 0.0000 1.0000 0.0000
vn 0.0000 0.3819 -0.9242
vn -0.6535 0.3818 -0.6536
vn -0.6536 0.3818 -0.6535
vn -0.9243 0.3817 -0.0000
vn -0.6535 0.3818 0.6536
vn -0.6536 0.3818 0.6535
vn 0.6535 0.3820 0.6535
vn 0.0000 0.3819 0.9242
vn 0.4991 -0.0588 -0.8645
vn 0.9983 -0.0588 0.0000
vn 0.4991 -0.0588 0.8645
vn -0.4991 -0.0588 0.8645
vn -0.9983 -0.0588 0.0000
vn -0.4991 -0.0588 -0.8645
vn 0.0000 -0.3494 0.9370
vn -0.6625 -0.3494 0.6625
vn 0.0000 -1.0000 0.0000
vn 0.6625 -0.3494 0.6625
vn 0.6625 -0.3494 -0.6625
vn 0.9370 -0.3494 -0.0000
vn -0.6625 -0.3494 -0.6625
vn 0.0000 -0.3494 -0.9370
vn -0.9370 -0.3494 -0.0000
vn 0.6307 -0.4523 -0.6307
vn -0.8919 0.4522 0.0000
vn -0.8919 -0.4523 0.0000
vn -0.6307 0.4522 0.6307
vn -0.6307 -0.4523 0.6307
vn -0.0000 0.4522 0.8919
vn -0.0000 -0.4523 0.8919
vn 0.6307 0.4522 0.6307
vn 0.6307 -0.4523 0.6307
vn 0.8919 0.4522 0.0000
vn 0.8919 -0.4523 0.0000
vn 0.6307 0.4522 -0.6307
vn -0.7071 -0.0000 -0.7071
vn 0.1561 0.9753 0.1561
vn 0.0000 0.9753 0.2208
vn 0.5373 -0.8434 0.0000
vn 0.3799 -0.8434 -0.3799
vn -0.5372 0.8435 0.0000
vn -0.3798 0.8435 -0.3799
vn -0.3799 0.8435 -0.3798
vn 0.1561 0.9753 -0.1561
vn 0.2208 0.9753 0.0000
vn 0.0000 0.8434 0.5372
vn -0.3798 0.8435 0.3799
vn -0.3799 0.8435 0.3798
vn -0.1561 -0.9753 -0.1561
vn -0.2208 -0.9753 0.0000
vn 0.5373 0.8434 0.0000
vn 0.3799 0.8434 0.3799
vn -0.3798 -0.8435 -0.3799
vn -0.5372 -0.8435 0.0000
vn -0.3798 -0.8435 -0.3798
vn -0.1561 -0.9753 0.1561
vn 0.0000 -0.9753 0.2208
vn -0.2208 0.9753 0.0000
vn -0.1561 0.9753 -0.1561
vn -0.3798 -0.8435 0.3799
vn 0.0000 -0.8434 0.5372
vn -0.3799 -0.8435 0.3798
vn 0.1561 -0.9753 0.1561
vn 0.2208 -0.9753 0.0000
vn -0.1561 0.9753 0.1561
vn 0.3799 -0.8434 0.3799
vn 0.0000 0.8434 -0.5372
vn 0.3799 0.8434 -0.3799
vn -0.0000 -0.1688 -0.9857
vn -0.6970 -0.1688 -0.6970
vn -0.9857 0.1687 -0.0000
vn -0.9857 -0.1688 0.0000
vn -0.6970 0.1687 0.6970
vn -0.6970 -0.1688 0.6970
vn -0.0000 0.1687 0.9857
vn -0.0000 -0.1688 0.9857
vn 0.6970 0.1687 0.6970
vn 0.6970 -0.1688 0.6970
vn 0.9857 0.1687 0.0000
vn 0.9857 -0.1688 0.0000
vn 0.6970 0.1687 -0.6970
vn 0.6970 -0.1688 -0.6970
vn 0.1561 -0.9753 -0.1561
vn 0.0000 0.9753 -0.2208
vn 0.0000 -0.8434 -0.5372
vn 0.0000 -0.9753 -0.2208
usemtl hexagons_medieval
s 1
f 7/1/1 6/2/2 43/3/2 44/4/1
f 53/5/3 107/6/3 82/7/4 46/8/4
f 104/9/5 100/10/6 101/11/6 105/12/5
f 100/13/6 96/14/7 97/15/7 101/16/6
f 96/17/7 92/18/8 93/19/8 97/20/7
f 92/21/8 88/22/9 89/23/9 93/24/8
f 88/25/9 84/26/10 85/27/10 89/28/9
f 80/29/11 85/30/12 84/31/12 81/32/11
f 77/33/13 76/34/14 75/35/14 78/36/13
f 110/37/15 16/38/15 10/39/16 79/40/16
f 1/41/17 2/42/17 9/43/17 10/44/17
f 2/45/17 3/46/17 11/47/17 9/48/17
f 3/49/17 4/50/17 12/51/17 11/52/17
f 4/53/17 5/54/17 13/55/17 12/56/17
f 5/57/17 6/58/17 14/59/17 13/60/17
f 6/61/17 7/62/17 15/63/17 14/64/17
f 7/65/17 8/66/17 16/67/17 15/68/17
f 8/69/17 1/70/17 10/71/17 16/72/17
f 5/73/18 4/74/19 41/75/20 42/76/18
f 3/77/21 2/78/22 38/79/23 40/80/21
f 8/81/24 7/82/1 44/83/1 45/84/24
f 6/85/2 5/86/18 42/87/18 43/88/2
f 4/89/19 3/90/21 40/91/21 41/92/20
f 2/93/22 1/94/25 39/95/25 38/96/23
f 1/97/25 8/98/24 45/99/24 39/100/25
f 18/101/26 19/102/26 21/103/26 20/104/26
f 20/104/27 21/103/27 23/105/27 22/106/27
f 22/106/28 23/105/28 25/107/28 24/108/28
f 24/108/29 25/107/29 27/109/29 26/110/29
f 19/111/17 29/112/17 27/113/17 25/114/17
f 26/110/30 27/109/30 29/115/30 28/116/30
f 28/116/31 29/115/31 19/102/31 18/101/31
f 30/117/32 31/118/33 56/119/33 55/120/32
f 17/121/17 38/122/17 39/123/17
f 17/121/17 40/124/17 38/122/17
f 17/121/17 41/125/17 40/124/17
f 17/121/17 42/126/17 41/125/17
f 17/121/17 43/127/17 42/126/17
f 17/121/17 44/128/17 43/127/17
f 17/121/17 45/129/17 44/128/17
f 17/121/17 39/123/17 45/129/17
f 31/130/34 30/131/34 46/132/34 47/133/34
f 32/134/34 31/135/34 47/136/34 48/137/34
f 33/138/34 32/139/34 48/140/34 49/141/34
f 34/142/34 33/143/34 49/144/34 50/145/34
f 35/146/34 34/147/34 50/148/34 51/149/34
f 36/150/34 35/151/34 51/152/34 52/153/34
f 37/154/34 36/155/34 52/156/34 53/157/34
f 30/158/34 37/159/34 53/160/34 46/161/34
f 37/162/35 30/163/32 55/164/32 62/165/35
f 35/166/36 36/167/37 61/168/37 60/169/36
f 33/170/38 34/171/39 59/172/39 58/173/38
f 31/174/33 32/175/40 57/176/40 56/177/33
f 36/178/37 37/179/35 62/180/35 61/181/37
f 34/182/39 35/183/36 60/184/36 59/185/39
f 32/186/40 33/187/38 58/188/38 57/189/40
f 54/190/34 55/191/34 56/192/34
f 54/193/34 56/192/34 57/194/34
f 54/195/34 57/194/34 58/196/34
f 54/193/34 58/196/34 59/197/34
f 54/190/34 59/197/34 60/198/34
f 54/199/34 60/198/34 61/200/34
f 54/201/34 61/200/34 62/202/34
f 54/199/34 62/202/34 55/191/34
f 46/203/4 82/204/4 83/205/41 47/206/41
f 106/207/42 15/208/42 16/209/15 110/210/15
f 52/211/43 103/212/43 107/213/3 53/214/3
f 102/215/44 14/216/44 15/217/42 106/218/42
f 51/219/45 99/220/45 103/221/43 52/222/43
f 98/223/46 13/224/46 14/225/44 102/226/44
f 50/227/47 95/228/47 99/229/45 51/230/45
f 94/231/48 12/232/48 13/233/46 98/234/46
f 49/235/49 91/236/49 95/237/47 50/238/47
f 90/239/50 11/240/50 12/241/48 94/242/48
f 48/243/51 87/244/51 91/245/49 49/246/49
f 86/247/52 9/248/52 11/249/50 90/250/50
f 47/251/41 83/252/41 87/253/51 48/254/51
f 79/255/16 10/256/16 9/257/52 86/258/52
f 109/259/53 108/260/53 104/261/5 105/262/5
f 94/263/54 98/264/55 112/265/55 116/266/54
f 89/267/56 85/268/57 123/269/57 119/270/56
f 104/271/58 108/272/59 71/273/60 67/274/58
f 86/275/61 90/276/62 120/277/62 124/278/61
f 96/279/63 100/280/64 63/281/65 114/282/63
f 107/283/66 103/284/67 68/285/67 72/286/66
f 88/287/68 92/288/69 118/289/69 122/290/68
f 109/291/70 105/292/71 70/293/71 78/294/72
f 99/295/73 95/296/74 113/297/74 64/298/73
f 106/299/75 110/300/76 77/301/76 69/302/75
f 101/303/77 97/304/78 111/305/78 66/306/79
f 91/307/80 87/308/81 121/309/81 117/310/80
f 98/264/55 102/311/82 65/312/82 112/265/55
f 93/313/83 89/267/56 119/270/56 115/314/83
f 108/315/59 81/316/84 74/317/84 71/318/60
f 81/319/84 84/320/85 126/321/85 74/322/84
f 73/323/86 72/324/87 71/325/87 74/326/86
f 69/327/88 77/33/13 78/328/13 70/329/88
f 72/324/87 68/330/89 67/331/89 71/332/87
f 65/333/90 69/327/88 70/329/88 66/334/90
f 68/330/89 64/335/91 63/336/91 67/331/89
f 112/337/92 65/333/90 66/338/90 111/339/92
f 64/335/91 113/340/93 114/341/93 63/342/91
f 116/343/94 112/337/92 111/344/92 115/345/94
f 113/340/93 117/346/95 118/347/95 114/348/93
f 120/349/96 116/343/94 115/350/94 119/351/96
f 117/346/95 121/352/97 122/353/97 118/354/95
f 124/355/98 120/349/96 119/351/96 123/356/98
f 121/352/97 125/357/99 126/358/99 122/353/97
f 76/34/14 124/355/98 123/359/98 75/360/14
f 125/357/99 73/323/86 74/361/86 126/362/99
f 87/308/81 83/363/100 125/364/100 121/309/81
f 110/300/76 79/365/101 76/366/101 77/301/76
f 97/367/78 93/368/83 115/369/83 111/370/78
f 102/311/82 106/299/75 69/302/75 65/312/82
f 95/296/74 91/307/80 117/310/80 113/297/74
f 105/292/71 101/371/77 66/372/79 70/293/71
f 84/373/85 88/287/68 122/290/68 126/374/85
f 80/375/102 109/376/70 78/377/72 75/378/102
f 103/284/67 99/295/73 64/298/73 68/285/67
f 79/365/101 86/275/61 124/278/61 76/366/101
f 92/379/69 96/380/63 114/381/63 118/382/69
f 85/383/57 80/384/102 75/385/102 123/386/57
f 82/387/103 107/283/66 72/286/66 73/388/103
f 100/389/64 104/271/58 67/274/58 63/390/65
f 83/363/100 82/387/103 73/388/103 125/364/100
f 90/276/62 94/263/54 116/266/54 120/277/62
f 21/391/17 19/111/17 25/114/17 23/392/17
f 109/393/53 80/394/11 81/395/11 108/396/53
