# Blender v3.4.1 OBJ File: 'Medieval_Hexagons_Export_1.0_WorldOrigin.blend'
# www.blender.org
mtllib bucket_arrows.mtl
o bucket_arrows
v 0.000000 0.000002 -0.000000
v 0.019754 0.125002 -0.047689
v 0.047689 0.125002 -0.019754
v 0.047689 0.125002 0.019754
v 0.019754 0.125002 0.047689
v -0.019754 0.125002 0.047689
v -0.047689 0.125002 0.019754
v -0.047689 0.125002 -0.019754
v -0.019754 0.125002 -0.047689
v 0.065382 0.125002 -0.027082
v 0.027082 0.125002 -0.065382
v 0.065382 0.125002 0.027082
v 0.027082 0.125002 0.065382
v -0.027082 0.125002 0.065381
v -0.065382 0.125002 0.027082
v -0.065382 0.125002 -0.027082
v -0.027082 0.125002 -0.065382
v 0.000000 0.017004 -0.000000
v 0.024073 0.048002 -0.058117
v 0.025577 0.087002 -0.061749
v 0.061749 0.087002 -0.025577
v 0.058117 0.048002 -0.024073
v 0.061749 0.087002 0.025577
v 0.058117 0.048002 0.024073
v 0.025577 0.087002 0.061749
v 0.024073 0.048002 0.058117
v -0.025577 0.087002 0.061749
v -0.024073 0.048002 0.058117
v -0.061749 0.087002 0.025577
v -0.058117 0.048002 0.024073
v -0.061749 0.087002 -0.025577
v -0.058117 0.048002 -0.024073
v -0.025577 0.087002 -0.061749
v -0.024073 0.048002 -0.058117
v 0.027289 0.052662 -0.065882
v 0.028995 0.082339 -0.070000
v 0.070000 0.082339 -0.028995
v 0.065882 0.052662 -0.027289
v 0.070000 0.082339 0.028995
v 0.065882 0.052662 0.027289
v 0.028995 0.082339 0.070000
v 0.027289 0.052662 0.065882
v -0.028995 0.082339 0.070000
v -0.027289 0.052662 0.065882
v -0.070000 0.082339 0.028995
v -0.065882 0.052662 0.027289
v -0.070000 0.082339 -0.028995
v -0.065882 0.052662 -0.027289
v -0.028995 0.082339 -0.070000
v -0.027289 0.052662 -0.065882
v 0.040251 0.017004 -0.016673
v 0.016673 0.017004 -0.040251
v 0.040251 0.017004 0.016673
v 0.016673 0.017004 0.040251
v -0.016673 0.017004 0.040251
v -0.040251 0.017004 0.016673
v -0.040251 0.017004 -0.016673
v -0.016673 0.017004 -0.040251
v 0.022568 0.000002 -0.054485
v 0.054485 0.000002 -0.022568
v 0.054485 0.000002 0.022568
v 0.022568 0.000002 0.054485
v -0.022568 0.000002 0.054485
v -0.054485 0.000002 0.022568
v -0.054485 0.000002 -0.022568
v -0.022568 0.000002 -0.054485
v 0.008829 0.048725 -0.007135
v 0.012669 0.048725 -0.014436
v 0.014347 0.048725 -0.001002
v 0.022113 0.048725 -0.008793
v 0.032575 0.209577 -0.010100
v 0.038378 0.208566 -0.017646
v 0.045859 0.207554 -0.011758
v 0.040056 0.208566 -0.004212
v 0.032607 0.162603 -0.007853
v 0.038162 0.199655 -0.008546
v 0.032053 0.162603 -0.012285
v 0.037609 0.199655 -0.012979
v 0.057089 0.210932 -0.013161
v 0.051533 0.173880 -0.012467
v 0.017290 0.179095 -0.008191
v 0.022845 0.216147 -0.008885
v -0.020847 0.048725 -0.016455
v -0.016362 0.048725 -0.025654
v -0.008577 0.048725 -0.014774
v -0.010222 0.048725 -0.024507
v -0.057924 0.203857 -0.019688
v -0.056504 0.203999 -0.029155
v -0.047300 0.206219 -0.027741
v -0.048719 0.206078 -0.018275
v -0.040564 0.160171 -0.020984
v -0.049238 0.196617 -0.021740
v -0.043132 0.159485 -0.024573
v -0.051807 0.195932 -0.025330
v -0.040079 0.212976 -0.034198
v -0.031405 0.176529 -0.033442
v -0.058792 0.170441 -0.012683
v -0.067467 0.206888 -0.013439
v 0.011638 0.042029 -0.008253
v 0.004865 0.039074 -0.002997
v 0.004895 0.044151 -0.015524
v -0.001815 0.040629 -0.008850
v -0.007934 0.202063 0.066520
v -0.014634 0.198481 0.072346
v -0.021391 0.200695 0.065935
v -0.014692 0.204277 0.060110
v -0.009570 0.160589 0.044411
v -0.013687 0.194242 0.060371
v -0.009551 0.158677 0.048448
v -0.013668 0.192330 0.064408
v -0.032564 0.204133 0.067616
v -0.028448 0.170479 0.051656
v 0.006242 0.174008 0.053165
v 0.002125 0.207661 0.069124
v 0.007715 0.048725 0.015595
v 0.015909 0.048725 0.016554
v 0.003975 0.048725 0.022948
v 0.014038 0.048725 0.027395
v 0.019017 0.209577 0.036689
v 0.028145 0.208566 0.039392
v 0.025339 0.207554 0.048489
v 0.016211 0.208566 0.045786
v 0.016931 0.162603 0.037525
v 0.019575 0.199655 0.042460
v 0.020869 0.162603 0.035416
v 0.023513 0.199655 0.040351
v 0.030684 0.210932 0.058464
v 0.028040 0.173880 0.053529
v 0.011742 0.179095 0.023111
v 0.014386 0.216147 0.028046
v -0.000689 0.048725 -0.019707
v 0.007712 0.048725 -0.013862
v -0.004236 0.048725 -0.007842
v 0.005635 0.048725 -0.007971
v 0.008206 0.203857 -0.055847
v 0.017341 0.203999 -0.052989
v 0.014530 0.206219 -0.044111
v 0.005394 0.206078 -0.046969
v 0.006817 0.160171 -0.038494
v 0.008898 0.196617 -0.046949
v 0.010759 0.159485 -0.040480
v 0.012840 0.195932 -0.048935
v 0.019800 0.212976 -0.035984
v 0.017719 0.176529 -0.027528
v 0.001417 0.170441 -0.057781
v 0.003498 0.206888 -0.066237
v -0.016271 0.048725 0.012685
v -0.025229 0.048725 0.014089
v -0.017970 0.048725 0.002687
v -0.027693 0.048725 0.005415
v -0.020894 0.226206 0.020694
v -0.030234 0.225832 0.022760
v -0.032315 0.226240 0.013424
v -0.022975 0.226613 0.011358
v -0.024069 0.179945 0.012851
v -0.025150 0.217356 0.014725
v -0.026464 0.179688 0.016613
v -0.027545 0.217098 0.018487
v -0.041474 0.231289 0.007938
v -0.040393 0.193879 0.006064
v -0.010950 0.193791 0.024805
v -0.012032 0.231201 0.026678
vt 0.812500 0.852751
vt 0.812500 0.866653
vt 0.841996 0.866653
vt 0.840357 0.852751
vt 0.840357 0.884001
vt 0.841996 0.897903
vt 0.854213 0.897903
vt 0.851896 0.884001
vt 0.851896 0.852751
vt 0.854213 0.866653
vt 0.841996 0.866653
vt 0.840357 0.852751
vt 0.840357 0.884001
vt 0.841996 0.897903
vt 0.812500 0.897903
vt 0.812500 0.884001
vt 0.812500 0.852751
vt 0.812500 0.866653
vt 0.783004 0.866653
vt 0.784643 0.852751
vt 0.784643 0.884001
vt 0.783004 0.897903
vt 0.770787 0.897903
vt 0.773104 0.884001
vt 0.834014 0.866653
vt 0.842926 0.866653
vt 0.838180 0.884004
vt 0.830659 0.884004
vt 0.773104 0.852751
vt 0.770787 0.866653
vt 0.783004 0.866653
vt 0.784643 0.852751
vt 0.784643 0.884001
vt 0.783004 0.897903
vt 0.812500 0.897903
vt 0.812500 0.884001
vt 0.812500 0.897903
vt 0.834014 0.897903
vt 0.834014 0.929153
vt 0.842926 0.929153
vt 0.854213 0.929153
vt 0.841996 0.929153
vt 0.842926 0.897903
vt 0.834014 0.897903
vt 0.834014 0.929153
vt 0.812500 0.929153
vt 0.812500 0.929153
vt 0.841996 0.929153
vt 0.812500 0.897903
vt 0.790986 0.897903
vt 0.790986 0.929153
vt 0.782074 0.929153
vt 0.770787 0.929153
vt 0.783004 0.929153
vt 0.834014 0.866653
vt 0.812500 0.866653
vt 0.812500 0.884004
vt 0.830659 0.884004
vt 0.790986 0.897903
vt 0.794341 0.915254
vt 0.812500 0.915254
vt 0.782074 0.897903
vt 0.794341 0.915254
vt 0.786820 0.915254
vt 0.830659 0.915254
vt 0.812500 0.915254
vt 0.830659 0.915254
vt 0.838180 0.915254
vt 0.790986 0.866653
vt 0.782074 0.866653
vt 0.786820 0.884004
vt 0.794341 0.884004
vt 0.790986 0.866653
vt 0.812500 0.866653
vt 0.812500 0.884004
vt 0.794341 0.884004
vt 0.787920 0.845763
vt 0.786282 0.859668
vt 0.812500 0.859668
vt 0.812500 0.845763
vt 0.328275 0.850043
vt 0.312500 0.850043
vt 0.312500 0.852358
vt 0.330383 0.852358
vt 0.777739 0.814513
vt 0.775422 0.828418
vt 0.786282 0.828418
vt 0.787920 0.814513
vt 0.296725 0.850043
vt 0.312500 0.850043
vt 0.312500 0.852358
vt 0.294617 0.852358
vt 0.787920 0.845763
vt 0.786282 0.859668
vt 0.775422 0.859668
vt 0.777739 0.845763
vt 0.329261 0.936876
vt 0.336204 0.936876
vt 0.339371 0.934559
vt 0.331501 0.934559
vt 0.812500 0.814513
vt 0.812500 0.828418
vt 0.786282 0.828418
vt 0.787920 0.814513
vt 0.295739 0.936876
vt 0.288796 0.936876
vt 0.285629 0.934559
vt 0.293500 0.934559
vt 0.837080 0.845763
vt 0.838718 0.859668
vt 0.812500 0.859668
vt 0.812500 0.845763
vt 0.334809 0.850043
vt 0.337790 0.852358
vt 0.847261 0.814513
vt 0.849578 0.828418
vt 0.838718 0.828418
vt 0.837080 0.814513
vt 0.290191 0.850043
vt 0.287210 0.852358
vt 0.837080 0.845763
vt 0.838718 0.859668
vt 0.849578 0.859668
vt 0.847261 0.845763
vt 0.329261 0.936876
vt 0.331501 0.934559
vt 0.812500 0.814513
vt 0.812500 0.828418
vt 0.838718 0.828418
vt 0.837080 0.814513
vt 0.295739 0.936876
vt 0.293500 0.934559
vt 0.294617 0.883608
vt 0.293500 0.903309
vt 0.312500 0.903309
vt 0.312500 0.883608
vt 0.287210 0.883608
vt 0.285629 0.903309
vt 0.294617 0.883608
vt 0.293500 0.903309
vt 0.312500 0.883608
vt 0.312500 0.903309
vt 0.330383 0.883608
vt 0.331501 0.903309
vt 0.337790 0.883608
vt 0.339371 0.903309
vt 0.330383 0.883608
vt 0.331501 0.903309
vt 0.312500 0.936876
vt 0.312500 0.934559
vt 0.296725 0.850043
vt 0.294617 0.852358
vt 0.312500 0.936876
vt 0.312500 0.934559
vt 0.328275 0.850043
vt 0.330383 0.852358
vt 0.812500 0.942966
vt 0.853096 0.942966
vt 0.829315 0.942966
vt 0.853096 0.942966
vt 0.829315 0.942966
vt 0.795684 0.942966
vt 0.771904 0.942966
vt 0.771904 0.942966
vt 0.795684 0.942966
vt 0.812500 0.798888
vt 0.812500 0.798888
vt 0.837080 0.798888
vt 0.847261 0.798888
vt 0.837080 0.798888
vt 0.812500 0.798888
vt 0.787920 0.798888
vt 0.777739 0.798888
vt 0.787920 0.798888
vt 0.681294 0.820749
vt 0.681294 0.911783
vt 0.686200 0.911783
vt 0.686200 0.827700
vt 0.686200 0.789444
vt 0.686200 0.873528
vt 0.681294 0.873528
vt 0.681294 0.782494
vt 0.681294 0.820749
vt 0.681294 0.911783
vt 0.676386 0.911783
vt 0.676386 0.827700
vt 0.686200 0.948393
vt 0.681294 0.948393
vt 0.676386 0.948393
vt 0.681294 0.948393
vt 0.676386 0.789444
vt 0.676386 0.873528
vt 0.681294 0.873528
vt 0.681294 0.782494
vt 0.061944 0.174539
vt 0.061944 0.174539
vt 0.034633 0.200956
vt 0.089250 0.200956
vt 0.061944 0.081948
vt 0.061944 0.152446
vt 0.089250 0.178863
vt 0.089250 0.108365
vt 0.061944 0.152446
vt 0.061944 0.081948
vt 0.061944 0.059855
vt 0.061944 0.059855
vt 0.089250 0.086273
vt 0.034633 0.086273
vt 0.034633 0.108365
vt 0.034633 0.178863
vt 0.681294 0.820749
vt 0.681294 0.911783
vt 0.686200 0.911783
vt 0.686200 0.827700
vt 0.686200 0.789444
vt 0.686200 0.873528
vt 0.681294 0.873528
vt 0.681294 0.782494
vt 0.681294 0.820749
vt 0.681294 0.911783
vt 0.676386 0.911783
vt 0.676386 0.827700
vt 0.686200 0.948393
vt 0.681294 0.948393
vt 0.676386 0.948393
vt 0.681294 0.948393
vt 0.676386 0.789444
vt 0.676386 0.873528
vt 0.681294 0.873528
vt 0.681294 0.782494
vt 0.061944 0.174539
vt 0.061944 0.174539
vt 0.034633 0.200956
vt 0.089250 0.200956
vt 0.061944 0.081948
vt 0.061944 0.152446
vt 0.089250 0.178863
vt 0.089250 0.108365
vt 0.061944 0.152446
vt 0.061944 0.081948
vt 0.061944 0.059855
vt 0.061944 0.059855
vt 0.089250 0.086273
vt 0.034633 0.086273
vt 0.034633 0.108365
vt 0.034633 0.178863
vt 0.681294 0.820749
vt 0.681294 0.911783
vt 0.686200 0.911783
vt 0.686200 0.827700
vt 0.686200 0.789444
vt 0.686200 0.873528
vt 0.681294 0.873528
vt 0.681294 0.782494
vt 0.681294 0.820749
vt 0.681294 0.911783
vt 0.676386 0.911783
vt 0.676386 0.827700
vt 0.686200 0.948393
vt 0.681294 0.948393
vt 0.676386 0.948393
vt 0.681294 0.948393
vt 0.676386 0.789444
vt 0.676386 0.873528
vt 0.681294 0.873528
vt 0.681294 0.782494
vt 0.061944 0.174539
vt 0.061944 0.174539
vt 0.034633 0.200956
vt 0.089250 0.200956
vt 0.061944 0.081948
vt 0.061944 0.152446
vt 0.089250 0.178863
vt 0.089250 0.108365
vt 0.061944 0.152446
vt 0.061944 0.081948
vt 0.061944 0.059855
vt 0.061944 0.059855
vt 0.089250 0.086273
vt 0.034633 0.086273
vt 0.034633 0.108365
vt 0.034633 0.178863
vt 0.790986 0.929153
vt 0.812500 0.929153
vt 0.812500 0.929153
vt 0.783004 0.929153
vt 0.681294 0.820749
vt 0.681294 0.911783
vt 0.686200 0.911783
vt 0.686200 0.827700
vt 0.686200 0.789444
vt 0.686200 0.873528
vt 0.681294 0.873528
vt 0.681294 0.782494
vt 0.681294 0.820749
vt 0.681294 0.911783
vt 0.676386 0.911783
vt 0.676386 0.827700
vt 0.686200 0.948393
vt 0.681294 0.948393
vt 0.676386 0.948393
vt 0.681294 0.948393
vt 0.676386 0.789444
vt 0.676386 0.873528
vt 0.681294 0.873528
vt 0.681294 0.782494
vt 0.061944 0.174539
vt 0.061944 0.174539
vt 0.034633 0.200956
vt 0.089250 0.200956
vt 0.061944 0.081948
vt 0.061944 0.152446
vt 0.089250 0.178863
vt 0.089250 0.108365
vt 0.061944 0.152446
vt 0.061944 0.081948
vt 0.061944 0.059855
vt 0.061944 0.059855
vt 0.089250 0.086273
vt 0.034633 0.086273
vt 0.034633 0.108365
vt 0.034633 0.178863
vt 0.681294 0.820749
vt 0.681294 0.911783
vt 0.686200 0.911783
vt 0.686200 0.827700
vt 0.686200 0.789444
vt 0.686200 0.873528
vt 0.681294 0.873528
vt 0.681294 0.782494
vt 0.681294 0.820749
vt 0.681294 0.911783
vt 0.676386 0.911783
vt 0.676386 0.827700
vt 0.686200 0.948393
vt 0.681294 0.948393
vt 0.676386 0.948393
vt 0.681294 0.948393
vt 0.676386 0.789444
vt 0.676386 0.873528
vt 0.681294 0.873528
vt 0.681294 0.782494
vt 0.061944 0.174539
vt 0.061944 0.174539
vt 0.034633 0.200956
vt 0.089250 0.200956
vt 0.061944 0.081948
vt 0.061944 0.152446
vt 0.089250 0.178863
vt 0.089250 0.108365
vt 0.061944 0.152446
vt 0.061944 0.081948
vt 0.061944 0.059855
vt 0.061944 0.059855
vt 0.089250 0.086273
vt 0.034633 0.086273
vt 0.034633 0.108365
vt 0.034633 0.178863
vt 0.681294 0.820749
vt 0.681294 0.911783
vt 0.686200 0.911783
vt 0.686200 0.827700
vt 0.686200 0.789444
vt 0.686200 0.873528
vt 0.681294 0.873528
vt 0.681294 0.782494
vt 0.681294 0.820749
vt 0.681294 0.911783
vt 0.676386 0.911783
vt 0.676386 0.827700
vt 0.686200 0.948393
vt 0.681294 0.948393
vt 0.676386 0.948393
vt 0.681294 0.948393
vt 0.676386 0.789444
vt 0.676386 0.873528
vt 0.681294 0.873528
vt 0.681294 0.782494
vt 0.061944 0.174539
vt 0.061944 0.174539
vt 0.034633 0.200956
vt 0.089250 0.200956
vt 0.061944 0.081948
vt 0.061944 0.152446
vt 0.089250 0.178863
vt 0.089250 0.108365
vt 0.061944 0.152446
vt 0.061944 0.081948
vt 0.061944 0.059855
vt 0.061944 0.059855
vt 0.089250 0.086273
vt 0.034633 0.086273
vt 0.034633 0.108365
vt 0.034633 0.178863
vn 0.3807 -0.1029 -0.9190
vn 0.9190 -0.1029 -0.3807
vn 0.9190 -0.1029 0.3807
vn 0.3807 -0.1029 0.9190
vn -0.3807 -0.1029 0.9190
vn -0.9190 -0.1029 0.3807
vn -0.9190 -0.1029 -0.3807
vn -0.3816 0.0743 -0.9213
vn -0.9213 0.0743 -0.3816
vn -0.3807 -0.1029 -0.9190
vn 0.0000 1.0000 0.0000
vn -0.9213 0.0743 0.3816
vn -0.3816 0.0743 0.9213
vn 0.3816 0.0743 0.9213
vn 0.9213 0.0743 0.3816
vn 0.9213 0.0743 -0.3816
vn 0.3816 0.0743 -0.9213
vn -0.3814 -0.0816 -0.9208
vn 0.3814 -0.0816 -0.9208
vn 0.4480 -0.8746 -0.1856
vn 0.1856 -0.8746 -0.4480
vn -0.9208 -0.0816 -0.3814
vn -0.4480 -0.8746 0.1856
vn -0.1856 -0.8746 0.4480
vn -0.9208 -0.0816 0.3814
vn 0.4276 0.8864 -0.1771
vn 0.4276 0.8864 0.1771
vn -0.3814 -0.0816 0.9208
vn -0.4276 0.8864 0.1771
vn -0.4276 0.8864 -0.1771
vn 0.3814 -0.0816 0.9208
vn 0.4480 -0.8746 0.1856
vn 0.9208 -0.0816 0.3814
vn -0.4480 -0.8746 -0.1856
vn 0.9208 -0.0816 -0.3814
vn 0.1771 0.8864 0.4276
vn -0.1771 0.8864 -0.4276
vn -0.3784 -0.1485 -0.9136
vn 0.3784 -0.1485 -0.9136
vn -0.9136 -0.1485 -0.3784
vn -0.9136 -0.1485 0.3784
vn -0.3784 -0.1485 0.9136
vn 0.3784 -0.1485 0.9136
vn 0.9136 -0.1485 0.3784
vn 0.9136 -0.1485 -0.3784
vn -0.1771 0.8864 0.4276
vn -0.1856 -0.8746 -0.4480
vn 0.1771 0.8864 -0.4276
vn 0.1856 -0.8746 0.4480
vn 0.0000 -1.0000 -0.0000
vn 0.5559 -0.1023 -0.8249
vn 0.7417 -0.1023 0.6629
vn -0.6693 0.1173 0.7336
vn 0.1483 0.9888 -0.0185
vn -0.8292 0.1173 -0.5465
vn 0.7306 0.6767 -0.0912
vn -0.4996 0.8640 0.0624
vn -0.1239 -0.0000 -0.9923
vn 0.0017 -0.0190 -0.9998
vn 0.1239 0.0000 0.9923
vn 0.2475 -0.0190 0.9687
vn 0.4996 -0.8640 -0.0624
vn -0.7306 -0.6767 0.0912
vn -0.2475 0.0190 -0.9687
vn -0.0017 0.0190 0.9998
vn 0.1619 0.0187 -0.9866
vn 0.9712 0.2380 -0.0097
vn -0.1412 -0.0136 0.9899
vn -0.2315 0.9726 -0.0202
vn -0.9258 -0.2367 -0.2947
vn 0.3116 0.8671 -0.3886
vn -0.6723 0.6484 0.3572
vn -0.5750 -0.1535 -0.8036
vn -0.4707 -0.1301 -0.8726
vn 0.5750 0.1535 0.8036
vn 0.6700 0.1744 0.7216
vn 0.6723 -0.6484 -0.3572
vn -0.3116 -0.8671 0.3886
vn -0.6700 -0.1744 -0.7216
vn 0.4707 0.1301 0.8726
vn -0.6796 -0.3784 0.6284
vn -0.7248 0.2184 -0.6535
vn 0.7178 0.3660 -0.5923
vn -0.1099 0.8981 0.4259
vn 0.6835 -0.2403 0.6893
vn -0.7087 0.6363 0.3047
vn 0.5375 0.7631 0.3589
vn 0.0042 -0.4281 0.9037
vn -0.1220 -0.4374 0.8909
vn -0.0042 0.4281 -0.9037
vn -0.1304 0.4118 -0.9019
vn -0.5375 -0.7631 -0.3589
vn 0.7087 -0.6363 -0.3047
vn 0.1304 -0.4118 0.9019
vn 0.1220 0.4374 -0.8909
vn 0.9696 -0.1023 0.2223
vn -0.3520 -0.1023 0.9304
vn -0.9252 0.1173 -0.3609
vn 0.0706 0.9888 0.1317
vn 0.2120 0.1173 -0.9702
vn 0.3477 0.6767 0.6490
vn -0.2378 0.8640 -0.4438
vn 0.8815 -0.0000 -0.4723
vn 0.9336 -0.0190 -0.3578
vn -0.8815 0.0000 0.4723
vn -0.8150 -0.0190 0.5791
vn 0.2378 -0.8640 0.4438
vn -0.3477 -0.6767 -0.6490
vn 0.8150 0.0190 -0.5791
vn -0.9336 0.0190 0.3578
vn 0.9500 0.0187 0.3116
vn -0.1397 0.2380 0.9612
vn -0.9564 -0.0136 -0.2917
vn 0.0555 0.9726 -0.2256
vn 0.4335 -0.2367 -0.8695
vn 0.3361 0.8671 0.3676
vn -0.2496 0.6484 -0.7192
vn 0.8825 -0.1535 -0.4446
vn 0.9346 -0.1301 -0.3310
vn -0.8825 0.1535 0.4446
vn -0.8160 0.1744 0.5511
vn 0.2496 -0.6484 0.7192
vn -0.3361 -0.8671 -0.3676
vn 0.8160 -0.1744 -0.5511
vn -0.9346 0.1301 0.3310
vn -0.9691 -0.0378 0.2437
vn -0.2444 0.0389 -0.9689
vn 0.9809 0.0355 -0.1910
vn -0.0289 0.9983 0.0500
vn 0.1869 -0.0411 0.9815
vn -0.5513 0.7794 -0.2977
vn 0.5064 0.7762 0.3756
vn -0.5362 -0.0577 0.8421
vn -0.6390 -0.0569 0.7671
vn 0.5362 0.0577 -0.8421
vn 0.4248 0.0575 -0.9035
vn -0.5064 -0.7762 -0.3756
vn 0.5513 -0.7794 0.2977
vn -0.4248 -0.0575 0.9035
vn 0.6390 0.0569 -0.7671
usemtl hexagons_medieval
s 1
f 20/1/1 11/2/1 10/3/2 21/4/2
f 21/5/2 10/6/2 12/7/3 23/8/3
f 23/9/3 12/10/3 13/11/4 25/12/4
f 25/13/4 13/14/4 14/15/5 27/16/5
f 27/17/5 14/18/5 15/19/6 29/20/6
f 29/21/6 15/22/6 16/23/7 31/24/7
f 5/25/8 4/26/9 53/27/9 54/28/8
f 31/29/7 16/30/7 17/31/10 33/32/10
f 33/33/10 17/34/10 11/35/1 20/36/1
f 2/37/11 3/38/11 10/6/11 11/35/11
f 3/39/11 4/40/11 12/41/11 10/42/11
f 4/43/11 5/44/11 13/14/11 12/7/11
f 5/45/11 6/46/11 14/47/11 13/48/11
f 6/49/11 7/50/11 15/22/11 14/15/11
f 7/51/11 8/52/11 16/53/11 15/54/11
f 3/55/12 2/56/13 52/57/13 51/58/12
f 2/37/13 9/59/14 58/60/14 52/61/13
f 8/62/15 7/50/16 56/63/16 57/64/15
f 6/49/17 5/44/8 54/65/8 55/66/17
f 4/43/9 3/38/12 51/67/12 53/68/9
f 9/69/14 8/70/15 57/71/15 58/72/14
f 7/73/16 6/74/17 55/75/17 56/76/16
f 66/77/18 34/78/18 19/79/19 59/80/19
f 22/81/20 19/82/21 35/83/21 38/84/20
f 65/85/22 32/86/22 34/87/18 66/88/18
f 30/89/23 28/90/24 44/91/24 46/92/23
f 64/93/25 30/94/25 32/95/22 65/96/22
f 21/97/26 23/98/27 39/99/27 37/100/26
f 63/101/28 28/102/28 30/103/25 64/104/25
f 29/105/29 31/106/30 47/107/30 45/108/29
f 62/109/31 26/110/31 28/111/28 63/112/28
f 24/113/32 22/81/20 38/84/20 40/114/32
f 61/115/33 24/116/33 26/117/31 62/118/31
f 32/119/34 30/89/23 46/92/23 48/120/34
f 60/121/35 22/122/35 24/123/33 61/124/33
f 23/98/27 25/125/36 41/126/36 39/99/27
f 59/127/19 19/128/19 22/129/35 60/130/35
f 31/106/30 33/131/37 49/132/37 47/107/30
f 50/133/38 49/134/38 36/135/39 35/136/39
f 48/137/40 47/138/40 49/134/38 50/133/38
f 46/139/41 45/140/41 47/138/40 48/137/40
f 44/141/42 43/142/42 45/140/41 46/139/41
f 42/143/43 41/144/43 43/142/42 44/141/42
f 40/145/44 39/146/44 41/144/43 42/143/43
f 38/147/45 37/148/45 39/146/44 40/145/44
f 35/136/39 36/135/39 37/148/45 38/147/45
f 27/149/46 29/105/29 45/108/29 43/150/46
f 19/82/21 34/151/47 50/152/47 35/83/21
f 20/153/48 21/97/26 37/100/26 36/154/48
f 28/90/24 26/155/49 42/156/49 44/91/24
f 33/131/37 20/153/48 36/154/48 49/132/37
f 25/125/36 27/149/46 43/150/46 41/126/36
f 34/151/47 32/119/34 48/120/34 50/152/47
f 26/155/49 24/113/32 40/114/32 42/156/49
f 18/157/11 51/158/11 52/159/11
f 18/157/11 53/160/11 51/158/11
f 18/157/11 54/161/11 53/160/11
f 18/157/11 55/162/11 54/161/11
f 18/157/11 56/163/11 55/162/11
f 18/157/11 57/164/11 56/163/11
f 18/157/11 58/165/11 57/164/11
f 18/157/11 52/159/11 58/165/11
f 1/166/50 59/167/50 60/168/50
f 1/166/50 60/168/50 61/169/50
f 1/166/50 61/169/50 62/170/50
f 1/166/50 62/170/50 63/171/50
f 1/166/50 63/171/50 64/172/50
f 1/166/50 64/172/50 65/173/50
f 1/166/50 65/173/50 66/174/50
f 1/166/50 66/174/50 59/167/50
f 8/62/11 9/59/11 17/34/11 16/23/11
f 68/175/51 72/176/51 73/177/51 70/178/51
f 70/179/52 73/180/52 74/181/52 69/182/52
f 69/183/53 74/184/53 71/185/53 67/186/53
f 73/187/54 72/188/54 71/189/54 74/190/54
f 67/191/55 71/192/55 72/193/55 68/194/55
f 76/195/56 78/196/56 82/197/56
f 78/196/57 76/195/57 79/198/57
f 77/199/58 78/200/58 79/201/59 80/202/59
f 76/203/60 75/204/60 80/202/61 79/201/61
f 75/205/62 77/206/62 80/207/62
f 77/206/63 75/205/63 81/208/63
f 78/200/58 77/199/58 81/209/64 82/210/64
f 75/204/60 76/203/60 82/210/65 81/209/65
f 84/211/66 88/212/66 89/213/66 86/214/66
f 86/215/67 89/216/67 90/217/67 85/218/67
f 85/219/68 90/220/68 87/221/68 83/222/68
f 89/223/69 88/224/69 87/225/69 90/226/69
f 83/227/70 87/228/70 88/229/70 84/230/70
f 92/231/71 94/232/71 98/233/71
f 94/232/72 92/231/72 95/234/72
f 93/235/73 94/236/73 95/237/74 96/238/74
f 92/239/75 91/240/75 96/238/76 95/237/76
f 91/241/77 93/242/77 96/243/77
f 93/242/78 91/241/78 97/244/78
f 94/236/73 93/235/73 97/245/79 98/246/79
f 91/240/75 92/239/75 98/246/80 97/245/80
f 100/247/81 104/248/81 105/249/81 102/250/81
f 102/251/82 105/252/82 106/253/82 101/254/82
f 101/255/83 106/256/83 103/257/83 99/258/83
f 105/259/84 104/260/84 103/261/84 106/262/84
f 99/263/85 103/264/85 104/265/85 100/266/85
f 108/267/86 110/268/86 114/269/86
f 110/268/87 108/267/87 111/270/87
f 109/271/88 110/272/88 111/273/89 112/274/89
f 108/275/90 107/276/90 112/274/91 111/273/91
f 107/277/92 109/278/92 112/279/92
f 109/278/93 107/277/93 113/280/93
f 110/272/88 109/271/88 113/281/94 114/282/94
f 107/276/90 108/275/90 114/282/95 113/281/95
f 9/283/11 2/284/11 11/285/11 17/286/11
f 116/287/96 120/288/96 121/289/96 118/290/96
f 118/291/97 121/292/97 122/293/97 117/294/97
f 117/295/98 122/296/98 119/297/98 115/298/98
f 121/299/99 120/300/99 119/301/99 122/302/99
f 115/303/100 119/304/100 120/305/100 116/306/100
f 124/307/101 126/308/101 130/309/101
f 126/308/102 124/307/102 127/310/102
f 125/311/103 126/312/103 127/313/104 128/314/104
f 124/315/105 123/316/105 128/314/106 127/313/106
f 123/317/107 125/318/107 128/319/107
f 125/318/108 123/317/108 129/320/108
f 126/312/103 125/311/103 129/321/109 130/322/109
f 123/316/105 124/315/105 130/322/110 129/321/110
f 132/323/111 136/324/111 137/325/111 134/326/111
f 134/327/112 137/328/112 138/329/112 133/330/112
f 133/331/113 138/332/113 135/333/113 131/334/113
f 137/335/114 136/336/114 135/337/114 138/338/114
f 131/339/115 135/340/115 136/341/115 132/342/115
f 140/343/116 142/344/116 146/345/116
f 142/344/117 140/343/117 143/346/117
f 141/347/118 142/348/118 143/349/119 144/350/119
f 140/351/120 139/352/120 144/350/121 143/349/121
f 139/353/122 141/354/122 144/355/122
f 141/354/123 139/353/123 145/356/123
f 142/348/118 141/347/118 145/357/124 146/358/124
f 139/352/120 140/351/120 146/358/125 145/357/125
f 148/359/126 152/360/126 153/361/126 150/362/126
f 150/363/127 153/364/127 154/365/127 149/366/127
f 149/367/128 154/368/128 151/369/128 147/370/128
f 153/371/129 152/372/129 151/373/129 154/374/129
f 147/375/130 151/376/130 152/377/130 148/378/130
f 156/379/131 158/380/131 162/381/131
f 158/380/132 156/379/132 159/382/132
f 157/383/133 158/384/133 159/385/134 160/386/134
f 156/387/135 155/388/135 160/386/136 159/385/136
f 155/389/137 157/390/137 160/391/137
f 157/390/138 155/389/138 161/392/138
f 158/384/133 157/383/133 161/393/139 162/394/139
f 155/388/135 156/387/135 162/394/140 161/393/140
