# Blender v3.4.1 OBJ File: 'Medieval_Hexagons_Export_1.0_WorldOrigin.blend'
# www.blender.org
mtllib crate_long_empty.mtl
o crate_long_empty
v -0.200000 0.000000 0.100000
v -0.170938 0.107049 0.071806
v -0.200000 0.000000 -0.100000
v -0.170938 0.142951 -0.071806
v 0.200000 0.000000 0.100000
v 0.170938 0.107049 0.071806
v 0.200000 0.000000 -0.100000
v 0.170938 0.142951 -0.071806
v -0.200000 0.100000 0.100000
v -0.200000 0.150000 -0.100000
v 0.200000 0.150000 -0.100000
v 0.200000 0.100000 0.100000
v -0.170938 0.035000 0.071806
v -0.170938 0.035000 -0.071806
v 0.170938 0.035000 -0.071806
v 0.170938 0.035000 0.071806
v -0.015120 0.035000 0.071806
v -0.015120 0.035000 -0.071806
v 0.015120 0.035000 -0.071806
v 0.015120 0.035000 0.071806
v -0.015120 0.089926 0.071806
v -0.015120 0.126937 -0.071806
v 0.015120 0.126937 -0.071806
v 0.015120 0.089926 0.071806
v -0.200000 0.050000 0.100000
v -0.200000 0.075000 -0.100000
v 0.200000 0.075000 -0.100000
v 0.200000 0.050000 0.100000
vt 0.784244 0.858069
vt 0.784244 0.891931
vt 0.784244 0.925792
vt 0.784244 0.875000
vt 0.840756 0.925792
vt 0.840756 0.875000
vt 0.840756 0.891931
vt 0.840756 0.858069
vt 0.784244 0.808583
vt 0.840756 0.808583
vt 0.840756 0.808583
vt 0.784244 0.808583
vt 0.836650 0.905394
vt 0.788350 0.905394
vt 0.788350 0.832286
vt 0.836650 0.832286
vt 0.788350 0.927954
vt 0.788350 0.952269
vt 0.784244 0.957042
vt 0.784244 0.923181
vt 0.836650 0.952269
vt 0.840756 0.957042
vt 0.836650 0.927954
vt 0.840756 0.923181
vt 0.836650 0.863536
vt 0.788350 0.863536
vt 0.788350 0.863536
vt 0.836650 0.863536
vt 0.836650 0.881079
vt 0.836650 0.832286
vt 0.788350 0.881079
vt 0.788350 0.832286
vt 0.836650 0.894786
vt 0.788350 0.894786
vt 0.788350 0.894786
vt 0.836650 0.894786
vt 0.836650 0.847911
vt 0.836650 0.847911
vt 0.836650 0.847911
vt 0.836650 0.847911
vt 0.788350 0.847911
vt 0.788350 0.847911
vt 0.788350 0.847911
vt 0.788350 0.847911
vt 0.840756 0.824208
vt 0.840756 0.842444
vt 0.784244 0.842444
vt 0.784244 0.824208
vt 0.840756 0.824208
vt 0.840756 0.859375
vt 0.784244 0.824208
vt 0.784244 0.859375
vn -1.0000 0.0000 0.0000
vn 0.0000 0.0000 -1.0000
vn 1.0000 0.0000 0.0000
vn 0.0000 0.0000 1.0000
vn 0.0000 -1.0000 0.0000
vn 0.0000 0.9701 0.2425
vn 0.0000 1.0000 0.0000
vn 0.0000 0.9684 0.2496
usemtl hexagons_medieval
s 1
f 25/1/1 9/2/1 10/3/1 26/4/1
f 26/4/2 10/3/2 11/5/2 27/6/2
f 27/6/3 11/5/3 12/7/3 28/8/3
f 28/8/4 12/7/4 9/2/4 25/1/4
f 3/9/5 7/10/5 5/11/5 1/12/5
f 8/13/4 4/14/4 14/15/4 15/16/4
f 2/17/6 4/18/6 10/19/6 9/20/6
f 4/18/6 8/21/6 11/22/6 10/19/6
f 8/21/6 6/23/6 12/24/6 11/22/6
f 6/23/6 2/17/6 9/20/6 12/24/6
f 15/25/7 14/26/7 13/27/7 16/28/7
f 6/29/1 8/13/1 15/16/1 16/30/1
f 4/14/3 2/31/3 13/32/3 14/15/3
f 2/31/2 6/29/2 16/30/2 13/32/2
f 23/33/8 22/34/8 21/35/8 24/36/8
f 20/37/3 19/38/3 23/39/3 24/40/3
f 18/41/1 17/42/1 21/43/1 22/44/1
f 5/45/4 28/46/4 25/47/4 1/48/4
f 7/49/3 27/50/3 28/46/3 5/45/3
f 3/51/2 26/52/2 27/50/2 7/49/2
f 1/48/1 25/47/1 26/52/1 3/51/1
