# Blender v3.4.1 OBJ File: 'Medieval_Hexagons_Export_1.0_WorldOrigin.blend'
# www.blender.org
mtllib crate_open.mtl
o crate_open
v -0.100000 0.000001 0.100000
v -0.100000 0.200001 0.100000
v -0.100000 0.000001 -0.100000
v -0.100000 0.200001 -0.100000
v 0.100000 0.000001 0.100000
v 0.100000 0.200001 0.100000
v 0.100000 0.000001 -0.100000
v 0.100000 0.200001 -0.100000
v -0.100000 0.033334 0.066667
v -0.100000 0.166668 0.066667
v -0.100000 0.166668 -0.066667
v -0.100000 0.033334 -0.066667
v -0.066667 0.033334 -0.100000
v -0.066667 0.166668 -0.100000
v 0.066667 0.166668 -0.100000
v 0.066667 0.033334 -0.100000
v 0.100000 0.033334 -0.066667
v 0.100000 0.166668 -0.066667
v 0.100000 0.166668 0.066667
v 0.100000 0.033334 0.066667
v 0.066667 0.033334 0.100000
v 0.066667 0.166668 0.100000
v -0.066667 0.166668 0.100000
v -0.066667 0.033334 0.100000
v 0.066667 0.200001 -0.066667
v -0.066667 0.200001 -0.066667
v -0.066667 0.200001 0.066667
v 0.066667 0.200001 0.066667
v -0.080000 0.040001 0.060000
v -0.080000 0.160001 0.060000
v -0.080000 0.040001 -0.060000
v -0.080000 0.160001 -0.060000
v -0.060000 0.160001 -0.080000
v -0.060000 0.040001 -0.080000
v 0.060000 0.040001 -0.080000
v 0.060000 0.160001 -0.080000
v 0.080000 0.160001 -0.060000
v 0.080000 0.040001 -0.060000
v 0.080000 0.040001 0.060000
v 0.080000 0.160001 0.060000
v 0.060000 0.160001 0.080000
v 0.060000 0.040001 0.080000
v -0.060000 0.040001 0.080000
v -0.060000 0.160001 0.080000
v -0.060000 0.170001 -0.060000
v 0.060000 0.170001 -0.060000
v 0.060000 0.170001 0.060000
v -0.060000 0.170001 0.060000
v 0.000000 0.033334 0.100000
v 0.000000 0.166668 0.100000
v 0.000000 0.040001 0.080000
v 0.000000 0.160001 0.080000
v -0.100000 0.033334 0.000000
v -0.100000 0.166668 0.000000
v -0.080000 0.040001 0.000000
v -0.080000 0.160001 0.000000
v 0.000000 0.033334 -0.100000
v 0.000000 0.166668 -0.100000
v 0.000000 0.040001 -0.080000
v 0.000000 0.160001 -0.080000
v 0.100000 0.033334 0.000000
v 0.100000 0.166668 0.000000
v 0.080000 0.040001 0.000000
v 0.080000 0.160001 0.000000
v 0.000000 0.200001 -0.066667
v 0.000000 0.200001 0.066667
v 0.000000 0.170001 -0.060000
v 0.000000 0.170001 0.060000
v 0.131568 0.185971 0.100000
v 0.131568 0.185971 -0.100000
v 0.231568 0.012766 0.100000
v 0.231568 0.012766 -0.100000
v 0.199691 -0.005638 -0.066667
v 0.214901 0.041633 -0.066667
v 0.148235 0.157103 -0.066667
v 0.148235 0.157103 0.066667
v 0.214901 0.041633 0.066667
v 0.134247 0.141330 -0.060000
v 0.194247 0.037407 -0.060000
v 0.194247 0.037407 0.060000
v 0.134247 0.141330 0.060000
v 0.099691 0.167567 0.100000
v 0.181568 0.099368 -0.066667
v 0.181568 0.099368 0.066667
v 0.164247 0.089368 -0.060000
v 0.164247 0.089368 0.060000
v 0.099691 0.167567 -0.100000
v 0.199691 -0.005638 -0.100000
v 0.199691 -0.005638 0.100000
v 0.004662 0.159998 -0.017416
v 0.006016 0.159998 -0.038586
v 0.004662 0.179998 -0.017416
v 0.015924 0.194998 -0.027323
v 0.006016 0.179998 -0.038586
v 0.021032 0.159998 -0.051796
v 0.042202 0.159998 -0.050442
v 0.030940 0.194998 -0.040534
v 0.042202 0.179998 -0.050442
v 0.021032 0.179998 -0.051796
v 0.039042 0.159998 -0.001045
v 0.017872 0.159998 -0.002399
v 0.029134 0.194998 -0.012307
v 0.017872 0.179998 -0.002399
v 0.039042 0.179998 -0.001045
v 0.055412 0.159998 -0.035426
v 0.054058 0.159998 -0.014256
v 0.044150 0.194998 -0.025518
v 0.054058 0.179998 -0.014256
v 0.055412 0.179998 -0.035426
v -0.047914 0.159998 0.001432
v -0.054085 0.159998 -0.018863
v -0.047914 0.179998 0.001432
v -0.040851 0.194998 -0.011801
v -0.054085 0.179998 -0.018863
v -0.044668 0.159998 -0.036508
v -0.024372 0.159998 -0.042679
v -0.031435 0.194998 -0.029445
v -0.024372 0.179998 -0.042679
v -0.044668 0.179998 -0.036508
v -0.009973 0.159998 0.004678
v -0.030269 0.159998 0.010849
v -0.023207 0.194998 -0.002384
v -0.030269 0.179998 0.010849
v -0.009973 0.179998 0.004678
v -0.006728 0.159998 -0.033262
v -0.000557 0.159998 -0.012966
v -0.013790 0.194998 -0.020029
v -0.000557 0.179998 -0.012966
v -0.006728 0.179998 -0.033262
v -0.014343 0.159998 0.025277
v -0.003283 0.159998 0.007175
v -0.014343 0.179998 0.025277
v 0.000238 0.194998 0.021756
v -0.003283 0.179998 0.007175
v 0.016158 0.159998 0.002480
v 0.034260 0.159998 0.013540
v 0.019679 0.194998 0.017061
v 0.034260 0.179998 0.013540
v 0.016158 0.179998 0.002480
v 0.008454 0.159998 0.055778
v -0.009648 0.159998 0.044718
v 0.004933 0.194998 0.041197
v -0.009648 0.179998 0.044718
v 0.008454 0.179998 0.055778
v 0.038955 0.159998 0.032981
v 0.027895 0.159998 0.051083
v 0.024374 0.194998 0.036502
v 0.027895 0.179998 0.051083
v 0.038955 0.179998 0.032981
vt 0.828812 0.889938
vt 0.828812 0.922562
vt 0.827180 0.920930
vt 0.827180 0.891570
vt 0.812500 0.930718
vt 0.807607 0.924193
vt 0.827180 0.924193
vt 0.828812 0.930718
vt 0.836968 0.889938
vt 0.836968 0.922562
vt 0.830443 0.920930
vt 0.830443 0.891570
vt 0.788032 0.922562
vt 0.794557 0.920930
vt 0.794557 0.920930
vt 0.788032 0.922562
vt 0.796189 0.889938
vt 0.796189 0.922562
vt 0.797820 0.920930
vt 0.797820 0.891570
vt 0.788032 0.889938
vt 0.794557 0.891570
vt 0.788032 0.881782
vt 0.788032 0.930718
vt 0.788032 0.930718
vt 0.788032 0.922562
vt 0.788032 0.881782
vt 0.788032 0.889938
vt 0.788032 0.889938
vt 0.836968 0.930718
vt 0.812500 0.922562
vt 0.836968 0.881782
vt 0.828812 0.889938
vt 0.828812 0.922562
vt 0.812500 0.889938
vt 0.836968 0.930718
vt 0.836968 0.922562
vt 0.836968 0.922562
vt 0.836968 0.881782
vt 0.836968 0.889938
vt 0.836968 0.889938
vt 0.796189 0.922562
vt 0.812500 0.922562
vt 0.796189 0.889938
vt 0.812500 0.889938
vt 0.828812 0.930718
vt 0.812500 0.930718
vt 0.658875 0.836214
vt 0.658875 0.878530
vt 0.658875 0.878530
vt 0.658875 0.836214
vt 0.687073 0.883089
vt 0.687073 0.925405
vt 0.708237 0.925405
vt 0.708237 0.883089
vt 0.715286 0.836214
vt 0.715286 0.878530
vt 0.715286 0.878530
vt 0.715286 0.836214
vt 0.687073 0.836214
vt 0.687073 0.878530
vt 0.665924 0.878530
vt 0.665924 0.836214
vt 0.812073 0.385583
vt 0.790924 0.385583
vt 0.790924 0.385583
vt 0.812073 0.385583
vt 0.794557 0.920930
vt 0.715286 0.925405
vt 0.715286 0.925405
vt 0.715286 0.883089
vt 0.715286 0.883089
vt 0.827180 0.920930
vt 0.817394 0.920930
vt 0.796189 0.930718
vt 0.797820 0.924193
vt 0.794557 0.891570
vt 0.830443 0.920930
vt 0.830443 0.920930
vt 0.827180 0.891570
vt 0.797820 0.920930
vt 0.807607 0.920930
vt 0.827180 0.924193
vt 0.830443 0.891570
vt 0.797820 0.891570
vt 0.796189 0.930718
vt 0.797820 0.924193
vt 0.833237 0.385583
vt 0.833237 0.385583
vt 0.708237 0.925405
vt 0.687073 0.925405
vt 0.687073 0.883089
vt 0.708237 0.883089
vt 0.807607 0.891570
vt 0.658875 0.925405
vt 0.658875 0.925405
vt 0.658875 0.883089
vt 0.658875 0.883089
vt 0.794557 0.891570
vt 0.665924 0.878530
vt 0.687073 0.878530
vt 0.687073 0.836214
vt 0.665924 0.836214
vt 0.817394 0.891570
vt 0.830443 0.891570
vt 0.807607 0.924193
vt 0.812500 0.930718
vt 0.807607 0.924193
vt 0.827180 0.924193
vt 0.828812 0.930718
vt 0.788032 0.920540
vt 0.788032 0.920540
vt 0.788032 0.930718
vt 0.788032 0.930718
vt 0.836968 0.930718
vt 0.836968 0.920540
vt 0.836968 0.922562
vt 0.836968 0.930718
vt 0.836968 0.920540
vt 0.828812 0.930718
vt 0.812500 0.930718
vt 0.687073 0.932458
vt 0.665924 0.932458
vt 0.665924 0.932458
vt 0.687073 0.932458
vt 0.796189 0.930718
vt 0.797820 0.924193
vt 0.827180 0.924193
vt 0.796189 0.930718
vt 0.797820 0.924193
vt 0.708237 0.885583
vt 0.687073 0.885583
vt 0.687073 0.885583
vt 0.708237 0.885583
vt 0.807607 0.924193
vt 0.819969 0.383163
vt 0.819969 0.398087
vt 0.805054 0.398087
vt 0.805054 0.383163
vt 0.831162 0.383163
vt 0.831162 0.398087
vt 0.831162 0.398087
vt 0.831162 0.383163
vt 0.819969 0.409277
vt 0.805054 0.409277
vt 0.805054 0.409277
vt 0.819969 0.409277
vt 0.793869 0.383163
vt 0.793869 0.398087
vt 0.793869 0.398087
vt 0.793869 0.383163
vt 0.805054 0.383163
vt 0.805054 0.398087
vt 0.819969 0.398087
vt 0.819969 0.383163
vt 0.819969 0.383163
vt 0.819969 0.398087
vt 0.805054 0.398087
vt 0.805054 0.383163
vt 0.831162 0.383163
vt 0.831162 0.398087
vt 0.831162 0.398087
vt 0.831162 0.383163
vt 0.819969 0.409277
vt 0.805054 0.409277
vt 0.805054 0.409277
vt 0.819969 0.409277
vt 0.793869 0.383163
vt 0.793869 0.398087
vt 0.793869 0.398087
vt 0.793869 0.383163
vt 0.805054 0.383163
vt 0.805054 0.398087
vt 0.819969 0.398087
vt 0.819969 0.383163
vt 0.819969 0.383163
vt 0.819969 0.398087
vt 0.805054 0.398087
vt 0.805054 0.383163
vt 0.831162 0.383163
vt 0.831162 0.398087
vt 0.831162 0.398087
vt 0.831162 0.383163
vt 0.819969 0.409277
vt 0.805054 0.409277
vt 0.805054 0.409277
vt 0.819969 0.409277
vt 0.793869 0.383163
vt 0.793869 0.398087
vt 0.793869 0.398087
vt 0.793869 0.383163
vt 0.805054 0.383163
vt 0.805054 0.398087
vt 0.819969 0.398087
vt 0.819969 0.383163
vn -0.9487 0.0000 0.3162
vn 0.0000 0.2169 0.9762
vn 0.3162 0.0000 0.9487
vn -0.3162 -0.9487 0.0000
vn 0.9487 0.0000 -0.3162
vn -0.3162 0.0000 -0.9487
vn -1.0000 0.0000 0.0000
vn 0.0000 0.0000 -1.0000
vn 1.0000 0.0000 0.0000
vn -0.0000 0.0000 1.0000
vn 0.0000 1.0000 0.0000
vn 0.0000 -0.9487 -0.3162
vn -0.3162 0.0000 0.9487
vn 0.3162 -0.9487 0.0000
vn -0.9487 0.0000 -0.3162
vn 0.0000 -0.9487 0.3162
vn -0.9762 0.2169 0.0000
vn 0.3162 0.0000 -0.9487
vn 0.9487 0.0000 0.3162
vn 0.9762 0.2169 0.0000
vn -0.0000 0.9487 0.3162
vn -0.3162 0.9487 -0.0000
vn 0.0000 0.9487 -0.3162
vn 0.3162 0.9487 -0.0000
vn 0.0000 0.2169 -0.9762
vn 0.0000 -1.0000 0.0000
vn 0.2739 0.1581 0.9487
vn -0.5000 0.8660 0.0000
vn 0.5000 -0.8660 0.0000
vn 0.8660 0.5000 0.0000
vn -0.2005 0.9797 0.0000
vn 0.7482 -0.6635 0.0000
vn 0.2739 0.1581 -0.9487
vn -0.8660 -0.5000 -0.0000
vn -0.4409 0.0000 0.8976
vn -0.4318 0.3416 0.8348
vn -0.8830 0.3416 0.3219
vn -0.7508 0.0000 0.6605
vn 0.8976 0.0000 0.4409
vn 0.8348 0.3416 0.4318
vn 0.3219 0.3416 0.8830
vn 0.6605 0.0000 0.7508
vn 0.4821 0.8756 0.0308
vn 0.0308 0.8756 -0.4821
vn -0.8976 0.0000 -0.4409
vn -0.8348 0.3416 -0.4318
vn -0.3219 0.3416 -0.8830
vn -0.6605 0.0000 -0.7508
vn 0.4409 0.0000 -0.8976
vn 0.4318 0.3416 -0.8348
vn 0.8830 0.3416 -0.3219
vn 0.7508 0.0000 -0.6605
vn -0.6500 0.7588 -0.0416
vn -0.0416 0.7588 0.6500
vn -0.9980 0.0000 -0.0638
vn 0.0638 0.0000 -0.9980
vn 0.9980 0.0000 0.0638
vn -0.0638 0.0000 0.9980
vn -0.4708 0.0000 0.8822
vn -0.1109 0.3416 0.9333
vn -0.7136 0.3416 0.6116
vn -0.7726 0.0000 0.6349
vn 0.8822 0.0000 0.4708
vn 0.6116 0.3416 0.7136
vn 0.6349 0.0000 0.7726
vn 0.4622 0.8756 -0.1405
vn -0.1405 0.8756 -0.4622
vn -0.4622 0.8756 0.1405
vn 0.1405 0.8756 0.4622
vn -0.9952 0.0000 -0.0974
vn -0.9333 0.3416 -0.1109
vn -0.6116 0.3416 -0.7136
vn -0.6349 0.0000 -0.7726
vn 0.4708 0.0000 -0.8822
vn 0.1109 0.3416 -0.9333
vn 0.7136 0.3416 -0.6116
vn 0.7726 0.0000 -0.6349
vn 0.8863 0.4606 -0.0491
vn -0.2909 0.0000 -0.9568
vn 0.9568 0.0000 -0.2909
vn 0.2909 0.0000 0.9568
vn -0.8082 -0.0000 0.5889
vn -0.7709 0.3416 0.5376
vn -0.9313 0.3416 -0.1265
vn -0.9879 -0.0000 -0.1551
vn 0.2347 0.0000 0.9721
vn -0.1265 0.3416 0.9313
vn -0.1551 -0.0000 0.9879
vn 0.4122 0.8756 0.2519
vn -0.4122 0.8756 -0.2519
vn -0.2519 0.8756 0.4122
vn -0.5889 0.0000 -0.8082
vn -0.5376 0.3416 -0.7709
vn 0.1265 0.3416 -0.9313
vn 0.1551 -0.0000 -0.9879
vn 0.9721 -0.0000 -0.2347
vn 0.9313 0.3416 0.1265
vn 0.9879 -0.0000 0.1551
vn 0.3396 0.7588 -0.5558
vn 0.6295 0.4606 -0.6258
vn 0.6258 0.4606 0.6295
vn 0.5214 -0.0000 -0.8533
vn 0.8533 0.0000 0.5214
usemtl hexagons_medieval
s 1
f 21/1/1 22/2/1 41/3/1 42/4/1
f 65/5/2 67/6/2 46/7/2 25/8/2
f 17/9/3 18/10/3 37/11/3 38/12/3
f 54/13/4 56/14/4 30/15/4 10/16/4
f 13/17/5 14/18/5 33/19/5 34/20/5
f 9/21/6 10/16/6 30/15/6 29/22/6
f 1/23/7 2/24/7 10/16/7 9/21/7
f 4/25/7 11/26/7 54/13/7
f 4/25/7 3/27/7 12/28/7 11/26/7
f 53/29/7 1/23/7 9/21/7
f 3/27/8 4/25/8 14/18/8 13/17/8
f 8/30/8 58/31/8 4/25/8
f 8/30/8 7/32/8 16/33/8 15/34/8
f 3/27/8 13/17/8 57/35/8
f 7/32/9 8/30/9 18/10/9 17/9/9
f 6/36/9 19/37/9 62/38/9
f 6/36/9 5/39/9 20/40/9 19/37/9
f 7/32/9 17/9/9 61/41/9
f 5/39/10 6/36/10 22/2/10 21/1/10
f 2/24/10 23/42/10 50/43/10
f 2/24/10 1/23/10 24/44/10 23/42/10
f 49/45/10 5/39/10 21/1/10
f 6/36/11 28/46/11 66/47/11
f 55/48/7 56/49/7 32/50/7 31/51/7
f 59/52/8 60/53/8 36/54/8 35/55/8
f 63/56/9 64/57/9 40/58/9 39/59/9
f 51/60/10 52/61/10 44/62/10 43/63/10
f 67/64/11 45/65/11 48/66/11 68/67/11
f 54/13/4 11/26/4 32/68/4 56/14/4
f 37/69/9 64/70/9 63/71/9 38/72/9
f 58/31/12 15/34/12 36/73/12 60/74/12
f 65/5/2 26/75/2 45/76/2 67/6/2
f 11/26/13 12/28/13 31/77/13 32/68/13
f 62/38/14 19/37/14 40/78/14 64/79/14
f 15/34/15 16/33/15 35/80/15 36/73/15
f 50/43/16 23/42/16 44/81/16 52/82/16
f 28/46/17 25/8/17 46/7/17 47/83/17
f 19/37/18 20/40/18 39/84/18 40/78/18
f 23/42/19 24/44/19 43/85/19 44/81/19
f 26/75/20 27/86/20 48/87/20 45/76/20
f 46/88/11 67/64/11 68/67/11 47/89/11
f 41/90/10 52/91/10 51/92/10 42/93/10
f 24/44/21 49/45/21 51/94/21 43/85/21
f 42/4/21 51/94/21 49/45/21 21/1/21
f 30/95/7 56/96/7 55/97/7 29/98/7
f 58/31/12 60/74/12 33/19/12 14/18/12
f 12/28/22 53/29/22 55/99/22 31/77/22
f 33/100/8 60/101/8 59/102/8 34/103/8
f 62/38/14 64/79/14 37/11/14 18/10/14
f 16/33/23 57/35/23 59/104/23 35/80/23
f 38/12/24 63/105/24 61/41/24 17/9/24
f 20/40/24 61/41/24 63/105/24 39/84/24
f 34/20/23 59/104/23 57/35/23 13/17/23
f 27/86/25 66/47/25 68/106/25 48/87/25
f 47/83/25 68/106/25 66/47/25 28/46/25
f 1/23/10 5/39/10 49/45/10
f 4/25/8 58/31/8 14/18/8
f 8/30/8 15/34/8 58/31/8
f 22/2/10 6/36/10 50/43/10
f 10/16/7 2/24/7 54/13/7
f 8/30/9 6/36/9 62/38/9
f 25/8/11 28/46/11 6/36/11 8/30/11
f 27/86/11 26/75/11 4/25/11 2/24/11
f 20/40/9 5/39/9 61/41/9
f 5/39/9 7/32/9 61/41/9
f 24/44/10 1/23/10 49/45/10
f 5/39/26 1/23/26 3/27/26 7/32/26
f 3/27/7 1/23/7 53/29/7
f 12/28/7 3/27/7 53/29/7
f 4/25/7 54/13/7 2/24/7
f 4/25/11 26/75/11 65/5/11
f 8/30/11 4/25/11 65/5/11
f 25/8/11 8/30/11 65/5/11
f 27/86/11 2/24/11 66/47/11
f 18/10/9 8/30/9 62/38/9
f 2/24/11 6/36/11 66/47/11
f 2/24/10 50/43/10 6/36/10
f 16/33/8 7/32/8 57/35/8
f 7/32/8 3/27/8 57/35/8
f 50/43/16 52/82/16 41/3/16 22/2/16
f 29/22/22 55/99/22 53/29/22 9/21/22
f 83/107/27 85/108/27 79/109/27 74/110/27
f 87/111/28 82/112/28 69/113/28 70/114/28
f 87/111/8 70/114/8 72/115/8 88/116/8
f 88/116/29 72/115/29 73/117/29
f 73/117/29 72/115/29 71/118/29 89/119/29
f 71/118/30 77/120/30 84/121/30
f 82/112/10 89/119/10 71/118/10 69/113/10
f 85/122/30 78/123/30 81/124/30 86/125/30
f 83/107/27 75/126/27 78/127/27 85/108/27
f 77/120/31 74/110/31 79/109/31 80/128/31
f 75/126/32 76/129/32 81/130/32 78/127/32
f 79/131/30 85/132/30 86/133/30 80/134/30
f 76/129/33 84/121/33 86/135/33 81/130/33
f 80/128/33 86/135/33 84/121/33 77/120/33
f 74/110/30 77/120/30 71/118/30 72/115/30
f 76/129/30 75/126/30 70/114/30 69/113/30
f 70/114/30 75/126/30 83/107/30
f 72/115/30 70/114/30 83/107/30
f 74/110/30 72/115/30 83/107/30
f 76/129/30 69/113/30 84/121/30
f 69/113/30 71/118/30 84/121/30
f 82/112/34 87/111/34 88/116/34 73/117/34 89/119/34
f 101/136/35 103/137/36 92/138/37 90/139/38
f 106/140/39 108/141/40 104/142/41 100/143/42
f 107/144/43 97/145/44 93/146/11 102/147/11
f 91/148/45 94/149/46 99/150/47 95/151/48
f 96/152/49 98/153/50 109/154/51 105/155/52
f 92/138/37 93/146/53 94/149/46
f 97/145/44 98/153/50 99/150/47
f 102/147/54 103/137/36 104/142/41
f 107/144/43 108/141/40 109/154/51
f 90/139/55 92/138/37 94/149/46 91/148/45
f 93/146/53 97/145/44 99/150/47 94/149/46
f 98/153/50 96/152/49 95/151/56 99/150/47
f 97/145/44 107/144/43 109/154/51 98/153/50
f 108/141/40 106/140/39 105/155/57 109/154/51
f 107/144/43 102/147/54 104/142/41 108/141/40
f 103/137/36 101/136/35 100/143/58 104/142/41
f 102/147/54 93/146/53 92/138/37 103/137/36
f 121/156/59 123/157/60 112/158/61 110/159/62
f 126/160/63 128/161/63 124/162/64 120/163/65
f 127/164/66 117/165/67 113/166/68 122/167/69
f 111/168/70 114/169/71 119/170/72 115/171/73
f 116/172/74 118/173/75 129/174/76 125/175/77
f 112/158/61 113/166/68 114/169/71
f 117/165/67 118/173/75 119/170/72
f 122/167/69 123/157/60 124/162/64
f 127/164/66 128/161/78 129/174/76
f 110/159/62 112/158/61 114/169/71 111/168/70
f 113/166/68 117/165/67 119/170/72 114/169/71
f 118/173/75 116/172/79 115/171/73 119/170/72
f 117/165/67 127/164/66 129/174/76 118/173/75
f 128/161/78 126/160/80 125/175/77 129/174/76
f 127/164/66 122/167/69 124/162/64 128/161/78
f 123/157/60 121/156/81 120/163/65 124/162/64
f 122/167/69 113/166/68 112/158/61 123/157/60
f 141/176/82 143/177/83 132/178/84 130/179/85
f 146/180/86 148/181/86 144/182/87 140/183/88
f 147/184/89 137/185/11 133/186/90 142/187/91
f 131/188/92 134/189/93 139/190/94 135/191/95
f 136/192/96 138/193/96 149/194/97 145/195/98
f 132/178/84 133/186/90 134/189/93
f 137/185/99 138/193/100 139/190/94
f 142/187/91 143/177/83 144/182/87
f 147/184/89 148/181/101 149/194/97
f 130/179/85 132/178/84 134/189/93 131/188/92
f 133/186/90 137/185/99 139/190/94 134/189/93
f 138/193/100 136/192/102 135/191/95 139/190/94
f 137/185/99 147/184/89 149/194/97 138/193/100
f 148/181/101 146/180/103 145/195/98 149/194/97
f 147/184/89 142/187/91 144/182/87 148/181/101
f 143/177/83 141/176/82 140/183/88 144/182/87
f 142/187/91 133/186/90 132/178/84 143/177/83
