# Blender v3.4.1 OBJ File: 'Medieval_Hexagons_Export_1.0_WorldOrigin.blend'
# www.blender.org
mtllib resource_stone.mtl
o resource_stone_Cube.568
v 0.056570 -0.000000 0.166407
v 0.070570 0.014000 0.166359
v 0.056618 0.014000 0.180406
v 0.070570 0.126000 0.166359
v 0.056570 0.140000 0.166407
v 0.056618 0.126000 0.180406
v -0.055429 -0.000000 0.166789
v -0.055382 0.014000 0.180789
v -0.069429 0.014000 0.166837
v -0.055429 0.140000 0.166789
v -0.069429 0.126000 0.166837
v -0.055382 0.126000 0.180789
v 0.055471 -0.000000 -0.155592
v 0.055423 0.014000 -0.169591
v 0.069471 0.014000 -0.155639
v 0.055471 0.140000 -0.155592
v 0.069471 0.126000 -0.155639
v 0.055423 0.126000 -0.169591
v -0.056528 -0.000000 -0.155209
v -0.070528 0.014000 -0.155162
v -0.056576 0.014000 -0.169209
v -0.056528 0.140000 -0.155209
v -0.056576 0.126000 -0.169209
v -0.070528 0.126000 -0.155162
v -0.083454 -0.000000 0.159880
v -0.069454 0.014000 0.159833
v -0.083406 0.014000 0.173880
v -0.069454 0.126000 0.159833
v -0.083454 0.140000 0.159880
v -0.083406 0.126000 0.173880
v -0.195453 -0.000000 0.160263
v -0.195405 0.014000 0.174262
v -0.209453 0.014000 0.160310
v -0.195453 0.140000 0.160263
v -0.209453 0.126000 0.160310
v -0.195405 0.126000 0.174262
v -0.084553 -0.000000 -0.162118
v -0.084600 0.014000 -0.176118
v -0.070553 0.014000 -0.162166
v -0.084553 0.140000 -0.162118
v -0.070553 0.126000 -0.162166
v -0.084600 0.126000 -0.176118
v -0.196552 -0.000000 -0.161736
v -0.210552 0.014000 -0.161688
v -0.196600 0.014000 -0.175736
v -0.196552 0.140000 -0.161736
v -0.196600 0.126000 -0.175736
v -0.210552 0.126000 -0.161688
v 0.196542 -0.000000 0.158936
v 0.210542 0.014000 0.158888
v 0.196590 0.014000 0.172936
v 0.210542 0.126000 0.158888
v 0.196542 0.140000 0.158936
v 0.196590 0.126000 0.172936
v 0.084542 -0.000000 0.159318
v 0.084590 0.014000 0.173318
v 0.070543 0.014000 0.159366
v 0.084542 0.140000 0.159318
v 0.070543 0.126000 0.159366
v 0.084590 0.126000 0.173318
v 0.195443 -0.000000 -0.163062
v 0.195395 0.014000 -0.177062
v 0.209443 0.014000 -0.163110
v 0.195443 0.140000 -0.163062
v 0.209443 0.126000 -0.163110
v 0.195395 0.126000 -0.177062
v 0.083444 -0.000000 -0.162680
v 0.069444 0.014000 -0.162632
v 0.083396 0.014000 -0.176680
v 0.083444 0.140000 -0.162680
v 0.083396 0.126000 -0.176680
v 0.069444 0.126000 -0.162632
v -0.027455 0.139997 0.159692
v -0.013455 0.153997 0.159644
v -0.027407 0.153997 0.173691
v -0.013455 0.265997 0.159644
v -0.027455 0.279997 0.159692
v -0.027407 0.265997 0.173691
v -0.139454 0.139997 0.160074
v -0.139407 0.153997 0.174074
v -0.153454 0.153997 0.160122
v -0.139454 0.279997 0.160074
v -0.153454 0.265997 0.160122
v -0.139407 0.265997 0.174074
v -0.028554 0.139997 -0.162307
v -0.028602 0.153997 -0.176306
v -0.014554 0.153997 -0.162354
v -0.028554 0.279997 -0.162307
v -0.014554 0.265997 -0.162354
v -0.028602 0.265997 -0.176306
v -0.140553 0.139997 -0.161924
v -0.154553 0.153997 -0.161877
v -0.140601 0.153997 -0.175924
v -0.140553 0.279997 -0.161924
v -0.140601 0.265997 -0.175924
v -0.154553 0.265997 -0.161877
v 0.140542 0.139997 0.159125
v 0.154542 0.153997 0.159077
v 0.140590 0.153997 0.173125
v 0.154542 0.265997 0.159077
v 0.140542 0.279997 0.159125
v 0.140590 0.265997 0.173125
v 0.028543 0.139997 0.159507
v 0.028591 0.153997 0.173507
v 0.014543 0.153997 0.159555
v 0.028543 0.279997 0.159507
v 0.014543 0.265997 0.159555
v 0.028591 0.265997 0.173507
v 0.139444 0.139997 -0.162873
v 0.139396 0.153997 -0.176873
v 0.153444 0.153997 -0.162921
v 0.139444 0.279997 -0.162873
v 0.153444 0.265997 -0.162921
v 0.139396 0.265997 -0.176873
v 0.027444 0.139997 -0.162491
v 0.013444 0.153997 -0.162443
v 0.027397 0.153997 -0.176491
v 0.027444 0.279997 -0.162491
v 0.027397 0.265997 -0.176491
v 0.013444 0.265997 -0.162443
vt 0.323338 0.861090
vt 0.323338 0.888913
vt 0.270406 0.888913
vt 0.270406 0.861090
vt 0.325639 0.861090
vt 0.325639 0.888913
vt 0.325639 0.888913
vt 0.325639 0.861090
vt 0.323338 0.923640
vt 0.270406 0.923640
vt 0.270406 0.923640
vt 0.323338 0.923640
vt 0.268103 0.861090
vt 0.268103 0.888913
vt 0.268103 0.888913
vt 0.268103 0.861090
vt 0.270406 0.861090
vt 0.270406 0.888913
vt 0.323338 0.888913
vt 0.323338 0.861090
vt 0.270406 0.841989
vt 0.270406 0.845465
vt 0.268103 0.845465
vt 0.270406 0.935788
vt 0.270406 0.939265
vt 0.268103 0.935788
vt 0.270406 0.841989
vt 0.268103 0.845465
vt 0.270406 0.845465
vt 0.270406 0.939265
vt 0.270406 0.935788
vt 0.268103 0.935788
vt 0.323338 0.841989
vt 0.325639 0.845465
vt 0.323338 0.845465
vt 0.323338 0.939265
vt 0.323338 0.935788
vt 0.325639 0.935788
vt 0.323338 0.841989
vt 0.323338 0.845465
vt 0.325639 0.845465
vt 0.323338 0.939265
vt 0.325639 0.935788
vt 0.323338 0.935788
vt 0.270406 0.876715
vt 0.270406 0.904538
vt 0.268103 0.904538
vt 0.268103 0.876715
vt 0.270406 0.904538
vt 0.270406 0.876715
vt 0.268103 0.876715
vt 0.268103 0.904538
vt 0.325639 0.904538
vt 0.325639 0.876715
vt 0.323338 0.876715
vt 0.323338 0.904538
vt 0.323338 0.904538
vt 0.323338 0.876715
vt 0.325639 0.876715
vt 0.325639 0.904538
vt 0.270406 0.826364
vt 0.323338 0.826364
vt 0.323338 0.826364
vt 0.270406 0.826364
vt 0.323338 0.861090
vt 0.323338 0.888913
vt 0.270406 0.888913
vt 0.270406 0.861090
vt 0.325639 0.861090
vt 0.325639 0.888913
vt 0.325639 0.888913
vt 0.325639 0.861090
vt 0.323338 0.923640
vt 0.270406 0.923640
vt 0.270406 0.923640
vt 0.323338 0.923640
vt 0.268103 0.861090
vt 0.268103 0.888913
vt 0.268103 0.888913
vt 0.268103 0.861090
vt 0.270406 0.861090
vt 0.270406 0.888913
vt 0.323338 0.888913
vt 0.323338 0.861090
vt 0.270406 0.841989
vt 0.270406 0.845465
vt 0.268103 0.845465
vt 0.270406 0.935788
vt 0.270406 0.939265
vt 0.268103 0.935788
vt 0.270406 0.841989
vt 0.268103 0.845465
vt 0.270406 0.845465
vt 0.270406 0.939265
vt 0.270406 0.935788
vt 0.268103 0.935788
vt 0.323338 0.841989
vt 0.325639 0.845465
vt 0.323338 0.845465
vt 0.323338 0.939265
vt 0.323338 0.935788
vt 0.325639 0.935788
vt 0.323338 0.841989
vt 0.323338 0.845465
vt 0.325639 0.845465
vt 0.323338 0.939265
vt 0.325639 0.935788
vt 0.323338 0.935788
vt 0.270406 0.876715
vt 0.270406 0.904538
vt 0.268103 0.904538
vt 0.268103 0.876715
vt 0.270406 0.904538
vt 0.270406 0.876715
vt 0.268103 0.876715
vt 0.268103 0.904538
vt 0.325639 0.904538
vt 0.325639 0.876715
vt 0.323338 0.876715
vt 0.323338 0.904538
vt 0.323338 0.904538
vt 0.323338 0.876715
vt 0.325639 0.876715
vt 0.325639 0.904538
vt 0.270406 0.826364
vt 0.323338 0.826364
vt 0.323338 0.826364
vt 0.270406 0.826364
vt 0.323338 0.861090
vt 0.323338 0.888913
vt 0.270406 0.888913
vt 0.270406 0.861090
vt 0.325639 0.861090
vt 0.325639 0.888913
vt 0.325639 0.888913
vt 0.325639 0.861090
vt 0.323338 0.923640
vt 0.270406 0.923640
vt 0.270406 0.923640
vt 0.323338 0.923640
vt 0.268103 0.861090
vt 0.268103 0.888913
vt 0.268103 0.888913
vt 0.268103 0.861090
vt 0.270406 0.861090
vt 0.270406 0.888913
vt 0.323338 0.888913
vt 0.323338 0.861090
vt 0.270406 0.841989
vt 0.270406 0.845465
vt 0.268103 0.845465
vt 0.270406 0.935788
vt 0.270406 0.939265
vt 0.268103 0.935788
vt 0.270406 0.841989
vt 0.268103 0.845465
vt 0.270406 0.845465
vt 0.270406 0.939265
vt 0.270406 0.935788
vt 0.268103 0.935788
vt 0.323338 0.841989
vt 0.325639 0.845465
vt 0.323338 0.845465
vt 0.323338 0.939265
vt 0.323338 0.935788
vt 0.325639 0.935788
vt 0.323338 0.841989
vt 0.323338 0.845465
vt 0.325639 0.845465
vt 0.323338 0.939265
vt 0.325639 0.935788
vt 0.323338 0.935788
vt 0.270406 0.876715
vt 0.270406 0.904538
vt 0.268103 0.904538
vt 0.268103 0.876715
vt 0.270406 0.904538
vt 0.270406 0.876715
vt 0.268103 0.876715
vt 0.268103 0.904538
vt 0.325639 0.904538
vt 0.325639 0.876715
vt 0.323338 0.876715
vt 0.323338 0.904538
vt 0.323338 0.904538
vt 0.323338 0.876715
vt 0.325639 0.876715
vt 0.325639 0.904538
vt 0.270406 0.826364
vt 0.323338 0.826364
vt 0.323338 0.826364
vt 0.270406 0.826364
vt 0.323338 0.861090
vt 0.323338 0.888913
vt 0.270406 0.888913
vt 0.270406 0.861090
vt 0.325639 0.861090
vt 0.325639 0.888913
vt 0.325639 0.888913
vt 0.325639 0.861090
vt 0.323338 0.923640
vt 0.270406 0.923640
vt 0.270406 0.923640
vt 0.323338 0.923640
vt 0.268103 0.861090
vt 0.268103 0.888913
vt 0.268103 0.888913
vt 0.268103 0.861090
vt 0.270406 0.861090
vt 0.270406 0.888913
vt 0.323338 0.888913
vt 0.323338 0.861090
vt 0.270406 0.841989
vt 0.270406 0.845465
vt 0.268103 0.845465
vt 0.270406 0.935788
vt 0.270406 0.939265
vt 0.268103 0.935788
vt 0.270406 0.841989
vt 0.268103 0.845465
vt 0.270406 0.845465
vt 0.270406 0.939265
vt 0.270406 0.935788
vt 0.268103 0.935788
vt 0.323338 0.841989
vt 0.325639 0.845465
vt 0.323338 0.845465
vt 0.323338 0.939265
vt 0.323338 0.935788
vt 0.325639 0.935788
vt 0.323338 0.841989
vt 0.323338 0.845465
vt 0.325639 0.845465
vt 0.323338 0.939265
vt 0.325639 0.935788
vt 0.323338 0.935788
vt 0.270406 0.876715
vt 0.270406 0.904538
vt 0.268103 0.904538
vt 0.268103 0.876715
vt 0.270406 0.904538
vt 0.270406 0.876715
vt 0.268103 0.876715
vt 0.268103 0.904538
vt 0.325639 0.904538
vt 0.325639 0.876715
vt 0.323338 0.876715
vt 0.323338 0.904538
vt 0.323338 0.904538
vt 0.323338 0.876715
vt 0.325639 0.876715
vt 0.325639 0.904538
vt 0.270406 0.826364
vt 0.323338 0.826364
vt 0.323338 0.826364
vt 0.270406 0.826364
vt 0.323338 0.861090
vt 0.323338 0.888913
vt 0.270406 0.888913
vt 0.270406 0.861090
vt 0.325639 0.861090
vt 0.325639 0.888913
vt 0.325639 0.888913
vt 0.325639 0.861090
vt 0.323338 0.923640
vt 0.270406 0.923640
vt 0.270406 0.923640
vt 0.323338 0.923640
vt 0.268103 0.861090
vt 0.268103 0.888913
vt 0.268103 0.888913
vt 0.268103 0.861090
vt 0.270406 0.861090
vt 0.270406 0.888913
vt 0.323338 0.888913
vt 0.323338 0.861090
vt 0.270406 0.841989
vt 0.270406 0.845465
vt 0.268103 0.845465
vt 0.270406 0.935788
vt 0.270406 0.939265
vt 0.268103 0.935788
vt 0.270406 0.841989
vt 0.268103 0.845465
vt 0.270406 0.845465
vt 0.270406 0.939265
vt 0.270406 0.935788
vt 0.268103 0.935788
vt 0.323338 0.841989
vt 0.325639 0.845465
vt 0.323338 0.845465
vt 0.323338 0.939265
vt 0.323338 0.935788
vt 0.325639 0.935788
vt 0.323338 0.841989
vt 0.323338 0.845465
vt 0.325639 0.845465
vt 0.323338 0.939265
vt 0.325639 0.935788
vt 0.323338 0.935788
vt 0.270406 0.876715
vt 0.270406 0.904538
vt 0.268103 0.904538
vt 0.268103 0.876715
vt 0.270406 0.904538
vt 0.270406 0.876715
vt 0.268103 0.876715
vt 0.268103 0.904538
vt 0.325639 0.904538
vt 0.325639 0.876715
vt 0.323338 0.876715
vt 0.323338 0.904538
vt 0.323338 0.904538
vt 0.323338 0.876715
vt 0.325639 0.876715
vt 0.325639 0.904538
vt 0.270406 0.826364
vt 0.323338 0.826364
vt 0.323338 0.826364
vt 0.270406 0.826364
vn 0.8744 -0.3416 -0.3446
vn 0.8744 0.3416 -0.3446
vn 0.8767 0.3416 0.3386
vn 0.8767 -0.3416 0.3386
vn -0.3446 -0.3416 -0.8744
vn -0.3446 0.3416 -0.8744
vn 0.3386 0.3416 -0.8767
vn 0.3386 -0.3416 -0.8767
vn -0.3427 0.8756 -0.3404
vn -0.3404 0.8756 0.3427
vn 0.0000 1.0000 -0.0000
vn 0.3446 -0.3416 0.8744
vn 0.3446 0.3416 0.8744
vn -0.3386 0.3416 0.8767
vn -0.3386 -0.3416 0.8767
vn -0.8744 -0.3416 0.3446
vn -0.8744 0.3416 0.3446
vn -1.0000 0.0000 0.0034
vn 0.4621 -0.7588 0.4590
vn 0.4621 0.7588 0.4590
vn -0.3404 -0.8756 0.3427
vn 0.4590 -0.7588 -0.4621
vn 0.4590 0.7588 -0.4621
vn -0.3427 -0.8756 -0.3404
vn -0.7604 -0.4606 -0.4580
vn -0.7604 0.4606 -0.4580
vn 0.0000 -1.0000 -0.0000
vn 0.3404 0.8756 -0.3427
vn -0.3404 -0.8756 0.3428
vn 1.0000 0.0000 -0.0034
vn -0.0034 0.0000 -1.0000
vn 0.3427 0.8756 0.3404
vn -0.8767 0.3416 -0.3386
vn -0.8767 -0.3416 -0.3386
vn 0.3427 -0.8756 0.3404
vn -0.4590 -0.7588 0.4621
vn -0.4590 0.7588 0.4621
vn 0.3404 -0.8756 -0.3427
vn 0.7572 -0.4606 -0.4631
vn 0.7572 0.4606 -0.4631
vn -0.4632 0.4606 -0.7572
vn 0.0034 0.0000 1.0000
vn 0.4631 -0.4606 0.7572
vn -0.4580 -0.4606 0.7604
vn 0.4580 -0.4606 -0.7604
vn 0.3404 0.8756 -0.3428
vn 0.3404 -0.8756 -0.3428
usemtl hexagons_medieval
s 1
f 15/1/1 17/2/2 4/3/3 2/4/4
f 21/5/5 23/6/6 18/7/7 14/8/8
f 22/9/9 10/10/10 5/11/11 16/12/11
f 3/13/12 6/14/13 12/15/14 8/16/15
f 9/17/16 11/18/17 24/19/18 20/20/18
f 1/21/19 2/22/4 3/23/12
f 4/24/3 5/25/20 6/26/13
f 7/27/21 8/28/15 9/29/16
f 10/30/10 11/31/17 12/32/14
f 13/33/22 14/34/8 15/35/1
f 16/36/23 17/37/2 18/38/7
f 19/39/24 20/40/25 21/41/5
f 22/42/9 23/43/6 24/44/26
f 7/27/21 1/21/19 3/23/12 8/28/15
f 2/45/4 4/46/3 6/47/13 3/48/12
f 5/25/20 10/30/10 12/32/14 6/26/13
f 11/49/17 9/50/16 8/51/15 12/52/14
f 19/39/24 7/27/21 9/29/16 20/40/25
f 10/30/10 22/42/9 24/44/26 11/31/17
f 23/53/6 21/54/5 20/55/25 24/56/26
f 13/33/22 19/39/24 21/41/5 14/34/8
f 22/42/9 16/36/23 18/38/7 23/43/6
f 17/57/2 15/58/1 14/59/8 18/60/7
f 1/21/19 13/33/22 15/35/1 2/22/4
f 16/36/23 5/25/20 4/24/3 17/37/2
f 7/61/21 19/62/24 13/63/27 1/64/27
f 39/65/1 41/66/2 28/67/3 26/68/4
f 45/69/5 47/70/6 42/71/7 38/72/8
f 46/73/9 34/74/10 29/75/11 40/76/28
f 27/77/12 30/78/13 36/79/14 32/80/15
f 33/81/16 35/82/17 48/83/18 44/84/18
f 25/85/19 26/86/4 27/87/12
f 28/88/3 29/89/20 30/90/13
f 31/91/29 32/92/15 33/93/16
f 34/94/10 35/95/17 36/96/14
f 37/97/22 38/98/8 39/99/1
f 40/100/28 41/101/2 42/102/7
f 43/103/24 44/104/25 45/105/5
f 46/106/9 47/107/6 48/108/26
f 31/91/29 25/85/19 27/87/12 32/92/15
f 26/109/4 28/110/3 30/111/13 27/112/12
f 29/89/20 34/94/10 36/96/14 30/90/13
f 35/113/17 33/114/16 32/115/15 36/116/14
f 43/103/24 31/91/29 33/93/16 44/104/25
f 34/94/10 46/106/9 48/108/26 35/95/17
f 47/117/6 45/118/5 44/119/25 48/120/26
f 37/97/22 43/103/24 45/105/5 38/98/8
f 46/106/9 40/100/28 42/102/7 47/107/6
f 41/121/2 39/122/1 38/123/8 42/124/7
f 25/85/19 37/97/22 39/99/1 26/86/4
f 40/100/28 29/89/20 28/88/3 41/101/2
f 31/125/29 43/126/24 37/127/27 25/128/27
f 63/129/30 65/130/30 52/131/3 50/132/4
f 69/133/5 71/134/31 66/135/7 62/136/8
f 70/137/9 58/138/11 53/139/32 64/140/28
f 51/141/12 54/142/13 60/143/14 56/144/15
f 57/145/16 59/146/17 72/147/33 68/148/34
f 49/149/35 50/150/4 51/151/12
f 52/152/3 53/153/32 54/154/13
f 55/155/36 56/156/15 57/157/16
f 58/158/37 59/159/17 60/160/14
f 61/161/38 62/162/8 63/163/39
f 64/164/28 65/165/40 66/166/7
f 67/167/24 68/168/34 69/169/5
f 70/170/9 71/171/41 72/172/33
f 55/155/36 49/149/35 51/151/12 56/156/15
f 50/173/4 52/174/3 54/175/13 51/176/12
f 53/153/32 58/158/37 60/160/14 54/154/13
f 59/177/17 57/178/16 56/179/15 60/180/14
f 67/167/24 55/155/36 57/157/16 68/168/34
f 58/158/37 70/170/9 72/172/33 59/159/17
f 71/181/41 69/182/5 68/183/34 72/184/33
f 61/161/38 67/167/24 69/169/5 62/162/8
f 70/170/9 64/164/28 66/166/7 71/171/41
f 65/185/40 63/186/39 62/187/8 66/188/7
f 49/149/35 61/161/38 63/163/39 50/150/4
f 64/164/28 53/153/32 52/152/3 65/165/40
f 55/189/27 67/190/24 61/191/38 49/192/35
f 87/193/1 89/194/2 76/195/3 74/196/4
f 93/197/5 95/198/6 90/199/7 86/200/31
f 94/201/9 82/202/10 77/203/11 88/204/11
f 75/205/42 78/206/13 84/207/14 80/208/42
f 81/209/16 83/210/17 96/211/33 92/212/34
f 73/213/35 74/214/4 75/215/43
f 76/216/3 77/217/20 78/218/13
f 79/219/21 80/220/44 81/221/16
f 82/222/10 83/223/17 84/224/14
f 85/225/38 86/226/45 87/227/1
f 88/228/23 89/229/2 90/230/7
f 91/231/24 92/232/34 93/233/5
f 94/234/9 95/235/6 96/236/33
f 79/219/21 73/213/35 75/215/43 80/220/44
f 74/237/4 76/238/3 78/239/13 75/240/43
f 77/217/20 82/222/10 84/224/14 78/218/13
f 83/241/17 81/242/16 80/243/44 84/244/14
f 91/231/24 79/219/21 81/221/16 92/232/34
f 82/222/10 94/234/9 96/236/33 83/223/17
f 95/245/6 93/246/5 92/247/34 96/248/33
f 85/225/38 91/231/24 93/233/5 86/226/45
f 94/234/9 88/228/23 90/230/7 95/235/6
f 89/249/2 87/250/1 86/251/45 90/252/7
f 73/213/35 85/225/38 87/227/1 74/214/4
f 88/228/23 77/217/20 76/216/3 89/229/2
f 79/253/21 91/254/24 85/255/38 73/256/35
f 111/257/1 113/258/2 100/259/3 98/260/4
f 117/261/5 119/262/6 114/263/7 110/264/8
f 118/265/9 106/266/10 101/267/32 112/268/46
f 99/269/12 102/270/13 108/271/14 104/272/15
f 105/273/16 107/274/17 120/275/33 116/276/34
f 97/277/35 98/278/4 99/279/12
f 100/280/3 101/281/32 102/282/13
f 103/283/21 104/284/15 105/285/16
f 106/286/10 107/287/17 108/288/14
f 109/289/47 110/290/8 111/291/1
f 112/292/46 113/293/2 114/294/7
f 115/295/24 116/296/34 117/297/5
f 118/298/9 119/299/6 120/300/33
f 103/283/21 97/277/35 99/279/12 104/284/15
f 98/301/4 100/302/3 102/303/13 99/304/12
f 101/281/32 106/286/10 108/288/14 102/282/13
f 107/305/17 105/306/16 104/307/15 108/308/14
f 115/295/24 103/283/21 105/285/16 116/296/34
f 106/286/10 118/298/9 120/300/33 107/287/17
f 119/309/6 117/310/5 116/311/34 120/312/33
f 109/289/47 115/295/24 117/297/5 110/290/8
f 118/298/9 112/292/46 114/294/7 119/299/6
f 113/313/2 111/314/1 110/315/8 114/316/7
f 97/277/35 109/289/47 111/291/1 98/278/4
f 112/292/46 101/281/32 100/280/3 113/293/2
f 103/317/21 115/318/24 109/319/47 97/320/35
