# Blender v3.4.1 OBJ File: 'Medieval_Hexagons_Export_1.0_WorldOrigin.blend'
# www.blender.org
mtllib target.mtl
o target
v -0.020000 0.000000 -0.100000
v -0.020000 0.160000 -0.060000
v 0.020000 0.000000 -0.100000
v 0.020000 0.160000 -0.060000
v -0.020000 0.000000 -0.060000
v -0.020000 0.160000 -0.020000
v 0.020000 0.000000 -0.060000
v 0.020000 0.160000 -0.020000
v -0.000000 0.175260 -0.024327
v -0.000000 0.184740 0.012327
v 0.069935 0.277931 -0.011774
v -0.000000 0.299931 -0.017463
v 0.113157 0.220336 0.003122
v 0.113157 0.149144 0.021533
v 0.069935 0.091548 0.036428
v -0.000000 0.069549 0.042118
v -0.069935 0.091548 0.036428
v -0.113157 0.149144 0.021533
v -0.113157 0.220336 0.003122
v -0.069935 0.277931 -0.011774
v 0.057574 0.261460 -0.007514
v -0.000000 0.279571 -0.012198
v 0.093157 0.214044 0.004749
v 0.093157 0.155435 0.019906
v 0.057574 0.108019 0.032169
v -0.000000 0.089908 0.036852
v -0.057575 0.108019 0.032169
v -0.093157 0.155435 0.019906
v -0.093157 0.214044 0.004749
v -0.057575 0.261460 -0.007514
v 0.039033 0.236753 -0.001124
v -0.000000 0.249032 -0.004300
v 0.063157 0.204607 0.007189
v 0.063157 0.164872 0.017465
v 0.039033 0.132726 0.025779
v -0.000000 0.120447 0.028954
v -0.039033 0.132726 0.025779
v -0.063157 0.164872 0.017465
v -0.063157 0.204607 0.007189
v -0.039033 0.236753 -0.001124
v 0.020492 0.212047 0.005265
v -0.000000 0.218493 0.003598
v 0.033157 0.195170 0.009630
v 0.033157 0.174309 0.015025
v 0.020492 0.157433 0.019389
v -0.000000 0.150986 0.021057
v -0.020492 0.157433 0.019389
v -0.033157 0.174309 0.015025
v -0.033157 0.195170 0.009630
v -0.020492 0.212047 0.005265
v -0.000000 0.301800 -0.037500
v 0.073948 0.278538 -0.031484
v 0.119650 0.217638 -0.015734
v 0.119650 0.142362 0.003734
v 0.073948 0.081462 0.019484
v -0.000000 0.058200 0.025500
v -0.073948 0.081462 0.019484
v -0.119650 0.142362 0.003734
v -0.119650 0.217638 -0.015734
v -0.073948 0.278538 -0.031484
v -0.000000 0.290451 -0.054118
v 0.069935 0.268452 -0.048428
v 0.113157 0.210856 -0.033533
v 0.113157 0.139664 -0.015122
v 0.069935 0.082069 -0.000226
v -0.000000 0.060069 0.005463
v -0.069935 0.082069 -0.000226
v -0.113157 0.139664 -0.015122
v -0.113157 0.210856 -0.033533
v -0.069935 0.268452 -0.048428
v -0.110001 0.000000 -0.020000
v -0.060001 0.160000 -0.060000
v -0.070001 0.000000 -0.020000
v -0.020001 0.160000 -0.060000
v -0.110001 0.000000 0.020000
v -0.060001 0.160000 -0.020000
v -0.070001 0.000000 0.020000
v -0.020001 0.160000 -0.020000
v 0.070001 0.000000 -0.020000
v 0.020001 0.160000 -0.060000
v 0.110001 0.000000 -0.020000
v 0.060001 0.160000 -0.060000
v 0.070001 0.000000 0.020000
v 0.020001 0.160000 -0.020000
v 0.110001 0.000000 0.020000
v 0.060001 0.160000 -0.020000
vt 0.784907 0.852936
vt 0.784907 0.907336
vt 0.795953 0.907336
vt 0.795953 0.852936
vt 0.795953 0.837311
vt 0.795953 0.891711
vt 0.795953 0.891420
vt 0.795953 0.837019
vt 0.795953 0.852644
vt 0.795953 0.907045
vt 0.784907 0.907045
vt 0.784907 0.852644
vt 0.784907 0.837019
vt 0.784907 0.891420
vt 0.784907 0.891711
vt 0.784907 0.837311
vt 0.795953 0.938295
vt 0.795953 0.938586
vt 0.784907 0.938586
vt 0.784907 0.938295
vt 0.784907 0.825446
vt 0.795953 0.825446
vt 0.795953 0.825446
vt 0.784907 0.825446
vt 0.187500 0.885029
vt 0.187500 0.885029
vt 0.211763 0.877145
vt 0.211763 0.877145
vt 0.226759 0.856506
vt 0.226759 0.856506
vt 0.226759 0.830994
vt 0.226759 0.830994
vt 0.211763 0.810355
vt 0.211763 0.810355
vt 0.187500 0.802471
vt 0.187500 0.802471
vt 0.163237 0.810355
vt 0.163237 0.810355
vt 0.148241 0.830994
vt 0.148241 0.830994
vt 0.148241 0.856506
vt 0.148241 0.856506
vt 0.163237 0.877145
vt 0.163237 0.877145
vt 0.187500 0.908983
vt 0.207475 0.902493
vt 0.211763 0.908395
vt 0.187500 0.916279
vt 0.219820 0.885501
vt 0.226759 0.887756
vt 0.219820 0.864499
vt 0.226759 0.862244
vt 0.207475 0.847507
vt 0.211763 0.841605
vt 0.187500 0.841017
vt 0.187500 0.833721
vt 0.167525 0.847507
vt 0.163237 0.841605
vt 0.155180 0.864499
vt 0.148241 0.862244
vt 0.155180 0.885501
vt 0.148241 0.887756
vt 0.167525 0.902493
vt 0.163237 0.908395
vt 0.812500 0.398039
vt 0.826041 0.393639
vt 0.832475 0.402493
vt 0.812500 0.408983
vt 0.834411 0.382120
vt 0.844820 0.385501
vt 0.834411 0.367880
vt 0.844820 0.364499
vt 0.826041 0.356361
vt 0.832475 0.347507
vt 0.812500 0.351961
vt 0.812500 0.341017
vt 0.798959 0.356361
vt 0.792525 0.347507
vt 0.790589 0.367880
vt 0.780180 0.364499
vt 0.790589 0.382120
vt 0.780180 0.385501
vt 0.798959 0.393639
vt 0.792525 0.402493
vt 0.187500 0.887096
vt 0.194610 0.884786
vt 0.201041 0.893639
vt 0.187500 0.898039
vt 0.199004 0.878738
vt 0.209411 0.882120
vt 0.199004 0.871262
vt 0.209411 0.867880
vt 0.194610 0.865214
vt 0.201041 0.856361
vt 0.187500 0.862904
vt 0.187500 0.851961
vt 0.180390 0.865214
vt 0.173959 0.856361
vt 0.175996 0.871262
vt 0.165589 0.867880
vt 0.175996 0.878738
vt 0.165589 0.882120
vt 0.180390 0.884786
vt 0.173959 0.893639
vt 0.812500 0.375000
vt 0.819610 0.384786
vt 0.812500 0.387096
vt 0.824004 0.378738
vt 0.824004 0.371262
vt 0.819610 0.365214
vt 0.812500 0.362904
vt 0.805390 0.365214
vt 0.800996 0.371262
vt 0.800996 0.378738
vt 0.805390 0.384786
vt 0.163237 0.877145
vt 0.187500 0.885029
vt 0.148241 0.856506
vt 0.148241 0.830994
vt 0.163237 0.810355
vt 0.187500 0.802471
vt 0.211763 0.810355
vt 0.226759 0.830994
vt 0.226759 0.856506
vt 0.211763 0.877145
vt 0.187500 0.899026
vt 0.187500 0.900654
vt 0.211763 0.892770
vt 0.210806 0.891453
vt 0.226759 0.872131
vt 0.225211 0.871628
vt 0.226759 0.846619
vt 0.225211 0.847122
vt 0.211763 0.825980
vt 0.210806 0.827297
vt 0.187500 0.818096
vt 0.187500 0.819724
vt 0.163237 0.825980
vt 0.164194 0.827297
vt 0.148241 0.846619
vt 0.149789 0.847122
vt 0.148241 0.872131
vt 0.149789 0.871628
vt 0.163237 0.892770
vt 0.164194 0.891453
vt 0.784907 0.852936
vt 0.784907 0.907336
vt 0.795953 0.907336
vt 0.795953 0.852936
vt 0.795953 0.837311
vt 0.795953 0.891711
vt 0.795953 0.891420
vt 0.795953 0.837019
vt 0.795953 0.852644
vt 0.795953 0.907045
vt 0.784907 0.907045
vt 0.784907 0.852644
vt 0.784907 0.837019
vt 0.784907 0.891420
vt 0.784907 0.891711
vt 0.784907 0.837311
vt 0.795953 0.938295
vt 0.795953 0.938586
vt 0.784907 0.938586
vt 0.784907 0.938295
vt 0.784907 0.825446
vt 0.795953 0.825446
vt 0.795953 0.825446
vt 0.784907 0.825446
vt 0.784907 0.852936
vt 0.784907 0.907336
vt 0.795953 0.907336
vt 0.795953 0.852936
vt 0.795953 0.837311
vt 0.795953 0.891711
vt 0.795953 0.891420
vt 0.795953 0.837019
vt 0.795953 0.852644
vt 0.795953 0.907045
vt 0.784907 0.907045
vt 0.784907 0.852644
vt 0.784907 0.837019
vt 0.784907 0.891420
vt 0.784907 0.891711
vt 0.784907 0.837311
vt 0.795953 0.938295
vt 0.795953 0.938586
vt 0.784907 0.938586
vt 0.784907 0.938295
vt 0.784907 0.825446
vt 0.795953 0.825446
vt 0.795953 0.825446
vt 0.784907 0.825446
vn 0.0000 0.2425 -0.9701
vn 1.0000 0.0000 0.0000
vn 0.0000 -0.2425 0.9701
vn -1.0000 0.0000 0.0000
vn 0.0000 1.0000 0.0000
vn 0.0000 -1.0000 0.0000
vn -0.0000 0.9681 -0.2504
vn 0.0000 0.9957 0.0929
vn 0.5529 0.8217 0.1379
vn 0.5878 0.7832 -0.2026
vn 0.8947 0.3664 0.2556
vn 0.9511 0.2992 -0.0774
vn 0.8947 -0.1965 0.4012
vn 0.9511 -0.2992 0.0774
vn 0.5529 -0.6519 0.5190
vn 0.5878 -0.7832 0.2026
vn -0.0000 -0.8258 0.5640
vn -0.0000 -0.9681 0.2504
vn -0.5529 -0.6519 0.5190
vn -0.5878 -0.7832 0.2026
vn -0.8947 -0.1965 0.4012
vn -0.9511 -0.2992 0.0774
vn -0.8947 0.3664 0.2556
vn -0.9511 0.2992 -0.0774
vn -0.5529 0.8217 0.1379
vn -0.5878 0.7832 -0.2026
vn 0.0000 0.2504 0.9681
vn -0.5529 0.6519 -0.5190
vn -0.0000 0.8258 -0.5640
vn -0.8947 0.1965 -0.4012
vn -0.8947 -0.3664 -0.2556
vn -0.5529 -0.8217 -0.1379
vn 0.0000 -0.9957 -0.0929
vn 0.5529 -0.8217 -0.1379
vn 0.8947 -0.3664 -0.2556
vn 0.8947 0.1965 -0.4012
vn 0.5529 0.6519 -0.5190
vn 0.0000 -0.2504 -0.9681
vn 0.0000 -0.2425 -0.9701
vn 0.9545 -0.2983 0.0000
vn 0.0000 0.2425 0.9701
vn -0.9545 0.2983 0.0000
vn 0.9545 0.2983 0.0000
vn -0.9545 -0.2983 0.0000
usemtl hexagons_medieval
s 1
f 1/1/1 2/2/1 4/3/1 3/4/1
f 3/5/2 4/6/2 8/7/2 7/8/2
f 7/9/3 8/10/3 6/11/3 5/12/3
f 5/13/4 6/14/4 2/15/4 1/16/4
f 8/17/5 4/18/5 2/19/5 6/20/5
f 1/21/6 3/22/6 7/23/6 5/24/6
f 51/25/7 12/26/8 11/27/9 52/28/10
f 52/28/10 11/27/9 13/29/11 53/30/12
f 53/30/12 13/29/11 14/31/13 54/32/14
f 54/32/14 14/31/13 15/33/15 55/34/16
f 55/34/16 15/33/15 16/35/17 56/36/18
f 56/36/18 16/35/17 17/37/19 57/38/20
f 57/38/20 17/37/19 18/39/21 58/40/22
f 58/40/22 18/39/21 19/41/23 59/42/24
f 59/42/24 19/41/23 20/43/25 60/44/26
f 60/44/26 20/43/25 12/26/8 51/25/7
f 22/45/27 21/46/27 11/47/27 12/48/27
f 21/46/27 23/49/27 13/50/27 11/47/27
f 23/49/27 24/51/27 14/52/27 13/50/27
f 24/51/27 25/53/27 15/54/27 14/52/27
f 25/53/27 26/55/27 16/56/27 15/54/27
f 26/55/27 27/57/27 17/58/27 16/56/27
f 27/57/27 28/59/27 18/60/27 17/58/27
f 28/59/27 29/61/27 19/62/27 18/60/27
f 29/61/27 30/63/27 20/64/27 19/62/27
f 30/63/27 22/45/27 12/48/27 20/64/27
f 32/65/27 31/66/27 21/67/27 22/68/27
f 31/66/27 33/69/27 23/70/27 21/67/27
f 33/69/27 34/71/27 24/72/27 23/70/27
f 34/71/27 35/73/27 25/74/27 24/72/27
f 35/73/27 36/75/27 26/76/27 25/74/27
f 36/75/27 37/77/27 27/78/27 26/76/27
f 37/77/27 38/79/27 28/80/27 27/78/27
f 38/79/27 39/81/27 29/82/27 28/80/27
f 39/81/27 40/83/27 30/84/27 29/82/27
f 40/83/27 32/65/27 22/68/27 30/84/27
f 42/85/27 41/86/27 31/87/27 32/88/27
f 41/86/27 43/89/27 33/90/27 31/87/27
f 43/89/27 44/91/27 34/92/27 33/90/27
f 44/91/27 45/93/27 35/94/27 34/92/27
f 45/93/27 46/95/27 36/96/27 35/94/27
f 46/95/27 47/97/27 37/98/27 36/96/27
f 47/97/27 48/99/27 38/100/27 37/98/27
f 48/99/27 49/101/27 39/102/27 38/100/27
f 49/101/27 50/103/27 40/104/27 39/102/27
f 50/103/27 42/85/27 32/88/27 40/104/27
f 10/105/27 41/106/27 42/107/27
f 10/105/27 43/108/27 41/106/27
f 10/105/27 44/109/27 43/108/27
f 10/105/27 45/110/27 44/109/27
f 10/105/27 46/111/27 45/110/27
f 10/105/27 47/112/27 46/111/27
f 10/105/27 48/113/27 47/112/27
f 10/105/27 49/114/27 48/113/27
f 10/105/27 50/115/27 49/114/27
f 10/105/27 42/107/27 50/115/27
f 70/116/28 60/44/26 51/25/7 61/117/29
f 69/118/30 59/42/24 60/44/26 70/116/28
f 68/119/31 58/40/22 59/42/24 69/118/30
f 67/120/32 57/38/20 58/40/22 68/119/31
f 66/121/33 56/36/18 57/38/20 67/120/32
f 65/122/34 55/34/16 56/36/18 66/121/33
f 64/123/35 54/32/14 55/34/16 65/122/34
f 63/124/36 53/30/12 54/32/14 64/123/35
f 62/125/37 52/28/10 53/30/12 63/124/36
f 61/117/29 51/25/7 52/28/10 62/125/37
f 9/126/38 61/127/38 62/128/38
f 9/129/38 62/128/38 63/130/38
f 9/131/38 63/130/38 64/132/38
f 9/133/38 64/132/38 65/134/38
f 9/135/38 65/134/38 66/136/38
f 9/137/38 66/136/38 67/138/38
f 9/139/38 67/138/38 68/140/38
f 9/141/38 68/140/38 69/142/38
f 9/143/38 69/142/38 70/144/38
f 9/145/38 70/144/38 61/127/38
f 71/146/39 72/147/39 74/148/39 73/149/39
f 73/150/40 74/151/40 78/152/40 77/153/40
f 77/154/41 78/155/41 76/156/41 75/157/41
f 75/158/42 76/159/42 72/160/42 71/161/42
f 78/162/5 74/163/5 72/164/5 76/165/5
f 71/166/6 73/167/6 77/168/6 75/169/6
f 79/170/39 80/171/39 82/172/39 81/173/39
f 81/174/43 82/175/43 86/176/43 85/177/43
f 85/178/41 86/179/41 84/180/41 83/181/41
f 83/182/44 84/183/44 80/184/44 79/185/44
f 86/186/5 82/187/5 80/188/5 84/189/5
f 79/190/6 81/191/6 85/192/6 83/193/6
