# Blender v3.4.1 OBJ File: 'Medieval_Hexagons_Export_1.0_WorldOrigin.blend'
# www.blender.org
mtllib tent.mtl
o tent
v -0.189200 0.265200 0.197800
v -0.189200 0.309600 0.197800
v 0.189200 0.265200 0.197800
v 0.189200 0.309600 0.197800
v -0.189200 0.265200 0.232200
v -0.189200 0.309600 0.232200
v 0.189200 0.265200 0.232200
v 0.189200 0.309600 0.232200
v 0.184900 0.000000 0.184900
v 0.184900 0.344000 0.184900
v 0.245100 0.000000 0.184900
v 0.245100 0.344000 0.184900
v 0.184900 0.000000 0.245100
v 0.184900 0.344000 0.245100
v 0.245100 0.000000 0.245100
v 0.245100 0.344000 0.245100
v 0.184900 0.000000 -0.245100
v 0.184900 0.344000 -0.245100
v 0.245100 0.000000 -0.245100
v 0.245100 0.344000 -0.245100
v 0.184900 0.000000 -0.184900
v 0.184900 0.344000 -0.184900
v 0.245100 0.000000 -0.184900
v 0.245100 0.344000 -0.184900
v -0.245100 0.000000 -0.245100
v -0.245100 0.344000 -0.245100
v -0.184900 0.000000 -0.245100
v -0.184900 0.344000 -0.245100
v -0.245100 0.000000 -0.184900
v -0.245100 0.344000 -0.184900
v -0.184900 0.000000 -0.184900
v -0.184900 0.344000 -0.184900
v -0.245100 0.000000 0.184900
v -0.245100 0.344000 0.184900
v -0.184900 0.000000 0.184900
v -0.184900 0.344000 0.184900
v -0.245100 0.000000 0.245100
v -0.245100 0.344000 0.245100
v -0.184900 0.000000 0.245100
v -0.184900 0.344000 0.245100
v -0.197800 0.265200 -0.189200
v -0.197800 0.309600 -0.189200
v -0.197800 0.265200 0.189200
v -0.197800 0.309600 0.189200
v -0.232200 0.265200 -0.189200
v -0.232200 0.309600 -0.189200
v -0.232200 0.265200 0.189200
v -0.232200 0.309600 0.189200
v 0.189200 0.265200 -0.197800
v 0.189200 0.309600 -0.197800
v -0.189200 0.265200 -0.197800
v -0.189200 0.309600 -0.197800
v 0.189200 0.265200 -0.232200
v 0.189200 0.309600 -0.232200
v -0.189200 0.265200 -0.232200
v -0.189200 0.309600 -0.232200
v 0.197800 0.265200 0.189200
v 0.197800 0.309600 0.189200
v 0.197800 0.265200 -0.189200
v 0.197800 0.309600 -0.189200
v 0.232200 0.265200 0.189200
v 0.232200 0.309600 0.189200
v 0.232200 0.265200 -0.189200
v 0.232200 0.309600 -0.189200
v 0.000000 0.516000 0.000000
v -0.258000 0.344000 0.258000
v -0.258000 0.344000 -0.258000
v 0.258000 0.344000 0.258000
v 0.258000 0.344000 -0.258000
v -0.258000 0.304000 0.258000
v -0.258000 0.304000 -0.258000
v 0.258000 0.304000 0.258000
v 0.258000 0.304000 -0.258000
vt 0.784907 0.852936
vt 0.784907 0.907336
vt 0.795953 0.907336
vt 0.795953 0.852936
vt 0.795953 0.852644
vt 0.795953 0.907045
vt 0.784907 0.907045
vt 0.784907 0.852644
vt 0.784907 0.837311
vt 0.795953 0.837311
vt 0.784907 0.837019
vt 0.784907 0.852936
vt 0.784907 0.907336
vt 0.795953 0.907336
vt 0.795953 0.852936
vt 0.795953 0.837311
vt 0.795953 0.891711
vt 0.795953 0.891420
vt 0.795953 0.837019
vt 0.795953 0.852644
vt 0.795953 0.907045
vt 0.784907 0.907045
vt 0.784907 0.852644
vt 0.784907 0.837019
vt 0.784907 0.891420
vt 0.784907 0.891711
vt 0.784907 0.837311
vt 0.795953 0.938295
vt 0.795953 0.938586
vt 0.784907 0.938586
vt 0.784907 0.938295
vt 0.784907 0.852936
vt 0.784907 0.907336
vt 0.795953 0.907336
vt 0.795953 0.852936
vt 0.795953 0.837311
vt 0.795953 0.891711
vt 0.795953 0.891420
vt 0.795953 0.837019
vt 0.795953 0.852644
vt 0.795953 0.907045
vt 0.784907 0.907045
vt 0.784907 0.852644
vt 0.784907 0.837019
vt 0.784907 0.891420
vt 0.784907 0.891711
vt 0.784907 0.837311
vt 0.795953 0.938295
vt 0.795953 0.938586
vt 0.784907 0.938586
vt 0.784907 0.938295
vt 0.784907 0.852936
vt 0.784907 0.907336
vt 0.795953 0.907336
vt 0.795953 0.852936
vt 0.795953 0.837311
vt 0.795953 0.891711
vt 0.795953 0.891420
vt 0.795953 0.837019
vt 0.795953 0.852644
vt 0.795953 0.907045
vt 0.784907 0.907045
vt 0.784907 0.852644
vt 0.784907 0.837019
vt 0.784907 0.891420
vt 0.784907 0.891711
vt 0.784907 0.837311
vt 0.795953 0.938295
vt 0.795953 0.938586
vt 0.784907 0.938586
vt 0.784907 0.938295
vt 0.784907 0.852936
vt 0.784907 0.907336
vt 0.795953 0.907336
vt 0.795953 0.852936
vt 0.795953 0.837311
vt 0.795953 0.891711
vt 0.795953 0.891420
vt 0.795953 0.837019
vt 0.795953 0.852644
vt 0.795953 0.907045
vt 0.784907 0.907045
vt 0.784907 0.852644
vt 0.784907 0.837019
vt 0.784907 0.891420
vt 0.784907 0.891711
vt 0.784907 0.837311
vt 0.795953 0.938295
vt 0.795953 0.938586
vt 0.784907 0.938586
vt 0.784907 0.938295
vt 0.784907 0.852936
vt 0.784907 0.907336
vt 0.795953 0.907336
vt 0.795953 0.852936
vt 0.795953 0.852644
vt 0.795953 0.907045
vt 0.784907 0.907045
vt 0.784907 0.852644
vt 0.784907 0.837311
vt 0.795953 0.837311
vt 0.784907 0.837019
vt 0.784907 0.852936
vt 0.784907 0.907336
vt 0.795953 0.907336
vt 0.795953 0.852936
vt 0.795953 0.852644
vt 0.795953 0.907045
vt 0.784907 0.907045
vt 0.784907 0.852644
vt 0.784907 0.837311
vt 0.795953 0.837311
vt 0.784907 0.837019
vt 0.784907 0.852936
vt 0.784907 0.907336
vt 0.795953 0.907336
vt 0.795953 0.852936
vt 0.795953 0.852644
vt 0.795953 0.907045
vt 0.784907 0.907045
vt 0.784907 0.852644
vt 0.784907 0.837311
vt 0.795953 0.837311
vt 0.784907 0.837019
vt 0.679087 0.666865
vt 0.710307 0.657218
vt 0.647868 0.605556
vt 0.710307 0.657218
vt 0.710307 0.605556
vt 0.647868 0.657218
vt 0.710307 0.605556
vt 0.647868 0.657218
vt 0.647868 0.605556
vt 0.647868 0.657218
vt 0.647868 0.605556
vt 0.647868 0.657218
vt 0.710307 0.605556
vt 0.710307 0.657218
vt 0.647868 0.605556
vt 0.710307 0.657218
vt 0.710307 0.605556
vt 0.647868 0.571596
vt 0.647868 0.571596
vt 0.710307 0.571596
vt 0.710307 0.571596
vn 0.0000 0.0000 -1.0000
vn 0.0000 0.0000 1.0000
vn 0.0000 -1.0000 0.0000
vn 1.0000 0.0000 0.0000
vn -1.0000 0.0000 0.0000
vn 0.0000 1.0000 0.0000
vn 0.0000 0.8321 -0.5547
vn 0.5547 0.8321 0.0000
vn 0.0000 0.8321 0.5547
vn -0.5547 0.8321 0.0000
usemtl hexagons_medieval
s 1
f 1/1/1 2/2/1 4/3/1 3/4/1
f 7/5/2 8/6/2 6/7/2 5/8/2
f 1/9/3 3/10/3 7/5/3 5/11/3
f 9/12/1 10/13/1 12/14/1 11/15/1
f 11/16/4 12/17/4 16/18/4 15/19/4
f 15/20/2 16/21/2 14/22/2 13/23/2
f 13/24/5 14/25/5 10/26/5 9/27/5
f 16/28/6 12/29/6 10/30/6 14/31/6
f 9/27/3 11/16/3 15/20/3 13/24/3
f 17/32/1 18/33/1 20/34/1 19/35/1
f 19/36/4 20/37/4 24/38/4 23/39/4
f 23/40/2 24/41/2 22/42/2 21/43/2
f 21/44/5 22/45/5 18/46/5 17/47/5
f 24/48/6 20/49/6 18/50/6 22/51/6
f 17/47/3 19/36/3 23/40/3 21/44/3
f 25/52/1 26/53/1 28/54/1 27/55/1
f 27/56/4 28/57/4 32/58/4 31/59/4
f 31/60/2 32/61/2 30/62/2 29/63/2
f 29/64/5 30/65/5 26/66/5 25/67/5
f 32/68/6 28/69/6 26/70/6 30/71/6
f 25/67/3 27/56/3 31/60/3 29/64/3
f 33/72/1 34/73/1 36/74/1 35/75/1
f 35/76/4 36/77/4 40/78/4 39/79/4
f 39/80/2 40/81/2 38/82/2 37/83/2
f 37/84/5 38/85/5 34/86/5 33/87/5
f 40/88/6 36/89/6 34/90/6 38/91/6
f 33/87/3 35/76/3 39/80/3 37/84/3
f 41/92/4 42/93/4 44/94/4 43/95/4
f 47/96/5 48/97/5 46/98/5 45/99/5
f 41/100/3 43/101/3 47/96/3 45/102/3
f 49/103/2 50/104/2 52/105/2 51/106/2
f 55/107/1 56/108/1 54/109/1 53/110/1
f 49/111/3 51/112/3 55/107/3 53/113/3
f 57/114/5 58/115/5 60/116/5 59/117/5
f 63/118/4 64/119/4 62/120/4 61/121/4
f 57/122/3 59/123/3 63/118/3 61/124/3
f 65/125/7 69/126/7 67/127/7
f 65/125/8 68/128/8 69/129/8
f 65/125/9 66/130/9 68/131/9
f 65/125/10 67/132/10 66/133/10
f 66/133/5 67/132/5 71/134/5 70/135/5
f 68/131/2 66/130/2 70/136/2 72/137/2
f 67/127/1 69/126/1 73/138/1 71/139/1
f 69/129/4 68/128/4 72/140/4 73/141/4
f 70/142/3 71/143/3 73/144/3 72/145/3
