# Blender v3.4.1 OBJ File: 'Medieval_Hexagons_Export_1.0_WorldOrigin.blend'
# www.blender.org
mtllib weaponrack.mtl
o weaponrack
v -0.100000 0.000000 -0.060000
v -0.100000 0.040000 -0.060000
v 0.100000 0.000000 -0.060000
v 0.100000 0.040000 -0.060000
v -0.100000 0.000000 0.060000
v -0.100000 0.040000 0.060000
v 0.100000 0.000000 0.060000
v 0.100000 0.040000 0.060000
v -0.100000 0.120000 -0.070000
v -0.100000 0.160000 -0.070000
v 0.100000 0.120000 -0.070000
v 0.100000 0.160000 -0.070000
v -0.100000 0.120000 -0.030000
v -0.100000 0.160000 -0.030000
v 0.100000 0.120000 -0.030000
v 0.100000 0.160000 -0.030000
v 0.100002 0.040000 0.020000
v 0.100002 0.240000 -0.030000
v 0.060002 0.040000 0.020000
v 0.060002 0.240000 -0.030000
v 0.100002 0.040000 -0.020000
v 0.100002 0.240000 -0.070000
v 0.060002 0.040000 -0.020000
v 0.060002 0.240000 -0.070000
v -0.059998 0.040000 0.020000
v -0.059998 0.240000 -0.030000
v -0.099998 0.040000 0.020000
v -0.099998 0.240000 -0.030000
v -0.059998 0.040000 -0.020000
v -0.059998 0.240000 -0.070000
v -0.099998 0.040000 -0.020000
v -0.099998 0.240000 -0.070000
vt 0.784907 0.852936
vt 0.784907 0.907336
vt 0.795953 0.907336
vt 0.795953 0.852936
vt 0.795953 0.837311
vt 0.795953 0.891711
vt 0.795953 0.891420
vt 0.795953 0.837019
vt 0.795953 0.852644
vt 0.795953 0.907045
vt 0.784907 0.907045
vt 0.784907 0.852644
vt 0.784907 0.837019
vt 0.784907 0.891420
vt 0.784907 0.891711
vt 0.784907 0.837311
vt 0.795953 0.938295
vt 0.795953 0.938586
vt 0.784907 0.938586
vt 0.784907 0.938295
vt 0.784907 0.825446
vt 0.795953 0.825446
vt 0.795953 0.825446
vt 0.784907 0.825446
vt 0.784907 0.852936
vt 0.784907 0.907336
vt 0.795953 0.907336
vt 0.795953 0.852936
vt 0.795953 0.837311
vt 0.795953 0.891711
vt 0.795953 0.891420
vt 0.795953 0.837019
vt 0.795953 0.852644
vt 0.795953 0.907045
vt 0.784907 0.907045
vt 0.784907 0.852644
vt 0.784907 0.837019
vt 0.784907 0.891420
vt 0.784907 0.891711
vt 0.784907 0.837311
vt 0.795953 0.938295
vt 0.795953 0.938586
vt 0.784907 0.938586
vt 0.784907 0.938295
vt 0.784907 0.852936
vt 0.784907 0.907336
vt 0.795953 0.907336
vt 0.795953 0.852936
vt 0.795953 0.837311
vt 0.795953 0.891711
vt 0.795953 0.891420
vt 0.795953 0.837019
vt 0.795953 0.852644
vt 0.795953 0.907045
vt 0.784907 0.907045
vt 0.784907 0.852644
vt 0.784907 0.837019
vt 0.784907 0.891420
vt 0.784907 0.891711
vt 0.784907 0.837311
vt 0.795953 0.938295
vt 0.795953 0.938586
vt 0.784907 0.938586
vt 0.784907 0.938295
vt 0.784907 0.852936
vt 0.784907 0.907336
vt 0.795953 0.907336
vt 0.795953 0.852936
vt 0.795953 0.837311
vt 0.795953 0.891711
vt 0.795953 0.891420
vt 0.795953 0.837019
vt 0.795953 0.852644
vt 0.795953 0.907045
vt 0.784907 0.907045
vt 0.784907 0.852644
vt 0.784907 0.837019
vt 0.784907 0.891420
vt 0.784907 0.891711
vt 0.784907 0.837311
vt 0.795953 0.938295
vt 0.795953 0.938586
vt 0.784907 0.938586
vt 0.784907 0.938295
vn 0.0000 0.0000 -1.0000
vn 1.0000 0.0000 0.0000
vn 0.0000 0.0000 1.0000
vn -1.0000 0.0000 0.0000
vn 0.0000 1.0000 0.0000
vn 0.0000 -1.0000 0.0000
vn 0.0000 0.2425 0.9701
vn -0.0000 -0.2425 -0.9701
usemtl hexagons_medieval
s 1
f 1/1/1 2/2/1 4/3/1 3/4/1
f 3/5/2 4/6/2 8/7/2 7/8/2
f 7/9/3 8/10/3 6/11/3 5/12/3
f 5/13/4 6/14/4 2/15/4 1/16/4
f 8/17/5 4/18/5 2/19/5 6/20/5
f 1/21/6 3/22/6 7/23/6 5/24/6
f 9/25/1 10/26/1 12/27/1 11/28/1
f 11/29/2 12/30/2 16/31/2 15/32/2
f 15/33/3 16/34/3 14/35/3 13/36/3
f 13/37/4 14/38/4 10/39/4 9/40/4
f 16/41/5 12/42/5 10/43/5 14/44/5
f 17/45/7 18/46/7 20/47/7 19/48/7
f 19/49/4 20/50/4 24/51/4 23/52/4
f 23/53/8 24/54/8 22/55/8 21/56/8
f 21/57/2 22/58/2 18/59/2 17/60/2
f 24/61/5 20/62/5 18/63/5 22/64/5
f 25/65/7 26/66/7 28/67/7 27/68/7
f 27/69/4 28/70/4 32/71/4 31/72/4
f 31/73/8 32/74/8 30/75/8 29/76/8
f 29/77/2 30/78/2 26/79/2 25/80/2
f 32/81/5 28/82/5 26/83/5 30/84/5
