# Blender v3.4.1 OBJ File: 'Medieval_Hexagons_Export_1.0_WorldOrigin.blend'
# www.blender.org
mtllib hex_river_I_waterless.mtl
o hex_river_I_waterless
v 0.000001 -1.000000 1.154700
v -0.900000 -1.000000 0.635085
v -0.999999 -1.000000 0.577350
v -1.000000 -1.000000 -0.577350
v -0.000000 -1.000000 -1.154700
v 1.000000 -1.000000 -0.577350
v 1.000000 -1.000000 0.577350
v 0.900000 -1.000000 -0.635085
v 0.031698 0.000000 -1.078664
v 0.100000 -0.050000 -1.096965
v -0.000000 -0.050000 -1.154700
v -0.000000 0.000000 -1.096965
v -0.031698 0.000000 1.078664
v -0.100000 -0.050000 1.096965
v 0.000001 -0.050000 1.154700
v 0.000001 0.000000 1.096965
v 0.918301 0.000000 0.566784
v 0.900000 -0.050000 0.635085
v 1.000000 -0.050000 0.577350
v 0.950000 0.000000 0.548483
v -0.100000 -0.050000 -1.096965
v -0.031699 0.000000 -1.078664
v 0.100000 -0.050000 1.096965
v 0.031699 0.000000 1.078664
v -0.950000 0.000000 0.548483
v -0.999999 -0.050000 0.577350
v -0.899999 -0.050000 0.635085
v -0.918301 0.000000 0.566784
v -0.950000 0.000000 -0.548483
v -1.000000 -0.050000 -0.577350
v -0.918301 0.000000 -0.566784
v -0.900000 -0.050000 -0.635085
v 0.950000 0.000000 -0.548483
v 1.000000 -0.050000 -0.577350
v 0.900000 -0.050000 -0.635085
v 0.918301 0.000000 -0.566784
v 0.804301 -1.000000 -0.469330
v 0.721232 -1.000000 0.254000
v 0.692062 -1.000000 0.000000
v 0.721232 -1.000000 -0.254000
v -0.804301 -1.000000 -0.469330
v -0.804301 -1.000000 0.469330
v -0.721232 -1.000000 -0.254000
v -0.692062 -1.000000 0.000000
v -0.721232 -1.000000 0.254000
v -0.862842 0.000000 0.470727
v -0.862842 0.000000 -0.470727
v -0.779526 0.000000 0.254755
v -0.750270 0.000000 0.000000
v -0.779526 0.000000 -0.254755
v -0.804673 -0.050000 0.469975
v -0.804673 -0.050000 -0.469975
v -0.721490 -0.050000 0.254349
v -0.692280 -0.050000 0.000000
v -0.721491 -0.050000 -0.254348
v 0.862842 0.000000 -0.470727
v 0.862843 0.000000 0.470727
v 0.779526 0.000000 -0.254755
v 0.750270 0.000000 0.000000
v 0.779527 0.000000 0.254756
v 0.804673 -0.050000 -0.469975
v 0.804673 -0.050000 0.469975
v 0.721490 -0.050000 -0.254349
v 0.692281 -0.050000 0.000000
v 0.721490 -0.050000 0.254349
v -0.076602 -0.050000 -1.056439
v 0.076602 -0.050000 -1.056439
v -0.028039 -0.050000 -1.007875
v 0.028038 -0.050000 -1.007875
v -0.011603 0.000000 -1.058568
v 0.011602 0.000000 -1.058568
v 0.076602 -0.050000 1.056438
v -0.076601 -0.050000 1.056439
v 0.028039 -0.050000 1.007875
v -0.028038 -0.050000 1.007875
v 0.011603 0.000000 1.058568
v -0.011602 0.000000 1.058568
v 0.900000 -1.000000 0.635085
v -0.900000 -1.000000 -0.635085
v 0.804301 -1.000000 0.469330
v 0.100000 -1.000000 1.096965
v 0.076183 -1.000000 1.055712
v 0.027885 -1.000000 1.007414
v -0.027884 -1.000000 1.007414
v -0.076182 -1.000000 1.055712
v -0.099999 -1.000000 1.096965
v 0.100000 -1.000000 -1.096965
v 0.076182 -1.000000 -1.055712
v 0.027884 -1.000000 -1.007414
v -0.027885 -1.000000 -1.007414
v -0.076183 -1.000000 -1.055712
v -0.100000 -1.000000 -1.096965
vt 0.067600 0.408225
vt 0.067349 0.408225
vt 0.067039 0.403532
vt 0.067471 0.403532
vt 0.052180 0.298735
vt 0.051745 0.298735
vt 0.051747 0.356657
vt 0.052180 0.356657
vt 0.051272 0.298735
vt 0.051706 0.298735
vt 0.051705 0.356657
vt 0.051272 0.356657
vt 0.071658 0.408225
vt 0.071469 0.403532
vt 0.071575 0.403532
vt 0.056262 0.298735
vt 0.056262 0.298735
vt 0.056262 0.356657
vt 0.056262 0.356657
vt 0.047752 0.298735
vt 0.047644 0.298735
vt 0.047644 0.356657
vt 0.047750 0.356657
vt 0.056262 0.298735
vt 0.056046 0.298735
vt 0.056050 0.356657
vt 0.056262 0.356657
vt 0.051726 0.298735
vt 0.051726 0.356657
vt 0.055700 0.298735
vt 0.055808 0.298735
vt 0.055808 0.356657
vt 0.055702 0.356657
vt 0.063183 0.408225
vt 0.063686 0.408225
vt 0.063821 0.403532
vt 0.062957 0.403532
vt 0.047190 0.298735
vt 0.051726 0.298735
vt 0.051726 0.356657
vt 0.047190 0.356657
vt 0.062957 0.403532
vt 0.063169 0.403532
vt 0.063183 0.408225
vt 0.055394 0.298735
vt 0.055397 0.356657
vt 0.056262 0.356657
vt 0.056262 0.298735
vt 0.047190 0.298735
vt 0.047190 0.356657
vt 0.047190 0.298735
vt 0.047190 0.356657
vt 0.047190 0.356657
vt 0.047190 0.298735
vt 0.072028 0.403532
vt 0.071802 0.408225
vt 0.063410 0.403532
vt 0.062957 0.403532
vt 0.063183 0.408225
vt 0.063327 0.408225
vt 0.062957 0.403532
vt 0.063183 0.408225
vt 0.071802 0.408225
vt 0.072028 0.403532
vt 0.067492 0.403532
vt 0.067492 0.408225
vt 0.072028 0.403532
vt 0.071802 0.408225
vt 0.071802 0.408225
vt 0.072028 0.403532
vt 0.067492 0.403532
vt 0.067946 0.403532
vt 0.067636 0.408225
vt 0.067492 0.408225
vt 0.087568 0.423850
vt 0.087065 0.423850
vt 0.087568 0.423850
vt 0.087391 0.423850
vt 0.087424 0.423850
vt 0.087568 0.423850
vt 0.067514 0.403532
vt 0.067385 0.408225
vt 0.063516 0.403532
vt 0.083259 0.423850
vt 0.083403 0.423850
vt 0.083151 0.423850
vt 0.078950 0.423850
vt 0.078950 0.423850
vt 0.079074 0.423850
vt 0.071816 0.403532
vt 0.071164 0.403532
vt 0.071298 0.408225
vt 0.068130 0.403532
vt 0.068260 0.408225
vt 0.069062 0.403532
vt 0.069194 0.408225
vt 0.070128 0.403532
vt 0.070261 0.408225
vt 0.066855 0.403532
vt 0.066725 0.408225
vt 0.065922 0.403532
vt 0.065791 0.408225
vt 0.064857 0.403532
vt 0.064724 0.408225
vt 0.051088 0.298735
vt 0.051089 0.356657
vt 0.050156 0.298735
vt 0.050156 0.356657
vt 0.049092 0.298735
vt 0.049090 0.356657
vt 0.048058 0.298735
vt 0.048055 0.356657
vt 0.054361 0.356657
vt 0.054359 0.298735
vt 0.053296 0.356657
vt 0.053295 0.298735
vt 0.052363 0.356657
vt 0.052364 0.298735
vt 0.071624 0.408225
vt 0.071388 0.403532
vt 0.071677 0.408225
vt 0.071515 0.403532
vt 0.063360 0.408225
vt 0.063597 0.403532
vt 0.063308 0.408225
vt 0.063470 0.403532
vt 0.055746 0.298735
vt 0.055749 0.356657
vt 0.055620 0.298735
vt 0.055621 0.356657
vt 0.047402 0.356657
vt 0.047406 0.298735
vt 0.047705 0.298735
vt 0.047703 0.356657
vt 0.047832 0.298735
vt 0.047830 0.356657
vt 0.079094 0.423850
vt 0.079127 0.423850
vt 0.087568 0.423850
vt 0.087444 0.423850
vt 0.078950 0.423850
vt 0.078950 0.423850
vt 0.079453 0.423850
vt 0.080490 0.423850
vt 0.081557 0.423850
vt 0.082492 0.423850
vt 0.083115 0.423850
vt 0.083367 0.423850
vt 0.083259 0.423850
vt 0.086028 0.423850
vt 0.084961 0.423850
vt 0.084026 0.423850
vt 0.054085 0.288250
vt 0.054557 0.288250
vt 0.054326 0.288250
vt 0.058908 0.288250
vt 0.058436 0.288250
vt 0.058667 0.288250
vt 0.054326 0.288250
vt 0.054557 0.288250
vt 0.054085 0.288250
vt 0.056496 0.288250
vt 0.056680 0.288250
vt 0.056738 0.288250
vt 0.056564 0.288250
vt 0.056429 0.288250
vt 0.056313 0.288250
vt 0.056255 0.288250
vt 0.058667 0.288250
vt 0.058436 0.288250
vt 0.058908 0.288250
vt 0.056496 0.288250
vt 0.056680 0.288250
vt 0.056564 0.288250
vt 0.056429 0.288250
vt 0.056313 0.288250
vt 0.058236 0.288250
vt 0.056255 0.288250
vt 0.056738 0.288250
vt 0.058236 0.288250
vt 0.058166 0.288250
vt 0.054757 0.288250
vt 0.054827 0.288250
vt 0.054757 0.288250
vn 0.6218 0.7188 0.3110
vn 0.6124 0.7071 0.3536
vn 0.6265 0.7246 0.2872
vn -0.8660 0.0000 -0.5000
vn -0.9022 0.0001 -0.4312
vn -0.9022 0.0001 -0.4313
vn 0.8660 0.0000 0.5000
vn 0.9022 0.0001 0.4312
vn 0.9022 0.0001 0.4313
vn 0.5385 0.6952 0.4760
vn 0.5697 0.7018 0.4277
vn -0.5000 -0.0000 -0.8660
vn -0.7933 0.0001 -0.6088
vn -0.7934 0.0001 -0.6087
vn -0.8660 0.0000 0.5000
vn -0.7933 0.0001 0.6088
vn -0.7934 0.0001 0.6087
vn -1.0000 0.0000 0.0000
vn 0.7933 0.0001 0.6088
vn 0.7934 0.0001 0.6087
vn -0.6124 0.7071 0.3536
vn -0.6218 0.7188 0.3110
vn -0.6265 0.7246 0.2872
vn 1.0000 0.0000 -0.0000
vn 0.6124 0.7071 -0.3536
vn 0.5697 0.7018 -0.4277
vn 0.5385 0.6952 -0.4760
vn 0.9022 0.0001 -0.4312
vn 0.8660 0.0000 -0.5000
vn 0.9022 0.0001 -0.4313
vn -0.5000 -0.0000 0.8660
vn 0.5000 -0.0000 0.8660
vn 0.5000 0.0000 -0.8660
vn 0.3536 0.7071 -0.6124
vn -0.3536 0.7071 0.6124
vn 0.3536 0.7071 0.6124
vn -0.3536 0.7071 -0.6124
vn -0.7071 0.7071 0.0000
vn 0.7071 0.7071 -0.0000
vn 0.0000 1.0000 0.0000
vn -0.6124 0.7071 -0.3536
vn -0.6265 0.7246 -0.2872
vn -0.6218 0.7188 -0.3110
vn -0.5697 0.7018 -0.4277
vn -0.5385 0.6952 -0.4760
vn -0.5385 0.6952 0.4760
vn -0.5697 0.7018 0.4277
vn 0.6265 0.7246 -0.2872
vn 0.6218 0.7188 -0.3110
vn 0.6460 0.7486 0.1495
vn 0.6439 0.7460 0.1698
vn 0.6530 0.7574 -0.0000
vn 0.6460 0.7486 -0.1495
vn 0.6439 0.7460 -0.1698
vn -0.6460 0.7486 -0.1495
vn -0.6439 0.7460 -0.1698
vn -0.6530 0.7574 0.0000
vn -0.6460 0.7486 0.1495
vn -0.6439 0.7460 0.1698
vn -0.9710 0.0002 -0.2389
vn -0.9710 0.0002 -0.2390
vn -1.0000 0.0002 0.0000
vn -0.9710 0.0002 0.2389
vn -0.9710 0.0002 0.2390
vn -0.9022 0.0001 0.4312
vn -0.9022 0.0001 0.4313
vn 0.9710 0.0002 -0.2390
vn 0.9710 0.0002 -0.2389
vn 1.0000 0.0002 -0.0000
vn 0.9710 0.0002 0.2390
vn 0.9710 0.0002 0.2389
vn 0.2746 0.7276 0.6286
vn 0.2551 0.7285 0.6358
vn -0.2746 0.7276 0.6286
vn -0.2551 0.7285 0.6358
vn -0.2746 0.7276 -0.6286
vn -0.2551 0.7285 -0.6358
vn 0.2746 0.7276 -0.6286
vn 0.2551 0.7285 -0.6358
vn -0.7071 0.0002 0.7071
vn 0.0000 0.0005 1.0000
vn 0.7071 0.0002 0.7071
vn 0.7934 0.0001 -0.6087
vn 0.7933 0.0001 -0.6088
vn 0.7071 0.0002 -0.7071
vn 0.0000 0.0005 -1.0000
vn -0.7071 0.0002 -0.7071
vn 0.0000 -1.0000 0.0000
usemtl hexagons_medieval
s 1
f 46/1/1 28/2/2 27/3/2 51/4/3
f 8/5/4 37/6/5 61/7/6 35/8/4
f 2/9/7 42/10/8 51/11/9 27/12/7
f 9/13/10 67/14/11 10/15/2
f 79/16/12 4/17/12 30/18/12 32/19/12
f 85/20/13 86/21/4 14/22/4 73/23/14
f 92/24/15 91/25/16 66/26/17 21/27/15
f 4/17/18 3/28/18 26/29/18 30/18/18
f 88/30/19 87/31/7 10/32/7 67/33/20
f 17/34/21 57/35/22 62/36/23 18/37/21
f 7/38/24 6/39/24 34/40/24 19/41/24
f 23/42/25 72/43/26 24/44/27
f 41/45/28 79/16/29 32/19/29 52/46/30
f 11/47/12 5/48/12 92/24/12 21/27/12
f 14/22/31 86/21/31 1/49/31 15/50/31
f 15/50/32 1/49/32 81/51/32 23/52/32
f 18/53/32 78/54/32 7/38/32 19/41/32
f 34/40/33 6/39/33 8/5/33 35/8/33
f 26/29/31 3/28/31 2/9/31 27/12/31
f 10/15/34 11/55/34 12/56/34 9/13/34
f 14/57/35 15/58/35 16/59/35 13/60/35
f 18/37/36 19/61/36 20/62/36 17/34/36
f 22/63/37 12/56/37 11/55/37 21/64/37
f 15/58/36 23/42/36 24/44/36 16/59/36
f 26/65/35 27/3/35 28/2/35 25/66/35
f 30/67/38 26/65/38 25/66/38 29/68/38
f 29/68/37 31/69/37 32/70/37 30/67/37
f 34/71/34 35/72/34 36/73/34 33/74/34
f 19/61/39 34/71/39 33/74/39 20/62/39
f 29/75/40 47/76/40 31/77/40
f 71/78/40 9/79/40 12/80/40
f 35/72/41 61/81/42 56/82/43 36/73/41
f 73/83/44 14/57/41 13/60/45
f 33/84/40 36/85/40 56/86/40
f 16/87/40 24/88/40 76/89/40
f 22/63/46 21/64/21 66/90/47
f 52/91/48 32/70/25 31/69/25 47/92/49
f 46/1/1 51/4/3 53/93/50 48/94/51
f 48/94/51 53/93/50 54/95/52 49/96/52
f 49/96/52 54/95/52 55/97/53 50/98/54
f 50/98/54 55/97/53 52/91/48 47/92/49
f 56/82/43 61/81/42 63/99/55 58/100/56
f 58/100/56 63/99/55 64/101/57 59/102/57
f 59/102/57 64/101/57 65/103/58 60/104/59
f 60/104/59 65/103/58 62/36/23 57/35/22
f 61/7/6 37/6/5 40/105/60 63/106/61
f 63/106/61 40/105/60 39/107/62 64/108/62
f 64/108/62 39/107/62 38/109/63 65/110/64
f 65/110/64 38/109/63 80/111/65 62/112/66
f 41/45/28 52/46/30 55/113/67 43/114/68
f 43/114/68 55/113/67 54/115/69 44/116/69
f 44/116/69 54/115/69 53/117/70 45/118/71
f 45/118/71 53/117/70 51/11/9 42/10/8
f 80/111/65 78/54/15 18/53/15 62/112/66
f 67/14/11 9/13/10 71/119/72 69/120/73
f 69/120/73 71/119/72 70/121/74 68/122/75
f 68/122/75 70/121/74 22/63/46 66/90/47
f 73/83/44 13/60/45 77/123/76 75/124/77
f 75/124/77 77/123/76 76/125/78 74/126/79
f 74/126/79 76/125/78 24/44/27 72/43/26
f 66/26/17 91/25/16 90/127/80 68/128/80
f 68/128/81 90/127/81 89/129/81 69/130/81
f 69/130/82 89/129/82 88/30/19 67/33/20
f 72/131/83 82/132/84 83/133/85 74/134/85
f 74/134/86 83/133/86 84/135/86 75/136/86
f 75/136/87 84/135/87 85/20/13 73/23/14
f 81/51/29 82/132/84 72/131/83 23/52/29
f 13/137/40 16/87/40 77/138/40
f 77/138/40 16/87/40 76/89/40
f 22/139/40 70/140/40 12/80/40
f 70/140/40 71/78/40 12/80/40
f 17/141/40 20/142/40 57/143/40
f 57/143/40 20/142/40 60/144/40
f 60/144/40 20/142/40 59/145/40
f 20/142/40 33/84/40 59/145/40
f 59/145/40 33/84/40 58/146/40
f 58/146/40 33/84/40 56/86/40
f 28/147/40 46/148/40 25/149/40
f 29/75/40 50/150/40 47/76/40
f 29/75/40 49/151/40 50/150/40
f 25/149/40 49/151/40 29/75/40
f 48/152/40 49/151/40 25/149/40
f 46/148/40 48/152/40 25/149/40
f 5/48/33 11/47/33 10/32/33 87/31/33
f 3/153/88 42/154/88 2/155/88
f 6/156/88 37/157/88 8/158/88
f 79/159/88 41/160/88 4/161/88
f 1/162/88 82/163/88 81/164/88
f 1/162/88 83/165/88 82/163/88
f 1/162/88 84/166/88 83/165/88
f 1/162/88 85/167/88 84/166/88
f 1/162/88 86/168/88 85/167/88
f 78/169/88 80/170/88 7/171/88
f 5/172/88 88/173/88 89/174/88
f 5/172/88 89/174/88 90/175/88
f 5/172/88 90/175/88 91/176/88
f 6/156/88 40/177/88 37/157/88
f 5/172/88 91/176/88 92/178/88
f 5/172/88 87/179/88 88/173/88
f 38/180/88 39/181/88 7/171/88
f 39/181/88 6/156/88 7/171/88
f 39/181/88 40/177/88 6/156/88
f 80/170/88 38/180/88 7/171/88
f 3/153/88 45/182/88 42/154/88
f 3/153/88 44/183/88 45/182/88
f 4/161/88 44/183/88 3/153/88
f 43/184/88 44/183/88 4/161/88
f 41/160/88 43/184/88 4/161/88
