# Blender v3.4.1 OBJ File: 'Medieval_Hexagons_Export_1.0_WorldOrigin.blend'
# www.blender.org
mtllib hex_river_A_curvy_waterless.mtl
o hex_river_A_curvy_waterless
v 0.000000 -1.000000 -1.154700
v -0.000000 -1.000000 1.154700
v -0.950000 0.000000 0.511880
v -1.000000 -0.050000 0.461880
v -1.000000 -0.050000 0.577350
v -0.950000 0.000000 0.548482
v 1.000000 -0.050000 0.461880
v 0.950000 0.000000 0.511880
v 0.950000 0.000000 0.548483
v 1.000000 -0.050000 0.577350
v -0.950000 0.000000 -0.548482
v -1.000000 -0.050000 -0.577350
v -1.000000 -0.050000 -0.461880
v -0.950000 0.000000 -0.511880
v 0.000000 0.000000 -1.096965
v -0.000000 -0.050000 -1.154700
v 0.950000 0.000000 -0.548482
v 1.000000 -0.050000 -0.577350
v 0.950000 0.000000 -0.511880
v 1.000000 -0.050000 -0.461880
v -0.000000 0.000000 1.096965
v -0.000000 -0.050000 1.154700
v -0.569188 -0.050000 -0.332636
v -0.105034 -0.050000 -0.398860
v -0.420674 -0.050000 -0.315610
v -0.250782 -0.050000 -0.339849
v 0.120895 -0.050000 -0.534417
v 0.579879 -0.050000 -0.587916
v 0.260145 -0.050000 -0.588239
v 0.428145 -0.050000 -0.607821
v 0.569188 -0.050000 0.332637
v 0.105034 -0.050000 0.398860
v 0.420674 -0.050000 0.315610
v 0.250782 -0.050000 0.339849
v -0.120895 -0.050000 0.534417
v -0.579879 -0.050000 0.587916
v -0.260145 -0.050000 0.588239
v -0.428145 -0.050000 0.607821
v -0.244715 0.000000 0.635084
v -0.106574 0.000000 0.579190
v -0.412033 0.000000 0.655099
v -0.563694 0.000000 0.633871
v 0.403507 0.000000 0.368240
v 0.551436 0.000000 0.386018
v 0.234126 0.000000 0.393809
v 0.088679 0.000000 0.455873
v -0.088679 0.000000 -0.455872
v -0.234126 0.000000 -0.393809
v -0.403507 0.000000 -0.368240
v -0.551436 0.000000 -0.386018
v 0.563694 0.000000 -0.633871
v 0.412033 0.000000 -0.655099
v 0.244715 0.000000 -0.635084
v 0.106574 0.000000 -0.579190
v -1.000000 -1.000000 0.461880
v -1.000000 -1.000000 0.577350
v 1.000000 -1.000000 0.461880
v 1.000000 -1.000000 0.577350
v -0.579467 -1.000000 0.588040
v -0.427945 -1.000000 0.607887
v -0.260115 -1.000000 0.588271
v -0.120945 -1.000000 0.534447
v 0.105695 -1.000000 0.398463
v 0.251112 -1.000000 0.339651
v 0.420762 -1.000000 0.315557
v 0.569187 -1.000000 0.332636
v -1.000000 -1.000000 -0.577350
v 1.000000 -1.000000 -0.577350
v -1.000000 -1.000000 -0.461880
v 1.000000 -1.000000 -0.461880
v -0.105695 -1.000000 -0.398463
v -0.251112 -1.000000 -0.339651
v -0.420762 -1.000000 -0.315557
v -0.569187 -1.000000 -0.332636
v 0.579467 -1.000000 -0.588040
v 0.427945 -1.000000 -0.607887
v 0.260115 -1.000000 -0.588271
v 0.120945 -1.000000 -0.534447
vt 0.049098 0.298735
vt 0.047190 0.298735
vt 0.047190 0.356657
vt 0.049096 0.356657
vt 0.051726 0.298735
vt 0.056262 0.298735
vt 0.056262 0.356657
vt 0.051726 0.356657
vt 0.054354 0.298735
vt 0.056262 0.298735
vt 0.056262 0.356657
vt 0.054356 0.356657
vt 0.052205 0.298735
vt 0.051177 0.298735
vt 0.051178 0.356657
vt 0.052202 0.356657
vt 0.056262 0.298735
vt 0.051726 0.298735
vt 0.051726 0.356657
vt 0.056262 0.356657
vt 0.067009 0.408225
vt 0.067895 0.408225
vt 0.067969 0.403532
vt 0.066944 0.403532
vt 0.047190 0.298735
vt 0.047190 0.356657
vt 0.047190 0.298735
vt 0.047190 0.356657
vt 0.063183 0.408225
vt 0.064936 0.408225
vt 0.064862 0.403532
vt 0.062957 0.403532
vt 0.056262 0.298735
vt 0.056262 0.356657
vt 0.047190 0.298735
vt 0.047190 0.356657
vt 0.062957 0.403532
vt 0.063183 0.408225
vt 0.071802 0.408225
vt 0.071802 0.408225
vt 0.072028 0.403532
vt 0.072028 0.403532
vt 0.062957 0.403532
vt 0.062957 0.403532
vt 0.063183 0.408225
vt 0.063183 0.408225
vt 0.067492 0.403532
vt 0.067492 0.408225
vt 0.072028 0.403532
vt 0.071802 0.408225
vt 0.071802 0.408225
vt 0.072028 0.403532
vt 0.067492 0.403532
vt 0.067492 0.408225
vt 0.087568 0.423850
vt 0.085816 0.423850
vt 0.087568 0.423850
vt 0.085760 0.423850
vt 0.087568 0.423850
vt 0.087568 0.423850
vt 0.069994 0.408225
vt 0.070074 0.403532
vt 0.067016 0.403532
vt 0.068041 0.403532
vt 0.067976 0.408225
vt 0.067090 0.408225
vt 0.070123 0.403532
vt 0.070049 0.408225
vt 0.064911 0.403532
vt 0.064991 0.408225
vt 0.054308 0.298735
vt 0.054308 0.356657
vt 0.051247 0.298735
vt 0.052275 0.298735
vt 0.052274 0.356657
vt 0.051250 0.356657
vt 0.066312 0.403532
vt 0.066382 0.408225
vt 0.065550 0.403532
vt 0.065624 0.408225
vt 0.069401 0.403532
vt 0.069323 0.408225
vt 0.068630 0.403532
vt 0.068554 0.408225
vt 0.066430 0.408225
vt 0.066355 0.403532
vt 0.065662 0.408225
vt 0.065584 0.403532
vt 0.069361 0.408225
vt 0.069434 0.403532
vt 0.068602 0.408225
vt 0.068672 0.403532
vt 0.052863 0.356657
vt 0.052865 0.298735
vt 0.053634 0.356657
vt 0.053634 0.298735
vt 0.049784 0.356657
vt 0.049785 0.298735
vt 0.050546 0.356657
vt 0.050546 0.298735
vt 0.050588 0.356657
vt 0.050587 0.298735
vt 0.049818 0.356657
vt 0.049817 0.298735
vt 0.049144 0.356657
vt 0.049144 0.298735
vt 0.053668 0.356657
vt 0.053667 0.298735
vt 0.052906 0.356657
vt 0.052906 0.298735
vt 0.078950 0.423850
vt 0.078950 0.423850
vt 0.080702 0.423850
vt 0.083259 0.423850
vt 0.078950 0.423850
vt 0.078950 0.423850
vt 0.080758 0.423850
vt 0.083259 0.423850
vt 0.082776 0.423850
vt 0.082149 0.423850
vt 0.081390 0.423850
vt 0.085089 0.423850
vt 0.084321 0.423850
vt 0.083661 0.423850
vt 0.082197 0.423850
vt 0.082857 0.423850
vt 0.081429 0.423850
vt 0.085128 0.423850
vt 0.084369 0.423850
vt 0.083742 0.423850
vt 0.056496 0.288250
vt 0.054085 0.288250
vt 0.054085 0.288250
vt 0.058908 0.288250
vt 0.058908 0.288250
vt 0.055099 0.288250
vt 0.055464 0.288250
vt 0.055869 0.288250
vt 0.056205 0.288250
vt 0.056751 0.288250
vt 0.057102 0.288250
vt 0.057511 0.288250
vt 0.057869 0.288250
vt 0.056496 0.288250
vt 0.054085 0.288250
vt 0.054085 0.288250
vt 0.058908 0.288250
vt 0.058908 0.288250
vt 0.056242 0.288250
vt 0.055891 0.288250
vt 0.055482 0.288250
vt 0.055124 0.288250
vt 0.057894 0.288250
vt 0.057529 0.288250
vt 0.057124 0.288250
vt 0.056788 0.288250
vn 0.2093 -0.0000 -0.9778
vn 0.2873 -0.0000 -0.9578
vn 0.2833 0.2010 -0.9377
vn 0.2089 0.3314 -0.9201
vn 0.5000 0.0000 0.8660
vn -0.2093 -0.0000 0.9778
vn -0.2873 -0.0000 0.9578
vn -0.2833 0.2010 0.9377
vn -0.2089 0.3314 0.9201
vn -0.4461 0.0000 -0.8950
vn -0.4392 -0.0000 -0.8984
vn -0.4462 0.0000 -0.8949
vn 0.5000 0.0000 -0.8660
vn -0.3273 0.6750 -0.6612
vn -0.3614 0.6574 -0.6613
vn -0.3222 0.6635 -0.6752
vn -0.3363 0.6722 -0.6596
vn -0.5000 0.0000 -0.8660
vn 1.0000 0.0000 0.0000
vn -0.5000 0.0000 0.8660
vn 0.2383 0.5857 -0.7747
vn 0.1528 0.6346 -0.7576
vn -1.0000 0.0000 0.0000
vn -0.7071 0.7071 0.0000
vn 0.7071 0.7071 0.0000
vn -0.3536 0.7071 -0.6124
vn 0.3536 0.7071 -0.6124
vn 0.3536 0.7071 0.6124
vn -0.3536 0.7071 0.6124
vn 0.0000 1.0000 -0.0000
vn 0.1316 0.7523 -0.6456
vn 0.1894 0.7649 -0.6157
vn 0.1376 0.7537 -0.6427
vn 0.3222 0.6635 0.6752
vn 0.3363 0.6722 0.6596
vn 0.3273 0.6750 0.6612
vn 0.3614 0.6574 0.6613
vn -0.2383 0.5857 0.7747
vn -0.1528 0.6346 0.7576
vn -0.1894 0.7649 0.6157
vn -0.1376 0.7537 0.6427
vn -0.1316 0.7523 0.6456
vn 0.2015 0.0000 -0.9795
vn 0.4461 0.0000 0.8950
vn 0.4392 -0.0000 0.8984
vn 0.4462 0.0000 0.8949
vn -0.1725 0.6980 -0.6950
vn -0.1782 0.6979 -0.6936
vn 0.0215 0.6794 -0.7335
vn -0.0064 0.6848 -0.7287
vn 0.0029 0.7289 -0.6846
vn -0.0251 0.7245 -0.6889
vn -0.1695 0.6971 -0.6967
vn -0.2181 0.6863 -0.6939
vn 0.2181 0.6863 0.6939
vn 0.1695 0.6971 0.6967
vn 0.0251 0.7245 0.6889
vn -0.0029 0.7289 0.6846
vn 0.0064 0.6848 0.7287
vn -0.0215 0.6794 0.7335
vn 0.1782 0.6979 0.6936
vn 0.1725 0.6980 0.6950
vn -0.2600 0.0001 -0.9656
vn -0.2599 0.0001 -0.9656
vn -0.0135 0.0001 -0.9999
vn 0.0071 -0.0001 -1.0000
vn -0.2402 -0.0000 -0.9707
vn 0.2600 0.0001 0.9656
vn 0.2599 0.0001 0.9656
vn 0.0135 0.0001 0.9999
vn -0.2015 0.0000 0.9795
vn -0.0071 -0.0001 1.0000
vn 0.2402 -0.0000 0.9707
vn 0.0000 -1.0000 0.0000
usemtl hexagons_medieval
s 1
f 59/1/1 55/2/2 4/3/3 36/4/4
f 2/5/5 58/6/5 10/7/5 22/8/5
f 75/9/6 70/10/7 20/11/8 28/12/9
f 63/13/10 62/14/11 35/15/11 32/16/12
f 68/17/13 1/18/13 16/19/13 18/20/13
f 40/21/14 46/22/15 32/23/16 35/24/17
f 1/18/18 67/25/18 12/26/18 16/19/18
f 20/11/19 70/10/19 68/17/19 18/20/19
f 56/27/20 2/5/20 22/8/20 5/28/20
f 3/29/21 42/30/22 36/31/4 4/32/3
f 10/7/19 58/6/19 57/33/19 7/34/19
f 12/26/23 67/25/23 69/35/23 13/36/23
f 4/32/24 5/37/24 6/38/24 3/29/24
f 8/39/25 9/40/25 10/41/25 7/42/25
f 12/43/24 13/44/24 14/45/24 11/46/24
f 16/47/26 12/43/26 11/46/26 15/48/26
f 18/49/27 16/47/27 15/48/27 17/50/27
f 17/50/25 19/51/25 20/52/25 18/49/25
f 22/53/28 10/41/28 9/40/28 21/54/28
f 5/37/29 22/53/29 21/54/29 6/38/29
f 17/55/30 51/56/30 19/57/30
f 44/58/30 9/59/30 8/60/30
f 44/61/31 8/39/32 7/42/32 31/62/33
f 24/63/34 27/64/35 54/65/36 47/66/37
f 28/67/9 20/52/8 19/51/38 51/68/39
f 13/44/40 23/69/41 50/70/42 14/45/40
f 57/33/2 66/71/43 31/72/43 7/34/2
f 71/73/44 78/74/45 27/75/45 24/76/46
f 40/21/14 35/24/17 37/77/47 39/78/48
f 39/78/48 37/77/47 38/79/49 41/80/50
f 41/80/50 38/79/49 36/31/4 42/30/22
f 44/61/31 31/62/33 33/81/51 43/82/52
f 43/82/52 33/81/51 34/83/53 45/84/54
f 45/84/54 34/83/53 32/23/16 46/22/15
f 24/63/34 47/66/37 48/85/55 26/86/56
f 26/86/56 48/85/55 49/87/57 25/88/58
f 25/88/58 49/87/57 50/70/42 23/69/41
f 28/67/9 51/68/39 52/89/59 30/90/60
f 30/90/60 52/89/59 53/91/61 29/92/62
f 29/92/62 53/91/61 54/65/36 27/64/35
f 63/13/10 32/16/12 34/93/63 64/94/64
f 64/94/64 34/93/63 33/95/65 65/96/65
f 65/96/65 33/95/65 31/72/43 66/71/43
f 59/1/1 36/4/4 38/97/66 60/98/66
f 60/98/66 38/97/66 37/99/67 61/100/67
f 61/100/67 37/99/67 35/15/11 62/14/11
f 71/73/44 24/76/46 26/101/68 72/102/69
f 72/102/69 26/101/68 25/103/70 73/104/70
f 73/104/70 25/103/70 23/105/71 74/106/71
f 75/9/6 28/12/9 30/107/72 76/108/72
f 76/108/72 30/107/72 29/109/73 77/110/73
f 77/110/73 29/109/73 27/75/45 78/74/45
f 69/35/7 74/106/71 23/105/71 13/36/7
f 3/111/30 6/112/30 42/113/30
f 21/114/30 9/59/30 44/58/30
f 11/115/30 14/116/30 50/117/30
f 15/118/30 11/115/30 50/117/30
f 6/112/30 21/114/30 42/113/30
f 17/55/30 15/118/30 51/56/30
f 21/114/30 40/119/30 39/120/30
f 21/114/30 39/120/30 41/121/30
f 21/114/30 41/121/30 42/113/30
f 21/114/30 44/58/30 43/122/30
f 21/114/30 43/122/30 45/123/30
f 21/114/30 45/123/30 46/124/30
f 21/114/30 46/124/30 40/119/30
f 15/118/30 48/125/30 47/126/30
f 15/118/30 49/127/30 48/125/30
f 15/118/30 50/117/30 49/127/30
f 15/118/30 52/128/30 51/56/30
f 15/118/30 53/129/30 52/128/30
f 15/118/30 54/130/30 53/129/30
f 15/118/30 47/126/30 54/130/30
f 56/27/23 5/28/23 4/3/23 55/2/23
f 2/131/74 56/132/74 55/133/74
f 2/131/74 57/134/74 58/135/74
f 2/131/74 59/136/74 60/137/74
f 2/131/74 60/137/74 61/138/74
f 2/131/74 61/138/74 62/139/74
f 2/131/74 63/140/74 64/141/74
f 2/131/74 64/141/74 65/142/74
f 2/131/74 65/142/74 66/143/74
f 2/131/74 62/139/74 63/140/74
f 2/131/74 55/133/74 59/136/74
f 2/131/74 66/143/74 57/134/74
f 1/144/74 69/145/74 67/146/74
f 1/144/74 68/147/74 70/148/74
f 1/144/74 71/149/74 72/150/74
f 1/144/74 72/150/74 73/151/74
f 1/144/74 73/151/74 74/152/74
f 1/144/74 75/153/74 76/154/74
f 1/144/74 76/154/74 77/155/74
f 1/144/74 77/155/74 78/156/74
f 1/144/74 74/152/74 69/145/74
f 1/144/74 78/156/74 71/149/74
f 1/144/74 70/148/74 75/153/74
