# Blender v3.4.1 OBJ File: 'Medieval_Hexagons_Export_1.0_WorldOrigin.blend'
# www.blender.org
mtllib hex_river_D_waterless.mtl
o hex_river_D_waterless
v -1.000000 -1.000000 -0.461880
v -1.000000 -1.000000 0.461880
v 0.100000 -1.000000 1.096965
v 0.000000 -1.000000 -1.154700
v 1.000000 -1.000000 -0.577350
v 1.000000 -1.000000 0.577350
v -0.000000 -1.000000 1.154700
v -1.000000 -1.000000 0.577350
v -1.000000 -1.000000 -0.577350
v 0.900000 -1.000000 -0.635085
v 0.100000 -1.000000 -1.096965
v 0.900000 -1.000000 0.635085
v 0.031699 0.000000 -1.078664
v 0.100000 -0.050000 -1.096965
v 0.000000 -0.050000 -1.154700
v 0.000000 0.000000 -1.096965
v 0.918301 0.000000 0.566784
v 0.900000 -0.050000 0.635085
v 1.000000 -0.050000 0.577350
v 0.950000 0.000000 0.548483
v -0.950000 0.000000 0.511880
v -1.000000 -0.050000 0.461880
v -1.000000 -0.050000 0.577350
v -0.950000 0.000000 0.548482
v -0.950000 0.000000 -0.548482
v -1.000000 -0.050000 -0.577350
v -1.000000 -0.050000 -0.461880
v -0.950000 0.000000 -0.511880
v 0.950000 0.000000 -0.548482
v 1.000000 -0.050000 -0.577350
v 0.900000 -0.050000 -0.635085
v 0.918301 0.000000 -0.566784
v -0.000000 0.000000 1.096965
v -0.000000 -0.050000 1.154700
v 0.100000 -0.050000 1.096965
v 0.031699 0.000000 1.078664
v -0.806900 -1.000000 0.461880
v 0.003450 -1.000000 0.929736
v -0.579600 -1.000000 0.497493
v -0.345782 -1.000000 0.598912
v -0.141042 -1.000000 0.750695
v 0.003450 -1.000000 -0.929736
v -0.806900 -1.000000 -0.461880
v -0.141042 -1.000000 -0.750695
v -0.345782 -1.000000 -0.598912
v -0.579600 -1.000000 -0.497493
v 0.803450 -1.000000 0.467856
v 0.803450 -1.000000 -0.467856
v 0.720642 -1.000000 0.253202
v 0.691564 -1.000000 -0.000000
v 0.720642 -1.000000 -0.253202
v 0.803821 -0.050000 -0.468498
v 0.803821 -0.050000 0.468498
v 0.720899 -0.050000 -0.253549
v 0.691781 -0.050000 -0.000000
v 0.720899 -0.050000 0.253549
v 0.861989 0.000000 -0.469248
v 0.861989 0.000000 0.469248
v 0.778935 0.000000 -0.253955
v 0.749770 0.000000 -0.000000
v 0.778935 0.000000 0.253955
v -0.024614 0.000000 0.981128
v -0.837375 0.000000 0.511880
v -0.169536 0.000000 0.801554
v -0.374885 0.000000 0.649319
v -0.609399 0.000000 0.547599
v 0.003821 -0.050000 0.930378
v -0.807642 -0.050000 0.461880
v -0.140870 -0.050000 0.751092
v -0.345891 -0.050000 0.599100
v -0.580030 -0.050000 0.497542
v -0.807642 -0.050000 -0.461880
v 0.003821 -0.050000 -0.930378
v -0.580030 -0.050000 -0.497542
v -0.345891 -0.050000 -0.599100
v -0.140870 -0.050000 -0.751091
v -0.837375 0.000000 -0.511880
v -0.024614 -0.000000 -0.981128
v -0.609399 0.000000 -0.547599
v -0.374885 0.000000 -0.649319
v -0.169536 -0.000000 -0.801554
vt 0.047190 0.298735
vt 0.048066 0.298735
vt 0.048063 0.356657
vt 0.047190 0.356657
vt 0.055808 0.298735
vt 0.055370 0.298735
vt 0.055372 0.356657
vt 0.055808 0.356657
vt 0.052180 0.298735
vt 0.051742 0.298735
vt 0.051743 0.356657
vt 0.052180 0.356657
vt 0.071658 0.408225
vt 0.071402 0.408225
vt 0.071138 0.403532
vt 0.071575 0.403532
vt 0.062957 0.403532
vt 0.063829 0.403532
vt 0.063694 0.408225
vt 0.063183 0.408225
vt 0.051742 0.298735
vt 0.052180 0.298735
vt 0.052180 0.356657
vt 0.051743 0.356657
vt 0.051726 0.298735
vt 0.047190 0.298735
vt 0.047190 0.356657
vt 0.051726 0.356657
vt 0.047190 0.298735
vt 0.051726 0.298735
vt 0.051726 0.356657
vt 0.047190 0.356657
vt 0.063183 0.408225
vt 0.063694 0.408225
vt 0.063829 0.403532
vt 0.062957 0.403532
vt 0.055370 0.298735
vt 0.055808 0.298735
vt 0.055808 0.356657
vt 0.055372 0.356657
vt 0.056262 0.298735
vt 0.056262 0.298735
vt 0.056262 0.356657
vt 0.056262 0.356657
vt 0.047190 0.356657
vt 0.047190 0.298735
vt 0.067946 0.403532
vt 0.067492 0.403532
vt 0.067492 0.408225
vt 0.067636 0.408225
vt 0.072028 0.403532
vt 0.071802 0.408225
vt 0.062957 0.403532
vt 0.063183 0.408225
vt 0.062957 0.403532
vt 0.063183 0.408225
vt 0.072028 0.403532
vt 0.071575 0.403532
vt 0.071658 0.408225
vt 0.071802 0.408225
vt 0.067492 0.403532
vt 0.067946 0.403532
vt 0.067636 0.408225
vt 0.067492 0.408225
vt 0.087568 0.423850
vt 0.087169 0.423850
vt 0.087424 0.423850
vt 0.067381 0.408225
vt 0.067510 0.403532
vt 0.067510 0.403532
vt 0.067381 0.408225
vt 0.083259 0.423850
vt 0.083403 0.423850
vt 0.083147 0.423850
vt 0.083259 0.423850
vt 0.083147 0.423850
vt 0.083403 0.423850
vt 0.071402 0.408225
vt 0.071138 0.403532
vt 0.071026 0.408225
vt 0.070762 0.403532
vt 0.070893 0.408225
vt 0.070630 0.403532
vt 0.071026 0.408225
vt 0.070762 0.403532
vt 0.066853 0.403532
vt 0.066723 0.408225
vt 0.065924 0.403532
vt 0.065792 0.408225
vt 0.064861 0.403532
vt 0.064728 0.408225
vt 0.066723 0.408225
vt 0.066853 0.403532
vt 0.065792 0.408225
vt 0.065924 0.403532
vt 0.064728 0.408225
vt 0.064861 0.403532
vt 0.049097 0.298735
vt 0.049095 0.356657
vt 0.050157 0.298735
vt 0.050157 0.356657
vt 0.051086 0.298735
vt 0.051087 0.356657
vt 0.054995 0.298735
vt 0.054996 0.356657
vt 0.054863 0.298735
vt 0.054864 0.356657
vt 0.054995 0.298735
vt 0.054996 0.356657
vt 0.051086 0.298735
vt 0.051087 0.356657
vt 0.050157 0.298735
vt 0.050157 0.356657
vt 0.049097 0.298735
vt 0.049095 0.356657
vt 0.048066 0.298735
vt 0.048063 0.356657
vt 0.078950 0.423850
vt 0.078950 0.423850
vt 0.079461 0.423850
vt 0.082490 0.423850
vt 0.081559 0.423850
vt 0.080495 0.423850
vt 0.087424 0.423850
vt 0.087169 0.423850
vt 0.087568 0.423850
vt 0.086792 0.423850
vt 0.082490 0.423850
vt 0.078950 0.423850
vt 0.079461 0.423850
vt 0.078950 0.423850
vt 0.080495 0.423850
vt 0.081559 0.423850
vt 0.086792 0.423850
vt 0.086660 0.423850
vt 0.056496 0.288250
vt 0.056738 0.288250
vt 0.056505 0.288250
vt 0.058908 0.288250
vt 0.058667 0.288250
vt 0.058434 0.288250
vt 0.054085 0.288250
vt 0.054085 0.288250
vt 0.054550 0.288250
vt 0.058234 0.288250
vt 0.058667 0.288250
vt 0.058908 0.288250
vt 0.058434 0.288250
vt 0.056156 0.288250
vt 0.054085 0.288250
vt 0.054085 0.288250
vt 0.054550 0.288250
vt 0.055099 0.288250
vt 0.056738 0.288250
vt 0.056496 0.288250
vt 0.056505 0.288250
vt 0.056156 0.288250
vt 0.055662 0.288250
vt 0.055099 0.288250
vt 0.055662 0.288250
vt 0.058164 0.288250
vt 0.058234 0.288250
vn 0.0000 0.0000 1.0000
vn 0.0777 0.0001 0.9970
vn 0.0776 0.0001 0.9970
vn -0.8660 0.0000 -0.5000
vn -0.9022 0.0001 -0.4312
vn -0.9022 0.0001 -0.4313
vn 0.8660 0.0000 -0.5000
vn 0.8246 0.0001 -0.5658
vn 0.8246 0.0001 -0.5657
vn -0.6124 0.7071 0.3536
vn -0.6218 0.7188 0.3110
vn -0.6265 0.7246 0.2872
vn 0.0000 0.7071 0.7071
vn 0.0646 0.7246 0.6862
vn 0.0416 0.7188 0.6940
vn 0.8246 0.0001 0.5658
vn 0.8660 0.0000 0.5000
vn 0.8246 0.0001 0.5657
vn -0.5000 0.0000 -0.8660
vn -0.5000 0.0000 0.8660
vn 0.0000 0.7071 -0.7071
vn 0.0416 0.7188 -0.6940
vn 0.0646 0.7246 -0.6862
vn -0.9022 0.0001 0.4312
vn -0.8660 0.0000 0.5000
vn -0.9022 0.0001 0.4313
vn 1.0000 0.0000 0.0000
vn 0.5000 0.0000 0.8660
vn -1.0000 0.0000 0.0000
vn 0.5000 0.0000 -0.8660
vn 0.3536 0.7071 -0.6124
vn 0.3536 0.7071 0.6124
vn -0.7071 0.7071 0.0000
vn -0.3536 0.7071 -0.6124
vn 0.7071 0.7071 0.0000
vn -0.3536 0.7071 0.6124
vn -0.0000 1.0000 -0.0000
vn 0.5802 0.7188 -0.3830
vn 0.6124 0.7071 -0.3536
vn 0.5620 0.7246 -0.3990
vn 0.5620 0.7246 0.3990
vn 0.6124 0.7071 0.3536
vn 0.5802 0.7188 0.3830
vn -0.6218 0.7188 -0.3110
vn -0.6124 0.7071 -0.3536
vn -0.6265 0.7246 -0.2872
vn -0.6439 0.7460 0.1698
vn -0.6460 0.7486 0.1495
vn -0.6530 0.7573 0.0000
vn -0.6439 0.7460 -0.1698
vn -0.6460 0.7486 -0.1495
vn 0.4524 0.7486 -0.4847
vn 0.4690 0.7460 -0.4728
vn 0.3265 0.7573 -0.5655
vn 0.1935 0.7486 -0.6342
vn 0.1749 0.7460 -0.6425
vn 0.4690 0.7460 0.4728
vn 0.4524 0.7486 0.4847
vn 0.3265 0.7573 0.5655
vn 0.1749 0.7460 0.6425
vn 0.1935 0.7486 0.6342
vn 0.2786 0.0002 0.9604
vn 0.5000 0.0002 0.8660
vn 0.6924 0.0002 0.7215
vn 0.6925 0.0002 0.7215
vn -0.9710 0.0002 -0.2389
vn -0.9710 0.0002 -0.2390
vn -1.0000 0.0002 -0.0000
vn -0.9710 0.0002 0.2389
vn -0.9710 0.0002 0.2390
vn 0.6924 0.0002 -0.7215
vn 0.6925 0.0002 -0.7215
vn 0.5000 0.0002 -0.8660
vn 0.2786 0.0002 -0.9604
vn 0.0777 0.0001 -0.9970
vn 0.0776 0.0001 -0.9970
vn 0.0000 -0.0000 -1.0000
vn 0.0000 -1.0000 0.0000
usemtl hexagons_medieval
s 1
f 1/1/1 43/2/2 72/3/3 27/4/1
f 10/5/4 48/6/5 52/7/6 31/8/4
f 3/9/7 38/10/8 67/11/9 35/12/7
f 17/13/10 58/14/11 53/15/12 18/16/10
f 27/17/13 72/18/14 77/19/15 28/20/13
f 42/21/16 11/22/17 14/23/17 73/24/18
f 4/25/19 9/26/19 26/27/19 15/28/19
f 8/29/20 7/30/20 34/31/20 23/32/20
f 21/33/21 63/34/22 68/35/23 22/36/21
f 47/37/24 12/38/25 18/39/25 53/40/26
f 6/41/27 5/42/27 30/43/27 19/44/27
f 18/39/28 12/38/28 6/41/28 19/44/28
f 22/45/29 2/46/29 8/29/29 23/32/29
f 30/43/30 5/42/30 10/5/30 31/8/30
f 34/31/28 7/30/28 3/9/28 35/12/28
f 26/27/29 9/26/29 1/1/29 27/4/29
f 14/47/31 15/48/31 16/49/31 13/50/31
f 18/16/32 19/51/32 20/52/32 17/13/32
f 22/36/33 23/53/33 24/54/33 21/33/33
f 26/55/33 27/17/33 28/20/33 25/56/33
f 15/48/34 26/55/34 25/56/34 16/49/34
f 30/57/31 31/58/31 32/59/31 29/60/31
f 29/60/35 20/52/35 19/51/35 30/57/35
f 34/61/32 35/62/32 36/63/32 33/64/32
f 23/53/36 34/61/36 33/64/36 24/54/36
f 20/65/37 58/66/37 17/67/37
f 62/68/38 36/63/39 35/62/39 67/69/40
f 73/70/41 14/47/42 13/50/42 78/71/43
f 33/72/37 36/73/37 62/74/37
f 16/75/37 78/76/37 13/77/37
f 57/78/44 32/59/45 31/58/45 52/79/46
f 53/15/12 58/14/11 61/80/47 56/81/48
f 56/81/48 61/80/47 60/82/49 55/83/49
f 55/83/49 60/82/49 59/84/50 54/85/51
f 54/85/51 59/84/50 57/78/44 52/79/46
f 62/68/38 67/69/40 69/86/52 64/87/53
f 64/87/53 69/86/52 70/88/54 65/89/54
f 65/89/54 70/88/54 71/90/55 66/91/56
f 66/91/56 71/90/55 68/35/23 63/34/22
f 73/70/41 78/71/43 81/92/57 76/93/58
f 76/93/58 81/92/57 80/94/59 75/95/59
f 75/95/59 80/94/59 79/96/60 74/97/61
f 74/97/61 79/96/60 77/19/15 72/18/14
f 72/3/3 43/2/2 46/98/62 74/99/62
f 74/99/62 46/98/62 45/100/63 75/101/63
f 75/101/63 45/100/63 44/102/64 76/103/65
f 76/103/65 44/102/64 42/21/16 73/24/18
f 52/7/6 48/6/5 51/104/66 54/105/67
f 54/105/67 51/104/66 50/106/68 55/107/68
f 55/107/68 50/106/68 49/108/69 56/109/70
f 56/109/70 49/108/69 47/37/24 53/40/26
f 67/11/9 38/10/8 41/110/71 69/111/72
f 69/111/72 41/110/71 40/112/73 70/113/73
f 70/113/73 40/112/73 39/114/74 71/115/74
f 71/115/74 39/114/74 37/116/75 68/117/76
f 37/116/75 2/46/77 22/45/77 68/117/76
f 21/118/37 24/119/37 63/120/37
f 33/72/37 62/74/37 64/121/37
f 33/72/37 64/121/37 65/122/37
f 24/119/37 33/72/37 65/122/37
f 24/119/37 65/122/37 66/123/37
f 63/120/37 24/119/37 66/123/37
f 32/124/37 57/125/37 29/126/37
f 61/127/37 58/66/37 20/65/37
f 81/128/37 78/76/37 16/75/37
f 28/129/37 77/130/37 25/131/37
f 77/130/37 79/132/37 25/131/37
f 79/132/37 80/133/37 25/131/37
f 25/131/37 80/133/37 16/75/37
f 80/133/37 81/128/37 16/75/37
f 57/125/37 59/134/37 29/126/37
f 59/134/37 60/135/37 29/126/37
f 29/126/37 60/135/37 20/65/37
f 60/135/37 61/127/37 20/65/37
f 4/25/30 15/28/30 14/23/30 11/22/30
f 4/136/78 11/137/78 42/138/78
f 6/139/78 12/140/78 47/141/78
f 8/142/78 2/143/78 37/144/78
f 6/139/78 47/141/78 49/145/78
f 10/146/78 5/147/78 48/148/78
f 4/136/78 42/138/78 44/149/78
f 1/150/78 9/151/78 43/152/78
f 8/142/78 37/144/78 39/153/78
f 3/154/78 7/155/78 38/156/78
f 38/156/78 7/155/78 41/157/78
f 41/157/78 7/155/78 40/158/78
f 7/155/78 8/142/78 40/158/78
f 40/158/78 8/142/78 39/153/78
f 43/152/78 9/151/78 46/159/78
f 46/159/78 9/151/78 45/160/78
f 9/151/78 4/136/78 45/160/78
f 45/160/78 4/136/78 44/149/78
f 6/139/78 49/145/78 50/161/78
f 5/147/78 6/139/78 50/161/78
f 5/147/78 50/161/78 51/162/78
f 48/148/78 5/147/78 51/162/78
