# Blender v3.4.1 OBJ File: 'Medieval_Hexagons_Export_1.0_WorldOrigin.blend'
# www.blender.org
mtllib hex_river_H_waterless.mtl
o hex_river_H_waterless
v -1.000000 -1.000000 -0.577350
v -0.100000 -1.000000 -1.096965
v 1.000000 -1.000000 -0.461880
v 1.000000 -1.000000 0.461880
v -0.100000 -1.000000 1.096965
v 0.000000 -1.000000 -1.154700
v 1.000000 -1.000000 -0.577350
v 1.000000 -1.000000 0.577350
v -0.000000 -1.000000 1.154700
v -1.000000 -1.000000 0.577350
v -0.031699 0.000000 1.078664
v -0.100000 -0.050000 1.096965
v -0.000000 -0.050000 1.154700
v -0.000000 0.000000 1.096965
v -0.900000 -0.050000 -0.635085
v -1.000000 -0.050000 -0.577350
v -0.950000 0.000000 -0.548482
v -1.000000 -0.050000 0.461880
v -1.000000 -0.050000 0.577350
v -0.950000 0.000000 0.548482
v 1.000000 -0.050000 0.461880
v 0.950000 0.000000 0.511880
v 0.950000 0.000000 0.548483
v 1.000000 -0.050000 0.577350
v -1.000000 -0.050000 -0.461880
v -0.000000 0.000000 -1.096965
v 0.000000 -0.050000 -1.154700
v -0.100000 -0.050000 -1.096965
v -0.031699 0.000000 -1.078664
v 0.950000 0.000000 -0.548482
v 1.000000 -0.050000 -0.577350
v 0.950000 0.000000 -0.511880
v 1.000000 -0.050000 -0.461880
v -0.900000 -0.050000 0.635085
v -0.918301 0.000000 0.566784
v 0.806099 -1.000000 -0.461880
v -0.003050 -1.000000 -0.929042
v 0.579136 -1.000000 -0.497440
v 0.345665 -1.000000 -0.598709
v 0.141228 -1.000000 -0.750267
v -0.003050 -1.000000 0.929042
v 0.806099 -1.000000 0.461880
v 0.141228 -1.000000 0.750267
v 0.345665 -1.000000 0.598709
v 0.579136 -1.000000 0.497441
v 0.806840 -0.050000 0.461880
v -0.003420 -0.050000 0.929684
v 0.579565 -0.050000 0.497490
v 0.345773 -0.050000 0.598897
v 0.141056 -0.050000 0.750663
v 0.836572 0.000000 0.511880
v 0.025015 0.000000 0.980433
v 0.608934 0.000000 0.547547
v 0.374767 0.000000 0.649116
v 0.169722 0.000000 0.801125
v 0.025015 0.000000 -0.980432
v 0.836572 -0.000000 -0.511880
v 0.169723 0.000000 -0.801125
v 0.374767 0.000000 -0.649116
v 0.608934 -0.000000 -0.547546
v -0.003420 -0.050000 -0.929684
v 0.806840 -0.050000 -0.461880
v 0.141056 -0.050000 -0.750663
v 0.345773 -0.050000 -0.598897
v 0.579566 -0.050000 -0.497489
v -0.953498 -0.050000 -0.461880
v -0.876749 -0.050000 -0.594813
v -0.887031 -0.050000 -0.479690
v -0.858939 -0.050000 -0.528346
v -0.950000 0.000000 -0.511880
v -0.918301 0.000000 -0.566784
v -0.922548 0.000000 -0.519236
v -0.910946 0.000000 -0.539332
v -0.950000 0.000000 0.511880
v -0.910946 0.000000 0.539332
v -0.922548 0.000000 0.519236
v -0.876749 -0.050000 0.594813
v -0.953498 -0.050000 0.461880
v -0.858939 -0.050000 0.528347
v -0.887031 -0.050000 0.479690
v -1.000000 -1.000000 0.461880
v -0.900000 -1.000000 0.635085
v -0.876328 -1.000000 0.594085
v -0.858617 -1.000000 0.527983
v -0.886555 -1.000000 0.479592
v -0.952657 -1.000000 0.461880
v -0.900000 -1.000000 -0.635085
v -1.000000 -1.000000 -0.461880
v -0.952657 -1.000000 -0.461880
v -0.886555 -1.000000 -0.479592
v -0.858617 -1.000000 -0.527983
v -0.876328 -1.000000 -0.594085
vt 0.051726 0.298735
vt 0.056262 0.298735
vt 0.056262 0.356657
vt 0.051726 0.356657
vt 0.051272 0.298735
vt 0.051712 0.298735
vt 0.051710 0.356657
vt 0.051272 0.356657
vt 0.047644 0.356657
vt 0.047644 0.298735
vt 0.047190 0.298735
vt 0.047190 0.356657
vt 0.067349 0.408225
vt 0.067606 0.408225
vt 0.067477 0.403532
vt 0.067039 0.403532
vt 0.047190 0.298735
vt 0.047405 0.298735
vt 0.047401 0.356657
vt 0.047190 0.356657
vt 0.047644 0.298735
vt 0.047751 0.298735
vt 0.047749 0.356657
vt 0.047644 0.356657
vt 0.047405 0.298735
vt 0.047190 0.298735
vt 0.047190 0.356657
vt 0.047401 0.356657
vt 0.067606 0.408225
vt 0.067349 0.408225
vt 0.067039 0.403532
vt 0.067477 0.403532
vt 0.056262 0.298735
vt 0.051726 0.298735
vt 0.051726 0.356657
vt 0.056262 0.356657
vt 0.056262 0.298735
vt 0.055382 0.298735
vt 0.055386 0.356657
vt 0.056262 0.356657
vt 0.063183 0.408225
vt 0.063167 0.403532
vt 0.062957 0.403532
vt 0.047751 0.298735
vt 0.047749 0.356657
vt 0.062957 0.403532
vt 0.063167 0.403532
vt 0.063183 0.408225
vt 0.051712 0.298735
vt 0.051272 0.298735
vt 0.051272 0.356657
vt 0.051710 0.356657
vt 0.056262 0.356657
vt 0.056262 0.298735
vt 0.067492 0.403532
vt 0.067492 0.408225
vt 0.063410 0.403532
vt 0.062957 0.403532
vt 0.063183 0.408225
vt 0.063327 0.408225
vt 0.062957 0.403532
vt 0.063183 0.408225
vt 0.071802 0.408225
vt 0.071802 0.408225
vt 0.072028 0.403532
vt 0.072028 0.403532
vt 0.067492 0.403532
vt 0.067492 0.408225
vt 0.072028 0.403532
vt 0.071802 0.408225
vt 0.071802 0.408225
vt 0.072028 0.403532
vt 0.063410 0.403532
vt 0.063327 0.408225
vt 0.083259 0.423850
vt 0.083372 0.423850
vt 0.083115 0.423850
vt 0.063516 0.403532
vt 0.078950 0.423850
vt 0.078950 0.423850
vt 0.079074 0.423850
vt 0.087568 0.423850
vt 0.087054 0.423850
vt 0.087568 0.423850
vt 0.071287 0.408225
vt 0.071152 0.403532
vt 0.063516 0.403532
vt 0.071152 0.403532
vt 0.071287 0.408225
vt 0.078950 0.423850
vt 0.079094 0.423850
vt 0.079127 0.423850
vt 0.068262 0.408225
vt 0.068132 0.403532
vt 0.069192 0.408225
vt 0.069061 0.403532
vt 0.070254 0.408225
vt 0.070121 0.403532
vt 0.068132 0.403532
vt 0.068262 0.408225
vt 0.069061 0.403532
vt 0.069192 0.408225
vt 0.070121 0.403532
vt 0.070254 0.408225
vt 0.054353 0.298735
vt 0.054355 0.356657
vt 0.053294 0.298735
vt 0.053294 0.356657
vt 0.052367 0.298735
vt 0.052366 0.356657
vt 0.055382 0.298735
vt 0.055386 0.356657
vt 0.054355 0.356657
vt 0.054353 0.298735
vt 0.053294 0.356657
vt 0.053294 0.298735
vt 0.052366 0.356657
vt 0.052367 0.298735
vt 0.063360 0.408225
vt 0.063596 0.403532
vt 0.063308 0.408225
vt 0.063469 0.403532
vt 0.063596 0.403532
vt 0.063360 0.408225
vt 0.063469 0.403532
vt 0.063308 0.408225
vt 0.047705 0.298735
vt 0.047702 0.356657
vt 0.047831 0.298735
vt 0.047830 0.356657
vt 0.047831 0.298735
vt 0.047830 0.356657
vt 0.047705 0.298735
vt 0.047702 0.356657
vt 0.078950 0.423850
vt 0.079074 0.423850
vt 0.079094 0.423850
vt 0.079127 0.423850
vt 0.086021 0.423850
vt 0.087568 0.423850
vt 0.087054 0.423850
vt 0.087568 0.423850
vt 0.084029 0.423850
vt 0.084959 0.423850
vt 0.086021 0.423850
vt 0.083115 0.423850
vt 0.083372 0.423850
vt 0.083259 0.423850
vt 0.084029 0.423850
vt 0.084959 0.423850
vt 0.047190 0.356657
vt 0.047190 0.298735
vt 0.066143 0.288250
vt 0.066143 0.288250
vt 0.065676 0.288250
vt 0.066143 0.288250
vt 0.065676 0.288250
vt 0.066143 0.288250
vt 0.065128 0.288250
vt 0.061320 0.288250
vt 0.061661 0.288250
vt 0.061618 0.288250
vt 0.061594 0.288250
vt 0.061434 0.288250
vt 0.061320 0.288250
vt 0.061561 0.288250
vt 0.063732 0.288250
vt 0.063724 0.288250
vt 0.064072 0.288250
vt 0.063490 0.288250
vt 0.061320 0.288250
vt 0.061594 0.288250
vt 0.061434 0.288250
vt 0.061661 0.288250
vt 0.061618 0.288250
vt 0.061320 0.288250
vt 0.061561 0.288250
vt 0.064565 0.288250
vt 0.065128 0.288250
vt 0.063490 0.288250
vt 0.063732 0.288250
vt 0.063724 0.288250
vt 0.064072 0.288250
vt 0.064565 0.288250
vn 0.5000 0.0000 0.8660
vn -0.8660 0.0000 0.5000
vn -0.8246 0.0001 0.5658
vn -0.8246 0.0001 0.5657
vn -0.5000 0.0000 -0.8660
vn -0.6124 0.7071 -0.3536
vn -0.5802 0.7188 -0.3830
vn -0.5620 0.7246 -0.3990
vn 0.0000 0.0000 1.0000
vn 0.1306 0.0001 0.9914
vn 0.1305 0.0001 0.9915
vn 0.8660 0.0000 0.5000
vn 0.9239 0.0001 0.3826
vn 0.9239 0.0001 0.3828
vn 0.1306 0.0001 -0.9914
vn -0.0000 0.0000 -1.0000
vn 0.1305 0.0001 -0.9915
vn -0.5802 0.7188 0.3830
vn -0.6124 0.7071 0.3536
vn -0.5620 0.7246 0.3990
vn 0.5000 0.0000 -0.8660
vn -0.0777 0.0001 -0.9970
vn -0.0776 0.0001 -0.9970
vn 0.1434 0.6948 -0.7048
vn 0.0853 0.7015 -0.7075
vn 0.0000 0.7071 -0.7071
vn 0.9239 0.0001 -0.3826
vn 0.8660 0.0000 -0.5000
vn 0.9239 0.0001 -0.3827
vn 0.0000 0.7071 0.7071
vn 0.0853 0.7015 0.7075
vn 0.1434 0.6948 0.7048
vn -0.8246 0.0001 -0.5658
vn -0.8660 -0.0000 -0.5000
vn -0.8246 0.0001 -0.5657
vn 1.0000 0.0000 0.0000
vn -1.0000 0.0000 0.0000
vn -0.3536 0.7071 0.6124
vn -0.3536 0.7071 -0.6124
vn -0.7071 0.7071 0.0000
vn 0.7071 0.7071 0.0000
vn 0.3536 0.7071 -0.6124
vn 0.3536 0.7071 0.6124
vn 0.0000 1.0000 0.0000
vn 0.6554 0.7015 -0.2798
vn 0.6124 0.7071 -0.3536
vn 0.6821 0.6948 -0.2282
vn -0.0416 0.7188 -0.6940
vn -0.0646 0.7246 -0.6862
vn 0.6124 0.7071 0.3536
vn 0.6554 0.7015 0.2798
vn 0.6821 0.6948 0.2282
vn -0.0646 0.7246 0.6862
vn -0.0416 0.7188 0.6940
vn -0.4690 0.7460 -0.4728
vn -0.4524 0.7486 -0.4847
vn -0.3265 0.7573 -0.5655
vn -0.1749 0.7460 -0.6425
vn -0.1935 0.7486 -0.6342
vn -0.4524 0.7486 0.4847
vn -0.4690 0.7460 0.4728
vn -0.3265 0.7573 0.5655
vn -0.1935 0.7486 0.6342
vn -0.1749 0.7460 0.6425
vn -0.2786 0.0002 -0.9604
vn -0.5000 0.0002 -0.8660
vn -0.6924 0.0002 -0.7215
vn -0.6925 0.0002 -0.7215
vn -0.0777 0.0001 0.9970
vn -0.0776 0.0001 0.9970
vn -0.2786 0.0002 0.9604
vn -0.5000 0.0002 0.8660
vn -0.6925 0.0002 0.7215
vn -0.6924 0.0002 0.7215
vn 0.6825 0.7268 0.0770
vn 0.6791 0.7276 0.0969
vn 0.4079 0.7268 0.5526
vn 0.4235 0.7276 0.5396
vn 0.6791 0.7276 -0.0969
vn 0.6825 0.7268 -0.0770
vn 0.4235 0.7276 -0.5396
vn 0.4079 0.7268 -0.5526
vn 0.2588 0.0002 0.9659
vn 0.8660 0.0005 0.5000
vn 0.9659 0.0002 -0.2588
vn 0.9659 0.0002 0.2588
vn 0.8660 0.0005 -0.5000
vn 0.2588 0.0002 -0.9659
vn -0.5000 -0.0000 0.8660
vn 0.0000 -1.0000 0.0000
usemtl hexagons_medieval
s 1
f 9/1/1 8/2/1 24/3/1 13/4/1
f 2/5/2 37/6/3 61/7/4 28/8/2
f 15/9/5 87/10/5 1/11/5 16/12/5
f 11/13/6 52/14/7 47/15/8 12/16/6
f 88/17/9 89/18/10 66/19/11 25/20/9
f 82/21/12 83/22/13 77/23/14 34/24/12
f 86/25/15 81/26/16 18/27/16 78/28/17
f 56/29/18 29/30/19 28/31/19 61/32/20
f 7/33/21 6/34/21 27/35/21 31/36/21
f 4/37/16 42/38/22 46/39/23 21/40/16
f 74/41/24 78/42/25 18/43/26
f 92/44/27 87/10/28 15/9/28 67/45/29
f 25/46/30 66/47/31 70/48/32
f 41/49/33 5/50/34 12/51/34 47/52/35
f 33/53/36 3/54/36 7/33/36 31/36/36
f 27/35/5 6/34/5 2/5/5 28/8/5
f 16/12/37 1/11/37 88/17/37 25/20/37
f 12/16/38 13/55/38 14/56/38 11/13/38
f 15/57/39 16/58/39 17/59/39 71/60/39
f 18/43/40 19/61/40 20/62/40 74/41/40
f 22/63/41 23/64/41 24/65/41 21/66/41
f 16/58/40 25/46/40 70/48/40 17/59/40
f 27/67/39 28/31/39 29/30/39 26/68/39
f 31/69/42 27/67/42 26/68/42 30/70/42
f 30/70/41 32/71/41 33/72/41 31/69/41
f 13/55/43 24/65/43 23/64/43 14/56/43
f 19/61/38 34/73/38 35/74/38 20/62/38
f 14/75/44 52/76/44 11/77/44
f 67/78/45 15/57/46 71/60/47
f 17/79/44 70/80/44 72/81/44
f 30/82/44 57/83/44 32/84/44
f 51/85/48 22/63/26 21/66/26 46/86/49
f 34/73/50 77/87/51 35/74/52
f 62/88/53 33/72/30 32/71/30 57/89/54
f 20/90/44 35/91/44 75/92/44
f 47/15/8 52/14/7 55/93/55 50/94/56
f 50/94/56 55/93/55 54/95/57 49/96/57
f 49/96/57 54/95/57 53/97/58 48/98/59
f 48/98/59 53/97/58 51/85/48 46/86/49
f 56/29/18 61/32/20 63/99/60 58/100/61
f 58/100/61 63/99/60 64/101/62 59/102/62
f 59/102/62 64/101/62 65/103/63 60/104/64
f 60/104/64 65/103/63 62/88/53 57/89/54
f 46/39/23 42/38/22 45/105/65 48/106/65
f 48/106/65 45/105/65 44/107/66 49/108/66
f 49/108/66 44/107/66 43/109/67 50/110/68
f 50/110/68 43/109/67 41/49/33 47/52/35
f 36/111/69 62/112/70 65/113/71 38/114/71
f 38/114/71 65/113/71 64/115/72 39/116/72
f 39/116/72 64/115/72 63/117/73 40/118/74
f 40/118/74 63/117/73 61/7/4 37/6/3
f 36/111/69 3/54/9 33/53/9 62/112/70
f 67/78/45 71/60/47 73/119/75 69/120/76
f 69/120/76 73/119/75 72/121/77 68/122/78
f 68/122/78 72/121/77 70/48/32 66/47/31
f 35/74/52 77/87/51 79/123/79 75/124/80
f 75/124/80 79/123/79 80/125/81 76/126/82
f 76/126/82 80/125/81 78/42/25 74/41/24
f 66/19/11 89/18/10 90/127/83 68/128/83
f 68/128/84 90/127/84 91/129/84 69/130/84
f 69/130/85 91/129/85 92/44/27 67/45/29
f 77/23/14 83/22/13 84/131/86 79/132/86
f 79/132/87 84/131/87 85/133/87 80/134/87
f 80/134/88 85/133/88 86/25/15 78/28/17
f 74/135/44 20/90/44 76/136/44
f 76/136/44 20/90/44 75/92/44
f 71/137/44 17/79/44 73/138/44
f 73/138/44 17/79/44 72/81/44
f 60/139/44 57/83/44 30/82/44
f 22/140/44 51/141/44 23/142/44
f 14/75/44 55/143/44 52/76/44
f 14/75/44 54/144/44 55/143/44
f 23/142/44 54/144/44 14/75/44
f 53/145/44 54/144/44 23/142/44
f 51/141/44 53/145/44 23/142/44
f 29/146/44 56/147/44 26/148/44
f 56/147/44 58/149/44 26/148/44
f 58/149/44 59/150/44 26/148/44
f 26/148/44 59/150/44 30/82/44
f 59/150/44 60/139/44 30/82/44
f 9/1/89 13/4/89 12/51/89 5/50/89
f 24/3/36 8/2/36 4/37/36 21/40/36
f 19/151/89 10/152/89 82/21/89 34/24/89
f 18/27/37 81/26/37 10/152/37 19/151/37
f 7/153/90 3/154/90 36/155/90
f 8/156/90 42/157/90 4/158/90
f 7/153/90 36/155/90 38/159/90
f 10/160/90 84/161/90 83/162/90
f 10/160/90 85/163/90 84/161/90
f 10/160/90 86/164/90 85/163/90
f 10/160/90 81/165/90 86/164/90
f 10/160/90 83/162/90 82/166/90
f 9/167/90 41/168/90 43/169/90
f 9/167/90 5/170/90 41/168/90
f 1/171/90 90/172/90 89/173/90
f 1/171/90 91/174/90 90/172/90
f 1/171/90 92/175/90 91/174/90
f 1/171/90 89/173/90 88/176/90
f 1/171/90 87/177/90 92/175/90
f 8/156/90 9/167/90 44/178/90
f 45/179/90 8/156/90 44/178/90
f 42/157/90 8/156/90 45/179/90
f 9/167/90 43/169/90 44/178/90
f 2/180/90 6/181/90 37/182/90
f 37/182/90 6/181/90 40/183/90
f 40/183/90 6/181/90 39/184/90
f 6/181/90 7/153/90 39/184/90
f 39/184/90 7/153/90 38/159/90
