# Blender v3.4.1 OBJ File: 'Medieval_Hexagons_Export_1.0_WorldOrigin.blend'
# www.blender.org
mtllib hex_river_crossing_B_waterless.mtl
o hex_river_crossing_B_waterless
v 1.000000 -0.050000 0.461880
v -1.000000 -0.050000 -0.461880
v -1.000000 -0.050000 0.461880
v 0.000000 -1.000000 -1.154700
v -1.000000 -1.000000 -0.577350
v -1.000000 -1.000000 0.577350
v 0.000000 -1.000000 1.154700
v 1.000000 -1.000000 0.577350
v 1.000000 -1.000000 -0.577350
v 1.000000 -1.000000 0.461880
v -1.000000 -1.000000 0.461880
v -0.333333 -0.050000 0.962250
v -0.666667 -0.050000 0.769800
v -0.333333 -1.000000 0.962250
v -0.666667 -1.000000 0.769800
v 0.333333 -0.050000 -0.962250
v 0.666667 -0.050000 -0.769800
v 0.333333 -1.000000 -0.962250
v 0.666667 -1.000000 -0.769800
v 0.044445 -0.050000 -0.461880
v 0.488889 -0.050000 -0.461880
v -0.044444 -0.050000 0.461880
v 0.950000 -0.000000 0.511880
v 1.000000 -0.050000 0.577350
v 0.950000 -0.000000 0.548482
v -0.950000 -0.000000 0.511880
v -0.950000 -0.000000 0.548483
v -1.000000 -0.050000 0.577350
v 0.950000 0.000000 -0.548482
v 1.000000 -0.050000 -0.577350
v 1.000000 -0.050000 -0.461880
v 0.950000 0.000000 -0.511880
v 0.684968 0.000000 -0.701499
v -0.950000 0.000000 -0.548482
v -1.000000 -0.050000 -0.577350
v 0.000000 -0.050000 -1.154700
v 0.000000 0.000000 -1.096965
v -0.950000 0.000000 -0.511880
v -0.684968 -0.000000 0.701499
v 0.000000 -0.050000 1.154700
v 0.000000 -0.000000 1.096965
v 0.015577 0.000000 -0.511880
v -0.488889 -0.050000 0.461880
v -0.575491 -0.000000 0.511880
v -0.265032 -0.000000 0.943949
v 0.265032 0.000000 -0.943949
v 0.575491 0.000000 -0.511880
v -0.015577 -0.000000 0.511880
v 1.000000 -1.000000 -0.461880
v -1.000000 -1.000000 -0.461880
v 0.044445 -1.000000 -0.461880
v -0.488889 -1.000000 0.461880
v 0.488889 -1.000000 -0.461880
v -0.044445 -1.000000 0.461880
vt 0.047190 0.356657
vt 0.047190 0.298735
vt 0.047190 0.356657
vt 0.050214 0.356657
vt 0.051726 0.298735
vt 0.051726 0.356657
vt 0.056262 0.298735
vt 0.056262 0.356657
vt 0.056262 0.356657
vt 0.048702 0.356657
vt 0.053238 0.356657
vt 0.051726 0.298735
vt 0.051726 0.356657
vt 0.056262 0.298735
vt 0.054750 0.356657
vt 0.056262 0.356657
vt 0.056262 0.356657
vt 0.050214 0.298735
vt 0.047190 0.298735
vt 0.047190 0.356657
vt 0.420295 0.383213
vt 0.420295 0.329985
vt 0.418254 0.329985
vt 0.418254 0.383213
vt 0.085869 0.423850
vt 0.087568 0.423850
vt 0.087568 0.423850
vt 0.086366 0.423850
vt 0.412130 0.383213
vt 0.412130 0.329985
vt 0.414171 0.329985
vt 0.414171 0.383213
vt 0.444060 0.414463
vt 0.446101 0.414463
vt 0.447870 0.414463
vt 0.445148 0.414463
vt 0.053238 0.298735
vt 0.054750 0.298735
vt 0.056262 0.298735
vt 0.078950 0.423850
vt 0.080152 0.423850
vt 0.080649 0.423850
vt 0.078950 0.423850
vt 0.047190 0.298735
vt 0.082057 0.423850
vt 0.083259 0.423850
vt 0.087568 0.423850
vt 0.087568 0.423850
vt 0.083188 0.423850
vt 0.047190 0.298735
vt 0.047190 0.356657
vt 0.048702 0.298735
vt 0.078950 0.423850
vt 0.083330 0.423850
vt 0.084461 0.423850
vt 0.083259 0.423850
vt 0.078950 0.423850
vt 0.056262 0.298735
vt 0.062957 0.403532
vt 0.063183 0.408225
vt 0.063183 0.408225
vt 0.062957 0.403532
vt 0.071802 0.408225
vt 0.072028 0.403532
vt 0.072028 0.403532
vt 0.071802 0.408225
vt 0.062957 0.403532
vt 0.063183 0.408225
vt 0.063183 0.408225
vt 0.062957 0.403532
vt 0.064469 0.403532
vt 0.064386 0.408225
vt 0.072028 0.403532
vt 0.071802 0.408225
vt 0.067492 0.408225
vt 0.067492 0.403532
vt 0.072028 0.403532
vt 0.071802 0.408225
vt 0.070516 0.403532
vt 0.070599 0.408225
vt 0.067492 0.408225
vt 0.067492 0.403532
vt 0.067291 0.403532
vt 0.067422 0.408225
vt 0.070103 0.408225
vt 0.069710 0.403532
vt 0.068695 0.408225
vt 0.069004 0.403532
vt 0.066290 0.408225
vt 0.065980 0.403532
vt 0.064882 0.408225
vt 0.065275 0.403532
vt 0.067694 0.403532
vt 0.067563 0.408225
vt 0.448415 0.414463
vt 0.451136 0.414463
vt 0.452225 0.414463
vt 0.450184 0.414463
vt 0.049508 0.356657
vt 0.049508 0.298735
vt 0.053943 0.356657
vt 0.053943 0.298735
vt 0.447870 0.329985
vt 0.445148 0.329985
vt 0.051928 0.298735
vt 0.051928 0.356657
vt 0.051524 0.298735
vt 0.051524 0.356657
vt 0.448415 0.329985
vt 0.451136 0.329985
vt 0.064911 0.288250
vt 0.065339 0.288250
vt 0.066143 0.288250
vt 0.066143 0.288250
vt 0.063732 0.288250
vt 0.063624 0.288250
vt 0.066143 0.288250
vt 0.066143 0.288250
vt 0.061320 0.288250
vt 0.061320 0.288250
vt 0.062553 0.288250
vt 0.062124 0.288250
vt 0.062928 0.288250
vt 0.061320 0.288250
vt 0.061320 0.288250
vt 0.063732 0.288250
vt 0.063839 0.288250
vt 0.064536 0.288250
vn 1.0000 0.0000 -0.0000
vn 0.5000 0.0000 -0.8660
vn -1.0000 0.0000 -0.0000
vn -0.5000 -0.0000 0.8660
vn 0.5000 -0.0000 0.8660
vn 0.0000 1.0000 0.0000
vn -0.5000 0.0000 -0.8660
vn 0.7071 0.7071 0.0000
vn -0.7071 0.7071 0.0000
vn 0.3536 0.7071 -0.6124
vn -0.3536 0.7071 -0.6124
vn -0.3536 0.7071 0.6124
vn 0.3536 0.7071 0.6124
vn 0.0000 0.7071 0.7071
vn -0.0000 0.7071 -0.7071
vn 0.6124 0.7071 0.3536
vn -0.6124 0.7071 -0.3536
vn 0.0000 0.0000 1.0000
vn -0.0000 0.0000 -1.0000
vn 0.0000 -1.0000 -0.0000
usemtl hexagons_medieval
s 1
f 31/1/1 9/2/1 30/3/1
f 16/4/2 4/5/2 36/6/2
f 5/7/3 2/8/3 35/9/3
f 9/2/2 17/10/2 30/3/2
f 12/11/4 7/12/4 40/13/4
f 6/14/4 13/15/4 28/16/4
f 3/17/3 6/14/3 28/16/3
f 18/18/2 4/5/2 16/4/2
f 7/12/5 8/19/5 24/20/5 40/13/5
f 13/21/4 15/22/4 14/23/4 12/24/4
f 44/25/6 26/26/6 27/27/6 39/28/6
f 4/5/7 5/7/7 35/9/7 36/6/7
f 17/29/2 19/30/2 18/31/2 16/32/2
f 17/33/6 16/34/6 20/35/6 21/36/6
f 14/37/4 7/12/4 12/11/4
f 15/38/4 13/15/4 6/14/4
f 50/39/3 2/8/3 5/7/3
f 29/40/6 33/41/6 47/42/6 32/43/6
f 49/44/1 9/2/1 31/1/1
f 46/45/6 37/46/6 34/47/6 38/48/6 42/49/6
f 10/50/1 1/51/1 8/19/1
f 19/52/2 17/10/2 9/2/2
f 23/53/6 48/54/6 45/55/6 41/56/6 25/57/6
f 11/58/3 6/14/3 3/17/3
f 1/59/8 23/60/8 25/61/8 24/62/8
f 26/63/9 3/64/9 28/65/9 27/66/9
f 30/67/8 29/68/8 32/69/8 31/70/8
f 17/71/10 33/72/10 29/68/10 30/67/10
f 35/73/11 34/74/11 37/75/11 36/76/11
f 34/74/9 35/73/9 2/77/9 38/78/9
f 13/79/12 39/80/12 27/66/12 28/65/12
f 24/62/13 25/61/13 41/81/13 40/82/13
f 20/83/14 42/84/14 38/78/14 2/77/14
f 44/85/15 43/86/15 3/64/15 26/63/15
f 40/82/12 41/81/12 45/87/12 12/88/12
f 36/76/10 37/75/10 46/89/10 16/90/10
f 42/84/16 20/83/16 16/90/16 46/89/16
f 39/80/16 13/79/16 43/86/16 44/85/16
f 31/70/14 32/69/14 47/91/14 21/92/14
f 23/60/15 1/59/15 22/93/15 48/94/15
f 21/92/17 47/91/17 33/72/17 17/71/17
f 12/88/17 45/87/17 48/94/17 22/93/17
f 22/95/6 43/96/6 13/97/6 12/98/6
f 8/19/1 1/51/1 24/20/1
f 21/99/18 53/100/18 49/44/18 31/1/18
f 43/101/19 52/102/19 11/58/19 3/17/19
f 20/35/18 51/103/18 53/104/18 21/36/18
f 1/51/19 10/50/19 54/105/19 22/106/19
f 2/8/18 50/39/18 51/107/18 20/108/18
f 22/95/19 54/109/19 52/110/19 43/96/19
f 52/111/20 15/112/20 6/113/20 11/114/20
f 4/115/20 51/116/20 50/117/20 5/118/20
f 9/119/20 49/120/20 53/121/20 19/122/20
f 19/122/20 53/121/20 51/116/20 18/123/20
f 18/123/20 51/116/20 4/115/20
f 10/124/20 8/125/20 7/126/20 54/127/20
f 54/127/20 14/128/20 15/112/20 52/111/20
f 7/126/20 14/128/20 54/127/20
