# Blender v3.4.1 OBJ File: 'Medieval_Hexagons_Export_1.0_WorldOrigin.blend'
# www.blender.org
mtllib hex_river_C_waterless.mtl
o hex_river_C_waterless
v -1.000000 -1.000000 0.461880
v 0.000000 -1.000000 -1.154700
v 1.000000 -1.000000 -0.577350
v 1.000000 -1.000000 0.577350
v -0.000000 -1.000000 1.154700
v -1.000000 -1.000000 0.577350
v -1.000000 -1.000000 -0.577350
v -0.100000 -1.000000 -1.096965
v -0.950000 0.000000 0.511880
v -1.000000 -0.050000 0.461880
v -1.000000 -0.050000 0.577350
v -0.950000 0.000000 0.548482
v -0.000000 0.000000 -1.096965
v -0.000000 -0.050000 -1.154700
v -0.100000 -0.050000 -1.096965
v -0.031699 0.000000 -1.078664
v 0.950000 0.000000 -0.548482
v 1.000000 -0.050000 -0.577350
v 0.950000 0.000000 0.548483
v 1.000000 -0.050000 0.577350
v -0.000000 0.000000 1.096965
v -0.000000 -0.050000 1.154700
v -0.900000 -0.050000 -0.635085
v -1.000000 -0.050000 -0.577350
v -0.950000 0.000000 -0.548482
v -1.000000 -0.050000 -0.461880
v -0.763500 -1.000000 0.461880
v 0.018250 -1.000000 -0.892150
v -0.473497 -1.000000 0.435863
v -0.224682 -1.000000 0.358811
v -0.026614 -1.000000 0.233685
v 0.113092 -1.000000 0.065294
v 0.189070 -1.000000 -0.139891
v 0.198399 -1.000000 -0.373985
v 0.140719 -1.000000 -0.627992
v 0.089785 0.000000 -0.868248
v -0.707032 0.000000 0.511880
v 0.214615 0.000000 -0.598998
v 0.273406 0.000000 -0.340096
v 0.263897 0.000000 -0.101490
v 0.186455 0.000000 0.107650
v 0.044056 0.000000 0.279286
v -0.157828 0.000000 0.406824
v -0.411440 0.000000 0.485361
v 0.013945 -0.050000 -0.899607
v -0.772110 -0.050000 0.461880
v 0.137089 -0.050000 -0.633994
v 0.195085 -0.050000 -0.378588
v 0.185705 -0.050000 -0.143205
v 0.109309 -0.050000 0.063110
v -0.031166 -0.050000 0.232428
v -0.230324 -0.050000 0.358243
v -0.480510 -0.050000 0.435719
v -0.954465 -0.050000 -0.461880
v -0.877232 -0.050000 -0.595650
v -0.887580 -0.050000 -0.479802
v -0.859311 -0.050000 -0.528765
v -0.950000 0.000000 -0.511880
v -0.918301 0.000000 -0.566784
v -0.922548 0.000000 -0.519236
v -0.910946 0.000000 -0.539332
v -0.900000 -1.000000 -0.635085
v -0.858986 -1.000000 -0.528399
v -0.887100 -1.000000 -0.479704
v -0.953619 -1.000000 -0.461880
v -0.876809 -1.000000 -0.594918
v -1.000000 -1.000000 -0.461880
vt 0.051272 0.298735
vt 0.051809 0.298735
vt 0.051789 0.356657
vt 0.051272 0.356657
vt 0.056262 0.298735
vt 0.056262 0.298735
vt 0.056262 0.356657
vt 0.056262 0.356657
vt 0.047190 0.298735
vt 0.051726 0.298735
vt 0.051726 0.356657
vt 0.047190 0.356657
vt 0.048263 0.298735
vt 0.047190 0.298735
vt 0.047190 0.356657
vt 0.048224 0.356657
vt 0.062957 0.403532
vt 0.063163 0.403532
vt 0.063183 0.408225
vt 0.047190 0.298735
vt 0.047400 0.298735
vt 0.047397 0.356657
vt 0.047190 0.356657
vt 0.051726 0.298735
vt 0.051726 0.356657
vt 0.063183 0.408225
vt 0.064285 0.408225
vt 0.063990 0.403532
vt 0.062957 0.403532
vt 0.062957 0.403532
vt 0.063183 0.408225
vt 0.067492 0.403532
vt 0.067039 0.403532
vt 0.067349 0.408225
vt 0.067492 0.408225
vt 0.072028 0.403532
vt 0.071802 0.408225
vt 0.071802 0.408225
vt 0.072028 0.403532
vt 0.067492 0.403532
vt 0.067492 0.408225
vt 0.067900 0.408225
vt 0.067556 0.403532
vt 0.087568 0.423850
vt 0.083259 0.423850
vt 0.083115 0.423850
vt 0.083666 0.423850
vt 0.063410 0.403532
vt 0.062957 0.403532
vt 0.063183 0.408225
vt 0.063327 0.408225
vt 0.063513 0.403532
vt 0.078950 0.423850
vt 0.078950 0.423850
vt 0.079074 0.423850
vt 0.068114 0.403532
vt 0.068466 0.408225
vt 0.068377 0.403532
vt 0.068733 0.408225
vt 0.068335 0.403532
vt 0.068689 0.408225
vt 0.067988 0.403532
vt 0.068338 0.408225
vt 0.067351 0.403532
vt 0.067692 0.408225
vt 0.066448 0.403532
vt 0.066777 0.408225
vt 0.065313 0.403532
vt 0.065626 0.408225
vt 0.052364 0.298735
vt 0.052348 0.356657
vt 0.052626 0.298735
vt 0.052611 0.356657
vt 0.052584 0.298735
vt 0.052568 0.356657
vt 0.052239 0.298735
vt 0.052222 0.356657
vt 0.051605 0.298735
vt 0.051585 0.356657
vt 0.050707 0.298735
vt 0.050681 0.356657
vt 0.049578 0.298735
vt 0.049546 0.356657
vt 0.047749 0.298735
vt 0.047644 0.298735
vt 0.047644 0.356657
vt 0.047747 0.356657
vt 0.063360 0.408225
vt 0.063595 0.403532
vt 0.063308 0.408225
vt 0.063466 0.403532
vt 0.047702 0.298735
vt 0.047700 0.356657
vt 0.047830 0.298735
vt 0.047828 0.356657
vt 0.087568 0.423850
vt 0.084105 0.423850
vt 0.083459 0.423850
vt 0.083259 0.423850
vt 0.081393 0.423850
vt 0.080052 0.423850
vt 0.084232 0.423850
vt 0.084499 0.423850
vt 0.078950 0.423850
vt 0.078950 0.423850
vt 0.082543 0.423850
vt 0.084456 0.423850
vt 0.079094 0.423850
vt 0.079127 0.423850
vt 0.047190 0.298735
vt 0.047190 0.356657
vt 0.073379 0.288250
vt 0.070967 0.288250
vt 0.070425 0.288250
vt 0.070903 0.288250
vt 0.068555 0.288250
vt 0.068555 0.288250
vt 0.069126 0.288250
vt 0.071240 0.288250
vt 0.068555 0.288250
vt 0.068895 0.288250
vt 0.068827 0.288250
vt 0.068667 0.288250
vt 0.068852 0.288250
vt 0.068555 0.288250
vt 0.071423 0.288250
vt 0.068796 0.288250
vt 0.071011 0.288250
vt 0.073379 0.288250
vt 0.071306 0.288250
vt 0.070726 0.288250
vt 0.070967 0.288250
vt 0.071445 0.288250
vt 0.069825 0.288250
vn -0.8660 0.0000 0.5000
vn -0.8876 -0.0004 0.4605
vn -0.8874 -0.0004 0.4610
vn 1.0000 0.0000 0.0000
vn -0.5000 0.0000 0.8660
vn -0.0450 -0.0004 -0.9990
vn 0.0000 -0.0000 -1.0000
vn -0.0445 -0.0004 -0.9990
vn 0.0000 0.7071 0.7071
vn 0.0847 0.7008 0.7083
vn 0.1449 0.6931 0.7061
vn 0.0000 0.0000 1.0000
vn 0.1306 0.0001 0.9914
vn 0.1305 0.0001 0.9915
vn 0.5000 0.0000 -0.8660
vn -0.0000 0.7071 -0.7071
vn -0.0437 0.7343 -0.6774
vn -0.0166 0.7177 -0.6961
vn 0.5000 0.0000 0.8660
vn -1.0000 0.0000 0.0000
vn -0.7071 0.7071 0.0000
vn -0.3536 0.7071 -0.6124
vn 0.3536 0.7071 -0.6124
vn 0.7071 0.7071 0.0000
vn 0.3536 0.7071 0.6124
vn -0.3536 0.7071 0.6124
vn -0.6085 0.7343 0.3008
vn -0.6124 0.7071 0.3536
vn -0.6112 0.7177 0.3337
vn 0.0000 1.0000 -0.0000
vn 0.6558 0.7008 -0.2808
vn 0.6124 0.7071 -0.3536
vn 0.6839 0.6931 -0.2276
vn -0.5996 0.7649 0.2355
vn -0.2920 0.9524 0.0869
vn -0.5630 0.8229 0.0766
vn -0.2640 0.9644 0.0148
vn -0.5039 0.8595 -0.0856
vn -0.2313 0.9715 -0.0517
vn -0.4239 0.8720 -0.2447
vn -0.1967 0.9739 -0.1136
vn -0.3261 0.8595 -0.3936
vn -0.1604 0.9715 -0.1745
vn -0.2152 0.8229 -0.5259
vn -0.1192 0.9644 -0.2361
vn -0.0959 0.7649 -0.6370
vn -0.0707 0.9524 -0.2964
vn -0.9466 -0.0016 0.3224
vn -0.9463 -0.0016 0.3233
vn -0.9958 -0.0030 0.0912
vn -0.9958 -0.0030 0.0920
vn -0.9806 -0.0042 -0.1962
vn -0.9807 -0.0042 -0.1957
vn -0.8660 -0.0046 -0.5000
vn -0.6602 -0.0042 -0.7511
vn -0.6598 -0.0042 -0.7514
vn -0.4190 -0.0030 -0.9080
vn -0.4182 -0.0030 -0.9084
vn -0.1941 -0.0016 -0.9810
vn -0.1932 -0.0016 -0.9812
vn 0.9239 0.0001 -0.3826
vn 0.8660 0.0000 -0.5000
vn 0.9239 0.0001 -0.3828
vn 0.6852 0.7241 0.0784
vn 0.6821 0.7248 0.0967
vn 0.4105 0.7241 0.5542
vn 0.4248 0.7248 0.5423
vn 0.2588 0.0002 0.9659
vn 0.8660 0.0005 0.5000
vn 0.9659 0.0002 -0.2588
vn -0.5000 0.0000 -0.8660
vn 0.0000 -1.0000 0.0000
usemtl hexagons_medieval
s 1
f 8/1/1 28/2/2 45/3/3 15/4/1
f 4/5/4 3/6/4 18/7/4 20/8/4
f 6/9/5 5/10/5 22/11/5 11/12/5
f 27/13/6 1/14/7 10/15/7 46/16/8
f 26/17/9 54/18/10 58/19/11
f 67/20/12 65/21/13 54/22/14 26/23/12
f 3/6/15 2/24/15 14/25/15 18/7/15
f 9/26/16 37/27/17 46/28/18 10/29/16
f 5/10/19 4/5/19 20/8/19 22/11/19
f 6/9/20 11/12/20 10/15/20 1/14/20
f 10/29/21 11/30/21 12/31/21 9/26/21
f 14/32/22 15/33/22 16/34/22 13/35/22
f 18/36/23 14/32/23 13/35/23 17/37/23
f 17/37/24 19/38/24 20/39/24 18/36/24
f 22/40/25 20/39/25 19/38/25 21/41/25
f 11/30/26 22/40/26 21/41/26 12/31/26
f 36/42/27 16/34/28 15/33/28 45/43/29
f 17/44/30 13/45/30 16/46/30 36/47/30
f 23/48/22 24/49/22 25/50/22 59/51/22
f 24/49/21 26/17/21 58/19/21 25/50/21
f 55/52/31 23/48/32 59/51/33
f 25/53/30 58/54/30 60/55/30
f 36/42/27 45/43/29 47/56/34 38/57/35
f 38/57/35 47/56/34 48/58/36 39/59/37
f 39/59/37 48/58/36 49/60/38 40/61/39
f 40/61/39 49/60/38 50/62/40 41/63/41
f 41/63/41 50/62/40 51/64/42 42/65/43
f 42/65/43 51/64/42 52/66/44 43/67/45
f 43/67/45 52/66/44 53/68/46 44/69/47
f 44/69/47 53/68/46 46/28/18 37/27/17
f 45/3/3 28/2/2 35/70/48 47/71/49
f 47/71/49 35/70/48 34/72/50 48/73/51
f 48/73/51 34/72/50 33/74/52 49/75/53
f 49/75/53 33/74/52 32/76/54 50/77/54
f 50/77/54 32/76/54 31/78/55 51/79/56
f 51/79/56 31/78/55 30/80/57 52/81/58
f 52/81/58 30/80/57 29/82/59 53/83/60
f 53/83/60 29/82/59 27/13/6 46/16/8
f 66/84/61 62/85/62 23/86/62 55/87/63
f 55/52/31 59/51/33 61/88/64 57/89/65
f 57/89/65 61/88/64 60/90/66 56/91/67
f 56/91/67 60/90/66 58/19/11 54/18/10
f 54/22/14 65/21/13 64/92/68 56/93/68
f 56/93/69 64/92/69 63/94/69 57/95/69
f 57/95/70 63/94/70 66/84/61 55/87/63
f 19/96/30 41/97/41 42/98/43
f 21/99/30 44/100/47 37/101/30
f 17/44/30 38/102/35 39/103/37
f 38/102/35 17/44/30 36/47/30
f 12/104/30 21/99/30 37/101/30 9/105/30
f 44/100/47 21/99/30 43/106/45
f 21/99/30 19/96/30 42/98/43 43/106/45
f 41/97/41 19/96/30 40/107/39
f 19/96/30 17/44/30 39/103/37 40/107/39
f 59/108/30 25/53/30 61/109/30
f 61/109/30 25/53/30 60/55/30
f 7/110/71 24/111/71 23/86/71 62/85/71
f 24/111/20 7/110/20 67/20/20 26/23/20
f 14/25/71 2/24/71 8/1/71 15/4/71
f 4/112/72 5/113/72 30/114/72 31/115/72
f 5/113/72 6/116/72 1/117/72 27/118/72
f 32/119/72 4/112/72 31/115/72
f 7/120/72 63/121/72 64/122/72
f 7/120/72 64/122/72 65/123/72
f 7/120/72 66/124/72 63/121/72
f 7/120/72 65/123/72 67/125/72
f 33/126/72 4/112/72 32/119/72
f 7/120/72 62/127/72 66/124/72
f 28/128/72 3/129/72 35/130/72
f 8/131/72 2/132/72 3/129/72 28/128/72
f 3/129/72 34/133/72 35/130/72
f 34/133/72 3/129/72 4/112/72 33/126/72
f 30/114/72 5/113/72 29/134/72
f 29/134/72 5/113/72 27/118/72
