# Blender v3.4.1 OBJ File: 'Medieval_Hexagons_Export_1.0_WorldOrigin.blend'
# www.blender.org
mtllib hex_river_J_waterless.mtl
o hex_river_J_waterless
v -1.000000 -1.000000 -0.461880
v -0.000000 -1.000000 1.154700
v 1.000000 -1.000000 0.577350
v 0.000000 -1.000000 -1.154700
v 1.000000 -1.000000 -0.577350
v -1.000000 -1.000000 0.577350
v -1.000000 -1.000000 -0.577350
v 1.000000 -1.000000 -0.461880
v 0.900000 -0.050000 0.635085
v 1.000000 -0.050000 0.577350
v 0.950000 0.000000 0.548483
v -0.100000 -0.050000 1.096965
v -0.000000 -0.050000 1.154700
v -0.000000 0.000000 1.096965
v -1.000000 -0.050000 0.461880
v -1.000000 -0.050000 0.577350
v -0.950000 0.000000 0.548482
v 1.000000 -0.050000 0.461880
v 0.950000 0.000000 0.511880
v -0.950000 0.000000 -0.548482
v -1.000000 -0.050000 -0.577350
v -1.000000 -0.050000 -0.461880
v -0.950000 0.000000 -0.511880
v 0.000000 0.000000 -1.096965
v 0.000000 -0.050000 -1.154700
v 0.950000 0.000000 -0.548482
v 1.000000 -0.050000 -0.577350
v 0.950000 0.000000 -0.511880
v 1.000000 -0.050000 -0.461880
v 0.100000 -0.050000 1.096965
v -0.900000 -0.050000 0.635085
v -0.918301 0.000000 0.566784
v 0.953496 -0.050000 0.461880
v 0.876748 -0.050000 0.594812
v 0.887030 -0.050000 0.479690
v 0.858939 -0.050000 0.528346
v 0.918301 0.000000 0.566784
v 0.922548 0.000000 0.519236
v 0.910946 0.000000 0.539332
v 0.076748 -0.050000 1.056692
v -0.076748 -0.050000 1.056692
v 0.028092 -0.050000 1.008035
v -0.028092 -0.050000 1.008035
v 0.031699 0.000000 1.078664
v -0.031699 0.000000 1.078664
v 0.011602 0.000000 1.058568
v -0.011603 0.000000 1.058568
v -0.950000 0.000000 0.511880
v -0.910946 0.000000 0.539332
v -0.922548 0.000000 0.519236
v -0.876748 -0.050000 0.594812
v -0.953496 -0.050000 0.461880
v -0.858939 -0.050000 0.528346
v -0.887030 -0.050000 0.479689
v -1.000000 -1.000000 0.461880
v -0.900000 -1.000000 0.635085
v -0.876328 -1.000000 0.594084
v -0.858616 -1.000000 0.527982
v -0.886554 -1.000000 0.479592
v -0.952656 -1.000000 0.461880
v -0.100000 -1.000000 1.096965
v 0.076328 -1.000000 1.055964
v 0.027938 -1.000000 1.007574
v -0.027938 -1.000000 1.007574
v -0.076328 -1.000000 1.055964
v 0.100000 -1.000000 1.096965
v 1.000000 -1.000000 0.461880
v 0.952656 -1.000000 0.461880
v 0.886554 -1.000000 0.479592
v 0.858616 -1.000000 0.527982
v 0.876328 -1.000000 0.594084
v 0.900000 -1.000000 0.635085
vt 0.052180 0.298735
vt 0.052072 0.298735
vt 0.052074 0.356657
vt 0.052180 0.356657
vt 0.055701 0.298735
vt 0.055808 0.298735
vt 0.055808 0.356657
vt 0.055703 0.356657
vt 0.047190 0.356657
vt 0.047190 0.298735
vt 0.047190 0.298735
vt 0.047190 0.356657
vt 0.078950 0.423850
vt 0.087568 0.423850
vt 0.083259 0.423850
vt 0.056262 0.298735
vt 0.056047 0.298735
vt 0.056051 0.356657
vt 0.056262 0.356657
vt 0.047405 0.298735
vt 0.047401 0.356657
vt 0.056262 0.298735
vt 0.051726 0.298735
vt 0.051726 0.356657
vt 0.056262 0.356657
vt 0.047644 0.298735
vt 0.047751 0.298735
vt 0.047749 0.356657
vt 0.047644 0.356657
vt 0.047190 0.298735
vt 0.047190 0.356657
vt 0.078950 0.423850
vt 0.087568 0.423850
vt 0.067946 0.403532
vt 0.067841 0.403532
vt 0.067636 0.408225
vt 0.051380 0.298735
vt 0.051272 0.298735
vt 0.051272 0.356657
vt 0.051378 0.356657
vt 0.063183 0.408225
vt 0.063167 0.403532
vt 0.062957 0.403532
vt 0.071658 0.408225
vt 0.071469 0.403532
vt 0.071575 0.403532
vt 0.072028 0.403532
vt 0.071802 0.408225
vt 0.067039 0.403532
vt 0.067492 0.403532
vt 0.067492 0.408225
vt 0.067349 0.408225
vt 0.062957 0.403532
vt 0.063183 0.408225
vt 0.071802 0.408225
vt 0.072028 0.403532
vt 0.062957 0.403532
vt 0.062957 0.403532
vt 0.063183 0.408225
vt 0.063183 0.408225
vt 0.067492 0.403532
vt 0.067492 0.408225
vt 0.072028 0.403532
vt 0.071802 0.408225
vt 0.071802 0.408225
vt 0.072028 0.403532
vt 0.063410 0.403532
vt 0.063327 0.408225
vt 0.087568 0.423850
vt 0.087391 0.423850
vt 0.087424 0.423850
vt 0.071817 0.403532
vt 0.067144 0.403532
vt 0.047190 0.298735
vt 0.056262 0.298735
vt 0.056262 0.356657
vt 0.047190 0.356657
vt 0.083259 0.423850
vt 0.083206 0.423850
vt 0.083115 0.423850
vt 0.063516 0.403532
vt 0.078950 0.423850
vt 0.079094 0.423850
vt 0.079127 0.423850
vt 0.071624 0.408225
vt 0.071388 0.403532
vt 0.071677 0.408225
vt 0.071516 0.403532
vt 0.067440 0.408225
vt 0.067365 0.403532
vt 0.067545 0.408225
vt 0.067620 0.403532
vt 0.063596 0.403532
vt 0.063360 0.408225
vt 0.063469 0.403532
vt 0.063308 0.408225
vt 0.055747 0.298735
vt 0.055749 0.356657
vt 0.055620 0.298735
vt 0.055622 0.356657
vt 0.051853 0.298735
vt 0.051853 0.356657
vt 0.051599 0.298735
vt 0.051599 0.356657
vt 0.047831 0.298735
vt 0.047830 0.356657
vt 0.047705 0.298735
vt 0.047702 0.356657
vt 0.078950 0.423850
vt 0.079074 0.423850
vt 0.083312 0.423850
vt 0.083403 0.423850
vt 0.087444 0.423850
vt 0.087568 0.423850
vt 0.063732 0.288250
vt 0.066143 0.288250
vt 0.061320 0.288250
vt 0.056262 0.298735
vt 0.056262 0.356657
vt 0.051726 0.356657
vt 0.051726 0.298735
vt 0.066143 0.288250
vt 0.061320 0.288250
vt 0.061320 0.288250
vt 0.061661 0.288250
vt 0.061618 0.288250
vt 0.061594 0.288250
vt 0.061434 0.288250
vt 0.061320 0.288250
vt 0.061561 0.288250
vt 0.063732 0.288250
vt 0.063799 0.288250
vt 0.063916 0.288250
vt 0.063664 0.288250
vt 0.063548 0.288250
vt 0.063973 0.288250
vt 0.063490 0.288250
vt 0.066143 0.288250
vt 0.065870 0.288250
vt 0.066029 0.288250
vt 0.065802 0.288250
vt 0.065845 0.288250
vt 0.065902 0.288250
vt 0.066143 0.288250
vn 0.8660 0.0000 -0.5000
vn 0.7933 0.0001 -0.6088
vn 0.7934 0.0001 -0.6087
vn -0.9239 0.0001 0.3826
vn -0.8660 0.0000 0.5000
vn -0.9239 0.0001 0.3828
vn -1.0000 0.0000 0.0000
vn 0.0000 1.0000 0.0000
vn -0.0000 -0.0000 -1.0000
vn -0.1306 0.0001 -0.9914
vn -0.1305 0.0001 -0.9915
vn 0.1306 0.0001 -0.9914
vn 0.1305 0.0001 -0.9915
vn 0.5000 0.0000 -0.8660
vn 0.8660 0.0000 0.5000
vn 0.9239 0.0001 0.3826
vn 0.9239 0.0001 0.3828
vn -0.5000 0.0000 -0.8660
vn 0.6124 0.7071 -0.3536
vn 0.5700 0.7015 -0.4277
vn 0.5386 0.6948 -0.4766
vn -0.7933 0.0001 -0.6088
vn -0.8660 -0.0000 -0.5000
vn -0.7934 0.0001 -0.6087
vn 0.1434 0.6948 -0.7048
vn 0.0853 0.7015 -0.7075
vn 0.0000 0.7071 -0.7071
vn -0.6821 0.6948 0.2282
vn -0.6554 0.7015 0.2798
vn -0.6124 0.7071 0.3536
vn -0.5000 0.0000 0.8660
vn 0.3536 0.7071 0.6124
vn -0.3536 0.7071 0.6124
vn -0.7071 0.7071 0.0000
vn 0.7071 0.7071 0.0000
vn -0.3536 0.7071 -0.6124
vn 0.3536 0.7071 -0.6124
vn -0.1434 0.6948 -0.7048
vn -0.0853 0.7015 -0.7075
vn -0.5386 0.6948 -0.4766
vn -0.5700 0.7015 -0.4277
vn -0.6124 0.7071 -0.3536
vn 0.0000 0.0000 1.0000
vn 0.6124 0.7071 0.3536
vn 0.6554 0.7015 0.2798
vn 0.6821 0.6948 0.2282
vn -0.6825 0.7268 -0.0770
vn -0.6791 0.7276 -0.0969
vn -0.4079 0.7268 -0.5526
vn -0.4235 0.7276 -0.5396
vn -0.2746 0.7268 -0.6296
vn -0.2556 0.7276 -0.6366
vn 0.2746 0.7268 -0.6296
vn 0.2556 0.7276 -0.6366
vn 0.6791 0.7276 -0.0969
vn 0.6825 0.7268 -0.0770
vn 0.4235 0.7276 -0.5396
vn 0.4079 0.7268 -0.5526
vn -0.2588 0.0002 -0.9659
vn -0.8660 0.0005 -0.5000
vn -0.9659 0.0002 0.2588
vn 0.7071 0.0002 -0.7071
vn -0.0000 0.0005 -1.0000
vn -0.7071 0.0002 -0.7071
vn 0.9659 0.0002 0.2588
vn 0.8660 0.0005 -0.5000
vn 0.2588 0.0002 -0.9659
vn 0.0000 -1.0000 0.0000
vn 0.5000 0.0000 0.8660
vn 1.0000 0.0000 0.0000
vn 0.0000 0.7071 0.7071
usemtl hexagons_medieval
s 1
f 66/1/1 62/2/2 40/3/3 30/4/1
f 71/5/4 72/6/5 9/7/5 34/8/6
f 15/9/7 55/10/7 6/11/7 16/12/7
f 20/13/8 26/14/8 24/15/8
f 67/16/9 68/17/10 33/18/11 18/19/9
f 60/20/12 55/10/9 15/9/9 52/21/13
f 5/22/14 4/23/14 25/24/14 27/25/14
f 56/26/15 57/27/16 51/28/17 31/29/15
f 4/23/18 7/30/18 21/31/18 25/24/18
f 23/32/8 28/33/8 26/14/8 20/13/8
f 30/34/19 40/35/20 44/36/21
f 65/37/22 61/38/23 12/39/23 41/40/24
f 48/41/25 52/42/26 15/43/27
f 37/44/28 34/45/29 9/46/30
f 16/12/31 6/11/31 56/26/31 31/29/31
f 9/46/32 10/47/32 11/48/32 37/44/32
f 12/49/33 13/50/33 14/51/33 45/52/33
f 15/43/34 16/53/34 17/54/34 48/41/34
f 19/55/35 11/48/35 10/47/35 18/56/35
f 21/57/34 22/58/34 23/59/34 20/60/34
f 25/61/36 21/57/36 20/60/36 24/62/36
f 27/63/37 25/61/37 24/62/37 26/64/37
f 26/64/35 28/65/35 29/66/35 27/63/35
f 13/50/32 30/34/32 44/36/32 14/51/32
f 16/53/33 31/67/33 32/68/33 17/54/33
f 11/69/8 39/70/8 37/71/8
f 19/55/38 18/56/27 33/72/39
f 45/52/40 41/73/41 12/49/42
f 1/74/43 8/75/43 29/76/43 22/77/43
f 14/78/8 47/79/8 45/80/8
f 31/67/44 51/81/45 32/68/46
f 17/82/8 32/83/8 49/84/8
f 34/45/29 37/44/28 39/85/47 36/86/48
f 36/86/48 39/85/47 38/87/49 35/88/50
f 35/88/50 38/87/49 19/55/38 33/72/39
f 41/73/41 45/52/40 47/89/51 43/90/52
f 43/90/52 47/89/51 46/91/53 42/92/54
f 42/92/54 46/91/53 44/36/21 40/35/20
f 32/68/46 51/81/45 53/93/55 49/94/56
f 49/94/56 53/93/55 54/95/57 50/96/58
f 50/96/58 54/95/57 52/42/26 48/41/25
f 33/18/11 68/17/10 69/97/59 35/98/59
f 35/98/60 69/97/60 70/99/60 36/100/60
f 36/100/61 70/99/61 71/5/4 34/8/6
f 40/3/3 62/2/2 63/101/62 42/102/62
f 42/102/63 63/101/63 64/103/63 43/104/63
f 43/104/64 64/103/64 65/37/22 41/40/24
f 51/28/17 57/27/16 58/105/65 53/106/65
f 53/106/66 58/105/66 59/107/66 54/108/66
f 54/108/67 59/107/67 60/20/12 52/21/13
f 48/109/8 17/82/8 50/110/8
f 50/110/8 17/82/8 49/84/8
f 46/111/8 47/79/8 14/78/8
f 44/112/8 46/111/8 14/78/8
f 38/113/8 39/70/8 11/69/8
f 19/114/8 38/113/8 11/69/8
f 4/115/68 5/116/68 7/117/68
f 3/118/69 10/119/69 9/7/69 72/6/69
f 21/31/7 7/30/7 1/74/7 22/77/7
f 29/76/70 8/75/70 5/22/70 27/25/70
f 10/119/70 3/118/70 67/16/70 18/19/70
f 13/120/69 2/121/69 66/1/69 30/4/69
f 12/39/31 61/38/31 2/121/31 13/120/31
f 5/116/68 8/122/68 1/123/68 7/117/68
f 6/124/68 58/125/68 57/126/68
f 6/124/68 59/127/68 58/125/68
f 6/124/68 60/128/68 59/127/68
f 6/124/68 55/129/68 60/128/68
f 6/124/68 57/126/68 56/130/68
f 2/131/68 63/132/68 62/133/68
f 2/131/68 64/134/68 63/132/68
f 2/131/68 65/135/68 64/134/68
f 2/131/68 62/133/68 66/136/68
f 2/131/68 61/137/68 65/135/68
f 3/138/68 69/139/68 68/140/68
f 3/138/68 70/141/68 69/139/68
f 3/138/68 71/142/68 70/141/68
f 3/138/68 72/143/68 71/142/68
f 22/58/71 29/66/71 28/65/71 23/59/71
f 3/138/68 68/140/68 67/144/68
