# Blender v3.4.1 OBJ File: 'Medieval_Hexagons_Export_1.0_WorldOrigin.blend'
# www.blender.org
mtllib cloud_small.mtl
o cloud_small
v 0.566363 0.510881 0.620416
v 0.632740 0.574747 0.424840
v 0.366014 0.680702 0.606376
v 0.610299 -0.044852 -0.446240
v 0.469647 -0.118143 -0.620271
v 0.417765 0.092714 -0.650443
v 0.525967 0.142101 -0.449598
v 1.106262 0.116055 -0.013110
v 0.964418 0.326113 0.057392
v 1.136135 0.111638 0.230113
v -0.964795 -0.231063 0.591240
v -0.804577 -0.265372 0.737375
v -0.914684 0.018898 0.672956
v -0.328970 -0.826916 -0.146045
v -0.020581 -0.739485 -0.327264
v -0.040782 -0.859418 -0.107205
v 0.212588 -0.684103 -0.248964
v 0.014141 -0.617479 -0.548032
v 0.244009 -0.558437 -0.461372
v -0.293248 -0.707810 -0.349708
v -0.259912 -0.580104 -0.561136
v -1.093682 0.128106 -0.230321
v -0.907486 0.335661 -0.425601
v -1.096171 0.159027 -0.534364
v -0.166814 -0.021367 -0.946870
v -0.196268 -0.245256 -0.914179
v -0.463011 -0.159429 -0.879246
v -0.505256 -0.374433 -0.748103
v -0.228034 -0.437887 -0.768571
v 0.094991 -0.281021 -0.917566
v 0.057461 -0.474284 -0.759712
v -0.285614 -0.863354 0.286523
v -0.061886 -0.907887 0.139069
v -0.112432 -0.843746 0.362955
v -0.312534 -0.884112 0.066194
v -0.141506 -0.041684 0.694866
v 0.052668 0.095922 0.695429
v -0.111089 0.278042 0.669341
v -0.304306 0.160045 0.712853
v -0.280197 0.428776 0.537939
v -0.485908 0.329632 0.602829
v 0.237077 0.574875 0.734390
v 1.174904 -0.152110 0.195502
v 1.148838 -0.150420 -0.021254
v -0.486055 0.055449 0.811832
v -0.319733 -0.183433 0.779030
v 0.494109 -0.447761 0.519392
v 0.274587 -0.570781 0.460721
v 0.580468 -0.573032 0.357245
v 0.308864 0.271732 -0.620988
v 0.257163 0.446576 -0.349246
v 0.390480 0.288800 -0.399961
v 0.139846 0.630713 -0.313145
v 0.021595 0.563422 -0.508488
v 0.000537 0.810425 -0.261908
v -0.130680 0.904017 0.077565
v 0.168141 0.831842 0.185334
v 0.086908 0.838203 -0.038834
v -0.045375 0.817181 0.309807
v 0.430830 -0.459163 -0.344604
v 0.455423 -0.305985 -0.504990
v 0.640200 -0.407366 -0.261313
v 0.497445 0.690152 0.446676
v 0.263179 0.804716 0.404156
v -0.250022 0.706212 0.366961
v -0.111472 0.584738 0.569192
v -0.422484 0.893597 -0.065729
v -0.368596 0.823559 0.163476
v -0.429311 0.542043 0.360319
v -0.447790 0.639450 -0.448489
v -0.455388 0.842763 -0.263241
v -0.293037 0.817449 -0.378275
v 0.287519 0.014637 -0.834860
v 0.195509 0.205173 -0.815277
v 0.046330 0.336908 -0.748902
v -0.120802 0.443412 -0.658641
v -0.517429 -0.330989 0.776981
v -0.697917 -0.434230 0.666843
v -0.367251 -0.519505 0.655499
v -0.726813 -0.058717 -0.858694
v -1.017919 -0.240725 -0.702278
v -0.959629 0.076766 -0.760899
v -1.162899 -0.065624 -0.537133
v 0.350847 0.714624 0.081913
v 0.242895 0.670911 -0.110267
v -0.967185 -0.332039 -0.106128
v -1.037658 -0.135283 -0.008799
v -1.159891 -0.103488 -0.302514
v 0.512364 0.571334 0.007399
v 0.528573 0.346257 -0.221343
v 0.377617 0.494356 -0.157334
v 0.157908 -0.810004 0.213828
v 0.081437 -0.724567 0.426134
v -1.002367 0.068187 0.071384
v -1.032397 -0.178298 0.298191
v 0.156760 -0.408917 0.577445
v -0.122785 0.719688 -0.462842
v 0.449775 0.748130 0.283482
v -0.565906 0.650680 0.172281
v -0.629819 0.414269 0.399280
v -0.687151 0.424810 0.150183
v -0.601954 0.435288 -0.509809
v -0.444845 0.362864 -0.657179
v 0.093588 -0.068191 -0.962929
v 0.073033 0.122124 -0.912388
v 0.364120 -0.267576 0.597774
v 0.845828 -0.520595 -0.025789
v 0.853890 -0.543485 0.201627
v 0.615012 -0.593006 0.139191
v 0.611185 0.608582 0.207520
v 0.991022 0.294603 0.308252
v 0.733810 0.336049 0.567366
v 0.919858 0.184314 0.534937
v 1.067087 -0.386780 0.226965
v 1.030104 -0.321122 0.436772
v 0.927984 -0.168960 0.590929
v 0.720902 -0.338751 0.604596
v 0.047160 0.434319 0.752565
v 0.238553 0.236792 0.762088
v -0.846007 0.275408 0.430791
v -1.021188 0.066616 0.381336
v -0.790528 0.298106 -0.650260
v 0.295162 -0.412892 -0.659695
v 0.330816 -0.213050 -0.806349
v -0.387611 0.075581 -0.857469
v -0.779909 -0.341553 -0.761019
v -0.867853 0.252866 0.136762
v -0.675694 -0.078502 0.828749
v 0.980084 0.082142 -0.207459
v 0.795657 0.019002 -0.324412
v 0.845881 0.282336 -0.144990
v -0.539139 -0.520347 -0.528920
v 0.352559 -0.657422 0.276498
v -0.550142 -0.596972 -0.285385
v -0.785724 -0.484681 -0.199304
v -0.825894 -0.488549 -0.485087
v -0.903550 0.270649 -0.154637
v 0.213464 -0.085649 0.656047
v 0.805519 0.434170 0.366599
v 0.645242 -0.237871 -0.385070
v 1.124688 -0.157724 0.384719
v 1.057052 0.013806 0.464290
v -0.185664 0.931766 -0.168836
v 0.395276 -0.669593 0.059946
v 0.410622 -0.583820 -0.152823
v -0.855055 -0.445759 0.465494
v -0.682144 -0.603556 0.328554
v 0.070162 0.725706 0.548153
v -0.743326 -0.538760 0.076104
v 0.170606 0.422892 -0.569171
v -0.914991 -0.377521 0.190471
v 0.843220 -0.381399 -0.192846
v 0.624160 -0.538173 -0.084467
v -0.579709 0.695213 -0.286610
v -0.268994 0.280122 -0.774425
v -0.709006 0.233261 0.694802
v -1.076584 -0.331054 -0.400416
v -0.404704 -0.757247 0.397820
v -0.227634 -0.695022 0.526092
v -0.032353 -0.570913 0.584856
v 0.677719 0.433229 -0.068165
v 0.785755 0.474143 0.133513
v -0.086495 0.192757 -0.879751
v 0.426538 0.385611 0.753987
v 0.411096 0.047201 0.720098
v 0.598578 0.198120 0.700164
v 0.011570 -0.227821 0.636292
v 1.067805 -0.393664 0.024454
v -0.513536 -0.764047 0.199304
v -0.548469 -0.685044 -0.036192
v 0.687046 0.212609 -0.300062
v 0.574320 -0.138824 0.660267
v 0.774532 0.018298 0.661825
v 0.195306 -0.787817 -0.025333
v -0.625561 0.698748 -0.066099
v -0.723088 0.450392 -0.098007
v 0.855325 -0.198060 -0.318894
v -0.599229 0.194237 -0.786245
v -0.288357 0.552437 -0.571159
v 1.033423 -0.166147 -0.205892
v -0.716696 0.484508 -0.323097
v 0.998574 -0.329965 -0.143341
v -0.547049 -0.594611 0.529637
v 0.816398 -0.477228 0.425982
v -0.172703 -0.384183 0.684939
vt 0.220518 0.942386
vt 0.213797 0.966277
vt 0.212280 0.955544
vt 0.218766 0.921116
vt 0.224809 0.906034
vt 0.222996 0.926398
vt 0.218641 0.953621
vt 0.214744 0.966848
vt 0.209868 0.970351
vt 0.213494 0.959929
vt 0.203102 0.965602
vt 0.206349 0.973770
vt 0.200065 0.853347
vt 0.191981 0.848918
vt 0.189696 0.861662
vt 0.197288 0.868970
vt 0.205526 0.885200
vt 0.208515 0.858000
vt 0.185020 0.813482
vt 0.183687 0.842656
vt 0.193674 0.830599
vt 0.202405 0.840674
vt 0.193955 0.886930
vt 0.186803 0.877482
vt 0.181734 0.856942
vt 0.179180 0.871497
vt 0.202051 0.907089
vt 0.224871 0.868198
vt 0.216835 0.865594
vt 0.213806 0.901566
vt 0.221761 0.907107
vt 0.230816 0.865082
vt 0.227758 0.895092
vt 0.217584 0.938615
vt 0.209980 0.931056
vt 0.231352 0.846866
vt 0.226072 0.846968
vt 0.233618 0.846527
vt 0.233077 0.856892
vt 0.180272 0.810815
vt 0.178816 0.837979
vt 0.170734 0.841742
vt 0.171188 0.813303
vt 0.164634 0.860083
vt 0.162570 0.845283
vt 0.174032 0.857199
vt 0.184901 0.851314
vt 0.188649 0.827089
vt 0.171274 0.882636
vt 0.181085 0.874669
vt 0.180973 0.775130
vt 0.184802 0.770960
vt 0.174801 0.773060
vt 0.171893 0.780316
vt 0.189172 0.769859
vt 0.179629 0.770397
vt 0.165363 0.797739
vt 0.170198 0.783489
vt 0.175949 0.774759
vt 0.190086 0.777386
vt 0.194073 0.772952
vt 0.177705 0.784448
vt 0.186947 0.789544
vt 0.195623 0.803689
vt 0.198611 0.787763
vt 0.202477 0.783808
vt 0.168924 0.795276
vt 0.175196 0.805797
vt 0.166189 0.818901
vt 0.161073 0.812932
vt 0.151745 0.882031
vt 0.143456 0.865667
vt 0.149768 0.863799
vt 0.157426 0.876986
vt 0.141256 0.852092
vt 0.146162 0.849804
vt 0.156108 0.847883
vt 0.158885 0.860178
vt 0.159831 0.905573
vt 0.150896 0.876856
vt 0.159974 0.914735
vt 0.143198 0.860696
vt 0.164847 0.854766
vt 0.164567 0.841128
vt 0.156721 0.846423
vt 0.159589 0.860625
vt 0.173776 0.836930
vt 0.172880 0.851937
vt 0.168802 0.870416
vt 0.173256 0.863554
vt 0.158004 0.832198
vt 0.148967 0.835418
vt 0.148670 0.852509
vt 0.192138 0.771312
vt 0.185010 0.770868
vt 0.183487 0.774103
vt 0.197826 0.773792
vt 0.199788 0.778224
vt 0.191819 0.776500
vt 0.199554 0.789914
vt 0.199312 0.853539
vt 0.205559 0.866443
vt 0.199765 0.892103
vt 0.194452 0.869523
vt 0.190644 0.859408
vt 0.195305 0.844780
vt 0.197646 0.817787
vt 0.203002 0.841653
vt 0.212895 0.892385
vt 0.206553 0.928598
vt 0.209916 0.850882
vt 0.197700 0.939687
vt 0.191641 0.904655
vt 0.186365 0.886225
vt 0.183211 0.927459
vt 0.177571 0.907594
vt 0.231647 0.836653
vt 0.228534 0.832685
vt 0.224404 0.832211
vt 0.218580 0.846017
vt 0.218734 0.835895
vt 0.190287 0.793835
vt 0.215160 0.808589
vt 0.215949 0.823456
vt 0.207126 0.798143
vt 0.205672 0.788258
vt 0.213553 0.839717
vt 0.206113 0.819336
vt 0.224528 0.826331
vt 0.225157 0.835587
vt 0.190713 0.905974
vt 0.183425 0.904978
vt 0.195153 0.948922
vt 0.198515 0.926572
vt 0.187685 0.934864
vt 0.184261 0.967272
vt 0.191608 0.961225
vt 0.179883 0.935255
vt 0.176182 0.963763
vt 0.175750 0.893223
vt 0.172233 0.914810
vt 0.172448 0.974540
vt 0.180189 0.981448
vt 0.198811 0.969552
vt 0.187006 0.974861
vt 0.194506 0.961673
vt 0.174697 0.979141
vt 0.181126 0.970530
vt 0.202559 0.963912
vt 0.189105 0.945641
vt 0.204406 0.818102
vt 0.207249 0.802117
vt 0.168168 0.960576
vt 0.174970 0.954338
vt 0.169592 0.976070
vt 0.165121 0.957749
vt 0.166039 0.949655
vt 0.161856 0.894341
vt 0.168645 0.935957
vt 0.165100 0.882035
vt 0.181800 0.786120
vt 0.173411 0.788160
vt 0.142527 0.841511
vt 0.154252 0.867961
vt 0.153060 0.824219
vt 0.146831 0.836052
vt 0.206219 0.950125
vt 0.156369 0.835805
vt 0.160025 0.818662
vt 0.166651 0.803443
vt 0.163986 0.828977
vt 0.164545 0.877660
vt 0.170623 0.910832
vt 0.164382 0.912842
vt 0.221591 0.847669
vt 0.217575 0.861097
vt 0.215945 0.815193
vt 0.220999 0.818195
vt 0.211620 0.801804
vt 0.212596 0.828534
vt 0.230119 0.874842
vt 0.223188 0.881959
vt 0.231528 0.845847
vt 0.228053 0.857199
vt 0.210545 0.844089
vn 0.5557 0.5018 0.6629
vn 0.3060 0.7483 0.5885
vn 0.0166 0.4965 0.8679
vn 0.2776 0.1834 0.9430
vn 0.5822 0.4505 0.6768
vn 0.6534 0.7023 0.2824
vn 0.6581 0.6990 0.2798
vn 0.5486 0.7863 0.2841
vn 0.4856 0.8717 -0.0652
vn 0.5817 0.7957 -0.1688
vn -0.1970 0.7907 0.5796
vn 0.1740 0.9537 0.2454
vn 0.6358 0.0577 -0.7697
vn 0.7950 -0.0942 -0.5993
vn 0.7459 0.3511 -0.5660
vn 0.6139 0.4788 -0.6276
vn 0.4170 0.5439 -0.7282
vn 0.4852 0.2112 -0.8485
vn 0.5899 -0.6257 -0.5104
vn 0.6716 -0.2708 -0.6896
vn 0.6865 -0.4883 -0.5388
vn 0.5139 -0.3796 -0.7693
vn 0.5666 0.6733 -0.4750
vn 0.6209 0.6205 -0.4790
vn 0.6302 0.1869 -0.7536
vn 0.4506 0.5293 -0.7189
vn 0.3807 0.6877 -0.6181
vn 0.8561 0.3984 -0.3291
vn 0.6333 0.3402 -0.6951
vn 0.4779 0.6392 -0.6025
vn 0.6627 0.7092 -0.2406
vn 0.9181 0.3706 0.1408
vn 0.7344 0.6304 0.2515
vn 0.5689 0.8023 -0.1807
vn 0.3969 0.7448 -0.5365
vn 0.9892 -0.1157 0.0896
vn 0.9423 -0.0980 -0.3202
vn 0.8887 -0.1258 0.4408
vn 0.7842 0.1785 0.5943
vn -0.3746 -0.6504 0.6608
vn -0.5035 -0.3621 0.7845
vn -0.8404 -0.2995 0.4517
vn -0.6859 -0.6847 0.2462
vn -0.9196 0.3521 0.1745
vn -0.9735 -0.2085 0.0942
vn -0.7285 0.2543 0.6361
vn -0.2604 0.0035 0.9655
vn -0.0186 -0.3956 0.9182
vn -0.6419 0.7261 0.2465
vn -0.3480 0.6376 0.6873
vn 0.1496 -0.8715 -0.4671
vn 0.1616 -0.9350 -0.3158
vn -0.3298 -0.8786 -0.3455
vn -0.2510 -0.8511 -0.4610
vn 0.1548 -0.9858 0.0644
vn -0.3130 -0.9482 -0.0544
vn -0.4374 -0.8575 -0.2711
vn -0.5953 -0.7784 -0.1992
vn -0.5768 -0.8133 0.0762
vn 0.4660 -0.8010 -0.3759
vn 0.4686 -0.8646 -0.1815
vn 0.1478 -0.8487 -0.5078
vn 0.5031 -0.7563 -0.4182
vn 0.5411 -0.6926 -0.4771
vn 0.4713 -0.8019 -0.3673
vn 0.4524 -0.8868 -0.0942
vn -0.1820 -0.8333 -0.5220
vn 0.1788 -0.7356 -0.6534
vn -0.1541 -0.6959 -0.7014
vn -0.2488 -0.8726 -0.4202
vn -0.5907 0.7916 -0.1562
vn -0.8072 0.5173 -0.2843
vn -0.8699 0.4487 0.2046
vn -0.7061 0.6873 0.1706
vn -0.9540 -0.0201 -0.2992
vn -0.9819 -0.1239 0.1431
vn -0.9668 -0.1815 0.1797
vn -0.9137 0.3809 0.1419
vn -0.3798 0.6999 -0.6049
vn -0.3304 0.7148 -0.6164
vn -0.6887 0.6888 -0.2266
vn -0.5216 0.3122 -0.7940
vn -0.1485 0.1334 -0.9799
vn -0.1520 -0.3436 -0.9267
vn -0.1730 -0.1800 -0.9683
vn -0.1666 0.3146 -0.9345
vn 0.2298 -0.4092 -0.8830
vn 0.2308 0.0431 -0.9720
vn -0.0546 0.5024 -0.8629
vn 0.1978 0.4010 -0.8945
vn -0.1793 -0.6588 -0.7306
vn -0.3016 -0.5948 -0.7452
vn -0.2213 0.0245 -0.9749
vn 0.0854 -0.8611 0.5013
vn -0.2433 -0.9135 0.3260
vn -0.3511 -0.8068 0.4752
vn 0.4383 -0.8700 0.2258
vn 0.3310 -0.7011 0.6316
vn -0.0174 -0.6679 0.7440
vn 0.2337 -0.4503 0.8617
vn 0.2293 -0.0031 0.9733
vn -0.0625 -0.1532 0.9862
vn -0.2259 0.1829 0.9568
vn 0.1137 0.3663 0.9235
vn 0.0693 0.2786 0.9579
vn 0.2644 -0.0934 0.9599
vn 0.2501 -0.2726 0.9291
vn 0.2121 -0.1717 0.9620
vn -0.0519 -0.1229 0.9911
vn -0.2999 0.2005 0.9327
vn -0.0038 -0.2761 0.9611
vn -0.4519 0.5204 0.7245
vn -0.3584 0.5347 0.7653
vn -0.1501 0.7124 0.6855
vn -0.4870 0.6215 0.6136
vn -0.4825 0.7790 0.4005
vn 0.6824 -0.4966 0.5364
vn 0.7603 -0.6347 0.1379
vn 0.7447 -0.6186 -0.2507
vn 0.7028 -0.1350 -0.6984
vn 0.6099 -0.5246 -0.5940
vn -0.0136 -0.5654 0.8247
vn 0.2128 -0.8873 0.4091
vn 0.0791 -0.6137 0.7855
vn 0.2780 -0.6303 0.7249
vn 0.3853 -0.8608 0.3324
vn 0.0038 -0.3608 0.9326
vn 0.2024 -0.3361 0.9198
vn 0.3478 -0.7865 0.5104
vn 0.1694 -0.4882 0.8561
vn 0.6123 0.6467 -0.4549
vn 0.5032 0.7006 -0.5059
vn 0.5786 0.6845 -0.4434
vn 0.4996 0.6543 -0.5677
vn 0.6116 0.6277 -0.4815
vn 0.4559 0.7839 -0.4214
vn 0.4431 0.8788 -0.1770
vn 0.3999 0.6561 -0.6400
vn 0.2018 0.6761 -0.7086
vn 0.2027 0.6851 -0.6997
vn 0.0475 0.6439 -0.7637
vn -0.1336 0.7741 -0.6188
vn 0.0842 0.9778 -0.1919
vn 0.2598 0.9655 -0.0155
vn 0.0409 0.9783 0.2033
vn -0.1209 0.9138 0.3877
vn -0.4392 0.8961 0.0638
vn -0.4012 0.7960 0.4534
vn 0.4714 0.8045 -0.3614
vn -0.4101 0.6708 0.6179
vn 0.3695 -0.6830 -0.6301
vn 0.2969 -0.8688 -0.3964
vn -0.8112 0.5754 0.1038
vn -0.6914 0.5829 0.4269
vn -0.4856 0.7866 -0.3813
vn -0.7052 0.6043 -0.3709
vn -0.4039 0.5783 -0.7088
vn -0.1938 0.6198 -0.7604
vn -0.1382 0.5834 -0.8004
vn -0.1368 0.5593 -0.8176
vn -0.3450 -0.7602 0.5506
vn -0.6050 -0.7802 0.1590
vn -0.6759 -0.3816 -0.6305
vn -0.1473 0.5088 -0.8482
vn -0.3944 -0.8876 -0.2380
vn -0.7636 -0.6444 -0.0405
vn 0.4516 0.7379 -0.5017
vn -0.7629 -0.6341 0.1261
vn -0.5312 -0.8466 -0.0333
vn -0.6547 -0.7526 -0.0708
vn -0.7943 -0.6074 0.0146
vn -0.7216 0.6851 0.0996
vn -0.7357 0.6390 0.2245
vn -0.8058 0.5808 0.1154
vn 0.0441 -0.2646 0.9633
vn 0.0359 -0.2247 0.9738
vn 0.3686 -0.8671 -0.3351
vn 0.3937 -0.9141 0.0969
vn 0.2669 -0.9636 -0.0186
vn 0.3862 -0.6411 -0.6633
vn 0.6233 0.3917 0.6768
vn 0.3337 0.0856 0.9388
vn 0.4976 -0.1875 0.8469
vn 0.3506 0.0392 0.9357
vn 0.4629 -0.2411 -0.8530
usemtl hexagons_medieval
s 1
f 1/1/1 3/2/2 42/3/3 164/4/4
f 1/1/1 112/5/5 139/6/6 2/7/7
f 3/2/2 1/1/1 2/7/7 63/8/8
f 98/9/9 63/8/8 2/7/7 110/10/10
f 148/11/11 42/3/3 3/2/2 64/12/12
f 4/13/13 5/14/14 6/15/15 7/16/16
f 171/17/17 130/18/18 4/13/13 7/16/16
f 123/19/19 124/20/20 5/14/14 61/21/21
f 5/14/14 4/13/13 140/22/22 61/21/21
f 52/23/23 7/16/16 6/15/15 50/24/24
f 6/15/15 73/25/25 74/26/26 50/24/24
f 124/20/20 73/25/25 6/15/15 5/14/14
f 7/16/16 52/23/23 90/27/27 171/17/17
f 8/28/28 129/29/29 131/30/30 9/31/31
f 10/32/32 8/28/28 9/31/31 111/33/33
f 9/31/31 162/34/34 139/6/6 111/33/33
f 161/35/35 162/34/34 9/31/31 131/30/30
f 10/32/32 43/36/36 44/37/37 8/28/28
f 141/38/38 43/36/36 10/32/32 142/39/39
f 78/40/40 12/41/41 11/42/42 146/43/43
f 121/44/44 95/45/45 11/42/42 13/46/46
f 13/46/46 11/42/42 12/41/41 128/47/47
f 77/48/48 128/47/47 12/41/41 78/40/40
f 120/49/49 121/44/44 13/46/46 156/50/50
f 15/51/51 16/52/52 14/53/53 20/54/54
f 33/55/55 35/56/56 14/53/53 16/52/52
f 134/57/57 20/54/54 14/53/53 170/58/58
f 14/53/53 35/56/56 169/59/59 170/58/58
f 16/52/52 15/51/51 17/60/60 174/61/61
f 18/62/62 19/63/63 17/60/60 15/51/51
f 17/60/60 19/63/63 60/64/64 145/65/65
f 17/60/60 145/65/65 144/66/66 174/61/61
f 20/54/54 21/67/67 18/62/62 15/51/51
f 31/68/68 123/19/19 19/63/63 18/62/62
f 21/67/67 29/69/69 31/68/68 18/62/62
f 134/57/57 132/70/70 21/67/67 20/54/54
f 23/71/71 24/72/72 22/73/73 137/74/74
f 22/73/73 24/72/72 83/75/75 88/76/76
f 22/73/73 88/76/76 87/77/77 94/78/78
f 102/79/79 122/80/80 23/71/71 181/81/81
f 24/72/72 23/71/71 122/80/80 82/82/82
f 25/83/83 26/84/84 27/85/85 125/86/86
f 30/87/87 26/84/84 25/83/83 104/88/88
f 25/83/83 163/89/89 105/90/90 104/88/88
f 26/84/84 29/69/69 28/91/91 27/85/85
f 31/68/68 29/69/69 26/84/84 30/87/87
f 28/91/91 126/92/92 80/93/93 27/85/85
f 29/69/69 21/67/67 132/70/70 28/91/91
f 123/19/19 31/68/68 30/87/87 124/20/20
f 33/55/55 34/94/94 32/95/95 35/56/56
f 169/59/59 35/56/56 32/95/95 158/96/96
f 33/55/55 16/52/52 174/61/61 92/97/97
f 34/94/94 33/55/55 92/97/97 93/98/98
f 158/96/96 32/95/95 34/94/94 159/99/99
f 160/100/100 159/99/99 34/94/94 93/98/98
f 36/101/101 37/102/102 38/103/103 39/104/104
f 45/105/105 46/106/106 36/101/101 39/104/104
f 185/107/107 167/108/108 36/101/101 46/106/106
f 37/102/102 119/109/109 118/110/110 38/103/103
f 37/102/102 36/101/101 167/108/108 138/111/111
f 38/103/103 118/110/110 66/112/112 40/113/113
f 40/113/113 41/114/114 39/104/104 38/103/103
f 156/50/50 45/105/105 39/104/104 41/114/114
f 41/114/114 40/113/113 69/115/115 100/116/116
f 42/3/3 118/110/110 119/109/109 164/4/4
f 115/117/117 114/118/118 43/36/36 141/38/38
f 168/119/119 44/37/37 43/36/36 114/118/118
f 129/29/29 8/28/28 44/37/37 180/120/120
f 182/121/121 180/120/120 44/37/37 168/119/119
f 45/105/105 128/47/47 77/48/48 46/106/106
f 46/106/106 77/48/48 79/122/122 185/107/107
f 49/123/123 47/124/124 48/125/125 133/126/126
f 48/125/125 93/98/98 92/97/97 133/126/126
f 106/127/127 96/128/128 48/125/125 47/124/124
f 49/123/123 184/129/129 117/130/130 47/124/124
f 51/131/131 52/23/23 50/24/24 150/132/132
f 85/133/133 91/134/134 51/131/131 53/135/135
f 52/23/23 51/131/131 91/134/134 90/27/27
f 53/135/135 55/136/136 58/137/137 85/133/133
f 150/132/132 54/138/138 53/135/135 51/131/131
f 55/136/136 53/135/135 54/138/138 97/139/139
f 75/140/140 76/141/141 54/138/138 150/132/132
f 72/142/142 143/143/143 55/136/136 97/139/139
f 57/144/144 58/137/137 56/145/145 59/146/146
f 67/147/147 68/148/148 56/145/145 143/143/143
f 98/9/9 84/149/149 57/144/144 64/12/12
f 84/149/149 85/133/133 58/137/137 57/144/144
f 143/143/143 56/145/145 58/137/137 55/136/136
f 59/146/146 148/11/11 64/12/12 57/144/144
f 59/146/146 65/150/150 66/112/112 148/11/11
f 59/146/146 56/145/145 68/148/148 65/150/150
f 123/19/19 61/21/21 60/64/64 19/63/63
f 60/64/64 62/151/151 153/152/152 145/65/65
f 62/151/151 60/64/64 61/21/21 140/22/22
f 64/12/12 3/2/2 63/8/8 98/9/9
f 69/115/115 40/113/113 66/112/112 65/150/150
f 67/147/147 175/153/153 99/154/154 68/148/148
f 67/147/147 71/155/155 154/156/156 175/153/153
f 69/115/115 65/150/150 68/148/148 99/154/154
f 71/155/155 72/142/142 70/157/157 154/156/156
f 103/158/158 102/79/79 70/157/157 179/159/159
f 143/143/143 72/142/142 71/155/155 67/147/147
f 179/159/159 70/157/157 72/142/142 97/139/139
f 73/25/25 104/88/88 105/90/90 74/26/26
f 150/132/132 50/24/24 74/26/26 75/140/140
f 75/140/140 74/26/26 105/90/90 163/89/89
f 155/160/160 76/141/141 75/140/140 163/89/89
f 97/139/139 54/138/138 76/141/141 179/159/159
f 76/141/141 155/160/160 103/158/158 179/159/159
f 79/122/122 77/48/48 78/40/40 183/161/161
f 78/40/40 146/43/43 147/162/162 183/161/161
f 158/96/96 159/99/99 79/122/122 183/161/161
f 81/163/163 82/82/82 80/93/93 126/92/92
f 80/93/93 82/82/82 122/80/80 178/164/164
f 125/86/86 27/85/85 80/93/93 178/164/164
f 136/165/165 157/166/166 81/163/163 126/92/92
f 83/75/75 24/72/72 82/82/82 81/163/163
f 157/166/166 88/76/76 83/75/75 81/163/163
f 84/149/149 89/167/167 91/134/134 85/133/133
f 110/10/10 89/167/167 84/149/149 98/9/9
f 86/168/168 87/77/77 88/76/76 157/166/166
f 86/168/168 135/169/169 149/170/170 151/171/171
f 151/171/171 95/45/45 87/77/77 86/168/168
f 90/27/27 91/134/134 89/167/167 161/35/35
f 162/34/34 161/35/35 89/167/167 110/10/10
f 131/30/30 171/17/17 90/27/27 161/35/35
f 92/97/97 174/61/61 144/66/66 133/126/126
f 93/98/98 48/125/125 96/128/128 160/100/100
f 94/78/78 87/77/77 95/45/45 121/44/44
f 94/78/78 121/44/44 120/49/49 127/172/172
f 137/74/74 22/73/73 94/78/78 127/172/172
f 95/45/45 151/171/171 146/43/43 11/42/42
f 100/116/116 69/115/115 99/154/154 101/173/173
f 156/50/50 41/114/114 100/116/116 120/49/49
f 101/173/173 127/172/172 120/49/49 100/116/116
f 101/173/173 99/154/154 175/153/153 176/174/174
f 154/156/156 70/157/157 102/79/79 181/81/81
f 178/164/164 122/80/80 102/79/79 103/158/158
f 104/88/88 73/25/25 124/20/20 30/87/87
f 117/130/130 172/175/175 106/127/127 47/124/124
f 106/127/127 172/175/175 165/176/176 138/111/111
f 167/108/108 96/128/128 106/127/127 138/111/111
f 107/177/177 108/178/178 109/179/179 153/152/152
f 107/177/177 152/180/180 182/121/121 168/119/119
f 108/178/178 114/118/118 115/117/117 184/129/129
f 168/119/119 114/118/118 108/178/178 107/177/177
f 109/179/179 49/123/123 133/126/126 144/66/66
f 184/129/129 49/123/123 109/179/179 108/178/178
f 110/10/10 2/7/7 139/6/6 162/34/34
f 112/5/5 113/181/181 111/33/33 139/6/6
f 111/33/33 113/181/181 142/39/39 10/32/32
f 112/5/5 1/1/1 164/4/4 166/182/182
f 116/183/183 142/39/39 113/181/181 173/184/184
f 113/181/181 112/5/5 166/182/182 173/184/184
f 115/117/117 116/183/183 117/130/130 184/129/129
f 141/38/38 142/39/39 116/183/183 115/117/117
f 173/184/184 172/175/175 117/130/130 116/183/183
f 118/110/110 42/3/3 148/11/11 66/112/112
f 119/109/109 37/102/102 138/111/111 165/176/176
f 119/109/109 165/176/176 166/182/182 164/4/4
f 163/89/89 25/83/83 125/86/86 155/160/160
f 132/70/70 136/165/165 126/92/92 28/91/91
f 176/174/174 137/74/74 127/172/172 101/173/173
f 156/50/50 13/46/46 128/47/47 45/105/105
f 131/30/30 129/29/29 130/18/18 171/17/17
f 130/18/18 177/185/185 140/22/22 4/13/13
f 130/18/18 129/29/29 180/120/120 177/185/185
f 134/57/57 135/169/169 136/165/165 132/70/70
f 135/169/169 86/168/168 157/166/166 136/165/165
f 135/169/169 134/57/57 170/58/58 149/170/170
f 137/74/74 176/174/174 181/81/81 23/71/71
f 140/22/22 177/185/185 152/180/180 62/151/151
f 153/152/152 109/179/179 144/66/66 145/65/65
f 151/171/171 149/170/170 147/162/162 146/43/43
f 158/96/96 183/161/161 147/162/162 169/59/59
f 170/58/58 169/59/59 147/162/162 149/170/170
f 153/152/152 62/151/151 152/180/180 107/177/177
f 176/174/174 175/153/153 154/156/156 181/81/81
f 155/160/160 125/86/86 178/164/164 103/158/158
f 185/107/107 79/122/122 159/99/99 160/100/100
f 167/108/108 185/107/107 160/100/100 96/128/128
f 166/182/182 165/176/176 172/175/175 173/184/184
f 182/121/121 152/180/180 177/185/185 180/120/120
