# Blender v3.4.1 OBJ File: 'Medieval_Hexagons_Export_1.0_WorldOrigin.blend'
# www.blender.org
mtllib hill_single_A.mtl
o hill_single_A
v -0.011352 0.000000 0.005632
v 0.021743 0.160810 0.307160
v 0.506232 0.160810 0.047074
v 0.379329 0.160810 -0.248668
v -0.172127 0.160810 -0.344090
v -0.447177 0.160810 -0.071450
v -0.353664 0.160810 0.351110
v -0.013986 0.307268 -0.002264
v 0.535693 0.194143 0.057378
v 0.535693 0.227476 0.057378
v 0.031114 0.227476 0.336931
v 0.031114 0.194143 0.336931
v 0.398650 0.194143 -0.273180
v 0.398650 0.227476 -0.273180
v -0.371736 0.194143 0.376556
v -0.371736 0.227476 0.376556
v -0.477114 0.227476 -0.080276
v -0.477114 0.194143 -0.080276
v -0.181494 0.194143 -0.373862
v -0.181494 0.227476 -0.373862
v 0.506232 0.260810 0.047074
v 0.021743 0.260810 0.307160
v -0.172127 0.260810 -0.344090
v 0.379329 0.260810 -0.248668
v -0.353664 0.260810 0.351110
v -0.447177 0.260810 -0.071450
v -0.409920 0.000000 0.407618
v -0.518783 0.000000 -0.084304
v -0.198585 0.000000 -0.401696
v 0.443391 0.000000 -0.290612
v 0.591125 0.000000 0.053675
v 0.027108 0.000000 0.356455
vt 0.296619 0.581751
vt 0.296619 0.634552
vt 0.296619 0.634552
vt 0.296619 0.581751
vt 0.296619 0.634552
vt 0.296619 0.581751
vt 0.296619 0.634552
vt 0.296619 0.581751
vt 0.296619 0.581751
vt 0.296619 0.634552
vt 0.296619 0.634552
vt 0.296619 0.581751
vt 0.052270 0.335428
vt 0.073715 0.335428
vt 0.072812 0.373624
vt 0.052476 0.373624
vt 0.074690 0.335428
vt 0.073515 0.373624
vt 0.042290 0.335428
vt 0.038184 0.335428
vt 0.039330 0.373624
vt 0.043239 0.373624
vt 0.057061 0.335428
vt 0.056855 0.373624
vt 0.056855 0.321536
vt 0.043239 0.321536
vt 0.042290 0.328482
vt 0.057061 0.328482
vt 0.039330 0.321536
vt 0.052476 0.321536
vt 0.052270 0.328482
vt 0.038184 0.328482
vt 0.073515 0.321536
vt 0.074690 0.328482
vt 0.072812 0.321536
vt 0.073715 0.328482
vt 0.053910 0.404874
vt 0.052476 0.404874
vt 0.072812 0.404874
vt 0.064397 0.404874
vt 0.073515 0.404874
vt 0.056855 0.404874
vt 0.050630 0.404874
vt 0.043239 0.404874
vt 0.039330 0.404874
vt 0.055273 0.404874
vt 0.064456 0.404874
vt 0.049864 0.404874
vt 0.296619 0.581751
vn -0.6602 0.3472 -0.6660
vn 0.1622 0.3090 -0.9371
vn 0.8320 0.4246 -0.3570
vn 0.2811 0.2898 0.9149
vn 0.2937 0.2891 0.9111
vn 0.1111 0.2946 0.9491
vn 0.4548 0.2749 0.8471
vn -0.9010 0.3853 0.1994
vn 0.2820 0.3237 0.9031
vn 0.4642 0.2735 0.8424
vn 0.3728 0.6279 0.6833
vn 0.2305 0.6359 0.7365
vn 0.8908 0.2615 -0.3715
vn 0.8861 0.2794 -0.3697
vn 0.7347 0.6036 -0.3096
vn -0.9360 0.2793 0.2143
vn -0.9408 0.2618 0.2155
vn -0.7775 0.6038 0.1759
vn 0.1631 0.2987 -0.9403
vn 0.1630 0.3003 -0.9398
vn 0.1315 0.6377 -0.7590
vn 0.0971 0.2752 0.9565
vn 0.0830 0.6292 0.7728
vn -0.6721 0.2999 -0.6770
vn -0.6726 0.2977 -0.6775
vn -0.5430 0.6369 -0.5472
vn -0.5430 -0.6369 -0.5472
vn -0.6726 -0.2977 -0.6775
vn -0.6721 -0.2999 -0.6770
vn 0.0830 -0.6292 0.7728
vn 0.2305 -0.6359 0.7365
vn 0.2820 -0.3237 0.9031
vn 0.0971 -0.2752 0.9565
vn 0.1315 -0.6377 -0.7590
vn 0.1630 -0.3003 -0.9398
vn 0.1631 -0.2987 -0.9403
vn -0.7775 -0.6038 0.1759
vn -0.9408 -0.2618 0.2155
vn -0.9360 -0.2793 0.2143
vn 0.7347 -0.6036 -0.3096
vn 0.8861 -0.2794 -0.3697
vn 0.8908 -0.2615 -0.3715
vn 0.3728 -0.6279 0.6833
vn 0.4642 -0.2735 0.8424
vn 0.0029 1.0000 0.0024
vn 0.0422 0.9887 0.1436
vn 0.0866 0.9959 0.0242
vn 0.0697 0.9946 -0.0763
vn -0.0400 0.9924 -0.1164
vn -0.1023 0.9944 -0.0271
vn -0.0580 0.9955 0.0751
vn 0.0000 -1.0000 0.0000
usemtl hexagons_medieval
s 1
f 28/1/1 6/2/1 5/3/1 29/4/1
f 29/4/2 5/3/2 4/5/2 30/6/2
f 30/6/3 4/5/3 3/7/3 31/8/3
f 32/9/4 2/10/5 7/11/6 27/12/6
f 31/8/7 3/7/7 2/10/5 32/9/4
f 27/12/8 7/11/8 6/2/8 28/1/8
f 11/13/9 10/14/10 21/15/11 22/16/12
f 10/14/13 14/17/14 24/18/15 21/15/15
f 17/19/16 16/20/17 25/21/18 26/22/18
f 14/17/19 20/23/20 23/24/21 24/18/21
f 16/20/22 11/13/9 22/16/12 25/21/23
f 20/23/24 17/19/25 26/22/26 23/24/26
f 5/25/27 6/26/27 18/27/28 19/28/29
f 19/28/29 18/27/28 17/19/25 20/23/24
f 7/29/30 2/30/31 12/31/32 15/32/33
f 15/32/33 12/31/32 11/13/9 16/20/22
f 4/33/34 5/25/34 19/28/35 13/34/36
f 13/34/36 19/28/35 20/23/20 14/17/19
f 6/26/37 7/29/37 15/32/38 18/27/39
f 18/27/39 15/32/38 16/20/17 17/19/16
f 3/35/40 4/33/40 13/34/41 9/36/42
f 9/36/42 13/34/41 14/17/14 10/14/13
f 2/30/31 3/35/43 9/36/44 12/31/32
f 12/31/32 9/36/44 10/14/10 11/13/9
f 8/37/45 22/38/46 21/39/47
f 8/40/45 24/41/48 23/42/49
f 8/43/45 26/44/50 25/45/51
f 8/46/45 23/42/49 26/44/50
f 8/47/45 21/39/47 24/41/48
f 8/48/45 25/45/51 22/38/46
f 1/49/52 27/12/52 28/1/52
f 1/49/52 28/1/52 29/4/52
f 1/49/52 29/4/52 30/6/52
f 1/49/52 30/6/52 31/8/52
f 1/49/52 31/8/52 32/9/52
f 1/49/52 32/9/52 27/12/52
