# Blender v3.4.1 OBJ File: 'Medieval_Hexagons_Export_1.0_WorldOrigin.blend'
# www.blender.org
mtllib hill_single_C.mtl
o hill_single_C
v -0.008056 0.000000 0.027900
v -0.448634 0.442125 -0.295844
v -0.014569 0.442125 -0.603601
v 0.446826 0.442125 -0.239309
v 0.336061 0.442125 0.439363
v 0.067054 0.442125 0.541176
v -0.435279 0.442125 0.327314
v 0.007801 0.588583 0.002106
v -0.454611 0.475458 0.340119
v -0.454611 0.508792 0.340119
v -0.470899 0.508792 -0.302322
v -0.470899 0.475458 -0.302322
v 0.354012 0.475458 0.454040
v 0.354012 0.508792 0.454040
v 0.065098 0.508792 0.564281
v 0.065098 0.475458 0.564281
v -0.016759 0.475458 -0.626684
v -0.016759 0.508792 -0.626684
v 0.468512 0.508792 -0.247517
v 0.468512 0.475458 -0.247517
v -0.448634 0.542125 -0.295844
v -0.014569 0.542125 -0.603601
v 0.446826 0.542125 -0.239309
v 0.336061 0.542125 0.439363
v 0.067054 0.542125 0.541176
v -0.435279 0.542125 0.327314
v -0.027045 0.000000 -0.705847
v -0.511154 0.000000 -0.338221
v 0.513228 0.000000 -0.277065
v 0.386051 0.000000 0.502164
v 0.077187 0.000000 0.619062
v -0.486807 0.000000 0.369007
vt 0.296619 0.581751
vt 0.296619 0.654364
vt 0.296619 0.654364
vt 0.296619 0.581751
vt 0.296619 0.581751
vt 0.296619 0.654364
vt 0.296619 0.654364
vt 0.296619 0.581751
vt 0.296619 0.581751
vt 0.296619 0.654364
vt 0.296619 0.654364
vt 0.296619 0.581751
vt 0.060873 0.347647
vt 0.037026 0.347647
vt 0.038245 0.385843
vt 0.061322 0.385843
vt 0.039981 0.347647
vt 0.054551 0.347647
vt 0.054615 0.385843
vt 0.041087 0.385843
vt 0.089942 0.347647
vt 0.091710 0.347647
vt 0.090744 0.385843
vt 0.088851 0.385843
vt 0.090744 0.333755
vt 0.061322 0.333755
vt 0.060873 0.340701
vt 0.091710 0.340701
vt 0.054615 0.333755
vt 0.088851 0.333755
vt 0.089942 0.340701
vt 0.054551 0.340701
vt 0.038245 0.333755
vt 0.041087 0.333755
vt 0.039981 0.340701
vt 0.037026 0.340701
vt 0.076721 0.417093
vt 0.090744 0.417093
vt 0.061322 0.417093
vt 0.075860 0.417093
vt 0.088851 0.417093
vt 0.055375 0.417093
vt 0.054615 0.417093
vt 0.053726 0.417093
vt 0.041087 0.417093
vt 0.052248 0.417093
vt 0.038245 0.417093
vt 0.066377 0.417093
vt 0.296619 0.581751
vn -0.3949 0.1412 0.9078
vn 0.9781 0.1333 0.1596
vn -0.5830 0.1791 -0.7925
vn -0.9914 0.1278 0.0281
vn 0.3488 0.1703 0.9216
vn 0.6128 0.1599 -0.7739
vn -0.9654 0.2598 0.0237
vn -0.9690 0.2459 0.0238
vn -0.8474 0.5306 0.0198
vn -0.0243 0.2716 0.9621
vn 0.3452 0.2446 0.9061
vn 0.3026 0.5238 0.7962
vn -0.0104 0.5545 0.8321
vn 0.6011 0.2223 -0.7677
vn 0.6025 0.2119 -0.7695
vn 0.5412 0.4818 -0.6892
vn -0.3833 0.2433 0.8910
vn -0.3347 0.5275 0.7809
vn 0.9580 0.2405 0.1563
vn 0.8454 0.5160 0.1380
vn -0.5649 0.2312 -0.7921
vn -0.5659 0.2240 -0.7935
vn -0.5029 0.4978 -0.7066
vn -0.5029 -0.4978 -0.7066
vn -0.5659 -0.2240 -0.7935
vn -0.5649 -0.2312 -0.7921
vn 0.8454 -0.5160 0.1380
vn 0.9580 -0.2405 0.1563
vn -0.3347 -0.5275 0.7809
vn -0.0103 -0.5545 0.8321
vn -0.0243 -0.2716 0.9621
vn -0.3833 -0.2433 0.8910
vn 0.5412 -0.4818 -0.6892
vn 0.6025 -0.2119 -0.7695
vn 0.6011 -0.2223 -0.7677
vn 0.3026 -0.5239 0.7962
vn 0.3452 -0.2446 0.9061
vn -0.8474 -0.5306 0.0198
vn -0.9690 -0.2459 0.0238
vn -0.9654 -0.2598 0.0237
vn 0.0056 1.0000 0.0016
vn 0.0008 0.9971 -0.0765
vn -0.0752 0.9964 -0.0401
vn 0.0855 0.9957 -0.0361
vn 0.0638 0.9963 0.0580
vn 0.0002 0.9963 0.0858
vn -0.0694 0.9964 0.0478
vn 0.0000 -1.0000 0.0000
usemtl hexagons_medieval
s 1
f 31/1/1 6/2/1 7/3/1 32/4/1
f 29/5/2 4/6/2 5/7/2 30/8/2
f 28/9/3 2/10/3 3/11/3 27/12/3
f 32/4/4 7/3/4 2/10/4 28/9/4
f 30/8/5 5/7/5 6/2/5 31/1/5
f 27/12/6 3/11/6 4/6/6 29/5/6
f 11/13/7 10/14/8 26/15/9 21/16/9
f 15/17/10 14/18/11 24/19/12 25/20/13
f 19/21/14 18/22/15 22/23/16 23/24/16
f 10/14/17 15/17/10 25/20/13 26/15/18
f 14/18/19 19/21/19 23/24/20 24/19/20
f 18/22/21 11/13/22 21/16/23 22/23/23
f 3/25/24 2/26/24 12/27/25 17/28/26
f 17/28/26 12/27/25 11/13/22 18/22/21
f 5/29/27 4/30/27 20/31/28 13/32/28
f 13/32/28 20/31/28 19/21/19 14/18/19
f 7/33/29 6/34/30 16/35/31 9/36/32
f 9/36/32 16/35/31 15/17/10 10/14/17
f 4/30/33 3/25/33 17/28/34 20/31/35
f 20/31/35 17/28/34 18/22/15 19/21/14
f 6/34/30 5/29/36 13/32/37 16/35/31
f 16/35/31 13/32/37 14/18/11 15/17/10
f 2/26/38 7/33/38 9/36/39 12/27/40
f 12/27/40 9/36/39 10/14/8 11/13/7
f 8/37/41 22/38/42 21/39/43
f 8/40/41 23/41/44 22/38/42
f 8/42/41 24/43/45 23/41/44
f 8/44/41 25/45/46 24/43/45
f 8/46/41 26/47/47 25/45/46
f 8/48/41 21/39/43 26/47/47
f 1/49/48 28/9/48 27/12/48
f 1/49/48 27/12/48 29/5/48
f 1/49/48 29/5/48 30/8/48
f 1/49/48 30/8/48 31/1/48
f 1/49/48 31/1/48 32/4/48
f 1/49/48 32/4/48 28/9/48
