# Blender v3.4.1 OBJ File: 'Medieval_Hexagons_Export_1.0_WorldOrigin.blend'
# www.blender.org
mtllib hills_B.mtl
o hills_B
v 0.233889 0.000000 -0.117057
v -0.224363 0.219446 -0.340414
v 0.056997 0.219446 -0.785594
v 0.642236 0.219446 -0.424540
v 0.622173 0.219446 0.262819
v 0.368989 0.219446 0.399305
v -0.075811 0.219446 0.212193
v 0.238983 0.365905 -0.127199
v -0.093279 0.252780 0.227441
v -0.093279 0.286113 0.227441
v -0.247288 0.286113 -0.343890
v -0.247288 0.252780 -0.343890
v 0.641907 0.252780 0.274994
v 0.641907 0.286113 0.274994
v 0.370104 0.286113 0.422465
v 0.370104 0.252780 0.422465
v 0.051774 0.252780 -0.808186
v 0.051774 0.286113 -0.808186
v 0.662646 0.286113 -0.435543
v 0.662646 0.252780 -0.435543
v -0.193997 0.000000 0.295867
v -0.160123 0.160810 0.599728
v 0.324366 0.160810 0.339641
v 0.197463 0.160810 0.043899
v -0.353994 0.160810 -0.051522
v -0.629043 0.160810 0.221118
v -0.535530 0.160810 0.643678
v -0.195853 0.307268 0.290304
v 0.349534 0.194143 0.348447
v 0.349534 0.227476 0.348447
v -0.152103 0.227476 0.625158
v -0.152103 0.194143 0.625158
v 0.213940 0.194143 0.022935
v 0.213940 0.227476 0.022935
v -0.550948 0.194143 0.665433
v -0.550948 0.227476 0.665433
v -0.654612 0.227476 0.213551
v -0.654612 0.194143 0.213551
v -0.361995 0.194143 -0.076958
v -0.361995 0.227476 -0.076958
v 0.184392 0.000000 0.452825
v 0.200450 0.069301 0.346116
v 0.290841 0.069301 0.435122
v 0.234123 0.069301 0.548593
v 0.108679 0.069301 0.529716
v 0.087868 0.069301 0.404578
v 0.033302 -0.000000 0.592339
v -0.013092 0.056831 0.679371
v 0.067423 0.056831 0.692749
v 0.134375 0.056831 0.582017
v -0.051237 0.134585 0.577040
v -0.006110 0.134585 0.658882
v 0.069518 0.134585 0.513311
v -0.004285 0.134585 0.518597
v 0.113857 0.134585 0.579683
v -0.528109 0.082181 -0.522053
v -0.637294 0.082181 -0.393781
v -0.598092 0.082181 -0.203209
v -0.373228 0.082181 -0.543938
v -0.229498 0.082181 -0.412805
v -0.578323 0.082181 -0.342315
v -0.366873 0.082181 -0.464753
v -0.474421 0.082181 -0.458331
v -0.430400 -0.000094 -0.338972
v -0.504405 0.194687 -0.315687
v -0.539008 0.194687 -0.233474
v -0.259483 0.194687 -0.251152
v -0.443619 0.194687 -0.146446
v -0.285500 0.194687 -0.377627
v -0.378018 0.194687 -0.390508
v -0.631212 -0.000000 -0.053627
v -0.655927 0.162931 -0.125095
v -0.710074 0.162931 -0.074367
v -0.677252 0.112708 0.012115
v -0.614584 0.112708 0.031900
v -0.548667 0.162931 -0.048785
v -0.582872 0.162931 -0.119998
v -0.224363 0.319446 -0.340414
v 0.056997 0.319446 -0.785594
v 0.642236 0.319446 -0.424540
v 0.622173 0.319446 0.262819
v 0.368989 0.319446 0.399305
v -0.075811 0.319446 0.212193
v 0.324366 0.260810 0.339641
v -0.160123 0.260810 0.599728
v -0.353994 0.260810 -0.051522
v 0.197463 0.260810 0.043899
v -0.535530 0.260810 0.643678
v -0.629043 0.260810 0.221118
v -0.591787 0.000000 0.700186
v -0.700650 0.000000 0.208264
v -0.380452 0.000000 -0.109129
v 0.261525 0.000000 0.001956
v 0.409258 0.000000 0.346243
v -0.154758 0.000000 0.649022
v 0.031112 0.000000 -0.885293
v -0.291936 0.000000 -0.374152
v 0.703063 0.000000 -0.470743
v 0.680027 0.000000 0.318459
v 0.389330 0.000000 0.475167
v -0.121374 0.000000 0.260332
v -0.139352 -0.000094 -0.203731
v -0.464513 -0.000094 -0.018834
v -0.680568 -0.000094 -0.403965
v -0.632956 -0.000094 -0.172514
v -0.359856 -0.000094 -0.586332
v -0.185294 -0.000094 -0.427070
v -0.554760 -0.000094 -0.568920
v -0.545430 0.000000 -0.170719
v -0.484922 0.000000 -0.044745
v -0.601528 0.000000 0.097988
v -0.712387 0.000000 0.062987
v -0.674664 -0.000000 -0.179737
v -0.770450 0.000000 -0.089998
v 0.101804 0.000000 0.464385
v 0.179435 0.000000 0.580592
v 0.084071 0.000000 0.738311
v -0.030609 0.000000 0.719257
v -0.027414 -0.000000 0.473640
v -0.109620 0.000000 0.575964
v 0.207722 0.000000 0.297788
v 0.339051 0.000000 0.427104
v 0.256646 0.000000 0.591965
v 0.074389 0.000000 0.564539
v 0.044153 0.000000 0.382727
vt 0.296619 0.581751
vt 0.296619 0.642411
vt 0.296619 0.642411
vt 0.296619 0.581751
vt 0.296619 0.581751
vt 0.296619 0.642411
vt 0.296619 0.642411
vt 0.296619 0.581751
vt 0.296619 0.581751
vt 0.296619 0.642411
vt 0.296619 0.642411
vt 0.296619 0.581751
vt 0.060873 0.347647
vt 0.037026 0.347647
vt 0.038245 0.385843
vt 0.061322 0.385843
vt 0.039981 0.347647
vt 0.054551 0.347647
vt 0.054615 0.385843
vt 0.041087 0.385843
vt 0.089942 0.347647
vt 0.091710 0.347647
vt 0.090744 0.385843
vt 0.088851 0.385843
vt 0.090744 0.333755
vt 0.061322 0.333755
vt 0.060873 0.340701
vt 0.091710 0.340701
vt 0.054615 0.333755
vt 0.088851 0.333755
vt 0.089942 0.340701
vt 0.054551 0.340701
vt 0.038245 0.333755
vt 0.041087 0.333755
vt 0.039981 0.340701
vt 0.037026 0.340701
vt 0.296619 0.581751
vt 0.296619 0.634552
vt 0.296619 0.634552
vt 0.296619 0.581751
vt 0.296619 0.634552
vt 0.296619 0.581751
vt 0.296619 0.634552
vt 0.296619 0.581751
vt 0.296619 0.581751
vt 0.296619 0.634552
vt 0.296619 0.634552
vt 0.296619 0.581751
vt 0.052270 0.335428
vt 0.073715 0.335428
vt 0.072812 0.373624
vt 0.052476 0.373624
vt 0.074690 0.335428
vt 0.073515 0.373624
vt 0.042290 0.335428
vt 0.038184 0.335428
vt 0.039330 0.373624
vt 0.043239 0.373624
vt 0.057061 0.335428
vt 0.056855 0.373624
vt 0.056855 0.321536
vt 0.043239 0.321536
vt 0.042290 0.328482
vt 0.057061 0.328482
vt 0.039330 0.321536
vt 0.052476 0.321536
vt 0.052270 0.328482
vt 0.038184 0.328482
vt 0.073515 0.321536
vt 0.074690 0.328482
vt 0.072812 0.321536
vt 0.073715 0.328482
vt 0.289229 0.318018
vt 0.289229 0.355024
vt 0.295924 0.355024
vt 0.298956 0.318018
vt 0.293367 0.355024
vt 0.295241 0.318018
vt 0.285092 0.355024
vt 0.283218 0.318018
vt 0.295924 0.401899
vt 0.289229 0.401899
vt 0.282534 0.401899
vt 0.285092 0.401899
vt 0.293367 0.401899
vt 0.282534 0.355024
vt 0.279502 0.318018
vt 0.268458 0.318018
vt 0.270368 0.389885
vt 0.275216 0.389885
vt 0.276945 0.318018
vt 0.263126 0.318018
vt 0.265933 0.318018
vt 0.267914 0.348366
vt 0.265943 0.348366
vt 0.277956 0.318018
vt 0.276356 0.348366
vt 0.278002 0.389885
vt 0.281823 0.318018
vt 0.275793 0.389885
vt 0.267914 0.395241
vt 0.276356 0.395241
vt 0.265943 0.395241
vt 0.278002 0.436760
vt 0.275216 0.436760
vt 0.270368 0.436760
vt 0.275793 0.436760
vt 0.267323 0.436760
vt 0.267323 0.389885
vt 0.289304 0.421978
vt 0.286546 0.317968
vt 0.295249 0.361901
vt 0.294345 0.421978
vt 0.295447 0.317968
vt 0.290134 0.408776
vt 0.295298 0.408776
vt 0.297729 0.408776
vt 0.298316 0.408776
vt 0.295249 0.408776
vt 0.301394 0.408776
vt 0.298916 0.408776
vt 0.301775 0.408776
vt 0.290134 0.361901
vt 0.289235 0.317968
vt 0.282033 0.317968
vt 0.298316 0.361901
vt 0.295565 0.421978
vt 0.298916 0.361901
vt 0.295298 0.361901
vt 0.293698 0.421978
vt 0.290826 0.421978
vt 0.286748 0.421978
vt 0.301394 0.361901
vt 0.302910 0.317968
vt 0.301775 0.361901
vt 0.303777 0.317968
vt 0.297729 0.361901
vt 0.298459 0.317968
vt 0.294345 0.468853
vt 0.295565 0.468853
vt 0.293698 0.468853
vt 0.290826 0.468853
vt 0.289304 0.468853
vt 0.286748 0.468853
vt 0.325921 0.451896
vt 0.328107 0.451896
vt 0.325350 0.451896
vt 0.320552 0.451896
vt 0.328348 0.318018
vt 0.332215 0.318018
vt 0.328107 0.405021
vt 0.325921 0.405021
vt 0.313518 0.318018
vt 0.316325 0.318018
vt 0.319125 0.378203
vt 0.317538 0.378203
vt 0.318850 0.318018
vt 0.320552 0.405021
vt 0.327337 0.318018
vt 0.325350 0.405021
vt 0.319125 0.425078
vt 0.317538 0.425078
vt 0.076721 0.417093
vt 0.090744 0.417093
vt 0.061322 0.417093
vt 0.075860 0.417093
vt 0.088851 0.417093
vt 0.055375 0.417093
vt 0.054615 0.417093
vt 0.053726 0.417093
vt 0.041087 0.417093
vt 0.052248 0.417093
vt 0.038245 0.417093
vt 0.066377 0.417093
vt 0.053910 0.404874
vt 0.052476 0.404874
vt 0.072812 0.404874
vt 0.064397 0.404874
vt 0.073515 0.404874
vt 0.056855 0.404874
vt 0.050630 0.404874
vt 0.043239 0.404874
vt 0.039330 0.404874
vt 0.055273 0.404874
vt 0.064456 0.404874
vt 0.049864 0.404874
vt 0.296619 0.581751
vt 0.296619 0.581751
vt 0.287033 0.317968
vt 0.289453 0.317968
vt 0.302276 0.317968
vt 0.298153 0.317968
vt 0.282823 0.317968
vt 0.303076 0.317968
vt 0.295229 0.317968
vt 0.330990 0.318018
vt 0.327672 0.318018
vt 0.317046 0.318018
vt 0.319415 0.318018
vt 0.326736 0.318018
vt 0.314696 0.318018
vt 0.280744 0.318018
vt 0.277361 0.318018
vt 0.266568 0.318018
vt 0.268956 0.318018
vt 0.276416 0.318018
vt 0.264163 0.318018
vt 0.289229 0.318018
vt 0.298672 0.318018
vt 0.295065 0.318018
vt 0.283393 0.318018
vt 0.279786 0.318018
vn -0.3731 0.2720 0.8870
vn 0.9648 0.2615 0.0282
vn -0.7997 0.3240 -0.5054
vn -0.9352 0.2493 0.2514
vn 0.4481 0.3289 0.8313
vn 0.4994 0.3088 -0.8095
vn -0.9335 0.2556 0.2515
vn -0.9341 0.2533 0.2517
vn -0.8166 0.5336 0.2198
vn 0.4615 0.2485 0.8516
vn 0.4620 0.2446 0.8525
vn 0.4052 0.5239 0.7492
vn 0.5085 0.2228 -0.8317
vn 0.5099 0.2108 -0.8340
vn 0.4584 0.4810 -0.7473
vn -0.3754 0.2518 0.8920
vn -0.3753 0.2522 0.8919
vn -0.3287 0.5307 0.7812
vn 0.9702 0.2405 0.0283
vn 0.8562 0.5160 0.0250
vn -0.8216 0.2164 -0.5273
vn -0.8183 0.2340 -0.5250
vn -0.7335 0.4928 -0.4681
vn -0.7335 -0.4928 -0.4681
vn -0.8183 -0.2340 -0.5250
vn -0.8216 -0.2164 -0.5273
vn 0.8562 -0.5160 0.0250
vn 0.9702 -0.2405 0.0283
vn -0.3287 -0.5307 0.7812
vn -0.3753 -0.2522 0.8919
vn -0.3754 -0.2518 0.8920
vn 0.4584 -0.4810 -0.7473
vn 0.5099 -0.2108 -0.8340
vn 0.5085 -0.2228 -0.8317
vn 0.4052 -0.5239 0.7492
vn 0.4620 -0.2446 0.8525
vn 0.4615 -0.2485 0.8516
vn -0.8166 -0.5336 0.2198
vn -0.9341 -0.2533 0.2517
vn -0.9335 -0.2556 0.2515
vn -0.6602 0.3472 -0.6660
vn 0.1622 0.3090 -0.9371
vn 0.8320 0.4246 -0.3570
vn 0.2811 0.2898 0.9149
vn 0.2937 0.2891 0.9111
vn 0.1111 0.2946 0.9491
vn 0.4548 0.2749 0.8471
vn -0.9010 0.3853 0.1994
vn 0.2855 0.2904 0.9133
vn 0.4659 0.2497 0.8489
vn 0.3937 0.5674 0.7232
vn 0.2444 0.5755 0.7804
vn 0.8959 0.2378 -0.3752
vn 0.8926 0.2519 -0.3740
vn 0.7736 0.5429 -0.3269
vn -0.9436 0.2517 0.2150
vn -0.9470 0.2380 0.2158
vn -0.8192 0.5430 0.1847
vn 0.1644 0.2708 -0.9485
vn 0.1644 0.2720 -0.9482
vn 0.1394 0.5776 -0.8044
vn 0.1000 0.2513 0.9627
vn 0.0889 0.5688 0.8176
vn -0.6780 0.2716 -0.6831
vn -0.6783 0.2699 -0.6834
vn -0.5753 0.5768 -0.5799
vn -0.5753 -0.5768 -0.5799
vn -0.6783 -0.2699 -0.6834
vn -0.6780 -0.2716 -0.6831
vn 0.0889 -0.5688 0.8176
vn 0.2444 -0.5755 0.7804
vn 0.2855 -0.2904 0.9133
vn 0.1000 -0.2513 0.9627
vn 0.1394 -0.5776 -0.8044
vn 0.1644 -0.2720 -0.9482
vn 0.1644 -0.2708 -0.9485
vn -0.8192 -0.5430 0.1847
vn -0.9470 -0.2380 0.2158
vn -0.9436 -0.2517 0.2150
vn 0.7736 -0.5429 -0.3269
vn 0.8926 -0.2519 -0.3740
vn 0.8959 -0.2378 -0.3752
vn 0.3937 -0.5674 0.7232
vn 0.4659 -0.2497 0.8489
vn 0.6094 0.4956 -0.6189
vn 0.7769 0.4955 0.3883
vn -0.1293 0.4955 0.8589
vn 0.0000 1.0000 0.0000
vn -0.8568 0.4955 0.1425
vn -0.4003 0.4956 -0.7708
vn -0.7374 0.3246 -0.5924
vn -0.1316 0.5963 0.7919
vn 0.7124 0.5540 0.4307
vn -0.0675 0.3265 -0.9428
vn 0.8085 0.3409 -0.4797
vn 0.8149 0.1987 -0.5444
vn 0.8023 0.3846 -0.4565
vn 0.7928 0.4331 -0.4288
vn -0.7687 0.4052 0.4949
vn -0.7927 0.3599 0.4920
vn -0.8050 0.3346 0.4899
vn 0.5431 0.1680 0.8227
vn -0.8577 0.2016 0.4729
vn 0.8568 0.4840 -0.1779
vn 0.8560 0.4857 -0.1772
vn 0.7900 0.4864 -0.3733
vn 0.7676 0.4850 -0.4190
vn -0.7245 0.4868 0.4879
vn -0.7526 0.4851 0.4453
vn -0.5895 0.4865 0.6448
vn 0.2379 0.4813 -0.8437
vn 0.0949 0.5197 -0.8491
vn -0.0387 0.5976 -0.8008
vn -0.3441 0.6163 -0.7083
vn -0.7550 0.5302 -0.3859
vn -0.6761 0.5895 -0.4421
vn -0.8436 0.4953 -0.2073
vn -0.5904 0.4851 0.6451
vn 0.6052 0.4402 -0.6633
vn -0.4137 0.5102 -0.7540
vn -0.0979 0.4806 -0.8714
vn -0.4165 0.5102 -0.7525
vn -0.6842 0.4809 -0.5483
vn -0.8795 0.4402 0.1809
vn 0.4392 0.4589 0.7724
vn -0.0556 0.9599 0.2746
vn -0.0576 0.9570 0.2844
vn 0.8529 0.3235 -0.4097
vn -0.2666 0.4643 0.8446
vn -0.1890 0.6948 0.6939
vn -0.1814 0.7126 0.6777
vn 0.6841 0.3530 0.6383
vn -0.8510 0.3455 0.3955
vn 0.0662 0.3104 -0.9483
vn -0.6505 0.3077 -0.6944
vn 0.0003 1.0000 0.0059
vn -0.0161 0.9977 -0.0660
vn -0.0912 0.9957 -0.0188
vn 0.0804 0.9957 -0.0466
vn 0.0709 0.9963 0.0490
vn 0.0074 0.9963 0.0861
vn -0.0741 0.9950 0.0675
vn 0.0029 1.0000 0.0024
vn 0.0422 0.9887 0.1436
vn 0.0866 0.9959 0.0242
vn 0.0697 0.9946 -0.0763
vn -0.0400 0.9924 -0.1164
vn -0.1023 0.9944 -0.0271
vn -0.0580 0.9955 0.0751
vn 0.0000 -1.0000 0.0000
usemtl hexagons_medieval
s 1
f 100/1/1 6/2/1 7/3/1 101/4/1
f 98/5/2 4/6/2 5/7/2 99/8/2
f 97/9/3 2/10/3 3/11/3 96/12/3
f 101/4/4 7/3/4 2/10/4 97/9/4
f 99/8/5 5/7/5 6/2/5 100/1/5
f 96/12/6 3/11/6 4/6/6 98/5/6
f 11/13/7 10/14/8 83/15/9 78/16/9
f 15/17/10 14/18/11 81/19/12 82/20/12
f 19/21/13 18/22/14 79/23/15 80/24/15
f 10/14/16 15/17/17 82/20/18 83/15/18
f 14/18/19 19/21/19 80/24/20 81/19/20
f 18/22/21 11/13/22 78/16/23 79/23/23
f 3/25/24 2/26/24 12/27/25 17/28/26
f 17/28/26 12/27/25 11/13/22 18/22/21
f 5/29/27 4/30/27 20/31/28 13/32/28
f 13/32/28 20/31/28 19/21/19 14/18/19
f 7/33/29 6/34/29 16/35/30 9/36/31
f 9/36/31 16/35/30 15/17/17 10/14/16
f 4/30/32 3/25/32 17/28/33 20/31/34
f 20/31/34 17/28/33 18/22/14 19/21/13
f 6/34/35 5/29/35 13/32/36 16/35/37
f 16/35/37 13/32/36 14/18/11 15/17/10
f 2/26/38 7/33/38 9/36/39 12/27/40
f 12/27/40 9/36/39 10/14/8 11/13/7
f 91/37/41 26/38/41 25/39/41 92/40/41
f 92/40/42 25/39/42 24/41/42 93/42/42
f 93/42/43 24/41/43 23/43/43 94/44/43
f 95/45/44 22/46/45 27/47/46 90/48/46
f 94/44/47 23/43/47 22/46/45 95/45/44
f 90/48/48 27/47/48 26/38/48 91/37/48
f 31/49/49 30/50/50 84/51/51 85/52/52
f 30/50/53 34/53/54 87/54/55 84/51/55
f 37/55/56 36/56/57 88/57/58 89/58/58
f 34/53/59 40/59/60 86/60/61 87/54/61
f 36/56/62 31/49/49 85/52/52 88/57/63
f 40/59/64 37/55/65 89/58/66 86/60/66
f 25/61/67 26/62/67 38/63/68 39/64/69
f 39/64/69 38/63/68 37/55/65 40/59/64
f 27/65/70 22/66/71 32/67/72 35/68/73
f 35/68/73 32/67/72 31/49/49 36/56/62
f 24/69/74 25/61/74 39/64/75 33/70/76
f 33/70/76 39/64/75 40/59/60 34/53/59
f 26/62/77 27/65/77 35/68/78 38/63/79
f 38/63/79 35/68/78 36/56/57 37/55/56
f 23/71/80 24/69/80 33/70/81 29/72/82
f 29/72/82 33/70/81 34/53/54 30/50/53
f 22/66/71 23/71/83 29/72/84 32/67/72
f 32/67/72 29/72/84 30/50/50 31/49/49
f 121/73/85 42/74/85 43/75/85 122/76/85
f 122/76/86 43/75/86 44/77/86 123/78/86
f 123/78/87 44/77/87 45/79/87 124/80/87
f 43/81/88 42/82/88 46/83/88 45/84/88 44/85/88
f 124/80/89 45/79/89 46/86/89 125/87/89
f 125/87/90 46/86/90 42/74/90 121/73/90
f 120/88/91 51/89/91 54/90/91 119/91/91
f 118/92/92 117/93/92 49/94/92 48/95/92
f 117/93/93 116/96/93 50/97/93 49/94/93
f 119/91/94 54/90/94 53/98/94 115/99/94
f 53/98/95 55/100/96 50/97/97
f 115/99/98 53/98/95 50/97/97 116/96/98
f 49/101/88 50/102/88 48/103/88
f 53/104/88 54/105/88 51/106/88
f 118/92/99 48/95/100 51/89/101 120/88/99
f 55/107/88 53/104/88 51/106/88 52/108/88
f 48/95/102 50/97/102 55/100/102 52/109/102
f 48/95/100 52/109/103 51/89/101
f 67/110/104 102/111/105 60/112/106 69/113/104
f 102/111/105 107/114/107 60/112/106
f 58/115/88 61/116/88 57/117/88
f 62/118/88 60/119/88 59/120/88
f 61/116/88 63/121/88 56/122/88 57/117/88
f 58/123/108 105/124/109 103/125/110
f 63/121/88 62/118/88 59/120/88 56/122/88
f 60/112/111 62/126/112 70/127/113 69/113/111
f 63/128/114 61/129/115 65/130/116
f 61/129/115 58/123/117 66/131/117 65/130/116
f 66/131/118 58/123/108 103/125/110 68/132/118
f 59/133/119 60/112/106 107/114/107 106/134/119
f 56/135/120 59/133/121 106/134/121 108/136/122
f 57/137/123 56/135/120 108/136/122 104/138/123
f 58/123/108 57/137/124 104/138/124 105/124/109
f 69/139/88 70/140/88 65/141/88 66/142/88
f 67/143/88 69/139/88 66/142/88 68/144/88
f 62/126/112 63/128/114 70/127/113
f 63/128/114 65/130/116 70/127/113
f 68/132/125 103/125/125 102/111/125 67/110/125
f 76/145/126 77/146/88 72/147/88 73/148/127
f 110/149/128 109/150/128 77/151/128 76/152/128
f 112/153/129 111/154/129 75/155/130 74/156/131
f 111/154/132 110/149/132 76/152/132 75/155/132
f 114/157/133 112/153/133 74/156/133 73/158/133
f 109/150/134 113/159/134 72/160/134 77/151/134
f 113/159/135 114/157/135 73/158/135 72/160/135
f 75/161/130 76/145/126 73/148/127 74/162/131
f 8/163/136 79/164/137 78/165/138
f 8/166/136 80/167/139 79/164/137
f 8/168/136 81/169/140 80/167/139
f 8/170/136 82/171/141 81/169/140
f 8/172/136 83/173/142 82/171/141
f 8/174/136 78/165/138 83/173/142
f 28/175/143 85/176/144 84/177/145
f 28/178/143 87/179/146 86/180/147
f 28/181/143 89/182/148 88/183/149
f 28/184/143 86/180/147 89/182/148
f 28/185/143 84/177/145 87/179/146
f 28/186/143 88/183/149 85/176/144
f 21/187/150 90/48/150 91/37/150
f 21/187/150 91/37/150 92/40/150
f 21/187/150 92/40/150 93/42/150
f 21/187/150 93/42/150 94/44/150
f 21/187/150 94/44/150 95/45/150
f 21/187/150 95/45/150 90/48/150
f 1/188/150 97/9/150 96/12/150
f 1/188/150 96/12/150 98/5/150
f 1/188/150 98/5/150 99/8/150
f 1/188/150 99/8/150 100/1/150
f 1/188/150 100/1/150 101/4/150
f 1/188/150 101/4/150 97/9/150
f 64/189/150 102/111/150 103/125/150
f 64/190/150 105/124/150 104/138/150
f 64/191/150 106/134/150 107/114/150
f 64/192/150 104/138/150 108/136/150
f 64/193/150 103/125/150 105/124/150
f 64/194/150 108/136/150 106/134/150
f 64/195/150 107/114/150 102/111/150
f 71/196/150 109/150/150 110/149/150
f 71/197/150 110/149/150 111/154/150
f 71/198/150 111/154/150 112/153/150
f 71/199/150 114/157/150 113/159/150
f 71/200/150 113/159/150 109/150/150
f 71/201/150 112/153/150 114/157/150
f 47/202/150 115/99/150 116/96/150
f 47/203/150 116/96/150 117/93/150
f 47/204/150 117/93/150 118/92/150
f 47/205/150 120/88/150 119/91/150
f 47/206/150 119/91/150 115/99/150
f 47/207/150 118/92/150 120/88/150
f 41/208/150 121/73/150 122/76/150
f 41/209/150 122/76/150 123/78/150
f 41/210/150 123/78/150 124/80/150
f 41/211/150 124/80/150 125/87/150
f 41/212/150 125/87/150 121/73/150
