# Blender v3.4.1 OBJ File: 'Medieval_Hexagons_Export_1.0_WorldOrigin.blend'
# www.blender.org
mtllib mountain_B_grass.mtl
o mountain_B_grass
v 0.537213 0.000000 -0.288093
v 0.537213 0.978513 -0.288093
v 0.913206 0.000000 -0.071014
v 0.905347 0.902044 -0.071014
v 0.913206 0.000000 0.363146
v 0.905347 0.902044 0.363146
v 0.537213 0.000000 0.580225
v 0.537213 0.978513 0.580225
v 0.161220 0.000000 0.363146
v 0.169078 1.054983 0.363146
v 0.161220 0.000000 -0.071013
v 0.169078 1.054983 -0.071013
v -0.160017 0.000000 -0.934056
v -0.160017 0.697544 -0.934056
v 0.567779 0.000000 -0.513863
v 0.561477 0.793110 -0.513863
v 0.567779 0.000000 0.326523
v 0.561477 0.793110 0.326523
v -0.160017 0.000000 0.746716
v -0.160017 0.697544 0.746716
v -0.887813 0.000000 0.326523
v -0.881511 0.601979 0.326523
v -0.887813 0.000000 -0.513863
v -0.881511 0.601979 -0.513863
v -0.016310 0.000000 -0.154651
v -0.016310 0.576807 -0.153094
v 0.458603 0.000000 0.119541
v 0.458603 0.556163 0.120319
v 0.458603 0.000000 0.667924
v 0.458603 0.514874 0.667146
v -0.016310 0.000000 0.942115
v -0.016310 0.494229 0.940559
v -0.491224 0.000000 0.667924
v -0.491224 0.514874 0.667145
v -0.491224 0.000000 0.119541
v -0.491224 0.556163 0.120319
v -0.336382 -0.000000 -0.346424
v -0.336382 1.076604 -0.346424
v -0.045182 -0.000000 -0.178299
v -0.053586 1.146060 -0.178299
v -0.045182 -0.000000 0.157950
v -0.053586 1.146060 0.157950
v -0.336382 -0.000000 0.326075
v -0.336382 1.076604 0.326075
v -0.627583 -0.000000 0.157950
v -0.619178 1.007148 0.157950
v -0.627583 -0.000000 -0.178299
v -0.619178 1.007148 -0.178299
v 0.222725 -0.000000 -0.848432
v 0.222725 1.250157 -0.837093
v 0.723004 -0.000000 -0.559596
v 0.723004 1.307105 -0.553926
v 0.723004 -0.000000 0.018076
v 0.723004 1.421001 0.012407
v 0.222725 -0.000000 0.306913
v 0.222725 1.477949 0.295573
v -0.277554 -0.000000 0.018076
v -0.277554 1.421001 0.012407
v -0.277554 -0.000000 -0.559596
v -0.277554 1.307105 -0.553926
v 0.265105 0.000000 -0.678876
v 0.265105 1.698960 -0.678876
v 0.612192 0.000000 -0.478485
v 0.604938 1.628369 -0.478485
v 0.612192 0.000000 -0.077703
v 0.604938 1.628369 -0.077703
v 0.265105 0.000000 0.122688
v 0.265105 1.698960 0.122688
v -0.081982 0.000000 -0.077703
v -0.074728 1.769550 -0.077703
v -0.081982 0.000000 -0.478485
v -0.074728 1.769550 -0.478485
v 0.852378 0.913047 -0.039779
v 0.537213 0.978513 -0.225624
v 0.852378 0.913047 0.331911
v 0.537213 0.978513 0.517756
v 0.222048 1.043980 0.331911
v 0.222048 1.043980 -0.039779
v 0.507845 0.786006 -0.482628
v -0.160017 0.697544 -0.871586
v 0.507845 0.786006 0.295289
v -0.160017 0.697544 0.684247
v -0.827879 0.609083 0.295288
v -0.827879 0.609083 -0.482628
v 0.404503 0.553811 0.151465
v -0.016310 0.572104 -0.090802
v 0.404503 0.517226 0.636000
v -0.016310 0.498933 0.878266
v -0.437123 0.517226 0.635999
v -0.437123 0.553811 0.151465
v -0.106125 1.133156 -0.147064
v -0.336382 1.076604 -0.283954
v -0.106125 1.133156 0.126715
v -0.336382 1.076604 0.263605
v -0.566639 1.020051 0.126715
v -0.566639 1.020051 -0.147065
v 0.668904 1.313263 -0.523305
v 0.222725 1.262474 -0.775850
v 0.668904 1.414842 -0.018215
v 0.222725 1.465632 0.234330
v -0.223454 1.414842 -0.018215
v -0.223454 1.313263 -0.523305
v 0.551969 1.639372 -0.447251
v 0.265105 1.698960 -0.616407
v 0.551969 1.639372 -0.108938
v 0.265105 1.698960 0.060218
v -0.021759 1.758547 -0.108938
v -0.021759 1.758547 -0.447251
v 0.823891 1.010030 -0.012288
v 0.857001 0.965468 -0.036237
v 0.547843 1.029687 -0.218540
v 0.555346 1.065812 -0.170642
v 0.823891 1.010030 0.304420
v 0.857001 0.965468 0.328369
v 0.555346 1.065812 0.462774
v 0.547842 1.029687 0.510672
v 0.286801 1.121594 0.304420
v 0.238684 1.093906 0.328369
v 0.286801 1.121594 -0.012288
v 0.238684 1.093906 -0.036237
v 0.437595 0.866642 -0.448533
v 0.487947 0.836919 -0.475099
v -0.166987 0.750170 -0.856528
v -0.171725 0.785934 -0.803397
v 0.437595 0.866642 0.261194
v 0.487947 0.836919 0.287759
v -0.171725 0.785934 0.616057
v -0.166988 0.750170 0.669188
v -0.781045 0.705227 0.261194
v -0.821922 0.663421 0.287759
v -0.781045 0.705227 -0.448533
v -0.821922 0.663421 -0.475099
v 0.353672 0.640510 0.187443
v 0.396456 0.605755 0.160047
v -0.016310 0.623698 -0.077587
v -0.016310 0.656593 -0.025560
v 0.353672 0.608344 0.613448
v 0.396456 0.569869 0.635315
v -0.016310 0.592261 0.826451
v -0.016310 0.551926 0.872949
v -0.386292 0.608344 0.613448
v -0.429076 0.569869 0.635315
v -0.386292 0.640510 0.187443
v -0.429076 0.605755 0.160047
v -0.170956 1.209045 -0.121165
v -0.122943 1.182726 -0.144461
v -0.348821 1.127249 -0.278748
v -0.357649 1.163193 -0.232156
v -0.170956 1.209045 0.100816
v -0.122943 1.182726 0.124112
v -0.357649 1.163193 0.211807
v -0.348821 1.127249 0.258399
v -0.544342 1.117340 0.100816
v -0.574699 1.071772 0.124112
v -0.544342 1.117340 -0.121165
v -0.574699 1.071772 -0.144461
v 0.617248 1.406556 -0.511646
v 0.660363 1.365700 -0.528820
v 0.222725 1.315883 -0.776531
v 0.222725 1.361646 -0.734952
v 0.617248 1.496374 -0.065033
v 0.660363 1.465335 -0.033399
v 0.222725 1.541283 0.158274
v 0.222725 1.515152 0.214312
v -0.171797 1.496374 -0.065033
v -0.214913 1.465335 -0.033399
v -0.171797 1.406556 -0.511646
v -0.214913 1.365700 -0.528820
v 0.524402 1.736164 -0.420302
v 0.557127 1.691638 -0.444029
v 0.275726 1.750091 -0.609964
v 0.283239 1.786258 -0.562510
v 0.524402 1.736164 -0.135886
v 0.557127 1.691638 -0.112159
v 0.283239 1.786258 0.006322
v 0.275726 1.750091 0.053776
v 0.042075 1.836353 -0.135886
v -0.005675 1.808544 -0.112159
v 0.042075 1.836353 -0.420302
v -0.005675 1.808544 -0.444029
vt 0.292525 0.305964
vt 0.292525 0.386586
vt 0.310292 0.386586
vt 0.310292 0.305964
vt 0.310292 0.386586
vt 0.310292 0.305964
vt 0.292525 0.386586
vt 0.292525 0.305964
vt 0.274757 0.386586
vt 0.274757 0.305964
vt 0.310292 0.417836
vt 0.292525 0.417836
vt 0.274757 0.417836
vt 0.274757 0.417836
vt 0.292525 0.417836
vt 0.310292 0.417836
vt 0.274757 0.386586
vt 0.274757 0.305964
vt 0.292525 0.305964
vt 0.292525 0.386586
vt 0.310292 0.386586
vt 0.310292 0.305964
vt 0.310292 0.386586
vt 0.310292 0.305964
vt 0.292525 0.386586
vt 0.292525 0.305964
vt 0.274757 0.386586
vt 0.274757 0.305964
vt 0.310292 0.417836
vt 0.292525 0.417836
vt 0.274757 0.417836
vt 0.274757 0.417836
vt 0.292525 0.417836
vt 0.310292 0.417836
vt 0.274757 0.386586
vt 0.274757 0.305964
vt 0.292525 0.305964
vt 0.292525 0.386586
vt 0.310292 0.386586
vt 0.310292 0.305964
vt 0.310292 0.386586
vt 0.310292 0.305964
vt 0.292525 0.386586
vt 0.292525 0.305964
vt 0.274757 0.386586
vt 0.274757 0.305964
vt 0.310292 0.417836
vt 0.292525 0.417836
vt 0.274757 0.417836
vt 0.274757 0.417836
vt 0.292525 0.417836
vt 0.310292 0.417836
vt 0.274757 0.386586
vt 0.274757 0.305964
vt 0.292525 0.305964
vt 0.292525 0.386586
vt 0.310292 0.386586
vt 0.310292 0.305964
vt 0.310292 0.386586
vt 0.310292 0.305964
vt 0.292525 0.386586
vt 0.292525 0.305964
vt 0.274757 0.386586
vt 0.274757 0.305964
vt 0.310292 0.417836
vt 0.292525 0.417836
vt 0.274757 0.417836
vt 0.274757 0.417836
vt 0.292525 0.417836
vt 0.310292 0.417836
vt 0.274757 0.386586
vt 0.274757 0.305964
vt 0.292525 0.305964
vt 0.292525 0.386586
vt 0.310292 0.386586
vt 0.310292 0.305964
vt 0.310292 0.386586
vt 0.310292 0.305964
vt 0.292525 0.386586
vt 0.292525 0.305964
vt 0.274757 0.386586
vt 0.274757 0.305964
vt 0.310292 0.417836
vt 0.292525 0.417836
vt 0.274757 0.417836
vt 0.274757 0.417836
vt 0.292525 0.417836
vt 0.310292 0.417836
vt 0.274757 0.386586
vt 0.274757 0.305964
vt 0.292525 0.305964
vt 0.292525 0.386586
vt 0.310292 0.386586
vt 0.310292 0.305964
vt 0.310292 0.386586
vt 0.310292 0.305964
vt 0.292525 0.386586
vt 0.292525 0.305964
vt 0.274757 0.386586
vt 0.274757 0.305964
vt 0.310292 0.417836
vt 0.292525 0.417836
vt 0.274757 0.417836
vt 0.274757 0.417836
vt 0.292525 0.417836
vt 0.310292 0.417836
vt 0.274757 0.386586
vt 0.274757 0.305964
vt 0.292525 0.274714
vt 0.310292 0.274714
vt 0.310292 0.274714
vt 0.292525 0.274714
vt 0.274757 0.274714
vt 0.274757 0.274714
vt 0.292525 0.274714
vt 0.310292 0.274714
vt 0.310292 0.274714
vt 0.292525 0.274714
vt 0.274757 0.274714
vt 0.274757 0.274714
vt 0.292525 0.274714
vt 0.310292 0.274714
vt 0.310292 0.274714
vt 0.292525 0.274714
vt 0.274757 0.274714
vt 0.274757 0.274714
vt 0.292525 0.274714
vt 0.310292 0.274714
vt 0.310292 0.274714
vt 0.292525 0.274714
vt 0.274757 0.274714
vt 0.274757 0.274714
vt 0.292525 0.274714
vt 0.310292 0.274714
vt 0.310292 0.274714
vt 0.292525 0.274714
vt 0.274757 0.274714
vt 0.274757 0.274714
vt 0.292525 0.274714
vt 0.310292 0.274714
vt 0.310292 0.274714
vt 0.292525 0.274714
vt 0.274757 0.274714
vt 0.274757 0.274714
vt 0.057736 0.355336
vt 0.057736 0.355336
vt 0.057736 0.386586
vt 0.057736 0.386586
vt 0.058971 0.355336
vt 0.058971 0.355336
vt 0.058971 0.386586
vt 0.058971 0.386586
vt 0.058268 0.355336
vt 0.058268 0.355336
vt 0.058268 0.386586
vt 0.058268 0.386586
vt 0.056991 0.355336
vt 0.056991 0.355336
vt 0.056991 0.386586
vt 0.056991 0.386586
vt 0.058371 0.355336
vt 0.058371 0.355336
vt 0.058371 0.386586
vt 0.058371 0.386586
vt 0.057523 0.355336
vt 0.057523 0.355336
vt 0.057523 0.386586
vt 0.057523 0.386586
vt 0.042525 0.355336
vt 0.028058 0.355336
vt 0.028058 0.386586
vt 0.042525 0.386586
vt 0.058034 0.417836
vt 0.042525 0.417836
vt 0.027015 0.417836
vt 0.027015 0.417836
vt 0.042525 0.417836
vt 0.058034 0.417836
vt 0.027526 0.355336
vt 0.027526 0.355336
vt 0.027526 0.386586
vt 0.027526 0.386586
vt 0.028058 0.355336
vt 0.042525 0.355336
vt 0.042525 0.386586
vt 0.028058 0.386586
vt 0.042525 0.355336
vt 0.026078 0.355336
vt 0.026078 0.386586
vt 0.042525 0.386586
vt 0.026078 0.355336
vt 0.042525 0.355336
vt 0.042525 0.386586
vt 0.026078 0.386586
vt 0.042525 0.355336
vt 0.042525 0.386586
vt 0.042525 0.355336
vt 0.042525 0.386586
vt 0.042525 0.355336
vt 0.042525 0.386586
vt 0.057007 0.417836
vt 0.042525 0.417836
vt 0.028042 0.417836
vt 0.028042 0.417836
vt 0.042525 0.417836
vt 0.057007 0.417836
vt 0.026678 0.355336
vt 0.026678 0.386586
vt 0.056832 0.417836
vt 0.042525 0.417836
vt 0.028218 0.417836
vt 0.028218 0.417836
vt 0.042525 0.417836
vt 0.056832 0.417836
vt 0.026678 0.355336
vt 0.042525 0.355336
vt 0.042525 0.386586
vt 0.026678 0.386586
vt 0.026781 0.355336
vt 0.026781 0.386586
vt 0.055921 0.417836
vt 0.042525 0.417836
vt 0.029128 0.417836
vt 0.029128 0.417836
vt 0.042525 0.417836
vt 0.055921 0.417836
vt 0.026781 0.355336
vt 0.042525 0.355336
vt 0.042525 0.386586
vt 0.026781 0.386586
vt 0.042525 0.355336
vt 0.027314 0.355336
vt 0.027314 0.386586
vt 0.042525 0.386586
vt 0.042525 0.355336
vt 0.042525 0.386586
vt 0.027314 0.355336
vt 0.042525 0.355336
vt 0.042525 0.386586
vt 0.027314 0.386586
vt 0.055557 0.417836
vt 0.042525 0.417836
vt 0.029492 0.417836
vt 0.029492 0.417836
vt 0.042525 0.417836
vt 0.055557 0.417836
vt 0.054648 0.417836
vt 0.042525 0.417836
vt 0.030401 0.417836
vt 0.030401 0.417836
vt 0.042525 0.417836
vt 0.054648 0.417836
vt 0.057736 0.417836
vt 0.042525 0.417836
vt 0.057736 0.417836
vt 0.042525 0.417836
vt 0.027314 0.417836
vt 0.027314 0.417836
vt 0.058971 0.417836
vt 0.042525 0.417836
vt 0.058971 0.417836
vt 0.042525 0.417836
vt 0.026078 0.417836
vt 0.026078 0.417836
vt 0.058268 0.417836
vt 0.042525 0.417836
vt 0.058268 0.417836
vt 0.042525 0.417836
vt 0.026781 0.417836
vt 0.026781 0.417836
vt 0.056991 0.417836
vt 0.042525 0.417836
vt 0.056991 0.417836
vt 0.042525 0.417836
vt 0.028058 0.417836
vt 0.028058 0.417836
vt 0.058371 0.417836
vt 0.042525 0.417836
vt 0.058371 0.417836
vt 0.042525 0.417836
vt 0.026678 0.417836
vt 0.026678 0.417836
vt 0.057523 0.417836
vt 0.042525 0.417836
vt 0.057523 0.417836
vt 0.042525 0.417836
vt 0.027526 0.417836
vt 0.027526 0.417836
vn 0.5041 0.0021 -0.8636
vn 1.0000 0.0087 0.0000
vn 0.5041 0.0021 0.8636
vn -0.5038 0.0019 0.8638
vn 0.2034 0.9791 0.0000
vn -1.0000 0.0074 0.0000
vn -0.5038 0.0019 -0.8638
vn 0.5015 0.0021 -0.8651
vn 1.0000 0.0079 0.0000
vn 0.5015 0.0021 0.8651
vn -0.5017 0.0024 0.8650
vn -0.1313 0.9913 -0.0000
vn -0.9999 0.0105 0.0000
vn -0.5017 0.0024 -0.8650
vn 0.4995 0.0018 -0.8663
vn 1.0000 0.0000 0.0000
vn 0.4994 0.0020 0.8663
vn -0.4994 0.0020 0.8663
vn -0.0000 0.9972 0.0753
vn -1.0000 -0.0000 0.0000
vn -0.4995 0.0018 -0.8663
vn 0.5053 0.0019 -0.8629
vn 1.0000 0.0073 0.0000
vn 0.5053 0.0019 0.8629
vn -0.5056 0.0020 0.8627
vn -0.2385 0.9711 0.0000
vn -1.0000 0.0083 0.0000
vn -0.5056 0.0020 -0.8627
vn 0.4961 0.0058 -0.8683
vn 0.4965 0.0051 0.8680
vn -0.4965 0.0051 0.8680
vn 0.0000 0.9804 -0.1972
vn -0.4961 0.0058 -0.8683
vn 0.5040 0.0011 -0.8637
vn 1.0000 0.0045 0.0000
vn 0.5040 0.0011 0.8637
vn -0.5039 0.0011 0.8638
vn -1.0000 0.0041 0.0000
vn -0.5039 0.0011 -0.8638
vn 0.0000 -1.0000 0.0000
vn 0.9961 -0.0879 0.0000
vn 0.8477 0.2880 -0.4454
vn 0.8477 0.2880 0.4454
vn 0.9314 0.3640 0.0000
vn 0.6528 0.6295 -0.4214
vn 0.6528 0.6295 0.4214
vn 0.9884 0.1512 0.0114
vn 0.7603 0.5105 -0.4017
vn 0.7603 0.4443 0.4738
vn 0.9470 0.3213 0.0000
vn 0.6547 0.6068 -0.4507
vn 0.6547 0.6068 0.4507
vn 0.9870 0.1574 -0.0317
vn 0.7574 0.3892 -0.5243
vn 0.7574 0.5616 0.3331
vn 0.9952 -0.0982 0.0000
vn 0.8494 0.2803 -0.4472
vn 0.8494 0.2803 0.4472
vn -0.5043 -0.0352 -0.8628
vn -0.8613 0.2345 -0.4507
vn -0.1033 0.4207 -0.9013
vn 0.2024 0.9610 -0.1887
vn -0.1216 0.9180 -0.3774
vn -0.4456 0.8751 -0.1887
vn -0.4456 0.8751 0.1887
vn -0.1216 0.9180 0.3774
vn 0.2024 0.9610 0.1887
vn -0.9520 0.3062 -0.0000
vn -0.6675 0.5954 0.4472
vn -0.6675 0.5954 -0.4472
vn -0.5043 -0.0352 0.8628
vn -0.1033 0.4207 0.9013
vn -0.8613 0.2345 0.4507
vn -0.5127 0.1727 -0.8410
vn -0.7942 0.4378 -0.4214
vn -0.0707 0.5336 -0.8428
vn -0.9881 -0.1540 0.0000
vn -0.5127 0.1727 0.8410
vn -0.0707 0.5336 0.8428
vn -0.7942 0.4378 0.4214
vn 0.5084 0.0029 0.8611
vn 0.0910 0.4379 0.8944
vn 0.4935 -0.0111 -0.8697
vn 0.0000 0.3030 -0.9530
vn -0.9940 0.1090 0.0000
vn 0.4632 0.2025 0.8628
vn 0.4942 0.2157 -0.8422
vn -0.0000 0.5435 -0.8394
vn 0.3456 0.8596 -0.3764
vn 0.0000 0.8203 -0.5720
vn -0.3456 0.8596 -0.3764
vn -0.3456 0.9383 0.0148
vn -0.0000 0.9776 0.2104
vn 0.3456 0.9383 0.0148
vn 0.4500 0.3003 0.8410
vn -0.4935 -0.0111 -0.8697
vn -0.7574 0.3892 -0.5243
vn 0.3477 0.9284 -0.1312
vn 0.0000 0.9435 -0.3314
vn -0.3477 0.9284 -0.1312
vn -0.3477 0.8982 0.2691
vn -0.0000 0.8830 0.4693
vn 0.3477 0.8982 0.2691
vn -0.4935 0.3260 0.8063
vn 0.0000 0.6478 0.7618
vn -0.7574 0.5616 0.3331
vn -0.4942 0.2157 -0.8422
vn -0.7603 0.5105 -0.4017
vn 0.5339 0.8202 -0.2055
vn 0.1854 0.8926 -0.4110
vn -0.1631 0.9650 -0.2055
vn -0.1631 0.9650 0.2055
vn 0.1854 0.8926 0.4110
vn 0.5339 0.8202 0.2055
vn -0.9870 0.1574 -0.0317
vn -0.4942 0.0868 0.8650
vn -0.0000 0.4113 0.9115
vn -0.7603 0.4443 0.4738
vn -0.4625 0.2151 -0.8601
vn -0.6629 0.6018 -0.4454
vn 0.0924 0.4449 -0.8908
vn 0.5084 0.0029 -0.8611
vn 0.0910 0.4379 -0.8944
vn -0.9884 0.1512 0.0114
vn -0.4625 0.2151 0.8601
vn 0.0924 0.4449 0.8908
vn -0.6629 0.6018 0.4454
vn 0.4935 0.3260 0.8063
vn 0.4632 0.2025 -0.8628
vn -0.9487 0.3161 -0.0000
vn 0.5360 0.8184 -0.2069
vn 0.1851 0.8913 -0.4138
vn -0.1657 0.9642 -0.2069
vn -0.1657 0.9642 0.2069
vn 0.1851 0.8913 0.4138
vn 0.5360 0.8184 0.2069
vn 0.4942 0.0868 0.8650
vn 0.4500 0.3003 -0.8410
vn -0.4652 0.2051 -0.8611
vn 0.1361 0.9683 -0.2096
vn -0.2165 0.8817 -0.4192
vn -0.5691 0.7951 -0.2096
vn -0.5691 0.7951 0.2096
vn -0.2165 0.8817 0.4192
vn 0.1361 0.9683 0.2096
vn 0.5099 0.0131 0.8601
vn -0.4652 0.2051 0.8611
vn 0.5099 0.0131 -0.8601
usemtl hexagons_medieval
s 1
f 1/1/1 2/2/1 4/3/1 3/4/1
f 3/4/2 4/3/2 6/5/2 5/6/2
f 5/6/3 6/5/3 8/7/3 7/8/3
f 7/8/4 8/7/4 10/9/4 9/10/4
f 4/11/5 2/12/5 12/13/5 10/14/5 8/15/5 6/16/5
f 9/10/6 10/9/6 12/17/6 11/18/6
f 11/18/7 12/17/7 2/2/7 1/1/7
f 13/19/8 14/20/8 16/21/8 15/22/8
f 15/22/9 16/21/9 18/23/9 17/24/9
f 17/24/10 18/23/10 20/25/10 19/26/10
f 19/26/11 20/25/11 22/27/11 21/28/11
f 16/29/12 14/30/12 24/31/12 22/32/12 20/33/12 18/34/12
f 21/28/13 22/27/13 24/35/13 23/36/13
f 23/36/14 24/35/14 14/20/14 13/19/14
f 25/37/15 26/38/15 28/39/15 27/40/15
f 27/40/16 28/39/16 30/41/16 29/42/16
f 29/42/17 30/41/17 32/43/17 31/44/17
f 31/44/18 32/43/18 34/45/18 33/46/18
f 28/47/19 26/48/19 36/49/19 34/50/19 32/51/19 30/52/19
f 33/46/20 34/45/20 36/53/20 35/54/20
f 35/54/21 36/53/21 26/38/21 25/37/21
f 37/55/22 38/56/22 40/57/22 39/58/22
f 39/58/23 40/57/23 42/59/23 41/60/23
f 41/60/24 42/59/24 44/61/24 43/62/24
f 43/62/25 44/61/25 46/63/25 45/64/25
f 40/65/26 38/66/26 48/67/26 46/68/26 44/69/26 42/70/26
f 45/64/27 46/63/27 48/71/27 47/72/27
f 47/72/28 48/71/28 38/56/28 37/55/28
f 49/73/29 50/74/29 52/75/29 51/76/29
f 51/76/16 52/75/16 54/77/16 53/78/16
f 53/78/30 54/77/30 56/79/30 55/80/30
f 55/80/31 56/79/31 58/81/31 57/82/31
f 52/83/32 50/84/32 60/85/32 58/86/32 56/87/32 54/88/32
f 57/82/20 58/81/20 60/89/20 59/90/20
f 59/90/33 60/89/33 50/74/33 49/73/33
f 61/91/34 62/92/34 64/93/34 63/94/34
f 63/94/35 64/93/35 66/95/35 65/96/35
f 65/96/36 66/95/36 68/97/36 67/98/36
f 67/98/37 68/97/37 70/99/37 69/100/37
f 64/101/5 62/102/5 72/103/5 70/104/5 68/105/5 66/106/5
f 69/100/38 70/99/38 72/107/38 71/108/38
f 71/108/39 72/107/39 62/92/39 61/91/39
f 1/109/40 3/110/40 5/111/40 7/112/40 9/113/40 11/114/40
f 13/115/40 15/116/40 17/117/40 19/118/40 21/119/40 23/120/40
f 25/121/40 27/122/40 29/123/40 31/124/40 33/125/40 35/126/40
f 37/127/40 39/128/40 41/129/40 43/130/40 45/131/40 47/132/40
f 49/133/40 51/134/40 53/135/40 55/136/40 57/137/40 59/138/40
f 61/139/40 63/140/40 65/141/40 67/142/40 69/143/40 71/144/40
f 75/145/41 73/146/41 110/147/42 114/148/43
f 81/149/44 79/150/44 122/151/45 126/152/46
f 87/153/47 85/154/47 134/155/48 138/156/49
f 93/157/50 91/158/50 146/159/51 150/160/52
f 99/161/53 97/162/53 158/163/54 162/164/55
f 105/165/56 103/166/56 170/167/57 174/168/58
f 92/169/59 96/170/59 156/171/60 147/172/61
f 121/173/62 124/174/63 131/175/64 129/176/65 127/177/66 125/178/67
f 108/179/68 107/180/68 178/181/69 180/182/70
f 95/183/71 94/184/71 152/185/72 154/186/73
f 80/187/74 84/188/74 132/189/75 123/190/76
f 96/170/77 95/183/77 154/186/73 156/171/60
f 83/191/78 82/192/78 128/193/79 130/194/80
f 106/195/81 105/165/81 174/168/58 176/196/82
f 97/162/83 98/197/83 159/198/84 158/163/54
f 84/188/85 83/191/85 130/194/80 132/189/75
f 94/184/86 93/157/86 150/160/52 152/185/72
f 85/154/87 86/199/87 135/200/88 134/155/48
f 157/201/89 160/202/90 167/203/91 165/204/92 163/205/93 161/206/94
f 82/192/95 81/149/95 126/152/46 128/193/79
f 98/197/96 102/207/96 168/208/97 159/198/84
f 133/209/98 136/210/99 143/211/100 141/212/101 139/213/102 137/214/103
f 101/215/104 100/216/104 164/217/105 166/218/106
f 86/199/107 90/219/107 144/220/108 135/200/88
f 109/221/109 112/222/110 119/223/111 117/224/112 115/225/113 113/226/114
f 102/207/115 101/215/115 166/218/106 168/208/97
f 89/227/116 88/228/116 140/229/117 142/230/118
f 74/231/119 78/232/119 120/233/120 111/234/121
f 103/166/122 104/235/122 171/236/123 170/167/57
f 90/219/124 89/227/124 142/230/118 144/220/108
f 77/237/125 76/238/125 116/239/126 118/240/127
f 100/216/128 99/161/128 162/164/55 164/217/105
f 91/158/129 92/169/129 147/172/61 146/159/51
f 78/232/130 77/237/130 118/240/127 120/233/120
f 169/241/131 172/242/132 179/243/133 177/244/134 175/245/135 173/246/136
f 88/228/137 87/153/137 138/156/49 140/229/117
f 79/150/138 80/187/138 123/190/76 122/151/45
f 104/235/139 108/179/139 180/182/70 171/236/123
f 145/247/140 148/248/141 155/249/142 153/250/143 151/251/144 149/252/145
f 76/238/146 75/145/146 114/148/43 116/239/126
f 107/180/147 106/195/147 176/196/82 178/181/69
f 110/253/42 111/254/121 112/222/110 109/221/109
f 114/255/43 110/253/42 109/221/109 113/226/114
f 116/256/126 114/255/43 113/226/114 115/225/113
f 118/257/127 116/256/126 115/225/113 117/224/112
f 120/258/120 118/257/127 117/224/112 119/223/111
f 111/254/121 120/258/120 119/223/111 112/222/110
f 122/259/45 123/260/76 124/174/63 121/173/62
f 126/261/46 122/259/45 121/173/62 125/178/67
f 128/262/79 126/261/46 125/178/67 127/177/66
f 130/263/80 128/262/79 127/177/66 129/176/65
f 132/264/75 130/263/80 129/176/65 131/175/64
f 123/260/76 132/264/75 131/175/64 124/174/63
f 134/265/48 135/266/88 136/210/99 133/209/98
f 138/267/49 134/265/48 133/209/98 137/214/103
f 140/268/117 138/267/49 137/214/103 139/213/102
f 142/269/118 140/268/117 139/213/102 141/212/101
f 144/270/108 142/269/118 141/212/101 143/211/100
f 135/266/88 144/270/108 143/211/100 136/210/99
f 146/271/51 147/272/61 148/248/141 145/247/140
f 150/273/52 146/271/51 145/247/140 149/252/145
f 152/274/72 150/273/52 149/252/145 151/251/144
f 154/275/73 152/274/72 151/251/144 153/250/143
f 156/276/60 154/275/73 153/250/143 155/249/142
f 147/272/61 156/276/60 155/249/142 148/248/141
f 158/277/54 159/278/84 160/202/90 157/201/89
f 162/279/55 158/277/54 157/201/89 161/206/94
f 164/280/105 162/279/55 161/206/94 163/205/93
f 166/281/106 164/280/105 163/205/93 165/204/92
f 168/282/97 166/281/106 165/204/92 167/203/91
f 159/278/84 168/282/97 167/203/91 160/202/90
f 170/283/57 171/284/123 172/242/132 169/241/131
f 174/285/58 170/283/57 169/241/131 173/246/136
f 176/286/82 174/285/58 173/246/136 175/245/135
f 178/287/69 176/286/82 175/245/135 177/244/134
f 180/288/70 178/287/69 177/244/134 179/243/133
f 171/284/123 180/288/70 179/243/133 172/242/132
f 73/146/148 74/231/148 111/234/121 110/147/42
