# Blender v3.4.1 OBJ File: 'Medieval_Hexagons_Export_1.0_WorldOrigin.blend'
# www.blender.org
mtllib mountain_B.mtl
o mountain_B
v 0.537213 0.000000 -0.288093
v 0.537213 0.978513 -0.288093
v 0.913206 0.000000 -0.071014
v 0.905347 0.902044 -0.071014
v 0.913206 0.000000 0.363146
v 0.905347 0.902044 0.363146
v 0.537213 0.000000 0.580225
v 0.537213 0.978513 0.580225
v 0.161220 0.000000 0.363146
v 0.169078 1.054983 0.363146
v 0.161220 0.000000 -0.071013
v 0.169078 1.054983 -0.071013
v -0.160017 0.000000 -0.934056
v -0.160017 0.697544 -0.934056
v 0.567779 0.000000 -0.513863
v 0.561477 0.793110 -0.513863
v 0.567779 0.000000 0.326523
v 0.561477 0.793110 0.326523
v -0.160017 0.000000 0.746716
v -0.160017 0.697544 0.746716
v -0.887813 0.000000 0.326523
v -0.881511 0.601979 0.326523
v -0.887813 0.000000 -0.513863
v -0.881511 0.601979 -0.513863
v -0.016310 0.000000 -0.154651
v -0.016310 0.576807 -0.153094
v 0.458603 0.000000 0.119541
v 0.458603 0.556163 0.120319
v 0.458603 0.000000 0.667924
v 0.458603 0.514874 0.667146
v -0.016310 0.000000 0.942115
v -0.016310 0.494229 0.940559
v -0.491224 0.000000 0.667924
v -0.491224 0.514874 0.667145
v -0.491224 0.000000 0.119541
v -0.491224 0.556163 0.120319
v -0.336382 -0.000000 -0.346424
v -0.336382 1.076604 -0.346424
v -0.045182 -0.000000 -0.178299
v -0.053586 1.146060 -0.178299
v -0.045182 -0.000000 0.157950
v -0.053586 1.146060 0.157950
v -0.336382 -0.000000 0.326075
v -0.336382 1.076604 0.326075
v -0.627583 -0.000000 0.157950
v -0.619178 1.007148 0.157950
v -0.627583 -0.000000 -0.178299
v -0.619178 1.007148 -0.178299
v 0.222725 -0.000000 -0.848432
v 0.222725 1.250157 -0.837093
v 0.723004 -0.000000 -0.559596
v 0.723004 1.307105 -0.553926
v 0.723004 -0.000000 0.018076
v 0.723004 1.421001 0.012407
v 0.222725 -0.000000 0.306913
v 0.222725 1.477949 0.295573
v -0.277554 -0.000000 0.018076
v -0.277554 1.421001 0.012407
v -0.277554 -0.000000 -0.559596
v -0.277554 1.307105 -0.553926
v 0.265105 0.000000 -0.678876
v 0.265105 1.698960 -0.678876
v 0.612192 0.000000 -0.478485
v 0.604938 1.628369 -0.478485
v 0.612192 0.000000 -0.077703
v 0.604938 1.628369 -0.077703
v 0.265105 0.000000 0.122688
v 0.265105 1.698960 0.122688
v -0.081982 0.000000 -0.077703
v -0.074728 1.769550 -0.077703
v -0.081982 0.000000 -0.478485
v -0.074728 1.769550 -0.478485
vt 0.292525 0.305964
vt 0.292525 0.386586
vt 0.310292 0.386586
vt 0.310292 0.305964
vt 0.310292 0.386586
vt 0.310292 0.305964
vt 0.292525 0.386586
vt 0.292525 0.305964
vt 0.274757 0.386586
vt 0.274757 0.305964
vt 0.310292 0.417836
vt 0.292525 0.417836
vt 0.274757 0.417836
vt 0.274757 0.417836
vt 0.292525 0.417836
vt 0.310292 0.417836
vt 0.274757 0.386586
vt 0.274757 0.305964
vt 0.292525 0.305964
vt 0.292525 0.386586
vt 0.310292 0.386586
vt 0.310292 0.305964
vt 0.310292 0.386586
vt 0.310292 0.305964
vt 0.292525 0.386586
vt 0.292525 0.305964
vt 0.274757 0.386586
vt 0.274757 0.305964
vt 0.310292 0.417836
vt 0.292525 0.417836
vt 0.274757 0.417836
vt 0.274757 0.417836
vt 0.292525 0.417836
vt 0.310292 0.417836
vt 0.274757 0.386586
vt 0.274757 0.305964
vt 0.292525 0.305964
vt 0.292525 0.386586
vt 0.310292 0.386586
vt 0.310292 0.305964
vt 0.310292 0.386586
vt 0.310292 0.305964
vt 0.292525 0.386586
vt 0.292525 0.305964
vt 0.274757 0.386586
vt 0.274757 0.305964
vt 0.310292 0.417836
vt 0.292525 0.417836
vt 0.274757 0.417836
vt 0.274757 0.417836
vt 0.292525 0.417836
vt 0.310292 0.417836
vt 0.274757 0.386586
vt 0.274757 0.305964
vt 0.292525 0.305964
vt 0.292525 0.386586
vt 0.310292 0.386586
vt 0.310292 0.305964
vt 0.310292 0.386586
vt 0.310292 0.305964
vt 0.292525 0.386586
vt 0.292525 0.305964
vt 0.274757 0.386586
vt 0.274757 0.305964
vt 0.310292 0.417836
vt 0.292525 0.417836
vt 0.274757 0.417836
vt 0.274757 0.417836
vt 0.292525 0.417836
vt 0.310292 0.417836
vt 0.274757 0.386586
vt 0.274757 0.305964
vt 0.292525 0.305964
vt 0.292525 0.386586
vt 0.310292 0.386586
vt 0.310292 0.305964
vt 0.310292 0.386586
vt 0.310292 0.305964
vt 0.292525 0.386586
vt 0.292525 0.305964
vt 0.274757 0.386586
vt 0.274757 0.305964
vt 0.310292 0.417836
vt 0.292525 0.417836
vt 0.274757 0.417836
vt 0.274757 0.417836
vt 0.292525 0.417836
vt 0.310292 0.417836
vt 0.274757 0.386586
vt 0.274757 0.305964
vt 0.292525 0.305964
vt 0.292525 0.386586
vt 0.310292 0.386586
vt 0.310292 0.305964
vt 0.310292 0.386586
vt 0.310292 0.305964
vt 0.292525 0.386586
vt 0.292525 0.305964
vt 0.274757 0.386586
vt 0.274757 0.305964
vt 0.310292 0.417836
vt 0.292525 0.417836
vt 0.274757 0.417836
vt 0.274757 0.417836
vt 0.292525 0.417836
vt 0.310292 0.417836
vt 0.274757 0.386586
vt 0.274757 0.305964
vt 0.292525 0.274714
vt 0.310292 0.274714
vt 0.310292 0.274714
vt 0.292525 0.274714
vt 0.274757 0.274714
vt 0.274757 0.274714
vt 0.292525 0.274714
vt 0.310292 0.274714
vt 0.310292 0.274714
vt 0.292525 0.274714
vt 0.274757 0.274714
vt 0.274757 0.274714
vt 0.292525 0.274714
vt 0.310292 0.274714
vt 0.310292 0.274714
vt 0.292525 0.274714
vt 0.274757 0.274714
vt 0.274757 0.274714
vt 0.292525 0.274714
vt 0.310292 0.274714
vt 0.310292 0.274714
vt 0.292525 0.274714
vt 0.274757 0.274714
vt 0.274757 0.274714
vt 0.292525 0.274714
vt 0.310292 0.274714
vt 0.310292 0.274714
vt 0.292525 0.274714
vt 0.274757 0.274714
vt 0.274757 0.274714
vt 0.292525 0.274714
vt 0.310292 0.274714
vt 0.310292 0.274714
vt 0.292525 0.274714
vt 0.274757 0.274714
vt 0.274757 0.274714
vn 0.5041 0.0021 -0.8636
vn 1.0000 0.0087 0.0000
vn 0.5041 0.0021 0.8636
vn -0.5038 0.0019 0.8638
vn 0.2034 0.9791 0.0000
vn -1.0000 0.0074 0.0000
vn -0.5038 0.0019 -0.8638
vn 0.5015 0.0021 -0.8651
vn 1.0000 0.0079 0.0000
vn 0.5015 0.0021 0.8651
vn -0.5017 0.0024 0.8650
vn -0.1313 0.9913 -0.0000
vn -0.9999 0.0105 0.0000
vn -0.5017 0.0024 -0.8650
vn 0.4995 0.0018 -0.8663
vn 1.0000 0.0000 0.0000
vn 0.4994 0.0020 0.8663
vn -0.4994 0.0020 0.8663
vn -0.0000 0.9972 0.0753
vn -1.0000 -0.0000 0.0000
vn -0.4995 0.0018 -0.8663
vn 0.5053 0.0019 -0.8629
vn 1.0000 0.0073 0.0000
vn 0.5053 0.0019 0.8629
vn -0.5056 0.0020 0.8627
vn -0.2385 0.9711 0.0000
vn -1.0000 0.0083 0.0000
vn -0.5056 0.0020 -0.8627
vn 0.4961 0.0058 -0.8683
vn 0.4965 0.0051 0.8680
vn -0.4965 0.0051 0.8680
vn 0.0000 0.9804 -0.1972
vn -0.4961 0.0058 -0.8683
vn 0.5040 0.0011 -0.8637
vn 1.0000 0.0045 0.0000
vn 0.5040 0.0011 0.8637
vn -0.5039 0.0011 0.8638
vn -1.0000 0.0041 0.0000
vn -0.5039 0.0011 -0.8638
vn 0.0000 -1.0000 0.0000
usemtl hexagons_medieval
s 1
f 1/1/1 2/2/1 4/3/1 3/4/1
f 3/4/2 4/3/2 6/5/2 5/6/2
f 5/6/3 6/5/3 8/7/3 7/8/3
f 7/8/4 8/7/4 10/9/4 9/10/4
f 4/11/5 2/12/5 12/13/5 10/14/5 8/15/5 6/16/5
f 9/10/6 10/9/6 12/17/6 11/18/6
f 11/18/7 12/17/7 2/2/7 1/1/7
f 13/19/8 14/20/8 16/21/8 15/22/8
f 15/22/9 16/21/9 18/23/9 17/24/9
f 17/24/10 18/23/10 20/25/10 19/26/10
f 19/26/11 20/25/11 22/27/11 21/28/11
f 16/29/12 14/30/12 24/31/12 22/32/12 20/33/12 18/34/12
f 21/28/13 22/27/13 24/35/13 23/36/13
f 23/36/14 24/35/14 14/20/14 13/19/14
f 25/37/15 26/38/15 28/39/15 27/40/15
f 27/40/16 28/39/16 30/41/16 29/42/16
f 29/42/17 30/41/17 32/43/17 31/44/17
f 31/44/18 32/43/18 34/45/18 33/46/18
f 28/47/19 26/48/19 36/49/19 34/50/19 32/51/19 30/52/19
f 33/46/20 34/45/20 36/53/20 35/54/20
f 35/54/21 36/53/21 26/38/21 25/37/21
f 37/55/22 38/56/22 40/57/22 39/58/22
f 39/58/23 40/57/23 42/59/23 41/60/23
f 41/60/24 42/59/24 44/61/24 43/62/24
f 43/62/25 44/61/25 46/63/25 45/64/25
f 40/65/26 38/66/26 48/67/26 46/68/26 44/69/26 42/70/26
f 45/64/27 46/63/27 48/71/27 47/72/27
f 47/72/28 48/71/28 38/56/28 37/55/28
f 49/73/29 50/74/29 52/75/29 51/76/29
f 51/76/16 52/75/16 54/77/16 53/78/16
f 53/78/30 54/77/30 56/79/30 55/80/30
f 55/80/31 56/79/31 58/81/31 57/82/31
f 52/83/32 50/84/32 60/85/32 58/86/32 56/87/32 54/88/32
f 57/82/20 58/81/20 60/89/20 59/90/20
f 59/90/33 60/89/33 50/74/33 49/73/33
f 61/91/34 62/92/34 64/93/34 63/94/34
f 63/94/35 64/93/35 66/95/35 65/96/35
f 65/96/36 66/95/36 68/97/36 67/98/36
f 67/98/37 68/97/37 70/99/37 69/100/37
f 64/101/5 62/102/5 72/103/5 70/104/5 68/105/5 66/106/5
f 69/100/38 70/99/38 72/107/38 71/108/38
f 71/108/39 72/107/39 62/92/39 61/91/39
f 1/109/40 3/110/40 5/111/40 7/112/40 9/113/40 11/114/40
f 13/115/40 15/116/40 17/117/40 19/118/40 21/119/40 23/120/40
f 25/121/40 27/122/40 29/123/40 31/124/40 33/125/40 35/126/40
f 37/127/40 39/128/40 41/129/40 43/130/40 45/131/40 47/132/40
f 49/133/40 51/134/40 53/135/40 55/136/40 57/137/40 59/138/40
f 61/139/40 63/140/40 65/141/40 67/142/40 69/143/40 71/144/40
