# Blender v3.4.1 OBJ File: 'Medieval_Hexagons_Export_1.0_WorldOrigin.blend'
# www.blender.org
mtllib mountain_A_grass.mtl
o mountain_A_grass
v -0.067613 0.000000 -0.848000
v -0.067613 1.018559 -0.844698
v 0.600618 0.000000 -0.462197
v 0.600618 1.054211 -0.460546
v 0.600618 0.000000 0.309410
v 0.600618 1.125516 0.307759
v -0.067613 0.000000 0.695213
v -0.067613 1.161168 0.691912
v -0.735844 0.000000 0.309410
v -0.735844 1.125516 0.307759
v -0.735844 0.000000 -0.462197
v -0.735844 1.054211 -0.460546
v 0.531344 0.000000 -0.153754
v 0.531344 0.878513 -0.153754
v 0.907337 0.000000 0.063326
v 0.904328 0.831046 0.063326
v 0.907337 0.000000 0.497485
v 0.904328 0.831046 0.497485
v 0.531344 0.000000 0.714564
v 0.531344 0.878513 0.714564
v 0.155351 0.000000 0.497485
v 0.158359 0.925980 0.497485
v 0.155351 0.000000 0.063326
v 0.158359 0.925980 0.063326
v -0.165886 0.000000 -0.937076
v -0.165886 0.497544 -0.937076
v 0.561910 0.000000 -0.516883
v 0.555823 0.591475 -0.516883
v 0.561910 0.000000 0.323503
v 0.555823 0.591475 0.323503
v -0.165886 0.000000 0.743696
v -0.165886 0.497544 0.743696
v -0.893682 0.000000 0.323503
v -0.887595 0.403614 0.323503
v -0.893682 0.000000 -0.516883
v -0.887595 0.403614 -0.516883
v -0.022179 0.000000 -0.157671
v -0.022179 0.813261 -0.148670
v 0.452734 0.000000 0.116521
v 0.452734 0.763787 0.121021
v 0.452734 0.000000 0.664903
v 0.452734 0.664838 0.660403
v -0.022179 0.000000 0.939095
v -0.022179 0.615364 0.930094
v -0.497093 0.000000 0.664903
v -0.497093 0.664838 0.660403
v -0.497093 0.000000 0.116521
v -0.497093 0.763787 0.121021
v 0.059309 0.000000 -0.418504
v 0.059309 1.381126 -0.418504
v 0.406396 0.000000 -0.218113
v 0.403562 1.425385 -0.218113
v 0.406396 0.000000 0.182669
v 0.403562 1.425385 0.182669
v 0.059309 0.000000 0.383060
v 0.059308 1.381126 0.383060
v -0.287779 0.000000 0.182669
v -0.284945 1.336866 0.182669
v -0.287779 0.000000 -0.218113
v -0.284945 1.336866 -0.218113
v 0.216856 0.000000 -0.851453
v 0.216856 0.659699 -0.847076
v 0.717135 0.000000 -0.562616
v 0.717135 0.695186 -0.560428
v 0.717135 0.000000 0.015056
v 0.717135 0.766162 0.012868
v 0.216856 0.000000 0.303892
v 0.216856 0.801650 0.299516
v -0.283423 0.000000 0.015056
v -0.283423 0.766162 0.012868
v -0.283423 0.000000 -0.562616
v -0.283423 0.695186 -0.560428
v 0.546518 1.057098 -0.429445
v -0.067613 1.024332 -0.782496
v 0.546518 1.122630 0.276658
v -0.067613 1.155396 0.629709
v -0.681744 1.122630 0.276658
v -0.681744 1.057098 -0.429445
v 0.850661 0.837876 0.094560
v 0.531344 0.878513 -0.091284
v 0.850661 0.837876 0.466250
v 0.531344 0.878513 0.652095
v 0.212026 0.919150 0.466250
v 0.212026 0.919150 0.094560
v 0.502175 0.584492 -0.485648
v -0.165886 0.497544 -0.874607
v 0.502175 0.584492 0.292268
v -0.165886 0.497544 0.681226
v -0.833947 0.410596 0.292268
v -0.833947 0.410596 -0.485648
v 0.398634 0.758151 0.151743
v -0.022179 0.801989 -0.087226
v 0.398634 0.670474 0.629681
v -0.022179 0.626636 0.868650
v -0.442992 0.670474 0.629681
v -0.442992 0.758151 0.151743
v 0.349904 1.418487 -0.186878
v 0.059309 1.381126 -0.356034
v 0.349904 1.418487 0.151434
v 0.059308 1.381126 0.320590
v -0.231287 1.343765 0.151434
v -0.231287 1.343765 -0.186878
v 0.663035 0.699024 -0.529430
v 0.216856 0.667374 -0.785080
v 0.663035 0.762324 -0.018130
v 0.216856 0.793974 0.237519
v -0.229323 0.762324 -0.018130
v -0.229323 0.699024 -0.529430
v 0.489401 1.148926 -0.404849
v 0.534669 1.110414 -0.427522
v -0.067613 1.078280 -0.773762
v -0.067613 1.119207 -0.725065
v 0.489401 1.208363 0.235583
v 0.534669 1.174682 0.264957
v -0.067613 1.238081 0.555799
v -0.067613 1.206815 0.611196
v -0.624627 1.208363 0.235583
v -0.669895 1.174682 0.264957
v -0.624627 1.148926 -0.404849
v -0.669895 1.110414 -0.427522
v 0.814683 0.932336 0.122051
v 0.851173 0.890498 0.098102
v 0.537942 0.930361 -0.084200
v 0.542600 0.966962 -0.036303
v 0.814683 0.932336 0.438759
v 0.851173 0.890498 0.462708
v 0.542600 0.966962 0.597113
v 0.537942 0.930361 0.645011
v 0.270517 1.001588 0.438759
v 0.224710 0.970224 0.462708
v 0.270517 1.001588 0.122051
v 0.224710 0.970224 0.098102
v 0.432108 0.665287 -0.451554
v 0.482392 0.635450 -0.478119
v -0.172737 0.550185 -0.859548
v -0.177393 0.585961 -0.806417
v 0.432108 0.665287 0.258173
v 0.482392 0.635450 0.284739
v -0.177393 0.585961 0.613037
v -0.172737 0.550185 0.666168
v -0.786895 0.506634 0.258173
v -0.827866 0.464920 0.284739
v -0.786895 0.506634 -0.451554
v -0.827866 0.464920 -0.478119
v 0.347803 0.840554 0.196697
v 0.390587 0.808894 0.165775
v -0.022179 0.851894 -0.068624
v -0.022179 0.879097 -0.013406
v 0.347803 0.763468 0.616903
v 0.390587 0.722894 0.634574
v -0.022179 0.724925 0.827006
v -0.022179 0.679894 0.868973
v -0.392161 0.763468 0.616903
v -0.434945 0.722894 0.634574
v -0.392161 0.840554 0.196697
v -0.434945 0.808894 0.165775
v 0.292240 1.500969 -0.159930
v 0.337711 1.469572 -0.183657
v 0.052649 1.432922 -0.349592
v 0.047939 1.469560 -0.302138
v 0.292240 1.500969 0.124486
v 0.337711 1.469572 0.148213
v 0.047939 1.469560 0.266694
v 0.052649 1.432922 0.314148
v -0.196362 1.438151 0.124486
v -0.232412 1.396273 0.148213
v -0.196362 1.438151 -0.159930
v -0.232412 1.396273 -0.183657
v 0.611379 0.791175 -0.510787
v 0.654494 0.751727 -0.530986
v 0.216856 0.720683 -0.781742
v 0.216856 0.763189 -0.736839
v 0.611379 0.847147 -0.058683
v 0.654494 0.813815 -0.029474
v 0.216856 0.875132 0.167369
v 0.216856 0.844859 0.221282
v -0.177666 0.847147 -0.058683
v -0.220782 0.813815 -0.029474
v -0.177666 0.791175 -0.510787
v -0.220782 0.751727 -0.530986
vt 0.292525 0.305964
vt 0.292525 0.386586
vt 0.310292 0.386586
vt 0.310292 0.305964
vt 0.310292 0.386586
vt 0.310292 0.305964
vt 0.292525 0.386586
vt 0.292525 0.305964
vt 0.274757 0.386586
vt 0.274757 0.305964
vt 0.310292 0.417836
vt 0.292525 0.417836
vt 0.274757 0.417836
vt 0.274757 0.417836
vt 0.292525 0.417836
vt 0.310292 0.417836
vt 0.274757 0.386586
vt 0.274757 0.305964
vt 0.292525 0.305964
vt 0.292525 0.386586
vt 0.310292 0.386586
vt 0.310292 0.305964
vt 0.310292 0.386586
vt 0.310292 0.305964
vt 0.292525 0.386586
vt 0.292525 0.305964
vt 0.274757 0.386586
vt 0.274757 0.305964
vt 0.310292 0.417836
vt 0.292525 0.417836
vt 0.274757 0.417836
vt 0.274757 0.417836
vt 0.292525 0.417836
vt 0.310292 0.417836
vt 0.274757 0.386586
vt 0.274757 0.305964
vt 0.292525 0.305964
vt 0.292525 0.386586
vt 0.310292 0.386586
vt 0.310292 0.305964
vt 0.310292 0.386586
vt 0.310292 0.305964
vt 0.292525 0.386586
vt 0.292525 0.305964
vt 0.274757 0.386586
vt 0.274757 0.305964
vt 0.310292 0.417836
vt 0.292525 0.417836
vt 0.274757 0.417836
vt 0.274757 0.417836
vt 0.292525 0.417836
vt 0.310292 0.417836
vt 0.274757 0.386586
vt 0.274757 0.305964
vt 0.292525 0.305964
vt 0.292525 0.386586
vt 0.310292 0.386586
vt 0.310292 0.305964
vt 0.310292 0.386586
vt 0.310292 0.305964
vt 0.292525 0.386586
vt 0.292525 0.305964
vt 0.274757 0.386586
vt 0.274757 0.305964
vt 0.310292 0.417836
vt 0.292525 0.417836
vt 0.274757 0.417836
vt 0.274757 0.417836
vt 0.292525 0.417836
vt 0.310292 0.417836
vt 0.274757 0.386586
vt 0.274757 0.305964
vt 0.292525 0.305964
vt 0.292525 0.386586
vt 0.310292 0.386586
vt 0.310292 0.305964
vt 0.310292 0.386586
vt 0.310292 0.305964
vt 0.292525 0.386586
vt 0.292525 0.305964
vt 0.274757 0.386586
vt 0.274757 0.305964
vt 0.310292 0.417836
vt 0.292525 0.417836
vt 0.274757 0.417836
vt 0.274757 0.417836
vt 0.292525 0.417836
vt 0.310292 0.417836
vt 0.274757 0.386586
vt 0.274757 0.305964
vt 0.292525 0.305964
vt 0.292525 0.386586
vt 0.310292 0.386586
vt 0.310292 0.305964
vt 0.310292 0.386586
vt 0.310292 0.305964
vt 0.292525 0.386586
vt 0.292525 0.305964
vt 0.274757 0.386586
vt 0.274757 0.305964
vt 0.310292 0.417836
vt 0.292525 0.417836
vt 0.274757 0.417836
vt 0.274757 0.417836
vt 0.292525 0.417836
vt 0.310292 0.417836
vt 0.274757 0.386586
vt 0.274757 0.305964
vt 0.292525 0.274714
vt 0.310292 0.274714
vt 0.310292 0.274714
vt 0.292525 0.274714
vt 0.274757 0.274714
vt 0.274757 0.274714
vt 0.292525 0.274714
vt 0.310292 0.274714
vt 0.310292 0.274714
vt 0.292525 0.274714
vt 0.274757 0.274714
vt 0.274757 0.274714
vt 0.292525 0.274714
vt 0.310292 0.274714
vt 0.310292 0.274714
vt 0.292525 0.274714
vt 0.274757 0.274714
vt 0.274757 0.274714
vt 0.292525 0.274714
vt 0.310292 0.274714
vt 0.310292 0.274714
vt 0.292525 0.274714
vt 0.274757 0.274714
vt 0.274757 0.274714
vt 0.292525 0.274714
vt 0.310292 0.274714
vt 0.310292 0.274714
vt 0.292525 0.274714
vt 0.274757 0.274714
vt 0.274757 0.274714
vt 0.292525 0.274714
vt 0.310292 0.274714
vt 0.310292 0.274714
vt 0.292525 0.274714
vt 0.274757 0.274714
vt 0.274757 0.274714
vt 0.058854 0.355336
vt 0.058854 0.355336
vt 0.058854 0.386586
vt 0.058854 0.386586
vt 0.057736 0.355336
vt 0.057736 0.355336
vt 0.057736 0.386586
vt 0.057736 0.386586
vt 0.058971 0.355336
vt 0.058971 0.355336
vt 0.058971 0.386586
vt 0.058971 0.386586
vt 0.058268 0.355336
vt 0.058268 0.355336
vt 0.058268 0.386586
vt 0.058268 0.386586
vt 0.057523 0.355336
vt 0.057523 0.355336
vt 0.057523 0.386586
vt 0.057523 0.386586
vt 0.058371 0.355336
vt 0.058371 0.355336
vt 0.058371 0.386586
vt 0.058371 0.386586
vt 0.026195 0.355336
vt 0.042525 0.355336
vt 0.042525 0.386586
vt 0.026195 0.386586
vt 0.042525 0.355336
vt 0.042525 0.386586
vt 0.042525 0.355336
vt 0.042525 0.386586
vt 0.026195 0.355336
vt 0.026195 0.386586
vt 0.057007 0.417836
vt 0.042525 0.417836
vt 0.028042 0.417836
vt 0.028042 0.417836
vt 0.042525 0.417836
vt 0.057007 0.417836
vt 0.042525 0.355336
vt 0.042525 0.386586
vt 0.042525 0.355336
vt 0.042525 0.386586
vt 0.042525 0.355336
vt 0.026678 0.355336
vt 0.026678 0.386586
vt 0.042525 0.386586
vt 0.056832 0.417836
vt 0.042525 0.417836
vt 0.028218 0.417836
vt 0.028218 0.417836
vt 0.042525 0.417836
vt 0.056832 0.417836
vt 0.026678 0.355336
vt 0.042525 0.355336
vt 0.042525 0.386586
vt 0.026678 0.386586
vt 0.026781 0.355336
vt 0.026781 0.386586
vt 0.055921 0.417836
vt 0.042525 0.417836
vt 0.029128 0.417836
vt 0.029128 0.417836
vt 0.042525 0.417836
vt 0.055921 0.417836
vt 0.026781 0.355336
vt 0.042525 0.355336
vt 0.042525 0.386586
vt 0.026781 0.386586
vt 0.027314 0.355336
vt 0.027314 0.386586
vt 0.027314 0.355336
vt 0.042525 0.355336
vt 0.042525 0.386586
vt 0.027314 0.386586
vt 0.042525 0.355336
vt 0.042525 0.386586
vt 0.042525 0.355336
vt 0.042525 0.386586
vt 0.055557 0.417836
vt 0.042525 0.417836
vt 0.029492 0.417836
vt 0.029492 0.417836
vt 0.042525 0.417836
vt 0.055557 0.417836
vt 0.027526 0.355336
vt 0.027526 0.386586
vt 0.058034 0.417836
vt 0.042525 0.417836
vt 0.027015 0.417836
vt 0.027015 0.417836
vt 0.042525 0.417836
vt 0.058034 0.417836
vt 0.027526 0.355336
vt 0.027526 0.386586
vt 0.026078 0.355336
vt 0.026078 0.386586
vt 0.057833 0.417836
vt 0.042525 0.417836
vt 0.027216 0.417836
vt 0.027216 0.417836
vt 0.042525 0.417836
vt 0.057833 0.417836
vt 0.026078 0.355336
vt 0.026078 0.386586
vt 0.042525 0.355336
vt 0.042525 0.386586
vt 0.058854 0.417836
vt 0.042525 0.417836
vt 0.058854 0.417836
vt 0.042525 0.417836
vt 0.026195 0.417836
vt 0.026195 0.417836
vt 0.057736 0.417836
vt 0.042525 0.417836
vt 0.057736 0.417836
vt 0.042525 0.417836
vt 0.027314 0.417836
vt 0.027314 0.417836
vt 0.058971 0.417836
vt 0.042525 0.417836
vt 0.058971 0.417836
vt 0.042525 0.417836
vt 0.026078 0.417836
vt 0.026078 0.417836
vt 0.058268 0.417836
vt 0.042525 0.417836
vt 0.058268 0.417836
vt 0.042525 0.417836
vt 0.026781 0.417836
vt 0.026781 0.417836
vt 0.057523 0.417836
vt 0.042525 0.417836
vt 0.057523 0.417836
vt 0.042525 0.417836
vt 0.027526 0.417836
vt 0.027526 0.417836
vt 0.058371 0.417836
vt 0.042525 0.417836
vt 0.058371 0.417836
vt 0.042525 0.417836
vt 0.026678 0.417836
vt 0.026678 0.417836
vn 0.4992 0.0021 -0.8665
vn 1.0000 -0.0000 0.0000
vn 0.4992 0.0019 0.8665
vn -0.4992 0.0019 0.8665
vn 0.0000 0.9957 -0.0924
vn -1.0000 0.0000 0.0000
vn -0.4992 0.0021 -0.8665
vn 0.5015 0.0009 -0.8651
vn 1.0000 0.0036 0.0000
vn 0.5015 0.0009 0.8651
vn -0.5015 0.0008 0.8652
vn 0.1262 0.9920 -0.0000
vn -1.0000 0.0032 0.0000
vn -0.5015 0.0008 -0.8652
vn 0.5014 0.0028 -0.8652
vn 0.9999 0.0103 0.0000
vn 0.5014 0.0028 0.8652
vn -0.5017 0.0034 0.8650
vn -0.1291 0.9916 0.0000
vn -0.9999 0.0151 0.0000
vn -0.5017 0.0034 -0.8650
vn 0.4972 0.0074 -0.8676
vn 0.4965 0.0092 0.8680
vn -0.4965 0.0092 0.8680
vn 0.0000 0.9836 0.1804
vn -0.4972 0.0074 -0.8676
vn 0.5015 0.0005 -0.8652
vn 1.0000 0.0020 0.0000
vn 0.5015 0.0005 0.8652
vn -0.5016 0.0005 0.8651
vn -0.1275 0.9918 0.0000
vn -1.0000 0.0021 0.0000
vn -0.5016 0.0005 -0.8651
vn 0.4985 0.0042 -0.8669
vn 0.4987 0.0036 0.8668
vn -0.4987 0.0036 0.8668
vn 0.0000 0.9924 -0.1229
vn -0.4985 0.0042 -0.8669
vn 0.0000 -1.0000 0.0000
vn 0.9758 0.2176 -0.0202
vn 0.7373 0.4831 -0.4723
vn 0.7373 0.5618 0.3753
vn 1.0000 -0.0097 0.0000
vn 0.8226 0.3534 -0.4454
vn 0.8226 0.3534 0.4454
vn 0.9322 0.3619 0.0000
vn 0.6543 0.6280 -0.4214
vn 0.6543 0.6280 0.4214
vn 0.9884 0.1492 0.0274
vn 0.7603 0.5501 -0.3454
vn 0.7603 0.3917 0.5182
vn 0.9727 0.2322 0.0000
vn 0.7112 0.5423 -0.4472
vn 0.7112 0.5423 0.4472
vn 0.9870 0.1594 -0.0197
vn 0.7574 0.4275 -0.4935
vn 0.7574 0.5350 0.3744
vn -0.4879 0.2957 0.8213
vn -0.0000 0.6011 0.7992
vn -0.7373 0.5618 0.3753
vn 0.4796 0.1688 0.8611
vn -0.0570 0.4436 0.8944
vn 0.4942 0.3036 -0.8146
vn 0.0000 0.6293 -0.7772
vn -0.9758 0.2176 -0.0202
vn -0.7373 0.4831 -0.4723
vn 0.3456 0.8855 -0.3107
vn 0.0000 0.8610 -0.5087
vn -0.3456 0.8855 -0.3107
vn -0.3456 0.9345 0.0853
vn 0.0000 0.9590 0.2833
vn 0.3456 0.9345 0.0853
vn 0.4507 0.2992 0.8410
vn -0.0695 0.5338 0.8428
vn 0.5073 0.0530 -0.8601
vn 0.0574 0.4508 -0.8908
vn -0.4935 0.0543 -0.8680
vn -0.7574 0.4275 -0.4935
vn 0.0000 0.3738 -0.9275
vn 0.3477 0.9371 -0.0322
vn 0.0000 0.9733 -0.2296
vn -0.3477 0.9371 -0.0322
vn -0.3477 0.8646 0.3627
vn 0.0000 0.8284 0.5601
vn 0.3477 0.8646 0.3627
vn 0.4879 0.2957 0.8213
vn -0.4935 0.2644 0.8286
vn -0.0000 0.5887 0.8084
vn -0.7574 0.5350 0.3744
vn -0.4942 0.3036 -0.8146
vn -0.7603 0.5501 -0.3454
vn 0.4682 0.8594 -0.2055
vn 0.1151 0.9043 -0.4110
vn -0.2380 0.9493 -0.2055
vn -0.2380 0.9493 0.2055
vn 0.1151 0.9043 0.4110
vn 0.4682 0.8594 0.2055
vn -0.9870 0.1594 -0.0197
vn -0.4942 -0.0053 0.8693
vn -0.0000 0.3125 0.9499
vn -0.7603 0.3917 0.5182
vn -0.4779 0.1783 -0.8601
vn -0.7079 0.5482 -0.4454
vn -0.9884 0.1492 0.0274
vn -0.4779 0.1783 0.8601
vn 0.0574 0.4508 0.8908
vn -0.7079 0.5482 0.4454
vn 0.4935 0.2644 0.8286
vn 0.4796 0.1688 -0.8611
vn -0.0570 0.4436 -0.8944
vn -0.9705 0.2410 0.0000
vn 0.4942 -0.0053 0.8693
vn 0.4507 0.2992 -0.8410
vn -0.0695 0.5338 -0.8428
vn 0.2394 0.9486 -0.2069
vn -0.1161 0.9029 -0.4138
vn -0.4715 0.8572 -0.2069
vn -0.4715 0.8572 0.2069
vn -0.1161 0.9029 0.4138
vn 0.2394 0.9486 0.2069
vn 0.5073 0.0530 0.8601
vn -0.5067 0.0420 -0.8611
vn -0.8253 0.3448 -0.4472
vn 0.2046 0.9605 -0.1887
vn -0.1195 0.9183 -0.3774
vn -0.4436 0.8761 -0.1887
vn -0.4436 0.8761 0.1887
vn -0.1195 0.9183 0.3774
vn 0.2046 0.9605 0.1887
vn -0.5067 0.0420 0.8611
vn -0.8253 0.3448 0.4472
vn -0.5123 0.1739 -0.8410
vn -0.7932 0.4396 -0.4214
vn 0.3317 0.9021 -0.2760
vn -0.0000 0.8844 -0.4667
vn -0.3317 0.9021 -0.2760
vn -0.3317 0.9375 0.1053
vn -0.0000 0.9552 0.2960
vn 0.3317 0.9375 0.1053
vn -0.9998 -0.0214 0.0000
vn -0.5123 0.1739 0.8410
vn -0.7932 0.4396 0.4214
vn -0.4879 0.1395 -0.8617
vn -0.0000 0.4438 -0.8962
vn 0.4935 0.0543 -0.8680
vn -0.9938 0.1112 0.0000
vn 0.4879 0.1395 -0.8617
usemtl hexagons_medieval
s 1
f 1/1/1 2/2/1 4/3/1 3/4/1
f 3/4/2 4/3/2 6/5/2 5/6/2
f 5/6/3 6/5/3 8/7/3 7/8/3
f 7/8/4 8/7/4 10/9/4 9/10/4
f 4/11/5 2/12/5 12/13/5 10/14/5 8/15/5 6/16/5
f 9/10/6 10/9/6 12/17/6 11/18/6
f 11/18/7 12/17/7 2/2/7 1/1/7
f 13/19/8 14/20/8 16/21/8 15/22/8
f 15/22/9 16/21/9 18/23/9 17/24/9
f 17/24/10 18/23/10 20/25/10 19/26/10
f 19/26/11 20/25/11 22/27/11 21/28/11
f 16/29/12 14/30/12 24/31/12 22/32/12 20/33/12 18/34/12
f 21/28/13 22/27/13 24/35/13 23/36/13
f 23/36/14 24/35/14 14/20/14 13/19/14
f 25/37/15 26/38/15 28/39/15 27/40/15
f 27/40/16 28/39/16 30/41/16 29/42/16
f 29/42/17 30/41/17 32/43/17 31/44/17
f 31/44/18 32/43/18 34/45/18 33/46/18
f 28/47/19 26/48/19 36/49/19 34/50/19 32/51/19 30/52/19
f 33/46/20 34/45/20 36/53/20 35/54/20
f 35/54/21 36/53/21 26/38/21 25/37/21
f 37/55/22 38/56/22 40/57/22 39/58/22
f 39/58/2 40/57/2 42/59/2 41/60/2
f 41/60/23 42/59/23 44/61/23 43/62/23
f 43/62/24 44/61/24 46/63/24 45/64/24
f 40/65/25 38/66/25 48/67/25 46/68/25 44/69/25 42/70/25
f 45/64/6 46/63/6 48/71/6 47/72/6
f 47/72/26 48/71/26 38/56/26 37/55/26
f 49/73/27 50/74/27 52/75/27 51/76/27
f 51/76/28 52/75/28 54/77/28 53/78/28
f 53/78/29 54/77/29 56/79/29 55/80/29
f 55/80/30 56/79/30 58/81/30 57/82/30
f 52/83/31 50/84/31 60/85/31 58/86/31 56/87/31 54/88/31
f 57/82/32 58/81/32 60/89/32 59/90/32
f 59/90/33 60/89/33 50/74/33 49/73/33
f 61/91/34 62/92/34 64/93/34 63/94/34
f 63/94/2 64/93/2 66/95/2 65/96/2
f 65/96/35 66/95/35 68/97/35 67/98/35
f 67/98/36 68/97/36 70/99/36 69/100/36
f 64/101/37 62/102/37 72/103/37 70/104/37 68/105/37 66/106/37
f 69/100/6 70/99/6 72/107/6 71/108/6
f 71/108/38 72/107/38 62/92/38 61/91/38
f 1/109/39 3/110/39 5/111/39 7/112/39 9/113/39 11/114/39
f 13/115/39 15/116/39 17/117/39 19/118/39 21/119/39 23/120/39
f 25/121/39 27/122/39 29/123/39 31/124/39 33/125/39 35/126/39
f 37/127/39 39/128/39 41/129/39 43/130/39 45/131/39 47/132/39
f 49/133/39 51/134/39 53/135/39 55/136/39 57/137/39 59/138/39
f 61/139/39 63/140/39 65/141/39 67/142/39 69/143/39 71/144/39
f 75/145/40 73/146/40 110/147/41 114/148/42
f 81/149/43 79/150/43 122/151/44 126/152/45
f 87/153/46 85/154/46 134/155/47 138/156/48
f 93/157/49 91/158/49 146/159/50 150/160/51
f 99/161/52 97/162/52 158/163/53 162/164/54
f 105/165/55 103/166/55 170/167/56 174/168/57
f 77/169/58 76/170/58 116/171/59 118/172/60
f 100/173/61 99/161/61 162/164/54 164/174/62
f 91/158/63 92/175/63 147/176/64 146/159/50
f 78/177/65 77/169/65 118/172/60 120/178/66
f 169/179/67 172/180/68 179/181/69 177/182/70 175/183/71 173/184/72
f 88/185/73 87/153/73 138/156/48 140/186/74
f 79/150/75 80/187/75 123/188/76 122/151/44
f 104/189/77 108/190/77 180/191/78 171/192/79
f 145/193/80 148/194/81 155/195/82 153/196/83 151/197/84 149/198/85
f 76/170/86 75/145/86 114/148/42 116/171/59
f 107/199/87 106/200/87 176/201/88 178/202/89
f 92/175/90 96/203/90 156/204/91 147/176/64
f 121/205/92 124/206/93 131/207/94 129/208/95 127/209/96 125/210/97
f 108/190/98 107/199/98 178/202/89 180/191/78
f 95/211/99 94/212/99 152/213/100 154/214/101
f 80/187/102 84/215/102 132/216/103 123/188/76
f 96/203/104 95/211/104 154/214/101 156/204/91
f 83/217/105 82/218/105 128/219/106 130/220/107
f 106/200/108 105/165/108 174/168/57 176/201/88
f 97/162/109 98/221/109 159/222/110 158/163/53
f 84/215/111 83/217/111 130/220/107 132/216/103
f 94/212/112 93/157/112 150/160/51 152/213/100
f 85/154/113 86/223/113 135/224/114 134/155/47
f 157/225/115 160/226/116 167/227/117 165/228/118 163/229/119 161/230/120
f 82/218/121 81/149/121 126/152/45 128/219/106
f 98/221/122 102/231/122 168/232/123 159/222/110
f 133/233/124 136/234/125 143/235/126 141/236/127 139/237/128 137/238/129
f 101/239/130 100/173/130 164/174/62 166/240/131
f 86/223/132 90/241/132 144/242/133 135/224/114
f 109/243/134 112/244/135 119/245/136 117/246/137 115/247/138 113/248/139
f 102/231/140 101/239/140 166/240/131 168/232/123
f 89/249/141 88/185/141 140/186/74 142/250/142
f 74/251/143 78/177/143 120/178/66 111/252/144
f 103/166/145 104/189/145 171/192/79 170/167/56
f 90/241/146 89/249/146 142/250/142 144/242/133
f 110/253/41 111/254/144 112/244/135 109/243/134
f 114/255/42 110/253/41 109/243/134 113/248/139
f 116/256/59 114/255/42 113/248/139 115/247/138
f 118/257/60 116/256/59 115/247/138 117/246/137
f 120/258/66 118/257/60 117/246/137 119/245/136
f 111/254/144 120/258/66 119/245/136 112/244/135
f 122/259/44 123/260/76 124/206/93 121/205/92
f 126/261/45 122/259/44 121/205/92 125/210/97
f 128/262/106 126/261/45 125/210/97 127/209/96
f 130/263/107 128/262/106 127/209/96 129/208/95
f 132/264/103 130/263/107 129/208/95 131/207/94
f 123/260/76 132/264/103 131/207/94 124/206/93
f 134/265/47 135/266/114 136/234/125 133/233/124
f 138/267/48 134/265/47 133/233/124 137/238/129
f 140/268/74 138/267/48 137/238/129 139/237/128
f 142/269/142 140/268/74 139/237/128 141/236/127
f 144/270/133 142/269/142 141/236/127 143/235/126
f 135/266/114 144/270/133 143/235/126 136/234/125
f 146/271/50 147/272/64 148/194/81 145/193/80
f 150/273/51 146/271/50 145/193/80 149/198/85
f 152/274/100 150/273/51 149/198/85 151/197/84
f 154/275/101 152/274/100 151/197/84 153/196/83
f 156/276/91 154/275/101 153/196/83 155/195/82
f 147/272/64 156/276/91 155/195/82 148/194/81
f 158/277/53 159/278/110 160/226/116 157/225/115
f 162/279/54 158/277/53 157/225/115 161/230/120
f 164/280/62 162/279/54 161/230/120 163/229/119
f 166/281/131 164/280/62 163/229/119 165/228/118
f 168/282/123 166/281/131 165/228/118 167/227/117
f 159/278/110 168/282/123 167/227/117 160/226/116
f 170/283/56 171/284/79 172/180/68 169/179/67
f 174/285/57 170/283/56 169/179/67 173/184/72
f 176/286/88 174/285/57 173/184/72 175/183/71
f 178/287/89 176/286/88 175/183/71 177/182/70
f 180/288/78 178/287/89 177/182/70 179/181/69
f 171/284/79 180/288/78 179/181/69 172/180/68
f 73/146/147 74/251/147 111/252/144 110/147/41
