# Blender v3.4.1 OBJ File: 'Medieval_Hexagons_Export_1.0_WorldOrigin.blend'
# www.blender.org
mtllib rock_single_E.mtl
o rock_single_E
v -0.170311 0.082181 0.112854
v -0.070810 0.082181 0.129011
v 0.014612 0.082181 0.049895
v -0.229504 0.082181 0.040340
v -0.206899 0.082181 -0.073876
v -0.062732 0.082181 0.082873
v -0.190932 0.082181 0.012552
v -0.154322 0.082181 0.065624
v -0.106744 -0.000094 0.005926
v -0.072001 0.194687 0.036779
v -0.019189 0.194687 0.029022
v -0.114847 0.194687 -0.108610
v -0.004188 0.194687 -0.046779
v -0.171538 0.194687 -0.056104
v -0.149467 0.194687 -0.004746
v 0.070648 0.000000 -0.003429
v 0.162450 0.069301 0.084085
v 0.015786 0.069301 0.110923
v -0.055060 0.069301 -0.020270
v 0.047819 0.069301 -0.128189
v 0.182247 0.069301 -0.063694
v 0.164849 0.049691 0.065297
v 0.150465 0.094403 0.056363
v 0.105704 0.049691 0.089378
v 0.109757 0.094403 0.072937
v 0.064526 0.049691 0.040569
v 0.081414 0.094403 0.039342
v 0.098221 0.049691 -0.013677
v 0.104606 0.094403 0.002006
v 0.160224 0.049691 0.001606
v 0.147282 0.094403 0.012525
v -0.127789 -0.000094 -0.184807
v 0.067620 -0.000094 -0.075621
v -0.062616 -0.000094 0.154321
v 0.041129 -0.000094 0.058234
v -0.255352 -0.000094 0.046629
v -0.227899 -0.000094 -0.092088
v -0.186049 -0.000094 0.141020
v 0.204026 0.000000 0.123719
v -0.009061 0.000000 0.162712
v -0.111992 0.000000 -0.027897
v 0.037479 0.000000 -0.184692
v 0.232790 0.000000 -0.090988
vt 0.289304 0.421978
vt 0.286546 0.317968
vt 0.295249 0.361901
vt 0.294345 0.421978
vt 0.295447 0.317968
vt 0.290134 0.408776
vt 0.295298 0.408776
vt 0.297729 0.408776
vt 0.298316 0.408776
vt 0.295249 0.408776
vt 0.301394 0.408776
vt 0.298916 0.408776
vt 0.301775 0.408776
vt 0.290134 0.361901
vt 0.289235 0.317968
vt 0.282033 0.317968
vt 0.298316 0.361901
vt 0.295565 0.421978
vt 0.298916 0.361901
vt 0.295298 0.361901
vt 0.293698 0.421978
vt 0.290826 0.421978
vt 0.286748 0.421978
vt 0.301394 0.361901
vt 0.302910 0.317968
vt 0.301775 0.361901
vt 0.303777 0.317968
vt 0.297729 0.361901
vt 0.298459 0.317968
vt 0.294345 0.468853
vt 0.295565 0.468853
vt 0.293698 0.468853
vt 0.290826 0.468853
vt 0.289304 0.468853
vt 0.286748 0.468853
vt 0.289229 0.318018
vt 0.289229 0.355024
vt 0.295924 0.355024
vt 0.298956 0.318018
vt 0.293367 0.355024
vt 0.295241 0.318018
vt 0.285092 0.355024
vt 0.283218 0.318018
vt 0.295924 0.401899
vt 0.289229 0.401899
vt 0.282534 0.401899
vt 0.285092 0.401899
vt 0.293367 0.401899
vt 0.282534 0.355024
vt 0.279502 0.318018
vt 0.289229 0.318018
vt 0.289229 0.355024
vt 0.295924 0.355024
vt 0.298956 0.318018
vt 0.293367 0.355024
vt 0.295241 0.318018
vt 0.285092 0.355024
vt 0.283218 0.318018
vt 0.295924 0.401899
vt 0.289229 0.401899
vt 0.282534 0.401899
vt 0.285092 0.401899
vt 0.293367 0.401899
vt 0.282534 0.355024
vt 0.279502 0.318018
vt 0.287157 0.317999
vt 0.289508 0.317999
vt 0.302116 0.317999
vt 0.298076 0.317999
vt 0.283022 0.317999
vt 0.302899 0.317999
vt 0.295173 0.317999
vt 0.289229 0.317999
vt 0.298150 0.317999
vt 0.294743 0.317999
vt 0.283716 0.317999
vt 0.280308 0.317999
vn -0.6464 0.3142 -0.6953
vn -0.6455 0.3160 -0.6954
vn -0.7846 0.3162 -0.5333
vn -0.8231 0.3147 -0.4727
vn 0.0000 1.0000 -0.0000
vn 0.8654 0.3166 0.3885
vn 0.8340 0.3147 0.4532
vn 0.9304 0.3165 0.1850
vn -0.9158 0.3121 0.2528
vn -0.8521 0.3424 0.3960
vn -0.7393 0.4179 0.5280
vn -0.4955 0.4151 0.7630
vn 0.0619 0.3509 0.9344
vn -0.0475 0.4120 0.9099
vn 0.2827 0.3229 0.9032
vn 0.9307 0.3151 0.1857
vn -0.9413 0.2815 -0.1863
vn -0.4717 0.3345 0.8158
vn -0.7529 0.3117 0.5796
vn -0.4697 0.3345 0.8170
vn -0.1245 0.3118 0.9420
vn 0.6520 0.2815 0.7040
vn 0.4660 0.2953 -0.8340
vn 0.1495 0.5569 0.8170
vn -0.7308 0.5569 0.3946
vn -0.6012 0.5569 -0.5731
vn 0.3593 0.5569 -0.7488
vn 0.8232 0.5569 0.1103
vn 0.3605 0.2929 0.8855
vn -0.7308 0.2929 0.6165
vn -0.8122 0.2929 -0.5045
vn 0.2288 0.2929 -0.9283
vn 0.9536 0.2929 -0.0692
vn 0.0000 -1.0000 0.0000
usemtl hexagons_medieval
s 1
f 12/1/1 32/2/2 5/3/3 14/4/1
f 32/2/2 37/5/4 5/3/3
f 3/6/5 6/7/5 2/8/5
f 7/9/5 5/10/5 4/11/5
f 6/7/5 8/12/5 1/13/5 2/8/5
f 3/14/6 35/15/7 33/16/8
f 8/12/5 7/9/5 4/11/5 1/13/5
f 5/3/9 7/17/10 15/18/11 14/4/9
f 8/19/12 6/20/13 10/21/14
f 6/20/13 3/14/15 11/22/15 10/21/14
f 11/22/16 3/14/6 33/16/8 13/23/16
f 4/24/17 5/3/3 37/5/4 36/25/17
f 1/26/18 4/24/19 36/25/19 38/27/20
f 2/28/21 1/26/18 38/27/20 34/29/21
f 3/14/6 2/28/22 34/29/22 35/15/7
f 14/30/5 15/31/5 10/32/5 11/33/5
f 12/34/5 14/30/5 11/33/5 13/35/5
f 7/17/10 8/19/12 15/18/11
f 8/19/12 10/21/14 15/18/11
f 13/23/23 33/16/23 32/2/23 12/1/23
f 39/36/24 17/37/24 18/38/24 40/39/24
f 40/39/25 18/38/25 19/40/25 41/41/25
f 41/41/26 19/40/26 20/42/26 42/43/26
f 18/44/5 17/45/5 21/46/5 20/47/5 19/48/5
f 42/43/27 20/42/27 21/49/27 43/50/27
f 43/50/28 21/49/28 17/37/28 39/36/28
f 22/51/29 23/52/29 25/53/29 24/54/29
f 24/54/30 25/53/30 27/55/30 26/56/30
f 26/56/31 27/55/31 29/57/31 28/58/31
f 25/59/5 23/60/5 31/61/5 29/62/5 27/63/5
f 28/58/32 29/57/32 31/64/32 30/65/32
f 30/65/33 31/64/33 23/52/33 22/51/33
f 9/66/34 32/2/34 33/16/34
f 9/67/34 35/15/34 34/29/34
f 9/68/34 36/25/34 37/5/34
f 9/69/34 34/29/34 38/27/34
f 9/70/34 33/16/34 35/15/34
f 9/71/34 38/27/34 36/25/34
f 9/72/34 37/5/34 32/2/34
f 16/73/34 39/36/34 40/39/34
f 16/74/34 40/39/34 41/41/34
f 16/75/34 41/41/34 42/43/34
f 16/76/34 42/43/34 43/50/34
f 16/77/34 43/50/34 39/36/34
