# Blender v3.4.1 OBJ File: 'Medieval_Hexagons_Export_1.0_WorldOrigin.blend'
# www.blender.org
mtllib rock_single_D.mtl
o rock_single_D
v -0.000329 -0.000000 0.001235
v 0.039398 0.162931 -0.063217
v -0.034144 0.162931 -0.073055
v -0.080352 0.112708 0.007078
v -0.056026 0.112708 0.068127
v 0.048163 0.162931 0.068127
v 0.081671 0.162931 -0.003416
v 0.144639 0.000000 -0.006510
v 0.085364 0.000000 0.120049
v -0.098945 0.000000 0.120049
v -0.141977 0.000000 0.012054
v 0.069860 -0.000000 -0.112297
v -0.060237 0.000000 -0.129701
vt 0.325921 0.451896
vt 0.328107 0.451896
vt 0.325350 0.451896
vt 0.320552 0.451896
vt 0.328348 0.318018
vt 0.332215 0.318018
vt 0.328107 0.405021
vt 0.325921 0.405021
vt 0.313518 0.318018
vt 0.316325 0.318018
vt 0.319125 0.378203
vt 0.317538 0.378203
vt 0.318850 0.318018
vt 0.320552 0.405021
vt 0.327337 0.318018
vt 0.325350 0.405021
vt 0.319125 0.425078
vt 0.317538 0.425078
vt 0.330768 0.317999
vt 0.327549 0.317999
vt 0.317177 0.317999
vt 0.319518 0.317999
vt 0.326627 0.317999
vt 0.314910 0.317999
vn -0.2479 0.9599 0.1307
vn 0.0000 1.0000 0.0000
vn -0.2567 0.9570 0.1353
vn 0.8569 0.3235 0.4013
vn -0.8979 0.4395 -0.0241
vn -0.8228 0.4643 0.3278
vn -0.6570 0.6948 0.2926
vn -0.7815 0.6234 0.0243
vn -0.0615 0.3530 0.9336
vn -0.8447 0.3455 -0.4089
vn 0.7762 0.3104 -0.5487
vn 0.4887 0.3341 -0.8059
vn 0.4871 0.3341 -0.8069
vn 0.1262 0.3077 -0.9431
vn -0.0000 -1.0000 0.0000
usemtl hexagons_medieval
s 1
f 6/1/1 7/2/2 2/3/2 3/4/3
f 9/5/4 8/6/4 7/7/4 6/8/4
f 11/9/5 10/10/6 5/11/7 4/12/8
f 10/10/9 9/5/9 6/8/9 5/11/9
f 13/13/10 11/9/5 4/12/8 3/14/10
f 8/6/11 12/15/12 2/16/13 7/7/11
f 12/15/12 13/13/14 3/14/14 2/16/13
f 5/17/7 6/1/1 3/4/3 4/18/8
f 1/19/15 8/6/15 9/5/15
f 1/20/15 9/5/15 10/10/15
f 1/21/15 10/10/15 11/9/15
f 1/22/15 13/13/15 12/15/15
f 1/23/15 12/15/15 8/6/15
f 1/24/15 11/9/15 13/13/15
