# Blender v3.4.1 OBJ File: 'Medieval_Hexagons_Export_1.0_WorldOrigin.blend'
# www.blender.org
mtllib rock_single_C.mtl
o rock_single_C
v 0.088937 0.082181 0.098843
v 0.132047 0.082181 0.007721
v 0.079715 0.082181 -0.096286
v 0.002854 0.082181 0.135611
v -0.100617 0.082181 0.082227
v 0.089957 0.082181 -0.012831
v -0.013150 0.082181 0.090847
v 0.047991 0.082181 0.070386
v 0.003426 -0.000094 0.007692
v 0.043100 0.194687 -0.016705
v 0.050289 0.194687 -0.069597
v -0.108469 0.194687 -0.015847
v -0.018382 0.194687 -0.105025
v -0.073738 0.194687 0.053179
v -0.018274 0.194687 0.046212
v -0.185267 -0.000094 -0.024537
v -0.026185 -0.000094 -0.182015
v 0.158636 -0.000094 0.006866
v 0.095078 -0.000094 -0.119452
v 0.001731 -0.000094 0.162189
v -0.123937 -0.000094 0.097354
v 0.111636 -0.000094 0.121772
vt 0.289304 0.421978
vt 0.286546 0.317968
vt 0.295249 0.361901
vt 0.294345 0.421978
vt 0.295447 0.317968
vt 0.290134 0.408776
vt 0.295298 0.408776
vt 0.297729 0.408776
vt 0.298316 0.408776
vt 0.295249 0.408776
vt 0.301394 0.408776
vt 0.298916 0.408776
vt 0.301775 0.408776
vt 0.290134 0.361901
vt 0.289235 0.317968
vt 0.282033 0.317968
vt 0.298316 0.361901
vt 0.295565 0.421978
vt 0.298916 0.361901
vt 0.295298 0.361901
vt 0.293698 0.421978
vt 0.290826 0.421978
vt 0.286748 0.421978
vt 0.301394 0.361901
vt 0.302910 0.317968
vt 0.301775 0.361901
vt 0.303777 0.317968
vt 0.297729 0.361901
vt 0.298459 0.317968
vt 0.294345 0.468853
vt 0.295565 0.468853
vt 0.293698 0.468853
vt 0.290826 0.468853
vt 0.289304 0.468853
vt 0.286748 0.468853
vt 0.287502 0.317999
vt 0.289663 0.317999
vt 0.301667 0.317999
vt 0.297859 0.317999
vt 0.283581 0.317999
vt 0.302402 0.317999
vt 0.295019 0.317999
vn -0.8472 0.3142 0.4283
vn -0.8471 0.3160 0.4274
vn -0.7299 0.3162 0.6060
vn -0.6824 0.3147 0.6598
vn 0.0000 1.0000 0.0000
vn 0.6132 0.3166 -0.7237
vn 0.6667 0.3147 -0.6756
vn 0.4357 0.3165 -0.8426
vn -0.0110 0.3121 0.9500
vn 0.1442 0.3424 0.9284
vn 0.3023 0.4179 0.8567
vn 0.5957 0.4151 0.6877
vn 0.9149 0.3509 0.1996
vn 0.8611 0.4120 0.2979
vn 0.9462 0.3229 -0.0212
vn 0.4364 0.3151 -0.8428
vn -0.4400 0.2815 0.8528
vn 0.6531 0.3345 0.6794
vn 0.3482 0.3117 0.8841
vn 0.6547 0.3345 0.6778
vn 0.8705 0.3118 0.3807
vn 0.8572 0.2815 -0.4313
vn -0.6721 0.2953 -0.6790
vn 0.0000 -1.0000 0.0000
usemtl hexagons_medieval
s 1
f 12/1/1 16/2/2 5/3/3 14/4/1
f 16/2/2 21/5/4 5/3/3
f 3/6/5 6/7/5 2/8/5
f 7/9/5 5/10/5 4/11/5
f 6/7/5 8/12/5 1/13/5 2/8/5
f 3/14/6 19/15/7 17/16/8
f 8/12/5 7/9/5 4/11/5 1/13/5
f 5/3/9 7/17/10 15/18/11 14/4/9
f 8/19/12 6/20/13 10/21/14
f 6/20/13 3/14/15 11/22/15 10/21/14
f 11/22/16 3/14/6 17/16/8 13/23/16
f 4/24/17 5/3/3 21/5/4 20/25/17
f 1/26/18 4/24/19 20/25/19 22/27/20
f 2/28/21 1/26/18 22/27/20 18/29/21
f 3/14/6 2/28/22 18/29/22 19/15/7
f 14/30/5 15/31/5 10/32/5 11/33/5
f 12/34/5 14/30/5 11/33/5 13/35/5
f 7/17/10 8/19/12 15/18/11
f 8/19/12 10/21/14 15/18/11
f 13/23/23 17/16/23 16/2/23 12/1/23
f 9/36/24 16/2/24 17/16/24
f 9/37/24 19/15/24 18/29/24
f 9/38/24 20/25/24 21/5/24
f 9/39/24 18/29/24 22/27/24
f 9/40/24 17/16/24 19/15/24
f 9/41/24 22/27/24 20/25/24
f 9/42/24 21/5/24 16/2/24
