# Blender v3.4.1 OBJ File: 'Medieval_Hexagons_Export_1.0_WorldOrigin.blend'
# www.blender.org
mtllib rock_single_B.mtl
o rock_single_B
v -0.000370 -0.000000 0.003162
v -0.098781 0.056831 0.008104
v -0.068570 0.056831 0.083925
v 0.060829 0.056831 0.083925
v -0.030950 0.134585 -0.077486
v -0.077636 0.134585 0.003477
v 0.086065 0.134585 -0.007125
v 0.043355 0.134585 -0.067546
v 0.052210 0.134585 0.065159
v 0.144639 0.000000 -0.004812
v 0.085364 0.000000 0.121747
v -0.098945 0.000000 0.121747
v -0.141977 0.000000 0.013751
v 0.069860 -0.000000 -0.110600
v -0.060237 0.000000 -0.128003
vt 0.268458 0.318018
vt 0.270368 0.389885
vt 0.275216 0.389885
vt 0.276945 0.318018
vt 0.263126 0.318018
vt 0.265933 0.318018
vt 0.267914 0.348366
vt 0.265943 0.348366
vt 0.277956 0.318018
vt 0.276356 0.348366
vt 0.278002 0.389885
vt 0.281823 0.318018
vt 0.275793 0.389885
vt 0.267914 0.395241
vt 0.276356 0.395241
vt 0.265943 0.395241
vt 0.278002 0.436760
vt 0.275216 0.436760
vt 0.270368 0.436760
vt 0.275793 0.436760
vt 0.267323 0.436760
vt 0.267323 0.389885
vt 0.279847 0.317999
vt 0.276866 0.317999
vt 0.267096 0.317999
vt 0.269369 0.317999
vt 0.275976 0.317999
vt 0.265026 0.317999
vn 0.1254 0.3246 -0.9375
vn 0.4841 0.3517 -0.8013
vn 0.4852 0.3517 -0.8006
vn -0.8373 0.5463 -0.0234
vn -0.7457 0.5963 0.2971
vn -0.8604 0.4738 -0.1878
vn -0.0000 0.5540 0.8325
vn 0.7718 0.3265 -0.5456
vn 0.8288 0.3409 0.4437
vn 0.8875 0.1987 0.4157
vn 0.8058 0.3846 0.4504
vn 0.7771 0.4331 0.4566
vn 0.0000 1.0000 0.0000
vn -0.8358 0.3346 -0.4354
vn -0.8213 0.4052 -0.4017
vn -0.4230 0.1680 0.8904
vn -0.8485 0.2016 -0.4893
vn -0.0000 -1.0000 0.0000
usemtl hexagons_medieval
s 1
f 15/1/1 5/2/1 8/3/2 14/4/3
f 13/5/4 12/6/5 3/7/5 2/8/6
f 12/6/7 11/9/7 4/10/7 3/7/7
f 14/4/3 8/3/2 7/11/8 10/12/8
f 7/11/9 9/13/10 4/10/11
f 10/12/12 7/11/9 4/10/11 11/9/12
f 3/14/13 4/15/13 2/16/13
f 7/17/13 8/18/13 5/19/13
f 13/5/4 2/8/6 5/2/14 15/1/15
f 9/20/13 7/17/13 5/19/13 6/21/13
f 2/8/16 4/10/16 9/13/16 6/22/16
f 2/8/6 6/22/17 5/2/14
f 1/23/18 10/12/18 11/9/18
f 1/24/18 11/9/18 12/6/18
f 1/25/18 12/6/18 13/5/18
f 1/26/18 15/1/18 14/4/18
f 1/27/18 14/4/18 10/12/18
f 1/28/18 13/5/18 15/1/18
