# Blender v3.4.1 OBJ File: 'Medieval_Hexagons_Export_1.0_WorldOrigin.blend'
# www.blender.org
mtllib trees_B_cut.mtl
o trees_B_cut
v 0.006417 0.127227 -0.732247
v 0.055084 0.127227 -0.720744
v 0.087696 0.127227 -0.682832
v 0.091794 0.127227 -0.632991
v 0.065815 0.127227 -0.590261
v 0.019680 0.127227 -0.570961
v -0.028987 0.127227 -0.582465
v -0.061598 0.127227 -0.620377
v -0.065697 0.127227 -0.670217
v -0.039717 0.127227 -0.712948
v 0.013048 0.000000 -0.651604
v 0.663089 0.111404 -0.332692
v 0.704735 0.111404 -0.319161
v 0.730473 0.111404 -0.283735
v 0.730473 0.111404 -0.239946
v 0.704735 0.111404 -0.204521
v 0.663089 0.111404 -0.190989
v 0.621444 0.111404 -0.204521
v 0.595705 0.111404 -0.239946
v 0.595705 0.111404 -0.283735
v 0.621444 0.111404 -0.319161
v 0.663088 0.000000 -0.261841
v -0.579032 0.137537 0.239788
v -0.531989 0.143254 0.255759
v -0.502416 0.141284 0.296038
v -0.501611 0.132379 0.345241
v -0.529879 0.119941 0.384573
v -0.576425 0.108721 0.399011
v -0.623468 0.103004 0.383041
v -0.653041 0.104974 0.342761
v -0.653847 0.113878 0.293558
v -0.625578 0.126316 0.254226
v -0.555075 0.000001 0.296745
v 0.012348 0.137990 -0.096269
v 0.065620 0.133386 -0.079780
v 0.099191 0.131896 -0.035040
v 0.100239 0.134090 0.020861
v 0.068364 0.139130 0.066572
v 0.015741 0.145090 0.084632
v -0.037530 0.149695 0.068143
v -0.071101 0.151185 0.023403
v -0.072150 0.148991 -0.032498
v -0.040275 0.143951 -0.078209
v 0.000008 -0.000001 -0.000000
v -0.600152 0.111656 -0.386755
v -0.558245 0.115709 -0.374722
v -0.531340 0.117896 -0.340243
v -0.529715 0.117383 -0.296488
v -0.553990 0.114365 -0.260169
v -0.594893 0.109995 -0.245159
v -0.636800 0.105942 -0.257192
v -0.663705 0.103755 -0.291671
v -0.665330 0.104268 -0.335426
v -0.641055 0.107286 -0.371745
v -0.586313 0.000001 -0.317673
v 0.552710 0.137411 0.312569
v 0.598862 0.126650 0.328540
v 0.625966 0.114659 0.368819
v 0.623670 0.106018 0.418022
v 0.592850 0.104028 0.457354
v 0.545279 0.109448 0.471792
v 0.499127 0.120208 0.455821
v 0.472023 0.132199 0.415542
v 0.474320 0.140840 0.366339
v 0.505139 0.142831 0.327007
v 0.528055 -0.000001 0.369526
v -0.013508 0.118395 0.580166
v 0.027797 0.112217 0.593326
v 0.053147 0.105166 0.628328
v 0.052858 0.099935 0.671802
v 0.027042 0.098521 0.707143
v -0.014441 0.101465 0.720851
v -0.055746 0.107643 0.707691
v -0.081096 0.114694 0.672690
v -0.080808 0.119925 0.629215
v -0.054991 0.121339 0.593875
v -0.026176 -0.000001 0.637199
v 0.059009 0.000000 -0.727201
v 0.005797 0.000000 -0.739779
v 0.094666 0.000000 -0.685748
v 0.099147 0.000000 -0.631253
v 0.070741 0.000000 -0.584532
v 0.020298 0.000000 -0.563430
v -0.032914 0.000000 -0.576008
v -0.068570 0.000000 -0.617461
v -0.073052 0.000000 -0.671956
v -0.044646 0.000000 -0.718677
v 0.708623 0.000000 -0.324514
v 0.663088 0.000000 -0.339309
v 0.736765 0.000000 -0.285780
v 0.736765 0.000000 -0.237902
v 0.708623 0.000000 -0.199168
v 0.663088 0.000000 -0.184372
v 0.617554 0.000000 -0.199168
v 0.589412 0.000000 -0.237902
v 0.589412 0.000000 -0.285780
v 0.617554 0.000000 -0.324514
v -0.505064 0.022006 0.227161
v -0.556501 0.015755 0.209699
v -0.472730 0.019852 0.271202
v -0.471849 0.010116 0.325000
v -0.502758 -0.003484 0.368005
v -0.553650 -0.015752 0.383792
v -0.605087 -0.022003 0.366330
v -0.637421 -0.019849 0.322289
v -0.638302 -0.010113 0.268491
v -0.607393 0.003487 0.225486
v 0.056399 -0.008917 -0.080869
v -0.001847 -0.003882 -0.098898
v 0.093106 -0.010546 -0.031951
v 0.094252 -0.008147 0.029171
v 0.059400 -0.002636 0.079151
v 0.001862 0.003881 0.098897
v -0.056384 0.008916 0.080869
v -0.093090 0.010545 0.031951
v -0.094236 0.008146 -0.029172
v -0.059384 0.002635 -0.079151
v -0.543367 0.005340 -0.381926
v -0.589188 0.000908 -0.395083
v -0.513950 0.007732 -0.344227
v -0.512173 0.007171 -0.296386
v -0.538715 0.003871 -0.256675
v -0.583438 -0.000907 -0.240263
v -0.629259 -0.005338 -0.253420
v -0.658676 -0.007730 -0.291119
v -0.660453 -0.007169 -0.338960
v -0.633911 -0.003870 -0.378671
v 0.582579 0.003521 0.299942
v 0.532117 0.015286 0.282480
v 0.612214 -0.009590 0.343983
v 0.609703 -0.019038 0.397781
v 0.576005 -0.021215 0.440786
v 0.523992 -0.015288 0.456572
v 0.473530 -0.003523 0.439110
v 0.443895 0.009588 0.395069
v 0.446406 0.019036 0.341271
v 0.480104 0.021213 0.298266
v 0.019497 0.002500 0.574677
v -0.025666 0.009255 0.560288
v 0.047214 -0.005209 0.612947
v 0.046898 -0.010929 0.660481
v 0.018671 -0.012475 0.699122
v -0.026686 -0.009256 0.714111
v -0.071849 -0.002501 0.699722
v -0.099566 0.005208 0.661452
v -0.099250 0.010928 0.613917
v -0.071023 0.012474 0.575276
vt 0.784473 0.851285
vt 0.789101 0.851285
vt 0.789533 0.835393
vt 0.784472 0.835393
vt 0.776983 0.851285
vt 0.776983 0.851285
vt 0.776284 0.835393
vt 0.776284 0.835393
vt 0.789101 0.851285
vt 0.784473 0.851285
vt 0.784472 0.835393
vt 0.789533 0.835393
vt 0.791962 0.851285
vt 0.792662 0.835393
vt 0.779844 0.851285
vt 0.779411 0.835393
vt 0.779844 0.851285
vt 0.779411 0.835393
vt 0.791962 0.851285
vt 0.792662 0.835393
vt 0.784473 0.851285
vt 0.789101 0.851285
vt 0.789533 0.835393
vt 0.784472 0.835393
vt 0.776983 0.851285
vt 0.776983 0.851285
vt 0.776284 0.835393
vt 0.776284 0.835393
vt 0.789101 0.851285
vt 0.784473 0.851285
vt 0.784472 0.835393
vt 0.789533 0.835393
vt 0.791962 0.851285
vt 0.792662 0.835393
vt 0.779844 0.851285
vt 0.779411 0.835393
vt 0.779844 0.851285
vt 0.779411 0.835393
vt 0.791962 0.851285
vt 0.792662 0.835393
vt 0.784473 0.851285
vt 0.789101 0.851285
vt 0.789533 0.835393
vt 0.784472 0.835393
vt 0.776983 0.851285
vt 0.776983 0.851285
vt 0.776284 0.835393
vt 0.776284 0.835393
vt 0.789101 0.851285
vt 0.784473 0.851285
vt 0.784472 0.835393
vt 0.789533 0.835393
vt 0.791962 0.851285
vt 0.792662 0.835393
vt 0.779844 0.851285
vt 0.779411 0.835393
vt 0.779844 0.851285
vt 0.779411 0.835393
vt 0.791962 0.851285
vt 0.792662 0.835393
vt 0.784473 0.851285
vt 0.789101 0.851285
vt 0.789533 0.835393
vt 0.784472 0.835393
vt 0.776983 0.851285
vt 0.776983 0.851285
vt 0.776284 0.835393
vt 0.776284 0.835393
vt 0.789101 0.851285
vt 0.784473 0.851285
vt 0.784472 0.835393
vt 0.789533 0.835393
vt 0.791962 0.851285
vt 0.792662 0.835393
vt 0.779844 0.851285
vt 0.779411 0.835393
vt 0.779844 0.851285
vt 0.779411 0.835393
vt 0.791962 0.851285
vt 0.792662 0.835393
vt 0.784473 0.851285
vt 0.789101 0.851285
vt 0.789533 0.835393
vt 0.784472 0.835393
vt 0.776983 0.851285
vt 0.776983 0.851285
vt 0.776284 0.835393
vt 0.776284 0.835393
vt 0.789101 0.851285
vt 0.784473 0.851285
vt 0.784472 0.835393
vt 0.789533 0.835393
vt 0.791962 0.851285
vt 0.792662 0.835393
vt 0.779844 0.851285
vt 0.779411 0.835393
vt 0.779844 0.851285
vt 0.779411 0.835393
vt 0.791962 0.851285
vt 0.792662 0.835393
vt 0.784473 0.851285
vt 0.789101 0.851285
vt 0.789533 0.835393
vt 0.784472 0.835393
vt 0.776983 0.851285
vt 0.776983 0.851285
vt 0.776284 0.835393
vt 0.776284 0.835393
vt 0.789101 0.851285
vt 0.784473 0.851285
vt 0.784472 0.835393
vt 0.789533 0.835393
vt 0.791962 0.851285
vt 0.792662 0.835393
vt 0.779844 0.851285
vt 0.779411 0.835393
vt 0.779844 0.851285
vt 0.779411 0.835393
vt 0.791962 0.851285
vt 0.792662 0.835393
vt 0.784473 0.851285
vt 0.789101 0.851285
vt 0.789533 0.835393
vt 0.784472 0.835393
vt 0.664101 0.851285
vt 0.659473 0.851285
vt 0.654844 0.851285
vt 0.651983 0.851285
vt 0.651983 0.851285
vt 0.654844 0.851285
vt 0.659473 0.851285
vt 0.664101 0.851285
vt 0.666962 0.851285
vt 0.666962 0.851285
vt 0.664101 0.851285
vt 0.659473 0.851285
vt 0.654844 0.851285
vt 0.651983 0.851285
vt 0.651983 0.851285
vt 0.654844 0.851285
vt 0.659473 0.851285
vt 0.664101 0.851285
vt 0.666962 0.851285
vt 0.666962 0.851285
vt 0.664101 0.851285
vt 0.659473 0.851285
vt 0.654844 0.851285
vt 0.651983 0.851285
vt 0.651983 0.851285
vt 0.654844 0.851285
vt 0.659473 0.851285
vt 0.664101 0.851285
vt 0.666962 0.851285
vt 0.666962 0.851285
vt 0.776983 0.851285
vt 0.776983 0.851285
vt 0.776284 0.835393
vt 0.776284 0.835393
vt 0.789101 0.851285
vt 0.784473 0.851285
vt 0.784472 0.835393
vt 0.789533 0.835393
vt 0.791962 0.851285
vt 0.792662 0.835393
vt 0.779844 0.851285
vt 0.779411 0.835393
vt 0.779844 0.851285
vt 0.779411 0.835393
vt 0.791962 0.851285
vt 0.792662 0.835393
vt 0.664101 0.851285
vt 0.659473 0.851285
vt 0.654844 0.851285
vt 0.651983 0.851285
vt 0.651983 0.851285
vt 0.654844 0.851285
vt 0.659473 0.851285
vt 0.664101 0.851285
vt 0.666962 0.851285
vt 0.666962 0.851285
vt 0.664101 0.851285
vt 0.659473 0.851285
vt 0.654844 0.851285
vt 0.651983 0.851285
vt 0.651983 0.851285
vt 0.654844 0.851285
vt 0.659473 0.851285
vt 0.664101 0.851285
vt 0.666962 0.851285
vt 0.666962 0.851285
vt 0.664101 0.851285
vt 0.659473 0.851285
vt 0.654844 0.851285
vt 0.651983 0.851285
vt 0.651983 0.851285
vt 0.654844 0.851285
vt 0.659473 0.851285
vt 0.664101 0.851285
vt 0.666962 0.851285
vt 0.666962 0.851285
vt 0.664101 0.851285
vt 0.659473 0.851285
vt 0.654844 0.851285
vt 0.651983 0.851285
vt 0.651983 0.851285
vt 0.654844 0.851285
vt 0.659473 0.851285
vt 0.664101 0.851285
vt 0.666962 0.851285
vt 0.666962 0.851285
vt 0.784473 0.835393
vt 0.786677 0.835393
vt 0.788040 0.835393
vt 0.782268 0.835393
vt 0.780905 0.835393
vt 0.784473 0.835393
vt 0.786272 0.835393
vt 0.787383 0.835393
vt 0.782673 0.835393
vt 0.781562 0.835393
vt 0.784472 0.835393
vt 0.786677 0.835393
vt 0.788040 0.835393
vt 0.782268 0.835393
vt 0.780905 0.835393
vt 0.784472 0.835393
vt 0.786981 0.835393
vt 0.788531 0.835393
vt 0.781964 0.835393
vt 0.780414 0.835393
vt 0.784473 0.835393
vt 0.786272 0.835393
vt 0.787383 0.835393
vt 0.782673 0.835393
vt 0.781562 0.835393
vt 0.784472 0.835393
vt 0.786677 0.835393
vt 0.788040 0.835393
vt 0.782268 0.835393
vt 0.780905 0.835393
vt 0.784473 0.835393
vt 0.786272 0.835393
vt 0.787383 0.835393
vt 0.782673 0.835393
vt 0.781562 0.835393
vn -0.0818 0.0593 -0.9949
vn 0.5186 0.0593 -0.8530
vn -0.9209 0.0593 0.3852
vn -0.9715 0.0593 -0.2296
vn 0.6510 0.0593 0.7568
vn 0.0818 0.0593 0.9949
vn 0.9209 0.0593 -0.3852
vn -0.6510 0.0593 -0.7568
vn -0.5186 0.0593 0.8530
vn 0.9715 0.0593 0.2296
vn 0.0000 0.0593 -0.9982
vn 0.5868 0.0593 -0.8076
vn -0.9494 0.0593 0.3085
vn -0.9494 0.0593 -0.3085
vn 0.5868 0.0593 0.8076
vn 0.0000 0.0593 0.9982
vn 0.9494 0.0593 -0.3085
vn -0.5867 0.0593 -0.8076
vn -0.5868 0.0593 -0.8076
vn -0.5868 0.0593 0.8076
vn 0.9494 0.0593 0.3085
vn -0.0266 0.2351 -0.9716
vn 0.5537 0.3057 -0.7746
vn -0.9397 -0.1666 0.2988
vn -0.9496 -0.0567 -0.3082
vn 0.5798 0.0181 0.8146
vn 0.0055 -0.1204 0.9927
vn 0.5798 0.0180 0.8146
vn 0.9186 0.2813 -0.2776
vn 0.9186 0.2813 -0.2777
vn -0.6009 0.0967 -0.7935
vn -0.5748 -0.1909 0.7957
vn 0.9285 0.1715 0.3294
vn -0.0129 0.0198 -0.9997
vn 0.5745 -0.0310 -0.8179
vn -0.9330 0.1653 0.3198
vn -0.9445 0.1411 -0.2966
vn 0.6048 0.0324 0.7957
vn 0.0245 0.0981 0.9949
vn 0.9447 -0.0474 -0.3246
vn -0.5931 0.0855 -0.8006
vn -0.5628 0.1489 0.8131
vn 0.9562 -0.0232 0.2917
vn -0.0430 0.0707 -0.9966
vn 0.5474 0.1278 -0.8270
vn -0.9384 -0.0406 0.3431
vn -0.9613 -0.0334 -0.2734
vn 0.6074 0.1089 0.7869
vn 0.0311 0.0473 0.9984
vn 0.9265 0.1586 -0.3413
vn -0.6193 0.0091 -0.7851
vn -0.5594 -0.0098 0.8289
vn 0.9494 0.1514 0.2752
vn 0.0556 0.2300 -0.9716
vn 0.6250 0.0973 -0.7746
vn -0.9398 0.1657 0.2988
vn -0.9115 0.2723 -0.3082
vn 0.5508 -0.1818 0.8146
vn -0.0361 -0.1150 0.9927
vn 0.9593 -0.0507 -0.2776
vn 0.9593 -0.0507 -0.2777
vn -0.5313 0.2969 -0.7935
vn -0.6054 0.0178 0.7957
vn -0.6055 0.0178 0.7957
vn 0.9310 -0.1573 0.3294
vn 0.0131 0.1778 -0.9840
vn 0.5950 0.0907 -0.7986
vn 0.1095 0.9868 0.1195
vn 0.1646 0.9702 0.1781
vn -0.1006 0.9948 0.0154
vn -0.9392 0.1256 0.3196
vn -0.9351 0.1993 -0.2929
vn 0.5844 -0.1022 0.8050
vn -0.0001 -0.0608 0.9982
vn 0.9522 -0.0086 -0.3054
vn -0.5714 0.2193 -0.7908
vn -0.5820 0.0263 0.8127
vn 0.9481 -0.0823 0.3071
vn 0.0986 0.9943 -0.0409
vn -0.1781 0.9678 0.1781
vn 0.0000 1.0000 0.0000
vn 0.0000 -1.0000 -0.0000
vn 0.1781 -0.9678 -0.1781
vn -0.0986 -0.9943 0.0409
vn 0.1006 -0.9948 -0.0154
vn -0.1646 -0.9702 -0.1781
vn -0.1095 -0.9868 -0.1195
usemtl hexagons_medieval
s 1
f 1/1/1 2/2/2 78/3/2 79/4/1
f 8/5/3 9/6/4 86/7/4 85/8/3
f 5/9/5 6/10/6 83/11/6 82/12/5
f 2/2/2 3/13/7 80/14/7 78/3/2
f 9/6/4 10/15/8 87/16/8 86/7/4
f 6/10/6 7/17/9 84/18/9 83/11/6
f 3/13/7 4/19/10 81/20/10 80/14/7
f 10/15/8 1/1/1 79/4/1 87/16/8
f 7/17/9 8/5/3 85/8/3 84/18/9
f 4/19/10 5/9/5 82/12/5 81/20/10
f 12/21/11 13/22/12 88/23/12 89/24/11
f 19/25/13 20/26/14 96/27/14 95/28/13
f 16/29/15 17/30/16 93/31/16 92/32/15
f 13/22/12 14/33/17 90/34/17 88/23/12
f 20/26/14 21/35/18 97/36/19 96/27/14
f 17/30/16 18/37/20 94/38/20 93/31/16
f 14/33/17 15/39/21 91/40/21 90/34/17
f 21/35/18 12/21/11 89/24/11 97/36/19
f 18/37/20 19/25/13 95/28/13 94/38/20
f 15/39/21 16/29/15 92/32/15 91/40/21
f 23/41/22 24/42/23 98/43/23 99/44/22
f 30/45/24 31/46/25 106/47/25 105/48/24
f 27/49/26 28/50/27 103/51/27 102/52/28
f 24/42/23 25/53/29 100/54/30 98/43/23
f 31/46/25 32/55/31 107/56/31 106/47/25
f 28/50/27 29/57/32 104/58/32 103/51/27
f 25/53/29 26/59/33 101/60/33 100/54/30
f 32/55/31 23/41/22 99/44/22 107/56/31
f 29/57/32 30/45/24 105/48/24 104/58/32
f 26/59/33 27/49/26 102/52/28 101/60/33
f 34/61/34 35/62/35 108/63/35 109/64/34
f 41/65/36 42/66/37 116/67/37 115/68/36
f 38/69/38 39/70/39 113/71/39 112/72/38
f 35/62/35 36/73/40 110/74/40 108/63/35
f 42/66/37 43/75/41 117/76/41 116/67/37
f 39/70/39 40/77/42 114/78/42 113/71/39
f 36/73/40 37/79/43 111/80/43 110/74/40
f 43/75/41 34/61/34 109/64/34 117/76/41
f 40/77/42 41/65/36 115/68/36 114/78/42
f 37/79/43 38/69/38 112/72/38 111/80/43
f 45/81/44 46/82/45 118/83/45 119/84/44
f 52/85/46 53/86/47 126/87/47 125/88/46
f 49/89/48 50/90/49 123/91/49 122/92/48
f 46/82/45 47/93/50 120/94/50 118/83/45
f 53/86/47 54/95/51 127/96/51 126/87/47
f 50/90/49 51/97/52 124/98/52 123/91/49
f 47/93/50 48/99/53 121/100/53 120/94/50
f 54/95/51 45/81/44 119/84/44 127/96/51
f 51/97/52 52/85/46 125/88/46 124/98/52
f 48/99/53 49/89/48 122/92/48 121/100/53
f 56/101/54 57/102/55 128/103/55 129/104/54
f 63/105/56 64/106/57 136/107/57 135/108/56
f 60/109/58 61/110/59 133/111/59 132/112/58
f 57/102/55 58/113/60 130/114/61 128/103/55
f 64/106/57 65/115/62 137/116/62 136/107/57
f 61/110/59 62/117/63 134/118/64 133/111/59
f 58/113/60 59/119/65 131/120/65 130/114/61
f 65/115/62 56/101/54 129/104/54 137/116/62
f 62/117/63 63/105/56 135/108/56 134/118/64
f 59/119/65 60/109/58 132/112/58 131/120/65
f 67/121/66 68/122/67 138/123/67 139/124/66
f 68/125/68 67/126/68 76/127/68 75/128/68 74/129/68 73/130/68 72/131/68 71/132/68 70/133/68 69/134/68
f 57/135/69 56/136/69 65/137/69 64/138/69 63/139/69 62/140/69 61/141/69 60/142/69 59/143/69 58/144/69
f 46/145/70 45/146/70 54/147/70 53/148/70 52/149/70 51/150/70 50/151/70 49/152/70 48/153/70 47/154/70
f 74/155/71 75/156/72 146/157/72 145/158/71
f 71/159/73 72/160/74 143/161/74 142/162/73
f 68/122/67 69/163/75 140/164/75 138/123/67
f 75/156/72 76/165/76 147/166/76 146/157/72
f 72/160/74 73/167/77 144/168/77 143/161/74
f 69/163/75 70/169/78 141/170/78 140/164/75
f 76/165/76 67/121/66 139/124/66 147/166/76
f 73/167/77 74/155/71 145/158/71 144/168/77
f 70/169/78 71/159/73 142/162/73 141/170/78
f 35/171/79 34/172/79 43/173/79 42/174/79 41/175/79 40/176/79 39/177/79 38/178/79 37/179/79 36/180/79
f 24/181/80 23/182/80 32/183/80 31/184/80 30/185/80 29/186/80 28/187/80 27/188/80 26/189/80 25/190/80
f 13/191/81 12/192/81 21/193/81 20/194/81 19/195/81 18/196/81 17/197/81 16/198/81 15/199/81 14/200/81
f 2/201/81 1/202/81 10/203/81 9/204/81 8/205/81 7/206/81 6/207/81 5/208/81 4/209/81 3/210/81
f 11/211/82 79/4/82 78/3/82
f 11/212/82 78/3/82 80/14/82
f 11/213/82 80/14/82 81/20/82
f 11/213/82 81/20/82 82/12/82
f 11/212/82 82/12/82 83/11/82
f 11/211/82 83/11/82 84/18/82
f 11/214/82 84/18/82 85/8/82
f 11/215/82 85/8/82 86/7/82
f 11/215/82 86/7/82 87/16/82
f 11/214/82 87/16/82 79/4/82
f 22/216/82 89/24/82 88/23/82
f 22/217/82 88/23/82 90/34/82
f 22/218/82 90/34/82 91/40/82
f 22/218/82 91/40/82 92/32/82
f 22/217/82 92/32/82 93/31/82
f 22/216/82 93/31/82 94/38/82
f 22/219/82 94/38/82 95/28/82
f 22/220/82 95/28/82 96/27/82
f 22/220/82 96/27/82 97/36/82
f 22/219/82 97/36/82 89/24/82
f 33/221/83 99/44/83 98/43/83
f 33/222/83 98/43/83 100/54/83
f 33/223/83 100/54/83 101/60/83
f 33/223/83 101/60/83 102/52/83
f 33/222/83 102/52/83 103/51/83
f 33/221/83 103/51/83 104/58/83
f 33/224/83 104/58/83 105/48/83
f 33/225/83 105/48/83 106/47/83
f 33/225/83 106/47/83 107/56/83
f 33/224/83 107/56/83 99/44/83
f 44/226/84 109/64/84 108/63/84
f 44/227/84 108/63/84 110/74/84
f 44/228/84 110/74/84 111/80/84
f 44/228/84 111/80/84 112/72/84
f 44/227/84 112/72/84 113/71/84
f 44/226/84 113/71/84 114/78/84
f 44/229/84 114/78/84 115/68/84
f 44/230/84 115/68/84 116/67/84
f 44/230/84 116/67/84 117/76/84
f 44/229/84 117/76/84 109/64/84
f 55/231/85 119/84/85 118/83/85
f 55/232/85 118/83/85 120/94/85
f 55/233/85 120/94/85 121/100/85
f 55/233/85 121/100/85 122/92/85
f 55/232/85 122/92/85 123/91/85
f 55/231/85 123/91/85 124/98/85
f 55/234/85 124/98/85 125/88/85
f 55/235/85 125/88/85 126/87/85
f 55/235/85 126/87/85 127/96/85
f 55/234/85 127/96/85 119/84/85
f 66/236/86 129/104/86 128/103/86
f 66/237/86 128/103/86 130/114/86
f 66/238/86 130/114/86 131/120/86
f 66/238/86 131/120/86 132/112/86
f 66/237/86 132/112/86 133/111/86
f 66/236/86 133/111/86 134/118/86
f 66/239/86 134/118/86 135/108/86
f 66/240/86 135/108/86 136/107/86
f 66/240/86 136/107/86 137/116/86
f 66/239/86 137/116/86 129/104/86
f 77/241/87 139/124/87 138/123/87
f 77/242/87 138/123/87 140/164/87
f 77/243/87 140/164/87 141/170/87
f 77/243/87 141/170/87 142/162/87
f 77/242/87 142/162/87 143/161/87
f 77/241/87 143/161/87 144/168/87
f 77/244/87 144/168/87 145/158/87
f 77/245/87 145/158/87 146/157/87
f 77/245/87 146/157/87 147/166/87
f 77/244/87 147/166/87 139/124/87
