# Blender v3.4.1 OBJ File: 'Medieval_Hexagons_Export_1.0_WorldOrigin.blend'
# www.blender.org
mtllib trees_A_cut.mtl
o trees_A_cut
v 0.700742 0.153365 -0.416313
v 0.750939 0.147428 -0.410543
v 0.761116 0.147202 -0.360696
v 0.717209 0.153001 -0.335660
v 0.679895 0.156810 -0.370033
v 0.674660 -0.013255 -0.427106
v 0.743301 -0.013255 -0.419216
v 0.757218 -0.013255 -0.351054
v 0.697178 -0.013255 -0.316818
v 0.646155 -0.013255 -0.363821
v 0.772906 0.152690 -0.017209
v 0.804252 0.152690 0.022863
v 0.775827 0.152690 0.065057
v 0.726914 0.152690 0.051063
v 0.725109 0.152690 0.000220
v 0.777280 -0.013255 -0.032497
v 0.820143 -0.013255 0.022298
v 0.781275 -0.013255 0.079996
v 0.714390 -0.013255 0.060860
v 0.711921 -0.013255 -0.008664
v 0.768742 0.174807 0.377389
v 0.820407 0.169883 0.403465
v 0.811628 0.170100 0.460879
v 0.754536 0.175158 0.470287
v 0.728031 0.178067 0.418687
v 0.750162 -0.013255 0.357735
v 0.820810 -0.013255 0.393392
v 0.808805 -0.013255 0.471901
v 0.730737 -0.013255 0.484766
v 0.694494 -0.013255 0.414207
v 0.356148 0.152434 -0.016773
v 0.401289 0.157184 0.006208
v 0.393818 0.153680 0.056410
v 0.344061 0.146764 0.064455
v 0.320780 0.145994 0.019226
v 0.373336 -0.013255 -0.040064
v 0.435062 -0.013255 -0.008639
v 0.424846 -0.013255 0.060008
v 0.356807 -0.013255 0.071009
v 0.324972 -0.013255 0.009162
v -0.126757 0.149825 -0.477079
v -0.081393 0.153238 -0.454302
v -0.089145 0.155366 -0.404065
v -0.139300 0.153268 -0.395794
v -0.162546 0.149844 -0.440919
v -0.121675 -0.013255 -0.485120
v -0.059643 -0.013255 -0.453974
v -0.070243 -0.013255 -0.385280
v -0.138826 -0.013255 -0.373970
v -0.170613 -0.013255 -0.435674
v 0.013707 0.152690 -0.836616
v 0.059156 0.152690 -0.813754
v 0.051458 0.152690 -0.763464
v 0.001250 0.152690 -0.755246
v -0.022081 0.152690 -0.800456
v 0.011138 -0.013255 -0.852308
v 0.073287 -0.013255 -0.821046
v 0.062759 -0.013255 -0.752279
v -0.005895 -0.013255 -0.741041
v -0.037799 -0.013255 -0.802862
v -0.470483 0.191700 -0.293786
v -0.414533 0.191700 -0.262974
v -0.426547 0.191700 -0.200241
v -0.489923 0.191700 -0.192282
v -0.517077 0.191700 -0.250096
v -0.472971 -0.013255 -0.313594
v -0.396463 -0.013255 -0.271461
v -0.412892 -0.013255 -0.185678
v -0.499553 -0.013255 -0.174795
v -0.536684 -0.013255 -0.253851
v -0.360772 0.154741 0.152323
v -0.324937 0.155446 0.188429
v -0.348042 0.151561 0.233589
v -0.398157 0.148456 0.225392
v -0.406024 0.150421 0.175167
v -0.347593 -0.013255 0.129024
v -0.298591 -0.013255 0.178397
v -0.330186 -0.013255 0.240149
v -0.398714 -0.013255 0.228941
v -0.409472 -0.013255 0.160262
v -0.421886 0.152690 0.548410
v -0.386027 0.152690 0.584499
v -0.409268 0.152690 0.629756
v -0.459491 0.152690 0.621637
v -0.467290 0.152690 0.571363
v -0.419349 -0.013255 0.532713
v -0.370313 -0.013255 0.582062
v -0.402094 -0.013255 0.643947
v -0.470771 -0.013255 0.632845
v -0.481435 -0.013255 0.564099
v -0.740819 0.171992 0.196909
v -0.700514 0.176445 0.237674
v -0.726675 0.174333 0.288832
v -0.783148 0.168575 0.279685
v -0.791890 0.167128 0.222874
v -0.720729 -0.013255 0.180891
v -0.665616 -0.013255 0.236633
v -0.701389 -0.013255 0.306588
v -0.778611 -0.013255 0.294081
v -0.790564 -0.013255 0.216396
v -0.783428 0.149328 -0.436682
v -0.747569 0.151852 -0.400682
v -0.770810 0.155017 -0.355536
v -0.821034 0.154449 -0.363635
v -0.828832 0.150933 -0.413786
v -0.780891 -0.013255 -0.441662
v -0.731856 -0.013255 -0.392434
v -0.763636 -0.013255 -0.330701
v -0.832313 -0.013255 -0.341775
v -0.842977 -0.013255 -0.410353
v -0.401050 0.152690 -0.720457
v -0.365191 0.152690 -0.684368
v -0.388432 0.152690 -0.639112
v -0.438656 0.152690 -0.647230
v -0.446454 0.152690 -0.697505
v -0.398513 -0.013255 -0.736154
v -0.349478 -0.013255 -0.686806
v -0.381258 -0.013255 -0.624921
v -0.449935 -0.013255 -0.636023
v -0.460599 -0.013255 -0.704769
v 0.301297 0.152485 -0.374301
v 0.344724 0.155266 -0.347944
v 0.333166 0.153959 -0.298416
v 0.282595 0.150371 -0.294163
v 0.262899 0.149460 -0.341062
v 0.310640 -0.013255 -0.391671
v 0.370022 -0.013255 -0.355630
v 0.354217 -0.013255 -0.287904
v 0.285066 -0.013255 -0.282089
v 0.258134 -0.013255 -0.346220
v 0.420596 0.185434 -0.700846
v 0.480439 0.185434 -0.685477
v 0.484315 0.185434 -0.623813
v 0.426867 0.185434 -0.601072
v 0.387486 0.185434 -0.648681
v 0.413488 -0.013255 -0.718801
v 0.495319 -0.013255 -0.697785
v 0.500619 -0.013255 -0.613465
v 0.422063 -0.013255 -0.582368
v 0.368213 -0.013255 -0.647469
v -0.058906 0.156007 0.476661
v -0.015374 0.155721 0.502988
v -0.026794 0.149592 0.552185
v -0.077385 0.146090 0.556263
v -0.097231 0.150054 0.509586
v -0.051154 -0.013255 0.444155
v 0.008374 -0.013255 0.480156
v -0.007242 -0.013255 0.547429
v -0.076421 -0.013255 0.553005
v -0.103560 -0.013255 0.489178
v -0.024313 0.151685 -0.008826
v -0.005899 0.150289 0.038580
v -0.045249 0.151936 0.070785
v -0.087983 0.154350 0.043283
v -0.075043 0.154195 -0.005919
v -0.023352 -0.013255 -0.023729
v 0.001827 -0.013255 0.041095
v -0.051981 -0.013255 0.085133
v -0.110415 -0.013255 0.047526
v -0.092722 -0.013255 -0.019754
v 0.252197 0.155597 0.745861
v 0.299978 0.148223 0.761701
v 0.299354 0.144726 0.812452
v 0.251187 0.149939 0.827979
v 0.222042 0.156657 0.786823
v 0.227733 -0.013255 0.720110
v 0.293070 -0.013255 0.741769
v 0.292216 -0.013255 0.811168
v 0.226351 -0.013255 0.832399
v 0.186498 -0.013255 0.776122
v 0.398321 0.194809 0.376899
v 0.447948 0.186753 0.416295
v 0.425432 0.183390 0.475973
v 0.361888 0.189368 0.473460
v 0.345133 0.196425 0.412229
v 0.382061 -0.013255 0.339825
v 0.449923 -0.013255 0.393696
v 0.419133 -0.013255 0.475302
v 0.332242 -0.013255 0.471865
v 0.309331 -0.013255 0.388136
vt 0.820897 0.954137
vt 0.826359 0.961173
vt 0.826359 0.961173
vt 0.820897 0.954137
vt 0.787114 0.954137
vt 0.791351 0.961173
vt 0.791351 0.961173
vt 0.787114 0.954137
vt 0.807993 0.954137
vt 0.794918 0.961173
vt 0.794918 0.961173
vt 0.807993 0.954137
vt 0.795089 0.954137
vt 0.810782 0.961173
vt 0.810782 0.961173
vt 0.795089 0.954137
vt 0.828872 0.954137
vt 0.816554 0.961173
vt 0.816554 0.961173
vt 0.828872 0.954137
vt 0.820897 0.954137
vt 0.826359 0.961173
vt 0.826359 0.961173
vt 0.820897 0.954137
vt 0.787114 0.954137
vt 0.791351 0.961173
vt 0.791351 0.961173
vt 0.787114 0.954137
vt 0.807993 0.954137
vt 0.794918 0.961173
vt 0.794918 0.961173
vt 0.807993 0.954137
vt 0.795089 0.954137
vt 0.810782 0.961173
vt 0.810782 0.961173
vt 0.795089 0.954137
vt 0.828872 0.954137
vt 0.816554 0.961173
vt 0.816554 0.961173
vt 0.828872 0.954137
vt 0.820897 0.954137
vt 0.826359 0.961173
vt 0.826359 0.961173
vt 0.820897 0.954137
vt 0.787114 0.954137
vt 0.791351 0.961173
vt 0.791351 0.961173
vt 0.787114 0.954137
vt 0.807993 0.954137
vt 0.794918 0.961173
vt 0.794918 0.961173
vt 0.807993 0.954137
vt 0.795089 0.954137
vt 0.810782 0.961173
vt 0.810782 0.961173
vt 0.795089 0.954137
vt 0.828872 0.954137
vt 0.816554 0.961173
vt 0.816554 0.961173
vt 0.828872 0.954137
vt 0.820897 0.954137
vt 0.826359 0.961173
vt 0.826359 0.961173
vt 0.820897 0.954137
vt 0.787114 0.954137
vt 0.791351 0.961173
vt 0.791351 0.961173
vt 0.787114 0.954137
vt 0.807993 0.954137
vt 0.794918 0.961173
vt 0.794918 0.961173
vt 0.807993 0.954137
vt 0.795089 0.954137
vt 0.810782 0.961173
vt 0.810782 0.961173
vt 0.795089 0.954137
vt 0.828872 0.954137
vt 0.816554 0.961173
vt 0.816554 0.961173
vt 0.828872 0.954137
vt 0.820897 0.954137
vt 0.826359 0.961173
vt 0.826359 0.961173
vt 0.820897 0.954137
vt 0.787114 0.954137
vt 0.791351 0.961173
vt 0.791351 0.961173
vt 0.787114 0.954137
vt 0.807993 0.954137
vt 0.794918 0.961173
vt 0.794918 0.961173
vt 0.807993 0.954137
vt 0.795089 0.954137
vt 0.810782 0.961173
vt 0.810782 0.961173
vt 0.795089 0.954137
vt 0.828872 0.954137
vt 0.816554 0.961173
vt 0.816554 0.961173
vt 0.828872 0.954137
vt 0.820897 0.954137
vt 0.826359 0.961173
vt 0.826359 0.961173
vt 0.820897 0.954137
vt 0.787114 0.954137
vt 0.791351 0.961173
vt 0.791351 0.961173
vt 0.787114 0.954137
vt 0.807993 0.954137
vt 0.794918 0.961173
vt 0.794918 0.961173
vt 0.807993 0.954137
vt 0.795089 0.954137
vt 0.810782 0.961173
vt 0.810782 0.961173
vt 0.795089 0.954137
vt 0.828872 0.954137
vt 0.816554 0.961173
vt 0.816554 0.961173
vt 0.828872 0.954137
vt 0.820897 0.954137
vt 0.826359 0.961173
vt 0.826359 0.961173
vt 0.820897 0.954137
vt 0.787114 0.954137
vt 0.791351 0.961173
vt 0.791351 0.961173
vt 0.787114 0.954137
vt 0.807993 0.954137
vt 0.794918 0.961173
vt 0.794918 0.961173
vt 0.807993 0.954137
vt 0.795089 0.954137
vt 0.810782 0.961173
vt 0.810782 0.961173
vt 0.795089 0.954137
vt 0.828872 0.954137
vt 0.816554 0.961173
vt 0.816554 0.961173
vt 0.828872 0.954137
vt 0.820897 0.954137
vt 0.826359 0.961173
vt 0.826359 0.961173
vt 0.820897 0.954137
vt 0.787114 0.954137
vt 0.791351 0.961173
vt 0.791351 0.961173
vt 0.787114 0.954137
vt 0.807993 0.954137
vt 0.794918 0.961173
vt 0.794918 0.961173
vt 0.807993 0.954137
vt 0.795089 0.954137
vt 0.810782 0.961173
vt 0.810782 0.961173
vt 0.795089 0.954137
vt 0.828872 0.954137
vt 0.816554 0.961173
vt 0.816554 0.961173
vt 0.828872 0.954137
vt 0.820897 0.954137
vt 0.826359 0.961173
vt 0.826359 0.961173
vt 0.820897 0.954137
vt 0.787114 0.954137
vt 0.791351 0.961173
vt 0.791351 0.961173
vt 0.787114 0.954137
vt 0.807993 0.954137
vt 0.794918 0.961173
vt 0.794918 0.961173
vt 0.807993 0.954137
vt 0.795089 0.954137
vt 0.810782 0.961173
vt 0.810782 0.961173
vt 0.795089 0.954137
vt 0.828872 0.954137
vt 0.816554 0.961173
vt 0.816554 0.961173
vt 0.828872 0.954137
vt 0.820897 0.954137
vt 0.826359 0.961173
vt 0.826359 0.961173
vt 0.820897 0.954137
vt 0.787114 0.954137
vt 0.791351 0.961173
vt 0.791351 0.961173
vt 0.787114 0.954137
vt 0.807993 0.954137
vt 0.794918 0.961173
vt 0.794918 0.961173
vt 0.807993 0.954137
vt 0.795089 0.954137
vt 0.810782 0.961173
vt 0.810782 0.961173
vt 0.795089 0.954137
vt 0.828872 0.954137
vt 0.816554 0.961173
vt 0.816554 0.961173
vt 0.828872 0.954137
vt 0.820897 0.954137
vt 0.826359 0.961173
vt 0.826359 0.961173
vt 0.820897 0.954137
vt 0.787114 0.954137
vt 0.791351 0.961173
vt 0.791351 0.961173
vt 0.787114 0.954137
vt 0.807993 0.954137
vt 0.794918 0.961173
vt 0.794918 0.961173
vt 0.807993 0.954137
vt 0.795089 0.954137
vt 0.810782 0.961173
vt 0.810782 0.961173
vt 0.795089 0.954137
vt 0.828872 0.954137
vt 0.816554 0.961173
vt 0.816554 0.961173
vt 0.828872 0.954137
vt 0.820897 0.954137
vt 0.826359 0.961173
vt 0.826359 0.961173
vt 0.820897 0.954137
vt 0.787114 0.954137
vt 0.791351 0.961173
vt 0.791351 0.961173
vt 0.787114 0.954137
vt 0.807993 0.954137
vt 0.794918 0.961173
vt 0.794918 0.961173
vt 0.807993 0.954137
vt 0.795089 0.954137
vt 0.810782 0.961173
vt 0.810782 0.961173
vt 0.795089 0.954137
vt 0.828872 0.954137
vt 0.816554 0.961173
vt 0.816554 0.961173
vt 0.828872 0.954137
vt 0.820897 0.954137
vt 0.826359 0.961173
vt 0.826359 0.961173
vt 0.820897 0.954137
vt 0.787114 0.954137
vt 0.791351 0.961173
vt 0.791351 0.961173
vt 0.787114 0.954137
vt 0.807993 0.954137
vt 0.794918 0.961173
vt 0.794918 0.961173
vt 0.807993 0.954137
vt 0.795089 0.954137
vt 0.810782 0.961173
vt 0.810782 0.961173
vt 0.795089 0.954137
vt 0.828872 0.954137
vt 0.816554 0.961173
vt 0.816554 0.961173
vt 0.828872 0.954137
vt 0.820897 0.954137
vt 0.826359 0.961173
vt 0.826359 0.961173
vt 0.820897 0.954137
vt 0.787114 0.954137
vt 0.791351 0.961173
vt 0.791351 0.961173
vt 0.787114 0.954137
vt 0.807993 0.954137
vt 0.794918 0.961173
vt 0.794918 0.961173
vt 0.807993 0.954137
vt 0.795089 0.954137
vt 0.810782 0.961173
vt 0.810782 0.961173
vt 0.795089 0.954137
vt 0.828872 0.954137
vt 0.816554 0.961173
vt 0.816554 0.961173
vt 0.828872 0.954137
vt 0.820897 0.954137
vt 0.826359 0.961173
vt 0.826359 0.961173
vt 0.820897 0.954137
vt 0.787114 0.954137
vt 0.791351 0.961173
vt 0.791351 0.961173
vt 0.787114 0.954137
vt 0.807993 0.954137
vt 0.794918 0.961173
vt 0.794918 0.961173
vt 0.807993 0.954137
vt 0.795089 0.954137
vt 0.810782 0.961173
vt 0.810782 0.961173
vt 0.795089 0.954137
vt 0.828872 0.954137
vt 0.816554 0.961173
vt 0.816554 0.961173
vt 0.828872 0.954137
vt 0.820897 0.954137
vt 0.826359 0.961173
vt 0.826359 0.961173
vt 0.820897 0.954137
vt 0.787114 0.954137
vt 0.791351 0.961173
vt 0.791351 0.961173
vt 0.787114 0.954137
vt 0.807993 0.954137
vt 0.794918 0.961173
vt 0.794918 0.961173
vt 0.807993 0.954137
vt 0.795089 0.954137
vt 0.810782 0.961173
vt 0.810782 0.961173
vt 0.795089 0.954137
vt 0.828872 0.954137
vt 0.816554 0.961173
vt 0.816554 0.961173
vt 0.828872 0.954137
vt 0.820897 0.954137
vt 0.826359 0.961173
vt 0.826359 0.961173
vt 0.820897 0.954137
vt 0.787114 0.954137
vt 0.791351 0.961173
vt 0.791351 0.961173
vt 0.787114 0.954137
vt 0.807993 0.954137
vt 0.794918 0.961173
vt 0.794918 0.961173
vt 0.807993 0.954137
vt 0.795089 0.954137
vt 0.810782 0.961173
vt 0.810782 0.961173
vt 0.795089 0.954137
vt 0.828872 0.954137
vt 0.816554 0.961173
vt 0.816554 0.961173
vt 0.828872 0.954137
vt 0.654293 0.883048
vt 0.667368 0.876012
vt 0.688247 0.876012
vt 0.680272 0.876012
vt 0.654464 0.876012
vt 0.654293 0.883048
vt 0.667368 0.876012
vt 0.688247 0.876012
vt 0.680272 0.876012
vt 0.654464 0.876012
vt 0.654293 0.883048
vt 0.667368 0.876012
vt 0.688247 0.876012
vt 0.680272 0.876012
vt 0.654464 0.876012
vt 0.654293 0.883048
vt 0.667368 0.876012
vt 0.688247 0.876012
vt 0.680272 0.876012
vt 0.654464 0.876012
vt 0.654293 0.883048
vt 0.667368 0.876012
vt 0.688247 0.876012
vt 0.680272 0.876012
vt 0.654464 0.876012
vt 0.654293 0.883048
vt 0.667368 0.876012
vt 0.688247 0.876012
vt 0.680272 0.876012
vt 0.654464 0.876012
vt 0.654293 0.883048
vt 0.667368 0.876012
vt 0.688247 0.876012
vt 0.680272 0.876012
vt 0.654464 0.876012
vt 0.654293 0.883048
vt 0.667368 0.876012
vt 0.688247 0.876012
vt 0.680272 0.876012
vt 0.654464 0.876012
vt 0.654293 0.883048
vt 0.667368 0.876012
vt 0.688247 0.876012
vt 0.680272 0.876012
vt 0.654464 0.876012
vt 0.654293 0.883048
vt 0.667368 0.876012
vt 0.688247 0.876012
vt 0.680272 0.876012
vt 0.654464 0.876012
vt 0.654293 0.883048
vt 0.667368 0.876012
vt 0.688247 0.876012
vt 0.680272 0.876012
vt 0.654464 0.876012
vt 0.654293 0.883048
vt 0.667368 0.876012
vt 0.688247 0.876012
vt 0.680272 0.876012
vt 0.654464 0.876012
vt 0.654293 0.883048
vt 0.667368 0.876012
vt 0.688247 0.876012
vt 0.680272 0.876012
vt 0.654464 0.876012
vt 0.654293 0.883048
vt 0.667368 0.876012
vt 0.688247 0.876012
vt 0.680272 0.876012
vt 0.654464 0.876012
vt 0.654293 0.883048
vt 0.667368 0.876012
vt 0.688247 0.876012
vt 0.680272 0.876012
vt 0.654464 0.876012
vt 0.654293 0.883048
vt 0.667368 0.876012
vt 0.688247 0.876012
vt 0.680272 0.876012
vt 0.654464 0.876012
vt 0.820897 0.954137
vt 0.826359 0.961173
vt 0.826359 0.961173
vt 0.820897 0.954137
vt 0.654293 0.883048
vt 0.667368 0.876012
vt 0.688247 0.876012
vt 0.680272 0.876012
vt 0.654464 0.876012
vt 0.787114 0.954137
vt 0.791351 0.961173
vt 0.791351 0.961173
vt 0.787114 0.954137
vt 0.807993 0.954137
vt 0.794918 0.961173
vt 0.794918 0.961173
vt 0.807993 0.954137
vt 0.795089 0.954137
vt 0.810782 0.961173
vt 0.810782 0.961173
vt 0.795089 0.954137
vt 0.828872 0.954137
vt 0.816554 0.961173
vt 0.816554 0.961173
vt 0.828872 0.954137
vt 0.654293 0.883048
vt 0.667368 0.876012
vt 0.688247 0.876012
vt 0.680272 0.876012
vt 0.654464 0.876012
vn 0.9791 -0.0358 -0.2000
vn -0.8973 0.1650 -0.4094
vn -0.6650 0.1607 0.7294
vn 0.1164 0.0470 -0.9921
vn 0.4966 0.0392 0.8671
vn 0.8269 0.0773 0.5570
vn -0.3416 0.0773 -0.9367
vn -0.9964 0.0773 0.0354
vn 0.7853 0.0773 -0.6143
vn -0.2742 0.0773 0.9585
vn 0.9885 -0.0061 0.1512
vn -0.7027 0.1409 -0.6974
vn -0.8788 0.1447 0.4548
vn 0.4516 0.0492 -0.8909
vn 0.1644 0.0558 0.9848
vn 0.9719 0.1817 0.1500
vn -0.7140 0.0248 -0.6997
vn -0.8878 -0.0521 0.4573
vn 0.4414 0.1670 -0.8816
vn 0.1565 0.0516 0.9863
vn 0.9806 0.1275 0.1490
vn -0.7107 0.0125 -0.7034
vn -0.8882 0.0579 0.4557
vn 0.4465 0.0573 -0.8929
vn 0.1592 0.1278 0.9789
vn 0.9855 0.0773 0.1509
vn -0.7086 0.0773 -0.7013
vn -0.8860 0.0773 0.4572
vn 0.4480 0.0773 -0.8907
vn 0.1611 0.0773 0.9839
vn 0.9791 0.0786 0.1875
vn -0.6819 0.0786 -0.7272
vn -0.9023 0.0786 0.4238
vn 0.4809 0.0786 -0.8732
vn 0.1242 0.0786 0.9891
vn 0.8830 0.1123 0.4558
vn -0.4517 0.0890 -0.8877
vn -0.9879 0.0068 0.1549
vn 0.7010 0.1513 -0.6970
vn -0.1619 0.0220 0.9866
vn 0.8869 0.0773 0.4555
vn -0.4498 0.0773 -0.8898
vn -0.9852 0.0773 0.1528
vn 0.7072 0.0773 -0.7027
vn -0.1591 0.0773 0.9842
vn 0.8777 0.1600 0.4516
vn -0.4539 0.0282 -0.8906
vn -0.9883 -0.0127 0.1522
vn 0.7015 0.1347 -0.6998
vn -0.1625 0.0725 0.9840
vn 0.8854 0.1057 0.4527
vn -0.4499 0.0202 -0.8928
vn -0.9848 0.0869 0.1506
vn 0.7076 0.0324 -0.7058
vn -0.1583 0.1378 0.9777
vn 0.9646 0.1351 0.2266
vn -0.6547 0.0426 -0.7547
vn -0.9219 0.0147 0.3871
vn 0.5130 0.1169 -0.8504
vn 0.0814 0.0736 0.9940
vn 0.9950 0.0784 -0.0625
vn -0.8417 0.0784 -0.5342
vn -0.7682 0.0784 0.6354
vn 0.2480 0.0784 -0.9656
vn 0.3669 0.0784 0.9269
vn 0.9672 0.1071 0.2302
vn -0.6516 0.1165 -0.7496
vn -0.9204 -0.0134 0.3909
vn 0.5089 0.1849 -0.8407
vn 0.0809 -0.0196 0.9965
vn 0.6332 0.0416 0.7728
vn -0.0551 0.0888 -0.9945
vn -0.9598 0.1221 -0.2526
vn 0.9316 0.0383 -0.3614
vn -0.5372 0.0939 0.8382
vn 0.9989 -0.0447 0.0110
vn -0.7876 0.2021 -0.5820
vn -0.8042 0.1349 0.5788
vn 0.3190 0.1000 -0.9425
vn 0.3059 -0.0212 0.9518
vn 0.0898 0.9919 0.0898
vn 0.1295 0.9891 0.0697
vn 0.0500 0.9987 0.0100
vn -0.0598 0.9922 0.1097
vn 0.0000 1.0000 0.0000
vn -0.0699 0.9975 0.0100
vn -0.0000 0.9976 -0.0699
vn -0.0998 0.9950 -0.0100
vn -0.0699 0.9963 0.0499
vn -0.0500 0.9975 -0.0500
vn -0.1296 0.9903 0.0498
vn 0.0899 0.9959 0.0100
vn 0.9354 -0.0309 0.3522
vn -0.5418 0.1875 -0.8193
vn -0.9541 0.1348 0.2676
vn 0.6230 0.0918 -0.7768
vn -0.0396 -0.0021 0.9992
vn 0.1197 0.9926 -0.0200
vn 0.0000 -1.0000 -0.0000
usemtl hexagons_medieval
s 1
f 2/1/1 3/2/1 8/3/1 7/4/1
f 5/5/2 1/6/2 6/7/2 10/8/2
f 4/9/3 5/10/3 10/11/3 9/12/3
f 1/13/4 2/14/4 7/15/4 6/16/4
f 3/17/5 4/18/5 9/19/5 8/20/5
f 12/21/6 13/22/6 18/23/6 17/24/6
f 15/25/7 11/26/7 16/27/7 20/28/7
f 14/29/8 15/30/8 20/31/8 19/32/8
f 11/33/9 12/34/9 17/35/9 16/36/9
f 13/37/10 14/38/10 19/39/10 18/40/10
f 22/41/11 23/42/11 28/43/11 27/44/11
f 25/45/12 21/46/12 26/47/12 30/48/12
f 24/49/13 25/50/13 30/51/13 29/52/13
f 21/53/14 22/54/14 27/55/14 26/56/14
f 23/57/15 24/58/15 29/59/15 28/60/15
f 32/61/16 33/62/16 38/63/16 37/64/16
f 35/65/17 31/66/17 36/67/17 40/68/17
f 34/69/18 35/70/18 40/71/18 39/72/18
f 31/73/19 32/74/19 37/75/19 36/76/19
f 33/77/20 34/78/20 39/79/20 38/80/20
f 42/81/21 43/82/21 48/83/21 47/84/21
f 45/85/22 41/86/22 46/87/22 50/88/22
f 44/89/23 45/90/23 50/91/23 49/92/23
f 41/93/24 42/94/24 47/95/24 46/96/24
f 43/97/25 44/98/25 49/99/25 48/100/25
f 52/101/26 53/102/26 58/103/26 57/104/26
f 55/105/27 51/106/27 56/107/27 60/108/27
f 54/109/28 55/110/28 60/111/28 59/112/28
f 51/113/29 52/114/29 57/115/29 56/116/29
f 53/117/30 54/118/30 59/119/30 58/120/30
f 62/121/31 63/122/31 68/123/31 67/124/31
f 65/125/32 61/126/32 66/127/32 70/128/32
f 64/129/33 65/130/33 70/131/33 69/132/33
f 61/133/34 62/134/34 67/135/34 66/136/34
f 63/137/35 64/138/35 69/139/35 68/140/35
f 72/141/36 73/142/36 78/143/36 77/144/36
f 75/145/37 71/146/37 76/147/37 80/148/37
f 74/149/38 75/150/38 80/151/38 79/152/38
f 71/153/39 72/154/39 77/155/39 76/156/39
f 73/157/40 74/158/40 79/159/40 78/160/40
f 82/161/41 83/162/41 88/163/41 87/164/41
f 85/165/42 81/166/42 86/167/42 90/168/42
f 84/169/43 85/170/43 90/171/43 89/172/43
f 81/173/44 82/174/44 87/175/44 86/176/44
f 83/177/45 84/178/45 89/179/45 88/180/45
f 92/181/46 93/182/46 98/183/46 97/184/46
f 95/185/47 91/186/47 96/187/47 100/188/47
f 94/189/48 95/190/48 100/191/48 99/192/48
f 91/193/49 92/194/49 97/195/49 96/196/49
f 93/197/50 94/198/50 99/199/50 98/200/50
f 102/201/51 103/202/51 108/203/51 107/204/51
f 105/205/52 101/206/52 106/207/52 110/208/52
f 104/209/53 105/210/53 110/211/53 109/212/53
f 101/213/54 102/214/54 107/215/54 106/216/54
f 103/217/55 104/218/55 109/219/55 108/220/55
f 112/221/41 113/222/41 118/223/41 117/224/41
f 115/225/42 111/226/42 116/227/42 120/228/42
f 114/229/43 115/230/43 120/231/43 119/232/43
f 111/233/44 112/234/44 117/235/44 116/236/44
f 113/237/45 114/238/45 119/239/45 118/240/45
f 122/241/56 123/242/56 128/243/56 127/244/56
f 125/245/57 121/246/57 126/247/57 130/248/57
f 124/249/58 125/250/58 130/251/58 129/252/58
f 121/253/59 122/254/59 127/255/59 126/256/59
f 123/257/60 124/258/60 129/259/60 128/260/60
f 132/261/61 133/262/61 138/263/61 137/264/61
f 135/265/62 131/266/62 136/267/62 140/268/62
f 134/269/63 135/270/63 140/271/63 139/272/63
f 131/273/64 132/274/64 137/275/64 136/276/64
f 133/277/65 134/278/65 139/279/65 138/280/65
f 142/281/66 143/282/66 148/283/66 147/284/66
f 145/285/67 141/286/67 146/287/67 150/288/67
f 144/289/68 145/290/68 150/291/68 149/292/68
f 141/293/69 142/294/69 147/295/69 146/296/69
f 143/297/70 144/298/70 149/299/70 148/300/70
f 152/301/71 153/302/71 158/303/71 157/304/71
f 155/305/72 151/306/72 156/307/72 160/308/72
f 154/309/73 155/310/73 160/311/73 159/312/73
f 151/313/74 152/314/74 157/315/74 156/316/74
f 153/317/75 154/318/75 159/319/75 158/320/75
f 162/321/76 163/322/76 168/323/76 167/324/76
f 165/325/77 161/326/77 166/327/77 170/328/77
f 164/329/78 165/330/78 170/331/78 169/332/78
f 161/333/79 162/334/79 167/335/79 166/336/79
f 163/337/80 164/338/80 169/339/80 168/340/80
f 175/341/81 174/342/81 173/343/81 172/344/81 171/345/81
f 165/346/82 164/347/82 163/348/82 162/349/82 161/350/82
f 155/351/83 154/352/83 153/353/83 152/354/83 151/355/83
f 145/356/84 144/357/84 143/358/84 142/359/84 141/360/84
f 135/361/85 134/362/85 133/363/85 132/364/85 131/365/85
f 125/366/86 124/367/86 123/368/86 122/369/86 121/370/86
f 115/371/85 114/372/85 113/373/85 112/374/85 111/375/85
f 105/376/87 104/377/87 103/378/87 102/379/87 101/380/87
f 95/381/88 94/382/88 93/383/88 92/384/88 91/385/88
f 85/386/85 84/387/85 83/388/85 82/389/85 81/390/85
f 75/391/89 74/392/89 73/393/89 72/394/89 71/395/89
f 65/396/85 64/397/85 63/398/85 62/399/85 61/400/85
f 55/401/85 54/402/85 53/403/85 52/404/85 51/405/85
f 45/406/90 44/407/90 43/408/90 42/409/90 41/410/90
f 35/411/91 34/412/91 33/413/91 32/414/91 31/415/91
f 25/416/92 24/417/92 23/418/92 22/419/92 21/420/92
f 172/421/93 173/422/93 178/423/93 177/424/93
f 15/425/85 14/426/85 13/427/85 12/428/85 11/429/85
f 175/430/94 171/431/94 176/432/94 180/433/94
f 174/434/95 175/435/95 180/436/95 179/437/95
f 171/438/96 172/439/96 177/440/96 176/441/96
f 173/442/97 174/443/97 179/444/97 178/445/97
f 5/446/98 4/447/98 3/448/98 2/449/98 1/450/98
f 9/19/99 10/8/99 6/16/99 7/4/99 8/20/99
f 19/39/99 20/28/99 16/36/99 17/24/99 18/40/99
f 29/59/99 30/48/99 26/56/99 27/44/99 28/60/99
f 39/79/99 40/68/99 36/76/99 37/64/99 38/80/99
f 49/99/99 50/88/99 46/96/99 47/84/99 48/100/99
f 59/119/99 60/108/99 56/116/99 57/104/99 58/120/99
f 69/139/99 70/128/99 66/136/99 67/124/99 68/140/99
f 79/159/99 80/148/99 76/156/99 77/144/99 78/160/99
f 89/179/99 90/168/99 86/176/99 87/164/99 88/180/99
f 99/199/99 100/188/99 96/196/99 97/184/99 98/200/99
f 109/219/99 110/208/99 106/216/99 107/204/99 108/220/99
f 119/239/99 120/228/99 116/236/99 117/224/99 118/240/99
f 129/259/99 130/248/99 126/256/99 127/244/99 128/260/99
f 139/279/99 140/268/99 136/276/99 137/264/99 138/280/99
f 149/299/99 150/288/99 146/296/99 147/284/99 148/300/99
f 159/319/99 160/308/99 156/316/99 157/304/99 158/320/99
f 169/339/99 170/328/99 166/336/99 167/324/99 168/340/99
f 179/444/99 180/433/99 176/441/99 177/424/99 178/445/99
