# Blender v3.4.1 OBJ File: 'Medieval_Hexagons_Export_1.0_WorldOrigin.blend'
# www.blender.org
mtllib tree_single_A_cut.mtl
o tree_single_A_cut
v -0.000381 0.227578 -0.065207
v 0.061948 0.227618 -0.020524
v 0.038713 0.227633 0.052562
v -0.037976 0.227604 0.053049
v -0.062137 0.227570 -0.019736
v -0.000445 -0.102595 -0.089098
v 0.084785 -0.102542 -0.027999
v 0.053014 -0.102520 0.071941
v -0.051852 -0.102561 0.072607
v -0.084891 -0.102607 -0.026920
vt 0.820897 0.954137
vt 0.826359 0.961173
vt 0.826359 0.961173
vt 0.820897 0.954137
vt 0.787114 0.954137
vt 0.791351 0.961173
vt 0.791351 0.961173
vt 0.787114 0.954137
vt 0.807993 0.954137
vt 0.794918 0.961173
vt 0.794918 0.961173
vt 0.807993 0.954137
vt 0.795089 0.954137
vt 0.810782 0.961173
vt 0.810782 0.961173
vt 0.795089 0.954137
vt 0.828872 0.954137
vt 0.816554 0.961173
vt 0.816554 0.961173
vt 0.828872 0.954137
vt 0.669918 0.961173
vt 0.682993 0.954137
vt 0.703872 0.954137
vt 0.695897 0.954137
vt 0.670089 0.954137
vt 0.816554 0.908669
vt 0.787114 0.908669
vt 0.795089 0.908669
vt 0.820897 0.908669
vt 0.828872 0.908669
vn 0.9513 0.0590 0.3024
vn -0.5919 0.0583 -0.8039
vn -0.9475 0.0584 0.3145
vn 0.5816 0.0586 -0.8114
vn 0.0063 0.0589 0.9982
vn -0.0004 1.0000 -0.0003
vn 0.0004 -1.0000 0.0003
usemtl hexagons_medieval
s 1
f 2/1/1 3/2/1 8/3/1 7/4/1
f 5/5/2 1/6/2 6/7/2 10/8/2
f 4/9/3 5/10/3 10/11/3 9/12/3
f 1/13/4 2/14/4 7/15/4 6/16/4
f 3/17/5 4/18/5 9/19/5 8/20/5
f 5/21/6 4/22/6 3/23/6 2/24/6 1/25/6
f 9/26/7 10/27/7 6/28/7 7/29/7 8/30/7
