# Blender v3.4.1 OBJ File: 'Medieval_Hexagons_Export_1.0_WorldOrigin.blend'
# www.blender.org
mtllib tree_single_A.mtl
o tree_single_A
v 0.286440 0.194805 -0.095032
v 0.178965 0.194877 0.243038
v -0.175770 0.194740 0.245293
v -0.287534 0.194584 -0.091384
v -0.001872 0.194624 -0.301716
v -0.000303 1.093841 -0.000263
v 0.225427 0.486696 -0.074914
v 0.140806 0.486752 0.191268
v -0.138497 0.486645 0.193043
v -0.226495 0.486521 -0.072041
v -0.001578 0.486553 -0.237648
v 0.129017 0.501221 -0.042917
v 0.080573 0.501253 0.109466
v -0.079321 0.501191 0.110483
v -0.129699 0.501121 -0.041272
v -0.000938 0.501139 -0.136079
v -0.000381 0.227578 -0.065207
v 0.061948 0.227618 -0.020524
v 0.038713 0.227633 0.052562
v -0.037976 0.227604 0.053049
v -0.062137 0.227570 -0.019736
v 0.000122 -0.102565 0.000106
v -0.051852 -0.102561 0.072607
v -0.084891 -0.102607 -0.026920
v 0.053014 -0.102520 0.071941
v 0.084785 -0.102542 -0.027999
v -0.000445 -0.102595 -0.089098
vt 0.195897 0.329137
vt 0.202501 0.332975
vt 0.203872 0.329137
vt 0.195897 0.329137
vt 0.203872 0.329137
vt 0.187662 0.332975
vt 0.182993 0.329137
vt 0.182993 0.329137
vt 0.166370 0.332975
vt 0.162114 0.329137
vt 0.162114 0.329137
vt 0.168050 0.332975
vt 0.170089 0.329137
vt 0.195897 0.329137
vt 0.190380 0.332975
vt 0.170089 0.329137
vt 0.170089 0.329137
vt 0.182993 0.409209
vt 0.203872 0.329137
vt 0.182993 0.329137
vt 0.162114 0.329137
vt 0.166351 0.336173
vt 0.162114 0.329137
vt 0.201359 0.336173
vt 0.195897 0.329137
vt 0.191554 0.336173
vt 0.203872 0.329137
vt 0.169918 0.336173
vt 0.182993 0.329137
vt 0.820897 0.954137
vt 0.826359 0.961173
vt 0.826359 0.961173
vt 0.820897 0.954137
vt 0.185782 0.336173
vt 0.170089 0.329137
vt 0.787114 0.954137
vt 0.791351 0.961173
vt 0.791351 0.961173
vt 0.787114 0.954137
vt 0.807993 0.954137
vt 0.794918 0.961173
vt 0.794918 0.961173
vt 0.807993 0.954137
vt 0.795089 0.954137
vt 0.810782 0.961173
vt 0.810782 0.961173
vt 0.795089 0.954137
vt 0.828872 0.954137
vt 0.816554 0.961173
vt 0.816554 0.961173
vt 0.828872 0.954137
vt 0.813561 0.958713
vt 0.823198 0.955096
vt 0.816998 0.954408
vt 0.799646 0.954408
vt 0.795122 0.955096
vn 0.8729 0.4013 0.2774
vn 0.0057 0.4012 0.9160
vn -0.8696 0.4006 0.2885
vn -0.5434 0.4004 -0.7379
vn -0.1342 -0.9899 0.0450
vn 0.0013 -0.9898 0.1421
vn 0.9084 0.3022 0.2887
vn 0.0059 0.3021 0.9533
vn -0.9049 0.3015 0.3003
vn -0.5654 0.3013 -0.7678
vn 0.5336 0.4008 -0.7447
vn 0.1355 -0.9898 0.0433
vn -0.0837 -0.9900 -0.1139
vn 0.0830 -0.9899 -0.1149
vn 0.1316 -0.9904 0.0420
vn 0.0013 -0.9904 0.1380
vn -0.1303 -0.9905 0.0437
vn -0.0812 -0.9905 -0.1105
vn 0.0806 -0.9905 -0.1116
vn 0.9513 0.0590 0.3024
vn -0.5919 0.0583 -0.8039
vn -0.9475 0.0584 0.3145
vn 0.5816 0.0586 -0.8114
vn 0.0063 0.0589 0.9982
vn 0.5553 0.3018 -0.7749
vn 0.0004 -1.0000 0.0003
usemtl hexagons_medieval
s 1
f 12/1/1 13/2/1 2/3/1 1/4/1
f 13/5/2 14/6/2 3/7/2 2/3/2
f 14/8/3 15/9/3 4/10/3 3/7/3
f 15/11/4 16/12/4 5/13/4 4/10/4
f 7/14/5 12/15/5 16/16/6 11/17/6
f 6/18/7 8/19/7 7/14/7
f 6/18/8 9/20/8 8/19/8
f 6/18/9 10/21/9 9/20/9
f 6/18/10 11/17/10 10/21/10
f 16/16/11 12/15/11 1/4/11 5/13/11
f 10/21/12 11/17/6 16/12/6 15/11/12
f 7/14/5 8/19/13 13/2/13 12/1/5
f 8/19/13 9/20/14 14/6/14 13/5/13
f 9/20/14 10/21/12 15/9/12 14/8/14
f 4/10/15 5/13/16 17/22/16 21/23/15
f 1/4/17 2/3/18 19/24/18 18/25/17
f 2/3/18 3/7/19 20/26/19 19/27/18
f 3/7/19 4/10/15 21/28/15 20/29/19
f 18/30/20 19/31/20 25/32/20 26/33/20
f 5/13/16 1/4/17 18/34/17 17/35/16
f 21/36/21 17/37/21 27/38/21 24/39/21
f 20/40/22 21/41/22 24/42/22 23/43/22
f 17/44/23 18/45/23 26/46/23 27/47/23
f 19/48/24 20/49/24 23/50/24 25/51/24
f 11/17/25 6/18/25 7/14/25
f 22/52/26 23/50/26 24/39/26
f 22/53/26 25/51/26 23/50/26
f 22/54/26 26/33/26 25/51/26
f 22/55/26 27/47/26 26/33/26
f 22/56/26 24/39/26 27/47/26
