# Blender v3.4.1 OBJ File: 'Medieval_Hexagons_Export_1.0_WorldOrigin.blend'
# www.blender.org
mtllib tree_single_B.mtl
o tree_single_B
v 0.000001 0.136645 -0.086905
v 0.000001 0.235328 -0.349571
v 0.000001 0.149866 -0.336635
v 0.000001 0.185986 -0.360064
v 0.051082 0.136645 -0.070308
v 0.205474 0.235328 -0.282809
v 0.197870 0.149866 -0.272343
v 0.211641 0.185986 -0.291298
v 0.082652 0.136645 -0.026855
v 0.332463 0.235328 -0.108023
v 0.320160 0.149866 -0.104026
v 0.342442 0.185986 -0.111266
v 0.082652 0.136645 0.026855
v 0.332463 0.235328 0.108023
v 0.320160 0.149866 0.104026
v 0.342442 0.185986 0.111266
v 0.051082 0.136645 0.070308
v 0.205474 0.235328 0.282809
v 0.197870 0.149866 0.272343
v 0.211641 0.185986 0.291298
v 0.000001 0.136645 0.086905
v 0.000001 0.235328 0.349571
v 0.000001 0.149866 0.336635
v 0.000001 0.185986 0.360064
v -0.051081 0.136645 0.070308
v -0.205472 0.235328 0.282809
v -0.197868 0.149866 0.272343
v -0.211639 0.185986 0.291298
v -0.082651 0.136645 0.026855
v -0.332461 0.235328 0.108023
v -0.320158 0.149866 0.104026
v -0.342440 0.185986 0.111266
v -0.082651 0.136645 -0.026855
v -0.332461 0.235328 -0.108023
v -0.320158 0.149866 -0.104026
v -0.342440 0.185986 -0.111266
v -0.051081 0.136645 -0.070308
v -0.205472 0.235328 -0.282809
v -0.197868 0.149866 -0.272343
v -0.211639 0.185986 -0.291298
v 0.000003 0.577603 -0.183397
v 0.107800 0.577603 -0.148371
v -0.107795 0.577603 -0.148371
v 0.174423 0.577603 -0.056673
v 0.174423 0.577603 0.056672
v 0.107800 0.577603 0.148371
v 0.000003 0.577603 0.183396
v -0.107795 0.577603 0.148371
v -0.174418 0.577603 0.056672
v -0.174418 0.577603 -0.056673
v -0.000002 0.652841 -0.277297
v -0.000002 0.585048 -0.267035
v -0.000002 0.613701 -0.285620
v 0.162989 0.652841 -0.224338
v 0.156957 0.585048 -0.216036
v 0.167881 0.613701 -0.231072
v 0.263723 0.652841 -0.085689
v 0.253964 0.585048 -0.082518
v 0.271639 0.613701 -0.088262
v 0.263723 0.652841 0.085689
v 0.253963 0.585048 0.082518
v 0.271639 0.613701 0.088261
v 0.162989 0.652841 0.224338
v 0.156957 0.585048 0.216036
v 0.167881 0.613701 0.231072
v -0.000002 0.652841 0.277297
v -0.000002 0.585048 0.267035
v -0.000002 0.613701 0.285620
v -0.162993 0.652841 0.224338
v -0.156962 0.585048 0.216036
v -0.167885 0.613701 0.231072
v -0.263727 0.652841 0.085689
v -0.253968 0.585048 0.082518
v -0.271643 0.613701 0.088261
v -0.263727 0.652841 -0.085689
v -0.253968 0.585048 -0.082519
v -0.271643 0.613701 -0.088262
v -0.162993 0.652841 -0.224338
v -0.156962 0.585048 -0.216036
v -0.167885 0.613701 -0.231072
v 0.000000 1.075200 -0.074500
v 0.000000 1.112677 -0.000000
v 0.000000 1.107656 -0.037257
v 0.043790 1.075200 -0.060272
v 0.021899 1.107656 -0.030141
v 0.070854 1.075200 -0.023022
v 0.035433 1.107656 -0.011513
v 0.070854 1.075200 0.023022
v 0.035433 1.107656 0.011513
v 0.043790 1.075200 0.060272
v 0.021899 1.107656 0.030141
v 0.000000 1.075200 0.074500
v 0.000000 1.107656 0.037256
v -0.043790 1.075200 0.060272
v -0.021898 1.107656 0.030141
v -0.070854 1.075200 0.023022
v -0.035433 1.107656 0.011513
v -0.070854 1.075200 -0.023022
v -0.035433 1.107656 -0.011513
v -0.043790 1.075200 -0.060272
v -0.021899 1.107656 -0.030141
v -0.000000 -0.100000 -0.000000
v 0.055851 -0.100000 -0.076873
v -0.000001 -0.100000 -0.095021
v 0.090370 -0.100000 -0.029363
v 0.090370 -0.100000 0.029363
v 0.055851 -0.100000 0.076873
v -0.000001 -0.100000 0.095021
v -0.055852 -0.100000 0.076873
v -0.090371 -0.100000 0.029363
v -0.090371 -0.100000 -0.029363
v -0.055852 -0.100000 -0.076874
vt 0.176789 0.332360
vt 0.195407 0.332360
vt 0.195966 0.326621
vt 0.176789 0.326621
vt 0.194718 0.322421
vt 0.176789 0.322421
vt 0.184278 0.274008
vt 0.181417 0.274008
vt 0.194718 0.275546
vt 0.205799 0.275546
vt 0.206914 0.332360
vt 0.207819 0.326621
vt 0.205799 0.322421
vt 0.184278 0.274008
vt 0.205799 0.275546
vt 0.206914 0.332360
vt 0.207819 0.326621
vt 0.205799 0.322421
vt 0.181417 0.274008
vt 0.194718 0.275546
vt 0.195407 0.332360
vt 0.195966 0.326621
vt 0.194718 0.322421
vt 0.176789 0.274008
vt 0.176789 0.275546
vt 0.176789 0.332360
vt 0.176789 0.326621
vt 0.176789 0.322421
vt 0.172160 0.274008
vt 0.158859 0.275546
vt 0.158170 0.332360
vt 0.157611 0.326621
vt 0.158859 0.322421
vt 0.169299 0.274008
vt 0.147778 0.275546
vt 0.146663 0.332360
vt 0.145758 0.326621
vt 0.147778 0.322421
vt 0.169299 0.274008
vt 0.147778 0.275546
vt 0.146663 0.332360
vt 0.145758 0.326621
vt 0.147778 0.322421
vt 0.172160 0.274008
vt 0.158859 0.275546
vt 0.158170 0.332360
vt 0.157611 0.326621
vt 0.158859 0.322421
vt 0.176789 0.274008
vt 0.176789 0.275546
vt 0.176789 0.476913
vt 0.176789 0.480688
vt 0.178773 0.480688
vt 0.180757 0.476913
vt 0.784473 0.851285
vt 0.789101 0.851285
vt 0.789533 0.835393
vt 0.784472 0.835393
vt 0.176789 0.372167
vt 0.186557 0.372167
vt 0.192594 0.372167
vt 0.192594 0.372167
vt 0.167021 0.372167
vt 0.160984 0.372167
vt 0.160984 0.372167
vt 0.167021 0.372167
vt 0.176789 0.372167
vt 0.186557 0.372167
vt 0.191558 0.380917
vt 0.183209 0.476913
vt 0.200686 0.380917
vt 0.200686 0.380917
vt 0.183209 0.476913
vt 0.180757 0.476913
vt 0.191558 0.380917
vt 0.176789 0.476913
vt 0.176788 0.380917
vt 0.172820 0.476913
vt 0.162019 0.380917
vt 0.170368 0.476913
vt 0.152891 0.380917
vt 0.170368 0.476913
vt 0.152891 0.380917
vt 0.172820 0.476913
vt 0.162019 0.380917
vt 0.176788 0.380917
vt 0.192001 0.376365
vt 0.176788 0.376365
vt 0.191011 0.373033
vt 0.176788 0.373033
vt 0.199801 0.326158
vt 0.192594 0.325292
vt 0.186557 0.325292
vt 0.191011 0.326158
vt 0.201403 0.376365
vt 0.199801 0.373033
vt 0.199801 0.326158
vt 0.192594 0.325292
vt 0.201403 0.376365
vt 0.199801 0.373033
vt 0.191011 0.326158
vt 0.186557 0.325292
vt 0.192001 0.376365
vt 0.191011 0.373033
vt 0.176788 0.326158
vt 0.176789 0.325292
vt 0.176788 0.376365
vt 0.176788 0.373033
vt 0.162565 0.326158
vt 0.167021 0.325292
vt 0.161575 0.376365
vt 0.162565 0.373033
vt 0.153775 0.326158
vt 0.160984 0.325292
vt 0.152174 0.376365
vt 0.153775 0.373033
vt 0.153775 0.326158
vt 0.160984 0.325292
vt 0.152174 0.376365
vt 0.153775 0.373033
vt 0.162565 0.326158
vt 0.167021 0.325292
vt 0.161575 0.376365
vt 0.162565 0.373033
vt 0.176788 0.326158
vt 0.176789 0.325292
vt 0.179999 0.480688
vt 0.176789 0.481272
vt 0.179999 0.480688
vt 0.178773 0.480688
vt 0.176789 0.480688
vt 0.174804 0.480688
vt 0.173578 0.480688
vt 0.173578 0.480688
vt 0.174804 0.480688
vt 0.776983 0.851285
vt 0.776983 0.851285
vt 0.776284 0.835393
vt 0.776284 0.835393
vt 0.789101 0.851285
vt 0.784473 0.851285
vt 0.784472 0.835393
vt 0.789533 0.835393
vt 0.791962 0.851285
vt 0.792662 0.835393
vt 0.779844 0.851285
vt 0.779411 0.835393
vt 0.779844 0.851285
vt 0.779411 0.835393
vt 0.791962 0.851285
vt 0.792662 0.835393
vt 0.784472 0.835393
vt 0.788835 0.835393
vt 0.791532 0.835393
vt 0.780110 0.835393
vt 0.777414 0.835393
vn 0.0000 0.3177 -0.9482
vn 0.5573 0.3177 -0.7671
vn 0.5749 0.2080 -0.7913
vn -0.0000 0.2080 -0.9781
vn 0.0000 -0.5442 -0.8390
vn 0.4931 -0.5442 -0.6787
vn 0.0503 -0.9986 -0.0163
vn 0.0311 -0.9986 -0.0428
vn 0.9018 0.3177 -0.2930
vn 0.9303 0.2080 -0.3023
vn 0.7979 -0.5442 -0.2593
vn 0.0503 -0.9986 0.0163
vn 0.9018 0.3177 0.2930
vn 0.9303 0.2080 0.3023
vn 0.7979 -0.5442 0.2593
vn 0.0311 -0.9986 0.0428
vn 0.5573 0.3177 0.7671
vn 0.5749 0.2080 0.7913
vn 0.4931 -0.5442 0.6787
vn 0.0000 -0.9986 0.0529
vn 0.0000 0.3177 0.9482
vn -0.0000 0.2080 0.9781
vn 0.0000 -0.5442 0.8390
vn -0.0311 -0.9986 0.0428
vn -0.5573 0.3177 0.7671
vn -0.5749 0.2080 0.7913
vn -0.4931 -0.5442 0.6787
vn -0.0503 -0.9986 0.0163
vn -0.9018 0.3177 0.2930
vn -0.9303 0.2080 0.3023
vn -0.7979 -0.5442 0.2593
vn -0.0503 -0.9986 -0.0163
vn -0.9018 0.3177 -0.2930
vn -0.9303 0.2080 -0.3023
vn -0.7979 -0.5442 -0.2593
vn -0.0311 -0.9986 -0.0428
vn -0.5573 0.3177 -0.7671
vn -0.5749 0.2080 -0.7913
vn -0.4931 -0.5442 -0.6787
vn 0.0000 -0.9986 -0.0529
vn 0.0000 0.5873 -0.8094
vn 0.0000 0.8890 -0.4580
vn 0.2692 0.8890 -0.3705
vn 0.4757 0.5873 -0.6548
vn 0.0000 0.0343 -0.9994
vn 0.5874 0.0343 -0.8085
vn 0.0000 0.4367 -0.8996
vn 0.5288 0.4367 -0.7278
vn 0.8556 0.4367 -0.2780
vn 0.8556 0.4367 0.2780
vn -0.5288 0.4367 -0.7278
vn -0.8556 0.4368 -0.2780
vn -0.8556 0.4368 0.2780
vn -0.5288 0.4367 0.7278
vn 0.0000 0.4367 0.8996
vn 0.5288 0.4367 0.7278
vn 0.5577 0.3158 -0.7676
vn 0.7698 0.5873 -0.2501
vn 0.9024 0.3158 -0.2932
vn 0.9024 0.3158 0.2932
vn 0.7698 0.5873 0.2501
vn 0.4757 0.5873 0.6548
vn 0.5577 0.3158 0.7676
vn 0.0000 0.5873 0.8094
vn 0.0000 0.3158 0.9488
vn -0.4757 0.5873 0.6548
vn -0.5577 0.3158 0.7676
vn -0.7698 0.5873 0.2501
vn -0.9024 0.3158 0.2932
vn -0.7698 0.5873 -0.2501
vn -0.9024 0.3158 -0.2932
vn -0.4757 0.5873 -0.6548
vn -0.5577 0.3158 -0.7676
vn 0.0000 0.3158 -0.9488
vn 0.0843 -0.9961 -0.0274
vn 0.0521 -0.9961 -0.0717
vn 0.0843 -0.9961 0.0274
vn 0.0521 -0.9961 0.0717
vn -0.0000 -0.9961 0.0887
vn -0.0521 -0.9961 0.0717
vn -0.0843 -0.9961 0.0274
vn -0.0843 -0.9961 -0.0274
vn -0.0521 -0.9961 -0.0717
vn -0.0000 -0.9961 -0.0887
vn 0.4356 0.8890 -0.1415
vn 0.0000 1.0000 0.0000
vn 0.4356 0.8890 0.1415
vn 0.2692 0.8890 0.3705
vn 0.0000 0.8890 0.4580
vn -0.2692 0.8890 0.3705
vn -0.4356 0.8890 0.1415
vn -0.4356 0.8890 -0.1415
vn -0.2692 0.8890 -0.3705
vn -0.9505 0.0343 0.3088
vn -0.9505 0.0343 -0.3088
vn 0.5874 0.0343 0.8085
vn 0.0000 0.0343 0.9994
vn 0.9505 0.0343 -0.3088
vn -0.5874 0.0343 -0.8085
vn -0.5874 0.0343 0.8085
vn 0.9505 0.0343 0.3088
vn -0.0000 -1.0000 -0.0000
usemtl hexagons_medieval
s 1
f 2/1/1 6/2/2 8/3/3 4/4/4
f 4/4/5 8/3/6 7/5/6 3/6/5
f 9/7/7 5/8/8 7/9/8 11/10/7
f 6/2/2 10/11/9 12/12/10 8/3/3
f 8/3/6 12/12/11 11/13/11 7/5/6
f 13/14/12 9/7/7 11/10/7 15/15/12
f 10/11/9 14/16/13 16/17/14 12/12/10
f 12/12/11 16/17/15 15/18/15 11/13/11
f 17/19/16 13/14/12 15/15/12 19/20/16
f 14/16/13 18/21/17 20/22/18 16/17/14
f 16/17/15 20/22/19 19/23/19 15/18/15
f 21/24/20 17/19/16 19/20/16 23/25/20
f 18/21/17 22/26/21 24/27/22 20/22/18
f 20/22/19 24/27/23 23/28/23 19/23/19
f 25/29/24 21/24/20 23/25/20 27/30/24
f 22/26/21 26/31/25 28/32/26 24/27/22
f 24/27/23 28/32/27 27/33/27 23/28/23
f 29/34/28 25/29/24 27/30/24 31/35/28
f 26/31/25 30/36/29 32/37/30 28/32/26
f 28/32/27 32/37/31 31/38/31 27/33/27
f 33/39/32 29/34/28 31/35/28 35/40/32
f 30/36/29 34/41/33 36/42/34 32/37/30
f 32/37/31 36/42/35 35/43/35 31/38/31
f 37/44/36 33/39/32 35/40/32 39/45/36
f 34/41/33 38/46/37 40/47/38 36/42/34
f 36/42/35 40/47/39 39/48/39 35/43/35
f 1/49/40 37/44/36 39/45/36 3/50/40
f 38/46/37 2/1/1 4/4/4 40/47/38
f 40/47/39 4/4/5 3/6/5 39/48/39
f 81/51/41 83/52/42 85/53/43 84/54/44
f 1/55/45 5/56/46 103/57/46 104/58/45
f 2/1/1 41/59/47 42/60/48 6/2/2
f 10/11/9 44/61/49 45/62/50 14/16/13
f 38/46/37 43/63/51 41/59/47 2/1/1
f 34/41/33 50/64/52 43/63/51 38/46/37
f 30/36/29 49/65/53 50/64/52 34/41/33
f 26/31/25 48/66/54 49/65/53 30/36/29
f 22/26/21 47/67/55 48/66/54 26/31/25
f 18/21/17 46/68/56 47/67/55 22/26/21
f 14/16/13 45/62/50 46/68/56 18/21/17
f 6/2/2 42/60/48 44/61/49 10/11/9
f 54/69/57 84/54/44 86/70/58 57/71/59
f 60/72/60 88/73/61 90/74/62 63/75/63
f 63/75/63 90/74/62 92/76/64 66/77/65
f 66/77/65 92/76/64 94/78/66 69/79/67
f 69/79/67 94/78/66 96/80/68 72/81/69
f 72/81/69 96/80/68 98/82/70 75/83/71
f 75/83/71 98/82/70 100/84/72 78/85/73
f 78/85/73 100/84/72 81/51/41 51/86/74
f 57/71/59 86/70/58 88/73/61 60/72/60
f 51/86/74 54/69/57 56/87/3 53/88/4
f 53/88/5 56/87/6 55/89/6 52/90/5
f 58/91/75 44/92/75 42/93/76 55/94/76
f 54/69/57 57/71/59 59/95/10 56/87/3
f 56/87/6 59/95/11 58/96/11 55/89/6
f 61/97/77 45/98/77 44/92/75 58/91/75
f 57/71/59 60/72/60 62/99/14 59/95/10
f 59/95/11 62/99/15 61/100/15 58/96/11
f 64/101/78 46/102/78 45/98/77 61/97/77
f 60/72/60 63/75/63 65/103/18 62/99/14
f 62/99/15 65/103/19 64/104/19 61/100/15
f 67/105/79 47/106/79 46/102/78 64/101/78
f 63/75/63 66/77/65 68/107/22 65/103/18
f 65/103/19 68/107/23 67/108/23 64/104/19
f 70/109/80 48/110/80 47/106/79 67/105/79
f 66/77/65 69/79/67 71/111/26 68/107/22
f 68/107/23 71/111/27 70/112/27 67/108/23
f 73/113/81 49/114/81 48/110/80 70/109/80
f 69/79/67 72/81/69 74/115/30 71/111/26
f 71/111/27 74/115/31 73/116/31 70/112/27
f 76/117/82 50/118/82 49/114/81 73/113/81
f 72/81/69 75/83/71 77/119/34 74/115/30
f 74/115/31 77/119/35 76/120/35 73/116/31
f 79/121/83 43/122/83 50/118/82 76/117/82
f 75/83/71 78/85/73 80/123/38 77/119/34
f 77/119/35 80/123/39 79/124/39 76/120/35
f 52/125/84 41/126/84 43/122/83 79/121/83
f 78/85/73 51/86/74 53/88/4 80/123/38
f 80/123/39 53/88/5 52/90/5 79/124/39
f 84/54/44 85/53/43 87/127/85 86/70/58
f 85/53/43 83/52/42 82/128/86
f 86/70/58 87/127/85 89/129/87 88/73/61
f 87/127/85 85/53/43 82/128/86
f 88/73/61 89/129/87 91/130/88 90/74/62
f 89/129/87 87/127/85 82/128/86
f 90/74/62 91/130/88 93/131/89 92/76/64
f 91/130/88 89/129/87 82/128/86
f 92/76/64 93/131/89 95/132/90 94/78/66
f 93/131/89 91/130/88 82/128/86
f 94/78/66 95/132/90 97/133/91 96/80/68
f 95/132/90 93/131/89 82/128/86
f 96/80/68 97/133/91 99/134/92 98/82/70
f 97/133/91 95/132/90 82/128/86
f 98/82/70 99/134/92 101/135/93 100/84/72
f 99/134/92 97/133/91 82/128/86
f 100/84/72 101/135/93 83/52/42 81/51/41
f 101/135/93 99/134/92 82/128/86
f 83/52/42 101/135/93 82/128/86
f 51/86/74 81/51/41 84/54/44 54/69/57
f 29/136/94 33/137/95 111/138/95 110/139/94
f 17/140/96 21/141/97 108/142/97 107/143/96
f 5/56/46 9/144/98 105/145/98 103/57/46
f 33/137/95 37/146/99 112/147/99 111/138/95
f 21/141/97 25/148/100 109/149/100 108/142/97
f 9/144/98 13/150/101 106/151/101 105/145/98
f 37/146/99 1/55/45 104/58/45 112/147/99
f 25/148/100 29/136/94 110/139/94 109/149/100
f 13/150/101 17/140/96 107/143/96 106/151/101
f 55/94/76 42/93/76 41/126/84 52/125/84
f 5/8/8 1/49/40 3/50/40 7/9/8
f 102/152/102 104/58/102 103/57/102
f 102/153/102 103/57/102 105/145/102
f 102/154/102 105/145/102 106/151/102
f 102/154/102 106/151/102 107/143/102
f 102/153/102 107/143/102 108/142/102
f 102/152/102 108/142/102 109/149/102
f 102/155/102 109/149/102 110/139/102
f 102/156/102 110/139/102 111/138/102
f 102/156/102 111/138/102 112/147/102
f 102/155/102 112/147/102 104/58/102
