# Blender v3.4.1 OBJ File: 'Medieval_Hexagons_Export_1.0_WorldOrigin.blend'
# www.blender.org
mtllib waterplant_A.mtl
o waterplant_A
v 0.000000 -0.019586 0.000001
v 0.042479 0.017415 0.002124
v -0.018866 0.015818 0.034499
v 0.025126 0.030650 0.043517
v 0.057331 0.068510 0.053936
v 0.018045 0.068510 0.076618
v 0.053543 0.081533 0.092738
v -0.000013 0.018527 0.000163
v 0.048434 0.038499 0.012105
v 0.053983 0.053866 0.027147
v -0.003480 0.053866 0.060324
v -0.013732 0.038499 0.047997
v 0.014033 0.041356 0.024305
v 0.026856 0.059978 0.046514
v -0.023479 0.018614 -0.038240
v -0.055887 0.035678 0.000001
v -0.085134 0.079747 0.026403
v -0.085134 0.079747 -0.026402
v -0.122044 0.094907 0.000001
v -0.037787 0.044815 0.041779
v -0.056180 0.062702 0.038619
v -0.056180 0.062702 -0.038618
v -0.037787 0.044815 -0.041778
v -0.030063 0.048140 0.000001
v -0.059915 0.069817 0.000001
v 0.031699 0.042376 -0.054904
v 0.021910 0.094720 -0.100668
v 0.076227 0.094720 -0.069308
v 0.070989 0.112726 -0.122955
v -0.022025 0.053229 -0.061097
v -0.007850 0.074474 -0.078140
v 0.071597 0.074474 -0.032271
v 0.063925 0.053229 -0.011474
v 0.016364 0.057178 -0.028342
v 0.034092 0.082925 -0.059047
vt 0.200730 0.353631
vt 0.196979 0.322255
vt 0.175000 0.343318
vt 0.175000 0.366227
vt 0.198783 0.405071
vt 0.191260 0.424311
vt 0.175000 0.278525
vt 0.153021 0.322255
vt 0.175000 0.410173
vt 0.191260 0.393061
vt 0.151217 0.405071
vt 0.175000 0.413102
vt 0.158740 0.424311
vt 0.151217 0.373821
vt 0.158740 0.393061
vt 0.175000 0.341760
vt 0.175000 0.308013
vt 0.196979 0.353505
vt 0.175000 0.441423
vt 0.153021 0.353505
vt 0.175000 0.354888
vt 0.175000 0.388635
vt 0.149270 0.353631
vt 0.198783 0.373821
vt 0.149270 0.384881
vt 0.200730 0.384881
vt 0.200730 0.353631
vt 0.196979 0.322255
vt 0.175000 0.343318
vt 0.175000 0.366227
vt 0.198783 0.405071
vt 0.191260 0.424311
vt 0.153021 0.322255
vt 0.175000 0.410173
vt 0.191260 0.393061
vt 0.151217 0.405071
vt 0.175000 0.413102
vt 0.158740 0.424311
vt 0.151217 0.373821
vt 0.158740 0.393061
vt 0.175000 0.341760
vt 0.196979 0.353505
vt 0.200730 0.384881
vt 0.149270 0.384881
vt 0.153021 0.353505
vt 0.175000 0.388635
vt 0.175000 0.441423
vt 0.153021 0.353505
vt 0.175000 0.388635
vt 0.149270 0.353631
vt 0.198783 0.373821
vt 0.149270 0.384881
vt 0.200730 0.353631
vt 0.196979 0.322255
vt 0.175000 0.343318
vt 0.175000 0.366227
vt 0.198783 0.405071
vt 0.191260 0.424311
vt 0.153021 0.322255
vt 0.175000 0.410173
vt 0.191260 0.393061
vt 0.151217 0.405071
vt 0.175000 0.413102
vt 0.158740 0.424311
vt 0.151217 0.373821
vt 0.158740 0.393061
vt 0.175000 0.341760
vt 0.196979 0.353505
vt 0.200730 0.384881
vt 0.175000 0.441423
vt 0.149270 0.353631
vt 0.198783 0.373821
vn -0.0173 -0.5586 0.8292
vn 0.0457 -0.6143 0.7877
vn 0.3574 -0.6882 0.6314
vn -0.2604 0.8537 -0.4510
vn -0.3943 0.8119 -0.4304
vn -0.2496 0.9100 -0.3310
vn 0.3358 -0.7071 0.6223
vn 0.6597 -0.5902 0.4653
vn -0.0925 -0.6651 0.7410
vn -0.0969 -0.6653 0.7402
vn -0.1756 0.8119 -0.5567
vn -0.1618 0.9100 -0.3817
vn 0.6972 -0.6426 0.3177
vn 0.6895 -0.6653 0.2862
vn -0.3416 0.7282 -0.5941
vn -0.6413 0.7078 -0.2963
vn -0.6257 0.6140 -0.4812
vn -0.1872 0.9272 -0.3243
vn -0.1185 0.5954 -0.7946
vn 0.0510 0.7107 -0.7017
vn 0.7432 -0.5195 0.4217
vn -0.0735 -0.6426 0.7626
vn -0.2335 0.6324 -0.7386
vn -0.5129 0.6521 -0.5583
vn 0.6879 -0.6651 0.2904
vn -0.7214 -0.5420 -0.4311
vn -0.7195 -0.6060 -0.3393
vn -0.7194 -0.6945 0.0089
vn 0.5208 0.8537 0.0000
vn 0.5699 0.8119 -0.1263
vn 0.4114 0.9100 -0.0507
vn -0.7027 -0.7106 0.0349
vn -0.6813 -0.6338 0.3662
vn -0.5955 -0.6651 -0.4506
vn -0.5926 -0.6653 -0.4540
vn 0.5699 0.8119 0.1263
vn 0.4114 0.9100 0.0507
vn -0.6237 -0.6426 0.4450
vn -0.5926 -0.6653 0.4540
vn 0.7150 0.6991 -0.0037
vn 0.6464 0.6538 -0.3935
vn 0.7784 0.5546 -0.2942
vn 0.7600 0.6283 -0.1665
vn -0.5182 0.6391 0.5683
vn -0.6499 0.5321 0.5427
vn -0.3711 0.6738 0.6390
vn 0.3745 0.9272 0.0000
vn 0.7543 0.5832 0.3016
vn 0.6411 0.6528 0.4035
vn -0.6868 -0.5887 0.4263
vn -0.6237 -0.6426 -0.4450
vn 0.7375 0.6552 0.1638
vn -0.5955 -0.6651 0.4506
vn 0.7096 -0.5946 -0.3780
vn 0.6530 -0.6407 -0.4039
vn 0.3593 -0.7009 -0.6161
vn -0.2604 0.8537 0.4510
vn -0.1756 0.8119 0.5567
vn -0.1618 0.9100 0.3817
vn 0.3620 -0.7151 -0.5980
vn 0.0395 -0.6336 -0.7726
vn 0.6879 -0.6651 -0.2904
vn 0.6895 -0.6653 -0.2862
vn -0.3943 0.8119 0.4304
vn -0.2496 0.9100 0.3310
vn -0.0735 -0.6426 -0.7626
vn -0.0969 -0.6653 -0.7402
vn -0.3758 0.6479 0.6626
vn -0.1407 0.5423 0.8284
vn -0.2301 0.6479 0.7262
vn -0.1872 0.9272 0.3243
vn -0.0236 -0.5811 -0.8135
vn 0.6972 -0.6426 -0.3177
vn -0.0925 -0.6651 -0.7410
usemtl hexagons_medieval
s 1
f 12/1/1 3/2/2 4/3/3
f 14/4/4 11/5/5 6/6/6
f 1/7/7 2/8/8 4/3/3
f 1/7/7 4/3/3 3/2/2
f 4/3/3 7/9/9 6/10/10
f 10/11/11 14/12/4 5/13/12
f 4/3/3 10/14/13 5/15/14
f 13/16/15 8/17/16 3/18/17
f 5/13/12 14/12/4 7/19/18
f 2/20/19 8/21/20 13/22/15
f 10/14/13 4/3/3 9/23/21
f 4/3/3 11/24/22 12/1/1
f 9/25/23 13/22/15 14/12/4 10/11/11
f 13/16/15 12/26/24 11/5/5 14/4/4
f 4/3/3 2/8/8 9/23/21
f 11/24/22 4/3/3 6/10/10
f 7/9/25 4/3/3 5/15/14
f 14/4/4 6/6/6 7/19/18
f 23/27/26 15/28/27 16/29/28
f 25/30/29 22/31/30 18/32/31
f 1/7/32 3/33/33 16/29/28
f 1/7/32 16/29/28 15/28/27
f 16/29/28 19/34/34 18/35/35
f 21/36/36 25/37/29 17/38/37
f 16/29/28 21/39/38 17/40/39
f 24/41/40 8/17/41 15/42/42
f 23/43/43 24/41/40 15/42/42
f 30/44/44 15/45/45 34/46/46
f 17/38/37 25/37/29 19/47/47
f 3/48/48 8/21/49 24/49/40
f 21/39/38 16/29/28 20/50/50
f 16/29/28 22/51/51 23/27/26
f 20/52/52 24/49/40 25/37/29 21/36/36
f 24/41/40 23/43/43 22/31/30 25/30/29
f 16/29/28 3/33/33 20/50/50
f 22/51/51 16/29/28 18/35/35
f 19/34/53 16/29/28 17/40/39
f 25/30/29 18/32/31 19/47/47
f 33/53/54 2/54/55 26/55/56
f 35/56/57 32/57/58 28/58/59
f 1/7/60 15/59/61 26/55/56
f 1/7/60 26/55/56 2/54/55
f 26/55/56 29/60/62 28/61/63
f 31/62/64 35/63/57 27/64/65
f 26/55/56 31/65/66 27/66/67
f 34/67/46 8/17/68 2/68/69
f 33/69/70 34/67/46 2/68/69
f 9/25/23 2/20/19 13/22/15
f 27/64/65 35/63/57 29/70/71
f 15/45/45 8/21/68 34/46/46
f 31/65/66 26/55/56 30/71/72
f 26/55/56 32/72/73 33/53/54
f 30/44/44 34/46/46 35/63/57 31/62/64
f 34/67/46 33/69/70 32/57/58 35/56/57
f 26/55/56 15/59/61 30/71/72
f 32/72/73 26/55/56 28/61/63
f 29/60/74 26/55/56 27/66/67
f 35/56/57 28/58/59 29/70/71
f 20/52/52 3/48/48 24/49/40
f 12/26/24 13/16/15 3/18/17
