# Blender v3.4.1 OBJ File: 'Medieval_Hexagons_Export_1.0_WorldOrigin.blend'
# www.blender.org
mtllib waterplant_B.mtl
o waterplant_B
v -0.000000 -0.019040 0.000000
v 0.015807 0.014914 -0.027419
v -0.016407 0.014914 0.025680
v 0.027650 0.026858 0.011933
v 0.055740 0.060033 0.002408
v 0.039989 0.060033 0.038905
v 0.073376 0.071445 0.031666
v 0.027601 0.033736 -0.022343
v 0.039371 0.047201 -0.014672
v 0.016333 0.047201 0.038712
v 0.002678 0.033736 0.035410
v 0.009801 0.036239 0.004230
v 0.030434 0.052557 0.013134
v -0.031871 0.035678 -0.024178
v -0.071129 0.079747 -0.020819
v -0.039215 0.079747 -0.062889
v -0.084578 0.094907 -0.064162
v -0.042702 0.044815 0.020047
v -0.055445 0.062702 0.006412
v -0.008764 0.062702 -0.055121
v 0.007800 0.044815 -0.046523
v -0.011298 0.048140 -0.008570
v -0.035080 0.069817 -0.026612
v -0.008991 -0.000193 0.001235
v -0.005485 -0.000091 0.007232
v 0.001234 0.000064 0.008993
v 0.007230 0.000182 0.005486
v 0.008991 0.000193 -0.001235
v 0.005485 0.000091 -0.007232
v -0.007230 -0.000182 -0.005486
v -0.001234 -0.000064 -0.008993
v -0.010379 0.230951 -0.000225
v -0.008312 0.231011 0.003311
v -0.004352 0.231103 0.004348
v -0.000818 0.231172 0.002281
v 0.000220 0.231178 -0.001680
v -0.001846 0.231118 -0.005215
v -0.005806 0.231027 -0.006253
v -0.009341 0.230958 -0.004186
v -0.009489 0.126848 -0.005605
v -0.021694 0.137854 -0.014724
v -0.017733 0.129954 -0.011819
v -0.009543 0.213594 -0.004558
v -0.023102 0.201941 -0.014988
v -0.019493 0.210031 -0.012149
v -0.003935 0.126957 -0.008853
v -0.006223 0.138157 -0.023772
v -0.005402 0.130196 -0.019031
v -0.005525 0.213673 -0.006908
v -0.007632 0.202244 -0.024036
v -0.007162 0.210272 -0.019361
v 0.002289 0.127100 -0.007222
v 0.011111 0.138557 -0.019229
v 0.008415 0.130514 -0.015410
v -0.001021 0.213776 -0.005728
v 0.009703 0.202643 -0.019493
v 0.006655 0.210591 -0.015740
v 0.005536 0.127194 -0.001667
v 0.020156 0.138819 -0.003756
v 0.015625 0.130724 -0.003076
v 0.001328 0.213845 -0.001708
v 0.018747 0.202906 -0.004020
v 0.013865 0.210800 -0.003406
v 0.003905 0.127184 0.004558
v 0.015613 0.138791 0.013584
v 0.012003 0.130701 0.010744
v 0.000148 0.213837 0.002796
v 0.014204 0.202878 0.013319
v 0.010243 0.210777 0.010414
v -0.001649 0.127075 0.007806
v 0.000142 0.138488 0.022632
v -0.000328 0.130460 0.017956
v -0.003871 0.213759 0.005147
v -0.001266 0.202575 0.022368
v -0.002088 0.210536 0.017626
v -0.007873 0.126932 0.006175
v -0.017193 0.138088 0.018089
v -0.014145 0.130141 0.014335
v -0.008374 0.213655 0.003966
v -0.018601 0.202175 0.017824
v -0.015905 0.210217 0.014005
v -0.011120 0.126838 0.000620
v -0.026237 0.137826 0.002615
v -0.021354 0.129932 0.002002
v -0.010724 0.213586 -0.000053
v -0.027646 0.201912 0.002351
v -0.023114 0.210008 0.001672
v -0.005170 0.235189 -0.000969
vt 0.200730 0.353631
vt 0.196979 0.322255
vt 0.175000 0.343318
vt 0.175000 0.366227
vt 0.198783 0.405071
vt 0.191260 0.424311
vt 0.175000 0.278525
vt 0.153021 0.322255
vt 0.175000 0.410173
vt 0.191260 0.393061
vt 0.151217 0.405071
vt 0.175000 0.413102
vt 0.158740 0.424311
vt 0.151217 0.373821
vt 0.158740 0.393061
vt 0.153021 0.353505
vt 0.196979 0.353505
vt 0.175000 0.388635
vt 0.175000 0.441423
vt 0.149270 0.353631
vt 0.198783 0.373821
vt 0.149270 0.384881
vt 0.175000 0.388635
vt 0.175000 0.341760
vt 0.200730 0.384881
vt 0.200730 0.353631
vt 0.196979 0.322255
vt 0.175000 0.343318
vt 0.175000 0.366227
vt 0.198783 0.405071
vt 0.191260 0.424311
vt 0.153021 0.322255
vt 0.175000 0.410173
vt 0.191260 0.393061
vt 0.151217 0.405071
vt 0.175000 0.413102
vt 0.158740 0.424311
vt 0.151217 0.373821
vt 0.158740 0.393061
vt 0.175000 0.441423
vt 0.149270 0.353631
vt 0.198783 0.373821
vt 0.149270 0.384881
vt 0.175000 0.341760
vt 0.200730 0.384881
vt 0.196979 0.353505
vt 0.153021 0.353505
vt 0.161019 0.434201
vt 0.159971 0.434201
vt 0.160402 0.444412
vt 0.161324 0.444412
vt 0.161019 0.434201
vt 0.163551 0.434201
vt 0.163551 0.444412
vt 0.161324 0.444412
vt 0.166082 0.434201
vt 0.167130 0.434201
vt 0.166699 0.444412
vt 0.165777 0.444412
vt 0.166082 0.434201
vt 0.163551 0.434201
vt 0.163551 0.444412
vt 0.165777 0.444412
vt 0.163551 0.446839
vt 0.168498 0.383174
vt 0.167049 0.383174
vt 0.168080 0.308420
vt 0.169956 0.308420
vt 0.779390 0.823967
vt 0.779390 0.921304
vt 0.796472 0.921304
vt 0.796472 0.823967
vt 0.820629 0.823967
vt 0.820629 0.921304
vt 0.813553 0.921304
vt 0.813553 0.823967
vt 0.796472 0.921304
vt 0.796472 0.823967
vt 0.779390 0.921304
vt 0.779390 0.823967
vt 0.772314 0.921304
vt 0.772314 0.823967
vt 0.813553 0.823967
vt 0.813553 0.921304
vt 0.163551 0.383174
vt 0.160052 0.383174
vt 0.159021 0.308420
vt 0.163551 0.308420
vt 0.810087 0.780575
vt 0.796472 0.780575
vt 0.802604 0.775545
vt 0.796472 0.775545
vt 0.796472 0.964697
vt 0.810087 0.964697
vt 0.796472 0.969726
vt 0.800909 0.969726
vt 0.815727 0.780575
vt 0.805144 0.775545
vt 0.815727 0.964697
vt 0.802747 0.969726
vt 0.810087 0.780575
vt 0.802604 0.775545
vt 0.810087 0.964697
vt 0.800909 0.969726
vt 0.796472 0.780575
vt 0.796472 0.775545
vt 0.796472 0.964697
vt 0.796472 0.969726
vt 0.782857 0.780575
vt 0.790339 0.775545
vt 0.782857 0.964697
vt 0.792034 0.969726
vt 0.777216 0.780575
vt 0.787798 0.775545
vt 0.777216 0.964697
vt 0.790197 0.969726
vt 0.782857 0.780575
vt 0.790339 0.775545
vt 0.782857 0.964697
vt 0.792034 0.969726
vt 0.163551 0.383174
vt 0.167049 0.383174
vt 0.168080 0.308420
vt 0.163551 0.308420
vt 0.158603 0.383174
vt 0.160052 0.383174
vt 0.159021 0.308420
vt 0.157144 0.308420
vn 0.4088 -0.6616 0.6286
vn 0.3809 -0.5476 0.7450
vn 0.3861 -0.6049 0.6964
vn -0.4781 0.8537 -0.2063
vn -0.5733 0.8119 -0.1099
vn -0.3978 0.9100 -0.1165
vn 0.8638 -0.4916 -0.1107
vn 0.8602 -0.4985 -0.1076
vn 0.8018 -0.5811 -0.1393
vn 0.3738 -0.4378 0.8177
vn 0.3682 -0.6651 0.6496
vn 0.3642 -0.6653 0.6517
vn -0.4732 0.8119 -0.3418
vn -0.3577 0.9100 -0.2096
vn 0.7490 -0.6426 -0.1614
vn 0.7240 -0.6653 -0.1821
vn 0.6552 0.4910 0.5741
vn 0.8051 0.4181 0.4207
vn 0.6334 0.6267 0.4539
vn -0.3438 0.9272 -0.1484
vn 0.8237 -0.5557 -0.1127
vn 0.3964 -0.6426 0.6557
vn -0.6006 0.6688 -0.4381
vn -0.6662 0.6716 -0.3242
vn -0.6489 0.7527 -0.1115
vn 0.7253 -0.6651 -0.1777
vn -0.2884 -0.5907 -0.7536
vn -0.2891 -0.5406 -0.7900
vn -0.2541 -0.6021 -0.7569
vn 0.4149 0.8537 0.3147
vn 0.5304 0.8119 0.2438
vn 0.3584 0.9100 0.2083
vn -0.8754 -0.4779 0.0725
vn -0.8305 -0.5564 0.0259
vn -0.7868 -0.6172 -0.0036
vn -0.2814 -0.5202 -0.8064
vn -0.2021 -0.6651 -0.7189
vn -0.1977 -0.6653 -0.7199
vn 0.3777 0.8119 0.4451
vn 0.2971 0.9100 0.2891
vn -0.7659 -0.6426 -0.0225
vn -0.7466 -0.6653 0.0036
vn 0.2983 0.9272 0.2263
vn -0.7667 -0.6395 -0.0556
vn -0.2280 -0.6426 -0.7315
vn 0.4663 0.6891 0.5547
vn 0.6971 0.6403 0.3227
vn -0.7467 -0.6651 -0.0009
vn -0.7264 0.6395 -0.2518
vn -0.7048 0.5191 -0.4835
vn -0.9905 0.0210 0.1357
vn -0.6047 0.0322 0.7958
vn 0.1349 0.0493 0.9896
vn 0.7948 0.0622 0.6036
vn 0.9887 0.0634 -0.1361
vn 0.6028 0.0522 -0.7962
vn -0.1367 0.0352 -0.9900
vn -0.7967 0.0222 -0.6040
vn -0.3864 0.7856 0.4832
vn 0.0656 0.7960 0.6017
vn -0.0220 0.9997 -0.0041
vn 0.6042 0.0153 -0.7967
vn 0.9903 0.0265 -0.1360
vn -0.9536 -0.2702 0.1327
vn -0.9646 0.2291 0.1307
vn -0.7767 0.2303 -0.5862
vn -0.7657 -0.2690 -0.5842
vn 0.5906 -0.2400 -0.7704
vn 0.5796 0.2594 -0.7725
vn 0.9536 0.2702 -0.1327
vn 0.9646 -0.2291 -0.1307
vn 0.7657 0.2690 0.5842
vn 0.7767 -0.2303 0.5862
vn 0.1261 0.2565 0.9583
vn 0.1371 -0.2428 0.9603
vn -0.5906 0.2400 0.7704
vn -0.5796 -0.2594 0.7725
vn -0.1261 -0.2565 -0.9583
vn -0.1371 0.2428 -0.9603
vn 0.7963 0.0253 0.6043
vn 0.1358 0.0123 0.9907
vn -0.0750 -0.7454 -0.6624
vn -0.5187 -0.7541 -0.4029
vn -0.0208 -0.9536 -0.3005
vn -0.2238 -0.9575 -0.1818
vn -0.6959 0.4936 -0.5216
vn -0.1281 0.5047 -0.8538
vn -0.0558 0.9650 -0.2562
vn -0.2240 0.9617 -0.1578
vn 0.4222 -0.7340 -0.5321
vn 0.2066 -0.9483 -0.2409
vn 0.5082 0.5194 -0.6870
vn 0.1326 0.9694 -0.2068
vn 0.6816 -0.7264 -0.0883
vn 0.3252 -0.9449 -0.0379
vn 0.8402 0.5290 -0.1190
vn 0.2309 0.9722 -0.0386
vn 0.5512 -0.7272 0.4090
vn 0.2656 -0.9452 0.1896
vn 0.6735 0.5279 0.5174
vn 0.1815 0.9719 0.1499
vn 0.1076 -0.7359 0.6685
vn 0.0627 -0.9492 0.3083
vn 0.1056 0.5168 0.8495
vn 0.0133 0.9686 0.2482
vn -0.3896 -0.7474 0.5382
vn -0.1648 -0.9545 0.2487
vn -0.5307 0.5022 0.6828
vn -0.1751 0.9643 0.1988
vn -0.6490 -0.7549 0.0944
vn -0.2834 -0.9579 0.0457
vn -0.8627 0.4925 0.1148
vn -0.2734 0.9614 0.0306
vn -0.7966 -0.0147 -0.6044
vn -0.1360 -0.0018 -0.9907
vn -0.6044 -0.0047 0.7967
vn -0.9906 -0.0159 0.1360
vn -0.5037 0.7795 -0.3723
vn -0.6222 0.7788 0.0798
vn -0.1004 0.7874 -0.6082
vn 0.5874 0.8047 -0.0863
vn 0.3516 0.7978 -0.4898
vn 0.4689 0.8039 0.3658
usemtl hexagons_medieval
s 1
f 11/1/1 3/2/2 4/3/3
f 13/4/4 10/5/5 6/6/6
f 1/7/7 2/8/8 4/3/9
f 1/7/10 4/3/3 3/2/2
f 4/3/3 7/9/11 6/10/12
f 9/11/13 13/12/4 5/13/14
f 4/3/9 9/14/15 5/15/16
f 3/16/17 2/17/18 22/18/19
f 5/13/14 13/12/4 7/19/20
f 9/14/15 4/3/9 8/20/21
f 4/3/3 10/21/22 11/1/1
f 8/22/23 12/23/24 13/12/4 9/11/13
f 12/24/24 11/25/25 10/5/5 13/4/4
f 4/3/9 2/8/8 8/20/21
f 10/21/22 4/3/3 6/10/12
f 7/9/26 4/3/9 5/15/16
f 13/4/4 6/6/6 7/19/20
f 21/26/27 2/27/28 14/28/29
f 23/29/30 20/30/31 16/31/32
f 1/7/33 3/32/34 14/28/35
f 1/7/36 14/28/29 2/27/28
f 14/28/29 17/33/37 16/34/38
f 19/35/39 23/36/30 15/37/40
f 14/28/35 19/38/41 15/39/42
f 15/37/40 23/36/30 17/40/43
f 19/38/41 14/28/35 18/41/44
f 14/28/29 20/42/45 21/26/27
f 18/43/46 22/18/19 23/36/30 19/35/39
f 22/44/19 21/45/47 20/30/31 23/29/30
f 14/28/35 3/32/34 18/41/44
f 20/42/45 14/28/29 16/34/38
f 17/33/48 14/28/35 15/39/42
f 23/29/30 16/31/32 17/40/43
f 18/43/46 3/16/17 22/18/19
f 11/25/25 12/24/24 3/46/49
f 8/22/23 2/47/50 12/23/24
f 21/45/47 22/44/19 2/17/18
f 2/47/50 3/46/49 12/23/24
f 85/48/51 79/49/52 33/50/52 32/51/51
f 73/52/53 67/53/54 35/54/54 34/55/53
f 61/56/55 55/57/56 37/58/56 36/59/55
f 49/60/57 43/61/58 39/62/58 38/63/57
f 43/61/58 85/48/51 32/51/51 39/62/58
f 55/57/56 49/60/57 38/63/57 37/58/56
f 33/50/59 34/55/60 88/64/61
f 67/53/54 61/56/55 36/59/55 35/54/54
f 52/65/62 58/66/63 28/67/63 29/68/62
f 83/69/64 86/70/65 44/71/66 41/72/67
f 53/73/68 56/74/69 62/75/70 59/76/71
f 59/76/71 62/75/70 68/77/72 65/78/73
f 65/78/73 68/77/72 74/79/74 71/80/75
f 71/80/75 74/79/74 80/81/76 77/82/77
f 77/82/77 80/81/76 86/70/65 83/69/64
f 47/83/78 50/84/79 56/74/69 53/73/68
f 64/85/80 70/86/81 26/87/81 27/88/80
f 79/49/52 73/52/53 34/55/53 33/50/52
f 41/72/67 44/71/66 50/84/79 47/83/78
f 41/72/67 47/83/78 48/89/82 42/90/83
f 42/90/83 48/89/82 46/91/84 40/92/85
f 50/84/79 44/71/66 45/93/86 51/94/87
f 51/94/88 45/93/89 43/95/89 49/96/88
f 47/83/78 53/73/68 54/97/90 48/89/82
f 48/89/82 54/97/90 52/98/91 46/91/84
f 56/74/69 50/84/79 51/94/87 57/99/92
f 57/99/93 51/94/88 49/96/88 55/100/93
f 53/73/68 59/76/71 60/101/94 54/97/90
f 54/97/90 60/101/94 58/102/95 52/98/91
f 62/75/70 56/74/69 57/99/92 63/103/96
f 63/103/97 57/99/93 55/100/93 61/104/97
f 59/76/71 65/78/73 66/105/98 60/101/94
f 60/101/94 66/105/98 64/106/99 58/102/95
f 68/77/72 62/75/70 63/103/96 69/107/100
f 69/107/101 63/103/97 61/104/97 67/108/101
f 65/78/73 71/80/75 72/109/102 66/105/98
f 66/105/98 72/109/102 70/110/103 64/106/99
f 74/79/74 68/77/72 69/107/100 75/111/104
f 75/111/105 69/107/101 67/108/101 73/112/105
f 71/80/75 77/82/77 78/113/106 72/109/102
f 72/109/102 78/113/106 76/114/107 70/110/103
f 80/81/76 74/79/74 75/111/104 81/115/108
f 81/115/109 75/111/105 73/112/105 79/116/109
f 77/82/77 83/69/64 84/117/110 78/113/106
f 78/113/106 84/117/110 82/118/111 76/114/107
f 86/70/65 80/81/76 81/115/108 87/119/112
f 87/119/113 81/115/109 79/116/109 85/120/113
f 83/69/64 41/72/67 42/90/83 84/117/110
f 84/117/110 42/90/83 40/92/85 82/118/111
f 44/71/66 86/70/65 87/119/112 45/93/86
f 45/93/89 87/119/113 85/120/113 43/95/89
f 40/121/114 46/122/115 31/123/115 30/124/114
f 76/125/116 82/126/117 24/127/117 25/128/116
f 46/122/115 52/65/62 29/68/62 31/123/115
f 58/66/63 64/85/80 27/88/80 28/67/63
f 70/86/81 76/125/116 25/128/116 26/87/81
f 82/126/117 40/121/114 30/124/114 24/127/117
f 39/62/118 32/51/119 88/64/61
f 38/63/120 39/62/118 88/64/61
f 36/59/121 37/58/122 88/64/61
f 34/55/60 35/54/123 88/64/61
f 32/51/119 33/50/59 88/64/61
f 37/58/122 38/63/120 88/64/61
f 35/54/123 36/59/121 88/64/61
