# Blender v3.4.1 OBJ File: 'Medieval_Hexagons_Export_1.0_WorldOrigin.blend'
# www.blender.org
mtllib hex_coast_B.mtl
o hex_coast_B
v -0.000000 -1.000000 0.000000
v 0.999998 -0.200000 0.577349
v -0.000000 -0.200000 1.154698
v -0.999998 -0.200000 0.577349
v 0.999998 -0.100000 0.000000
v -0.999998 -0.100000 0.000000
v -0.035447 -0.100000 -0.507355
v 0.028825 -0.200000 -0.072795
v 0.318922 -0.200000 0.151577
v 0.657058 -0.200000 0.197860
v 0.341110 -0.100000 -0.410839
v 0.666666 -0.100000 -0.100000
v -0.666666 -0.100000 -0.179248
v -0.305664 -0.100000 -0.261655
v -0.604218 -0.200000 0.439797
v -0.290105 -0.200000 0.069384
v -0.003158 0.000000 -1.097021
v 0.000000 -0.050000 -1.154698
v 0.949998 0.000000 -0.547201
v 0.999998 -0.050000 -0.577349
v -0.949998 0.000000 -0.081099
v -0.999998 -0.050000 0.000000
v -0.949998 0.000000 -0.549845
v -0.999998 -0.050000 -0.577349
v 0.949998 0.000000 -0.072505
v 0.999998 -0.050000 0.000000
v -0.035447 -0.050000 -0.507355
v -0.032272 0.000000 -0.565341
v 0.341110 -0.050000 -0.410839
v 0.340281 0.000000 -0.469650
v 0.666666 0.000000 -0.157717
v 0.666666 -0.050000 -0.100000
v -0.666666 -0.050000 -0.179248
v -0.666666 0.000000 -0.233357
v -0.307779 0.000000 -0.315223
v -0.305664 -0.050000 -0.261655
v 0.999998 -0.100000 0.250000
v -0.999998 -0.100000 0.250000
v -0.015909 -0.100000 -0.375250
v 0.329376 -0.100000 -0.113412
v 0.665705 -0.100000 -0.034284
v -0.633715 -0.100000 0.147395
v -0.296511 -0.100000 -0.202340
v 1.000000 -1.000000 0.000000
v 1.000000 -1.000000 -0.577350
v -1.000000 -1.000000 0.000000
v -1.000000 -1.000000 0.577350
v -1.000000 -1.000000 -0.577350
v 1.000000 -1.000000 0.577350
v -0.000000 -1.000000 1.154700
v 0.000000 -1.000000 -1.154700
vt 0.533801 0.376975
vt 0.533801 0.376975
vt 0.533801 0.376975
vt 0.197236 0.633213
vt 0.197236 0.633213
vt 0.197236 0.633213
vt 0.545832 0.376975
vt 0.545832 0.376975
vt 0.545832 0.376975
vt 0.197236 0.633213
vt 0.039749 0.423850
vt 0.040970 0.423850
vt 0.042406 0.423850
vt 0.572833 0.423850
vt 0.570828 0.423850
vt 0.570828 0.423850
vt 0.572833 0.423850
vt 0.045279 0.423850
vt 0.046715 0.423850
vt 0.047936 0.423850
vt 0.043843 0.423850
vt 0.039534 0.387907
vt 0.040970 0.387907
vt 0.040970 0.387907
vt 0.039534 0.387907
vt 0.039534 0.387907
vt 0.042406 0.387907
vt 0.043843 0.387907
vt 0.043843 0.387907
vt 0.042406 0.387907
vt 0.046715 0.387907
vt 0.048152 0.387907
vt 0.048152 0.387907
vt 0.046715 0.387907
vt 0.045279 0.387907
vt 0.045279 0.387907
vt 0.048379 0.298735
vt 0.043843 0.298735
vt 0.043843 0.356657
vt 0.048152 0.356657
vt 0.197236 0.633213
vt 0.197236 0.633213
vt 0.568823 0.423850
vt 0.568823 0.423850
vt 0.043843 0.408225
vt 0.047936 0.408225
vt 0.048152 0.408225
vt 0.043843 0.408225
vt 0.576843 0.423850
vt 0.574838 0.423850
vt 0.574838 0.423850
vt 0.576843 0.423850
vt 0.197236 0.608588
vt 0.197236 0.608588
vt 0.197236 0.540052
vt 0.197236 0.540052
vt 0.039749 0.423850
vt 0.566817 0.423850
vt 0.566817 0.423850
vt 0.576843 0.392600
vt 0.578849 0.392600
vt 0.578849 0.392600
vt 0.576843 0.392600
vt 0.043843 0.423850
vt 0.048152 0.387907
vt 0.197236 0.608588
vt 0.197236 0.540052
vt 0.197236 0.633213
vt 0.197236 0.633213
vt 0.039749 0.408225
vt 0.039534 0.408225
vt 0.039749 0.408225
vt 0.039534 0.408225
vt 0.039307 0.298735
vt 0.039534 0.356657
vt 0.047936 0.408225
vt 0.048152 0.408225
vt 0.046715 0.408225
vt 0.046715 0.408225
vt 0.042406 0.408225
vt 0.043843 0.408225
vt 0.043843 0.408225
vt 0.042406 0.408225
vt 0.045279 0.408225
vt 0.045279 0.408225
vt 0.047936 0.423850
vt 0.040970 0.408225
vt 0.040970 0.408225
vt 0.570828 0.392600
vt 0.572833 0.392600
vt 0.572833 0.392600
vt 0.570828 0.392600
vt 0.574838 0.392600
vt 0.574838 0.392600
vt 0.566817 0.392600
vt 0.568823 0.392600
vt 0.568823 0.392600
vt 0.566817 0.392600
vt 0.578849 0.423850
vt 0.578849 0.423850
vt 0.039307 0.298735
vt 0.039534 0.356657
vt 0.533484 0.283110
vt 0.533484 0.283110
vt 0.048152 0.356657
vt 0.048379 0.298735
vt 0.546149 0.283110
vt 0.546149 0.283110
vt 0.060317 0.288250
vt 0.076551 0.288250
vt 0.076551 0.288250
vt 0.560317 0.288250
vt 0.544083 0.288250
vt 0.544083 0.288250
vt 0.044083 0.288250
vt 0.044083 0.288250
vt 0.576551 0.288250
vt 0.576551 0.288250
vt 0.185317 0.538250
vt 0.185317 0.538250
vt 0.169083 0.538250
vt 0.060317 0.288250
vt 0.201551 0.538250
vn -1.0000 0.0000 0.0000
vn 0.0000 1.0000 0.0000
vn 1.0000 0.0000 0.0000
vn 0.4736 0.0000 0.8807
vn 0.3513 0.0000 0.9363
vn 0.4628 0.0000 0.8865
vn 0.6727 0.0000 0.7399
vn 0.6201 0.3874 0.6822
vn 0.4175 0.3599 0.8344
vn -0.5028 0.0000 0.8644
vn -0.2873 0.0000 0.9578
vn -0.4516 0.3693 0.8122
vn -0.2483 0.0000 0.9687
vn -0.4852 0.0000 0.8744
vn -0.4716 0.3996 0.7861
vn 0.5000 0.0000 -0.8660
vn 0.3488 0.7162 -0.6044
vn -0.5000 0.0000 0.8660
vn -0.2166 0.9153 0.3396
vn -0.3096 0.8969 0.3158
vn -0.1556 0.9225 0.3533
vn 0.5000 0.0000 0.8660
vn -0.3587 0.6970 -0.6210
vn -0.7071 0.7071 0.0000
vn -0.5000 0.0000 -0.8660
vn 0.7071 0.7071 0.0000
vn -0.1932 0.7410 0.6432
vn -0.4051 0.6912 0.5984
vn 0.5204 0.6334 0.5727
vn 0.3765 0.6841 0.6247
vn -0.1641 0.7509 0.6397
vn -0.3020 0.7243 0.6198
vn 0.3426 0.6903 0.6373
vn 0.2638 0.7085 0.6545
vn 0.2322 0.7144 0.6601
vn 0.2735 0.9129 0.3029
vn -0.0730 0.9404 0.3320
vn -0.0087 0.9445 0.3283
vn 0.2124 0.9273 0.3082
vn -0.1398 0.9230 0.3585
vn -0.1832 0.9185 0.3504
vn 0.0951 0.9487 0.3016
vn 0.1714 0.9378 0.3020
vn 0.2397 0.9231 0.3008
vn 0.0000 -1.0000 0.0000
usemtl hexagons_medieval
s 1
f 4/1/1 38/2/1 6/3/1
f 15/4/2 4/5/2 3/6/2
f 5/7/3 37/8/3 2/9/3
f 16/10/2 15/4/2 3/6/2
f 23/11/2 34/12/2 35/13/2
f 7/14/2 14/15/2 43/16/2 39/17/2
f 30/18/2 31/19/2 19/20/2
f 17/21/2 30/18/2 19/20/2
f 6/22/4 13/23/5 33/24/5 22/25/4
f 6/22/1 22/25/1 24/26/1
f 14/27/6 7/28/7 27/29/8 36/30/9
f 12/31/10 5/32/11 26/33/11 32/34/12
f 7/28/13 11/35/14 29/36/15 27/29/13
f 45/37/16 51/38/16 18/39/16 20/40/16
f 3/6/2 9/41/2 8/42/2
f 11/35/14 12/31/10 32/34/12 29/36/15
f 14/15/2 13/43/2 42/44/2 43/16/2
f 17/45/17 19/46/17 20/47/17 18/48/17
f 12/49/2 11/50/2 40/51/2 41/52/2
f 3/53/18 4/54/18 47/55/18 50/56/18
f 23/11/2 21/57/2 34/12/2
f 13/43/2 6/58/2 38/59/2 42/44/2
f 10/60/19 2/61/20 37/62/20 41/63/21
f 17/21/2 28/64/2 30/18/2
f 13/23/5 14/27/6 36/30/9 33/24/5
f 20/65/3 26/33/3 5/32/3
f 11/50/2 7/14/2 39/17/2 40/51/2
f 2/66/22 3/53/22 50/56/22 49/67/22
f 10/68/2 9/41/2 3/6/2
f 8/42/2 16/10/2 3/6/2
f 2/69/2 10/68/2 3/6/2
f 23/70/23 17/45/23 18/48/23 24/71/23
f 21/72/24 23/70/24 24/71/24 22/73/24
f 51/38/25 48/74/25 24/75/25 18/39/25
f 19/46/26 25/76/26 26/77/26 20/47/26
f 32/78/12 26/77/27 25/76/27 31/79/28
f 36/80/9 27/81/8 28/82/29 35/83/30
f 28/64/2 17/21/2 35/13/2
f 27/81/31 29/84/15 30/85/32 28/82/31
f 29/84/15 32/78/12 31/79/28 30/85/32
f 25/86/2 19/20/2 31/19/2
f 22/73/33 33/87/34 34/88/35 21/72/33
f 33/87/34 36/80/9 35/83/30 34/88/35
f 16/89/36 8/90/37 39/91/38 43/92/39
f 8/90/37 9/93/40 40/94/41 39/91/38
f 9/93/40 10/60/19 41/63/21 40/94/41
f 4/95/42 15/96/43 42/97/44 38/98/42
f 15/96/43 16/89/36 43/92/39 42/97/44
f 5/99/2 12/49/2 41/52/2 37/100/2
f 46/101/1 6/102/1 24/75/1 48/74/1
f 47/103/1 4/1/1 6/3/1 46/104/1
f 45/37/3 20/40/3 5/105/3 44/106/3
f 44/107/3 5/7/3 2/9/3 49/108/3
f 17/21/2 23/11/2 35/13/2
f 1/109/45 45/110/45 44/111/45
f 1/112/45 47/113/45 46/114/45
f 1/109/45 46/115/45 48/116/45
f 1/112/45 44/117/45 49/118/45
f 1/119/45 50/120/45 47/121/45
f 1/109/45 48/116/45 51/122/45
f 1/119/45 49/123/45 50/120/45
f 1/109/45 51/122/45 45/110/45
