# Blender v3.4.1 OBJ File: 'Medieval_Hexagons_Export_1.0_WorldOrigin.blend'
# www.blender.org
mtllib hex_coast_D.mtl
o hex_coast_D
v 0.000000 -0.200000 -1.154699
v 0.999998 -0.200000 -0.577349
v 0.999998 -0.200000 0.577349
v -0.000001 -0.200000 1.154698
v -0.999998 -0.200000 0.577349
v -0.255392 -0.200000 -0.088470
v -0.283493 -0.100000 -0.991024
v -0.999998 -0.100000 0.250000
v -0.533543 -0.200000 0.076859
v -0.695578 -0.200000 0.395941
v -0.092899 -0.200000 -0.840075
v -0.105837 -0.200000 -0.414757
v -0.449755 -0.100000 -0.217576
v -0.751269 -0.100000 -0.048846
v -0.880567 -0.100000 0.186900
v -0.331614 -0.100000 -0.529224
v -0.999998 -0.100000 -0.000000
v -0.499999 -0.100000 -0.866024
v -0.521441 -0.100000 -0.596028
v -0.628082 -0.100000 -0.314850
v -0.851432 -0.100000 -0.192220
v -0.521441 -0.050000 -0.596028
v -0.577299 0.000000 -0.593848
v -0.949998 -0.000000 -0.548482
v -0.999998 -0.050000 -0.577349
v -0.869161 0.000000 -0.238178
v -0.851432 -0.050000 -0.192220
v -0.999998 -0.050000 -0.000000
v -0.949998 -0.000000 -0.134082
v -0.628082 -0.050000 -0.314850
v -0.671935 0.000000 -0.345802
v -0.562943 -0.000000 -0.771948
v -0.499999 -0.050000 -0.866024
v 0.000000 -1.000000 0.000000
v 1.000000 -1.000000 -0.577350
v 0.000000 -1.000000 -1.154701
v -1.000000 -1.000000 0.577350
v -0.000000 -1.000000 1.154700
v -0.500000 -1.000000 -0.866025
v -0.999999 -1.000000 -0.577350
v -1.000000 -1.000000 0.000000
v 0.999999 -1.000000 0.577350
vt 0.197236 0.608588
vt 0.197236 0.608588
vt 0.197236 0.540052
vt 0.197236 0.540052
vt 0.197236 0.608588
vt 0.197236 0.540052
vt 0.045279 0.387907
vt 0.045997 0.387907
vt 0.045997 0.387907
vt 0.197236 0.608588
vt 0.197236 0.608588
vt 0.197236 0.540052
vt 0.197236 0.540052
vt 0.197236 0.633213
vt 0.197236 0.633213
vt 0.197236 0.633213
vt 0.044450 0.423850
vt 0.043855 0.423850
vt 0.043843 0.423850
vt 0.197236 0.633213
vt 0.197236 0.633213
vt 0.197236 0.633213
vt 0.533801 0.376975
vt 0.535806 0.376975
vt 0.533484 0.283110
vt 0.041688 0.387907
vt 0.041688 0.387907
vt 0.042406 0.387907
vt 0.197236 0.633213
vt 0.197236 0.633213
vt 0.197236 0.633213
vt 0.197236 0.633213
vt 0.566817 0.392600
vt 0.568823 0.392600
vt 0.568823 0.392600
vt 0.568214 0.392600
vt 0.572833 0.392600
vt 0.574838 0.392600
vt 0.574838 0.392600
vt 0.572833 0.392600
vt 0.570828 0.392600
vt 0.570828 0.392600
vt 0.576843 0.392600
vt 0.578849 0.392600
vt 0.576843 0.392600
vt 0.543827 0.376975
vt 0.545832 0.376975
vt 0.544038 0.283110
vt 0.042406 0.387907
vt 0.043038 0.387907
vt 0.043038 0.387907
vt 0.042406 0.387907
vt 0.536651 0.283110
vt 0.535595 0.283110
vt 0.542983 0.283110
vt 0.570828 0.423850
vt 0.572833 0.423850
vt 0.571710 0.423850
vt 0.570828 0.423850
vt 0.574838 0.423850
vt 0.573793 0.423850
vt 0.572833 0.423850
vt 0.576843 0.423850
vt 0.575841 0.423850
vt 0.574838 0.423850
vt 0.568823 0.423850
vt 0.569825 0.423850
vt 0.568823 0.423850
vt 0.043843 0.387907
vt 0.044530 0.387907
vt 0.044530 0.387907
vt 0.043843 0.387907
vt 0.045279 0.387907
vt 0.045279 0.387907
vt 0.042016 0.423850
vt 0.042406 0.423850
vt 0.042532 0.423850
vt 0.042964 0.423850
vt 0.041855 0.408225
vt 0.042370 0.408225
vt 0.042406 0.408225
vt 0.041688 0.408225
vt 0.045315 0.408225
vt 0.045871 0.408225
vt 0.045997 0.408225
vt 0.045279 0.408225
vt 0.042980 0.408225
vt 0.042423 0.408225
vt 0.042406 0.408225
vt 0.043038 0.408225
vt 0.044480 0.408225
vt 0.043873 0.408225
vt 0.043843 0.408225
vt 0.044530 0.408225
vt 0.045735 0.408225
vt 0.045279 0.408225
vt 0.045279 0.408225
vt 0.042092 0.408225
vt 0.045753 0.423850
vt 0.045197 0.423850
vt 0.045279 0.423850
vt 0.536809 0.376975
vt 0.542825 0.376975
vt 0.045355 0.298735
vt 0.045279 0.356657
vt 0.045997 0.356657
vt 0.046111 0.298735
vt 0.041575 0.298735
vt 0.041688 0.356657
vt 0.042406 0.356657
vt 0.042331 0.298735
vt 0.183293 0.538250
vt 0.184158 0.538250
vt 0.200392 0.538250
vt 0.184158 0.538250
vt 0.167923 0.538250
vt 0.176040 0.538250
vt 0.167923 0.538250
vt 0.167923 0.538250
vt 0.200392 0.538250
vn 0.5000 0.0000 0.8660
vn -0.5000 0.0000 0.8660
vn -0.5000 0.0000 -0.8660
vn 0.5000 0.0000 -0.8660
vn 0.0000 1.0000 0.0000
vn -1.0000 0.0000 0.0000
vn 0.1688 0.9412 0.2927
vn 0.2414 0.9412 0.2362
vn 0.2487 0.9408 0.2304
vn 1.0000 0.0000 0.0000
vn 0.2926 0.9233 0.2490
vn 0.3815 0.9191 0.0984
vn 0.3908 0.9169 0.0810
vn 0.2809 0.9218 0.2670
vn 0.2624 0.9229 0.2817
vn 0.2787 0.9267 0.2521
vn 0.4077 0.9111 0.0599
vn 0.3887 0.9142 0.1148
vn 0.4033 0.9122 0.0732
vn 0.6499 0.0000 0.7600
vn 0.4813 0.0000 0.8766
vn 0.9350 0.0000 0.3546
vn 0.9757 0.0000 0.2191
vn 0.9969 0.0000 0.0792
vn 0.7912 0.0000 0.6115
vn -0.7071 0.7071 -0.0000
vn -0.3536 0.7071 -0.6124
vn 0.5064 0.7294 0.4599
vn 0.4585 0.6834 0.5681
vn 0.4975 0.6759 0.5437
vn 0.5213 0.7304 0.4413
vn 0.6609 0.7327 0.1622
vn 0.6632 0.7356 0.1382
vn 0.6680 0.7422 0.0534
vn 0.6034 0.6463 0.4671
vn 0.0000 -1.0000 0.0000
usemtl hexagons_medieval
s 1
f 3/1/1 4/2/1 38/3/1 42/4/1
f 4/2/2 5/5/2 37/6/2 38/3/2
f 25/7/3 33/8/3 18/9/3
f 1/10/4 2/11/4 35/12/4 36/13/4
f 10/14/5 5/15/5 4/16/5
f 23/17/5 24/18/5 31/19/5
f 3/20/5 12/21/5 6/22/5
f 5/23/6 8/24/6 37/25/6
f 17/26/6 28/27/6 25/28/6
f 3/20/5 6/22/5 9/29/5
f 3/20/5 9/29/5 10/14/5
f 3/20/5 10/14/5 4/16/5
f 2/30/5 1/31/5 11/32/5
f 3/20/5 11/32/5 12/21/5
f 5/33/7 10/34/8 15/35/9 8/36/7
f 2/11/10 3/1/10 42/4/10 35/12/10
f 3/20/5 2/30/5 11/32/5
f 6/37/11 12/38/12 16/39/13 13/40/14
f 9/41/15 6/37/11 13/40/14 14/42/16
f 10/34/8 9/41/15 14/42/16 15/35/9
f 11/43/17 1/44/18 7/45/19
f 12/38/12 11/43/17 7/45/19 16/39/13
f 7/46/3 1/47/3 36/48/3
f 21/49/20 20/50/21 30/51/21 27/52/20
f 41/53/6 37/54/6 8/24/6
f 7/46/3 36/48/3 39/55/3
f 14/56/5 13/57/5 20/58/5 21/59/5
f 16/60/5 19/61/5 20/62/5 13/57/5
f 7/63/5 18/64/5 19/65/5 16/60/5
f 15/66/5 14/56/5 21/59/5 17/67/5
f 8/68/5 15/66/5 17/67/5
f 20/69/22 19/70/23 22/71/23 30/72/22
f 19/73/23 18/9/24 33/8/24 22/74/23
f 29/75/5 26/76/5 24/77/5
f 26/76/5 31/78/5 24/77/5
f 17/26/25 21/49/20 27/52/20 28/27/25
f 29/79/26 24/80/26 25/81/26 28/82/26
f 24/83/27 32/84/27 33/85/27 25/86/27
f 31/87/28 26/88/29 27/89/30 30/90/31
f 23/91/32 31/92/28 30/93/31 22/94/33
f 32/95/34 23/96/32 22/97/33 33/85/34
f 26/88/29 29/98/35 28/82/35 27/89/30
f 32/99/5 24/100/5 23/101/5
f 17/102/6 41/53/6 8/24/6
f 18/103/3 7/46/3 39/55/3
f 40/104/3 25/105/3 18/106/3 39/107/3
f 41/108/6 17/109/6 25/110/6 40/111/6
f 34/112/36 36/113/36 35/114/36
f 34/112/36 38/115/36 37/116/36
f 34/112/36 39/117/36 36/113/36
f 34/112/36 40/118/36 39/117/36
f 34/112/36 37/116/36 41/119/36
f 34/112/36 41/119/36 40/118/36
f 34/112/36 35/114/36 42/120/36
f 34/112/36 42/120/36 38/115/36
