# Blender v3.4.1 OBJ File: 'Medieval_Hexagons_Export_1.0_WorldOrigin.blend'
# www.blender.org
mtllib hex_coast_C.mtl
o hex_coast_C
v -0.000000 -1.000000 0.000000
v 0.999998 -0.200000 -0.577349
v 0.999998 -0.200000 0.577349
v 0.000000 -0.200000 1.154699
v -0.999998 -0.200000 0.577349
v -0.999998 -0.100000 -0.000000
v 0.499999 -0.100000 -0.866024
v 0.499999 -0.200000 0.866024
v 0.710901 -0.200000 -0.308281
v 0.383333 -0.200000 -0.105847
v -0.050000 -0.200000 -0.086603
v -0.383333 -0.200000 0.105847
v -0.620527 -0.200000 0.407170
v 0.362152 -0.100000 -0.615500
v 0.112152 -0.100000 -0.471163
v -0.221873 -0.100000 -0.472363
v -0.493746 -0.100000 -0.333886
v -0.736955 -0.100000 -0.105733
v -0.999998 -0.050000 -0.000000
v -0.949998 0.000000 -0.077851
v -0.949998 0.000000 -0.548482
v -0.999998 -0.050000 -0.577350
v -0.000000 0.000000 -1.096964
v -0.000000 -0.050000 -1.154699
v 0.428493 0.000000 -0.849573
v 0.499999 -0.050000 -0.866024
v -0.472673 0.000000 -0.824066
v -0.499999 -0.050000 -0.866024
v 0.319254 0.000000 -0.651434
v 0.362152 -0.050000 -0.615500
v 0.075668 0.000000 -0.511382
v 0.112152 -0.050000 -0.471163
v -0.250576 0.000000 -0.512989
v -0.221873 -0.050000 -0.472363
v -0.511983 0.000000 -0.379860
v -0.493746 -0.050000 -0.333886
v -0.736955 -0.050000 -0.105733
v -0.746156 0.000000 -0.159942
v 0.716505 -0.100000 -0.741024
v -0.999998 -0.100000 0.250000
v 0.500739 -0.100000 -0.493417
v 0.221199 -0.100000 -0.324262
v -0.150193 -0.100000 -0.311481
v -0.445963 -0.100000 -0.143584
v -0.678785 -0.100000 0.150526
v 1.000000 -1.000000 0.577350
v 1.000000 -1.000000 -0.577350
v -1.000000 -1.000000 0.577350
v 0.000000 -1.000000 1.154700
v -1.000000 -1.000000 -0.000000
v 0.500000 -1.000000 -0.866025
v -0.000000 -1.000000 -1.154700
v -0.500000 -1.000000 -0.866025
v -1.000000 -1.000000 -0.577350
v 0.500000 -1.000000 0.866025
vt 0.197236 0.608588
vt 0.197236 0.608588
vt 0.197236 0.540052
vt 0.197236 0.540052
vt 0.539817 0.376975
vt 0.538345 0.376975
vt 0.536809 0.376975
vt 0.536809 0.376975
vt 0.538304 0.376975
vt 0.539817 0.376975
vt 0.197236 0.608588
vt 0.197236 0.608588
vt 0.197236 0.540052
vt 0.197236 0.540052
vt 0.197236 0.633213
vt 0.197236 0.633213
vt 0.197236 0.633213
vt 0.041688 0.387907
vt 0.041688 0.387907
vt 0.039534 0.387907
vt 0.039534 0.387907
vt 0.041688 0.387907
vt 0.041688 0.387907
vt 0.041688 0.387907
vt 0.041688 0.387907
vt 0.041494 0.423850
vt 0.039700 0.423850
vt 0.041513 0.423850
vt 0.041461 0.423850
vt 0.039766 0.423850
vt 0.039733 0.423850
vt 0.041482 0.423850
vt 0.041475 0.423850
vt 0.039534 0.356657
vt 0.039307 0.298735
vt 0.039307 0.298735
vt 0.039534 0.356657
vt 0.041688 0.387907
vt 0.041688 0.387907
vt 0.041688 0.387907
vt 0.041688 0.387907
vt 0.041688 0.387907
vt 0.041688 0.387907
vt 0.041688 0.387907
vt 0.041688 0.387907
vt 0.039700 0.423850
vt 0.041512 0.423850
vt 0.041466 0.423850
vt 0.041575 0.298735
vt 0.041688 0.356657
vt 0.039534 0.356657
vt 0.039307 0.298735
vt 0.539817 0.283110
vt 0.536651 0.283110
vt 0.041688 0.356657
vt 0.041575 0.298735
vt 0.536651 0.283110
vt 0.539817 0.283110
vt 0.572833 0.392600
vt 0.572833 0.392600
vt 0.571328 0.392600
vt 0.571362 0.392600
vt 0.197236 0.633213
vt 0.197236 0.633213
vt 0.197236 0.633213
vt 0.197236 0.633213
vt 0.197236 0.633213
vt 0.197236 0.633213
vt 0.197236 0.633213
vt 0.571328 0.423850
vt 0.569825 0.423850
vt 0.569825 0.423850
vt 0.571362 0.423850
vt 0.571127 0.423850
vt 0.569825 0.423850
vt 0.571080 0.423850
vt 0.569825 0.423850
vt 0.571035 0.423850
vt 0.569825 0.423850
vt 0.571020 0.423850
vt 0.569825 0.423850
vt 0.197236 0.608588
vt 0.197236 0.540052
vt 0.041475 0.408225
vt 0.039741 0.408225
vt 0.039534 0.408225
vt 0.041688 0.408225
vt 0.039723 0.408225
vt 0.041494 0.408225
vt 0.041688 0.408225
vt 0.039534 0.408225
vt 0.041482 0.408225
vt 0.041688 0.408225
vt 0.039766 0.408225
vt 0.039534 0.408225
vt 0.039700 0.408225
vt 0.041513 0.408225
vt 0.041688 0.408225
vt 0.041512 0.408225
vt 0.041688 0.408225
vt 0.041466 0.408225
vt 0.041688 0.408225
vt 0.041461 0.408225
vt 0.041688 0.408225
vt 0.572833 0.392600
vt 0.572833 0.392600
vt 0.571320 0.392600
vt 0.571020 0.392600
vt 0.572833 0.392600
vt 0.571035 0.392600
vt 0.572833 0.392600
vt 0.571080 0.392600
vt 0.572833 0.392600
vt 0.571127 0.392600
vt 0.571320 0.423850
vt 0.569825 0.423850
vt 0.182537 0.538250
vt 0.182998 0.538250
vt 0.199232 0.538250
vt 0.199232 0.538250
vt 0.182998 0.538250
vt 0.174881 0.538250
vt 0.166764 0.538250
vt 0.174881 0.538250
vt 0.166764 0.538250
vt 0.166764 0.538250
vt 0.199232 0.538250
vn -0.5000 0.0000 0.8660
vn -1.0000 0.0000 0.0000
vn 0.5000 0.0000 -0.8660
vn 1.0000 0.0000 -0.0000
vn 0.0000 1.0000 0.0000
vn 0.3730 0.0000 0.9278
vn 0.5378 0.0000 0.8431
vn -0.5000 0.0000 -0.8660
vn 0.5747 0.0000 0.8183
vn 0.2316 0.0000 0.9728
vn 0.1951 0.3784 0.9049
vn 0.2571 0.0000 0.9664
vn 0.2570 0.3593 0.8971
vn 0.7143 0.0000 0.6998
vn 0.8761 0.0000 0.4821
vn 0.1197 0.9429 0.3110
vn 0.1996 0.9330 0.2994
vn 0.2554 0.9223 0.2900
vn 0.5000 0.0000 0.8660
vn -0.7071 0.7071 -0.0000
vn 0.3536 0.7071 -0.6124
vn 0.4042 0.7056 0.5820
vn 0.2545 0.7315 0.6326
vn 0.3574 0.7159 0.5998
vn -0.3536 0.7071 -0.6124
vn 0.5904 0.7388 0.3251
vn 0.4707 0.7449 0.4729
vn 0.4801 0.7453 0.4626
vn 0.1392 0.6807 0.7192
vn 0.1935 0.6824 0.7049
vn 0.4059 0.6941 0.5946
vn 0.4248 0.6914 0.5843
vn 0.2075 0.9444 0.2550
vn 0.2272 0.9482 0.2221
vn 0.2028 0.9433 0.2628
vn 0.1191 0.9332 0.3391
vn 0.0844 0.9286 0.3614
vn 0.0960 0.9244 0.3692
vn 0.1104 0.9253 0.3627
vn 0.2867 0.9119 0.2938
vn 0.2426 0.9197 0.3088
vn 0.0000 -1.0000 0.0000
usemtl hexagons_medieval
s 1
f 4/1/1 5/2/1 48/3/1 49/4/1
f 5/5/2 40/6/2 6/7/2
f 7/8/3 39/9/3 2/10/3
f 2/11/4 3/12/4 46/13/4 47/14/4
f 13/15/5 5/16/5 4/17/5
f 6/18/2 19/19/2 22/20/2
f 24/21/3 26/22/3 7/23/3
f 6/18/6 18/24/7 37/25/7 19/19/6
f 25/26/5 23/27/5 29/28/5
f 35/29/5 27/30/5 21/31/5 38/32/5
f 38/32/5 21/31/5 20/33/5
f 28/34/8 53/35/8 54/36/8 22/37/8
f 18/24/7 17/38/9 36/39/9 37/25/7
f 17/38/9 16/40/10 34/41/11 36/39/9
f 16/40/10 15/42/12 32/43/13 34/41/11
f 14/44/14 7/23/15 26/22/15 30/45/14
f 15/42/12 14/44/14 30/45/14 32/43/13
f 29/28/5 23/27/5 27/46/5 31/47/5
f 31/47/5 27/30/5 33/48/5
f 33/48/5 27/30/5 35/29/5
f 50/49/2 6/50/2 22/37/2 54/36/2
f 24/51/8 52/52/8 53/35/8 28/34/8
f 48/53/2 5/5/2 6/7/2 50/54/2
f 52/52/3 24/51/3 7/55/3 51/56/3
f 51/57/3 7/8/3 2/10/3 47/58/3
f 5/59/16 13/60/17 45/61/18 40/62/16
f 3/63/5 2/64/5 9/65/5
f 8/66/5 10/67/5 11/68/5
f 8/66/5 11/68/5 12/69/5
f 45/70/5 18/71/5 6/72/5 40/73/5
f 44/74/5 17/75/5 18/71/5 45/70/5
f 43/76/5 16/77/5 17/75/5 44/74/5
f 42/78/5 15/79/5 16/77/5 43/76/5
f 41/80/5 14/81/5 15/79/5 42/78/5
f 8/82/19 4/1/19 49/4/19 55/83/19
f 3/12/19 8/82/19 55/83/19 46/13/19
f 8/66/5 12/69/5 13/15/5 4/17/5
f 20/84/20 21/85/20 22/86/20 19/87/20
f 9/65/5 10/67/5 8/66/5 3/63/5
f 23/88/21 25/89/21 26/90/21 24/91/21
f 38/92/22 20/84/23 19/87/23 37/93/24
f 21/85/25 27/94/25 28/95/25 22/86/25
f 27/96/25 23/88/25 24/91/25 28/95/25
f 25/89/26 29/97/27 30/98/28 26/90/26
f 29/97/27 31/99/29 32/100/13 30/98/28
f 31/99/29 33/101/30 34/102/11 32/100/13
f 33/101/30 35/103/31 36/104/32 34/102/11
f 35/103/31 38/92/22 37/93/24 36/104/32
f 9/105/33 2/106/34 39/107/34 41/108/35
f 10/109/36 9/105/33 41/108/35 42/110/37
f 11/111/38 10/109/36 42/110/37 43/112/39
f 12/113/40 11/111/38 43/112/39 44/114/41
f 13/60/17 12/113/40 44/114/41 45/61/18
f 39/115/5 7/116/5 14/81/5 41/80/5
f 1/117/42 47/118/42 46/119/42
f 1/117/42 49/120/42 48/121/42
f 1/117/42 48/121/42 50/122/42
f 1/117/42 52/123/42 51/124/42
f 1/117/42 54/125/42 53/126/42
f 1/117/42 50/122/42 54/125/42
f 1/117/42 51/124/42 47/118/42
f 1/117/42 55/127/42 49/120/42
f 1/117/42 46/119/42 55/127/42
f 1/117/42 53/126/42 52/123/42
